%TF.GenerationSoftware,KiCad,Pcbnew,10.0.1*%
%TF.CreationDate,2026-05-08T09:13:41-07:00*%
%TF.ProjectId,MiniSpeedCam-1.2,4d696e69-5370-4656-9564-43616d2d312e,rev?*%
%TF.SameCoordinates,Original*%
%TF.FileFunction,Copper,L3,Inr*%
%TF.FilePolarity,Positive*%
%FSLAX46Y46*%
G04 Gerber Fmt 4.6, Leading zero omitted, Abs format (unit mm)*
G04 Created by KiCad (PCBNEW 10.0.1) date 2026-05-08 09:13:41*
%MOMM*%
%LPD*%
G01*
G04 APERTURE LIST*
%TA.AperFunction,ComponentPad*%
%ADD10C,1.600000*%
%TD*%
%TA.AperFunction,ComponentPad*%
%ADD11R,1.600000X1.600000*%
%TD*%
%TA.AperFunction,ComponentPad*%
%ADD12C,0.450000*%
%TD*%
%TA.AperFunction,ComponentPad*%
%ADD13O,1.200000X1.800000*%
%TD*%
%TA.AperFunction,ComponentPad*%
%ADD14O,1.100000X2.000000*%
%TD*%
%TA.AperFunction,ComponentPad*%
%ADD15C,1.700000*%
%TD*%
%TA.AperFunction,ComponentPad*%
%ADD16R,1.700000X1.700000*%
%TD*%
%TA.AperFunction,ComponentPad*%
%ADD17C,1.800000*%
%TD*%
%TA.AperFunction,ComponentPad*%
%ADD18R,1.800000X1.800000*%
%TD*%
%TA.AperFunction,ViaPad*%
%ADD19C,0.600000*%
%TD*%
%TA.AperFunction,ViaPad*%
%ADD20C,0.700000*%
%TD*%
%TA.AperFunction,ViaPad*%
%ADD21C,6.400000*%
%TD*%
%TA.AperFunction,ViaPad*%
%ADD22C,1.000000*%
%TD*%
%TA.AperFunction,ViaPad*%
%ADD23C,0.800000*%
%TD*%
%TA.AperFunction,Conductor*%
%ADD24C,0.200000*%
%TD*%
%TA.AperFunction,Conductor*%
%ADD25C,1.000000*%
%TD*%
G04 APERTURE END LIST*
D10*
%TO.N,Net-(U5-+Vo)*%
%TO.C,U5*%
X14672500Y23190000D03*
%TO.N,GND*%
X14672500Y20650000D03*
%TO.N,5V*%
X14672500Y18110000D03*
D11*
%TO.N,GND*%
X14672500Y15570000D03*
%TD*%
D12*
%TO.N,GND*%
%TO.C,U14*%
X12210000Y980000D03*
X12210000Y-420000D03*
X11510000Y1680000D03*
X11510000Y280000D03*
X11510000Y-1120000D03*
X10810000Y980000D03*
X10810000Y-420000D03*
X10110000Y1680000D03*
X10110000Y280000D03*
X10110000Y-1120000D03*
X9410000Y980000D03*
X9410000Y-420000D03*
%TD*%
D13*
%TO.N,GND*%
%TO.C,USB2*%
X15200100Y-22920000D03*
D14*
X15200100Y-18710000D03*
D13*
X6560100Y-22920000D03*
D14*
X6560100Y-18710000D03*
%TD*%
D15*
%TO.N,GPIO20*%
%TO.C,J4*%
X23710000Y-4330000D03*
%TO.N,GPIO3*%
X23710000Y-1790000D03*
%TO.N,GPIO46*%
X23710000Y750000D03*
%TO.N,GPIO14*%
X23710000Y3290000D03*
%TO.N,GPIO48*%
X23710000Y5830000D03*
D16*
%TO.N,GND*%
X23710000Y8370000D03*
%TD*%
D17*
%TO.N,GND*%
%TO.C,J1*%
X-10300000Y-20430000D03*
D18*
%TO.N,5V*%
X-13800000Y-20430000D03*
%TD*%
D13*
%TO.N,GND*%
%TO.C,USB1*%
X3300000Y-22920000D03*
D14*
X3300000Y-18710000D03*
D13*
X-5340000Y-22920000D03*
D14*
X-5340000Y-18710000D03*
%TD*%
D16*
%TO.N,GND*%
%TO.C,J3*%
X-1540000Y23880000D03*
D15*
%TO.N,Net-(J3-Pin_2)*%
X1000000Y23880000D03*
%TO.N,Net-(J3-Pin_3)*%
X3540000Y23880000D03*
%TD*%
D19*
%TO.N,GND*%
X16375000Y-12800000D03*
X14975000Y-10875000D03*
%TO.N,ESP_USB_D+*%
X6450000Y-12900000D03*
X9525000Y-15300000D03*
%TO.N,5V*%
X15353554Y-12853554D03*
%TO.N,UART0_RXD_ESP32*%
X15887500Y-11612500D03*
%TO.N,UART0_TXD_ESP32*%
X15896446Y-10896446D03*
%TO.N,GND*%
X11625000Y-5175000D03*
X14130000Y-300000D03*
X12700000Y-4660000D03*
X15260000Y-16210000D03*
X-8580000Y-13170000D03*
X9330000Y8610000D03*
X1330000Y7580000D03*
D20*
X-12434375Y12083125D03*
D19*
X2250000Y-190000D03*
D20*
X-15015625Y12064375D03*
D19*
X-3740000Y-3280000D03*
X-19500000Y13890000D03*
X17480000Y-4700000D03*
X-15100000Y-3120000D03*
X-19200000Y11280000D03*
D20*
X-4712500Y18147500D03*
D19*
X16300000Y8200000D03*
D21*
X22300000Y21780000D03*
D19*
X-2000000Y12280000D03*
D20*
X-1787500Y17647500D03*
D19*
X4780000Y4350000D03*
X-750000Y4480000D03*
X8500000Y3210000D03*
X-15510000Y1810000D03*
D20*
X-14984375Y14633125D03*
D19*
X1680000Y-6370000D03*
X17990000Y23970000D03*
X5000000Y-10440000D03*
%TO.N,/BOOT0*%
X-21500000Y8480000D03*
D22*
%TO.N,5V*%
X2820000Y-14000000D03*
D19*
%TO.N,/BOOT0*%
X-18750000Y13030000D03*
%TO.N,GND*%
X1600000Y-15600000D03*
X-11700000Y-17520000D03*
X2100000Y2480000D03*
X-6720000Y12600000D03*
D22*
%TO.N,5V*%
X15378437Y-15225000D03*
X-9710000Y-15210000D03*
D19*
%TO.N,GND*%
X7900000Y20280000D03*
X-9400000Y-11010000D03*
X-5520000Y15160000D03*
X4560000Y-20940000D03*
D22*
%TO.N,5V*%
X-22005025Y-10745025D03*
D19*
%TO.N,UART0_RXD_ESP32*%
X8200000Y8880000D03*
D20*
%TO.N,GND*%
X-12465625Y14614375D03*
D19*
%TO.N,5V*%
X-300000Y-10500000D03*
%TO.N,GND*%
X-6230000Y9540000D03*
X-13000000Y6880000D03*
X3100000Y12580000D03*
X-4300000Y3790000D03*
%TO.N,BUTTON_WIFI*%
X-18000000Y17431782D03*
%TO.N,CAM.Y3*%
X18800000Y-125000D03*
%TO.N,STM32_RESET*%
X19220000Y6230000D03*
X10980000Y8770000D03*
%TO.N,CAM.Y9*%
X11980000Y-8320000D03*
%TO.N,BUTTON_WIFI*%
X19250000Y4940000D03*
%TO.N,CAM.Y2*%
X18900000Y-2665000D03*
%TO.N,3V3*%
X-5700000Y3972892D03*
X6210000Y-9060000D03*
%TO.N,Net-(U13-PA2)*%
X-10151286Y11026656D03*
%TO.N,3V3*%
X-9800000Y16880000D03*
%TO.N,CAM.RST*%
X2300000Y-3900000D03*
%TO.N,2V8*%
X-3310000Y2450000D03*
%TO.N,Net-(U13-PA2)*%
X-3400000Y-7200000D03*
%TO.N,3V3*%
X-13800000Y9180000D03*
%TO.N,I2C_SDA*%
X3921294Y-4430460D03*
%TO.N,3V3*%
X-2870000Y-2250000D03*
X10500000Y12980000D03*
X-19900000Y-8420000D03*
X-17400000Y10080000D03*
X-7558946Y20221054D03*
X-8300000Y18880000D03*
X18500000Y14720000D03*
X-1680000Y4880000D03*
%TO.N,UART0_TXD_ESP32*%
X6900000Y8880000D03*
%TO.N,3V3*%
X4800000Y19280000D03*
X-12000000Y21280000D03*
X216396Y-20000D03*
D23*
X-7840000Y-9030000D03*
D19*
X12510000Y12980000D03*
X-18000000Y15520000D03*
X15510000Y12980000D03*
D22*
X3130000Y-8580000D03*
D19*
X-1300000Y7970000D03*
%TO.N,Net-(U13-PA3)*%
X-9900000Y11680000D03*
X-2800000Y-6600000D03*
%TO.N,I2C_SCL*%
X3339268Y-3867059D03*
%TO.N,CAM.PWDN*%
X1480000Y6850000D03*
%TO.N,CAM.Y7*%
X15881801Y-8138199D03*
%TO.N,CAM.VSYNC*%
X2831801Y-3384896D03*
%TO.N,CAM.PCLK*%
X17000000Y-8120000D03*
%TO.N,1V2*%
X-6085982Y6136743D03*
%TO.N,CAM.HREF*%
X2355417Y-2872000D03*
%TO.N,CAM.Y4*%
X18550000Y1150000D03*
%TO.N,USART1_RX_STM32_ESP32*%
X-12900000Y16980000D03*
X-7700000Y13480000D03*
%TO.N,CAM.Y6*%
X16540000Y-2770000D03*
%TO.N,CAM.Y8*%
X14520000Y-8140000D03*
%TO.N,CAM.PWDN*%
X15110000Y4830000D03*
%TO.N,2V8*%
X-1980000Y-1730000D03*
%TO.N,CAM.Y5*%
X18900000Y-1395000D03*
%TO.N,CAM.XCLK*%
X13250000Y-8270000D03*
%TO.N,USART1_TX_STM32_ESP32*%
X-7500000Y14280000D03*
%TO.N,CAM.PCLK*%
X1400000Y3880000D03*
%TO.N,1V2*%
X-593968Y2728054D03*
%TO.N,USART1_TX_STM32_ESP32*%
X-13700000Y16980000D03*
D20*
%TO.N,GND*%
X-13734375Y13345625D03*
D19*
X7900000Y-5040000D03*
D21*
X-20300000Y21780000D03*
D20*
X-5212500Y18947500D03*
D19*
X11620000Y3130000D03*
X17930000Y5690000D03*
X-9950000Y17980000D03*
D20*
X5287500Y17667500D03*
D19*
X-20650000Y3390000D03*
X15360000Y3790000D03*
X7600000Y15080000D03*
D20*
X-5712500Y18147500D03*
D19*
X-4750000Y-16790000D03*
D20*
X-5712500Y19747500D03*
X-5412500Y23067500D03*
X-4712500Y19747500D03*
D19*
X19460000Y15320000D03*
X-16300000Y17980000D03*
X5090000Y7470000D03*
%TO.N,CHIP_PU*%
X16475000Y12300000D03*
X15825000Y9075000D03*
D21*
%TO.N,GND*%
X22300000Y-20820000D03*
X-20300000Y-20820000D03*
%TD*%
%TO.N,1V2*%
D24*
X-6085982Y5065982D02*
X-5310000Y4290000D01*
X-5310000Y4290000D02*
X-2155914Y4290000D01*
X-2155914Y4290000D02*
X-593968Y2728054D01*
X-6085982Y6136743D02*
X-6085982Y5065982D01*
%TO.N,5V*%
D25*
X-13800000Y-20420000D02*
X-14600000Y-20420000D01*
X-22201000Y17979000D02*
X-18725574Y17979000D01*
X-11399000Y24479000D02*
X-4699000Y24479000D01*
X-14600000Y-20420000D02*
X-22999000Y-12021000D01*
X-16499000Y20205574D02*
X-16499000Y23381000D01*
X12370000Y18110000D02*
X14672500Y18110000D01*
X-15400000Y24480000D02*
X-11400000Y24480000D01*
X-22999000Y17181000D02*
X-22201000Y17979000D01*
X-2600000Y22380000D02*
X8100000Y22380000D01*
X-16499000Y23381000D02*
X-15400000Y24480000D01*
X-11400000Y24480000D02*
X-11399000Y24479000D01*
X-4699000Y24479000D02*
X-2600000Y22380000D01*
X-18725574Y17979000D02*
X-16499000Y20205574D01*
X-22999000Y-12021000D02*
X-22999000Y17181000D01*
X8100000Y22380000D02*
X12370000Y18110000D01*
%TD*%
%TA.AperFunction,Conductor*%
%TO.N,3V3*%
G36*
X20856314Y24959815D02*
G01*
X20902069Y24907011D01*
X20912013Y24837853D01*
X20882988Y24774297D01*
X20847728Y24746142D01*
X20601169Y24614353D01*
X20601158Y24614347D01*
X20331524Y24434183D01*
X20331518Y24434178D01*
X20080841Y24228453D01*
X19851546Y23999158D01*
X19645821Y23748481D01*
X19645811Y23748467D01*
X19465657Y23478848D01*
X19465646Y23478830D01*
X19312788Y23192854D01*
X19312786Y23192849D01*
X19188686Y22893247D01*
X19094548Y22582913D01*
X19094545Y22582902D01*
X19031287Y22264874D01*
X19031284Y22264857D01*
X18999500Y21942139D01*
X18999500Y21617860D01*
X19031284Y21295142D01*
X19031287Y21295125D01*
X19094545Y20977097D01*
X19094548Y20977086D01*
X19188686Y20666752D01*
X19312786Y20367150D01*
X19312788Y20367145D01*
X19465646Y20081169D01*
X19465657Y20081151D01*
X19645811Y19811532D01*
X19645821Y19811518D01*
X19851546Y19560841D01*
X20080841Y19331546D01*
X20331518Y19125821D01*
X20331532Y19125811D01*
X20601151Y18945657D01*
X20601169Y18945646D01*
X20887145Y18792788D01*
X20887150Y18792786D01*
X21186752Y18668686D01*
X21497086Y18574548D01*
X21497097Y18574545D01*
X21815125Y18511287D01*
X21815142Y18511284D01*
X22065099Y18486666D01*
X22137857Y18479500D01*
X22137860Y18479500D01*
X22462140Y18479500D01*
X22462143Y18479500D01*
X22540812Y18487248D01*
X22784857Y18511284D01*
X22784874Y18511287D01*
X23102902Y18574545D01*
X23102913Y18574548D01*
X23413247Y18668686D01*
X23712849Y18792786D01*
X23712854Y18792788D01*
X23998830Y18945646D01*
X23998837Y18945650D01*
X23998842Y18945653D01*
X24268476Y19125817D01*
X24477064Y19297000D01*
X24519158Y19331546D01*
X24748453Y19560841D01*
X24950314Y19806809D01*
X24954183Y19811524D01*
X25134347Y20081158D01*
X25266142Y20327728D01*
X25315105Y20377572D01*
X25383242Y20393032D01*
X25448922Y20369200D01*
X25491291Y20313642D01*
X25499500Y20269274D01*
X25499500Y-9455300D01*
X25479815Y-9522339D01*
X25427011Y-9568094D01*
X25375330Y-9579300D01*
X-22274670Y-9513877D01*
X-22341683Y-9494100D01*
X-22387365Y-9441234D01*
X-22398500Y-9389877D01*
X-22398500Y-8267273D01*
X11579500Y-8267273D01*
X11579500Y-8372727D01*
X11606793Y-8474587D01*
X11659520Y-8565913D01*
X11734087Y-8640480D01*
X11825413Y-8693207D01*
X11927273Y-8720500D01*
X11927275Y-8720500D01*
X12032725Y-8720500D01*
X12032727Y-8720500D01*
X12134587Y-8693207D01*
X12225913Y-8640480D01*
X12300480Y-8565913D01*
X12353207Y-8474587D01*
X12380500Y-8372727D01*
X12380500Y-8267273D01*
X12367103Y-8217273D01*
X12849500Y-8217273D01*
X12849500Y-8322727D01*
X12876793Y-8424587D01*
X12929520Y-8515913D01*
X13004087Y-8590480D01*
X13095413Y-8643207D01*
X13197273Y-8670500D01*
X13197275Y-8670500D01*
X13302725Y-8670500D01*
X13302727Y-8670500D01*
X13404587Y-8643207D01*
X13495913Y-8590480D01*
X13570480Y-8515913D01*
X13623207Y-8424587D01*
X13650500Y-8322727D01*
X13650500Y-8217273D01*
X13623207Y-8115413D01*
X13606960Y-8087273D01*
X14119500Y-8087273D01*
X14119500Y-8192727D01*
X14146793Y-8294587D01*
X14199520Y-8385913D01*
X14274087Y-8460480D01*
X14365413Y-8513207D01*
X14467273Y-8540500D01*
X14467275Y-8540500D01*
X14572725Y-8540500D01*
X14572727Y-8540500D01*
X14674587Y-8513207D01*
X14765913Y-8460480D01*
X14840480Y-8385913D01*
X14893207Y-8294587D01*
X14920500Y-8192727D01*
X14920500Y-8087273D01*
X14920017Y-8085472D01*
X15481301Y-8085472D01*
X15481301Y-8190926D01*
X15508594Y-8292786D01*
X15561321Y-8384112D01*
X15635888Y-8458679D01*
X15727214Y-8511406D01*
X15829074Y-8538699D01*
X15829076Y-8538699D01*
X15934526Y-8538699D01*
X15934528Y-8538699D01*
X16036388Y-8511406D01*
X16127714Y-8458679D01*
X16202281Y-8384112D01*
X16255008Y-8292786D01*
X16282301Y-8190926D01*
X16282301Y-8085472D01*
X16277425Y-8067273D01*
X16599500Y-8067273D01*
X16599500Y-8172727D01*
X16626793Y-8274587D01*
X16679520Y-8365913D01*
X16754087Y-8440480D01*
X16845413Y-8493207D01*
X16947273Y-8520500D01*
X16947275Y-8520500D01*
X17052725Y-8520500D01*
X17052727Y-8520500D01*
X17154587Y-8493207D01*
X17245913Y-8440480D01*
X17320480Y-8365913D01*
X17373207Y-8274587D01*
X17400500Y-8172727D01*
X17400500Y-8067273D01*
X17373207Y-7965413D01*
X17320480Y-7874087D01*
X17245913Y-7799520D01*
X17154587Y-7746793D01*
X17052727Y-7719500D01*
X16947273Y-7719500D01*
X16845413Y-7746793D01*
X16845410Y-7746794D01*
X16754085Y-7799521D01*
X16679521Y-7874085D01*
X16626794Y-7965410D01*
X16626793Y-7965413D01*
X16599500Y-8067273D01*
X16277425Y-8067273D01*
X16255008Y-7983612D01*
X16202281Y-7892286D01*
X16127714Y-7817719D01*
X16039509Y-7766794D01*
X16036390Y-7764993D01*
X16036389Y-7764992D01*
X16036388Y-7764992D01*
X15934528Y-7737699D01*
X15829074Y-7737699D01*
X15727214Y-7764992D01*
X15727211Y-7764993D01*
X15635886Y-7817720D01*
X15561322Y-7892284D01*
X15508595Y-7983609D01*
X15508594Y-7983612D01*
X15481301Y-8085472D01*
X14920017Y-8085472D01*
X14893207Y-7985413D01*
X14840480Y-7894087D01*
X14765913Y-7819520D01*
X14674587Y-7766793D01*
X14572727Y-7739500D01*
X14467273Y-7739500D01*
X14365413Y-7766793D01*
X14365410Y-7766794D01*
X14274085Y-7819521D01*
X14199521Y-7894085D01*
X14146794Y-7985410D01*
X14146793Y-7985413D01*
X14119500Y-8087273D01*
X13606960Y-8087273D01*
X13570480Y-8024087D01*
X13495913Y-7949520D01*
X13404587Y-7896793D01*
X13302727Y-7869500D01*
X13197273Y-7869500D01*
X13095413Y-7896793D01*
X13095410Y-7896794D01*
X13004085Y-7949521D01*
X12929521Y-8024085D01*
X12876794Y-8115410D01*
X12876794Y-8115411D01*
X12876793Y-8115413D01*
X12849500Y-8217273D01*
X12367103Y-8217273D01*
X12353207Y-8165413D01*
X12300480Y-8074087D01*
X12225913Y-7999520D01*
X12139312Y-7949521D01*
X12134589Y-7946794D01*
X12134588Y-7946793D01*
X12134587Y-7946793D01*
X12032727Y-7919500D01*
X11927273Y-7919500D01*
X11825413Y-7946793D01*
X11825410Y-7946794D01*
X11734085Y-7999521D01*
X11659521Y-8074085D01*
X11606794Y-8165410D01*
X11606793Y-8165413D01*
X11579500Y-8267273D01*
X-22398500Y-8267273D01*
X-22398500Y-7147273D01*
X-3800500Y-7147273D01*
X-3800500Y-7252727D01*
X-3773207Y-7354587D01*
X-3720480Y-7445913D01*
X-3645913Y-7520480D01*
X-3554587Y-7573207D01*
X-3452727Y-7600500D01*
X-3452725Y-7600500D01*
X-3347275Y-7600500D01*
X-3347273Y-7600500D01*
X-3245413Y-7573207D01*
X-3154087Y-7520480D01*
X-3079520Y-7445913D01*
X-3026793Y-7354587D01*
X-2999500Y-7252727D01*
X-2999500Y-7147273D01*
X-2999500Y-7147271D01*
X-3000561Y-7139217D01*
X-2997282Y-7138785D01*
X-2995943Y-7084291D01*
X-2956735Y-7026459D01*
X-2892485Y-6999005D01*
X-2861024Y-7001275D01*
X-2860783Y-6999439D01*
X-2852728Y-7000499D01*
X-2852727Y-7000500D01*
X-2852725Y-7000500D01*
X-2747275Y-7000500D01*
X-2747273Y-7000500D01*
X-2645413Y-6973207D01*
X-2554087Y-6920480D01*
X-2479520Y-6845913D01*
X-2426793Y-6754587D01*
X-2399500Y-6652727D01*
X-2399500Y-6547273D01*
X-2426793Y-6445413D01*
X-2426794Y-6445410D01*
X-2469671Y-6371146D01*
X-2479521Y-6354085D01*
X-2516333Y-6317273D01*
X1279500Y-6317273D01*
X1279500Y-6422727D01*
X1306793Y-6524587D01*
X1359520Y-6615913D01*
X1434087Y-6690480D01*
X1525413Y-6743207D01*
X1627273Y-6770500D01*
X1627275Y-6770500D01*
X1732725Y-6770500D01*
X1732727Y-6770500D01*
X1834587Y-6743207D01*
X1925913Y-6690480D01*
X2000480Y-6615913D01*
X2053207Y-6524587D01*
X2080500Y-6422727D01*
X2080500Y-6317273D01*
X2053207Y-6215413D01*
X2000480Y-6124087D01*
X1925913Y-6049520D01*
X1834587Y-5996793D01*
X1732727Y-5969500D01*
X1627273Y-5969500D01*
X1525413Y-5996793D01*
X1525410Y-5996794D01*
X1434085Y-6049521D01*
X1359521Y-6124085D01*
X1306794Y-6215410D01*
X1306793Y-6215413D01*
X1279500Y-6317273D01*
X-2516333Y-6317273D01*
X-2554085Y-6279521D01*
X-2645410Y-6226794D01*
X-2645413Y-6226793D01*
X-2747273Y-6199500D01*
X-2852727Y-6199500D01*
X-2954587Y-6226793D01*
X-3045913Y-6279520D01*
X-3120480Y-6354087D01*
X-3173207Y-6445413D01*
X-3200500Y-6547273D01*
X-3200500Y-6547275D01*
X-3200500Y-6652725D01*
X-3199439Y-6660783D01*
X-3202742Y-6661217D01*
X-3204006Y-6715551D01*
X-3243137Y-6773435D01*
X-3307350Y-6800975D01*
X-3338976Y-6798734D01*
X-3339217Y-6800561D01*
X-3347271Y-6799500D01*
X-3347273Y-6799500D01*
X-3452727Y-6799500D01*
X-3554587Y-6826793D01*
X-3645913Y-6879520D01*
X-3720480Y-6954087D01*
X-3773207Y-7045413D01*
X-3800500Y-7147273D01*
X-22398500Y-7147273D01*
X-22398500Y-4987273D01*
X7499500Y-4987273D01*
X7499500Y-5092727D01*
X7526793Y-5194587D01*
X7579520Y-5285913D01*
X7654087Y-5360480D01*
X7745413Y-5413207D01*
X7847273Y-5440500D01*
X7847275Y-5440500D01*
X7952725Y-5440500D01*
X7952727Y-5440500D01*
X8054587Y-5413207D01*
X8145913Y-5360480D01*
X8220480Y-5285913D01*
X8273207Y-5194587D01*
X8292583Y-5122273D01*
X11224500Y-5122273D01*
X11224500Y-5227727D01*
X11251793Y-5329587D01*
X11304520Y-5420913D01*
X11379087Y-5495480D01*
X11470413Y-5548207D01*
X11572273Y-5575500D01*
X11572275Y-5575500D01*
X11677725Y-5575500D01*
X11677727Y-5575500D01*
X11779587Y-5548207D01*
X11870913Y-5495480D01*
X11945480Y-5420913D01*
X11998207Y-5329587D01*
X12025500Y-5227727D01*
X12025500Y-5122273D01*
X11998207Y-5020413D01*
X11945480Y-4929087D01*
X11870913Y-4854520D01*
X11782831Y-4803666D01*
X11779589Y-4801794D01*
X11779588Y-4801793D01*
X11779587Y-4801793D01*
X11677727Y-4774500D01*
X11572273Y-4774500D01*
X11470413Y-4801793D01*
X11470410Y-4801794D01*
X11379085Y-4854521D01*
X11304521Y-4929085D01*
X11251794Y-5020410D01*
X11251793Y-5020413D01*
X11224500Y-5122273D01*
X8292583Y-5122273D01*
X8300500Y-5092727D01*
X8300500Y-4987273D01*
X8273207Y-4885413D01*
X8220480Y-4794087D01*
X8145913Y-4719520D01*
X8054587Y-4666793D01*
X7952727Y-4639500D01*
X7847273Y-4639500D01*
X7745413Y-4666793D01*
X7745410Y-4666794D01*
X7654085Y-4719521D01*
X7579521Y-4794085D01*
X7526794Y-4885410D01*
X7526793Y-4885413D01*
X7499500Y-4987273D01*
X-22398500Y-4987273D01*
X-22398500Y-3847273D01*
X1899500Y-3847273D01*
X1899500Y-3952727D01*
X1926793Y-4054587D01*
X1979520Y-4145913D01*
X2054087Y-4220480D01*
X2145413Y-4273207D01*
X2247273Y-4300500D01*
X2247275Y-4300500D01*
X2352725Y-4300500D01*
X2352727Y-4300500D01*
X2454587Y-4273207D01*
X2545913Y-4220480D01*
X2620480Y-4145913D01*
X2673207Y-4054587D01*
X2700500Y-3952727D01*
X2700500Y-3952710D01*
X2700536Y-3952444D01*
X2700636Y-3952217D01*
X2702603Y-3944877D01*
X2703746Y-3945183D01*
X2728795Y-3888544D01*
X2787116Y-3850066D01*
X2856980Y-3849227D01*
X2916208Y-3886292D01*
X2943252Y-3936521D01*
X2966061Y-4021647D01*
X2966062Y-4021648D01*
X3018788Y-4112972D01*
X3093355Y-4187539D01*
X3184681Y-4240266D01*
X3286541Y-4267559D01*
X3286543Y-4267559D01*
X3396794Y-4267559D01*
X3463833Y-4287244D01*
X3509588Y-4340048D01*
X3520794Y-4391559D01*
X3520794Y-4483187D01*
X3548087Y-4585047D01*
X3600814Y-4676373D01*
X3675381Y-4750940D01*
X3766707Y-4803667D01*
X3868567Y-4830960D01*
X3868569Y-4830960D01*
X3974019Y-4830960D01*
X3974021Y-4830960D01*
X4075881Y-4803667D01*
X4167207Y-4750940D01*
X4241774Y-4676373D01*
X4281669Y-4607273D01*
X12299500Y-4607273D01*
X12299500Y-4712727D01*
X12326793Y-4814587D01*
X12379520Y-4905913D01*
X12454087Y-4980480D01*
X12545413Y-5033207D01*
X12647273Y-5060500D01*
X12647275Y-5060500D01*
X12752725Y-5060500D01*
X12752727Y-5060500D01*
X12854587Y-5033207D01*
X12945913Y-4980480D01*
X13020480Y-4905913D01*
X13073207Y-4814587D01*
X13100500Y-4712727D01*
X13100500Y-4647273D01*
X17079500Y-4647273D01*
X17079500Y-4752727D01*
X17106793Y-4854587D01*
X17159520Y-4945913D01*
X17234087Y-5020480D01*
X17325413Y-5073207D01*
X17427273Y-5100500D01*
X17427275Y-5100500D01*
X17532725Y-5100500D01*
X17532727Y-5100500D01*
X17634587Y-5073207D01*
X17725913Y-5020480D01*
X17800480Y-4945913D01*
X17853207Y-4854587D01*
X17880500Y-4752727D01*
X17880500Y-4647273D01*
X17853207Y-4545413D01*
X17800480Y-4454087D01*
X17725913Y-4379520D01*
X17634587Y-4326793D01*
X17532727Y-4299500D01*
X17427273Y-4299500D01*
X17325413Y-4326793D01*
X17325410Y-4326794D01*
X17234085Y-4379521D01*
X17159521Y-4454085D01*
X17106794Y-4545410D01*
X17106793Y-4545413D01*
X17079500Y-4647273D01*
X13100500Y-4647273D01*
X13100500Y-4607273D01*
X13073207Y-4505413D01*
X13020480Y-4414087D01*
X12945913Y-4339520D01*
X12854587Y-4286793D01*
X12752727Y-4259500D01*
X12647273Y-4259500D01*
X12545413Y-4286793D01*
X12545410Y-4286794D01*
X12454085Y-4339521D01*
X12379521Y-4414085D01*
X12326794Y-4505410D01*
X12326793Y-4505413D01*
X12299500Y-4607273D01*
X4281669Y-4607273D01*
X4294501Y-4585047D01*
X4321794Y-4483187D01*
X4321794Y-4377733D01*
X4294501Y-4275873D01*
X4271699Y-4236379D01*
X22759500Y-4236379D01*
X22759500Y-4423620D01*
X22796025Y-4607243D01*
X22796027Y-4607251D01*
X22867676Y-4780228D01*
X22867681Y-4780237D01*
X22971697Y-4935907D01*
X22971700Y-4935911D01*
X23104088Y-5068299D01*
X23104092Y-5068302D01*
X23259762Y-5172318D01*
X23259768Y-5172321D01*
X23259769Y-5172322D01*
X23432749Y-5243973D01*
X23616379Y-5280499D01*
X23616383Y-5280500D01*
X23616384Y-5280500D01*
X23803617Y-5280500D01*
X23803618Y-5280499D01*
X23987251Y-5243973D01*
X24160231Y-5172322D01*
X24315908Y-5068302D01*
X24448302Y-4935908D01*
X24552322Y-4780231D01*
X24623973Y-4607251D01*
X24660500Y-4423616D01*
X24660500Y-4236384D01*
X24623973Y-4052749D01*
X24552322Y-3879769D01*
X24552321Y-3879768D01*
X24552318Y-3879762D01*
X24448302Y-3724092D01*
X24448299Y-3724088D01*
X24315911Y-3591700D01*
X24315907Y-3591697D01*
X24160237Y-3487681D01*
X24160228Y-3487676D01*
X23987251Y-3416027D01*
X23987243Y-3416025D01*
X23803620Y-3379500D01*
X23803616Y-3379500D01*
X23616384Y-3379500D01*
X23616379Y-3379500D01*
X23432756Y-3416025D01*
X23432748Y-3416027D01*
X23259771Y-3487676D01*
X23259762Y-3487681D01*
X23104092Y-3591697D01*
X23104088Y-3591700D01*
X22971700Y-3724088D01*
X22971697Y-3724092D01*
X22867681Y-3879762D01*
X22867676Y-3879771D01*
X22796027Y-4052748D01*
X22796025Y-4052756D01*
X22759500Y-4236379D01*
X4271699Y-4236379D01*
X4241774Y-4184547D01*
X4167207Y-4109980D01*
X4075881Y-4057253D01*
X3974021Y-4029960D01*
X3868567Y-4029960D01*
X3863768Y-4029960D01*
X3796729Y-4010275D01*
X3750974Y-3957471D01*
X3739768Y-3905960D01*
X3739768Y-3814334D01*
X3739768Y-3814332D01*
X3712475Y-3712472D01*
X3659748Y-3621146D01*
X3585181Y-3546579D01*
X3493855Y-3493852D01*
X3391995Y-3466559D01*
X3356301Y-3466559D01*
X3289262Y-3446874D01*
X3243507Y-3394070D01*
X3232301Y-3342559D01*
X3232301Y-3332171D01*
X3232301Y-3332169D01*
X3205008Y-3230309D01*
X3152281Y-3138983D01*
X3077714Y-3064416D01*
X2986388Y-3011689D01*
X2884528Y-2984396D01*
X2879917Y-2984396D01*
X2812878Y-2964711D01*
X2767123Y-2911907D01*
X2757594Y-2880723D01*
X2755917Y-2870631D01*
X2755917Y-2819273D01*
X2728624Y-2717413D01*
X2728543Y-2717273D01*
X16139500Y-2717273D01*
X16139500Y-2822727D01*
X16166793Y-2924587D01*
X16219520Y-3015913D01*
X16294087Y-3090480D01*
X16385413Y-3143207D01*
X16487273Y-3170500D01*
X16487275Y-3170500D01*
X16592725Y-3170500D01*
X16592727Y-3170500D01*
X16694587Y-3143207D01*
X16785913Y-3090480D01*
X16860480Y-3015913D01*
X16913207Y-2924587D01*
X16940500Y-2822727D01*
X16940500Y-2717273D01*
X16913207Y-2615413D01*
X16911394Y-2612273D01*
X18499500Y-2612273D01*
X18499500Y-2717727D01*
X18526793Y-2819587D01*
X18579520Y-2910913D01*
X18654087Y-2985480D01*
X18745413Y-3038207D01*
X18847273Y-3065500D01*
X18847275Y-3065500D01*
X18952725Y-3065500D01*
X18952727Y-3065500D01*
X19054587Y-3038207D01*
X19145913Y-2985480D01*
X19220480Y-2910913D01*
X19273207Y-2819587D01*
X19300500Y-2717727D01*
X19300500Y-2612273D01*
X19273207Y-2510413D01*
X19220480Y-2419087D01*
X19145913Y-2344520D01*
X19054587Y-2291793D01*
X18952727Y-2264500D01*
X18847273Y-2264500D01*
X18745413Y-2291793D01*
X18745410Y-2291794D01*
X18654085Y-2344521D01*
X18579521Y-2419085D01*
X18526794Y-2510410D01*
X18526793Y-2510413D01*
X18499500Y-2612273D01*
X16911394Y-2612273D01*
X16860480Y-2524087D01*
X16785913Y-2449520D01*
X16694587Y-2396793D01*
X16592727Y-2369500D01*
X16487273Y-2369500D01*
X16385413Y-2396793D01*
X16385410Y-2396794D01*
X16294085Y-2449521D01*
X16219521Y-2524085D01*
X16166794Y-2615410D01*
X16166794Y-2615411D01*
X16166793Y-2615413D01*
X16139500Y-2717273D01*
X2728543Y-2717273D01*
X2675897Y-2626087D01*
X2601330Y-2551520D01*
X2534476Y-2512922D01*
X2510006Y-2498794D01*
X2510005Y-2498793D01*
X2510004Y-2498793D01*
X2408144Y-2471500D01*
X2302690Y-2471500D01*
X2200830Y-2498793D01*
X2200827Y-2498794D01*
X2109502Y-2551521D01*
X2034938Y-2626085D01*
X1982211Y-2717410D01*
X1982211Y-2717411D01*
X1982210Y-2717413D01*
X1954917Y-2819273D01*
X1954917Y-2924727D01*
X1982210Y-3026587D01*
X2034937Y-3117913D01*
X2109504Y-3192480D01*
X2200830Y-3245207D01*
X2251565Y-3258801D01*
X2311224Y-3295164D01*
X2341754Y-3358011D01*
X2333460Y-3427386D01*
X2288975Y-3481265D01*
X2251565Y-3498350D01*
X2145411Y-3526793D01*
X2145410Y-3526794D01*
X2054085Y-3579521D01*
X1979521Y-3654085D01*
X1926794Y-3745410D01*
X1926793Y-3745413D01*
X1899500Y-3847273D01*
X-22398500Y-3847273D01*
X-22398500Y-3067273D01*
X-15500500Y-3067273D01*
X-15500500Y-3172727D01*
X-15473207Y-3274587D01*
X-15420480Y-3365913D01*
X-15345913Y-3440480D01*
X-15254587Y-3493207D01*
X-15152727Y-3520500D01*
X-15152725Y-3520500D01*
X-15047275Y-3520500D01*
X-15047273Y-3520500D01*
X-14945413Y-3493207D01*
X-14854087Y-3440480D01*
X-14779520Y-3365913D01*
X-14726793Y-3274587D01*
X-14714115Y-3227273D01*
X-4140500Y-3227273D01*
X-4140500Y-3332727D01*
X-4113207Y-3434587D01*
X-4060480Y-3525913D01*
X-3985913Y-3600480D01*
X-3894587Y-3653207D01*
X-3792727Y-3680500D01*
X-3792725Y-3680500D01*
X-3687275Y-3680500D01*
X-3687273Y-3680500D01*
X-3585413Y-3653207D01*
X-3494087Y-3600480D01*
X-3419520Y-3525913D01*
X-3366793Y-3434587D01*
X-3339500Y-3332727D01*
X-3339500Y-3227273D01*
X-3366793Y-3125413D01*
X-3366794Y-3125410D01*
X-3419521Y-3034085D01*
X-3494085Y-2959521D01*
X-3585410Y-2906794D01*
X-3585413Y-2906793D01*
X-3687273Y-2879500D01*
X-3792727Y-2879500D01*
X-3894587Y-2906793D01*
X-3985913Y-2959520D01*
X-4060480Y-3034087D01*
X-4113207Y-3125413D01*
X-4140500Y-3227273D01*
X-14714115Y-3227273D01*
X-14699500Y-3172727D01*
X-14699500Y-3067273D01*
X-14726793Y-2965413D01*
X-14726794Y-2965410D01*
X-14779521Y-2874085D01*
X-14854085Y-2799521D01*
X-14945410Y-2746794D01*
X-14945413Y-2746793D01*
X-15047273Y-2719500D01*
X-15152727Y-2719500D01*
X-15254587Y-2746793D01*
X-15345913Y-2799520D01*
X-15420480Y-2874087D01*
X-15473207Y-2965413D01*
X-15500500Y-3067273D01*
X-22398500Y-3067273D01*
X-22398500Y-1986233D01*
X-19850500Y-1986233D01*
X-19850500Y-2153767D01*
X-19817816Y-2318082D01*
X-19753703Y-2472863D01*
X-19660626Y-2612162D01*
X-19542162Y-2730626D01*
X-19402863Y-2823703D01*
X-19248082Y-2887816D01*
X-19083769Y-2920499D01*
X-19083768Y-2920500D01*
X-19083767Y-2920500D01*
X-18916232Y-2920500D01*
X-18916228Y-2920499D01*
X-18868041Y-2910914D01*
X-18751918Y-2887816D01*
X-18597137Y-2823703D01*
X-18550494Y-2792537D01*
X-18457837Y-2730626D01*
X-18339373Y-2612162D01*
X-18246295Y-2472860D01*
X-18182184Y-2318082D01*
X-18182182Y-2318074D01*
X-18149500Y-2153771D01*
X-18149500Y-1986228D01*
X-18182182Y-1821925D01*
X-18182184Y-1821917D01*
X-18225809Y-1716599D01*
X-18242097Y-1677273D01*
X-2380500Y-1677273D01*
X-2380500Y-1782727D01*
X-2353207Y-1884587D01*
X-2300480Y-1975913D01*
X-2225913Y-2050480D01*
X-2134587Y-2103207D01*
X-2032727Y-2130500D01*
X-2032725Y-2130500D01*
X-1927275Y-2130500D01*
X-1927273Y-2130500D01*
X-1825413Y-2103207D01*
X-1734087Y-2050480D01*
X-1659520Y-1975913D01*
X-1606793Y-1884587D01*
X-1579500Y-1782727D01*
X-1579500Y-1677273D01*
X-1606793Y-1575413D01*
X-1606794Y-1575410D01*
X-1659521Y-1484085D01*
X-1734085Y-1409521D01*
X-1825410Y-1356794D01*
X-1825413Y-1356793D01*
X-1927273Y-1329500D01*
X-2032727Y-1329500D01*
X-2134587Y-1356793D01*
X-2225913Y-1409520D01*
X-2300480Y-1484087D01*
X-2353207Y-1575413D01*
X-2380500Y-1677273D01*
X-18242097Y-1677273D01*
X-18246295Y-1667138D01*
X-18339373Y-1527837D01*
X-18457837Y-1409373D01*
X-18597139Y-1316295D01*
X-18751917Y-1252184D01*
X-18751925Y-1252182D01*
X-18916228Y-1219500D01*
X-18916233Y-1219500D01*
X-19083767Y-1219500D01*
X-19083771Y-1219500D01*
X-19248074Y-1252182D01*
X-19248082Y-1252184D01*
X-19402860Y-1316295D01*
X-19542162Y-1409373D01*
X-19660626Y-1527837D01*
X-19675160Y-1549589D01*
X-19753703Y-1667137D01*
X-19817816Y-1821918D01*
X-19850500Y-1986233D01*
X-22398500Y-1986233D01*
X-22398500Y-137273D01*
X1849500Y-137273D01*
X1849500Y-242727D01*
X1876793Y-344587D01*
X1929520Y-435913D01*
X2004087Y-510480D01*
X2095413Y-563207D01*
X2197273Y-590500D01*
X2197275Y-590500D01*
X2302725Y-590500D01*
X2302727Y-590500D01*
X2404587Y-563207D01*
X2495913Y-510480D01*
X2570480Y-435913D01*
X2623207Y-344587D01*
X2650500Y-242727D01*
X2650500Y-137273D01*
X2623207Y-35413D01*
X2570480Y55913D01*
X2495913Y130480D01*
X2404587Y183207D01*
X2302727Y210500D01*
X2197273Y210500D01*
X2095413Y183207D01*
X2004087Y130480D01*
X1929520Y55913D01*
X1916919Y34087D01*
X1876794Y-35410D01*
X1876793Y-35413D01*
X1849500Y-137273D01*
X-22398500Y-137273D01*
X-22398500Y1032726D01*
X9009500Y1032726D01*
X9009500Y927273D01*
X9036793Y825413D01*
X9036794Y825410D01*
X9089521Y734085D01*
X9164085Y659521D01*
X9255410Y606794D01*
X9255413Y606793D01*
X9357273Y579500D01*
X9462726Y579500D01*
X9462727Y579500D01*
X9564587Y606793D01*
X9564589Y606794D01*
X9564591Y606795D01*
X9571258Y610644D01*
X9639158Y627115D01*
X9705185Y604262D01*
X9748374Y549340D01*
X9755015Y479787D01*
X9740644Y441258D01*
X9736795Y434591D01*
X9736793Y434586D01*
X9709500Y332726D01*
X9709500Y227273D01*
X9736793Y125413D01*
X9736795Y125408D01*
X9740646Y118738D01*
X9757115Y50837D01*
X9734260Y-15189D01*
X9679337Y-58377D01*
X9609783Y-65015D01*
X9571256Y-50643D01*
X9564587Y-46793D01*
X9462727Y-19500D01*
X9357273Y-19500D01*
X9255413Y-46793D01*
X9255410Y-46794D01*
X9164085Y-99521D01*
X9089521Y-174085D01*
X9036794Y-265410D01*
X9036793Y-265413D01*
X9009500Y-367273D01*
X9009500Y-472727D01*
X9036793Y-574587D01*
X9089520Y-665913D01*
X9164087Y-740480D01*
X9255413Y-793207D01*
X9357273Y-820500D01*
X9357275Y-820500D01*
X9462725Y-820500D01*
X9462727Y-820500D01*
X9564587Y-793207D01*
X9571254Y-789357D01*
X9639152Y-772883D01*
X9705179Y-795733D01*
X9748372Y-850653D01*
X9755016Y-920206D01*
X9740646Y-958738D01*
X9736795Y-965408D01*
X9736793Y-965413D01*
X9709500Y-1067273D01*
X9709500Y-1172727D01*
X9736793Y-1274587D01*
X9789520Y-1365913D01*
X9864087Y-1440480D01*
X9955413Y-1493207D01*
X10057273Y-1520500D01*
X10057275Y-1520500D01*
X10162725Y-1520500D01*
X10162727Y-1520500D01*
X10264587Y-1493207D01*
X10355913Y-1440480D01*
X10430480Y-1365913D01*
X10483207Y-1274587D01*
X10510500Y-1172727D01*
X10510500Y-1067273D01*
X10483207Y-965413D01*
X10479355Y-958742D01*
X10462883Y-890844D01*
X10485735Y-824817D01*
X10540656Y-781626D01*
X10610209Y-774984D01*
X10648740Y-789354D01*
X10655413Y-793207D01*
X10757273Y-820500D01*
X10757275Y-820500D01*
X10862725Y-820500D01*
X10862727Y-820500D01*
X10964587Y-793207D01*
X10971254Y-789357D01*
X11039152Y-772883D01*
X11105179Y-795733D01*
X11148372Y-850653D01*
X11155016Y-920206D01*
X11140646Y-958738D01*
X11136795Y-965408D01*
X11136793Y-965413D01*
X11109500Y-1067273D01*
X11109500Y-1172727D01*
X11136793Y-1274587D01*
X11189520Y-1365913D01*
X11264087Y-1440480D01*
X11355413Y-1493207D01*
X11457273Y-1520500D01*
X11457275Y-1520500D01*
X11562725Y-1520500D01*
X11562727Y-1520500D01*
X11664587Y-1493207D01*
X11755913Y-1440480D01*
X11830480Y-1365913D01*
X11844129Y-1342273D01*
X18499500Y-1342273D01*
X18499500Y-1447727D01*
X18526793Y-1549587D01*
X18579520Y-1640913D01*
X18654087Y-1715480D01*
X18745413Y-1768207D01*
X18847273Y-1795500D01*
X18847275Y-1795500D01*
X18952725Y-1795500D01*
X18952727Y-1795500D01*
X19054587Y-1768207D01*
X19145913Y-1715480D01*
X19165014Y-1696379D01*
X22759500Y-1696379D01*
X22759500Y-1883620D01*
X22796025Y-2067243D01*
X22796027Y-2067251D01*
X22867676Y-2240228D01*
X22867681Y-2240237D01*
X22971697Y-2395907D01*
X22971700Y-2395911D01*
X23104088Y-2528299D01*
X23104092Y-2528302D01*
X23259762Y-2632318D01*
X23259768Y-2632321D01*
X23259769Y-2632322D01*
X23432749Y-2703973D01*
X23566744Y-2730626D01*
X23616379Y-2740499D01*
X23616383Y-2740500D01*
X23616384Y-2740500D01*
X23803617Y-2740500D01*
X23803618Y-2740499D01*
X23987251Y-2703973D01*
X24160231Y-2632322D01*
X24315908Y-2528302D01*
X24448302Y-2395908D01*
X24552322Y-2240231D01*
X24623973Y-2067251D01*
X24660500Y-1883616D01*
X24660500Y-1696384D01*
X24623973Y-1512749D01*
X24552322Y-1339769D01*
X24552321Y-1339768D01*
X24552318Y-1339762D01*
X24448302Y-1184092D01*
X24448299Y-1184088D01*
X24315911Y-1051700D01*
X24315907Y-1051697D01*
X24160237Y-947681D01*
X24160228Y-947676D01*
X23987251Y-876027D01*
X23987243Y-876025D01*
X23803620Y-839500D01*
X23803616Y-839500D01*
X23616384Y-839500D01*
X23616379Y-839500D01*
X23432756Y-876025D01*
X23432748Y-876027D01*
X23259771Y-947676D01*
X23259762Y-947681D01*
X23104092Y-1051697D01*
X23104088Y-1051700D01*
X22971700Y-1184088D01*
X22971697Y-1184092D01*
X22867681Y-1339762D01*
X22867676Y-1339771D01*
X22796027Y-1512748D01*
X22796025Y-1512756D01*
X22759500Y-1696379D01*
X19165014Y-1696379D01*
X19220480Y-1640913D01*
X19273207Y-1549587D01*
X19300500Y-1447727D01*
X19300500Y-1342273D01*
X19273207Y-1240413D01*
X19220480Y-1149087D01*
X19145913Y-1074520D01*
X19054587Y-1021793D01*
X18952727Y-994500D01*
X18847273Y-994500D01*
X18745413Y-1021793D01*
X18745410Y-1021794D01*
X18654085Y-1074521D01*
X18579521Y-1149085D01*
X18526794Y-1240410D01*
X18526793Y-1240413D01*
X18499500Y-1342273D01*
X11844129Y-1342273D01*
X11883207Y-1274587D01*
X11910500Y-1172727D01*
X11910500Y-1067273D01*
X11883207Y-965413D01*
X11879355Y-958742D01*
X11862883Y-890844D01*
X11885735Y-824817D01*
X11940656Y-781626D01*
X12010209Y-774984D01*
X12048740Y-789354D01*
X12055413Y-793207D01*
X12157273Y-820500D01*
X12157275Y-820500D01*
X12262725Y-820500D01*
X12262727Y-820500D01*
X12364587Y-793207D01*
X12455913Y-740480D01*
X12530480Y-665913D01*
X12583207Y-574587D01*
X12610500Y-472727D01*
X12610500Y-367273D01*
X12583207Y-265413D01*
X12572734Y-247273D01*
X13729500Y-247273D01*
X13729500Y-352727D01*
X13754353Y-445478D01*
X13756793Y-454586D01*
X13756794Y-454589D01*
X13767266Y-472727D01*
X13809520Y-545913D01*
X13884087Y-620480D01*
X13975413Y-673207D01*
X14077273Y-700500D01*
X14077275Y-700500D01*
X14182725Y-700500D01*
X14182727Y-700500D01*
X14284587Y-673207D01*
X14375913Y-620480D01*
X14450480Y-545913D01*
X14503207Y-454587D01*
X14530500Y-352727D01*
X14530500Y-247273D01*
X14503207Y-145413D01*
X14460980Y-72273D01*
X18399500Y-72273D01*
X18399500Y-177727D01*
X18426793Y-279587D01*
X18479520Y-370913D01*
X18554087Y-445480D01*
X18645413Y-498207D01*
X18747273Y-525500D01*
X18747275Y-525500D01*
X18852725Y-525500D01*
X18852727Y-525500D01*
X18954587Y-498207D01*
X19045913Y-445480D01*
X19120480Y-370913D01*
X19173207Y-279587D01*
X19200500Y-177727D01*
X19200500Y-72273D01*
X19173207Y29587D01*
X19120480Y120913D01*
X19045913Y195480D01*
X18954587Y248207D01*
X18852727Y275500D01*
X18747273Y275500D01*
X18645413Y248207D01*
X18554087Y195480D01*
X18479520Y120913D01*
X18426793Y29587D01*
X18399500Y-72273D01*
X14460980Y-72273D01*
X14450480Y-54087D01*
X14375913Y20480D01*
X14284587Y73207D01*
X14182727Y100500D01*
X14077273Y100500D01*
X13975413Y73207D01*
X13884087Y20480D01*
X13884085Y20478D01*
X13809521Y-54085D01*
X13756794Y-145410D01*
X13756793Y-145413D01*
X13729500Y-247273D01*
X12572734Y-247273D01*
X12530480Y-174087D01*
X12455913Y-99520D01*
X12364587Y-46793D01*
X12262727Y-19500D01*
X12157273Y-19500D01*
X12055413Y-46793D01*
X12048742Y-50644D01*
X11980844Y-67117D01*
X11914817Y-44265D01*
X11871626Y10656D01*
X11864984Y80209D01*
X11879354Y118740D01*
X11883207Y125413D01*
X11910500Y227273D01*
X11910500Y332727D01*
X11883207Y434587D01*
X11879357Y441254D01*
X11862883Y509152D01*
X11885733Y575179D01*
X11940653Y618372D01*
X12010206Y625016D01*
X12048738Y610646D01*
X12055408Y606795D01*
X12055411Y606794D01*
X12055413Y606793D01*
X12157273Y579500D01*
X12262726Y579500D01*
X12262727Y579500D01*
X12364587Y606793D01*
X12364591Y606795D01*
X12438308Y649356D01*
X12455913Y659520D01*
X12530480Y734087D01*
X12583207Y825413D01*
X12610500Y927273D01*
X12610500Y1032727D01*
X12583207Y1134587D01*
X12543867Y1202726D01*
X18149500Y1202726D01*
X18149500Y1097273D01*
X18176793Y995413D01*
X18176794Y995410D01*
X18229521Y904085D01*
X18304085Y829521D01*
X18395410Y776794D01*
X18395413Y776793D01*
X18497273Y749500D01*
X18602726Y749500D01*
X18602727Y749500D01*
X18704587Y776793D01*
X18795913Y829520D01*
X18810013Y843620D01*
X22759500Y843620D01*
X22759500Y656379D01*
X22796025Y472756D01*
X22796027Y472748D01*
X22867676Y299771D01*
X22867681Y299762D01*
X22971697Y144092D01*
X22971700Y144088D01*
X23104088Y11700D01*
X23104092Y11697D01*
X23259762Y-92318D01*
X23259771Y-92323D01*
X23268004Y-95733D01*
X23432749Y-163973D01*
X23567840Y-190844D01*
X23616379Y-200499D01*
X23616383Y-200500D01*
X23616384Y-200500D01*
X23803617Y-200500D01*
X23803618Y-200499D01*
X23987251Y-163973D01*
X24160231Y-92322D01*
X24189324Y-72883D01*
X24315907Y11697D01*
X24315911Y11700D01*
X24448299Y144088D01*
X24448302Y144092D01*
X24552318Y299762D01*
X24552323Y299771D01*
X24608165Y434586D01*
X24623973Y472749D01*
X24660500Y656384D01*
X24660500Y843616D01*
X24623973Y1027251D01*
X24552322Y1200231D01*
X24448302Y1355908D01*
X24315908Y1488302D01*
X24160231Y1592322D01*
X23987251Y1663973D01*
X23803618Y1700499D01*
X23803617Y1700500D01*
X23803616Y1700500D01*
X23616384Y1700500D01*
X23616383Y1700500D01*
X23616379Y1700499D01*
X23432749Y1663973D01*
X23344153Y1627275D01*
X23259771Y1592323D01*
X23259762Y1592318D01*
X23104092Y1488302D01*
X23104088Y1488299D01*
X22971700Y1355911D01*
X22971697Y1355907D01*
X22867681Y1200237D01*
X22867676Y1200228D01*
X22796027Y1027251D01*
X22796025Y1027243D01*
X22759500Y843620D01*
X18810013Y843620D01*
X18870480Y904087D01*
X18923207Y995413D01*
X18950500Y1097273D01*
X18950500Y1202727D01*
X18923207Y1304587D01*
X18870480Y1395913D01*
X18795913Y1470480D01*
X18704587Y1523207D01*
X18602727Y1550500D01*
X18497273Y1550500D01*
X18395413Y1523207D01*
X18304087Y1470480D01*
X18229520Y1395913D01*
X18220621Y1380499D01*
X18178067Y1306793D01*
X18176793Y1304587D01*
X18168914Y1275179D01*
X18149500Y1202726D01*
X12543867Y1202726D01*
X12530480Y1225913D01*
X12455913Y1300480D01*
X12364587Y1353207D01*
X12262727Y1380500D01*
X12157273Y1380500D01*
X12055413Y1353207D01*
X12048742Y1349355D01*
X11980844Y1332883D01*
X11914817Y1355735D01*
X11871626Y1410656D01*
X11864984Y1480209D01*
X11879354Y1518740D01*
X11883207Y1525413D01*
X11910500Y1627273D01*
X11910500Y1732727D01*
X11883207Y1834587D01*
X11830480Y1925913D01*
X11755913Y2000480D01*
X11664587Y2053207D01*
X11562727Y2080500D01*
X11457273Y2080500D01*
X11355413Y2053207D01*
X11264087Y2000480D01*
X11264085Y2000478D01*
X11189521Y1925914D01*
X11136794Y1834589D01*
X11136793Y1834586D01*
X11109500Y1732726D01*
X11109500Y1627273D01*
X11136793Y1525413D01*
X11136795Y1525408D01*
X11140646Y1518738D01*
X11157115Y1450837D01*
X11134260Y1384811D01*
X11079337Y1341623D01*
X11009783Y1334985D01*
X10971256Y1349356D01*
X10964587Y1353207D01*
X10862727Y1380500D01*
X10757273Y1380500D01*
X10655413Y1353207D01*
X10648742Y1349355D01*
X10580844Y1332883D01*
X10514817Y1355735D01*
X10471626Y1410656D01*
X10464984Y1480209D01*
X10479354Y1518740D01*
X10483207Y1525413D01*
X10510500Y1627273D01*
X10510500Y1732727D01*
X10483207Y1834587D01*
X10430480Y1925913D01*
X10355913Y2000480D01*
X10264587Y2053207D01*
X10162727Y2080500D01*
X10057273Y2080500D01*
X9955413Y2053207D01*
X9864087Y2000480D01*
X9864085Y2000478D01*
X9789521Y1925914D01*
X9736794Y1834589D01*
X9736793Y1834586D01*
X9709500Y1732726D01*
X9709500Y1627273D01*
X9736793Y1525413D01*
X9736795Y1525408D01*
X9740646Y1518738D01*
X9757115Y1450837D01*
X9734260Y1384811D01*
X9679337Y1341623D01*
X9609783Y1334985D01*
X9571256Y1349356D01*
X9564587Y1353207D01*
X9462727Y1380500D01*
X9357273Y1380500D01*
X9255413Y1353207D01*
X9164087Y1300480D01*
X9089520Y1225913D01*
X9036793Y1134587D01*
X9026796Y1097275D01*
X9009500Y1032726D01*
X-22398500Y1032726D01*
X-22398500Y1862727D01*
X-15910500Y1862727D01*
X-15910500Y1757273D01*
X-15883207Y1655413D01*
X-15830480Y1564087D01*
X-15755913Y1489520D01*
X-15664587Y1436793D01*
X-15562727Y1409500D01*
X-15562726Y1409500D01*
X-15457273Y1409500D01*
X-15355413Y1436793D01*
X-15355410Y1436794D01*
X-15264085Y1489521D01*
X-15189521Y1564085D01*
X-15136794Y1655410D01*
X-15136793Y1655413D01*
X-15109500Y1757273D01*
X-15109500Y1862726D01*
X-15126430Y1925913D01*
X-15136793Y1964587D01*
X-15189520Y2055913D01*
X-15264087Y2130480D01*
X-15355413Y2183207D01*
X-15457273Y2210500D01*
X-15562727Y2210500D01*
X-15664587Y2183207D01*
X-15755913Y2130480D01*
X-15830480Y2055913D01*
X-15883207Y1964587D01*
X-15910500Y1862727D01*
X-22398500Y1862727D01*
X-22398500Y2502727D01*
X-3710500Y2502727D01*
X-3710500Y2397273D01*
X-3683207Y2295413D01*
X-3630480Y2204087D01*
X-3555913Y2129520D01*
X-3464587Y2076793D01*
X-3362727Y2049500D01*
X-3362726Y2049500D01*
X-3257273Y2049500D01*
X-3155413Y2076793D01*
X-3155410Y2076794D01*
X-3064085Y2129521D01*
X-2989521Y2204085D01*
X-2936794Y2295410D01*
X-2936793Y2295413D01*
X-2909500Y2397273D01*
X-2909500Y2502726D01*
X-2917538Y2532727D01*
X-2936793Y2604587D01*
X-2989520Y2695913D01*
X-3064087Y2770480D01*
X-3155413Y2823207D01*
X-3257273Y2850500D01*
X-3362727Y2850500D01*
X-3464587Y2823207D01*
X-3555913Y2770480D01*
X-3630480Y2695913D01*
X-3683207Y2604587D01*
X-3710500Y2502727D01*
X-22398500Y2502727D01*
X-22398500Y3442727D01*
X-21050500Y3442727D01*
X-21050500Y3337273D01*
X-21023207Y3235413D01*
X-20970480Y3144087D01*
X-20895913Y3069520D01*
X-20804587Y3016793D01*
X-20702727Y2989500D01*
X-20702726Y2989500D01*
X-20597273Y2989500D01*
X-20495413Y3016793D01*
X-20495410Y3016794D01*
X-20404085Y3069521D01*
X-20329521Y3144085D01*
X-20276794Y3235410D01*
X-20276793Y3235413D01*
X-20249500Y3337273D01*
X-20249500Y3442726D01*
X-20251577Y3450480D01*
X-20276793Y3544587D01*
X-20285415Y3559520D01*
X-20299090Y3583207D01*
X-20329520Y3635913D01*
X-20404087Y3710480D01*
X-20495413Y3763207D01*
X-20597273Y3790500D01*
X-20702727Y3790500D01*
X-20804587Y3763207D01*
X-20895913Y3710480D01*
X-20970480Y3635913D01*
X-21023207Y3544587D01*
X-21050500Y3442727D01*
X-22398500Y3442727D01*
X-22398500Y6013767D01*
X-19850500Y6013767D01*
X-19850500Y5846233D01*
X-19817816Y5681918D01*
X-19799324Y5637275D01*
X-19753704Y5527139D01*
X-19660626Y5387837D01*
X-19542162Y5269373D01*
X-19402860Y5176295D01*
X-19248082Y5112184D01*
X-19248074Y5112182D01*
X-19083771Y5079500D01*
X-19083767Y5079500D01*
X-18916228Y5079500D01*
X-18751925Y5112182D01*
X-18751917Y5112184D01*
X-18597139Y5176295D01*
X-18457837Y5269373D01*
X-18339373Y5387837D01*
X-18246295Y5527139D01*
X-18182184Y5681917D01*
X-18182182Y5681925D01*
X-18149500Y5846228D01*
X-18149500Y6013771D01*
X-18181250Y6173395D01*
X-18181253Y6173402D01*
X-18182183Y6178080D01*
X-18182184Y6178082D01*
X-18186901Y6189470D01*
X-6486482Y6189470D01*
X-6486482Y6084016D01*
X-6459189Y5982156D01*
X-6406462Y5890830D01*
X-6361865Y5846233D01*
X-6326148Y5810516D01*
X-6327829Y5808834D01*
X-6293785Y5762191D01*
X-6286482Y5720265D01*
X-6286482Y5105864D01*
X-6286482Y5026100D01*
X-6255958Y4952408D01*
X-6255957Y4952407D01*
X-5423574Y4120024D01*
X-5349883Y4089500D01*
X-5349882Y4089500D01*
X-4795977Y4089500D01*
X-4728938Y4069815D01*
X-4683183Y4017011D01*
X-4673239Y3947853D01*
X-4676199Y3933420D01*
X-4700500Y3842727D01*
X-4700500Y3737273D01*
X-4673207Y3635413D01*
X-4620480Y3544087D01*
X-4545913Y3469520D01*
X-4454587Y3416793D01*
X-4352727Y3389500D01*
X-4352726Y3389500D01*
X-4247273Y3389500D01*
X-4145413Y3416793D01*
X-4145410Y3416794D01*
X-4054085Y3469521D01*
X-3979521Y3544085D01*
X-3926794Y3635410D01*
X-3926793Y3635413D01*
X-3899500Y3737273D01*
X-3899500Y3842724D01*
X-3899500Y3842725D01*
X-3899500Y3842727D01*
X-3923797Y3933409D01*
X-3922135Y4003256D01*
X-3882973Y4061119D01*
X-3818744Y4088623D01*
X-3804023Y4089500D01*
X-2290326Y4089500D01*
X-2223287Y4069815D01*
X-2202645Y4053181D01*
X-1030236Y2880772D01*
X-996751Y2819449D01*
X-995479Y2788908D01*
X-994468Y2788908D01*
X-994468Y2780781D01*
X-994468Y2675327D01*
X-967175Y2573467D01*
X-914448Y2482141D01*
X-839881Y2407574D01*
X-748555Y2354847D01*
X-646695Y2327554D01*
X-646694Y2327554D01*
X-541241Y2327554D01*
X-439381Y2354847D01*
X-439378Y2354848D01*
X-348053Y2407575D01*
X-273489Y2482139D01*
X-244282Y2532726D01*
X1699500Y2532726D01*
X1699500Y2427273D01*
X1726793Y2325413D01*
X1726794Y2325410D01*
X1779521Y2234085D01*
X1854085Y2159521D01*
X1945410Y2106794D01*
X1945413Y2106793D01*
X2047273Y2079500D01*
X2152726Y2079500D01*
X2152727Y2079500D01*
X2254587Y2106793D01*
X2345913Y2159520D01*
X2420480Y2234087D01*
X2473207Y2325413D01*
X2500500Y2427273D01*
X2500500Y2532727D01*
X2473207Y2634587D01*
X2420480Y2725913D01*
X2345913Y2800480D01*
X2254587Y2853207D01*
X2152727Y2880500D01*
X2047273Y2880500D01*
X1945413Y2853207D01*
X1854087Y2800480D01*
X1779520Y2725913D01*
X1726793Y2634587D01*
X1710416Y2573464D01*
X1699500Y2532726D01*
X-244282Y2532726D01*
X-220762Y2573463D01*
X-212422Y2604589D01*
X-193468Y2675327D01*
X-193468Y2780781D01*
X-220761Y2882641D01*
X-224733Y2889520D01*
X-273489Y2973968D01*
X-348053Y3048532D01*
X-348055Y3048534D01*
X-439381Y3101261D01*
X-541241Y3128554D01*
X-646695Y3128554D01*
X-654822Y3128554D01*
X-654822Y3130937D01*
X-711847Y3139826D01*
X-746686Y3164322D01*
X-845090Y3262726D01*
X8099500Y3262726D01*
X8099500Y3157273D01*
X8126793Y3055413D01*
X8126794Y3055410D01*
X8179521Y2964085D01*
X8254085Y2889521D01*
X8345410Y2836794D01*
X8345413Y2836793D01*
X8447273Y2809500D01*
X8552726Y2809500D01*
X8552727Y2809500D01*
X8654587Y2836793D01*
X8659730Y2839762D01*
X8730288Y2880499D01*
X8745913Y2889520D01*
X8820480Y2964087D01*
X8873207Y3055413D01*
X8900500Y3157273D01*
X8900500Y3182726D01*
X11219500Y3182726D01*
X11219500Y3077273D01*
X11246793Y2975413D01*
X11246794Y2975410D01*
X11299521Y2884085D01*
X11374085Y2809521D01*
X11465410Y2756794D01*
X11465413Y2756793D01*
X11567273Y2729500D01*
X11672726Y2729500D01*
X11672727Y2729500D01*
X11774587Y2756793D01*
X11865913Y2809520D01*
X11940480Y2884087D01*
X11993207Y2975413D01*
X12020500Y3077273D01*
X12020500Y3182727D01*
X11993207Y3284587D01*
X11940480Y3375913D01*
X11932773Y3383620D01*
X22759500Y3383620D01*
X22759500Y3196379D01*
X22796025Y3012756D01*
X22796027Y3012748D01*
X22867676Y2839771D01*
X22867681Y2839762D01*
X22971697Y2684092D01*
X22971700Y2684088D01*
X23104088Y2551700D01*
X23104092Y2551697D01*
X23259762Y2447681D01*
X23259771Y2447676D01*
X23432748Y2376027D01*
X23432756Y2376025D01*
X23616379Y2339500D01*
X23616384Y2339500D01*
X23803620Y2339500D01*
X23987243Y2376025D01*
X23987251Y2376027D01*
X24160228Y2447676D01*
X24160237Y2447681D01*
X24315907Y2551697D01*
X24315911Y2551700D01*
X24448299Y2684088D01*
X24448302Y2684092D01*
X24552318Y2839762D01*
X24552323Y2839771D01*
X24572930Y2889521D01*
X24623973Y3012749D01*
X24660500Y3196384D01*
X24660500Y3383616D01*
X24623973Y3567251D01*
X24552322Y3740231D01*
X24448302Y3895908D01*
X24315908Y4028302D01*
X24160231Y4132322D01*
X23987251Y4203973D01*
X23803618Y4240499D01*
X23803617Y4240500D01*
X23803616Y4240500D01*
X23616384Y4240500D01*
X23616383Y4240500D01*
X23616379Y4240499D01*
X23432749Y4203973D01*
X23298956Y4148554D01*
X23259771Y4132323D01*
X23259762Y4132318D01*
X23104092Y4028302D01*
X23104088Y4028299D01*
X22971700Y3895911D01*
X22971697Y3895907D01*
X22867681Y3740237D01*
X22867676Y3740228D01*
X22796027Y3567251D01*
X22796025Y3567243D01*
X22759500Y3383620D01*
X11932773Y3383620D01*
X11865913Y3450480D01*
X11774587Y3503207D01*
X11672727Y3530500D01*
X11567273Y3530500D01*
X11465413Y3503207D01*
X11374087Y3450480D01*
X11299520Y3375913D01*
X11246793Y3284587D01*
X11223160Y3196384D01*
X11219500Y3182726D01*
X8900500Y3182726D01*
X8900500Y3262727D01*
X8873207Y3364587D01*
X8820480Y3455913D01*
X8745913Y3530480D01*
X8654587Y3583207D01*
X8552727Y3610500D01*
X8447273Y3610500D01*
X8345413Y3583207D01*
X8254087Y3530480D01*
X8179520Y3455913D01*
X8126793Y3364587D01*
X8105358Y3284587D01*
X8099500Y3262726D01*
X-845090Y3262726D01*
X-1515090Y3932726D01*
X999500Y3932726D01*
X999500Y3827273D01*
X1026793Y3725413D01*
X1026794Y3725410D01*
X1079521Y3634085D01*
X1154085Y3559521D01*
X1245410Y3506794D01*
X1245413Y3506793D01*
X1347273Y3479500D01*
X1452726Y3479500D01*
X1452727Y3479500D01*
X1554587Y3506793D01*
X1645913Y3559520D01*
X1720480Y3634087D01*
X1773207Y3725413D01*
X1800500Y3827273D01*
X1800500Y3842726D01*
X14959500Y3842726D01*
X14959500Y3737273D01*
X14986793Y3635413D01*
X14986794Y3635410D01*
X15039521Y3544085D01*
X15114085Y3469521D01*
X15205410Y3416794D01*
X15205413Y3416793D01*
X15307273Y3389500D01*
X15412726Y3389500D01*
X15412727Y3389500D01*
X15514587Y3416793D01*
X15605913Y3469520D01*
X15680480Y3544087D01*
X15733207Y3635413D01*
X15760500Y3737273D01*
X15760500Y3842727D01*
X15733207Y3944587D01*
X15680480Y4035913D01*
X15605913Y4110480D01*
X15514587Y4163207D01*
X15412727Y4190500D01*
X15307273Y4190500D01*
X15205413Y4163207D01*
X15114087Y4110480D01*
X15039520Y4035913D01*
X15038754Y4034586D01*
X14988679Y3947853D01*
X14986793Y3944587D01*
X14973750Y3895907D01*
X14959500Y3842726D01*
X1800500Y3842726D01*
X1800500Y3932727D01*
X1773207Y4034587D01*
X1720480Y4125913D01*
X1645913Y4200480D01*
X1554587Y4253207D01*
X1452727Y4280500D01*
X1347273Y4280500D01*
X1245413Y4253207D01*
X1154087Y4200480D01*
X1079520Y4125913D01*
X1047132Y4069815D01*
X1027559Y4035913D01*
X1026793Y4034587D01*
X1002679Y3944589D01*
X999500Y3932726D01*
X-1515090Y3932726D01*
X-2042339Y4459975D01*
X-2042340Y4459976D01*
X-2116032Y4490500D01*
X-2116034Y4490500D01*
X-5175588Y4490500D01*
X-5242627Y4510185D01*
X-5263269Y4526819D01*
X-5269177Y4532727D01*
X-1150500Y4532727D01*
X-1150500Y4427273D01*
X-1123207Y4325413D01*
X-1070480Y4234087D01*
X-995913Y4159520D01*
X-904587Y4106793D01*
X-802727Y4079500D01*
X-802726Y4079500D01*
X-697273Y4079500D01*
X-595413Y4106793D01*
X-595410Y4106794D01*
X-504085Y4159521D01*
X-429521Y4234085D01*
X-376794Y4325410D01*
X-376793Y4325413D01*
X-356077Y4402726D01*
X4379500Y4402726D01*
X4379500Y4297273D01*
X4406793Y4195413D01*
X4406794Y4195410D01*
X4459521Y4104085D01*
X4534085Y4029521D01*
X4625410Y3976794D01*
X4625413Y3976793D01*
X4727273Y3949500D01*
X4832726Y3949500D01*
X4832727Y3949500D01*
X4934587Y3976793D01*
X5025913Y4029520D01*
X5100480Y4104087D01*
X5153207Y4195413D01*
X5180500Y4297273D01*
X5180500Y4402727D01*
X5153207Y4504587D01*
X5100480Y4595913D01*
X5025913Y4670480D01*
X4934587Y4723207D01*
X4832727Y4750500D01*
X4727273Y4750500D01*
X4625413Y4723207D01*
X4534087Y4670480D01*
X4459520Y4595913D01*
X4406793Y4504587D01*
X4394840Y4459975D01*
X4379500Y4402726D01*
X-356077Y4402726D01*
X-349501Y4427269D01*
X-349500Y4427269D01*
X-349500Y4427273D01*
X-349500Y4532727D01*
X-376793Y4634587D01*
X-429520Y4725913D01*
X-504087Y4800480D01*
X-595413Y4853207D01*
X-697273Y4880500D01*
X-802727Y4880500D01*
X-904587Y4853207D01*
X-995913Y4800480D01*
X-1070480Y4725913D01*
X-1123207Y4634587D01*
X-1150500Y4532727D01*
X-5269177Y4532727D01*
X-5619176Y4882726D01*
X14709500Y4882726D01*
X14709500Y4777273D01*
X14736793Y4675413D01*
X14736794Y4675410D01*
X14789521Y4584085D01*
X14864085Y4509521D01*
X14955410Y4456794D01*
X14955413Y4456793D01*
X15057273Y4429500D01*
X15162726Y4429500D01*
X15162727Y4429500D01*
X15264587Y4456793D01*
X15270099Y4459975D01*
X15289059Y4470922D01*
X15355913Y4509520D01*
X15430480Y4584087D01*
X15483207Y4675413D01*
X15510500Y4777273D01*
X15510500Y4882727D01*
X15483207Y4984587D01*
X15478508Y4992726D01*
X18849500Y4992726D01*
X18849500Y4887273D01*
X18876793Y4785413D01*
X18876794Y4785410D01*
X18929521Y4694085D01*
X19004085Y4619521D01*
X19095410Y4566794D01*
X19095413Y4566793D01*
X19197273Y4539500D01*
X19302726Y4539500D01*
X19302727Y4539500D01*
X19404587Y4566793D01*
X19495913Y4619520D01*
X19570480Y4694087D01*
X19623207Y4785413D01*
X19650500Y4887273D01*
X19650500Y4992727D01*
X19623207Y5094587D01*
X19570480Y5185913D01*
X19495913Y5260480D01*
X19404587Y5313207D01*
X19302727Y5340500D01*
X19197273Y5340500D01*
X19095413Y5313207D01*
X19004087Y5260480D01*
X18929520Y5185913D01*
X18876793Y5094587D01*
X18858443Y5026101D01*
X18849500Y4992726D01*
X15478508Y4992726D01*
X15430480Y5075913D01*
X15355913Y5150480D01*
X15264587Y5203207D01*
X15162727Y5230500D01*
X15057273Y5230500D01*
X14955413Y5203207D01*
X14864087Y5150480D01*
X14864085Y5150478D01*
X14789521Y5075914D01*
X14738578Y4987678D01*
X14736793Y4984587D01*
X14728171Y4952407D01*
X14709500Y4882726D01*
X-5619176Y4882726D01*
X-5849163Y5112713D01*
X-5882648Y5174036D01*
X-5885482Y5200394D01*
X-5885482Y5720265D01*
X-5878886Y5742726D01*
X17529500Y5742726D01*
X17529500Y5637273D01*
X17556793Y5535413D01*
X17556794Y5535410D01*
X17609521Y5444085D01*
X17684085Y5369521D01*
X17775410Y5316794D01*
X17775413Y5316793D01*
X17877273Y5289500D01*
X17982726Y5289500D01*
X17982727Y5289500D01*
X18084587Y5316793D01*
X18175913Y5369520D01*
X18250480Y5444087D01*
X18303207Y5535413D01*
X18330500Y5637273D01*
X18330500Y5742727D01*
X18303207Y5844587D01*
X18250480Y5935913D01*
X18175913Y6010480D01*
X18084587Y6063207D01*
X17982727Y6090500D01*
X17877273Y6090500D01*
X17775413Y6063207D01*
X17684087Y6010480D01*
X17609520Y5935913D01*
X17556793Y5844587D01*
X17534716Y5762191D01*
X17529500Y5742726D01*
X-5878886Y5742726D01*
X-5876625Y5750426D01*
X-5869559Y5781054D01*
X-5866645Y5784415D01*
X-5865797Y5787304D01*
X-5848055Y5809040D01*
X-5841488Y5815443D01*
X-5840069Y5816263D01*
X-5817332Y5838999D01*
X-5817252Y5839078D01*
X-5765503Y5890828D01*
X-5712776Y5982153D01*
X-5712775Y5982156D01*
X-5685482Y6084016D01*
X-5685482Y6189467D01*
X-5685482Y6189468D01*
X-5685482Y6189470D01*
X-5710469Y6282725D01*
X-5710469Y6282726D01*
X18819500Y6282726D01*
X18819500Y6177273D01*
X18846793Y6075413D01*
X18846794Y6075410D01*
X18899521Y5984085D01*
X18974085Y5909521D01*
X19065410Y5856794D01*
X19065413Y5856793D01*
X19167273Y5829500D01*
X19272726Y5829500D01*
X19272727Y5829500D01*
X19374587Y5856793D01*
X19465913Y5909520D01*
X19480013Y5923620D01*
X22759500Y5923620D01*
X22759500Y5736379D01*
X22796025Y5552756D01*
X22796027Y5552748D01*
X22867676Y5379771D01*
X22867681Y5379762D01*
X22971697Y5224092D01*
X22971700Y5224088D01*
X23104088Y5091700D01*
X23104092Y5091697D01*
X23259762Y4987681D01*
X23259771Y4987676D01*
X23432748Y4916027D01*
X23432756Y4916025D01*
X23616379Y4879500D01*
X23616384Y4879500D01*
X23803620Y4879500D01*
X23987243Y4916025D01*
X23987251Y4916027D01*
X24160228Y4987676D01*
X24160237Y4987681D01*
X24315907Y5091697D01*
X24315911Y5091700D01*
X24448299Y5224088D01*
X24448302Y5224092D01*
X24552318Y5379762D01*
X24552323Y5379771D01*
X24578963Y5444085D01*
X24623973Y5552749D01*
X24660500Y5736384D01*
X24660500Y5923616D01*
X24623973Y6107251D01*
X24552322Y6280231D01*
X24448302Y6435908D01*
X24315908Y6568302D01*
X24160231Y6672322D01*
X23987251Y6743973D01*
X23803618Y6780499D01*
X23803617Y6780500D01*
X23803616Y6780500D01*
X23616384Y6780500D01*
X23616383Y6780500D01*
X23616379Y6780499D01*
X23432749Y6743973D01*
X23315508Y6695410D01*
X23259771Y6672323D01*
X23259762Y6672318D01*
X23104092Y6568302D01*
X23104088Y6568299D01*
X22971700Y6435911D01*
X22971697Y6435907D01*
X22867681Y6280237D01*
X22867676Y6280228D01*
X22796027Y6107251D01*
X22796025Y6107243D01*
X22759500Y5923620D01*
X19480013Y5923620D01*
X19540480Y5984087D01*
X19593207Y6075413D01*
X19620500Y6177273D01*
X19620500Y6282727D01*
X19593207Y6384587D01*
X19540480Y6475913D01*
X19465913Y6550480D01*
X19374587Y6603207D01*
X19272727Y6630500D01*
X19167273Y6630500D01*
X19065413Y6603207D01*
X18974087Y6550480D01*
X18899520Y6475913D01*
X18876425Y6435911D01*
X18846794Y6384589D01*
X18846793Y6384586D01*
X18819500Y6282726D01*
X-5710469Y6282726D01*
X-5712774Y6291328D01*
X-5712776Y6291332D01*
X-5765503Y6382657D01*
X-5840067Y6457221D01*
X-5840069Y6457223D01*
X-5931395Y6509950D01*
X-6033255Y6537243D01*
X-6138709Y6537243D01*
X-6240569Y6509950D01*
X-6331895Y6457223D01*
X-6406462Y6382656D01*
X-6459189Y6291330D01*
X-6486482Y6189470D01*
X-18186901Y6189470D01*
X-18246295Y6332860D01*
X-18339373Y6472162D01*
X-18457837Y6590626D01*
X-18550494Y6652537D01*
X-18597137Y6683703D01*
X-18751918Y6747816D01*
X-18916228Y6780499D01*
X-18916232Y6780500D01*
X-18916233Y6780500D01*
X-19083767Y6780500D01*
X-19083768Y6780500D01*
X-19083769Y6780499D01*
X-19248082Y6747816D01*
X-19402863Y6683703D01*
X-19542162Y6590626D01*
X-19660626Y6472162D01*
X-19753703Y6332863D01*
X-19817816Y6178082D01*
X-19850500Y6013767D01*
X-22398500Y6013767D01*
X-22398500Y6932727D01*
X-13400500Y6932727D01*
X-13400500Y6827273D01*
X-13373207Y6725413D01*
X-13320480Y6634087D01*
X-13245913Y6559520D01*
X-13207328Y6537243D01*
X-13160054Y6509949D01*
X-13154587Y6506793D01*
X-13052727Y6479500D01*
X-13052726Y6479500D01*
X-12947273Y6479500D01*
X-12845413Y6506793D01*
X-12845410Y6506794D01*
X-12754085Y6559521D01*
X-12679521Y6634085D01*
X-12626794Y6725410D01*
X-12626793Y6725413D01*
X-12599500Y6827273D01*
X-12599500Y6932726D01*
X-12618754Y7004586D01*
X-12626793Y7034587D01*
X-12679520Y7125913D01*
X-12754087Y7200480D01*
X-12845413Y7253207D01*
X-12947273Y7280500D01*
X-13052727Y7280500D01*
X-13154587Y7253207D01*
X-13245913Y7200480D01*
X-13320480Y7125913D01*
X-13373207Y7034587D01*
X-13400500Y6932727D01*
X-22398500Y6932727D01*
X-22398500Y7632726D01*
X929500Y7632726D01*
X929500Y7527273D01*
X956793Y7425413D01*
X956794Y7425410D01*
X1009521Y7334085D01*
X1084086Y7259520D01*
X1104122Y7247952D01*
X1152336Y7197384D01*
X1165557Y7128776D01*
X1149507Y7078570D01*
X1106793Y7004587D01*
X1087539Y6932727D01*
X1079500Y6902726D01*
X1079500Y6797273D01*
X1106793Y6695413D01*
X1106794Y6695410D01*
X1159521Y6604085D01*
X1234085Y6529521D01*
X1325410Y6476794D01*
X1325413Y6476793D01*
X1427273Y6449500D01*
X1532726Y6449500D01*
X1532727Y6449500D01*
X1634587Y6476793D01*
X1725913Y6529520D01*
X1800480Y6604087D01*
X1853207Y6695413D01*
X1880500Y6797273D01*
X1880500Y6902727D01*
X1853207Y7004587D01*
X1800480Y7095913D01*
X1725913Y7170480D01*
X1705877Y7182047D01*
X1657665Y7232611D01*
X1644441Y7301217D01*
X1660490Y7351426D01*
X1703207Y7425413D01*
X1729282Y7522726D01*
X4689500Y7522726D01*
X4689500Y7417273D01*
X4716793Y7315413D01*
X4716794Y7315410D01*
X4769521Y7224085D01*
X4844085Y7149521D01*
X4935410Y7096794D01*
X4935413Y7096793D01*
X5037273Y7069500D01*
X5142726Y7069500D01*
X5142727Y7069500D01*
X5244587Y7096793D01*
X5335913Y7149520D01*
X5410480Y7224087D01*
X5463207Y7315413D01*
X5490500Y7417273D01*
X5490500Y7522727D01*
X5463207Y7624587D01*
X5410480Y7715913D01*
X5335913Y7790480D01*
X5244587Y7843207D01*
X5142727Y7870500D01*
X5037273Y7870500D01*
X4935413Y7843207D01*
X4844087Y7790480D01*
X4844085Y7790478D01*
X4769521Y7715914D01*
X4716794Y7624589D01*
X4716793Y7624586D01*
X4689500Y7522726D01*
X1729282Y7522726D01*
X1730500Y7527273D01*
X1730500Y7632727D01*
X1703207Y7734587D01*
X1650480Y7825913D01*
X1575913Y7900480D01*
X1484587Y7953207D01*
X1382727Y7980500D01*
X1277273Y7980500D01*
X1175413Y7953207D01*
X1084087Y7900480D01*
X1009520Y7825913D01*
X956793Y7734587D01*
X951790Y7715913D01*
X929500Y7632726D01*
X-22398500Y7632726D01*
X-22398500Y8532727D01*
X-21900500Y8532727D01*
X-21900500Y8427273D01*
X-21873207Y8325413D01*
X-21820480Y8234087D01*
X-21745913Y8159520D01*
X-21654587Y8106793D01*
X-21552727Y8079500D01*
X-21552726Y8079500D01*
X-21447273Y8079500D01*
X-21345413Y8106793D01*
X-21345410Y8106794D01*
X-21254085Y8159521D01*
X-21179521Y8234085D01*
X-21126794Y8325410D01*
X-21126793Y8325413D01*
X-21099500Y8427273D01*
X-21099500Y8532726D01*
X-21106679Y8559521D01*
X-21126793Y8634587D01*
X-21179520Y8725913D01*
X-21254087Y8800480D01*
X-21345413Y8853207D01*
X-21447273Y8880500D01*
X-21552727Y8880500D01*
X-21654587Y8853207D01*
X-21745913Y8800480D01*
X-21820480Y8725913D01*
X-21873207Y8634587D01*
X-21900500Y8532727D01*
X-22398500Y8532727D01*
X-22398500Y8932726D01*
X6499500Y8932726D01*
X6499500Y8827273D01*
X6526793Y8725413D01*
X6526794Y8725410D01*
X6579521Y8634085D01*
X6654085Y8559521D01*
X6745410Y8506794D01*
X6745413Y8506793D01*
X6847273Y8479500D01*
X6952726Y8479500D01*
X6952727Y8479500D01*
X7054587Y8506793D01*
X7145913Y8559520D01*
X7220480Y8634087D01*
X7273207Y8725413D01*
X7300500Y8827273D01*
X7300500Y8932726D01*
X7799500Y8932726D01*
X7799500Y8827273D01*
X7826793Y8725413D01*
X7826794Y8725410D01*
X7879521Y8634085D01*
X7954085Y8559521D01*
X8045410Y8506794D01*
X8045413Y8506793D01*
X8147273Y8479500D01*
X8252726Y8479500D01*
X8252727Y8479500D01*
X8354587Y8506793D01*
X8445913Y8559520D01*
X8520480Y8634087D01*
X8537015Y8662726D01*
X8929500Y8662726D01*
X8929500Y8557273D01*
X8956793Y8455413D01*
X8956794Y8455410D01*
X9009521Y8364085D01*
X9084085Y8289521D01*
X9175410Y8236794D01*
X9175413Y8236793D01*
X9277273Y8209500D01*
X9382726Y8209500D01*
X9382727Y8209500D01*
X9484587Y8236793D01*
X9575913Y8289520D01*
X9650480Y8364087D01*
X9703207Y8455413D01*
X9730500Y8557273D01*
X9730500Y8662727D01*
X9703207Y8764587D01*
X9669640Y8822726D01*
X10579500Y8822726D01*
X10579500Y8717273D01*
X10606793Y8615413D01*
X10606794Y8615410D01*
X10659521Y8524085D01*
X10734085Y8449521D01*
X10825410Y8396794D01*
X10825413Y8396793D01*
X10927273Y8369500D01*
X11032726Y8369500D01*
X11032727Y8369500D01*
X11134587Y8396793D01*
X11225913Y8449520D01*
X11300480Y8524087D01*
X11353207Y8615413D01*
X11380500Y8717273D01*
X11380500Y8822727D01*
X11353207Y8924587D01*
X11300480Y9015913D01*
X11225913Y9090480D01*
X11161401Y9127726D01*
X15424500Y9127726D01*
X15424500Y9022273D01*
X15451793Y8920413D01*
X15451794Y8920410D01*
X15504521Y8829085D01*
X15579085Y8754521D01*
X15670410Y8701794D01*
X15670413Y8701793D01*
X15772273Y8674500D01*
X15877726Y8674500D01*
X15877727Y8674500D01*
X15882033Y8675653D01*
X15951883Y8673989D01*
X16009744Y8634825D01*
X16037246Y8570596D01*
X16025658Y8501694D01*
X16001804Y8468197D01*
X15979520Y8445913D01*
X15951161Y8396794D01*
X15926794Y8354589D01*
X15926793Y8354586D01*
X15899500Y8252726D01*
X15899500Y8147273D01*
X15926793Y8045413D01*
X15926794Y8045410D01*
X15979521Y7954085D01*
X16054085Y7879521D01*
X16145410Y7826794D01*
X16145413Y7826793D01*
X16247273Y7799500D01*
X16352726Y7799500D01*
X16352727Y7799500D01*
X16454587Y7826793D01*
X16545913Y7879520D01*
X16620480Y7954087D01*
X16673207Y8045413D01*
X16700500Y8147273D01*
X16700500Y8252727D01*
X16673207Y8354587D01*
X16620480Y8445913D01*
X16545913Y8520480D01*
X16454587Y8573207D01*
X16352727Y8600500D01*
X16247273Y8600500D01*
X16242970Y8599347D01*
X16173123Y8601008D01*
X16115259Y8640169D01*
X16087753Y8704397D01*
X16099338Y8773299D01*
X16123195Y8806802D01*
X16145478Y8829085D01*
X16145480Y8829087D01*
X16198207Y8920413D01*
X16225500Y9022273D01*
X16225500Y9127727D01*
X16198207Y9229587D01*
X16198026Y9229901D01*
X22759500Y9229901D01*
X22759500Y7510105D01*
X22759501Y7510097D01*
X22765330Y7480787D01*
X22787542Y7447542D01*
X22820785Y7425332D01*
X22820791Y7425329D01*
X22850099Y7419500D01*
X22850101Y7419500D01*
X24569894Y7419500D01*
X24569902Y7419501D01*
X24599212Y7425330D01*
X24632457Y7447542D01*
X24643599Y7464219D01*
X24654669Y7480787D01*
X24660500Y7510101D01*
X24660499Y9229898D01*
X24654669Y9259213D01*
X24632457Y9292457D01*
X24599213Y9314669D01*
X24569899Y9320500D01*
X22850102Y9320499D01*
X22850097Y9320498D01*
X22820787Y9314669D01*
X22787542Y9292457D01*
X22765332Y9259214D01*
X22765329Y9259208D01*
X22759500Y9229901D01*
X16198026Y9229901D01*
X16145480Y9320913D01*
X16070913Y9395480D01*
X15979587Y9448207D01*
X15877727Y9475500D01*
X15772273Y9475500D01*
X15670413Y9448207D01*
X15579087Y9395480D01*
X15504520Y9320913D01*
X15500916Y9314670D01*
X15451973Y9229898D01*
X15451793Y9229587D01*
X15428648Y9143205D01*
X15424500Y9127726D01*
X11161401Y9127726D01*
X11134587Y9143207D01*
X11032727Y9170500D01*
X10927273Y9170500D01*
X10825413Y9143207D01*
X10734087Y9090480D01*
X10659520Y9015913D01*
X10606793Y8924587D01*
X10582378Y8833466D01*
X10579500Y8822726D01*
X9669640Y8822726D01*
X9650480Y8855913D01*
X9575913Y8930480D01*
X9484587Y8983207D01*
X9382727Y9010500D01*
X9277273Y9010500D01*
X9175413Y8983207D01*
X9084087Y8930480D01*
X9009520Y8855913D01*
X8994032Y8829087D01*
X8959257Y8768854D01*
X8956793Y8764587D01*
X8940666Y8704397D01*
X8929500Y8662726D01*
X8537015Y8662726D01*
X8573207Y8725413D01*
X8600500Y8827273D01*
X8600500Y8932727D01*
X8573207Y9034587D01*
X8520480Y9125913D01*
X8445913Y9200480D01*
X8354587Y9253207D01*
X8252727Y9280500D01*
X8147273Y9280500D01*
X8045413Y9253207D01*
X7954087Y9200480D01*
X7879520Y9125913D01*
X7826793Y9034587D01*
X7813026Y8983205D01*
X7799500Y8932726D01*
X7300500Y8932726D01*
X7300500Y8932727D01*
X7273207Y9034587D01*
X7220480Y9125913D01*
X7145913Y9200480D01*
X7054587Y9253207D01*
X6952727Y9280500D01*
X6847273Y9280500D01*
X6745413Y9253207D01*
X6654087Y9200480D01*
X6579520Y9125913D01*
X6526793Y9034587D01*
X6513026Y8983205D01*
X6499500Y8932726D01*
X-22398500Y8932726D01*
X-22398500Y9592727D01*
X-6630500Y9592727D01*
X-6630500Y9487273D01*
X-6603207Y9385413D01*
X-6550480Y9294087D01*
X-6475913Y9219520D01*
X-6384587Y9166793D01*
X-6282727Y9139500D01*
X-6282726Y9139500D01*
X-6177273Y9139500D01*
X-6075413Y9166793D01*
X-6075410Y9166794D01*
X-5984085Y9219521D01*
X-5909521Y9294085D01*
X-5856794Y9385410D01*
X-5856793Y9385413D01*
X-5829500Y9487273D01*
X-5829500Y9592726D01*
X-5856793Y9694586D01*
X-5856794Y9694589D01*
X-5909521Y9785914D01*
X-5984085Y9860478D01*
X-5984087Y9860480D01*
X-6075413Y9913207D01*
X-6177273Y9940500D01*
X-6282727Y9940500D01*
X-6384587Y9913207D01*
X-6475913Y9860480D01*
X-6550480Y9785913D01*
X-6603207Y9694587D01*
X-6630500Y9592727D01*
X-22398500Y9592727D01*
X-22398500Y11292204D01*
X-22378815Y11359243D01*
X-22326011Y11404998D01*
X-22256853Y11414942D01*
X-22205609Y11395306D01*
X-22128133Y11343538D01*
X-22128124Y11343533D01*
X-22009744Y11294499D01*
X-22009738Y11294497D01*
X-21884071Y11269500D01*
X-21884069Y11269500D01*
X-21755929Y11269500D01*
X-21630261Y11294497D01*
X-21630255Y11294499D01*
X-21537963Y11332727D01*
X-19600500Y11332727D01*
X-19600500Y11227273D01*
X-19573207Y11125413D01*
X-19520480Y11034087D01*
X-19445913Y10959520D01*
X-19354587Y10906793D01*
X-19252727Y10879500D01*
X-19252726Y10879500D01*
X-19147273Y10879500D01*
X-19045413Y10906793D01*
X-19045410Y10906794D01*
X-18954085Y10959521D01*
X-18879521Y11034085D01*
X-18853368Y11079383D01*
X-10551786Y11079383D01*
X-10551786Y10973929D01*
X-10524493Y10872069D01*
X-10471766Y10780743D01*
X-10397199Y10706176D01*
X-10305873Y10653449D01*
X-10204013Y10626156D01*
X-10204012Y10626156D01*
X-10098559Y10626156D01*
X-9996699Y10653449D01*
X-9996696Y10653450D01*
X-9905371Y10706177D01*
X-9830807Y10780741D01*
X-9778080Y10872066D01*
X-9778079Y10872069D01*
X-9750786Y10973929D01*
X-9750786Y11079382D01*
X-9778210Y11181733D01*
X-9776547Y11251583D01*
X-9737384Y11309446D01*
X-9720437Y11321212D01*
X-9654085Y11359521D01*
X-9579521Y11434085D01*
X-9526794Y11525410D01*
X-9526793Y11525413D01*
X-9499500Y11627273D01*
X-9499500Y11732726D01*
X-9514246Y11787762D01*
X-9526793Y11834587D01*
X-9579520Y11925913D01*
X-9654087Y12000480D01*
X-9745413Y12053207D01*
X-9847273Y12080500D01*
X-9952727Y12080500D01*
X-10054587Y12053207D01*
X-10145913Y12000480D01*
X-10220480Y11925913D01*
X-10273207Y11834587D01*
X-10300500Y11732727D01*
X-10300500Y11627273D01*
X-10293320Y11600478D01*
X-10273075Y11524922D01*
X-10274738Y11455072D01*
X-10313901Y11397210D01*
X-10330845Y11385445D01*
X-10397199Y11347136D01*
X-10471766Y11272569D01*
X-10524493Y11181243D01*
X-10551786Y11079383D01*
X-18853368Y11079383D01*
X-18826794Y11125410D01*
X-18826792Y11125413D01*
X-18799500Y11227273D01*
X-18799500Y11332726D01*
X-18802395Y11343533D01*
X-18826793Y11434587D01*
X-18879520Y11525913D01*
X-18954087Y11600480D01*
X-19045413Y11653207D01*
X-19147273Y11680500D01*
X-19252727Y11680500D01*
X-19354587Y11653207D01*
X-19445913Y11600480D01*
X-19520480Y11525913D01*
X-19573207Y11434587D01*
X-19600500Y11332727D01*
X-21537963Y11332727D01*
X-21511875Y11343533D01*
X-21511866Y11343538D01*
X-21405331Y11414723D01*
X-21405327Y11414726D01*
X-21391519Y11428535D01*
X-21314726Y11505327D01*
X-21314723Y11505331D01*
X-21243538Y11611866D01*
X-21243533Y11611875D01*
X-21194499Y11730255D01*
X-21194497Y11730261D01*
X-21169500Y11855928D01*
X-21169500Y11984071D01*
X-21169499Y11984071D01*
X-21194076Y12107619D01*
X-21194076Y12107620D01*
X-21194497Y12109736D01*
X-21194499Y12109744D01*
X-21200273Y12123684D01*
X-15466125Y12123684D01*
X-15466125Y12005066D01*
X-15435424Y11890489D01*
X-15376114Y11787762D01*
X-15292238Y11703886D01*
X-15189511Y11644576D01*
X-15074934Y11613875D01*
X-15074931Y11613875D01*
X-14956319Y11613875D01*
X-14956316Y11613875D01*
X-14841739Y11644576D01*
X-14826791Y11653206D01*
X-14739012Y11703886D01*
X-14739009Y11703888D01*
X-14655138Y11787759D01*
X-14655136Y11787762D01*
X-14595827Y11890487D01*
X-14595826Y11890489D01*
X-14565125Y12005066D01*
X-14565125Y12123684D01*
X-14570149Y12142434D01*
X-12884875Y12142434D01*
X-12884875Y12023816D01*
X-12854174Y11909239D01*
X-12794864Y11806512D01*
X-12710988Y11722636D01*
X-12608261Y11663326D01*
X-12493684Y11632625D01*
X-12493681Y11632625D01*
X-12375069Y11632625D01*
X-12375066Y11632625D01*
X-12260489Y11663326D01*
X-12157762Y11722636D01*
X-12157759Y11722638D01*
X-12073888Y11806509D01*
X-12073886Y11806512D01*
X-12014577Y11909237D01*
X-12014576Y11909239D01*
X-11983875Y12023816D01*
X-11983875Y12142434D01*
X-12014576Y12257011D01*
X-12073886Y12359738D01*
X-12157762Y12443614D01*
X-12260489Y12502924D01*
X-12375066Y12533625D01*
X-12493684Y12533625D01*
X-12608261Y12502924D01*
X-12710988Y12443614D01*
X-12794864Y12359738D01*
X-12854174Y12257011D01*
X-12884875Y12142434D01*
X-14570149Y12142434D01*
X-14595826Y12238261D01*
X-14655136Y12340988D01*
X-14739012Y12424864D01*
X-14841739Y12484174D01*
X-14956316Y12514875D01*
X-15074934Y12514875D01*
X-15189511Y12484174D01*
X-15292238Y12424864D01*
X-15376114Y12340988D01*
X-15435424Y12238261D01*
X-15466125Y12123684D01*
X-21200273Y12123684D01*
X-21243533Y12228124D01*
X-21243538Y12228133D01*
X-21314723Y12334668D01*
X-21314726Y12334672D01*
X-21405327Y12425273D01*
X-21405331Y12425276D01*
X-21511866Y12496461D01*
X-21511875Y12496466D01*
X-21582967Y12525913D01*
X-21630256Y12545501D01*
X-21641788Y12547795D01*
X-21755929Y12570500D01*
X-21755931Y12570500D01*
X-21884069Y12570500D01*
X-21884071Y12570500D01*
X-21968615Y12553682D01*
X-22009744Y12545501D01*
X-22128127Y12496465D01*
X-22204536Y12445410D01*
X-22205609Y12444693D01*
X-22272286Y12423815D01*
X-22339666Y12442299D01*
X-22386357Y12494278D01*
X-22398500Y12547795D01*
X-22398500Y13082727D01*
X-19150500Y13082727D01*
X-19150500Y12977273D01*
X-19123207Y12875413D01*
X-19070480Y12784087D01*
X-18995913Y12709520D01*
X-18904587Y12656793D01*
X-18802727Y12629500D01*
X-18802726Y12629500D01*
X-18697273Y12629500D01*
X-18610588Y12652727D01*
X-7120500Y12652727D01*
X-7120500Y12547273D01*
X-7093207Y12445413D01*
X-7040480Y12354087D01*
X-6965913Y12279520D01*
X-6931272Y12259520D01*
X-6875419Y12227273D01*
X-6874587Y12226793D01*
X-6772727Y12199500D01*
X-6772726Y12199500D01*
X-6667273Y12199500D01*
X-6565413Y12226793D01*
X-6565410Y12226794D01*
X-6474085Y12279521D01*
X-6420879Y12332727D01*
X-2400500Y12332727D01*
X-2400500Y12227273D01*
X-2373207Y12125413D01*
X-2320480Y12034087D01*
X-2245913Y11959520D01*
X-2154587Y11906793D01*
X-2052727Y11879500D01*
X-2052726Y11879500D01*
X-1947273Y11879500D01*
X-1845413Y11906793D01*
X-1845410Y11906794D01*
X-1754085Y11959521D01*
X-1679521Y12034085D01*
X-1626794Y12125410D01*
X-1626793Y12125413D01*
X-1599500Y12227273D01*
X-1599500Y12332726D01*
X-1599864Y12334087D01*
X-1626793Y12434587D01*
X-1631246Y12442299D01*
X-1666246Y12502922D01*
X-1679520Y12525913D01*
X-1754087Y12600480D01*
X-1809939Y12632726D01*
X2699500Y12632726D01*
X2699500Y12527273D01*
X2726793Y12425413D01*
X2726794Y12425410D01*
X2779521Y12334085D01*
X2854085Y12259521D01*
X2945410Y12206794D01*
X2945413Y12206793D01*
X3047273Y12179500D01*
X3152726Y12179500D01*
X3152727Y12179500D01*
X3254587Y12206793D01*
X3345913Y12259520D01*
X3420480Y12334087D01*
X3431241Y12352726D01*
X16074500Y12352726D01*
X16074500Y12247273D01*
X16101793Y12145413D01*
X16101794Y12145410D01*
X16154521Y12054085D01*
X16229085Y11979521D01*
X16320410Y11926794D01*
X16320413Y11926793D01*
X16422273Y11899500D01*
X16527726Y11899500D01*
X16527727Y11899500D01*
X16629587Y11926793D01*
X16720913Y11979520D01*
X16795480Y12054087D01*
X16848207Y12145413D01*
X16875500Y12247273D01*
X16875500Y12352727D01*
X16848207Y12454587D01*
X16795480Y12545913D01*
X16720913Y12620480D01*
X16629587Y12673207D01*
X16527727Y12700500D01*
X16422273Y12700500D01*
X16320413Y12673207D01*
X16229087Y12620480D01*
X16154520Y12545913D01*
X16101793Y12454587D01*
X16074865Y12354087D01*
X16074500Y12352726D01*
X3431241Y12352726D01*
X3473207Y12425413D01*
X3500500Y12527273D01*
X3500500Y12632727D01*
X3473207Y12734587D01*
X3420480Y12825913D01*
X3345913Y12900480D01*
X3254587Y12953207D01*
X3152727Y12980500D01*
X3047273Y12980500D01*
X2945413Y12953207D01*
X2854087Y12900480D01*
X2779520Y12825913D01*
X2726793Y12734587D01*
X2704859Y12652725D01*
X2699500Y12632726D01*
X-1809939Y12632726D01*
X-1845413Y12653207D01*
X-1947273Y12680500D01*
X-2052727Y12680500D01*
X-2154587Y12653207D01*
X-2245913Y12600480D01*
X-2320480Y12525913D01*
X-2373207Y12434587D01*
X-2400500Y12332727D01*
X-6420879Y12332727D01*
X-6399521Y12354085D01*
X-6393688Y12364186D01*
X-6346793Y12445413D01*
X-6319500Y12547273D01*
X-6319500Y12652727D01*
X-6346793Y12754587D01*
X-6399520Y12845913D01*
X-6474087Y12920480D01*
X-6565413Y12973207D01*
X-6667273Y13000500D01*
X-6772727Y13000500D01*
X-6874587Y12973207D01*
X-6965913Y12920480D01*
X-7040480Y12845913D01*
X-7093207Y12754587D01*
X-7120500Y12652727D01*
X-18610588Y12652727D01*
X-18595413Y12656793D01*
X-18595410Y12656794D01*
X-18504085Y12709521D01*
X-18465072Y12748535D01*
X-18429521Y12784085D01*
X-18376794Y12875410D01*
X-18376793Y12875413D01*
X-18349500Y12977273D01*
X-18349500Y13082726D01*
X-18355948Y13106793D01*
X-18376793Y13184587D01*
X-18429520Y13275913D01*
X-18504087Y13350480D01*
X-18595413Y13403207D01*
X-18601858Y13404934D01*
X-14184875Y13404934D01*
X-14184875Y13286316D01*
X-14154174Y13171739D01*
X-14094864Y13069012D01*
X-14010988Y12985136D01*
X-13908261Y12925826D01*
X-13793684Y12895125D01*
X-13793681Y12895125D01*
X-13675069Y12895125D01*
X-13675066Y12895125D01*
X-13560489Y12925826D01*
X-13513067Y12953205D01*
X-13457762Y12985136D01*
X-13457759Y12985138D01*
X-13373888Y13069009D01*
X-13373886Y13069012D01*
X-13314577Y13171737D01*
X-13311134Y13184586D01*
X-13283875Y13286316D01*
X-13283875Y13404934D01*
X-13314576Y13519511D01*
X-13314576Y13519512D01*
X-13322206Y13532727D01*
X-8100500Y13532727D01*
X-8100500Y13427273D01*
X-8073207Y13325413D01*
X-8020480Y13234087D01*
X-7945913Y13159520D01*
X-7854587Y13106793D01*
X-7752727Y13079500D01*
X-7752726Y13079500D01*
X-7647273Y13079500D01*
X-7545413Y13106793D01*
X-7545410Y13106794D01*
X-7454085Y13159521D01*
X-7379521Y13234085D01*
X-7326794Y13325410D01*
X-7326793Y13325413D01*
X-7299500Y13427273D01*
X-7299500Y13532726D01*
X-7326793Y13634586D01*
X-7326794Y13634589D01*
X-7367445Y13704998D01*
X-7379520Y13725913D01*
X-7379521Y13725914D01*
X-7383584Y13732951D01*
X-7382338Y13733669D01*
X-7404351Y13790608D01*
X-7390313Y13859053D01*
X-7342782Y13908312D01*
X-7283175Y13942726D01*
X-7254087Y13959520D01*
X-7254086Y13959520D01*
X-7254084Y13959522D01*
X-7179521Y14034085D01*
X-7126794Y14125410D01*
X-7126793Y14125413D01*
X-7099500Y14227273D01*
X-7099500Y14332726D01*
X-7100848Y14337759D01*
X-7126793Y14434587D01*
X-7130201Y14440489D01*
X-7179521Y14525914D01*
X-7254085Y14600478D01*
X-7254087Y14600480D01*
X-7345413Y14653207D01*
X-7447273Y14680500D01*
X-7552727Y14680500D01*
X-7654587Y14653207D01*
X-7745913Y14600480D01*
X-7820480Y14525913D01*
X-7873207Y14434587D01*
X-7900500Y14332727D01*
X-7900500Y14227273D01*
X-7873207Y14125413D01*
X-7820480Y14034087D01*
X-7820478Y14034085D01*
X-7816416Y14027049D01*
X-7817660Y14026330D01*
X-7795648Y13969394D01*
X-7809685Y13900949D01*
X-7857215Y13851689D01*
X-7945913Y13800480D01*
X-8020480Y13725913D01*
X-8073207Y13634587D01*
X-8100500Y13532727D01*
X-13322206Y13532727D01*
X-13357871Y13594499D01*
X-13373886Y13622238D01*
X-13457762Y13706114D01*
X-13560489Y13765424D01*
X-13675066Y13796125D01*
X-13793684Y13796125D01*
X-13908261Y13765424D01*
X-14010988Y13706114D01*
X-14094864Y13622238D01*
X-14154174Y13519511D01*
X-14184875Y13404934D01*
X-18601858Y13404934D01*
X-18697273Y13430500D01*
X-18802727Y13430500D01*
X-18904587Y13403207D01*
X-18995913Y13350480D01*
X-19070480Y13275913D01*
X-19123207Y13184587D01*
X-19150500Y13082727D01*
X-22398500Y13082727D01*
X-22398500Y13592204D01*
X-22378815Y13659243D01*
X-22326011Y13704998D01*
X-22256853Y13714942D01*
X-22205609Y13695306D01*
X-22128133Y13643538D01*
X-22128124Y13643533D01*
X-22009744Y13594499D01*
X-22009738Y13594497D01*
X-21884071Y13569500D01*
X-21884069Y13569500D01*
X-21755929Y13569500D01*
X-21630261Y13594497D01*
X-21630255Y13594499D01*
X-21511875Y13643533D01*
X-21511866Y13643538D01*
X-21405331Y13714723D01*
X-21405327Y13714726D01*
X-21314726Y13805327D01*
X-21314723Y13805331D01*
X-21243538Y13911866D01*
X-21243531Y13911879D01*
X-21230754Y13942727D01*
X-19900500Y13942727D01*
X-19900500Y13837273D01*
X-19873207Y13735413D01*
X-19820480Y13644087D01*
X-19745913Y13569520D01*
X-19745878Y13569500D01*
X-19659297Y13519512D01*
X-19654587Y13516793D01*
X-19552727Y13489500D01*
X-19552726Y13489500D01*
X-19447273Y13489500D01*
X-19345413Y13516793D01*
X-19345410Y13516794D01*
X-19254085Y13569521D01*
X-19179521Y13644085D01*
X-19126794Y13735410D01*
X-19126793Y13735413D01*
X-19099500Y13837273D01*
X-19099500Y13942726D01*
X-19106645Y13969394D01*
X-19126793Y14044587D01*
X-19179520Y14135913D01*
X-19254087Y14210480D01*
X-19345413Y14263207D01*
X-19447273Y14290500D01*
X-19552727Y14290500D01*
X-19654587Y14263207D01*
X-19745913Y14210480D01*
X-19820480Y14135913D01*
X-19873207Y14044587D01*
X-19900500Y13942727D01*
X-21230754Y13942727D01*
X-21207733Y13998306D01*
X-21207733Y13998307D01*
X-21194499Y14030255D01*
X-21194497Y14030261D01*
X-21169500Y14155928D01*
X-21169500Y14284071D01*
X-21169499Y14284071D01*
X-21194497Y14409738D01*
X-21194499Y14409744D01*
X-21243533Y14528124D01*
X-21243538Y14528133D01*
X-21312720Y14631670D01*
X-21312721Y14631672D01*
X-21314722Y14634667D01*
X-21314726Y14634672D01*
X-21372488Y14692434D01*
X-15434875Y14692434D01*
X-15434875Y14573816D01*
X-15404174Y14459239D01*
X-15344864Y14356512D01*
X-15260988Y14272636D01*
X-15158261Y14213326D01*
X-15043684Y14182625D01*
X-15043681Y14182625D01*
X-14925069Y14182625D01*
X-14925066Y14182625D01*
X-14810489Y14213326D01*
X-14707762Y14272636D01*
X-14707759Y14272638D01*
X-14623888Y14356509D01*
X-14623886Y14356512D01*
X-14564577Y14459237D01*
X-14546711Y14525913D01*
X-14533875Y14573816D01*
X-14533875Y14673684D01*
X-12916125Y14673684D01*
X-12916125Y14555066D01*
X-12885424Y14440489D01*
X-12826114Y14337762D01*
X-12742238Y14253886D01*
X-12639511Y14194576D01*
X-12524934Y14163875D01*
X-12524931Y14163875D01*
X-12406319Y14163875D01*
X-12406316Y14163875D01*
X-12291739Y14194576D01*
X-12259261Y14213327D01*
X-12189012Y14253886D01*
X-12189009Y14253888D01*
X-12105138Y14337759D01*
X-12105136Y14337762D01*
X-12045827Y14440487D01*
X-12045826Y14440489D01*
X-12015125Y14555066D01*
X-12015125Y14673684D01*
X-12045826Y14788261D01*
X-12105136Y14890988D01*
X-12189012Y14974864D01*
X-12291739Y15034174D01*
X-12406316Y15064875D01*
X-12524934Y15064875D01*
X-12639511Y15034174D01*
X-12742238Y14974864D01*
X-12826114Y14890988D01*
X-12885424Y14788261D01*
X-12916125Y14673684D01*
X-14533875Y14673684D01*
X-14533875Y14692434D01*
X-14564576Y14807011D01*
X-14623886Y14909738D01*
X-14707762Y14993614D01*
X-14810489Y15052924D01*
X-14925066Y15083625D01*
X-15043684Y15083625D01*
X-15158261Y15052924D01*
X-15260988Y14993614D01*
X-15344864Y14909738D01*
X-15404174Y14807011D01*
X-15434875Y14692434D01*
X-21372488Y14692434D01*
X-21405327Y14725273D01*
X-21405331Y14725276D01*
X-21511866Y14796461D01*
X-21511875Y14796466D01*
X-21538692Y14807574D01*
X-21630256Y14845501D01*
X-21641788Y14847795D01*
X-21755929Y14870500D01*
X-21755931Y14870500D01*
X-21884069Y14870500D01*
X-21884071Y14870500D01*
X-21968615Y14853682D01*
X-22009744Y14845501D01*
X-22128127Y14796465D01*
X-22183419Y14759520D01*
X-22205609Y14744693D01*
X-22272286Y14723815D01*
X-22339666Y14742299D01*
X-22386357Y14794278D01*
X-22398500Y14847795D01*
X-22398500Y15212727D01*
X-5920500Y15212727D01*
X-5920500Y15107273D01*
X-5893207Y15005413D01*
X-5840480Y14914087D01*
X-5765913Y14839520D01*
X-5756499Y14834085D01*
X-5677132Y14788262D01*
X-5674587Y14786793D01*
X-5572727Y14759500D01*
X-5572726Y14759500D01*
X-5467273Y14759500D01*
X-5365413Y14786793D01*
X-5365410Y14786794D01*
X-5274085Y14839521D01*
X-5199521Y14914085D01*
X-5146794Y15005410D01*
X-5146793Y15005413D01*
X-5119500Y15107273D01*
X-5119500Y15132726D01*
X7199500Y15132726D01*
X7199500Y15027273D01*
X7226793Y14925413D01*
X7226794Y14925410D01*
X7279521Y14834085D01*
X7354085Y14759521D01*
X7445410Y14706794D01*
X7445413Y14706793D01*
X7547273Y14679500D01*
X7652726Y14679500D01*
X7652727Y14679500D01*
X7754587Y14706793D01*
X7845913Y14759520D01*
X7920480Y14834087D01*
X7973207Y14925413D01*
X8000500Y15027273D01*
X8000500Y15132727D01*
X7973207Y15234587D01*
X7920480Y15325913D01*
X7845913Y15400480D01*
X7754587Y15453207D01*
X7652727Y15480500D01*
X7547273Y15480500D01*
X7445413Y15453207D01*
X7354087Y15400480D01*
X7279520Y15325913D01*
X7226793Y15234587D01*
X7208258Y15165410D01*
X7199500Y15132726D01*
X-5119500Y15132726D01*
X-5119500Y15212726D01*
X-5125357Y15234587D01*
X-5146793Y15314587D01*
X-5199520Y15405913D01*
X-5274087Y15480480D01*
X-5365413Y15533207D01*
X-5467273Y15560500D01*
X-5572727Y15560500D01*
X-5674587Y15533207D01*
X-5765913Y15480480D01*
X-5840480Y15405913D01*
X-5893207Y15314587D01*
X-5920500Y15212727D01*
X-22398500Y15212727D01*
X-22398500Y16379901D01*
X13772000Y16379901D01*
X13772000Y14760105D01*
X13772001Y14760097D01*
X13777830Y14730787D01*
X13800042Y14697542D01*
X13833285Y14675332D01*
X13833291Y14675329D01*
X13862599Y14669500D01*
X13862601Y14669500D01*
X15482394Y14669500D01*
X15482402Y14669501D01*
X15511712Y14675330D01*
X15544957Y14697542D01*
X15556099Y14714219D01*
X15567169Y14730787D01*
X15569459Y14742299D01*
X15573000Y14760098D01*
X15573000Y15372726D01*
X19059500Y15372726D01*
X19059500Y15267273D01*
X19086793Y15165413D01*
X19086794Y15165410D01*
X19139521Y15074085D01*
X19214085Y14999521D01*
X19305410Y14946794D01*
X19305413Y14946793D01*
X19407273Y14919500D01*
X19512726Y14919500D01*
X19512727Y14919500D01*
X19614587Y14946793D01*
X19705913Y14999520D01*
X19780480Y15074087D01*
X19833207Y15165413D01*
X19860500Y15267273D01*
X19860500Y15372727D01*
X19833207Y15474587D01*
X19780480Y15565913D01*
X19705913Y15640480D01*
X19614587Y15693207D01*
X19512727Y15720500D01*
X19407273Y15720500D01*
X19305413Y15693207D01*
X19214087Y15640480D01*
X19139520Y15565913D01*
X19086793Y15474587D01*
X19066937Y15400480D01*
X19059500Y15372726D01*
X15573000Y15372726D01*
X15573000Y15380854D01*
X15572999Y16379894D01*
X15572998Y16379899D01*
X15567169Y16409213D01*
X15544957Y16442457D01*
X15511713Y16464669D01*
X15482399Y16470500D01*
X13862602Y16470499D01*
X13862597Y16470498D01*
X13833287Y16464669D01*
X13800042Y16442457D01*
X13777832Y16409214D01*
X13777829Y16409208D01*
X13772000Y16379901D01*
X-22398500Y16379901D01*
X-22398500Y16880903D01*
X-22378815Y16947942D01*
X-22362181Y16968584D01*
X-21988584Y17342181D01*
X-21927261Y17375666D01*
X-21900903Y17378500D01*
X-18812243Y17378500D01*
X-18812227Y17378499D01*
X-18804631Y17378499D01*
X-18646517Y17378499D01*
X-18536615Y17407947D01*
X-18466765Y17406284D01*
X-18408903Y17367121D01*
X-18384747Y17320266D01*
X-18373207Y17277195D01*
X-18320480Y17185869D01*
X-18245913Y17111302D01*
X-18154587Y17058575D01*
X-18052727Y17031282D01*
X-18052726Y17031282D01*
X-17947273Y17031282D01*
X-17941880Y17032727D01*
X-14100500Y17032727D01*
X-14100500Y16927273D01*
X-14073207Y16825413D01*
X-14020480Y16734087D01*
X-13945913Y16659520D01*
X-13854587Y16606793D01*
X-13752727Y16579500D01*
X-13752726Y16579500D01*
X-13647273Y16579500D01*
X-13545413Y16606793D01*
X-13545410Y16606794D01*
X-13454085Y16659521D01*
X-13387681Y16725926D01*
X-13326358Y16759411D01*
X-13256666Y16754427D01*
X-13212319Y16725926D01*
X-13145913Y16659520D01*
X-13054587Y16606793D01*
X-12952727Y16579500D01*
X-12952726Y16579500D01*
X-12847273Y16579500D01*
X-12745413Y16606793D01*
X-12745410Y16606794D01*
X-12654085Y16659521D01*
X-12579521Y16734085D01*
X-12526794Y16825410D01*
X-12526793Y16825413D01*
X-12499500Y16927273D01*
X-12499500Y17032726D01*
X-12525171Y17128535D01*
X-12526793Y17134587D01*
X-12579520Y17225913D01*
X-12654087Y17300480D01*
X-12745413Y17353207D01*
X-12847273Y17380500D01*
X-12952727Y17380500D01*
X-13054587Y17353207D01*
X-13145913Y17300480D01*
X-13198691Y17247702D01*
X-13212319Y17234074D01*
X-13273642Y17200589D01*
X-13343334Y17205573D01*
X-13387681Y17234074D01*
X-13454085Y17300478D01*
X-13454087Y17300480D01*
X-13545413Y17353207D01*
X-13647273Y17380500D01*
X-13752727Y17380500D01*
X-13854587Y17353207D01*
X-13945913Y17300480D01*
X-14020480Y17225913D01*
X-14073207Y17134587D01*
X-14100500Y17032727D01*
X-17941880Y17032727D01*
X-17845413Y17058575D01*
X-17845410Y17058576D01*
X-17754085Y17111303D01*
X-17736854Y17128535D01*
X-17679521Y17185867D01*
X-17626794Y17277192D01*
X-17626793Y17277195D01*
X-17599500Y17379055D01*
X-17599500Y17484508D01*
X-17606196Y17509499D01*
X-17626793Y17586369D01*
X-17679520Y17677695D01*
X-17754087Y17752262D01*
X-17835388Y17799201D01*
X-17852641Y17817295D01*
X-17872655Y17832278D01*
X-17876335Y17842144D01*
X-17883604Y17849768D01*
X-17888335Y17874318D01*
X-17897072Y17897742D01*
X-17894833Y17908034D01*
X-17896826Y17918375D01*
X-17887534Y17941583D01*
X-17882220Y17966015D01*
X-17872619Y17978839D01*
X-17870858Y17983240D01*
X-17861069Y17994269D01*
X-17822611Y18032727D01*
X-16700500Y18032727D01*
X-16700500Y17927273D01*
X-16673207Y17825413D01*
X-16620480Y17734087D01*
X-16545913Y17659520D01*
X-16493884Y17629481D01*
X-16457009Y17608191D01*
X-16454587Y17606793D01*
X-16352727Y17579500D01*
X-16352726Y17579500D01*
X-16247273Y17579500D01*
X-16145413Y17606793D01*
X-16145410Y17606794D01*
X-16054085Y17659521D01*
X-15979521Y17734085D01*
X-15926794Y17825410D01*
X-15926793Y17825413D01*
X-15899500Y17927273D01*
X-15899500Y18032726D01*
X-15899500Y18032727D01*
X-10350500Y18032727D01*
X-10350500Y17927273D01*
X-10323207Y17825413D01*
X-10270480Y17734087D01*
X-10195913Y17659520D01*
X-10143884Y17629481D01*
X-10107009Y17608191D01*
X-10104587Y17606793D01*
X-10002727Y17579500D01*
X-10002726Y17579500D01*
X-9897273Y17579500D01*
X-9795413Y17606793D01*
X-9795410Y17606794D01*
X-9704085Y17659521D01*
X-9629521Y17734085D01*
X-9576794Y17825410D01*
X-9576793Y17825413D01*
X-9549500Y17927273D01*
X-9549500Y18032726D01*
X-9558763Y18067299D01*
X-9576793Y18134587D01*
X-9629520Y18225913D01*
X-9704087Y18300480D01*
X-9795413Y18353207D01*
X-9897273Y18380500D01*
X-10002727Y18380500D01*
X-10104587Y18353207D01*
X-10195913Y18300480D01*
X-10270480Y18225913D01*
X-10323207Y18134587D01*
X-10350500Y18032727D01*
X-15899500Y18032727D01*
X-15908763Y18067299D01*
X-15926793Y18134587D01*
X-15979520Y18225913D01*
X-16054087Y18300480D01*
X-16145413Y18353207D01*
X-16247273Y18380500D01*
X-16352727Y18380500D01*
X-16454587Y18353207D01*
X-16545913Y18300480D01*
X-16620480Y18225913D01*
X-16673207Y18134587D01*
X-16700500Y18032727D01*
X-17822611Y18032727D01*
X-17726803Y18128535D01*
X-16048528Y19806809D01*
X-6163000Y19806809D01*
X-6163000Y19688191D01*
X-6132299Y19573614D01*
X-6072989Y19470887D01*
X-5989113Y19387011D01*
X-5886386Y19327701D01*
X-5771809Y19297000D01*
X-5771806Y19297000D01*
X-5745137Y19297000D01*
X-5678098Y19277315D01*
X-5632343Y19224511D01*
X-5622399Y19155353D01*
X-5630573Y19125555D01*
X-5632296Y19121393D01*
X-5632296Y19121389D01*
X-5632299Y19121386D01*
X-5663000Y19006809D01*
X-5663000Y18888191D01*
X-5632299Y18773614D01*
X-5632297Y18773611D01*
X-5632296Y18773606D01*
X-5630573Y18769445D01*
X-5623109Y18699976D01*
X-5654387Y18637498D01*
X-5714479Y18601850D01*
X-5745137Y18598000D01*
X-5771809Y18598000D01*
X-5886386Y18567299D01*
X-5989113Y18507989D01*
X-6072989Y18424113D01*
X-6132299Y18321386D01*
X-6163000Y18206809D01*
X-6163000Y18088191D01*
X-6132299Y17973614D01*
X-6072989Y17870887D01*
X-5989113Y17787011D01*
X-5886386Y17727701D01*
X-5771809Y17697000D01*
X-5771806Y17697000D01*
X-5653194Y17697000D01*
X-5653191Y17697000D01*
X-5538614Y17727701D01*
X-5527556Y17734085D01*
X-5435887Y17787011D01*
X-5435884Y17787013D01*
X-5352013Y17870884D01*
X-5352011Y17870887D01*
X-5319887Y17926527D01*
X-5269319Y17974742D01*
X-5200712Y17987964D01*
X-5135847Y17961996D01*
X-5105113Y17926527D01*
X-5072989Y17870887D01*
X-4989113Y17787011D01*
X-4886386Y17727701D01*
X-4771809Y17697000D01*
X-4771806Y17697000D01*
X-4653194Y17697000D01*
X-4653191Y17697000D01*
X-4616584Y17706809D01*
X-2238000Y17706809D01*
X-2238000Y17588191D01*
X-2207299Y17473614D01*
X-2147989Y17370887D01*
X-2064113Y17287011D01*
X-1961386Y17227701D01*
X-1846809Y17197000D01*
X-1846806Y17197000D01*
X-1728194Y17197000D01*
X-1728191Y17197000D01*
X-1613614Y17227701D01*
X-1578971Y17247702D01*
X-1510887Y17287011D01*
X-1510884Y17287013D01*
X-1427013Y17370884D01*
X-1427011Y17370887D01*
X-1367702Y17473612D01*
X-1358086Y17509499D01*
X-1337000Y17588191D01*
X-1337000Y17706809D01*
X-1342359Y17726809D01*
X4837000Y17726809D01*
X4837000Y17608191D01*
X4863445Y17509499D01*
X4867702Y17493612D01*
X4927011Y17390887D01*
X4927013Y17390884D01*
X5010884Y17307013D01*
X5010887Y17307011D01*
X5062534Y17277192D01*
X5113614Y17247701D01*
X5228191Y17217000D01*
X5228194Y17217000D01*
X5346806Y17217000D01*
X5346809Y17217000D01*
X5461386Y17247701D01*
X5564113Y17307011D01*
X5647989Y17390887D01*
X5707299Y17493614D01*
X5738000Y17608191D01*
X5738000Y17726809D01*
X5707299Y17841386D01*
X5647989Y17944113D01*
X5564113Y18027989D01*
X5461386Y18087299D01*
X5346809Y18118000D01*
X5228191Y18118000D01*
X5113614Y18087299D01*
X5010887Y18027989D01*
X4927011Y17944113D01*
X4867701Y17841386D01*
X4837000Y17726809D01*
X-1342359Y17726809D01*
X-1367701Y17821386D01*
X-1427011Y17924113D01*
X-1510887Y18007989D01*
X-1613614Y18067299D01*
X-1728191Y18098000D01*
X-1846809Y18098000D01*
X-1961386Y18067299D01*
X-2064113Y18007989D01*
X-2147989Y17924113D01*
X-2207299Y17821386D01*
X-2238000Y17706809D01*
X-4616584Y17706809D01*
X-4538614Y17727701D01*
X-4527556Y17734085D01*
X-4435887Y17787011D01*
X-4435884Y17787013D01*
X-4420281Y17802617D01*
X-4352013Y17870884D01*
X-4352011Y17870887D01*
X-4292702Y17973612D01*
X-4288856Y17987964D01*
X-4262000Y18088191D01*
X-4262000Y18206809D01*
X-4292701Y18321386D01*
X-4352011Y18424113D01*
X-4435887Y18507989D01*
X-4538614Y18567299D01*
X-4653191Y18598000D01*
X-4679863Y18598000D01*
X-4746902Y18617685D01*
X-4792657Y18670489D01*
X-4802601Y18739647D01*
X-4794427Y18769445D01*
X-4792703Y18773606D01*
X-4782186Y18812858D01*
X-4762000Y18888191D01*
X-4762000Y19006809D01*
X-4792701Y19121386D01*
X-4792703Y19121393D01*
X-4794427Y19125555D01*
X-4801891Y19195024D01*
X-4770613Y19257502D01*
X-4710521Y19293150D01*
X-4679863Y19297000D01*
X-4653194Y19297000D01*
X-4653191Y19297000D01*
X-4538614Y19327701D01*
X-4435887Y19387011D01*
X-4435884Y19387013D01*
X-4352013Y19470884D01*
X-4352011Y19470887D01*
X-4292702Y19573612D01*
X-4292701Y19573614D01*
X-4262000Y19688191D01*
X-4262000Y19806809D01*
X-4292701Y19921386D01*
X-4352011Y20024113D01*
X-4435887Y20107989D01*
X-4538614Y20167299D01*
X-4653191Y20198000D01*
X-4771809Y20198000D01*
X-4886386Y20167299D01*
X-4989113Y20107989D01*
X-5072989Y20024113D01*
X-5102044Y19973789D01*
X-5105113Y19968473D01*
X-5155680Y19920257D01*
X-5224287Y19907035D01*
X-5289152Y19933003D01*
X-5319887Y19968473D01*
X-5352009Y20024109D01*
X-5352011Y20024113D01*
X-5435887Y20107989D01*
X-5538614Y20167299D01*
X-5653191Y20198000D01*
X-5771809Y20198000D01*
X-5886386Y20167299D01*
X-5989113Y20107989D01*
X-6072989Y20024113D01*
X-6132299Y19921386D01*
X-6163000Y19806809D01*
X-16048528Y19806809D01*
X-16018481Y19836856D01*
X-16018479Y19836859D01*
X-15995342Y19876935D01*
X-15964994Y19929500D01*
X-15964993Y19929501D01*
X-15939423Y19973789D01*
X-15898500Y20126517D01*
X-15898500Y20332726D01*
X7499500Y20332726D01*
X7499500Y20227273D01*
X7526793Y20125413D01*
X7526794Y20125410D01*
X7579521Y20034085D01*
X7654085Y19959521D01*
X7745410Y19906794D01*
X7745413Y19906793D01*
X7847273Y19879500D01*
X7952726Y19879500D01*
X7952727Y19879500D01*
X8054587Y19906793D01*
X8145913Y19959520D01*
X8220480Y20034087D01*
X8273207Y20125413D01*
X8300500Y20227273D01*
X8300500Y20332727D01*
X8273207Y20434587D01*
X8220480Y20525913D01*
X8145913Y20600480D01*
X8054587Y20653207D01*
X7952727Y20680500D01*
X7847273Y20680500D01*
X7745413Y20653207D01*
X7654087Y20600480D01*
X7579520Y20525913D01*
X7526793Y20434587D01*
X7508725Y20367153D01*
X7499500Y20332726D01*
X-15898500Y20332726D01*
X-15898500Y23080902D01*
X-15889855Y23110342D01*
X-15886273Y23126809D01*
X-5863000Y23126809D01*
X-5863000Y23008191D01*
X-5832299Y22893614D01*
X-5772989Y22790887D01*
X-5689113Y22707011D01*
X-5586386Y22647701D01*
X-5471809Y22617000D01*
X-5471806Y22617000D01*
X-5353194Y22617000D01*
X-5353191Y22617000D01*
X-5238614Y22647701D01*
X-5135887Y22707011D01*
X-5135884Y22707013D01*
X-5052013Y22790884D01*
X-5052011Y22790887D01*
X-4992702Y22893612D01*
X-4992701Y22893614D01*
X-4962000Y23008191D01*
X-4962000Y23126809D01*
X-4992701Y23241386D01*
X-5052011Y23344113D01*
X-5135887Y23427989D01*
X-5238614Y23487299D01*
X-5353191Y23518000D01*
X-5471809Y23518000D01*
X-5586386Y23487299D01*
X-5689113Y23427989D01*
X-5772989Y23344113D01*
X-5832299Y23241386D01*
X-5863000Y23126809D01*
X-15886273Y23126809D01*
X-15883332Y23140329D01*
X-15879577Y23145344D01*
X-15878815Y23147941D01*
X-15862181Y23168583D01*
X-15187583Y23843181D01*
X-15126260Y23876666D01*
X-15099902Y23879500D01*
X-11493780Y23879500D01*
X-11478524Y23878500D01*
X-11478058Y23878500D01*
X-11478057Y23878500D01*
X-4999097Y23878500D01*
X-4932058Y23858815D01*
X-4911416Y23842181D01*
X-3087590Y22018355D01*
X-3087588Y22018352D01*
X-2968717Y21899481D01*
X-2968714Y21899479D01*
X-2881904Y21849360D01*
X-2881904Y21849359D01*
X-2881902Y21849359D01*
X-2831785Y21820423D01*
X-2831782Y21820422D01*
X-2767232Y21803126D01*
X-2679058Y21779500D01*
X-2679057Y21779500D01*
X7799903Y21779500D01*
X7866942Y21759815D01*
X7887583Y21743181D01*
X9905710Y19725054D01*
X11889478Y17741286D01*
X12001282Y17629481D01*
X12001285Y17629479D01*
X12038154Y17608193D01*
X12075955Y17586369D01*
X12138215Y17550423D01*
X12290943Y17509499D01*
X12290946Y17509499D01*
X12456653Y17509499D01*
X12456669Y17509500D01*
X13948139Y17509500D01*
X14015178Y17489815D01*
X14035815Y17473185D01*
X14067143Y17441857D01*
X14098466Y17410534D01*
X14245946Y17311990D01*
X14245959Y17311983D01*
X14409832Y17244106D01*
X14409841Y17244103D01*
X14583804Y17209500D01*
X14583809Y17209500D01*
X14761195Y17209500D01*
X14935158Y17244103D01*
X14935167Y17244106D01*
X15099040Y17311983D01*
X15099053Y17311990D01*
X15246534Y17410535D01*
X15246538Y17410538D01*
X15371961Y17535961D01*
X15371964Y17535965D01*
X15470509Y17683446D01*
X15470516Y17683459D01*
X15527646Y17821386D01*
X15538394Y17847334D01*
X15538394Y17847336D01*
X15538396Y17847341D01*
X15572999Y18021304D01*
X15573000Y18021306D01*
X15573000Y18198693D01*
X15572999Y18198695D01*
X15538396Y18372658D01*
X15538394Y18372661D01*
X15538394Y18372666D01*
X15470513Y18536547D01*
X15371964Y18684035D01*
X15246535Y18809464D01*
X15099047Y18908013D01*
X14935166Y18975894D01*
X14935161Y18975894D01*
X14935158Y18975896D01*
X14761194Y19010500D01*
X14761191Y19010500D01*
X14583809Y19010500D01*
X14583806Y19010500D01*
X14409841Y18975896D01*
X14409836Y18975894D01*
X14409834Y18975894D01*
X14409832Y18975893D01*
X14245959Y18908016D01*
X14245946Y18908009D01*
X14216290Y18888193D01*
X14098465Y18809464D01*
X14035818Y18746817D01*
X13974498Y18713334D01*
X13948139Y18710500D01*
X12670097Y18710500D01*
X12603058Y18730185D01*
X12582416Y18746819D01*
X11641042Y19688193D01*
X10590539Y20738695D01*
X13772000Y20738695D01*
X13772000Y20561304D01*
X13806603Y20387341D01*
X13806606Y20387332D01*
X13874483Y20223459D01*
X13874490Y20223446D01*
X13973035Y20075965D01*
X13973038Y20075961D01*
X14098461Y19950538D01*
X14098465Y19950535D01*
X14245946Y19851990D01*
X14245959Y19851983D01*
X14409832Y19784106D01*
X14409841Y19784103D01*
X14583804Y19749500D01*
X14583809Y19749500D01*
X14761195Y19749500D01*
X14935158Y19784103D01*
X14935167Y19784106D01*
X15099040Y19851983D01*
X15099053Y19851990D01*
X15246534Y19950535D01*
X15246538Y19950538D01*
X15371961Y20075961D01*
X15371964Y20075965D01*
X15470509Y20223446D01*
X15470516Y20223459D01*
X15528309Y20362987D01*
X15538394Y20387334D01*
X15538394Y20387336D01*
X15538396Y20387341D01*
X15572999Y20561304D01*
X15573000Y20561306D01*
X15573000Y20738693D01*
X15572999Y20738695D01*
X15538396Y20912658D01*
X15538394Y20912661D01*
X15538394Y20912666D01*
X15470513Y21076547D01*
X15371964Y21224035D01*
X15246535Y21349464D01*
X15099047Y21448013D01*
X14935166Y21515894D01*
X14935161Y21515894D01*
X14935158Y21515896D01*
X14761194Y21550500D01*
X14761191Y21550500D01*
X14583809Y21550500D01*
X14583806Y21550500D01*
X14409841Y21515896D01*
X14409836Y21515894D01*
X14409834Y21515894D01*
X14409832Y21515893D01*
X14245959Y21448016D01*
X14245946Y21448009D01*
X14098465Y21349464D01*
X14098461Y21349461D01*
X13973038Y21224038D01*
X13973035Y21224034D01*
X13874490Y21076553D01*
X13874483Y21076540D01*
X13806606Y20912667D01*
X13806603Y20912658D01*
X13772000Y20738695D01*
X10590539Y20738695D01*
X8590727Y22738506D01*
X8590724Y22738511D01*
X8580520Y22748714D01*
X8580520Y22748716D01*
X8468716Y22860520D01*
X8352990Y22927334D01*
X8331785Y22939577D01*
X8179057Y22980501D01*
X8020943Y22980501D01*
X8013347Y22980501D01*
X8013331Y22980500D01*
X4284073Y22980500D01*
X4268039Y22985208D01*
X4251330Y22984901D01*
X4235207Y22994848D01*
X4217034Y23000185D01*
X4206091Y23012812D01*
X4191868Y23021589D01*
X4183682Y23038674D01*
X4171279Y23052989D01*
X4168900Y23069528D01*
X4161680Y23084601D01*
X4164030Y23103397D01*
X4161335Y23122147D01*
X4168342Y23137872D01*
X4170351Y23153930D01*
X4185253Y23175819D01*
X4188884Y23183967D01*
X4192457Y23188247D01*
X4278302Y23274092D01*
X4281378Y23278695D01*
X13772000Y23278695D01*
X13772000Y23101304D01*
X13806603Y22927341D01*
X13806605Y22927335D01*
X13806606Y22927334D01*
X13806607Y22927332D01*
X13874483Y22763459D01*
X13874490Y22763446D01*
X13973035Y22615965D01*
X13973038Y22615961D01*
X14098461Y22490538D01*
X14098465Y22490535D01*
X14245946Y22391990D01*
X14245959Y22391983D01*
X14409832Y22324106D01*
X14409841Y22324103D01*
X14583804Y22289500D01*
X14583809Y22289500D01*
X14761195Y22289500D01*
X14935158Y22324103D01*
X14935167Y22324106D01*
X15099040Y22391983D01*
X15099053Y22391990D01*
X15246534Y22490535D01*
X15246538Y22490538D01*
X15371961Y22615961D01*
X15371964Y22615965D01*
X15470509Y22763446D01*
X15470516Y22763459D01*
X15510719Y22860520D01*
X15538394Y22927334D01*
X15538394Y22927337D01*
X15538396Y22927341D01*
X15572999Y23101304D01*
X15573000Y23101306D01*
X15573000Y23278693D01*
X15572999Y23278695D01*
X15569885Y23294348D01*
X15558407Y23352057D01*
X15538396Y23452658D01*
X15538394Y23452661D01*
X15538394Y23452666D01*
X15470513Y23616547D01*
X15371964Y23764035D01*
X15246535Y23889464D01*
X15204913Y23917275D01*
X15189234Y23927752D01*
X15099053Y23988009D01*
X15099052Y23988009D01*
X15099047Y23988013D01*
X15015241Y24022726D01*
X17589500Y24022726D01*
X17589500Y23917273D01*
X17616793Y23815413D01*
X17616794Y23815410D01*
X17669521Y23724085D01*
X17744085Y23649521D01*
X17835410Y23596794D01*
X17835413Y23596793D01*
X17937273Y23569500D01*
X18042726Y23569500D01*
X18042727Y23569500D01*
X18144587Y23596793D01*
X18154902Y23602748D01*
X18178812Y23616553D01*
X18235913Y23649520D01*
X18310480Y23724087D01*
X18363207Y23815413D01*
X18390500Y23917273D01*
X18390500Y24022727D01*
X18363207Y24124587D01*
X18310480Y24215913D01*
X18235913Y24290480D01*
X18144587Y24343207D01*
X18042727Y24370500D01*
X17937273Y24370500D01*
X17835413Y24343207D01*
X17744087Y24290480D01*
X17744085Y24290478D01*
X17669521Y24215914D01*
X17616794Y24124589D01*
X17616793Y24124586D01*
X17589500Y24022726D01*
X15015241Y24022726D01*
X14935166Y24055894D01*
X14935161Y24055894D01*
X14935158Y24055896D01*
X14761194Y24090500D01*
X14761191Y24090500D01*
X14583809Y24090500D01*
X14583806Y24090500D01*
X14409841Y24055896D01*
X14409836Y24055894D01*
X14409834Y24055894D01*
X14409832Y24055893D01*
X14245959Y23988016D01*
X14245946Y23988009D01*
X14098465Y23889464D01*
X14098461Y23889461D01*
X13973038Y23764038D01*
X13973035Y23764034D01*
X13874490Y23616553D01*
X13874483Y23616540D01*
X13806606Y23452667D01*
X13806603Y23452658D01*
X13772000Y23278695D01*
X4281378Y23278695D01*
X4382322Y23429769D01*
X4453973Y23602749D01*
X4490500Y23786384D01*
X4490500Y23973616D01*
X4453973Y24157251D01*
X4382322Y24330231D01*
X4278302Y24485908D01*
X4145908Y24618302D01*
X3990231Y24722322D01*
X3945286Y24740939D01*
X3890883Y24784780D01*
X3868818Y24851074D01*
X3886097Y24918773D01*
X3937234Y24966384D01*
X3992739Y24979500D01*
X20789275Y24979500D01*
X20856314Y24959815D01*
G37*
%TD.AperFunction*%
%TD*%
%TA.AperFunction,Conductor*%
%TO.N,5V*%
G36*
X-22520877Y-9513538D02*
G01*
X-22453866Y-9533315D01*
X-22427221Y-9556469D01*
X-22421509Y-9563079D01*
X-22371545Y-9595286D01*
X-22304532Y-9615063D01*
X-22282853Y-9618210D01*
X-22274823Y-9619376D01*
X-22274820Y-9619376D01*
X-22274815Y-9619377D01*
X25375185Y-9684800D01*
X25375191Y-9684799D01*
X25375670Y-9684800D01*
X25442683Y-9704577D01*
X25488365Y-9757443D01*
X25499500Y-9808800D01*
X25499500Y-19291444D01*
X25494771Y-19307546D01*
X25494476Y-19326382D01*
X25491360Y-19336993D01*
X25481721Y-19351989D01*
X25479815Y-19358483D01*
X25477661Y-19361722D01*
X25472298Y-19369518D01*
X25468440Y-19372654D01*
X25453584Y-19395770D01*
X25422614Y-19409912D01*
X25418085Y-19413595D01*
X25413402Y-19414118D01*
X25390028Y-19424793D01*
X25358509Y-19420260D01*
X25348649Y-19421364D01*
X25341473Y-19417810D01*
X25320869Y-19414848D01*
X25295504Y-19395048D01*
X25286035Y-19390360D01*
X25282992Y-19385282D01*
X25275472Y-19379412D01*
X25273225Y-19376597D01*
X25260779Y-19357694D01*
X25189355Y-19224071D01*
X25189354Y-19224069D01*
X25134347Y-19121158D01*
X24954183Y-18851524D01*
X24748948Y-18601444D01*
X24748948Y-18601443D01*
X24748521Y-18600924D01*
X24748458Y-18600847D01*
X24748457Y-18600846D01*
X24748453Y-18600841D01*
X24748452Y-18600840D01*
X24748448Y-18600835D01*
X24519163Y-18371550D01*
X24305170Y-18195931D01*
X24269786Y-18166892D01*
X24268788Y-18166050D01*
X24268497Y-18165832D01*
X24268487Y-18165825D01*
X24268480Y-18165820D01*
X24268476Y-18165817D01*
X24094012Y-18049244D01*
X23998856Y-17985662D01*
X23998848Y-17985657D01*
X23998842Y-17985653D01*
X23998837Y-17985650D01*
X23998830Y-17985646D01*
X23998821Y-17985641D01*
X23998814Y-17985637D01*
X23833639Y-17897349D01*
X23712854Y-17832788D01*
X23712849Y-17832786D01*
X23712844Y-17832784D01*
X23712749Y-17832739D01*
X23712170Y-17832504D01*
X23413252Y-17708687D01*
X23102910Y-17614546D01*
X23102885Y-17614540D01*
X22784899Y-17551291D01*
X22784884Y-17551288D01*
X22784850Y-17551283D01*
X22540812Y-17527248D01*
X22540812Y-17527247D01*
X22480083Y-17521266D01*
X22462143Y-17519500D01*
X22462140Y-17519500D01*
X22137860Y-17519500D01*
X22137857Y-17519500D01*
X22065099Y-17526666D01*
X21815148Y-17551283D01*
X21815114Y-17551288D01*
X21815099Y-17551291D01*
X21497113Y-17614540D01*
X21497088Y-17614546D01*
X21186746Y-17708687D01*
X20887828Y-17832504D01*
X20887253Y-17832738D01*
X20887139Y-17832790D01*
X20601178Y-17985641D01*
X20601159Y-17985652D01*
X20601153Y-17985655D01*
X20331527Y-18165814D01*
X20331508Y-18165828D01*
X20331505Y-18165830D01*
X20080835Y-18371550D01*
X19851550Y-18600835D01*
X19645830Y-18851505D01*
X19645828Y-18851508D01*
X19645814Y-18851527D01*
X19465655Y-19121153D01*
X19465652Y-19121159D01*
X19465641Y-19121178D01*
X19312790Y-19407139D01*
X19312738Y-19407253D01*
X19312504Y-19407828D01*
X19188687Y-19706746D01*
X19094546Y-20017088D01*
X19094540Y-20017113D01*
X19031291Y-20335099D01*
X19031288Y-20335114D01*
X19031283Y-20335148D01*
X19029721Y-20351009D01*
X19012236Y-20528543D01*
X18999500Y-20657857D01*
X18999500Y-20982143D01*
X19000543Y-20992727D01*
X19004214Y-21030000D01*
X19004214Y-21030001D01*
X19031283Y-21304850D01*
X19031288Y-21304884D01*
X19031291Y-21304899D01*
X19094540Y-21622885D01*
X19094546Y-21622910D01*
X19188687Y-21933252D01*
X19312504Y-22232170D01*
X19312739Y-22232749D01*
X19312790Y-22232859D01*
X19407312Y-22409695D01*
X19465646Y-22518830D01*
X19465654Y-22518843D01*
X19465655Y-22518845D01*
X19645814Y-22788471D01*
X19645828Y-22788490D01*
X19645830Y-22788493D01*
X19851550Y-23039163D01*
X20080834Y-23268447D01*
X20080911Y-23268516D01*
X20081444Y-23268948D01*
X20331524Y-23474183D01*
X20447681Y-23551797D01*
X20601159Y-23654348D01*
X20601822Y-23654716D01*
X20602604Y-23655120D01*
X20832006Y-23777738D01*
X20843976Y-23789496D01*
X20860443Y-23798632D01*
X20868334Y-23806383D01*
X20877018Y-23821955D01*
X20881850Y-23826701D01*
X20883685Y-23830116D01*
X20888033Y-23838520D01*
X20888981Y-23843405D01*
X20902365Y-23867402D01*
X20900241Y-23901372D01*
X20901355Y-23907108D01*
X20899608Y-23911488D01*
X20898005Y-23937136D01*
X20879158Y-23962787D01*
X20875482Y-23972010D01*
X20868959Y-23976668D01*
X20856636Y-23993442D01*
X20827205Y-24006492D01*
X20818626Y-24012621D01*
X20812733Y-24012910D01*
X20804034Y-24016768D01*
X20800494Y-24017424D01*
X20777900Y-24019500D01*
X15691034Y-24019500D01*
X15656099Y-24014477D01*
X15645245Y-24011290D01*
X15586467Y-23973516D01*
X15557442Y-23909960D01*
X15567385Y-23840803D01*
X15568358Y-23838674D01*
X15612257Y-23787088D01*
X15624230Y-23779088D01*
X15646642Y-23764114D01*
X15646644Y-23764112D01*
X15646645Y-23764112D01*
X15744211Y-23666545D01*
X15744213Y-23666543D01*
X15744214Y-23666542D01*
X15820875Y-23551811D01*
X15873680Y-23424328D01*
X15900600Y-23288993D01*
X15900600Y-22551007D01*
X15900600Y-22551004D01*
X15900600Y-22551001D01*
X15873740Y-22415975D01*
X15873739Y-22415970D01*
X15873440Y-22414469D01*
X15871360Y-22410072D01*
X15820878Y-22288195D01*
X15820871Y-22288182D01*
X15744214Y-22173458D01*
X15744211Y-22173454D01*
X15744206Y-22173448D01*
X15646650Y-22075892D01*
X15646644Y-22075887D01*
X15646643Y-22075886D01*
X15531923Y-21999232D01*
X15531922Y-21999231D01*
X15531917Y-21999228D01*
X15531904Y-21999221D01*
X15531897Y-21999217D01*
X15404454Y-21946429D01*
X15404440Y-21946424D01*
X15404432Y-21946421D01*
X15404422Y-21946418D01*
X15404419Y-21946417D01*
X15404415Y-21946416D01*
X15269098Y-21919500D01*
X15269095Y-21919500D01*
X15269093Y-21919500D01*
X15131107Y-21919500D01*
X15131105Y-21919500D01*
X15131100Y-21919500D01*
X14995783Y-21946416D01*
X14995777Y-21946418D01*
X14995767Y-21946421D01*
X14995762Y-21946422D01*
X14995744Y-21946429D01*
X14868301Y-21999217D01*
X14868292Y-21999222D01*
X14868275Y-21999232D01*
X14753555Y-22075886D01*
X14753554Y-22075887D01*
X14753548Y-22075892D01*
X14655992Y-22173448D01*
X14655987Y-22173454D01*
X14655986Y-22173455D01*
X14579332Y-22288175D01*
X14579322Y-22288192D01*
X14579317Y-22288201D01*
X14526529Y-22415644D01*
X14526516Y-22415683D01*
X14499600Y-22551000D01*
X14499600Y-23244626D01*
X14494337Y-23262546D01*
X14526516Y-23424315D01*
X14526517Y-23424319D01*
X14526518Y-23424322D01*
X14526521Y-23424332D01*
X14526524Y-23424340D01*
X14526529Y-23424354D01*
X14579317Y-23551797D01*
X14579322Y-23551806D01*
X14579332Y-23551823D01*
X14655986Y-23666543D01*
X14655987Y-23666544D01*
X14655992Y-23666550D01*
X14753548Y-23764106D01*
X14753554Y-23764111D01*
X14753555Y-23764112D01*
X14781062Y-23782492D01*
X14790830Y-23793294D01*
X14800828Y-23798900D01*
X14807315Y-23806073D01*
X14811011Y-23810496D01*
X14814188Y-23814297D01*
X14814568Y-23814751D01*
X14818591Y-23823993D01*
X14821662Y-23827389D01*
X14826928Y-23837295D01*
X14829211Y-23848387D01*
X14842457Y-23878814D01*
X14839381Y-23897798D01*
X14841014Y-23905730D01*
X14835983Y-23918768D01*
X14831283Y-23947784D01*
X14819900Y-23960458D01*
X14815866Y-23970917D01*
X14800260Y-23982328D01*
X14784613Y-23999753D01*
X14782626Y-24000981D01*
X14769753Y-24004637D01*
X14759467Y-24012160D01*
X14738913Y-24013398D01*
X14717437Y-24019500D01*
X7051034Y-24019500D01*
X7016099Y-24014477D01*
X7005245Y-24011290D01*
X6946467Y-23973516D01*
X6917442Y-23909960D01*
X6927385Y-23840803D01*
X6928358Y-23838674D01*
X6972257Y-23787088D01*
X6984230Y-23779088D01*
X7006642Y-23764114D01*
X7006644Y-23764112D01*
X7006645Y-23764112D01*
X7104211Y-23666545D01*
X7104213Y-23666543D01*
X7104214Y-23666542D01*
X7180875Y-23551811D01*
X7233680Y-23424328D01*
X7260600Y-23288993D01*
X7260600Y-22551007D01*
X7260600Y-22551004D01*
X7260600Y-22551001D01*
X7233740Y-22415975D01*
X7233739Y-22415970D01*
X7233440Y-22414469D01*
X7231360Y-22410072D01*
X7180878Y-22288195D01*
X7180871Y-22288182D01*
X7104214Y-22173458D01*
X7104211Y-22173454D01*
X7104206Y-22173448D01*
X7006650Y-22075892D01*
X7006644Y-22075887D01*
X7006643Y-22075886D01*
X6891923Y-21999232D01*
X6891922Y-21999231D01*
X6891917Y-21999228D01*
X6891904Y-21999221D01*
X6891897Y-21999217D01*
X6764454Y-21946429D01*
X6764440Y-21946424D01*
X6764432Y-21946421D01*
X6764422Y-21946418D01*
X6764419Y-21946417D01*
X6764415Y-21946416D01*
X6629098Y-21919500D01*
X6629095Y-21919500D01*
X6629093Y-21919500D01*
X6491107Y-21919500D01*
X6491105Y-21919500D01*
X6491100Y-21919500D01*
X6355783Y-21946416D01*
X6355777Y-21946418D01*
X6355767Y-21946421D01*
X6355762Y-21946422D01*
X6355744Y-21946429D01*
X6228301Y-21999217D01*
X6228292Y-21999222D01*
X6228275Y-21999232D01*
X6113555Y-22075886D01*
X6113554Y-22075887D01*
X6113548Y-22075892D01*
X6015992Y-22173448D01*
X6015987Y-22173454D01*
X6015986Y-22173455D01*
X5939332Y-22288175D01*
X5939322Y-22288192D01*
X5939317Y-22288201D01*
X5886529Y-22415644D01*
X5886516Y-22415683D01*
X5859600Y-22551000D01*
X5859600Y-23244626D01*
X5854337Y-23262546D01*
X5886516Y-23424315D01*
X5886517Y-23424319D01*
X5886518Y-23424322D01*
X5886521Y-23424332D01*
X5886524Y-23424340D01*
X5886529Y-23424354D01*
X5939317Y-23551797D01*
X5939322Y-23551806D01*
X5939332Y-23551823D01*
X6015986Y-23666543D01*
X6015987Y-23666544D01*
X6015992Y-23666550D01*
X6113548Y-23764106D01*
X6113554Y-23764111D01*
X6113555Y-23764112D01*
X6141062Y-23782492D01*
X6150830Y-23793294D01*
X6160828Y-23798900D01*
X6167315Y-23806073D01*
X6171011Y-23810496D01*
X6174188Y-23814297D01*
X6174568Y-23814751D01*
X6178591Y-23823993D01*
X6181662Y-23827389D01*
X6186928Y-23837295D01*
X6189211Y-23848387D01*
X6202457Y-23878814D01*
X6199381Y-23897798D01*
X6201014Y-23905730D01*
X6195983Y-23918768D01*
X6191283Y-23947784D01*
X6179900Y-23960458D01*
X6175866Y-23970917D01*
X6160260Y-23982328D01*
X6144613Y-23999753D01*
X6142626Y-24000981D01*
X6129753Y-24004637D01*
X6119467Y-24012160D01*
X6098913Y-24013398D01*
X6077437Y-24019500D01*
X3790934Y-24019500D01*
X3755999Y-24014477D01*
X3745145Y-24011290D01*
X3686367Y-23973516D01*
X3657342Y-23909960D01*
X3667285Y-23840803D01*
X3668258Y-23838674D01*
X3712157Y-23787088D01*
X3724130Y-23779088D01*
X3746542Y-23764114D01*
X3746544Y-23764112D01*
X3746545Y-23764112D01*
X3844111Y-23666545D01*
X3844113Y-23666543D01*
X3844114Y-23666542D01*
X3920775Y-23551811D01*
X3973580Y-23424328D01*
X4000500Y-23288993D01*
X4000500Y-22551007D01*
X4000500Y-22551004D01*
X4000500Y-22551001D01*
X3973640Y-22415975D01*
X3973639Y-22415970D01*
X3973340Y-22414469D01*
X3971260Y-22410072D01*
X3920778Y-22288195D01*
X3920771Y-22288182D01*
X3844114Y-22173458D01*
X3844111Y-22173454D01*
X3844106Y-22173448D01*
X3746550Y-22075892D01*
X3746544Y-22075887D01*
X3746543Y-22075886D01*
X3631823Y-21999232D01*
X3631822Y-21999231D01*
X3631817Y-21999228D01*
X3631804Y-21999221D01*
X3631797Y-21999217D01*
X3504354Y-21946429D01*
X3504340Y-21946424D01*
X3504332Y-21946421D01*
X3504322Y-21946418D01*
X3504319Y-21946417D01*
X3504315Y-21946416D01*
X3368998Y-21919500D01*
X3368995Y-21919500D01*
X3368993Y-21919500D01*
X3231007Y-21919500D01*
X3231005Y-21919500D01*
X3231000Y-21919500D01*
X3095683Y-21946416D01*
X3095677Y-21946418D01*
X3095667Y-21946421D01*
X3095662Y-21946422D01*
X3095644Y-21946429D01*
X2968201Y-21999217D01*
X2968192Y-21999222D01*
X2968175Y-21999232D01*
X2853455Y-22075886D01*
X2853454Y-22075887D01*
X2853448Y-22075892D01*
X2755892Y-22173448D01*
X2755887Y-22173454D01*
X2755886Y-22173455D01*
X2679232Y-22288175D01*
X2679222Y-22288192D01*
X2679217Y-22288201D01*
X2626429Y-22415644D01*
X2626416Y-22415683D01*
X2599500Y-22551000D01*
X2599500Y-23244626D01*
X2594237Y-23262546D01*
X2626416Y-23424315D01*
X2626417Y-23424319D01*
X2626418Y-23424322D01*
X2626421Y-23424332D01*
X2626424Y-23424340D01*
X2626429Y-23424354D01*
X2679217Y-23551797D01*
X2679222Y-23551806D01*
X2679232Y-23551823D01*
X2755886Y-23666543D01*
X2755887Y-23666544D01*
X2755892Y-23666550D01*
X2853448Y-23764106D01*
X2853454Y-23764111D01*
X2853455Y-23764112D01*
X2880962Y-23782492D01*
X2890730Y-23793294D01*
X2900728Y-23798900D01*
X2907215Y-23806073D01*
X2910911Y-23810496D01*
X2914088Y-23814297D01*
X2914468Y-23814751D01*
X2918491Y-23823993D01*
X2921562Y-23827389D01*
X2926828Y-23837295D01*
X2929111Y-23848387D01*
X2942357Y-23878814D01*
X2939281Y-23897798D01*
X2940914Y-23905730D01*
X2935883Y-23918768D01*
X2931183Y-23947784D01*
X2919800Y-23960458D01*
X2915766Y-23970917D01*
X2900160Y-23982328D01*
X2884513Y-23999753D01*
X2882526Y-24000981D01*
X2869653Y-24004637D01*
X2859367Y-24012160D01*
X2838813Y-24013398D01*
X2817337Y-24019500D01*
X-4849066Y-24019500D01*
X-4884004Y-24014476D01*
X-4894857Y-24011289D01*
X-4953634Y-23973514D01*
X-4982657Y-23909957D01*
X-4972712Y-23840799D01*
X-4972704Y-23840781D01*
X-4971734Y-23838658D01*
X-4927841Y-23787089D01*
X-4893464Y-23764118D01*
X-4893454Y-23764111D01*
X-4893448Y-23764106D01*
X-4795892Y-23666550D01*
X-4795887Y-23666544D01*
X-4795886Y-23666543D01*
X-4719232Y-23551823D01*
X-4719222Y-23551806D01*
X-4719217Y-23551797D01*
X-4666429Y-23424354D01*
X-4666424Y-23424340D01*
X-4666421Y-23424332D01*
X-4666418Y-23424322D01*
X-4666417Y-23424319D01*
X-4666416Y-23424315D01*
X-4639500Y-23288998D01*
X-4639500Y-22595372D01*
X-4634237Y-22577451D01*
X-4666416Y-22415683D01*
X-4666429Y-22415644D01*
X-4719217Y-22288201D01*
X-4719222Y-22288192D01*
X-4719232Y-22288175D01*
X-4795886Y-22173455D01*
X-4795887Y-22173454D01*
X-4795892Y-22173448D01*
X-4893448Y-22075892D01*
X-4893454Y-22075887D01*
X-4893455Y-22075886D01*
X-5008175Y-21999232D01*
X-5008192Y-21999222D01*
X-5008201Y-21999217D01*
X-5135644Y-21946429D01*
X-5135662Y-21946422D01*
X-5135667Y-21946421D01*
X-5135677Y-21946418D01*
X-5135683Y-21946416D01*
X-5271000Y-21919500D01*
X-5271005Y-21919500D01*
X-5271007Y-21919500D01*
X-5408993Y-21919500D01*
X-5408995Y-21919500D01*
X-5408998Y-21919500D01*
X-5544315Y-21946416D01*
X-5544319Y-21946417D01*
X-5544322Y-21946418D01*
X-5544332Y-21946421D01*
X-5544340Y-21946424D01*
X-5544354Y-21946429D01*
X-5671797Y-21999217D01*
X-5671804Y-21999221D01*
X-5671817Y-21999228D01*
X-5671822Y-21999231D01*
X-5671823Y-21999232D01*
X-5786543Y-22075886D01*
X-5786544Y-22075887D01*
X-5786550Y-22075892D01*
X-5884106Y-22173448D01*
X-5884111Y-22173454D01*
X-5884114Y-22173458D01*
X-5960771Y-22288182D01*
X-5960778Y-22288195D01*
X-6013578Y-22415667D01*
X-6013580Y-22415672D01*
X-6013580Y-22415676D01*
X-6013581Y-22415677D01*
X-6013633Y-22415940D01*
X-6013640Y-22415975D01*
X-6040500Y-22551001D01*
X-6040500Y-22551004D01*
X-6040500Y-22551007D01*
X-6040500Y-23288993D01*
X-6013580Y-23424328D01*
X-5960775Y-23551811D01*
X-5884114Y-23666542D01*
X-5786542Y-23764114D01*
X-5764130Y-23779088D01*
X-5759045Y-23782485D01*
X-5749273Y-23793291D01*
X-5739264Y-23798905D01*
X-5732796Y-23806059D01*
X-5725525Y-23814758D01*
X-5721501Y-23824003D01*
X-5718434Y-23827396D01*
X-5713168Y-23837304D01*
X-5710887Y-23848389D01*
X-5697642Y-23878819D01*
X-5700719Y-23897808D01*
X-5699087Y-23905740D01*
X-5704116Y-23918773D01*
X-5708818Y-23947789D01*
X-5720203Y-23960463D01*
X-5724240Y-23970925D01*
X-5739856Y-23982343D01*
X-5755509Y-23999768D01*
X-5757497Y-24000996D01*
X-5770366Y-24004650D01*
X-5780642Y-24012163D01*
X-5801177Y-24013399D01*
X-5822663Y-24019500D01*
X-18771445Y-24019500D01*
X-18806383Y-24014476D01*
X-18816994Y-24011360D01*
X-18875771Y-23973584D01*
X-18904794Y-23910028D01*
X-18894849Y-23840869D01*
X-18859413Y-23795473D01*
X-18857816Y-23794197D01*
X-18856598Y-23793225D01*
X-18837695Y-23780779D01*
X-18834531Y-23779088D01*
X-18602604Y-23655120D01*
X-18601822Y-23654716D01*
X-18601159Y-23654348D01*
X-18447681Y-23551797D01*
X-18331524Y-23474183D01*
X-18080847Y-23268458D01*
X-18080846Y-23268457D01*
X-18080841Y-23268453D01*
X-18080840Y-23268452D01*
X-18080835Y-23268448D01*
X-17851550Y-23039163D01*
X-17645830Y-22788493D01*
X-17645828Y-22788490D01*
X-17645814Y-22788471D01*
X-17465655Y-22518845D01*
X-17465654Y-22518843D01*
X-17465646Y-22518830D01*
X-17407312Y-22409695D01*
X-17312790Y-22232859D01*
X-17312739Y-22232749D01*
X-17312504Y-22232170D01*
X-17188687Y-21933252D01*
X-17094546Y-21622910D01*
X-17094540Y-21622885D01*
X-17031291Y-21304899D01*
X-17031288Y-21304884D01*
X-17031283Y-21304850D01*
X-17004214Y-21030001D01*
X-17004214Y-21030000D01*
X-17000543Y-20992727D01*
X-16999500Y-20982143D01*
X-16999500Y-20657857D01*
X-17012236Y-20528543D01*
X-17029331Y-20354971D01*
X-17029331Y-20354967D01*
X-17031282Y-20335151D01*
X-17031283Y-20335146D01*
X-17056498Y-20208380D01*
X-17094545Y-20017097D01*
X-17094547Y-20017088D01*
X-17094547Y-20017087D01*
X-17188687Y-19706746D01*
X-17256364Y-19543365D01*
X-17263431Y-19526304D01*
X-17281711Y-19482172D01*
X-15200000Y-19482172D01*
X-15200000Y-20180000D01*
X-14515778Y-20180000D01*
X-14448739Y-20199685D01*
X-14402984Y-20252489D01*
X-14393040Y-20321647D01*
X-14396002Y-20336088D01*
X-14400000Y-20351009D01*
X-14400000Y-20508991D01*
X-14396003Y-20523907D01*
X-14397666Y-20593757D01*
X-14436829Y-20651619D01*
X-14501057Y-20679123D01*
X-14515778Y-20680000D01*
X-15200000Y-20680000D01*
X-15200000Y-21377827D01*
X-15199998Y-21377860D01*
X-15197119Y-21404632D01*
X-15193598Y-21437372D01*
X-15193596Y-21437379D01*
X-15143354Y-21572086D01*
X-15143350Y-21572093D01*
X-15057190Y-21687187D01*
X-15057187Y-21687190D01*
X-14942093Y-21773350D01*
X-14942086Y-21773354D01*
X-14807379Y-21823596D01*
X-14807372Y-21823598D01*
X-14783560Y-21826158D01*
X-14747847Y-21829999D01*
X-14747836Y-21830000D01*
X-14747828Y-21830000D01*
X-14050000Y-21830000D01*
X-14050000Y-21145777D01*
X-14030315Y-21078738D01*
X-13977511Y-21032983D01*
X-13908353Y-21023039D01*
X-13893927Y-21025997D01*
X-13878991Y-21030000D01*
X-13721013Y-21030000D01*
X-13721009Y-21030000D01*
X-13706092Y-21026003D01*
X-13636248Y-21027664D01*
X-13578384Y-21066824D01*
X-13550877Y-21131051D01*
X-13550000Y-21145777D01*
X-13550000Y-21830000D01*
X-12852172Y-21830000D01*
X-12852138Y-21829998D01*
X-12799468Y-21824333D01*
X-12792627Y-21823598D01*
X-12792620Y-21823596D01*
X-12657913Y-21773354D01*
X-12657906Y-21773350D01*
X-12542812Y-21687190D01*
X-12542809Y-21687187D01*
X-12542807Y-21687185D01*
X-12456648Y-21572091D01*
X-12456646Y-21572088D01*
X-12406402Y-21437377D01*
X-12406400Y-21437370D01*
X-12400000Y-21377852D01*
X-12400000Y-20680000D01*
X-13084222Y-20680000D01*
X-13151261Y-20660315D01*
X-13197016Y-20607511D01*
X-13208184Y-20552923D01*
X-13207817Y-20538167D01*
X-13200000Y-20508991D01*
X-13200000Y-20351009D01*
X-13202903Y-20340174D01*
X-13202903Y-20340171D01*
X-13203997Y-20336091D01*
X-13203887Y-20331456D01*
X-11300500Y-20331456D01*
X-11300500Y-20331459D01*
X-11300500Y-20338185D01*
X-11300500Y-20528543D01*
X-11292891Y-20566793D01*
X-11262051Y-20721835D01*
X-11186632Y-20903914D01*
X-11077139Y-21067782D01*
X-10937782Y-21207139D01*
X-10773914Y-21316632D01*
X-10591835Y-21392051D01*
X-10555795Y-21399219D01*
X-10528585Y-21404632D01*
X-10528582Y-21404632D01*
X-10420216Y-21426188D01*
X-10398544Y-21430500D01*
X-10201456Y-21430500D01*
X-10201453Y-21430500D01*
X-10006963Y-21391812D01*
X-10002550Y-21389725D01*
X-9973825Y-21377827D01*
X-9826092Y-21316635D01*
X-9826079Y-21316628D01*
X-9662218Y-21207139D01*
X-9662214Y-21207136D01*
X-9662208Y-21207131D01*
X-9522867Y-21067790D01*
X-9522862Y-21067784D01*
X-9522861Y-21067783D01*
X-9413367Y-20903914D01*
X-9413366Y-20903913D01*
X-9406474Y-20887273D01*
X4159500Y-20887273D01*
X4159500Y-20992727D01*
X4186793Y-21094587D01*
X4239520Y-21185913D01*
X4314087Y-21260480D01*
X4405413Y-21313207D01*
X4507273Y-21340500D01*
X4507275Y-21340500D01*
X4612725Y-21340500D01*
X4612727Y-21340500D01*
X4714587Y-21313207D01*
X4805913Y-21260480D01*
X4880480Y-21185913D01*
X4933207Y-21094587D01*
X4960500Y-20992727D01*
X4960500Y-20887273D01*
X4933207Y-20785413D01*
X4880480Y-20694087D01*
X4805913Y-20619520D01*
X4739059Y-20580922D01*
X4714589Y-20566794D01*
X4714588Y-20566793D01*
X4714587Y-20566793D01*
X4612727Y-20539500D01*
X4612726Y-20539500D01*
X4507273Y-20539500D01*
X4405413Y-20566792D01*
X4405408Y-20566795D01*
X4314088Y-20619518D01*
X4314082Y-20619523D01*
X4239523Y-20694082D01*
X4239518Y-20694088D01*
X4186795Y-20785408D01*
X4186792Y-20785413D01*
X4159500Y-20887273D01*
X-9406474Y-20887273D01*
X-9383453Y-20831694D01*
X-9379446Y-20833353D01*
X-9379445Y-20833352D01*
X-9383453Y-20831693D01*
X-9383452Y-20831691D01*
X-9337950Y-20721839D01*
X-9337947Y-20721829D01*
X-9337946Y-20721828D01*
X-9337945Y-20721822D01*
X-9299500Y-20528547D01*
X-9299500Y-20375824D01*
X-9294237Y-20357903D01*
X-9337945Y-20138176D01*
X-9337958Y-20138137D01*
X-9413360Y-19956098D01*
X-9413365Y-19956089D01*
X-9413375Y-19956072D01*
X-9490599Y-19840500D01*
X-9522860Y-19792218D01*
X-9522863Y-19792214D01*
X-9522862Y-19792214D01*
X-9522867Y-19792208D01*
X-9662208Y-19652867D01*
X-9662214Y-19652862D01*
X-9662215Y-19652861D01*
X-9826072Y-19543375D01*
X-9826089Y-19543365D01*
X-9826098Y-19543360D01*
X-10008137Y-19467958D01*
X-10008155Y-19467951D01*
X-10008160Y-19467950D01*
X-10008170Y-19467947D01*
X-10008176Y-19467945D01*
X-10201453Y-19429500D01*
X-10201457Y-19429500D01*
X-10201459Y-19429500D01*
X-10398541Y-19429500D01*
X-10398543Y-19429500D01*
X-10398546Y-19429500D01*
X-10591822Y-19467945D01*
X-10591826Y-19467946D01*
X-10591829Y-19467947D01*
X-10591839Y-19467950D01*
X-10591847Y-19467953D01*
X-10591861Y-19467958D01*
X-10773900Y-19543360D01*
X-10773907Y-19543364D01*
X-10773920Y-19543371D01*
X-10773925Y-19543374D01*
X-10773926Y-19543375D01*
X-10937783Y-19652861D01*
X-10937784Y-19652862D01*
X-10937790Y-19652867D01*
X-11077131Y-19792208D01*
X-11077136Y-19792214D01*
X-11077139Y-19792218D01*
X-11186628Y-19956079D01*
X-11186633Y-19956089D01*
X-11186638Y-19956098D01*
X-11230334Y-20061592D01*
X-11262051Y-20138165D01*
X-11262051Y-20138169D01*
X-11262052Y-20138170D01*
X-11300500Y-20331456D01*
X-13203887Y-20331456D01*
X-13202333Y-20266241D01*
X-13163170Y-20208380D01*
X-13098941Y-20180877D01*
X-13084222Y-20180000D01*
X-12400000Y-20180000D01*
X-12400000Y-19482146D01*
X-12406400Y-19422628D01*
X-12406402Y-19422621D01*
X-12456646Y-19287910D01*
X-12456648Y-19287907D01*
X-12542807Y-19172813D01*
X-12542813Y-19172807D01*
X-12657907Y-19086648D01*
X-12657910Y-19086646D01*
X-12657909Y-19086646D01*
X-12792621Y-19036402D01*
X-12792628Y-19036400D01*
X-12852146Y-19030000D01*
X-12852155Y-19030000D01*
X-13550000Y-19030000D01*
X-13550000Y-19714222D01*
X-13569685Y-19781261D01*
X-13622489Y-19827016D01*
X-13691647Y-19836960D01*
X-13706088Y-19833997D01*
X-13721009Y-19830000D01*
X-13878990Y-19830000D01*
X-13878991Y-19830000D01*
X-13893907Y-19833996D01*
X-13963757Y-19832334D01*
X-14021619Y-19793171D01*
X-14049123Y-19728943D01*
X-14050000Y-19714222D01*
X-14050000Y-19030000D01*
X-14747844Y-19030000D01*
X-14747852Y-19030000D01*
X-14807370Y-19036400D01*
X-14807377Y-19036402D01*
X-14841414Y-19049097D01*
X-14942086Y-19086645D01*
X-14942093Y-19086649D01*
X-14988181Y-19121151D01*
X-15057185Y-19172807D01*
X-15057187Y-19172809D01*
X-15057190Y-19172812D01*
X-15143350Y-19287906D01*
X-15143354Y-19287913D01*
X-15193390Y-19422068D01*
X-15193596Y-19422621D01*
X-15193598Y-19422628D01*
X-15199998Y-19482138D01*
X-15199998Y-19482146D01*
X-15199999Y-19482155D01*
X-15200000Y-19482172D01*
X-17281711Y-19482172D01*
X-17305478Y-19424793D01*
X-17312505Y-19407827D01*
X-17312740Y-19407247D01*
X-17312790Y-19407139D01*
X-17465641Y-19121178D01*
X-17465652Y-19121159D01*
X-17465655Y-19121153D01*
X-17645814Y-18851527D01*
X-17645828Y-18851508D01*
X-17645830Y-18851505D01*
X-17851550Y-18600835D01*
X-18080835Y-18371550D01*
X-18185456Y-18285692D01*
X-18185462Y-18285686D01*
X-18294836Y-18195925D01*
X-5990500Y-18195925D01*
X-5990500Y-18195928D01*
X-5990500Y-18195931D01*
X-5990500Y-19224069D01*
X-5965501Y-19349744D01*
X-5916465Y-19468127D01*
X-5845276Y-19574669D01*
X-5754669Y-19665276D01*
X-5648127Y-19736465D01*
X-5529744Y-19785501D01*
X-5507346Y-19789956D01*
X-5495997Y-19792214D01*
X-5495996Y-19792214D01*
X-5450033Y-19801357D01*
X-5404072Y-19810500D01*
X-5275928Y-19810500D01*
X-5275926Y-19810500D01*
X-5149055Y-19785262D01*
X-5144651Y-19783179D01*
X-5031873Y-19736465D01*
X-5031872Y-19736464D01*
X-5031869Y-19736463D01*
X-4925328Y-19665274D01*
X-4925327Y-19665273D01*
X-4925321Y-19665268D01*
X-4834730Y-19574677D01*
X-4834725Y-19574671D01*
X-4834724Y-19574670D01*
X-4772919Y-19482172D01*
X-4763538Y-19468133D01*
X-4763533Y-19468123D01*
X-4732248Y-19392596D01*
X-4714241Y-19362248D01*
X-4707144Y-19353441D01*
X-4649752Y-19313592D01*
X-4579927Y-19311098D01*
X-4519841Y-19346746D01*
X-4517338Y-19349434D01*
X-4488319Y-19401833D01*
X-4469577Y-19471784D01*
X-4469574Y-19471788D01*
X-4469574Y-19471790D01*
X-4410177Y-19574669D01*
X-4390520Y-19608716D01*
X-4278716Y-19720520D01*
X-4141784Y-19799577D01*
X-3989057Y-19840500D01*
X-3989055Y-19840500D01*
X-3830945Y-19840500D01*
X-3830943Y-19840500D01*
X-3678216Y-19799577D01*
X-3661962Y-19790193D01*
X-3653836Y-19785502D01*
X-3653837Y-19785502D01*
X-3653835Y-19785501D01*
X-3541290Y-19720524D01*
X-3541286Y-19720521D01*
X-3541284Y-19720520D01*
X-3429480Y-19608716D01*
X-3429479Y-19608714D01*
X-3429475Y-19608709D01*
X-3429474Y-19608707D01*
X-3428975Y-19608015D01*
X-3427629Y-19605513D01*
X-3350422Y-19471783D01*
X-3327245Y-19385282D01*
X-3309500Y-19319057D01*
X-3309500Y-19160943D01*
X1269500Y-19160943D01*
X1269500Y-19319057D01*
X1277721Y-19349738D01*
X1299766Y-19432012D01*
X1310423Y-19471782D01*
X1310423Y-19471783D01*
X1310426Y-19471790D01*
X1388446Y-19606928D01*
X1389277Y-19608461D01*
X1389398Y-19608634D01*
X1501287Y-19720523D01*
X1501967Y-19721013D01*
X1504461Y-19722355D01*
X1613835Y-19785501D01*
X1613837Y-19785502D01*
X1613836Y-19785502D01*
X1621962Y-19790193D01*
X1638216Y-19799577D01*
X1790943Y-19840500D01*
X1790945Y-19840500D01*
X1949055Y-19840500D01*
X1949057Y-19840500D01*
X2101784Y-19799577D01*
X2238716Y-19720520D01*
X2350520Y-19608716D01*
X2429577Y-19471784D01*
X2446480Y-19408697D01*
X2460369Y-19376265D01*
X2466259Y-19366601D01*
X2517960Y-19319606D01*
X2586863Y-19308021D01*
X2651085Y-19335523D01*
X2653917Y-19337862D01*
X2689526Y-19386025D01*
X2696701Y-19403346D01*
X2723535Y-19468128D01*
X2723536Y-19468130D01*
X2794724Y-19574670D01*
X2794725Y-19574671D01*
X2794730Y-19574677D01*
X2885321Y-19665268D01*
X2885327Y-19665273D01*
X2885331Y-19665276D01*
X2991866Y-19736461D01*
X2991872Y-19736464D01*
X2991873Y-19736465D01*
X3105362Y-19783473D01*
X3105947Y-19783724D01*
X3106141Y-19783884D01*
X3109055Y-19785262D01*
X3235926Y-19810500D01*
X3364071Y-19810500D01*
X3364072Y-19810500D01*
X3410033Y-19801357D01*
X3455996Y-19792214D01*
X3455997Y-19792214D01*
X3467346Y-19789956D01*
X3489744Y-19785501D01*
X3608127Y-19736465D01*
X3714669Y-19665276D01*
X3805276Y-19574669D01*
X3876465Y-19468127D01*
X3925501Y-19349744D01*
X3950500Y-19224069D01*
X3950500Y-19197622D01*
X5904337Y-19197622D01*
X5934594Y-19349726D01*
X5934595Y-19349732D01*
X5934602Y-19349753D01*
X5983629Y-19468118D01*
X5983634Y-19468128D01*
X6054824Y-19574670D01*
X6054825Y-19574671D01*
X6054830Y-19574677D01*
X6145421Y-19665268D01*
X6145427Y-19665273D01*
X6145431Y-19665276D01*
X6251966Y-19736461D01*
X6251972Y-19736464D01*
X6251973Y-19736465D01*
X6365462Y-19783473D01*
X6366047Y-19783724D01*
X6366241Y-19783884D01*
X6369155Y-19785262D01*
X6496026Y-19810500D01*
X6624171Y-19810500D01*
X6624172Y-19810500D01*
X6670133Y-19801357D01*
X6716096Y-19792214D01*
X6716097Y-19792214D01*
X6727446Y-19789956D01*
X6749844Y-19785501D01*
X6868227Y-19736465D01*
X6974769Y-19665276D01*
X7065376Y-19574669D01*
X7136565Y-19468127D01*
X7155412Y-19422628D01*
X7160975Y-19409199D01*
X7166020Y-19397017D01*
X7167854Y-19392587D01*
X7185857Y-19362248D01*
X7192960Y-19353433D01*
X7250353Y-19313590D01*
X7320179Y-19311099D01*
X7380264Y-19346752D01*
X7381970Y-19348585D01*
X7382775Y-19349450D01*
X7411780Y-19401837D01*
X7422774Y-19442868D01*
X7430524Y-19471789D01*
X7430547Y-19471843D01*
X7431033Y-19472668D01*
X7506723Y-19603772D01*
X7506746Y-19603809D01*
X7509575Y-19608709D01*
X7509579Y-19608714D01*
X7509580Y-19608716D01*
X7510149Y-19609285D01*
X7621387Y-19720523D01*
X7622067Y-19721013D01*
X7624561Y-19722355D01*
X7733935Y-19785501D01*
X7733937Y-19785502D01*
X7733936Y-19785502D01*
X7742062Y-19790193D01*
X7758316Y-19799577D01*
X7911043Y-19840500D01*
X7911045Y-19840500D01*
X8069155Y-19840500D01*
X8069157Y-19840500D01*
X8221884Y-19799577D01*
X8358816Y-19720520D01*
X8470620Y-19608716D01*
X8549677Y-19471784D01*
X8590600Y-19319057D01*
X8590600Y-19160943D01*
X13169600Y-19160943D01*
X13169600Y-19319057D01*
X13177821Y-19349738D01*
X13199866Y-19432012D01*
X13210523Y-19471782D01*
X13210523Y-19471783D01*
X13210526Y-19471790D01*
X13288546Y-19606928D01*
X13289377Y-19608461D01*
X13289498Y-19608634D01*
X13401387Y-19720523D01*
X13402067Y-19721013D01*
X13404561Y-19722355D01*
X13513935Y-19785501D01*
X13513937Y-19785502D01*
X13513936Y-19785502D01*
X13522062Y-19790193D01*
X13538316Y-19799577D01*
X13691043Y-19840500D01*
X13691045Y-19840500D01*
X13849155Y-19840500D01*
X13849157Y-19840500D01*
X14001884Y-19799577D01*
X14138816Y-19720520D01*
X14250620Y-19608716D01*
X14329677Y-19471784D01*
X14346580Y-19408697D01*
X14360469Y-19376265D01*
X14366359Y-19366601D01*
X14418060Y-19319606D01*
X14486963Y-19308021D01*
X14551185Y-19335523D01*
X14554017Y-19337862D01*
X14589626Y-19386025D01*
X14596801Y-19403346D01*
X14623635Y-19468128D01*
X14623636Y-19468130D01*
X14694824Y-19574670D01*
X14694825Y-19574671D01*
X14694830Y-19574677D01*
X14785421Y-19665268D01*
X14785427Y-19665273D01*
X14785431Y-19665276D01*
X14891966Y-19736461D01*
X14891972Y-19736464D01*
X14891973Y-19736465D01*
X15005462Y-19783473D01*
X15006047Y-19783724D01*
X15006241Y-19783884D01*
X15009155Y-19785262D01*
X15136026Y-19810500D01*
X15264171Y-19810500D01*
X15264172Y-19810500D01*
X15310133Y-19801357D01*
X15356096Y-19792214D01*
X15356097Y-19792214D01*
X15367446Y-19789956D01*
X15389844Y-19785501D01*
X15508227Y-19736465D01*
X15614769Y-19665276D01*
X15705376Y-19574669D01*
X15776565Y-19468127D01*
X15825601Y-19349744D01*
X15850600Y-19224069D01*
X15850600Y-18195931D01*
X15850600Y-18195928D01*
X15850600Y-18195925D01*
X15825395Y-18069220D01*
X15823824Y-18065947D01*
X15823573Y-18065362D01*
X15776565Y-17951873D01*
X15776564Y-17951872D01*
X15776561Y-17951866D01*
X15705376Y-17845331D01*
X15705373Y-17845327D01*
X15705368Y-17845321D01*
X15614777Y-17754730D01*
X15614771Y-17754725D01*
X15614770Y-17754724D01*
X15508227Y-17683534D01*
X15508228Y-17683534D01*
X15508218Y-17683529D01*
X15389853Y-17634502D01*
X15389833Y-17634495D01*
X15389825Y-17634493D01*
X15264174Y-17609500D01*
X15264171Y-17609500D01*
X15264169Y-17609500D01*
X15136031Y-17609500D01*
X15136029Y-17609500D01*
X15136026Y-17609500D01*
X15010373Y-17634493D01*
X15010365Y-17634495D01*
X15010345Y-17634502D01*
X14891980Y-17683529D01*
X14891970Y-17683534D01*
X14785428Y-17754724D01*
X14785427Y-17754725D01*
X14785421Y-17754730D01*
X14694830Y-17845321D01*
X14694825Y-17845327D01*
X14694824Y-17845328D01*
X14623634Y-17951870D01*
X14623629Y-17951880D01*
X14574602Y-18070245D01*
X14574595Y-18070265D01*
X14574593Y-18070273D01*
X14549600Y-18195923D01*
X14549600Y-18908529D01*
X14545349Y-18924227D01*
X14545950Y-18938394D01*
X14544576Y-18943467D01*
X14541389Y-18954320D01*
X14534153Y-18965577D01*
X14532661Y-18971091D01*
X14527483Y-18979952D01*
X14520960Y-18986106D01*
X14503614Y-19013097D01*
X14481795Y-19023060D01*
X14476664Y-19027902D01*
X14467388Y-19029639D01*
X14440057Y-19042120D01*
X14417823Y-19038922D01*
X14407988Y-19040765D01*
X14395588Y-19035725D01*
X14370899Y-19032175D01*
X14370888Y-19032170D01*
X14370332Y-19031916D01*
X14352449Y-19018192D01*
X14343261Y-19014458D01*
X14338177Y-19007239D01*
X14326238Y-18998077D01*
X14324803Y-18996339D01*
X14313035Y-18979389D01*
X14250628Y-18871296D01*
X14250621Y-18871286D01*
X14250616Y-18871280D01*
X14250610Y-18871273D01*
X14138822Y-18759485D01*
X14138820Y-18759484D01*
X14138817Y-18759481D01*
X14138809Y-18759475D01*
X14112247Y-18744140D01*
X14001907Y-18680435D01*
X14001883Y-18680422D01*
X13890079Y-18650464D01*
X13849157Y-18639500D01*
X13849156Y-18639500D01*
X13691043Y-18639500D01*
X13538318Y-18680422D01*
X13538311Y-18680424D01*
X13538310Y-18680425D01*
X13538300Y-18680430D01*
X13401398Y-18759470D01*
X13401394Y-18759472D01*
X13401390Y-18759475D01*
X13401382Y-18759481D01*
X13401378Y-18759484D01*
X13401376Y-18759485D01*
X13289585Y-18871276D01*
X13289584Y-18871278D01*
X13289583Y-18871280D01*
X13289581Y-18871282D01*
X13289575Y-18871290D01*
X13289572Y-18871294D01*
X13289570Y-18871298D01*
X13210530Y-19008200D01*
X13210525Y-19008210D01*
X13210524Y-19008211D01*
X13210522Y-19008218D01*
X13201438Y-19042120D01*
X13169600Y-19160943D01*
X8590600Y-19160943D01*
X8549677Y-19008216D01*
X8543823Y-18998077D01*
X8525834Y-18966917D01*
X8492124Y-18908529D01*
X8470624Y-18871290D01*
X8470618Y-18871282D01*
X8470616Y-18871280D01*
X8470613Y-18871276D01*
X8358822Y-18759485D01*
X8358820Y-18759484D01*
X8358817Y-18759481D01*
X8358809Y-18759475D01*
X8332247Y-18744140D01*
X8221907Y-18680435D01*
X8221883Y-18680422D01*
X8110079Y-18650464D01*
X8069157Y-18639500D01*
X8069156Y-18639500D01*
X7911043Y-18639500D01*
X7758318Y-18680422D01*
X7758311Y-18680424D01*
X7758310Y-18680425D01*
X7758300Y-18680430D01*
X7621398Y-18759470D01*
X7621394Y-18759472D01*
X7621390Y-18759475D01*
X7621382Y-18759481D01*
X7621378Y-18759484D01*
X7621376Y-18759485D01*
X7509588Y-18871273D01*
X7509582Y-18871280D01*
X7509577Y-18871286D01*
X7509570Y-18871296D01*
X7450900Y-18972918D01*
X7439379Y-18984381D01*
X7432829Y-18996934D01*
X7429086Y-19000659D01*
X7420902Y-19008463D01*
X7409023Y-19014587D01*
X7404978Y-19018613D01*
X7396065Y-19023700D01*
X7387325Y-19025774D01*
X7358801Y-19040481D01*
X7334952Y-19038204D01*
X7328084Y-19039835D01*
X7319162Y-19036697D01*
X7289247Y-19033842D01*
X7271602Y-19019971D01*
X7262172Y-19016655D01*
X7253954Y-19006098D01*
X7234344Y-18990682D01*
X7233987Y-18990181D01*
X7225366Y-18969370D01*
X7219255Y-18961519D01*
X7218455Y-18952687D01*
X7212684Y-18938754D01*
X7212310Y-18936532D01*
X7210600Y-18916006D01*
X7210600Y-18195925D01*
X7185395Y-18069220D01*
X7183824Y-18065947D01*
X7183573Y-18065362D01*
X7136565Y-17951873D01*
X7136564Y-17951872D01*
X7136561Y-17951866D01*
X7065376Y-17845331D01*
X7065373Y-17845327D01*
X7065368Y-17845321D01*
X6974777Y-17754730D01*
X6974771Y-17754725D01*
X6974770Y-17754724D01*
X6868227Y-17683534D01*
X6868228Y-17683534D01*
X6868218Y-17683529D01*
X6749853Y-17634502D01*
X6749833Y-17634495D01*
X6749825Y-17634493D01*
X6624174Y-17609500D01*
X6624171Y-17609500D01*
X6624169Y-17609500D01*
X6496031Y-17609500D01*
X6496029Y-17609500D01*
X6496026Y-17609500D01*
X6370373Y-17634493D01*
X6370365Y-17634495D01*
X6370345Y-17634502D01*
X6251980Y-17683529D01*
X6251970Y-17683534D01*
X6145428Y-17754724D01*
X6145427Y-17754725D01*
X6145421Y-17754730D01*
X6054830Y-17845321D01*
X6054825Y-17845327D01*
X6054824Y-17845328D01*
X5983634Y-17951870D01*
X5983629Y-17951880D01*
X5934602Y-18070245D01*
X5934595Y-18070265D01*
X5934593Y-18070273D01*
X5909600Y-18195923D01*
X5909600Y-19179702D01*
X5904337Y-19197622D01*
X3950500Y-19197622D01*
X3950500Y-18195931D01*
X3950500Y-18195928D01*
X3950500Y-18195925D01*
X3925295Y-18069220D01*
X3923724Y-18065947D01*
X3923473Y-18065362D01*
X3876465Y-17951873D01*
X3876464Y-17951872D01*
X3876461Y-17951866D01*
X3805276Y-17845331D01*
X3805273Y-17845327D01*
X3805268Y-17845321D01*
X3714677Y-17754730D01*
X3714671Y-17754725D01*
X3714670Y-17754724D01*
X3608127Y-17683534D01*
X3608128Y-17683534D01*
X3608118Y-17683529D01*
X3489753Y-17634502D01*
X3489733Y-17634495D01*
X3489725Y-17634493D01*
X3364074Y-17609500D01*
X3364071Y-17609500D01*
X3364069Y-17609500D01*
X3235931Y-17609500D01*
X3235929Y-17609500D01*
X3235926Y-17609500D01*
X3110273Y-17634493D01*
X3110265Y-17634495D01*
X3110245Y-17634502D01*
X2991880Y-17683529D01*
X2991870Y-17683534D01*
X2885328Y-17754724D01*
X2885327Y-17754725D01*
X2885321Y-17754730D01*
X2794730Y-17845321D01*
X2794725Y-17845327D01*
X2794724Y-17845328D01*
X2723534Y-17951870D01*
X2723529Y-17951880D01*
X2674502Y-18070245D01*
X2674495Y-18070265D01*
X2674493Y-18070273D01*
X2649500Y-18195923D01*
X2649500Y-18908529D01*
X2645249Y-18924227D01*
X2645850Y-18938394D01*
X2644476Y-18943467D01*
X2641289Y-18954320D01*
X2634053Y-18965577D01*
X2632561Y-18971091D01*
X2627383Y-18979952D01*
X2620860Y-18986106D01*
X2603514Y-19013097D01*
X2581695Y-19023060D01*
X2576564Y-19027902D01*
X2567288Y-19029639D01*
X2539957Y-19042120D01*
X2517723Y-19038922D01*
X2507888Y-19040765D01*
X2495488Y-19035725D01*
X2470799Y-19032175D01*
X2470788Y-19032170D01*
X2470232Y-19031916D01*
X2452349Y-19018192D01*
X2443161Y-19014458D01*
X2438077Y-19007239D01*
X2426138Y-18998077D01*
X2424703Y-18996339D01*
X2412935Y-18979389D01*
X2350528Y-18871296D01*
X2350521Y-18871286D01*
X2350516Y-18871280D01*
X2350510Y-18871273D01*
X2238722Y-18759485D01*
X2238720Y-18759484D01*
X2238717Y-18759481D01*
X2238709Y-18759475D01*
X2212147Y-18744140D01*
X2101807Y-18680435D01*
X2101783Y-18680422D01*
X1989979Y-18650464D01*
X1949057Y-18639500D01*
X1949056Y-18639500D01*
X1790943Y-18639500D01*
X1638218Y-18680422D01*
X1638211Y-18680424D01*
X1638210Y-18680425D01*
X1638200Y-18680430D01*
X1501298Y-18759470D01*
X1501294Y-18759472D01*
X1501290Y-18759475D01*
X1501282Y-18759481D01*
X1501278Y-18759484D01*
X1501276Y-18759485D01*
X1389485Y-18871276D01*
X1389484Y-18871278D01*
X1389483Y-18871280D01*
X1389481Y-18871282D01*
X1389475Y-18871290D01*
X1389472Y-18871294D01*
X1389470Y-18871298D01*
X1310430Y-19008200D01*
X1310425Y-19008210D01*
X1310424Y-19008211D01*
X1310422Y-19008218D01*
X1301338Y-19042120D01*
X1269500Y-19160943D01*
X-3309500Y-19160943D01*
X-3341338Y-19042120D01*
X-3350422Y-19008218D01*
X-3350424Y-19008211D01*
X-3350425Y-19008210D01*
X-3350430Y-19008200D01*
X-3429470Y-18871298D01*
X-3429472Y-18871294D01*
X-3429475Y-18871290D01*
X-3429481Y-18871282D01*
X-3429483Y-18871280D01*
X-3429484Y-18871278D01*
X-3429485Y-18871276D01*
X-3541276Y-18759485D01*
X-3541278Y-18759484D01*
X-3541282Y-18759481D01*
X-3541290Y-18759475D01*
X-3541294Y-18759472D01*
X-3541298Y-18759470D01*
X-3678200Y-18680430D01*
X-3678210Y-18680425D01*
X-3678211Y-18680424D01*
X-3678218Y-18680422D01*
X-3830943Y-18639500D01*
X-3989057Y-18639500D01*
X-4029979Y-18650464D01*
X-4141783Y-18680422D01*
X-4141807Y-18680435D01*
X-4252147Y-18744140D01*
X-4278709Y-18759475D01*
X-4278717Y-18759481D01*
X-4278720Y-18759484D01*
X-4278722Y-18759485D01*
X-4390510Y-18871273D01*
X-4390514Y-18871278D01*
X-4390518Y-18871282D01*
X-4390522Y-18871287D01*
X-4449198Y-18972918D01*
X-4460719Y-18984382D01*
X-4467270Y-18996934D01*
X-4471012Y-19000658D01*
X-4477913Y-19007239D01*
X-4479197Y-19008463D01*
X-4491074Y-19014587D01*
X-4495121Y-19018613D01*
X-4504036Y-19023701D01*
X-4512774Y-19025774D01*
X-4541298Y-19040481D01*
X-4565147Y-19038204D01*
X-4572017Y-19039835D01*
X-4580938Y-19036697D01*
X-4610852Y-19033842D01*
X-4628495Y-19019971D01*
X-4637930Y-19016654D01*
X-4646149Y-19006094D01*
X-4665755Y-18990682D01*
X-4666112Y-18990181D01*
X-4674741Y-18969360D01*
X-4680846Y-18961518D01*
X-4681642Y-18952711D01*
X-4687407Y-18938804D01*
X-4687780Y-18936588D01*
X-4689500Y-18916006D01*
X-4689500Y-18240296D01*
X-4684238Y-18222375D01*
X-4714494Y-18070272D01*
X-4714495Y-18070266D01*
X-4714502Y-18070245D01*
X-4763529Y-17951880D01*
X-4763534Y-17951870D01*
X-4834724Y-17845328D01*
X-4834725Y-17845327D01*
X-4834730Y-17845321D01*
X-4925321Y-17754730D01*
X-4925327Y-17754725D01*
X-4925328Y-17754724D01*
X-5031871Y-17683534D01*
X-5031870Y-17683534D01*
X-5031880Y-17683529D01*
X-5150245Y-17634502D01*
X-5150265Y-17634495D01*
X-5150273Y-17634493D01*
X-5275926Y-17609500D01*
X-5275929Y-17609500D01*
X-5275931Y-17609500D01*
X-5404069Y-17609500D01*
X-5404071Y-17609500D01*
X-5404074Y-17609500D01*
X-5529725Y-17634493D01*
X-5529733Y-17634495D01*
X-5529753Y-17634502D01*
X-5648118Y-17683529D01*
X-5648128Y-17683534D01*
X-5754670Y-17754724D01*
X-5754671Y-17754725D01*
X-5754677Y-17754730D01*
X-5845268Y-17845321D01*
X-5845273Y-17845327D01*
X-5845276Y-17845331D01*
X-5916461Y-17951866D01*
X-5916464Y-17951872D01*
X-5916465Y-17951873D01*
X-5963473Y-18065362D01*
X-5963724Y-18065947D01*
X-5963884Y-18066141D01*
X-5965262Y-18069055D01*
X-5990500Y-18195925D01*
X-18294836Y-18195925D01*
X-18331504Y-18165832D01*
X-18331513Y-18165825D01*
X-18331518Y-18165821D01*
X-18331532Y-18165811D01*
X-18480698Y-18066141D01*
X-18601153Y-17985655D01*
X-18601159Y-17985652D01*
X-18601178Y-17985641D01*
X-18887139Y-17832790D01*
X-18887253Y-17832738D01*
X-18887828Y-17832504D01*
X-19186746Y-17708687D01*
X-19497071Y-17614551D01*
X-19497097Y-17614545D01*
X-19666933Y-17580764D01*
X-19666938Y-17580760D01*
X-19666939Y-17580762D01*
X-19667058Y-17580738D01*
X-19667061Y-17580738D01*
X-19667066Y-17580737D01*
X-19667065Y-17580736D01*
X-19815100Y-17551291D01*
X-19815114Y-17551288D01*
X-19815148Y-17551283D01*
X-20065099Y-17526666D01*
X-20137857Y-17519500D01*
X-20137860Y-17519500D01*
X-20462140Y-17519500D01*
X-20462143Y-17519500D01*
X-20480083Y-17521266D01*
X-20540812Y-17527247D01*
X-20540812Y-17527248D01*
X-20784850Y-17551283D01*
X-20784884Y-17551288D01*
X-20784899Y-17551291D01*
X-21102885Y-17614540D01*
X-21102910Y-17614546D01*
X-21413252Y-17708687D01*
X-21712170Y-17832504D01*
X-21712749Y-17832739D01*
X-21712844Y-17832784D01*
X-21712849Y-17832786D01*
X-21712854Y-17832788D01*
X-21833639Y-17897349D01*
X-21998814Y-17985637D01*
X-21998821Y-17985641D01*
X-21998830Y-17985646D01*
X-21998837Y-17985650D01*
X-21998842Y-17985653D01*
X-21998848Y-17985657D01*
X-21998856Y-17985662D01*
X-22094012Y-18049244D01*
X-22268476Y-18165817D01*
X-22268480Y-18165820D01*
X-22268487Y-18165825D01*
X-22268497Y-18165832D01*
X-22268788Y-18166050D01*
X-22269786Y-18166892D01*
X-22305170Y-18195931D01*
X-22519163Y-18371550D01*
X-22748447Y-18600834D01*
X-22748516Y-18600911D01*
X-22748947Y-18601443D01*
X-22954183Y-18851524D01*
X-23134347Y-19121158D01*
X-23189354Y-19224069D01*
X-23256523Y-19349732D01*
X-23257737Y-19352004D01*
X-23257739Y-19352006D01*
X-23278638Y-19380448D01*
X-23286387Y-19388336D01*
X-23301954Y-19397017D01*
X-23306700Y-19401848D01*
X-23313305Y-19403346D01*
X-23347410Y-19422365D01*
X-23417143Y-19418000D01*
X-23473447Y-19376628D01*
X-23496771Y-19324020D01*
X-23497427Y-19320478D01*
X-23499500Y-19297896D01*
X-23499500Y-17467273D01*
X-12100500Y-17467273D01*
X-12100500Y-17572727D01*
X-12073207Y-17674587D01*
X-12020480Y-17765913D01*
X-11945913Y-17840480D01*
X-11854587Y-17893207D01*
X-11752727Y-17920500D01*
X-11752725Y-17920500D01*
X-11647275Y-17920500D01*
X-11647273Y-17920500D01*
X-11545413Y-17893207D01*
X-11454087Y-17840480D01*
X-11379520Y-17765913D01*
X-11331961Y-17683538D01*
X-11326794Y-17674589D01*
X-11326793Y-17674586D01*
X-11316052Y-17634502D01*
X-11299500Y-17572727D01*
X-11299500Y-17467273D01*
X-11326792Y-17365413D01*
X-11326795Y-17365408D01*
X-11379518Y-17274088D01*
X-11379523Y-17274082D01*
X-11454082Y-17199523D01*
X-11454088Y-17199518D01*
X-11545408Y-17146795D01*
X-11545413Y-17146792D01*
X-11647273Y-17119500D01*
X-11752727Y-17119500D01*
X-11854587Y-17146793D01*
X-11854588Y-17146793D01*
X-11854589Y-17146794D01*
X-11879059Y-17160922D01*
X-11945913Y-17199520D01*
X-12020480Y-17274087D01*
X-12073207Y-17365413D01*
X-12100500Y-17467273D01*
X-23499500Y-17467273D01*
X-23499500Y-16737273D01*
X-5150500Y-16737273D01*
X-5150500Y-16842727D01*
X-5123207Y-16944587D01*
X-5070480Y-17035913D01*
X-4995913Y-17110480D01*
X-4904587Y-17163207D01*
X-4802727Y-17190500D01*
X-4802725Y-17190500D01*
X-4697275Y-17190500D01*
X-4697273Y-17190500D01*
X-4595413Y-17163207D01*
X-4504087Y-17110480D01*
X-4429520Y-17035913D01*
X-4376793Y-16944587D01*
X-4349500Y-16842727D01*
X-4349500Y-16737273D01*
X-4376792Y-16635413D01*
X-4376795Y-16635408D01*
X-4429518Y-16544088D01*
X-4429523Y-16544082D01*
X-4504082Y-16469523D01*
X-4504088Y-16469518D01*
X-4595408Y-16416795D01*
X-4595413Y-16416792D01*
X-4697273Y-16389500D01*
X-4802727Y-16389500D01*
X-4904587Y-16416793D01*
X-4904588Y-16416793D01*
X-4904589Y-16416794D01*
X-4929059Y-16430922D01*
X-4995913Y-16469520D01*
X-5070480Y-16544087D01*
X-5123207Y-16635413D01*
X-5150500Y-16737273D01*
X-23499500Y-16737273D01*
X-23499500Y-16157273D01*
X14859500Y-16157273D01*
X14859500Y-16262727D01*
X14886793Y-16364587D01*
X14939520Y-16455913D01*
X15014087Y-16530480D01*
X15105413Y-16583207D01*
X15207273Y-16610500D01*
X15207275Y-16610500D01*
X15312725Y-16610500D01*
X15312727Y-16610500D01*
X15414587Y-16583207D01*
X15505913Y-16530480D01*
X15580480Y-16455913D01*
X15633207Y-16364587D01*
X15660500Y-16262727D01*
X15660500Y-16157273D01*
X15633207Y-16055413D01*
X15580480Y-15964087D01*
X15505913Y-15889520D01*
X15430383Y-15845913D01*
X15414589Y-15836794D01*
X15414588Y-15836793D01*
X15414587Y-15836793D01*
X15312727Y-15809500D01*
X15312726Y-15809500D01*
X15207273Y-15809500D01*
X15105413Y-15836792D01*
X15105408Y-15836795D01*
X15014088Y-15889518D01*
X15014082Y-15889523D01*
X14939523Y-15964082D01*
X14939518Y-15964088D01*
X14886795Y-16055408D01*
X14886792Y-16055413D01*
X14859500Y-16157273D01*
X-23499500Y-16157273D01*
X-23499500Y-15547273D01*
X1199500Y-15547273D01*
X1199500Y-15652727D01*
X1226793Y-15754587D01*
X1279520Y-15845913D01*
X1354087Y-15920480D01*
X1445413Y-15973207D01*
X1547273Y-16000500D01*
X1547275Y-16000500D01*
X1652725Y-16000500D01*
X1652727Y-16000500D01*
X1754587Y-15973207D01*
X1845913Y-15920480D01*
X1920480Y-15845913D01*
X1973207Y-15754587D01*
X2000500Y-15652727D01*
X2000500Y-15547273D01*
X1973207Y-15445413D01*
X1920480Y-15354087D01*
X1845913Y-15279520D01*
X1790059Y-15247273D01*
X9124500Y-15247273D01*
X9124500Y-15352727D01*
X9151793Y-15454587D01*
X9204520Y-15545913D01*
X9279087Y-15620480D01*
X9370413Y-15673207D01*
X9472273Y-15700500D01*
X9472275Y-15700500D01*
X9577725Y-15700500D01*
X9577727Y-15700500D01*
X9679587Y-15673207D01*
X9770913Y-15620480D01*
X9845480Y-15545913D01*
X9898207Y-15454587D01*
X9925500Y-15352727D01*
X9925500Y-15247273D01*
X9898207Y-15145413D01*
X9845480Y-15054087D01*
X9770913Y-14979520D01*
X9704059Y-14940922D01*
X9679589Y-14926794D01*
X9679588Y-14926793D01*
X9679587Y-14926793D01*
X9577727Y-14899500D01*
X9577726Y-14899500D01*
X9472273Y-14899500D01*
X9370413Y-14926792D01*
X9370408Y-14926795D01*
X9279088Y-14979518D01*
X9279082Y-14979523D01*
X9204523Y-15054082D01*
X9204518Y-15054088D01*
X9151795Y-15145408D01*
X9151792Y-15145413D01*
X9129987Y-15226794D01*
X9124500Y-15247273D01*
X1790059Y-15247273D01*
X1779059Y-15240922D01*
X1754589Y-15226794D01*
X1754588Y-15226793D01*
X1754587Y-15226793D01*
X1652727Y-15199500D01*
X1652726Y-15199500D01*
X1547273Y-15199500D01*
X1445413Y-15226792D01*
X1445408Y-15226795D01*
X1354088Y-15279518D01*
X1354082Y-15279523D01*
X1279523Y-15354082D01*
X1279518Y-15354088D01*
X1226795Y-15445408D01*
X1226792Y-15445413D01*
X1199864Y-15545913D01*
X1199500Y-15547273D01*
X-23499500Y-15547273D01*
X-23499500Y-13117273D01*
X-8980500Y-13117273D01*
X-8980500Y-13222727D01*
X-8953207Y-13324587D01*
X-8900480Y-13415913D01*
X-8825913Y-13490480D01*
X-8734587Y-13543207D01*
X-8632727Y-13570500D01*
X-8632725Y-13570500D01*
X-8527275Y-13570500D01*
X-8527273Y-13570500D01*
X-8425413Y-13543207D01*
X-8334087Y-13490480D01*
X-8259520Y-13415913D01*
X-8206793Y-13324587D01*
X-8179500Y-13222727D01*
X-8179500Y-13117273D01*
X-8206792Y-13015413D01*
X-8206795Y-13015408D01*
X-8259518Y-12924088D01*
X-8259523Y-12924082D01*
X-8334082Y-12849523D01*
X-8334088Y-12849518D01*
X-8337977Y-12847273D01*
X6049500Y-12847273D01*
X6049500Y-12952727D01*
X6076793Y-13054587D01*
X6129520Y-13145913D01*
X6204087Y-13220480D01*
X6295413Y-13273207D01*
X6397273Y-13300500D01*
X6397275Y-13300500D01*
X6502725Y-13300500D01*
X6502727Y-13300500D01*
X6604587Y-13273207D01*
X6695913Y-13220480D01*
X6770480Y-13145913D01*
X6823207Y-13054587D01*
X6850500Y-12952727D01*
X6850500Y-12847273D01*
X6823705Y-12747273D01*
X15974500Y-12747273D01*
X15974500Y-12852727D01*
X16001793Y-12954587D01*
X16054520Y-13045913D01*
X16129087Y-13120480D01*
X16220413Y-13173207D01*
X16322273Y-13200500D01*
X16322275Y-13200500D01*
X16427725Y-13200500D01*
X16427727Y-13200500D01*
X16529587Y-13173207D01*
X16620913Y-13120480D01*
X16695480Y-13045913D01*
X16748207Y-12954587D01*
X16775500Y-12852727D01*
X16775500Y-12747273D01*
X16748207Y-12645413D01*
X16695480Y-12554087D01*
X16620913Y-12479520D01*
X16554059Y-12440922D01*
X16529589Y-12426794D01*
X16529588Y-12426793D01*
X16529587Y-12426793D01*
X16427727Y-12399500D01*
X16427726Y-12399500D01*
X16322273Y-12399500D01*
X16220413Y-12426792D01*
X16220408Y-12426795D01*
X16129088Y-12479518D01*
X16129082Y-12479523D01*
X16054523Y-12554082D01*
X16054518Y-12554088D01*
X16001795Y-12645408D01*
X16001792Y-12645413D01*
X15975095Y-12745052D01*
X15974500Y-12747273D01*
X6823705Y-12747273D01*
X6823207Y-12745413D01*
X6770480Y-12654087D01*
X6695913Y-12579520D01*
X6629059Y-12540922D01*
X6604589Y-12526794D01*
X6604588Y-12526793D01*
X6604587Y-12526793D01*
X6502727Y-12499500D01*
X6502726Y-12499500D01*
X6397273Y-12499500D01*
X6295413Y-12526792D01*
X6295408Y-12526795D01*
X6204088Y-12579518D01*
X6204082Y-12579523D01*
X6129523Y-12654082D01*
X6129519Y-12654088D01*
X6077000Y-12745052D01*
X6076999Y-12745054D01*
X6076794Y-12745410D01*
X6076794Y-12745411D01*
X6076793Y-12745413D01*
X6049500Y-12847273D01*
X-8337977Y-12847273D01*
X-8425408Y-12796795D01*
X-8425413Y-12796792D01*
X-8527273Y-12769500D01*
X-8632727Y-12769500D01*
X-8734587Y-12796793D01*
X-8734588Y-12796793D01*
X-8734589Y-12796794D01*
X-8759059Y-12810922D01*
X-8825913Y-12849520D01*
X-8900480Y-12924087D01*
X-8953207Y-13015413D01*
X-8980500Y-13117273D01*
X-23499500Y-13117273D01*
X-23499500Y-10957273D01*
X-9800500Y-10957273D01*
X-9800500Y-11062727D01*
X-9773207Y-11164587D01*
X-9720480Y-11255913D01*
X-9645913Y-11330480D01*
X-9554587Y-11383207D01*
X-9452727Y-11410500D01*
X-9452725Y-11410500D01*
X-9347275Y-11410500D01*
X-9347273Y-11410500D01*
X-9245413Y-11383207D01*
X-9154087Y-11330480D01*
X-9079520Y-11255913D01*
X-9079519Y-11255911D01*
X-9079515Y-11255906D01*
X-9035253Y-11179241D01*
X-9035252Y-11179241D01*
X-9035251Y-11179236D01*
X-9026795Y-11164591D01*
X-9026794Y-11164589D01*
X-9026793Y-11164586D01*
X-9026790Y-11164578D01*
X-9026787Y-11164566D01*
X-9020835Y-11142355D01*
X-8999500Y-11062730D01*
X-8999500Y-10957273D01*
X-9026792Y-10855413D01*
X-9026795Y-10855408D01*
X-9079518Y-10764088D01*
X-9079523Y-10764082D01*
X-9154082Y-10689523D01*
X-9154088Y-10689518D01*
X-9245408Y-10636795D01*
X-9245413Y-10636792D01*
X-9347273Y-10609500D01*
X-9452727Y-10609500D01*
X-9554587Y-10636793D01*
X-9554588Y-10636793D01*
X-9554589Y-10636794D01*
X-9578380Y-10650530D01*
X-9645913Y-10689520D01*
X-9720480Y-10764087D01*
X-9773207Y-10855413D01*
X-9800500Y-10957273D01*
X-23499500Y-10957273D01*
X-23499500Y-10387273D01*
X4599500Y-10387273D01*
X4599500Y-10492727D01*
X4626793Y-10594587D01*
X4679520Y-10685913D01*
X4754087Y-10760480D01*
X4845413Y-10813207D01*
X4947273Y-10840500D01*
X4947275Y-10840500D01*
X5052725Y-10840500D01*
X5052727Y-10840500D01*
X5120752Y-10822273D01*
X14574500Y-10822273D01*
X14574500Y-10927727D01*
X14601793Y-11029587D01*
X14654520Y-11120913D01*
X14729087Y-11195480D01*
X14820413Y-11248207D01*
X14922273Y-11275500D01*
X14922275Y-11275500D01*
X15027725Y-11275500D01*
X15027727Y-11275500D01*
X15129587Y-11248207D01*
X15220913Y-11195480D01*
X15295480Y-11120913D01*
X15313260Y-11090116D01*
X15320794Y-11078596D01*
X15321372Y-11077811D01*
X15325346Y-11074786D01*
X15335269Y-11062388D01*
X15335171Y-11062285D01*
X15335439Y-11062030D01*
X15335502Y-11062096D01*
X15336687Y-11060616D01*
X15346092Y-11051852D01*
X15373580Y-11038079D01*
X15376972Y-11035498D01*
X15379063Y-11035331D01*
X15408557Y-11020553D01*
X15476688Y-11027447D01*
X15479662Y-11028638D01*
X15534588Y-11071817D01*
X15540980Y-11081762D01*
X15575966Y-11142359D01*
X15575967Y-11142360D01*
X15575968Y-11142361D01*
X15587983Y-11154376D01*
X15593628Y-11163106D01*
X15599154Y-11167195D01*
X15611835Y-11191263D01*
X15616241Y-11198077D01*
X15617141Y-11200449D01*
X15617759Y-11202304D01*
X15618038Y-11202816D01*
X15619479Y-11206613D01*
X15621943Y-11238578D01*
X15625949Y-11270396D01*
X15625948Y-11270398D01*
X15625627Y-11272382D01*
X15624731Y-11274720D01*
X15624851Y-11276276D01*
X15622375Y-11280869D01*
X15607532Y-11319621D01*
X15603130Y-11326470D01*
X15586498Y-11347107D01*
X15567024Y-11366580D01*
X15567020Y-11366585D01*
X15514295Y-11457908D01*
X15514292Y-11457913D01*
X15487000Y-11559773D01*
X15487000Y-11665227D01*
X15514293Y-11767087D01*
X15567020Y-11858413D01*
X15641587Y-11932980D01*
X15732913Y-11985707D01*
X15834773Y-12013000D01*
X15834775Y-12013000D01*
X15940225Y-12013000D01*
X15940227Y-12013000D01*
X16042087Y-11985707D01*
X16133413Y-11932980D01*
X16207980Y-11858413D01*
X16260707Y-11767087D01*
X16288000Y-11665227D01*
X16288000Y-11559773D01*
X16260707Y-11457913D01*
X16207980Y-11366587D01*
X16200627Y-11359234D01*
X16179475Y-11330978D01*
X16171983Y-11317257D01*
X16157131Y-11248997D01*
X16157260Y-11247188D01*
X16176626Y-11188993D01*
X16180819Y-11182469D01*
X16197437Y-11161847D01*
X16216926Y-11142359D01*
X16269653Y-11051033D01*
X16296946Y-10949173D01*
X16296946Y-10843719D01*
X16269653Y-10741859D01*
X16216926Y-10650533D01*
X16142359Y-10575966D01*
X16075505Y-10537368D01*
X16051035Y-10523240D01*
X16051034Y-10523239D01*
X16051033Y-10523239D01*
X15949173Y-10495946D01*
X15949172Y-10495946D01*
X15843719Y-10495946D01*
X15741859Y-10523238D01*
X15741854Y-10523241D01*
X15650534Y-10575964D01*
X15650532Y-10575966D01*
X15575967Y-10650530D01*
X15558212Y-10681282D01*
X15547841Y-10694469D01*
X15536397Y-10709021D01*
X15526353Y-10718598D01*
X15464251Y-10750614D01*
X15394697Y-10743973D01*
X15394678Y-10743965D01*
X15393170Y-10743361D01*
X15345569Y-10709461D01*
X15342287Y-10705674D01*
X15328610Y-10686471D01*
X15295480Y-10629087D01*
X15220913Y-10554520D01*
X15154059Y-10515922D01*
X15129589Y-10501794D01*
X15129588Y-10501793D01*
X15129587Y-10501793D01*
X15027727Y-10474500D01*
X15027726Y-10474500D01*
X14922273Y-10474500D01*
X14820413Y-10501792D01*
X14820408Y-10501795D01*
X14729088Y-10554518D01*
X14729082Y-10554523D01*
X14654523Y-10629082D01*
X14654518Y-10629088D01*
X14601795Y-10720408D01*
X14601792Y-10720413D01*
X14590090Y-10764088D01*
X14574500Y-10822273D01*
X5120752Y-10822273D01*
X5154587Y-10813207D01*
X5245913Y-10760480D01*
X5320480Y-10685913D01*
X5373207Y-10594587D01*
X5400500Y-10492727D01*
X5400500Y-10387273D01*
X5373207Y-10285413D01*
X5320480Y-10194087D01*
X5245913Y-10119520D01*
X5179059Y-10080922D01*
X5154589Y-10066794D01*
X5154588Y-10066793D01*
X5154587Y-10066793D01*
X5052727Y-10039500D01*
X5052726Y-10039500D01*
X4947273Y-10039500D01*
X4845413Y-10066792D01*
X4845408Y-10066795D01*
X4754088Y-10119518D01*
X4754082Y-10119523D01*
X4679523Y-10194082D01*
X4679518Y-10194088D01*
X4626795Y-10285408D01*
X4626792Y-10285413D01*
X4599500Y-10387273D01*
X-23499500Y-10387273D01*
X-23499500Y-9654195D01*
X-23499499Y-9654188D01*
X-23499500Y-9654186D01*
X-23494475Y-9619254D01*
X-23490070Y-9604253D01*
X-23452346Y-9545526D01*
X-23451011Y-9544368D01*
X-23396033Y-9516854D01*
X-23388397Y-9515198D01*
X-23361959Y-9512384D01*
X-22520877Y-9513538D01*
G37*
%TD.AperFunction*%
%TD*%
M02*
