%TF.GenerationSoftware,KiCad,Pcbnew,9.0.5*%
%TF.CreationDate,2025-10-14T15:47:48-07:00*%
%TF.ProjectId,lightspeed_r1,6c696768-7473-4706-9565-645f72312e6b,rev?*%
%TF.SameCoordinates,Original*%
%TF.FileFunction,Legend,Bot*%
%TF.FilePolarity,Positive*%
%FSLAX46Y46*%
G04 Gerber Fmt 4.6, Leading zero omitted, Abs format (unit mm)*
G04 Created by KiCad (PCBNEW 9.0.5) date 2025-10-14 15:47:48*
%MOMM*%
%LPD*%
G01*
G04 APERTURE LIST*
%ADD10C,0.304800*%
%ADD11C,0.207000*%
%ADD12C,0.250000*%
%ADD13C,0.184000*%
%ADD14C,0.187500*%
%ADD15C,0.400000*%
%ADD16C,0.100000*%
%ADD17C,0.120000*%
G04 APERTURE END LIST*
D10*
X-9596716Y-18757483D02*
X-11120526Y-18757483D01*
D11*
X21063142Y-3718191D02*
X21220857Y-3639334D01*
X21220857Y-3639334D02*
X21457428Y-3639334D01*
X21457428Y-3639334D02*
X21693999Y-3718191D01*
X21693999Y-3718191D02*
X21851714Y-3875905D01*
X21851714Y-3875905D02*
X21930571Y-4033619D01*
X21930571Y-4033619D02*
X22009428Y-4349048D01*
X22009428Y-4349048D02*
X22009428Y-4585619D01*
X22009428Y-4585619D02*
X21930571Y-4901048D01*
X21930571Y-4901048D02*
X21851714Y-5058762D01*
X21851714Y-5058762D02*
X21693999Y-5216477D01*
X21693999Y-5216477D02*
X21457428Y-5295334D01*
X21457428Y-5295334D02*
X21299714Y-5295334D01*
X21299714Y-5295334D02*
X21063142Y-5216477D01*
X21063142Y-5216477D02*
X20984285Y-5137619D01*
X20984285Y-5137619D02*
X20984285Y-4585619D01*
X20984285Y-4585619D02*
X21299714Y-4585619D01*
X20274571Y-5295334D02*
X20274571Y-3639334D01*
X20274571Y-3639334D02*
X19643714Y-3639334D01*
X19643714Y-3639334D02*
X19485999Y-3718191D01*
X19485999Y-3718191D02*
X19407142Y-3797048D01*
X19407142Y-3797048D02*
X19328285Y-3954762D01*
X19328285Y-3954762D02*
X19328285Y-4191334D01*
X19328285Y-4191334D02*
X19407142Y-4349048D01*
X19407142Y-4349048D02*
X19485999Y-4427905D01*
X19485999Y-4427905D02*
X19643714Y-4506762D01*
X19643714Y-4506762D02*
X20274571Y-4506762D01*
X18618571Y-5295334D02*
X18618571Y-3639334D01*
X17514571Y-3639334D02*
X17199143Y-3639334D01*
X17199143Y-3639334D02*
X17041428Y-3718191D01*
X17041428Y-3718191D02*
X16883714Y-3875905D01*
X16883714Y-3875905D02*
X16804857Y-4191334D01*
X16804857Y-4191334D02*
X16804857Y-4743334D01*
X16804857Y-4743334D02*
X16883714Y-5058762D01*
X16883714Y-5058762D02*
X17041428Y-5216477D01*
X17041428Y-5216477D02*
X17199143Y-5295334D01*
X17199143Y-5295334D02*
X17514571Y-5295334D01*
X17514571Y-5295334D02*
X17672286Y-5216477D01*
X17672286Y-5216477D02*
X17830000Y-5058762D01*
X17830000Y-5058762D02*
X17908857Y-4743334D01*
X17908857Y-4743334D02*
X17908857Y-4191334D01*
X17908857Y-4191334D02*
X17830000Y-3875905D01*
X17830000Y-3875905D02*
X17672286Y-3718191D01*
X17672286Y-3718191D02*
X17514571Y-3639334D01*
X16174000Y-3797048D02*
X16095143Y-3718191D01*
X16095143Y-3718191D02*
X15937429Y-3639334D01*
X15937429Y-3639334D02*
X15543143Y-3639334D01*
X15543143Y-3639334D02*
X15385429Y-3718191D01*
X15385429Y-3718191D02*
X15306571Y-3797048D01*
X15306571Y-3797048D02*
X15227714Y-3954762D01*
X15227714Y-3954762D02*
X15227714Y-4112477D01*
X15227714Y-4112477D02*
X15306571Y-4349048D01*
X15306571Y-4349048D02*
X16252857Y-5295334D01*
X16252857Y-5295334D02*
X15227714Y-5295334D01*
X14202571Y-3639334D02*
X14044857Y-3639334D01*
X14044857Y-3639334D02*
X13887143Y-3718191D01*
X13887143Y-3718191D02*
X13808286Y-3797048D01*
X13808286Y-3797048D02*
X13729428Y-3954762D01*
X13729428Y-3954762D02*
X13650571Y-4270191D01*
X13650571Y-4270191D02*
X13650571Y-4664477D01*
X13650571Y-4664477D02*
X13729428Y-4979905D01*
X13729428Y-4979905D02*
X13808286Y-5137619D01*
X13808286Y-5137619D02*
X13887143Y-5216477D01*
X13887143Y-5216477D02*
X14044857Y-5295334D01*
X14044857Y-5295334D02*
X14202571Y-5295334D01*
X14202571Y-5295334D02*
X14360286Y-5216477D01*
X14360286Y-5216477D02*
X14439143Y-5137619D01*
X14439143Y-5137619D02*
X14518000Y-4979905D01*
X14518000Y-4979905D02*
X14596857Y-4664477D01*
X14596857Y-4664477D02*
X14596857Y-4270191D01*
X14596857Y-4270191D02*
X14518000Y-3954762D01*
X14518000Y-3954762D02*
X14439143Y-3797048D01*
X14439143Y-3797048D02*
X14360286Y-3718191D01*
X14360286Y-3718191D02*
X14202571Y-3639334D01*
D12*
X17082285Y-23888384D02*
X17082285Y-23388384D01*
X16296571Y-23174098D02*
X16296571Y-23888384D01*
X16296571Y-23888384D02*
X17796571Y-23888384D01*
X17796571Y-23888384D02*
X17796571Y-23174098D01*
X16368000Y-22602669D02*
X16296571Y-22388384D01*
X16296571Y-22388384D02*
X16296571Y-22031241D01*
X16296571Y-22031241D02*
X16368000Y-21888384D01*
X16368000Y-21888384D02*
X16439428Y-21816955D01*
X16439428Y-21816955D02*
X16582285Y-21745526D01*
X16582285Y-21745526D02*
X16725142Y-21745526D01*
X16725142Y-21745526D02*
X16868000Y-21816955D01*
X16868000Y-21816955D02*
X16939428Y-21888384D01*
X16939428Y-21888384D02*
X17010857Y-22031241D01*
X17010857Y-22031241D02*
X17082285Y-22316955D01*
X17082285Y-22316955D02*
X17153714Y-22459812D01*
X17153714Y-22459812D02*
X17225142Y-22531241D01*
X17225142Y-22531241D02*
X17368000Y-22602669D01*
X17368000Y-22602669D02*
X17510857Y-22602669D01*
X17510857Y-22602669D02*
X17653714Y-22531241D01*
X17653714Y-22531241D02*
X17725142Y-22459812D01*
X17725142Y-22459812D02*
X17796571Y-22316955D01*
X17796571Y-22316955D02*
X17796571Y-21959812D01*
X17796571Y-21959812D02*
X17725142Y-21745526D01*
X16296571Y-21102670D02*
X17796571Y-21102670D01*
X17796571Y-21102670D02*
X17796571Y-20531241D01*
X17796571Y-20531241D02*
X17725142Y-20388384D01*
X17725142Y-20388384D02*
X17653714Y-20316955D01*
X17653714Y-20316955D02*
X17510857Y-20245527D01*
X17510857Y-20245527D02*
X17296571Y-20245527D01*
X17296571Y-20245527D02*
X17153714Y-20316955D01*
X17153714Y-20316955D02*
X17082285Y-20388384D01*
X17082285Y-20388384D02*
X17010857Y-20531241D01*
X17010857Y-20531241D02*
X17010857Y-21102670D01*
X17796571Y-19745527D02*
X17796571Y-18816955D01*
X17796571Y-18816955D02*
X17225142Y-19316955D01*
X17225142Y-19316955D02*
X17225142Y-19102670D01*
X17225142Y-19102670D02*
X17153714Y-18959813D01*
X17153714Y-18959813D02*
X17082285Y-18888384D01*
X17082285Y-18888384D02*
X16939428Y-18816955D01*
X16939428Y-18816955D02*
X16582285Y-18816955D01*
X16582285Y-18816955D02*
X16439428Y-18888384D01*
X16439428Y-18888384D02*
X16368000Y-18959813D01*
X16368000Y-18959813D02*
X16296571Y-19102670D01*
X16296571Y-19102670D02*
X16296571Y-19531241D01*
X16296571Y-19531241D02*
X16368000Y-19674098D01*
X16368000Y-19674098D02*
X16439428Y-19745527D01*
X17653714Y-18245527D02*
X17725142Y-18174099D01*
X17725142Y-18174099D02*
X17796571Y-18031242D01*
X17796571Y-18031242D02*
X17796571Y-17674099D01*
X17796571Y-17674099D02*
X17725142Y-17531242D01*
X17725142Y-17531242D02*
X17653714Y-17459813D01*
X17653714Y-17459813D02*
X17510857Y-17388384D01*
X17510857Y-17388384D02*
X17368000Y-17388384D01*
X17368000Y-17388384D02*
X17153714Y-17459813D01*
X17153714Y-17459813D02*
X16296571Y-18316956D01*
X16296571Y-18316956D02*
X16296571Y-17388384D01*
D11*
X20891713Y9041808D02*
X21049428Y9120665D01*
X21049428Y9120665D02*
X21285999Y9120665D01*
X21285999Y9120665D02*
X21522570Y9041808D01*
X21522570Y9041808D02*
X21680285Y8884094D01*
X21680285Y8884094D02*
X21759142Y8726380D01*
X21759142Y8726380D02*
X21837999Y8410951D01*
X21837999Y8410951D02*
X21837999Y8174380D01*
X21837999Y8174380D02*
X21759142Y7858951D01*
X21759142Y7858951D02*
X21680285Y7701237D01*
X21680285Y7701237D02*
X21522570Y7543523D01*
X21522570Y7543523D02*
X21285999Y7464665D01*
X21285999Y7464665D02*
X21128285Y7464665D01*
X21128285Y7464665D02*
X20891713Y7543523D01*
X20891713Y7543523D02*
X20812856Y7622380D01*
X20812856Y7622380D02*
X20812856Y8174380D01*
X20812856Y8174380D02*
X21128285Y8174380D01*
X20103142Y7464665D02*
X20103142Y9120665D01*
X20103142Y9120665D02*
X19156856Y7464665D01*
X19156856Y7464665D02*
X19156856Y9120665D01*
X18368285Y7464665D02*
X18368285Y9120665D01*
X18368285Y9120665D02*
X17973999Y9120665D01*
X17973999Y9120665D02*
X17737428Y9041808D01*
X17737428Y9041808D02*
X17579713Y8884094D01*
X17579713Y8884094D02*
X17500856Y8726380D01*
X17500856Y8726380D02*
X17421999Y8410951D01*
X17421999Y8410951D02*
X17421999Y8174380D01*
X17421999Y8174380D02*
X17500856Y7858951D01*
X17500856Y7858951D02*
X17579713Y7701237D01*
X17579713Y7701237D02*
X17737428Y7543523D01*
X17737428Y7543523D02*
X17973999Y7464665D01*
X17973999Y7464665D02*
X18368285Y7464665D01*
D13*
X-9273909Y-22880289D02*
X-8845337Y-22880289D01*
X-8845337Y-22880289D02*
X-8802480Y-23308860D01*
X-8802480Y-23308860D02*
X-8845337Y-23266003D01*
X-8845337Y-23266003D02*
X-8931052Y-23223146D01*
X-8931052Y-23223146D02*
X-9145337Y-23223146D01*
X-9145337Y-23223146D02*
X-9231052Y-23266003D01*
X-9231052Y-23266003D02*
X-9273909Y-23308860D01*
X-9273909Y-23308860D02*
X-9316766Y-23394574D01*
X-9316766Y-23394574D02*
X-9316766Y-23608860D01*
X-9316766Y-23608860D02*
X-9273909Y-23694574D01*
X-9273909Y-23694574D02*
X-9231052Y-23737432D01*
X-9231052Y-23737432D02*
X-9145337Y-23780289D01*
X-9145337Y-23780289D02*
X-8931052Y-23780289D01*
X-8931052Y-23780289D02*
X-8845337Y-23737432D01*
X-8845337Y-23737432D02*
X-8802480Y-23694574D01*
X-9573909Y-22880289D02*
X-9873909Y-23780289D01*
X-9873909Y-23780289D02*
X-10173909Y-22880289D01*
X-11159623Y-23780289D02*
X-11159623Y-22880289D01*
X-11159623Y-22880289D02*
X-11502480Y-22880289D01*
X-11502480Y-22880289D02*
X-11588195Y-22923146D01*
X-11588195Y-22923146D02*
X-11631052Y-22966003D01*
X-11631052Y-22966003D02*
X-11673909Y-23051717D01*
X-11673909Y-23051717D02*
X-11673909Y-23180289D01*
X-11673909Y-23180289D02*
X-11631052Y-23266003D01*
X-11631052Y-23266003D02*
X-11588195Y-23308860D01*
X-11588195Y-23308860D02*
X-11502480Y-23351717D01*
X-11502480Y-23351717D02*
X-11159623Y-23351717D01*
X-12231052Y-22880289D02*
X-12402480Y-22880289D01*
X-12402480Y-22880289D02*
X-12488195Y-22923146D01*
X-12488195Y-22923146D02*
X-12573909Y-23008860D01*
X-12573909Y-23008860D02*
X-12616766Y-23180289D01*
X-12616766Y-23180289D02*
X-12616766Y-23480289D01*
X-12616766Y-23480289D02*
X-12573909Y-23651717D01*
X-12573909Y-23651717D02*
X-12488195Y-23737432D01*
X-12488195Y-23737432D02*
X-12402480Y-23780289D01*
X-12402480Y-23780289D02*
X-12231052Y-23780289D01*
X-12231052Y-23780289D02*
X-12145338Y-23737432D01*
X-12145338Y-23737432D02*
X-12059623Y-23651717D01*
X-12059623Y-23651717D02*
X-12016766Y-23480289D01*
X-12016766Y-23480289D02*
X-12016766Y-23180289D01*
X-12016766Y-23180289D02*
X-12059623Y-23008860D01*
X-12059623Y-23008860D02*
X-12145338Y-22923146D01*
X-12145338Y-22923146D02*
X-12231052Y-22880289D01*
X-12916766Y-22880289D02*
X-13131052Y-23780289D01*
X-13131052Y-23780289D02*
X-13302480Y-23137432D01*
X-13302480Y-23137432D02*
X-13473909Y-23780289D01*
X-13473909Y-23780289D02*
X-13688195Y-22880289D01*
X-14031051Y-23308860D02*
X-14331051Y-23308860D01*
X-14459623Y-23780289D02*
X-14031051Y-23780289D01*
X-14031051Y-23780289D02*
X-14031051Y-22880289D01*
X-14031051Y-22880289D02*
X-14459623Y-22880289D01*
X-15359623Y-23780289D02*
X-15059623Y-23351717D01*
X-14845337Y-23780289D02*
X-14845337Y-22880289D01*
X-14845337Y-22880289D02*
X-15188194Y-22880289D01*
X-15188194Y-22880289D02*
X-15273909Y-22923146D01*
X-15273909Y-22923146D02*
X-15316766Y-22966003D01*
X-15316766Y-22966003D02*
X-15359623Y-23051717D01*
X-15359623Y-23051717D02*
X-15359623Y-23180289D01*
X-15359623Y-23180289D02*
X-15316766Y-23266003D01*
X-15316766Y-23266003D02*
X-15273909Y-23308860D01*
X-15273909Y-23308860D02*
X-15188194Y-23351717D01*
X-15188194Y-23351717D02*
X-14845337Y-23351717D01*
D11*
X21014570Y-1288191D02*
X21172285Y-1209334D01*
X21172285Y-1209334D02*
X21408856Y-1209334D01*
X21408856Y-1209334D02*
X21645427Y-1288191D01*
X21645427Y-1288191D02*
X21803142Y-1445905D01*
X21803142Y-1445905D02*
X21881999Y-1603619D01*
X21881999Y-1603619D02*
X21960856Y-1919048D01*
X21960856Y-1919048D02*
X21960856Y-2155619D01*
X21960856Y-2155619D02*
X21881999Y-2471048D01*
X21881999Y-2471048D02*
X21803142Y-2628762D01*
X21803142Y-2628762D02*
X21645427Y-2786477D01*
X21645427Y-2786477D02*
X21408856Y-2865334D01*
X21408856Y-2865334D02*
X21251142Y-2865334D01*
X21251142Y-2865334D02*
X21014570Y-2786477D01*
X21014570Y-2786477D02*
X20935713Y-2707619D01*
X20935713Y-2707619D02*
X20935713Y-2155619D01*
X20935713Y-2155619D02*
X21251142Y-2155619D01*
X20225999Y-2865334D02*
X20225999Y-1209334D01*
X20225999Y-1209334D02*
X19595142Y-1209334D01*
X19595142Y-1209334D02*
X19437427Y-1288191D01*
X19437427Y-1288191D02*
X19358570Y-1367048D01*
X19358570Y-1367048D02*
X19279713Y-1524762D01*
X19279713Y-1524762D02*
X19279713Y-1761334D01*
X19279713Y-1761334D02*
X19358570Y-1919048D01*
X19358570Y-1919048D02*
X19437427Y-1997905D01*
X19437427Y-1997905D02*
X19595142Y-2076762D01*
X19595142Y-2076762D02*
X20225999Y-2076762D01*
X18569999Y-2865334D02*
X18569999Y-1209334D01*
X17465999Y-1209334D02*
X17150571Y-1209334D01*
X17150571Y-1209334D02*
X16992856Y-1288191D01*
X16992856Y-1288191D02*
X16835142Y-1445905D01*
X16835142Y-1445905D02*
X16756285Y-1761334D01*
X16756285Y-1761334D02*
X16756285Y-2313334D01*
X16756285Y-2313334D02*
X16835142Y-2628762D01*
X16835142Y-2628762D02*
X16992856Y-2786477D01*
X16992856Y-2786477D02*
X17150571Y-2865334D01*
X17150571Y-2865334D02*
X17465999Y-2865334D01*
X17465999Y-2865334D02*
X17623714Y-2786477D01*
X17623714Y-2786477D02*
X17781428Y-2628762D01*
X17781428Y-2628762D02*
X17860285Y-2313334D01*
X17860285Y-2313334D02*
X17860285Y-1761334D01*
X17860285Y-1761334D02*
X17781428Y-1445905D01*
X17781428Y-1445905D02*
X17623714Y-1288191D01*
X17623714Y-1288191D02*
X17465999Y-1209334D01*
X16204285Y-1209334D02*
X15179142Y-1209334D01*
X15179142Y-1209334D02*
X15731142Y-1840191D01*
X15731142Y-1840191D02*
X15494571Y-1840191D01*
X15494571Y-1840191D02*
X15336857Y-1919048D01*
X15336857Y-1919048D02*
X15257999Y-1997905D01*
X15257999Y-1997905D02*
X15179142Y-2155619D01*
X15179142Y-2155619D02*
X15179142Y-2549905D01*
X15179142Y-2549905D02*
X15257999Y-2707619D01*
X15257999Y-2707619D02*
X15336857Y-2786477D01*
X15336857Y-2786477D02*
X15494571Y-2865334D01*
X15494571Y-2865334D02*
X15967714Y-2865334D01*
X15967714Y-2865334D02*
X16125428Y-2786477D01*
X16125428Y-2786477D02*
X16204285Y-2707619D01*
X21123142Y3941808D02*
X21280857Y4020665D01*
X21280857Y4020665D02*
X21517428Y4020665D01*
X21517428Y4020665D02*
X21753999Y3941808D01*
X21753999Y3941808D02*
X21911714Y3784094D01*
X21911714Y3784094D02*
X21990571Y3626380D01*
X21990571Y3626380D02*
X22069428Y3310951D01*
X22069428Y3310951D02*
X22069428Y3074380D01*
X22069428Y3074380D02*
X21990571Y2758951D01*
X21990571Y2758951D02*
X21911714Y2601237D01*
X21911714Y2601237D02*
X21753999Y2443523D01*
X21753999Y2443523D02*
X21517428Y2364665D01*
X21517428Y2364665D02*
X21359714Y2364665D01*
X21359714Y2364665D02*
X21123142Y2443523D01*
X21123142Y2443523D02*
X21044285Y2522380D01*
X21044285Y2522380D02*
X21044285Y3074380D01*
X21044285Y3074380D02*
X21359714Y3074380D01*
X20334571Y2364665D02*
X20334571Y4020665D01*
X20334571Y4020665D02*
X19703714Y4020665D01*
X19703714Y4020665D02*
X19545999Y3941808D01*
X19545999Y3941808D02*
X19467142Y3862951D01*
X19467142Y3862951D02*
X19388285Y3705237D01*
X19388285Y3705237D02*
X19388285Y3468665D01*
X19388285Y3468665D02*
X19467142Y3310951D01*
X19467142Y3310951D02*
X19545999Y3232094D01*
X19545999Y3232094D02*
X19703714Y3153237D01*
X19703714Y3153237D02*
X20334571Y3153237D01*
X18678571Y2364665D02*
X18678571Y4020665D01*
X17574571Y4020665D02*
X17259143Y4020665D01*
X17259143Y4020665D02*
X17101428Y3941808D01*
X17101428Y3941808D02*
X16943714Y3784094D01*
X16943714Y3784094D02*
X16864857Y3468665D01*
X16864857Y3468665D02*
X16864857Y2916665D01*
X16864857Y2916665D02*
X16943714Y2601237D01*
X16943714Y2601237D02*
X17101428Y2443523D01*
X17101428Y2443523D02*
X17259143Y2364665D01*
X17259143Y2364665D02*
X17574571Y2364665D01*
X17574571Y2364665D02*
X17732286Y2443523D01*
X17732286Y2443523D02*
X17890000Y2601237D01*
X17890000Y2601237D02*
X17968857Y2916665D01*
X17968857Y2916665D02*
X17968857Y3468665D01*
X17968857Y3468665D02*
X17890000Y3784094D01*
X17890000Y3784094D02*
X17732286Y3941808D01*
X17732286Y3941808D02*
X17574571Y4020665D01*
X15287714Y2364665D02*
X16234000Y2364665D01*
X15760857Y2364665D02*
X15760857Y4020665D01*
X15760857Y4020665D02*
X15918571Y3784094D01*
X15918571Y3784094D02*
X16076286Y3626380D01*
X16076286Y3626380D02*
X16234000Y3547523D01*
X13868286Y3468665D02*
X13868286Y2364665D01*
X14262571Y4099523D02*
X14656857Y2916665D01*
X14656857Y2916665D02*
X13631714Y2916665D01*
D14*
X-7735250Y-23950930D02*
X-7806678Y-23736645D01*
X-7806678Y-23736645D02*
X-7806678Y-23379502D01*
X-7806678Y-23379502D02*
X-7735250Y-23236645D01*
X-7735250Y-23236645D02*
X-7663821Y-23165216D01*
X-7663821Y-23165216D02*
X-7520964Y-23093787D01*
X-7520964Y-23093787D02*
X-7378107Y-23093787D01*
X-7378107Y-23093787D02*
X-7235250Y-23165216D01*
X-7235250Y-23165216D02*
X-7163821Y-23236645D01*
X-7163821Y-23236645D02*
X-7092392Y-23379502D01*
X-7092392Y-23379502D02*
X-7020964Y-23665216D01*
X-7020964Y-23665216D02*
X-6949535Y-23808073D01*
X-6949535Y-23808073D02*
X-6878107Y-23879502D01*
X-6878107Y-23879502D02*
X-6735250Y-23950930D01*
X-6735250Y-23950930D02*
X-6592392Y-23950930D01*
X-6592392Y-23950930D02*
X-6449535Y-23879502D01*
X-6449535Y-23879502D02*
X-6378107Y-23808073D01*
X-6378107Y-23808073D02*
X-6306678Y-23665216D01*
X-6306678Y-23665216D02*
X-6306678Y-23308073D01*
X-6306678Y-23308073D02*
X-6378107Y-23093787D01*
X-6306678Y-22665216D02*
X-6306678Y-21808074D01*
X-7806678Y-22236645D02*
X-6306678Y-22236645D01*
X-7806678Y-21308074D02*
X-6306678Y-21308074D01*
X-6306678Y-21308074D02*
X-7378107Y-20808074D01*
X-7378107Y-20808074D02*
X-6306678Y-20308074D01*
X-6306678Y-20308074D02*
X-7806678Y-20308074D01*
X-6306678Y-19736645D02*
X-6306678Y-18808073D01*
X-6306678Y-18808073D02*
X-6878107Y-19308073D01*
X-6878107Y-19308073D02*
X-6878107Y-19093788D01*
X-6878107Y-19093788D02*
X-6949535Y-18950931D01*
X-6949535Y-18950931D02*
X-7020964Y-18879502D01*
X-7020964Y-18879502D02*
X-7163821Y-18808073D01*
X-7163821Y-18808073D02*
X-7520964Y-18808073D01*
X-7520964Y-18808073D02*
X-7663821Y-18879502D01*
X-7663821Y-18879502D02*
X-7735250Y-18950931D01*
X-7735250Y-18950931D02*
X-7806678Y-19093788D01*
X-7806678Y-19093788D02*
X-7806678Y-19522359D01*
X-7806678Y-19522359D02*
X-7735250Y-19665216D01*
X-7735250Y-19665216D02*
X-7663821Y-19736645D01*
X-6449535Y-18236645D02*
X-6378107Y-18165217D01*
X-6378107Y-18165217D02*
X-6306678Y-18022360D01*
X-6306678Y-18022360D02*
X-6306678Y-17665217D01*
X-6306678Y-17665217D02*
X-6378107Y-17522360D01*
X-6378107Y-17522360D02*
X-6449535Y-17450931D01*
X-6449535Y-17450931D02*
X-6592392Y-17379502D01*
X-6592392Y-17379502D02*
X-6735250Y-17379502D01*
X-6735250Y-17379502D02*
X-6949535Y-17450931D01*
X-6949535Y-17450931D02*
X-7806678Y-18308074D01*
X-7806678Y-18308074D02*
X-7806678Y-17379502D01*
X2190930Y-23655250D02*
X1976645Y-23726678D01*
X1976645Y-23726678D02*
X1619502Y-23726678D01*
X1619502Y-23726678D02*
X1476645Y-23655250D01*
X1476645Y-23655250D02*
X1405216Y-23583821D01*
X1405216Y-23583821D02*
X1333787Y-23440964D01*
X1333787Y-23440964D02*
X1333787Y-23298107D01*
X1333787Y-23298107D02*
X1405216Y-23155250D01*
X1405216Y-23155250D02*
X1476645Y-23083821D01*
X1476645Y-23083821D02*
X1619502Y-23012392D01*
X1619502Y-23012392D02*
X1905216Y-22940964D01*
X1905216Y-22940964D02*
X2048073Y-22869535D01*
X2048073Y-22869535D02*
X2119502Y-22798107D01*
X2119502Y-22798107D02*
X2190930Y-22655250D01*
X2190930Y-22655250D02*
X2190930Y-22512392D01*
X2190930Y-22512392D02*
X2119502Y-22369535D01*
X2119502Y-22369535D02*
X2048073Y-22298107D01*
X2048073Y-22298107D02*
X1905216Y-22226678D01*
X1905216Y-22226678D02*
X1548073Y-22226678D01*
X1548073Y-22226678D02*
X1333787Y-22298107D01*
X905216Y-22226678D02*
X48074Y-22226678D01*
X476645Y-23726678D02*
X476645Y-22226678D01*
X-451925Y-23726678D02*
X-451925Y-22226678D01*
X-451925Y-22226678D02*
X-951925Y-23298107D01*
X-951925Y-23298107D02*
X-1451925Y-22226678D01*
X-1451925Y-22226678D02*
X-1451925Y-23726678D01*
X-2023354Y-22226678D02*
X-2951926Y-22226678D01*
X-2951926Y-22226678D02*
X-2451926Y-22798107D01*
X-2451926Y-22798107D02*
X-2666211Y-22798107D01*
X-2666211Y-22798107D02*
X-2809069Y-22869535D01*
X-2809069Y-22869535D02*
X-2880497Y-22940964D01*
X-2880497Y-22940964D02*
X-2951926Y-23083821D01*
X-2951926Y-23083821D02*
X-2951926Y-23440964D01*
X-2951926Y-23440964D02*
X-2880497Y-23583821D01*
X-2880497Y-23583821D02*
X-2809069Y-23655250D01*
X-2809069Y-23655250D02*
X-2666211Y-23726678D01*
X-2666211Y-23726678D02*
X-2237640Y-23726678D01*
X-2237640Y-23726678D02*
X-2094783Y-23655250D01*
X-2094783Y-23655250D02*
X-2023354Y-23583821D01*
X-3523354Y-22369535D02*
X-3594782Y-22298107D01*
X-3594782Y-22298107D02*
X-3737640Y-22226678D01*
X-3737640Y-22226678D02*
X-4094782Y-22226678D01*
X-4094782Y-22226678D02*
X-4237640Y-22298107D01*
X-4237640Y-22298107D02*
X-4309068Y-22369535D01*
X-4309068Y-22369535D02*
X-4380497Y-22512392D01*
X-4380497Y-22512392D02*
X-4380497Y-22655250D01*
X-4380497Y-22655250D02*
X-4309068Y-22869535D01*
X-4309068Y-22869535D02*
X-3451925Y-23726678D01*
X-3451925Y-23726678D02*
X-4380497Y-23726678D01*
D11*
X21123142Y6631808D02*
X21280857Y6710665D01*
X21280857Y6710665D02*
X21517428Y6710665D01*
X21517428Y6710665D02*
X21753999Y6631808D01*
X21753999Y6631808D02*
X21911714Y6474094D01*
X21911714Y6474094D02*
X21990571Y6316380D01*
X21990571Y6316380D02*
X22069428Y6000951D01*
X22069428Y6000951D02*
X22069428Y5764380D01*
X22069428Y5764380D02*
X21990571Y5448951D01*
X21990571Y5448951D02*
X21911714Y5291237D01*
X21911714Y5291237D02*
X21753999Y5133523D01*
X21753999Y5133523D02*
X21517428Y5054665D01*
X21517428Y5054665D02*
X21359714Y5054665D01*
X21359714Y5054665D02*
X21123142Y5133523D01*
X21123142Y5133523D02*
X21044285Y5212380D01*
X21044285Y5212380D02*
X21044285Y5764380D01*
X21044285Y5764380D02*
X21359714Y5764380D01*
X20334571Y5054665D02*
X20334571Y6710665D01*
X20334571Y6710665D02*
X19703714Y6710665D01*
X19703714Y6710665D02*
X19545999Y6631808D01*
X19545999Y6631808D02*
X19467142Y6552951D01*
X19467142Y6552951D02*
X19388285Y6395237D01*
X19388285Y6395237D02*
X19388285Y6158665D01*
X19388285Y6158665D02*
X19467142Y6000951D01*
X19467142Y6000951D02*
X19545999Y5922094D01*
X19545999Y5922094D02*
X19703714Y5843237D01*
X19703714Y5843237D02*
X20334571Y5843237D01*
X18678571Y5054665D02*
X18678571Y6710665D01*
X17574571Y6710665D02*
X17259143Y6710665D01*
X17259143Y6710665D02*
X17101428Y6631808D01*
X17101428Y6631808D02*
X16943714Y6474094D01*
X16943714Y6474094D02*
X16864857Y6158665D01*
X16864857Y6158665D02*
X16864857Y5606665D01*
X16864857Y5606665D02*
X16943714Y5291237D01*
X16943714Y5291237D02*
X17101428Y5133523D01*
X17101428Y5133523D02*
X17259143Y5054665D01*
X17259143Y5054665D02*
X17574571Y5054665D01*
X17574571Y5054665D02*
X17732286Y5133523D01*
X17732286Y5133523D02*
X17890000Y5291237D01*
X17890000Y5291237D02*
X17968857Y5606665D01*
X17968857Y5606665D02*
X17968857Y6158665D01*
X17968857Y6158665D02*
X17890000Y6474094D01*
X17890000Y6474094D02*
X17732286Y6631808D01*
X17732286Y6631808D02*
X17574571Y6710665D01*
X15445429Y6158665D02*
X15445429Y5054665D01*
X15839714Y6789523D02*
X16234000Y5606665D01*
X16234000Y5606665D02*
X15208857Y5606665D01*
X14341428Y6000951D02*
X14499143Y6079808D01*
X14499143Y6079808D02*
X14578000Y6158665D01*
X14578000Y6158665D02*
X14656857Y6316380D01*
X14656857Y6316380D02*
X14656857Y6395237D01*
X14656857Y6395237D02*
X14578000Y6552951D01*
X14578000Y6552951D02*
X14499143Y6631808D01*
X14499143Y6631808D02*
X14341428Y6710665D01*
X14341428Y6710665D02*
X14026000Y6710665D01*
X14026000Y6710665D02*
X13868286Y6631808D01*
X13868286Y6631808D02*
X13789428Y6552951D01*
X13789428Y6552951D02*
X13710571Y6395237D01*
X13710571Y6395237D02*
X13710571Y6316380D01*
X13710571Y6316380D02*
X13789428Y6158665D01*
X13789428Y6158665D02*
X13868286Y6079808D01*
X13868286Y6079808D02*
X14026000Y6000951D01*
X14026000Y6000951D02*
X14341428Y6000951D01*
X14341428Y6000951D02*
X14499143Y5922094D01*
X14499143Y5922094D02*
X14578000Y5843237D01*
X14578000Y5843237D02*
X14656857Y5685523D01*
X14656857Y5685523D02*
X14656857Y5370094D01*
X14656857Y5370094D02*
X14578000Y5212380D01*
X14578000Y5212380D02*
X14499143Y5133523D01*
X14499143Y5133523D02*
X14341428Y5054665D01*
X14341428Y5054665D02*
X14026000Y5054665D01*
X14026000Y5054665D02*
X13868286Y5133523D01*
X13868286Y5133523D02*
X13789428Y5212380D01*
X13789428Y5212380D02*
X13710571Y5370094D01*
X13710571Y5370094D02*
X13710571Y5685523D01*
X13710571Y5685523D02*
X13789428Y5843237D01*
X13789428Y5843237D02*
X13868286Y5922094D01*
X13868286Y5922094D02*
X14026000Y6000951D01*
X21093142Y1461808D02*
X21250857Y1540665D01*
X21250857Y1540665D02*
X21487428Y1540665D01*
X21487428Y1540665D02*
X21723999Y1461808D01*
X21723999Y1461808D02*
X21881714Y1304094D01*
X21881714Y1304094D02*
X21960571Y1146380D01*
X21960571Y1146380D02*
X22039428Y830951D01*
X22039428Y830951D02*
X22039428Y594380D01*
X22039428Y594380D02*
X21960571Y278951D01*
X21960571Y278951D02*
X21881714Y121237D01*
X21881714Y121237D02*
X21723999Y-36477D01*
X21723999Y-36477D02*
X21487428Y-115334D01*
X21487428Y-115334D02*
X21329714Y-115334D01*
X21329714Y-115334D02*
X21093142Y-36477D01*
X21093142Y-36477D02*
X21014285Y42380D01*
X21014285Y42380D02*
X21014285Y594380D01*
X21014285Y594380D02*
X21329714Y594380D01*
X20304571Y-115334D02*
X20304571Y1540665D01*
X20304571Y1540665D02*
X19673714Y1540665D01*
X19673714Y1540665D02*
X19515999Y1461808D01*
X19515999Y1461808D02*
X19437142Y1382951D01*
X19437142Y1382951D02*
X19358285Y1225237D01*
X19358285Y1225237D02*
X19358285Y988665D01*
X19358285Y988665D02*
X19437142Y830951D01*
X19437142Y830951D02*
X19515999Y752094D01*
X19515999Y752094D02*
X19673714Y673237D01*
X19673714Y673237D02*
X20304571Y673237D01*
X18648571Y-115334D02*
X18648571Y1540665D01*
X17544571Y1540665D02*
X17229143Y1540665D01*
X17229143Y1540665D02*
X17071428Y1461808D01*
X17071428Y1461808D02*
X16913714Y1304094D01*
X16913714Y1304094D02*
X16834857Y988665D01*
X16834857Y988665D02*
X16834857Y436665D01*
X16834857Y436665D02*
X16913714Y121237D01*
X16913714Y121237D02*
X17071428Y-36477D01*
X17071428Y-36477D02*
X17229143Y-115334D01*
X17229143Y-115334D02*
X17544571Y-115334D01*
X17544571Y-115334D02*
X17702286Y-36477D01*
X17702286Y-36477D02*
X17860000Y121237D01*
X17860000Y121237D02*
X17938857Y436665D01*
X17938857Y436665D02*
X17938857Y988665D01*
X17938857Y988665D02*
X17860000Y1304094D01*
X17860000Y1304094D02*
X17702286Y1461808D01*
X17702286Y1461808D02*
X17544571Y1540665D01*
X15415429Y988665D02*
X15415429Y-115334D01*
X15809714Y1619523D02*
X16204000Y436665D01*
X16204000Y436665D02*
X15178857Y436665D01*
X13838286Y1540665D02*
X14153714Y1540665D01*
X14153714Y1540665D02*
X14311428Y1461808D01*
X14311428Y1461808D02*
X14390286Y1382951D01*
X14390286Y1382951D02*
X14548000Y1146380D01*
X14548000Y1146380D02*
X14626857Y830951D01*
X14626857Y830951D02*
X14626857Y200094D01*
X14626857Y200094D02*
X14548000Y42380D01*
X14548000Y42380D02*
X14469143Y-36477D01*
X14469143Y-36477D02*
X14311428Y-115334D01*
X14311428Y-115334D02*
X13996000Y-115334D01*
X13996000Y-115334D02*
X13838286Y-36477D01*
X13838286Y-36477D02*
X13759428Y42380D01*
X13759428Y42380D02*
X13680571Y200094D01*
X13680571Y200094D02*
X13680571Y594380D01*
X13680571Y594380D02*
X13759428Y752094D01*
X13759428Y752094D02*
X13838286Y830951D01*
X13838286Y830951D02*
X13996000Y909808D01*
X13996000Y909808D02*
X14311428Y909808D01*
X14311428Y909808D02*
X14469143Y830951D01*
X14469143Y830951D02*
X14548000Y752094D01*
X14548000Y752094D02*
X14626857Y594380D01*
X-21394665Y9499714D02*
X-21394665Y10288286D01*
X-21394665Y10288286D02*
X-23050665Y10288286D01*
X-21394665Y8947715D02*
X-22498665Y8947715D01*
X-23050665Y8947715D02*
X-22971808Y9026572D01*
X-22971808Y9026572D02*
X-22892951Y8947715D01*
X-22892951Y8947715D02*
X-22971808Y8868858D01*
X-22971808Y8868858D02*
X-23050665Y8947715D01*
X-23050665Y8947715D02*
X-22892951Y8947715D01*
X-22498665Y7449430D02*
X-21158094Y7449430D01*
X-21158094Y7449430D02*
X-21000380Y7528287D01*
X-21000380Y7528287D02*
X-20921523Y7607144D01*
X-20921523Y7607144D02*
X-20842665Y7764858D01*
X-20842665Y7764858D02*
X-20842665Y8001430D01*
X-20842665Y8001430D02*
X-20921523Y8159144D01*
X-21473523Y7449430D02*
X-21394665Y7607144D01*
X-21394665Y7607144D02*
X-21394665Y7922572D01*
X-21394665Y7922572D02*
X-21473523Y8080287D01*
X-21473523Y8080287D02*
X-21552380Y8159144D01*
X-21552380Y8159144D02*
X-21710094Y8238001D01*
X-21710094Y8238001D02*
X-22183237Y8238001D01*
X-22183237Y8238001D02*
X-22340951Y8159144D01*
X-22340951Y8159144D02*
X-22419808Y8080287D01*
X-22419808Y8080287D02*
X-22498665Y7922572D01*
X-22498665Y7922572D02*
X-22498665Y7607144D01*
X-22498665Y7607144D02*
X-22419808Y7449430D01*
X-21394665Y6660858D02*
X-23050665Y6660858D01*
X-21394665Y5951144D02*
X-22262094Y5951144D01*
X-22262094Y5951144D02*
X-22419808Y6030001D01*
X-22419808Y6030001D02*
X-22498665Y6187715D01*
X-22498665Y6187715D02*
X-22498665Y6424286D01*
X-22498665Y6424286D02*
X-22419808Y6582001D01*
X-22419808Y6582001D02*
X-22340951Y6660858D01*
X-22498665Y5399143D02*
X-22498665Y4768286D01*
X-23050665Y5162572D02*
X-21631237Y5162572D01*
X-21631237Y5162572D02*
X-21473523Y5083715D01*
X-21473523Y5083715D02*
X-21394665Y4926000D01*
X-21394665Y4926000D02*
X-21394665Y4768286D01*
X-21473523Y4295143D02*
X-21394665Y4058572D01*
X-21394665Y4058572D02*
X-21394665Y3664286D01*
X-21394665Y3664286D02*
X-21473523Y3506572D01*
X-21473523Y3506572D02*
X-21552380Y3427714D01*
X-21552380Y3427714D02*
X-21710094Y3348857D01*
X-21710094Y3348857D02*
X-21867808Y3348857D01*
X-21867808Y3348857D02*
X-22025523Y3427714D01*
X-22025523Y3427714D02*
X-22104380Y3506572D01*
X-22104380Y3506572D02*
X-22183237Y3664286D01*
X-22183237Y3664286D02*
X-22262094Y3979714D01*
X-22262094Y3979714D02*
X-22340951Y4137429D01*
X-22340951Y4137429D02*
X-22419808Y4216286D01*
X-22419808Y4216286D02*
X-22577523Y4295143D01*
X-22577523Y4295143D02*
X-22735237Y4295143D01*
X-22735237Y4295143D02*
X-22892951Y4216286D01*
X-22892951Y4216286D02*
X-22971808Y4137429D01*
X-22971808Y4137429D02*
X-23050665Y3979714D01*
X-23050665Y3979714D02*
X-23050665Y3585429D01*
X-23050665Y3585429D02*
X-22971808Y3348857D01*
X-22498665Y2639143D02*
X-20842665Y2639143D01*
X-22419808Y2639143D02*
X-22498665Y2481429D01*
X-22498665Y2481429D02*
X-22498665Y2166000D01*
X-22498665Y2166000D02*
X-22419808Y2008286D01*
X-22419808Y2008286D02*
X-22340951Y1929429D01*
X-22340951Y1929429D02*
X-22183237Y1850571D01*
X-22183237Y1850571D02*
X-21710094Y1850571D01*
X-21710094Y1850571D02*
X-21552380Y1929429D01*
X-21552380Y1929429D02*
X-21473523Y2008286D01*
X-21473523Y2008286D02*
X-21394665Y2166000D01*
X-21394665Y2166000D02*
X-21394665Y2481429D01*
X-21394665Y2481429D02*
X-21473523Y2639143D01*
X-21473523Y510000D02*
X-21394665Y667714D01*
X-21394665Y667714D02*
X-21394665Y983143D01*
X-21394665Y983143D02*
X-21473523Y1140857D01*
X-21473523Y1140857D02*
X-21631237Y1219714D01*
X-21631237Y1219714D02*
X-22262094Y1219714D01*
X-22262094Y1219714D02*
X-22419808Y1140857D01*
X-22419808Y1140857D02*
X-22498665Y983143D01*
X-22498665Y983143D02*
X-22498665Y667714D01*
X-22498665Y667714D02*
X-22419808Y510000D01*
X-22419808Y510000D02*
X-22262094Y431143D01*
X-22262094Y431143D02*
X-22104380Y431143D01*
X-22104380Y431143D02*
X-21946665Y1219714D01*
X-21473523Y-909428D02*
X-21394665Y-751714D01*
X-21394665Y-751714D02*
X-21394665Y-436286D01*
X-21394665Y-436286D02*
X-21473523Y-278571D01*
X-21473523Y-278571D02*
X-21631237Y-199714D01*
X-21631237Y-199714D02*
X-22262094Y-199714D01*
X-22262094Y-199714D02*
X-22419808Y-278571D01*
X-22419808Y-278571D02*
X-22498665Y-436286D01*
X-22498665Y-436286D02*
X-22498665Y-751714D01*
X-22498665Y-751714D02*
X-22419808Y-909428D01*
X-22419808Y-909428D02*
X-22262094Y-988286D01*
X-22262094Y-988286D02*
X-22104380Y-988286D01*
X-22104380Y-988286D02*
X-21946665Y-199714D01*
X-21394665Y-2407715D02*
X-23050665Y-2407715D01*
X-21473523Y-2407715D02*
X-21394665Y-2250000D01*
X-21394665Y-2250000D02*
X-21394665Y-1934572D01*
X-21394665Y-1934572D02*
X-21473523Y-1776857D01*
X-21473523Y-1776857D02*
X-21552380Y-1698000D01*
X-21552380Y-1698000D02*
X-21710094Y-1619143D01*
X-21710094Y-1619143D02*
X-22183237Y-1619143D01*
X-22183237Y-1619143D02*
X-22340951Y-1698000D01*
X-22340951Y-1698000D02*
X-22419808Y-1776857D01*
X-22419808Y-1776857D02*
X-22498665Y-1934572D01*
X-22498665Y-1934572D02*
X-22498665Y-2250000D01*
X-22498665Y-2250000D02*
X-22419808Y-2407715D01*
X-21394665Y-5404286D02*
X-22183237Y-4852286D01*
X-21394665Y-4458000D02*
X-23050665Y-4458000D01*
X-23050665Y-4458000D02*
X-23050665Y-5088857D01*
X-23050665Y-5088857D02*
X-22971808Y-5246572D01*
X-22971808Y-5246572D02*
X-22892951Y-5325429D01*
X-22892951Y-5325429D02*
X-22735237Y-5404286D01*
X-22735237Y-5404286D02*
X-22498665Y-5404286D01*
X-22498665Y-5404286D02*
X-22340951Y-5325429D01*
X-22340951Y-5325429D02*
X-22262094Y-5246572D01*
X-22262094Y-5246572D02*
X-22183237Y-5088857D01*
X-22183237Y-5088857D02*
X-22183237Y-4458000D01*
X-21394665Y-6981429D02*
X-21394665Y-6035143D01*
X-21394665Y-6508286D02*
X-23050665Y-6508286D01*
X-23050665Y-6508286D02*
X-22814094Y-6350572D01*
X-22814094Y-6350572D02*
X-22656380Y-6192857D01*
X-22656380Y-6192857D02*
X-22577523Y-6035143D01*
X-21552380Y-7691143D02*
X-21473523Y-7770000D01*
X-21473523Y-7770000D02*
X-21394665Y-7691143D01*
X-21394665Y-7691143D02*
X-21473523Y-7612286D01*
X-21473523Y-7612286D02*
X-21552380Y-7691143D01*
X-21552380Y-7691143D02*
X-21394665Y-7691143D01*
X-23050665Y-8795143D02*
X-23050665Y-8952857D01*
X-23050665Y-8952857D02*
X-22971808Y-9110571D01*
X-22971808Y-9110571D02*
X-22892951Y-9189429D01*
X-22892951Y-9189429D02*
X-22735237Y-9268286D01*
X-22735237Y-9268286D02*
X-22419808Y-9347143D01*
X-22419808Y-9347143D02*
X-22025523Y-9347143D01*
X-22025523Y-9347143D02*
X-21710094Y-9268286D01*
X-21710094Y-9268286D02*
X-21552380Y-9189429D01*
X-21552380Y-9189429D02*
X-21473523Y-9110571D01*
X-21473523Y-9110571D02*
X-21394665Y-8952857D01*
X-21394665Y-8952857D02*
X-21394665Y-8795143D01*
X-21394665Y-8795143D02*
X-21473523Y-8637429D01*
X-21473523Y-8637429D02*
X-21552380Y-8558571D01*
X-21552380Y-8558571D02*
X-21710094Y-8479714D01*
X-21710094Y-8479714D02*
X-22025523Y-8400857D01*
X-22025523Y-8400857D02*
X-22419808Y-8400857D01*
X-22419808Y-8400857D02*
X-22735237Y-8479714D01*
X-22735237Y-8479714D02*
X-22892951Y-8558571D01*
X-22892951Y-8558571D02*
X-22971808Y-8637429D01*
X-22971808Y-8637429D02*
X-23050665Y-8795143D01*
D12*
X14078384Y-22937714D02*
X13578384Y-22937714D01*
X13364098Y-23723428D02*
X14078384Y-23723428D01*
X14078384Y-23723428D02*
X14078384Y-22223428D01*
X14078384Y-22223428D02*
X13364098Y-22223428D01*
X12792669Y-23652000D02*
X12578384Y-23723428D01*
X12578384Y-23723428D02*
X12221241Y-23723428D01*
X12221241Y-23723428D02*
X12078384Y-23652000D01*
X12078384Y-23652000D02*
X12006955Y-23580571D01*
X12006955Y-23580571D02*
X11935526Y-23437714D01*
X11935526Y-23437714D02*
X11935526Y-23294857D01*
X11935526Y-23294857D02*
X12006955Y-23152000D01*
X12006955Y-23152000D02*
X12078384Y-23080571D01*
X12078384Y-23080571D02*
X12221241Y-23009142D01*
X12221241Y-23009142D02*
X12506955Y-22937714D01*
X12506955Y-22937714D02*
X12649812Y-22866285D01*
X12649812Y-22866285D02*
X12721241Y-22794857D01*
X12721241Y-22794857D02*
X12792669Y-22652000D01*
X12792669Y-22652000D02*
X12792669Y-22509142D01*
X12792669Y-22509142D02*
X12721241Y-22366285D01*
X12721241Y-22366285D02*
X12649812Y-22294857D01*
X12649812Y-22294857D02*
X12506955Y-22223428D01*
X12506955Y-22223428D02*
X12149812Y-22223428D01*
X12149812Y-22223428D02*
X11935526Y-22294857D01*
X11292670Y-23723428D02*
X11292670Y-22223428D01*
X11292670Y-22223428D02*
X10721241Y-22223428D01*
X10721241Y-22223428D02*
X10578384Y-22294857D01*
X10578384Y-22294857D02*
X10506955Y-22366285D01*
X10506955Y-22366285D02*
X10435527Y-22509142D01*
X10435527Y-22509142D02*
X10435527Y-22723428D01*
X10435527Y-22723428D02*
X10506955Y-22866285D01*
X10506955Y-22866285D02*
X10578384Y-22937714D01*
X10578384Y-22937714D02*
X10721241Y-23009142D01*
X10721241Y-23009142D02*
X11292670Y-23009142D01*
X9935527Y-22223428D02*
X9006955Y-22223428D01*
X9006955Y-22223428D02*
X9506955Y-22794857D01*
X9506955Y-22794857D02*
X9292670Y-22794857D01*
X9292670Y-22794857D02*
X9149813Y-22866285D01*
X9149813Y-22866285D02*
X9078384Y-22937714D01*
X9078384Y-22937714D02*
X9006955Y-23080571D01*
X9006955Y-23080571D02*
X9006955Y-23437714D01*
X9006955Y-23437714D02*
X9078384Y-23580571D01*
X9078384Y-23580571D02*
X9149813Y-23652000D01*
X9149813Y-23652000D02*
X9292670Y-23723428D01*
X9292670Y-23723428D02*
X9721241Y-23723428D01*
X9721241Y-23723428D02*
X9864098Y-23652000D01*
X9864098Y-23652000D02*
X9935527Y-23580571D01*
X8435527Y-22366285D02*
X8364099Y-22294857D01*
X8364099Y-22294857D02*
X8221242Y-22223428D01*
X8221242Y-22223428D02*
X7864099Y-22223428D01*
X7864099Y-22223428D02*
X7721242Y-22294857D01*
X7721242Y-22294857D02*
X7649813Y-22366285D01*
X7649813Y-22366285D02*
X7578384Y-22509142D01*
X7578384Y-22509142D02*
X7578384Y-22652000D01*
X7578384Y-22652000D02*
X7649813Y-22866285D01*
X7649813Y-22866285D02*
X8506956Y-23723428D01*
X8506956Y-23723428D02*
X7578384Y-23723428D01*
D15*
X-13029347Y-18342533D02*
X-14553157Y-18342533D01*
X-13791252Y-19104438D02*
X-13791252Y-17580628D01*
D16*
X-6089999Y-4952371D02*
X-6089999Y-5380942D01*
X-6089999Y-5380942D02*
X-6061428Y-5466657D01*
X-6061428Y-5466657D02*
X-6004285Y-5523800D01*
X-6004285Y-5523800D02*
X-5918571Y-5552371D01*
X-5918571Y-5552371D02*
X-5861428Y-5552371D01*
X-6461428Y-5209514D02*
X-6404285Y-5180942D01*
X-6404285Y-5180942D02*
X-6375714Y-5152371D01*
X-6375714Y-5152371D02*
X-6347142Y-5095228D01*
X-6347142Y-5095228D02*
X-6347142Y-5066657D01*
X-6347142Y-5066657D02*
X-6375714Y-5009514D01*
X-6375714Y-5009514D02*
X-6404285Y-4980942D01*
X-6404285Y-4980942D02*
X-6461428Y-4952371D01*
X-6461428Y-4952371D02*
X-6575714Y-4952371D01*
X-6575714Y-4952371D02*
X-6632857Y-4980942D01*
X-6632857Y-4980942D02*
X-6661428Y-5009514D01*
X-6661428Y-5009514D02*
X-6689999Y-5066657D01*
X-6689999Y-5066657D02*
X-6689999Y-5095228D01*
X-6689999Y-5095228D02*
X-6661428Y-5152371D01*
X-6661428Y-5152371D02*
X-6632857Y-5180942D01*
X-6632857Y-5180942D02*
X-6575714Y-5209514D01*
X-6575714Y-5209514D02*
X-6461428Y-5209514D01*
X-6461428Y-5209514D02*
X-6404285Y-5238085D01*
X-6404285Y-5238085D02*
X-6375714Y-5266657D01*
X-6375714Y-5266657D02*
X-6347142Y-5323800D01*
X-6347142Y-5323800D02*
X-6347142Y-5438085D01*
X-6347142Y-5438085D02*
X-6375714Y-5495228D01*
X-6375714Y-5495228D02*
X-6404285Y-5523800D01*
X-6404285Y-5523800D02*
X-6461428Y-5552371D01*
X-6461428Y-5552371D02*
X-6575714Y-5552371D01*
X-6575714Y-5552371D02*
X-6632857Y-5523800D01*
X-6632857Y-5523800D02*
X-6661428Y-5495228D01*
X-6661428Y-5495228D02*
X-6689999Y-5438085D01*
X-6689999Y-5438085D02*
X-6689999Y-5323800D01*
X-6689999Y-5323800D02*
X-6661428Y-5266657D01*
X-6661428Y-5266657D02*
X-6632857Y-5238085D01*
X-6632857Y-5238085D02*
X-6575714Y-5209514D01*
X-2159999Y22507628D02*
X-2159999Y22079057D01*
X-2159999Y22079057D02*
X-2131428Y21993342D01*
X-2131428Y21993342D02*
X-2074285Y21936200D01*
X-2074285Y21936200D02*
X-1988571Y21907628D01*
X-1988571Y21907628D02*
X-1931428Y21907628D01*
X-2388571Y22507628D02*
X-2759999Y22507628D01*
X-2759999Y22507628D02*
X-2559999Y22279057D01*
X-2559999Y22279057D02*
X-2645714Y22279057D01*
X-2645714Y22279057D02*
X-2702857Y22250485D01*
X-2702857Y22250485D02*
X-2731428Y22221914D01*
X-2731428Y22221914D02*
X-2759999Y22164771D01*
X-2759999Y22164771D02*
X-2759999Y22021914D01*
X-2759999Y22021914D02*
X-2731428Y21964771D01*
X-2731428Y21964771D02*
X-2702857Y21936200D01*
X-2702857Y21936200D02*
X-2645714Y21907628D01*
X-2645714Y21907628D02*
X-2474285Y21907628D01*
X-2474285Y21907628D02*
X-2417142Y21936200D01*
X-2417142Y21936200D02*
X-2388571Y21964771D01*
D12*
%TO.C,J8*%
X-7200000Y560000D02*
X-5270000Y560000D01*
X-7200000Y-340000D02*
X-7200000Y560000D01*
X-7190000Y-2300000D02*
X-7190000Y-3590000D01*
X-7190000Y-3590000D02*
X-6830000Y-3590000D01*
X-6830000Y-3590000D02*
X-6830000Y-4490000D01*
X-6830000Y-4490000D02*
X8780000Y-4490000D01*
X8780000Y-3630000D02*
X9170000Y-3630000D01*
X8780000Y-4490000D02*
X8780000Y-3630000D01*
X9170000Y-3630000D02*
X9170000Y-2340000D01*
X9190000Y620000D02*
X7390000Y620000D01*
X9190000Y-250000D02*
X9190000Y620000D01*
D17*
%TO.C,J3*%
X-2920000Y25260000D02*
X-2920000Y23880000D01*
X-1540000Y25260000D02*
X-2920000Y25260000D01*
X-270000Y25260000D02*
X-270000Y22500000D01*
X-270000Y25260000D02*
X4920000Y25260000D01*
X-270000Y22500000D02*
X4920000Y22500000D01*
X4920000Y25260000D02*
X4920000Y22500000D01*
%TD*%
M02*
