%TF.GenerationSoftware,KiCad,Pcbnew,9.0.5*%
%TF.CreationDate,2025-10-14T15:47:48-07:00*%
%TF.ProjectId,lightspeed_r1,6c696768-7473-4706-9565-645f72312e6b,rev?*%
%TF.SameCoordinates,Original*%
%TF.FileFunction,Paste,Top*%
%TF.FilePolarity,Positive*%
%FSLAX46Y46*%
G04 Gerber Fmt 4.6, Leading zero omitted, Abs format (unit mm)*
G04 Created by KiCad (PCBNEW 9.0.5) date 2025-10-14 15:47:48*
%MOMM*%
%LPD*%
G01*
G04 APERTURE LIST*
G04 Aperture macros list*
%AMRoundRect*
0 Rectangle with rounded corners*
0 $1 Rounding radius*
0 $2 $3 $4 $5 $6 $7 $8 $9 X,Y pos of 4 corners*
0 Add a 4 corners polygon primitive as box body*
4,1,4,$2,$3,$4,$5,$6,$7,$8,$9,$2,$3,0*
0 Add four circle primitives for the rounded corners*
1,1,$1+$1,$2,$3*
1,1,$1+$1,$4,$5*
1,1,$1+$1,$6,$7*
1,1,$1+$1,$8,$9*
0 Add four rect primitives between the rounded corners*
20,1,$1+$1,$2,$3,$4,$5,0*
20,1,$1+$1,$4,$5,$6,$7,0*
20,1,$1+$1,$6,$7,$8,$9,0*
20,1,$1+$1,$8,$9,$2,$3,0*%
G04 Aperture macros list end*
%ADD10RoundRect,0.135000X-0.185000X0.135000X-0.185000X-0.135000X0.185000X-0.135000X0.185000X0.135000X0*%
%ADD11R,0.482600X1.117600*%
%ADD12RoundRect,0.150000X-0.150000X-0.200000X0.150000X-0.200000X0.150000X0.200000X-0.150000X0.200000X0*%
%ADD13R,1.230000X1.360000*%
%ADD14RoundRect,0.140000X0.170000X-0.140000X0.170000X0.140000X-0.170000X0.140000X-0.170000X-0.140000X0*%
%ADD15RoundRect,0.200000X0.200000X0.275000X-0.200000X0.275000X-0.200000X-0.275000X0.200000X-0.275000X0*%
%ADD16RoundRect,0.135000X0.135000X0.185000X-0.135000X0.185000X-0.135000X-0.185000X0.135000X-0.185000X0*%
%ADD17RoundRect,0.140000X-0.170000X0.140000X-0.170000X-0.140000X0.170000X-0.140000X0.170000X0.140000X0*%
%ADD18RoundRect,0.140000X-0.140000X-0.170000X0.140000X-0.170000X0.140000X0.170000X-0.140000X0.170000X0*%
%ADD19RoundRect,0.135000X0.185000X-0.135000X0.185000X0.135000X-0.185000X0.135000X-0.185000X-0.135000X0*%
%ADD20RoundRect,0.225000X-0.250000X0.225000X-0.250000X-0.225000X0.250000X-0.225000X0.250000X0.225000X0*%
%ADD21R,0.490000X1.160000*%
%ADD22R,0.490000X1.180000*%
%ADD23RoundRect,0.135000X-0.135000X-0.185000X0.135000X-0.185000X0.135000X0.185000X-0.135000X0.185000X0*%
%ADD24RoundRect,0.200000X0.275000X-0.200000X0.275000X0.200000X-0.275000X0.200000X-0.275000X-0.200000X0*%
%ADD25RoundRect,0.250000X-0.650000X0.325000X-0.650000X-0.325000X0.650000X-0.325000X0.650000X0.325000X0*%
%ADD26R,0.520000X0.260000*%
%ADD27RoundRect,0.140000X0.140000X0.170000X-0.140000X0.170000X-0.140000X-0.170000X0.140000X-0.170000X0*%
%ADD28RoundRect,0.232500X0.232500X-0.232500X0.232500X0.232500X-0.232500X0.232500X-0.232500X-0.232500X0*%
%ADD29RoundRect,0.062500X0.062500X-0.375000X0.062500X0.375000X-0.062500X0.375000X-0.062500X-0.375000X0*%
%ADD30RoundRect,0.062500X0.375000X-0.062500X0.375000X0.062500X-0.375000X0.062500X-0.375000X-0.062500X0*%
%ADD31RoundRect,0.150000X-0.512500X-0.150000X0.512500X-0.150000X0.512500X0.150000X-0.512500X0.150000X0*%
%ADD32RoundRect,0.182500X0.182500X-0.182500X0.182500X0.182500X-0.182500X0.182500X-0.182500X-0.182500X0*%
%ADD33RoundRect,0.075000X0.075000X-0.312500X0.075000X0.312500X-0.075000X0.312500X-0.075000X-0.312500X0*%
%ADD34RoundRect,0.075000X0.312500X-0.075000X0.312500X0.075000X-0.312500X0.075000X-0.312500X-0.075000X0*%
%ADD35RoundRect,0.225000X0.250000X-0.225000X0.250000X0.225000X-0.250000X0.225000X-0.250000X-0.225000X0*%
%ADD36R,0.550000X1.100000*%
%ADD37R,0.300000X1.100000*%
%ADD38R,0.700000X0.970000*%
%ADD39R,0.700000X0.250000*%
%ADD40RoundRect,0.225000X-0.225000X-0.250000X0.225000X-0.250000X0.225000X0.250000X-0.225000X0.250000X0*%
%ADD41RoundRect,0.200000X-0.275000X0.200000X-0.275000X-0.200000X0.275000X-0.200000X0.275000X0.200000X0*%
%ADD42RoundRect,0.218750X0.218750X0.381250X-0.218750X0.381250X-0.218750X-0.381250X0.218750X-0.381250X0*%
%ADD43RoundRect,0.150000X-0.587500X-0.150000X0.587500X-0.150000X0.587500X0.150000X-0.587500X0.150000X0*%
%ADD44R,1.600000X0.700000*%
%ADD45R,1.500000X1.200000*%
%ADD46R,2.200000X1.200000*%
%ADD47R,1.500000X1.600000*%
%ADD48R,1.300000X2.720000*%
%ADD49R,0.900000X1.500000*%
%ADD50R,1.500000X0.900000*%
%ADD51R,0.900000X0.900000*%
%ADD52R,0.800000X1.450000*%
%ADD53R,1.000000X0.900000*%
G04 APERTURE END LIST*
D10*
%TO.C,R5*%
X-500000Y7580000D03*
X-500000Y6560000D03*
%TD*%
D11*
%TO.C,U16*%
X-1835981Y6962507D03*
X-3735983Y6962507D03*
X-2785982Y4574907D03*
%TD*%
D12*
%TO.C,D4*%
X2190000Y-13020000D03*
X790000Y-13020000D03*
%TD*%
D13*
%TO.C,SW7*%
X19920000Y13480000D03*
X24280000Y13480000D03*
%TD*%
D14*
%TO.C,C15*%
X-17396875Y10765625D03*
X-17396875Y11725625D03*
%TD*%
D12*
%TO.C,D6*%
X1210000Y-11560000D03*
X-190000Y-11560000D03*
%TD*%
D11*
%TO.C,U15*%
X-1649999Y1473800D03*
X-3550001Y1473800D03*
X-2600000Y-913800D03*
%TD*%
D15*
%TO.C,R12*%
X2462500Y19880000D03*
X812500Y19880000D03*
%TD*%
D16*
%TO.C,R13*%
X14540000Y-16220000D03*
X13520000Y-16220000D03*
%TD*%
D17*
%TO.C,C21*%
X490000Y-6080000D03*
X490000Y-7040000D03*
%TD*%
D18*
%TO.C,C4*%
X-6260000Y3180000D03*
X-5300000Y3180000D03*
%TD*%
D19*
%TO.C,R24*%
X7200000Y-9787080D03*
X7200000Y-8767080D03*
%TD*%
D20*
%TO.C,C51*%
X-9030000Y-7945000D03*
X-9030000Y-9495000D03*
%TD*%
D21*
%TO.C,U4*%
X3937500Y16517500D03*
X4887500Y16517500D03*
X5837500Y16517500D03*
D22*
X5837500Y18817500D03*
X3937500Y18817500D03*
%TD*%
D23*
%TO.C,R11*%
X7310100Y-15620000D03*
X6290100Y-15620000D03*
%TD*%
D10*
%TO.C,R14*%
X720000Y-15610000D03*
X720000Y-16630000D03*
%TD*%
D24*
%TO.C,R35*%
X-18634375Y10480000D03*
X-18634375Y12130000D03*
%TD*%
D16*
%TO.C,R16*%
X15520000Y12080000D03*
X14500000Y12080000D03*
%TD*%
D14*
%TO.C,C10*%
X-20840000Y-11230000D03*
X-20840000Y-10270000D03*
%TD*%
D25*
%TO.C,C17*%
X-13000000Y-13295000D03*
X-13000000Y-16245000D03*
%TD*%
D26*
%TO.C,D7*%
X-19550000Y14790000D03*
X-18470000Y14790000D03*
%TD*%
D27*
%TO.C,C1*%
X-5500000Y-13920000D03*
X-6460000Y-13920000D03*
%TD*%
D28*
%TO.C,U13*%
X-14884375Y12195625D03*
X-13734375Y12195625D03*
X-12584375Y12195625D03*
X-14884375Y13345625D03*
X-13734375Y13345625D03*
X-12584375Y13345625D03*
X-14884375Y14495625D03*
X-13734375Y14495625D03*
X-12584375Y14495625D03*
D29*
X-15484375Y10908125D03*
X-14984375Y10908125D03*
X-14484375Y10908125D03*
X-13984375Y10908125D03*
X-13484375Y10908125D03*
X-12984375Y10908125D03*
X-12484375Y10908125D03*
X-11984375Y10908125D03*
D30*
X-11296875Y11595625D03*
X-11296875Y12095625D03*
X-11296875Y12595625D03*
X-11296875Y13095625D03*
X-11296875Y13595625D03*
X-11296875Y14095625D03*
X-11296875Y14595625D03*
X-11296875Y15095625D03*
D29*
X-11984375Y15783125D03*
X-12484375Y15783125D03*
X-12984375Y15783125D03*
X-13484375Y15783125D03*
X-13984375Y15783125D03*
X-14484375Y15783125D03*
X-14984375Y15783125D03*
X-15484375Y15783125D03*
D30*
X-16171875Y15095625D03*
X-16171875Y14595625D03*
X-16171875Y14095625D03*
X-16171875Y13595625D03*
X-16171875Y13095625D03*
X-16171875Y12595625D03*
X-16171875Y12095625D03*
X-16171875Y11595625D03*
%TD*%
D31*
%TO.C,U9*%
X-19400000Y-9320000D03*
X-19400000Y-10270000D03*
X-19400000Y-11220000D03*
X-17125000Y-11220000D03*
X-17125000Y-10270000D03*
X-17125000Y-9320000D03*
%TD*%
D18*
%TO.C,C24*%
X-17580000Y-8020000D03*
X-16620000Y-8020000D03*
%TD*%
D24*
%TO.C,R22*%
X787500Y16280000D03*
X787500Y17930000D03*
%TD*%
D14*
%TO.C,C34*%
X-5085982Y7008707D03*
X-5085982Y7968707D03*
%TD*%
D23*
%TO.C,R17*%
X12500000Y12080000D03*
X13520000Y12080000D03*
%TD*%
D17*
%TO.C,C2*%
X-3800000Y-1440000D03*
X-3800000Y-2400000D03*
%TD*%
D19*
%TO.C,R4*%
X510000Y6560000D03*
X510000Y7580000D03*
%TD*%
D13*
%TO.C,SW8*%
X19920000Y16880000D03*
X24280000Y16880000D03*
%TD*%
D14*
%TO.C,C23*%
X17390000Y12840000D03*
X17390000Y13800000D03*
%TD*%
D32*
%TO.C,U1*%
X-4250000Y-12010000D03*
X-3350000Y-12010000D03*
X-4250000Y-11110000D03*
X-3350000Y-11110000D03*
D33*
X-4550000Y-13047500D03*
X-4050000Y-13047500D03*
X-3550000Y-13047500D03*
X-3050000Y-13047500D03*
D34*
X-2312500Y-12310000D03*
X-2312500Y-11810000D03*
X-2312500Y-11310000D03*
X-2312500Y-10810000D03*
D33*
X-3050000Y-10072500D03*
X-3550000Y-10072500D03*
X-4050000Y-10072500D03*
X-4550000Y-10072500D03*
D34*
X-5287500Y-10810000D03*
X-5287500Y-11310000D03*
X-5287500Y-11810000D03*
X-5287500Y-12310000D03*
%TD*%
D14*
%TO.C,C43*%
X-5412500Y21267500D03*
X-5412500Y22227500D03*
%TD*%
D18*
%TO.C,C16*%
X-13114375Y9583125D03*
X-12154375Y9583125D03*
%TD*%
D25*
%TO.C,C12*%
X-15400000Y-13295000D03*
X-15400000Y-16245000D03*
%TD*%
D35*
%TO.C,C13*%
X7400000Y16280000D03*
X7400000Y17830000D03*
%TD*%
D32*
%TO.C,U3*%
X9862600Y-13220000D03*
X10762600Y-13220000D03*
X9862600Y-12320000D03*
X10762600Y-12320000D03*
D33*
X9562600Y-14257500D03*
X10062600Y-14257500D03*
X10562600Y-14257500D03*
X11062600Y-14257500D03*
D34*
X11800100Y-13520000D03*
X11800100Y-13020000D03*
X11800100Y-12520000D03*
X11800100Y-12020000D03*
D33*
X11062600Y-11282500D03*
X10562600Y-11282500D03*
X10062600Y-11282500D03*
X9562600Y-11282500D03*
D34*
X8825100Y-12020000D03*
X8825100Y-12520000D03*
X8825100Y-13020000D03*
X8825100Y-13520000D03*
%TD*%
D36*
%TO.C,USB1*%
X-4220000Y-18160000D03*
X-3420000Y-18160000D03*
D37*
X-2770000Y-18160000D03*
X-2270000Y-18160000D03*
X-1770000Y-18160000D03*
X-1270000Y-18160000D03*
X-770000Y-18160000D03*
X-270000Y-18160000D03*
X230000Y-18160000D03*
X730000Y-18160000D03*
D36*
X1380000Y-18160000D03*
X2180000Y-18160000D03*
%TD*%
D20*
%TO.C,C41*%
X-10549843Y-7945000D03*
X-10549843Y-9495000D03*
%TD*%
D38*
%TO.C,U12*%
X-5657500Y19535000D03*
X-5657500Y18360000D03*
X-4762500Y19535000D03*
X-4762500Y18360000D03*
D39*
X-6687500Y20147500D03*
X-6687500Y19747500D03*
X-6687500Y19347500D03*
X-6687500Y18947500D03*
X-6687500Y18547500D03*
X-6687500Y18147500D03*
X-6687500Y17747500D03*
X-3737500Y17747500D03*
X-3737500Y18147500D03*
X-3737500Y18547500D03*
X-3737500Y18947500D03*
X-3737500Y19347500D03*
X-3737500Y19747500D03*
X-3737500Y20147500D03*
%TD*%
D14*
%TO.C,C36*%
X-5244025Y1288454D03*
X-5244025Y2248454D03*
%TD*%
%TO.C,C35*%
X-6244025Y1288454D03*
X-6244025Y2248454D03*
%TD*%
%TO.C,C48*%
X400000Y3800000D03*
X400000Y4760000D03*
%TD*%
D17*
%TO.C,C47*%
X-8200000Y18060000D03*
X-8200000Y17100000D03*
%TD*%
D35*
%TO.C,C46*%
X-6662500Y21542500D03*
X-6662500Y23092500D03*
%TD*%
D25*
%TO.C,C9*%
X-20200000Y-13420000D03*
X-20200000Y-16370000D03*
%TD*%
D12*
%TO.C,D1*%
X4200000Y-16320000D03*
X2800000Y-16320000D03*
%TD*%
D14*
%TO.C,C33*%
X-6085982Y7008707D03*
X-6085982Y7968707D03*
%TD*%
D16*
%TO.C,R3*%
X-18690000Y15880000D03*
X-19710000Y15880000D03*
%TD*%
D40*
%TO.C,C5*%
X3925000Y20580000D03*
X5475000Y20580000D03*
%TD*%
D41*
%TO.C,R27*%
X-762500Y17942500D03*
X-762500Y16292500D03*
%TD*%
D12*
%TO.C,D5*%
X17620000Y-16080000D03*
X16220000Y-16080000D03*
%TD*%
D24*
%TO.C,R1*%
X-11000000Y-14970000D03*
X-11000000Y-13320000D03*
%TD*%
D13*
%TO.C,SW6*%
X-15680000Y20080000D03*
X-11320000Y20080000D03*
%TD*%
D18*
%TO.C,C27*%
X4030000Y-9670000D03*
X4990000Y-9670000D03*
%TD*%
D17*
%TO.C,C14*%
X-10034375Y16163125D03*
X-10034375Y15203125D03*
%TD*%
D42*
%TO.C,FB1*%
X8000000Y24380000D03*
X5875000Y24380000D03*
%TD*%
D43*
%TO.C,Q1*%
X21662500Y-11057500D03*
X21662500Y-12957500D03*
X23537500Y-12007500D03*
%TD*%
D44*
%TO.C,J10*%
X-8000000Y-1270000D03*
X-8000000Y-170000D03*
X-8000000Y930000D03*
X-8000000Y2030000D03*
X-8000000Y3130000D03*
X-8000000Y4230000D03*
X-8000000Y5330000D03*
X-8000000Y6430000D03*
D45*
X-9000000Y8730000D03*
D46*
X-18600000Y8730000D03*
X-18600000Y-6770000D03*
D47*
X-9000000Y-5870000D03*
D44*
X-8000000Y7530000D03*
%TD*%
D48*
%TO.C,L2*%
X-15110000Y-9850000D03*
X-12410000Y-9850000D03*
%TD*%
D17*
%TO.C,C53*%
X754734Y-1430024D03*
X754734Y-2390024D03*
%TD*%
D43*
%TO.C,Q2*%
X21662500Y-14532500D03*
X21662500Y-16432500D03*
X23537500Y-15482500D03*
%TD*%
D18*
%TO.C,C29*%
X4050000Y-8570000D03*
X5010000Y-8570000D03*
%TD*%
D23*
%TO.C,R34*%
X-10100000Y14180000D03*
X-9080000Y14180000D03*
%TD*%
D27*
%TO.C,C3*%
X7300100Y-14520000D03*
X6340100Y-14520000D03*
%TD*%
D40*
%TO.C,C18*%
X16580000Y18680000D03*
X18130000Y18680000D03*
%TD*%
D35*
%TO.C,C42*%
X2337500Y16330000D03*
X2337500Y17880000D03*
%TD*%
D18*
%TO.C,C19*%
X-19660000Y17980000D03*
X-18700000Y17980000D03*
%TD*%
D19*
%TO.C,R2*%
X-530000Y-7100000D03*
X-530000Y-6080000D03*
%TD*%
D14*
%TO.C,C56*%
X-1245266Y-2390024D03*
X-1245266Y-1430024D03*
%TD*%
D13*
%TO.C,SW3*%
X-11320000Y23680000D03*
X-15680000Y23680000D03*
%TD*%
D10*
%TO.C,R26*%
X18500000Y13830000D03*
X18500000Y12810000D03*
%TD*%
D49*
%TO.C,U14*%
X3090000Y-6970000D03*
X4360000Y-6970000D03*
X5630000Y-6970000D03*
X6900000Y-6970000D03*
X8170000Y-6970000D03*
X9440000Y-6970000D03*
X10710000Y-6970000D03*
X11980000Y-6970000D03*
X13250000Y-6970000D03*
X14520000Y-6970000D03*
X15790000Y-6970000D03*
X17060000Y-6970000D03*
X18330000Y-6970000D03*
X19600000Y-6970000D03*
D50*
X20850000Y-5205000D03*
X20850000Y-3935000D03*
X20850000Y-2665000D03*
X20850000Y-1395000D03*
X20850000Y-125000D03*
X20850000Y1145000D03*
X20850000Y2415000D03*
X20850000Y3685000D03*
X20850000Y4955000D03*
X20850000Y6225000D03*
X20850000Y7495000D03*
X20850000Y8765000D03*
D49*
X19600000Y10530000D03*
X18330000Y10530000D03*
X17060000Y10530000D03*
X15790000Y10530000D03*
X14520000Y10530000D03*
X13250000Y10530000D03*
X11980000Y10530000D03*
X10710000Y10530000D03*
X9440000Y10530000D03*
X8170000Y10530000D03*
X6900000Y10530000D03*
X5630000Y10530000D03*
X4360000Y10530000D03*
X3090000Y10530000D03*
D51*
X9410000Y-1120000D03*
X9410000Y280000D03*
X9410000Y1680000D03*
X10810000Y-1120000D03*
X10810000Y280000D03*
X10810000Y1680000D03*
X12210000Y-1120000D03*
X12210000Y280000D03*
X12210000Y1680000D03*
%TD*%
D12*
%TO.C,D3*%
X16540000Y-13640000D03*
X15140000Y-13640000D03*
%TD*%
%TO.C,D2*%
X15576931Y-12160588D03*
X14176931Y-12160588D03*
%TD*%
D27*
%TO.C,C54*%
X1160000Y2780000D03*
X200000Y2780000D03*
%TD*%
%TO.C,C22*%
X8060000Y22980000D03*
X7100000Y22980000D03*
%TD*%
D25*
%TO.C,C7*%
X-17800000Y-13420000D03*
X-17800000Y-16370000D03*
%TD*%
D52*
%TO.C,SW1*%
X-22820000Y16440000D03*
X-22820000Y9700000D03*
D53*
X-20770000Y15170000D03*
X-20770000Y10970000D03*
%TD*%
D40*
%TO.C,C8*%
X16580000Y20280000D03*
X18130000Y20280000D03*
%TD*%
D24*
%TO.C,R33*%
X-4112500Y21492500D03*
X-4112500Y23142500D03*
%TD*%
D17*
%TO.C,C45*%
X-2612500Y18577500D03*
X-2612500Y17617500D03*
%TD*%
D27*
%TO.C,C11*%
X1580000Y21180000D03*
X620000Y21180000D03*
%TD*%
D19*
%TO.C,R20*%
X20100000Y-12467500D03*
X20100000Y-11447500D03*
%TD*%
D17*
%TO.C,C26*%
X-1685982Y3940000D03*
X-1685982Y2980000D03*
%TD*%
D41*
%TO.C,R32*%
X-2362500Y21417500D03*
X-2362500Y19767500D03*
%TD*%
D24*
%TO.C,R29*%
X-6800000Y-12245000D03*
X-6800000Y-10595000D03*
%TD*%
D18*
%TO.C,C44*%
X-2992500Y16597500D03*
X-2032500Y16597500D03*
%TD*%
D23*
%TO.C,R18*%
X10580000Y12080000D03*
X11600000Y12080000D03*
%TD*%
D10*
%TO.C,R21*%
X20100000Y-15347500D03*
X20100000Y-16367500D03*
%TD*%
D36*
%TO.C,USB2*%
X7680100Y-18160000D03*
X8480100Y-18160000D03*
D37*
X9130100Y-18160000D03*
X9630100Y-18160000D03*
X10130100Y-18160000D03*
X10630100Y-18160000D03*
X11130100Y-18160000D03*
X11630100Y-18160000D03*
X12130100Y-18160000D03*
X12630100Y-18160000D03*
D36*
X13280100Y-18160000D03*
X14080100Y-18160000D03*
%TD*%
D19*
%TO.C,R25*%
X8200000Y-9787080D03*
X8200000Y-8767080D03*
%TD*%
D23*
%TO.C,R15*%
X-2840000Y-16730000D03*
X-3860000Y-16730000D03*
%TD*%
D14*
%TO.C,C57*%
X-245266Y-2370024D03*
X-245266Y-1410024D03*
%TD*%
D23*
%TO.C,R10*%
X-19720000Y16980000D03*
X-18700000Y16980000D03*
%TD*%
D25*
%TO.C,C6*%
X-22600000Y-13420000D03*
X-22600000Y-16370000D03*
%TD*%
M02*
