%TF.GenerationSoftware,KiCad,Pcbnew,9.0.5*%
%TF.CreationDate,2025-10-14T15:47:48-07:00*%
%TF.ProjectId,lightspeed_r1,6c696768-7473-4706-9565-645f72312e6b,rev?*%
%TF.SameCoordinates,Original*%
%TF.FileFunction,Copper,L2,Inr*%
%TF.FilePolarity,Positive*%
%FSLAX46Y46*%
G04 Gerber Fmt 4.6, Leading zero omitted, Abs format (unit mm)*
G04 Created by KiCad (PCBNEW 9.0.5) date 2025-10-14 15:47:48*
%MOMM*%
%LPD*%
G01*
G04 APERTURE LIST*
%TA.AperFunction,ComponentPad*%
%ADD10R,1.700000X1.700000*%
%TD*%
%TA.AperFunction,ComponentPad*%
%ADD11C,1.700000*%
%TD*%
%TA.AperFunction,ComponentPad*%
%ADD12R,1.800000X1.800000*%
%TD*%
%TA.AperFunction,ComponentPad*%
%ADD13C,1.800000*%
%TD*%
%TA.AperFunction,ComponentPad*%
%ADD14O,1.100000X2.000000*%
%TD*%
%TA.AperFunction,ComponentPad*%
%ADD15O,1.200000X1.800000*%
%TD*%
%TA.AperFunction,ComponentPad*%
%ADD16R,1.600000X1.600000*%
%TD*%
%TA.AperFunction,ComponentPad*%
%ADD17C,1.600000*%
%TD*%
%TA.AperFunction,ComponentPad*%
%ADD18C,0.450000*%
%TD*%
%TA.AperFunction,ViaPad*%
%ADD19C,0.600000*%
%TD*%
%TA.AperFunction,ViaPad*%
%ADD20C,0.700000*%
%TD*%
%TA.AperFunction,ViaPad*%
%ADD21C,6.400000*%
%TD*%
%TA.AperFunction,ViaPad*%
%ADD22C,1.000000*%
%TD*%
%TA.AperFunction,ViaPad*%
%ADD23C,0.800000*%
%TD*%
G04 APERTURE END LIST*
D10*
%TO.N,GND*%
%TO.C,J4*%
X23710000Y8370000D03*
D11*
%TO.N,GPIO48*%
X23710000Y5830000D03*
%TO.N,GPIO14*%
X23710000Y3290000D03*
%TO.N,GPIO46*%
X23710000Y750000D03*
%TO.N,GPIO3*%
X23710000Y-1790000D03*
%TO.N,GPIO20*%
X23710000Y-4330000D03*
%TD*%
D12*
%TO.N,5V*%
%TO.C,J1*%
X-13800000Y-20430000D03*
D13*
%TO.N,GND*%
X-10300000Y-20430000D03*
%TD*%
D14*
%TO.N,GND*%
%TO.C,USB1*%
X-5340000Y-18710000D03*
D15*
X-5340000Y-22920000D03*
D14*
X3300000Y-18710000D03*
D15*
X3300000Y-22920000D03*
%TD*%
D16*
%TO.N,GND*%
%TO.C,U5*%
X14672500Y15570000D03*
D17*
%TO.N,5V*%
X14672500Y18110000D03*
%TO.N,GND*%
X14672500Y20650000D03*
%TO.N,Net-(U5-+Vo)*%
X14672500Y23190000D03*
%TD*%
D18*
%TO.N,GND*%
%TO.C,U14*%
X9410000Y-420000D03*
X9410000Y980000D03*
X10110000Y-1120000D03*
X10110000Y280000D03*
X10110000Y1680000D03*
X10810000Y-420000D03*
X10810000Y980000D03*
X11510000Y-1120000D03*
X11510000Y280000D03*
X11510000Y1680000D03*
X12210000Y-420000D03*
X12210000Y980000D03*
%TD*%
D14*
%TO.N,GND*%
%TO.C,USB2*%
X6560100Y-18710000D03*
D15*
X6560100Y-22920000D03*
D14*
X15200100Y-18710000D03*
D15*
X15200100Y-22920000D03*
%TD*%
D10*
%TO.N,GND*%
%TO.C,J3*%
X-1540000Y23880000D03*
D11*
%TO.N,Net-(J3-Pin_2)*%
X1000000Y23880000D03*
%TO.N,Net-(J3-Pin_3)*%
X3540000Y23880000D03*
%TD*%
D19*
%TO.N,3V3*%
X-1300000Y7970000D03*
D20*
%TO.N,GND*%
X-5212500Y18947500D03*
D19*
X11620000Y3130000D03*
X-16300000Y17980000D03*
X19460000Y15320000D03*
D20*
X-4712500Y19747500D03*
D19*
X5090000Y7470000D03*
X-3800000Y-11560000D03*
X-4000000Y-13920000D03*
D20*
X5287500Y17667500D03*
D19*
X-6860000Y-16530000D03*
X17930000Y5690000D03*
X-9950000Y17980000D03*
X21030000Y-9120000D03*
X-4750000Y-16790000D03*
X-20650000Y3390000D03*
D21*
X22300000Y-20820000D03*
D19*
X15360000Y3790000D03*
X9950000Y-16190000D03*
X7600000Y15080000D03*
D20*
X-5712500Y18147500D03*
D21*
X-20300000Y-20820000D03*
D20*
X-5712500Y19747500D03*
X-5412500Y23067500D03*
X-13734375Y13345625D03*
D19*
X7900000Y-5040000D03*
D21*
X-20300000Y21780000D03*
D19*
X-15510000Y1810000D03*
X2250000Y-190000D03*
X50000Y-9730000D03*
D20*
X-15015625Y12064375D03*
D21*
X22300000Y21780000D03*
D19*
X1330000Y7580000D03*
D20*
X-12434375Y12083125D03*
D19*
X-15100000Y-3120000D03*
X-3740000Y-3280000D03*
X-19500000Y13890000D03*
D20*
X-4712500Y18147500D03*
D19*
X-8580000Y-13170000D03*
D20*
X-1787500Y17647500D03*
D19*
X18680000Y-10590000D03*
D20*
X-14984375Y14633125D03*
D19*
X14130000Y-300000D03*
X9330000Y8610000D03*
X-2000000Y12280000D03*
X17480000Y-4700000D03*
X4780000Y4350000D03*
X-19200000Y11280000D03*
X10190000Y-8780000D03*
X-750000Y4480000D03*
X14100000Y8510000D03*
X17990000Y23970000D03*
X8500000Y3210000D03*
X1680000Y-6370000D03*
X12700000Y-4660000D03*
X5000000Y-10440000D03*
X15260000Y-16210000D03*
X710000Y-14720000D03*
X-13000000Y6880000D03*
X-6230000Y9540000D03*
D20*
X-12465625Y14614375D03*
D19*
X3100000Y12580000D03*
X7900000Y20280000D03*
X-11700000Y-17520000D03*
X2100000Y2480000D03*
X-6720000Y12600000D03*
X-4300000Y3790000D03*
X10312600Y-12770000D03*
X-9400000Y-11010000D03*
X-5520000Y15160000D03*
X4560000Y-20940000D03*
%TO.N,/BOOT0*%
X-18750000Y13030000D03*
X-21500000Y8480000D03*
D22*
%TO.N,5V*%
X2810000Y-15100000D03*
X16240000Y-15020000D03*
D19*
X11900100Y-11282500D03*
X11700000Y-14919000D03*
X-2300000Y-10072500D03*
D22*
X-9710000Y-15210000D03*
D19*
X-2500000Y-13720000D03*
D22*
X-22005025Y-10745025D03*
D19*
%TO.N,/RTS*%
X17973554Y-11967500D03*
X19200000Y-15320000D03*
%TO.N,/DTR*%
X23500000Y-14657500D03*
X20200000Y-13357500D03*
%TO.N,CAM.RST*%
X8060000Y-10920000D03*
X1258199Y-3321801D03*
X17590000Y-8770000D03*
%TO.N,3V3*%
X10500000Y12980000D03*
X-13800000Y9180000D03*
D23*
X-7840000Y-9030000D03*
D19*
X-19900000Y-8420000D03*
X216396Y-20000D03*
X4800000Y19280000D03*
X-17400000Y10080000D03*
X12510000Y12980000D03*
X-9800000Y16880000D03*
X-12000000Y21280000D03*
X18500000Y14720000D03*
X-1680000Y4880000D03*
X-18000000Y15520000D03*
X-8300000Y18880000D03*
X-7558946Y20221054D03*
X-2870000Y-2250000D03*
X-1550000Y-7080000D03*
X15510000Y12980000D03*
X-5700000Y3972892D03*
D22*
X3130000Y-8580000D03*
D19*
X6210000Y-9060000D03*
%TO.N,UART0_TXD_ESP32*%
X12635429Y-13984571D03*
X6900000Y8880000D03*
%TO.N,UART0_RXD_ESP32*%
X8200000Y8880000D03*
X12335699Y-14625937D03*
%TO.N,I2C_SCL*%
X3339268Y-3867059D03*
%TO.N,I2C_SDA*%
X3921294Y-4430460D03*
%TO.N,2V8*%
X-3310000Y2450000D03*
X-1980000Y-1730000D03*
%TO.N,1V2*%
X-6085982Y6136743D03*
X-593968Y2728054D03*
%TO.N,USART2_RX_STM32*%
X-9900000Y11680000D03*
X-1700000Y-13820000D03*
%TO.N,USART2_TX_STM32*%
X-10151286Y11026656D03*
X-1700000Y-12920000D03*
%TO.N,USART1_TX_STM32_ESP32*%
X-13700000Y16980000D03*
X-7500000Y14280000D03*
%TO.N,USART1_RX_STM32_ESP32*%
X-12900000Y16980000D03*
X-7700000Y13480000D03*
%TO.N,CAM.PCLK*%
X1400000Y3880000D03*
X17000000Y-8120000D03*
%TO.N,CAM.PWDN*%
X1480000Y6850000D03*
X15110000Y4830000D03*
%TO.N,CAM.Y7*%
X15881801Y-8138199D03*
%TO.N,CAM.VSYNC*%
X2831801Y-3384896D03*
%TO.N,CAM.HREF*%
X2355417Y-2872000D03*
%TO.N,CAM.Y6*%
X16540000Y-2770000D03*
%TO.N,CAM.Y5*%
X18900000Y-1395000D03*
%TO.N,CAM.Y4*%
X18550000Y1150000D03*
%TO.N,CAM.Y8*%
X14520000Y-8140000D03*
%TO.N,CAM.XCLK*%
X13250000Y-8270000D03*
%TO.N,CAM.Y3*%
X18800000Y-125000D03*
%TO.N,CAM.Y2*%
X18900000Y-2665000D03*
%TO.N,CAM.Y9*%
X11980000Y-8320000D03*
%TO.N,Net-(D3-A2)*%
X14400100Y-13970000D03*
X13300100Y-12574259D03*
%TO.N,Net-(D4-A2)*%
X-1098528Y-11470001D03*
X100000Y-13020000D03*
%TO.N,CHIP_PU*%
X16100000Y7880000D03*
X18500000Y11980000D03*
%TO.N,BUTTON_WIFI*%
X-18000000Y17431782D03*
X19250000Y4940000D03*
%TO.N,STM32_RESET*%
X19220000Y6230000D03*
X10980000Y8770000D03*
%TD*%
%TA.AperFunction,Conductor*%
%TO.N,GND*%
G36*
X-2939325Y24959815D02*
G01*
X-2893570Y24907011D01*
X-2883075Y24842244D01*
X-2889999Y24777844D01*
X-2890000Y24777827D01*
X-2890000Y24130000D01*
X-1973012Y24130000D01*
X-2005925Y24072993D01*
X-2040000Y23945826D01*
X-2040000Y23814174D01*
X-2005925Y23687007D01*
X-1973012Y23630000D01*
X-2890000Y23630000D01*
X-2890000Y22982172D01*
X-2889999Y22982155D01*
X-2883598Y22922627D01*
X-2883596Y22922620D01*
X-2833354Y22787913D01*
X-2833350Y22787906D01*
X-2747190Y22672812D01*
X-2747187Y22672809D01*
X-2632093Y22586649D01*
X-2632086Y22586645D01*
X-2497379Y22536403D01*
X-2497372Y22536401D01*
X-2437844Y22530000D01*
X-1790000Y22530000D01*
X-1790000Y23446988D01*
X-1732993Y23414075D01*
X-1605826Y23380000D01*
X-1474174Y23380000D01*
X-1347007Y23414075D01*
X-1290000Y23446988D01*
X-1290000Y22530000D01*
X-642155Y22530000D01*
X-582627Y22536401D01*
X-582620Y22536403D01*
X-447913Y22586645D01*
X-447906Y22586649D01*
X-332812Y22672809D01*
X-332809Y22672812D01*
X-246649Y22787906D01*
X-246645Y22787913D01*
X-196403Y22922620D01*
X-196401Y22922627D01*
X-190000Y22982155D01*
X-190000Y23731437D01*
X-170315Y23798476D01*
X-117511Y23844231D01*
X-48353Y23854175D01*
X15203Y23825150D01*
X52977Y23766372D01*
X55617Y23755628D01*
X86025Y23602756D01*
X86027Y23602748D01*
X157676Y23429771D01*
X157681Y23429762D01*
X261697Y23274092D01*
X261700Y23274088D01*
X394088Y23141700D01*
X394092Y23141697D01*
X549762Y23037681D01*
X549771Y23037676D01*
X722748Y22966027D01*
X722756Y22966025D01*
X906379Y22929500D01*
X906384Y22929500D01*
X1093620Y22929500D01*
X1277243Y22966025D01*
X1277251Y22966027D01*
X1450228Y23037676D01*
X1450237Y23037681D01*
X1605907Y23141697D01*
X1605911Y23141700D01*
X1738299Y23274088D01*
X1738302Y23274092D01*
X1842318Y23429762D01*
X1842323Y23429771D01*
X1863087Y23479901D01*
X1913973Y23602749D01*
X1950500Y23786384D01*
X1950500Y23973616D01*
X1913973Y24157251D01*
X1842322Y24330231D01*
X1738302Y24485908D01*
X1605908Y24618302D01*
X1450231Y24722322D01*
X1405286Y24740939D01*
X1350883Y24784780D01*
X1328818Y24851074D01*
X1346097Y24918773D01*
X1397234Y24966384D01*
X1452739Y24979500D01*
X3087261Y24979500D01*
X3154300Y24959815D01*
X3200055Y24907011D01*
X3209999Y24837853D01*
X3180974Y24774297D01*
X3134714Y24740939D01*
X3089771Y24722323D01*
X3089762Y24722318D01*
X2934092Y24618302D01*
X2934088Y24618299D01*
X2801700Y24485911D01*
X2801697Y24485907D01*
X2697681Y24330237D01*
X2697676Y24330228D01*
X2626027Y24157251D01*
X2626025Y24157243D01*
X2589500Y23973620D01*
X2589500Y23786379D01*
X2626025Y23602756D01*
X2626027Y23602748D01*
X2697676Y23429771D01*
X2697681Y23429762D01*
X2801697Y23274092D01*
X2801700Y23274088D01*
X2934088Y23141700D01*
X2934092Y23141697D01*
X3089762Y23037681D01*
X3089771Y23037676D01*
X3262748Y22966027D01*
X3262756Y22966025D01*
X3446379Y22929500D01*
X3446384Y22929500D01*
X3633620Y22929500D01*
X3817243Y22966025D01*
X3817251Y22966027D01*
X3990228Y23037676D01*
X3990237Y23037681D01*
X4145907Y23141697D01*
X4145911Y23141700D01*
X4278299Y23274088D01*
X4278305Y23274096D01*
X4281378Y23278695D01*
X13772000Y23278695D01*
X13772000Y23101304D01*
X13806603Y22927341D01*
X13806606Y22927332D01*
X13874483Y22763459D01*
X13874490Y22763446D01*
X13973035Y22615965D01*
X13973038Y22615961D01*
X14098461Y22490538D01*
X14098465Y22490535D01*
X14245946Y22391990D01*
X14245959Y22391983D01*
X14409832Y22324106D01*
X14409841Y22324103D01*
X14583804Y22289500D01*
X14583809Y22289500D01*
X14761195Y22289500D01*
X14935158Y22324103D01*
X14935167Y22324106D01*
X15099040Y22391983D01*
X15099053Y22391990D01*
X15246534Y22490535D01*
X15246538Y22490538D01*
X15371961Y22615961D01*
X15371964Y22615965D01*
X15470509Y22763446D01*
X15470516Y22763459D01*
X15538393Y22927332D01*
X15538396Y22927341D01*
X15572999Y23101304D01*
X15573000Y23101306D01*
X15573000Y23278693D01*
X15572999Y23278695D01*
X15538396Y23452658D01*
X15538394Y23452661D01*
X15538394Y23452666D01*
X15470513Y23616547D01*
X15371964Y23764035D01*
X15246535Y23889464D01*
X15099047Y23988013D01*
X14935166Y24055894D01*
X14935161Y24055894D01*
X14935158Y24055896D01*
X14761194Y24090500D01*
X14761191Y24090500D01*
X14583809Y24090500D01*
X14583806Y24090500D01*
X14409841Y24055896D01*
X14409836Y24055894D01*
X14409834Y24055894D01*
X14409832Y24055893D01*
X14245959Y23988016D01*
X14245946Y23988009D01*
X14098465Y23889464D01*
X14098461Y23889461D01*
X13973038Y23764038D01*
X13973035Y23764034D01*
X13874490Y23616553D01*
X13874483Y23616540D01*
X13806606Y23452667D01*
X13806603Y23452658D01*
X13772000Y23278695D01*
X4281378Y23278695D01*
X4331477Y23353673D01*
X4331477Y23353674D01*
X4382318Y23429763D01*
X4382323Y23429771D01*
X4403087Y23479901D01*
X4453973Y23602749D01*
X4490500Y23786384D01*
X4490500Y23973616D01*
X4453973Y24157251D01*
X4382322Y24330231D01*
X4278302Y24485908D01*
X4145908Y24618302D01*
X3990231Y24722322D01*
X3945286Y24740939D01*
X3890883Y24784780D01*
X3868818Y24851074D01*
X3886097Y24918773D01*
X3937234Y24966384D01*
X3992739Y24979500D01*
X22734108Y24979500D01*
X22796519Y24979500D01*
X22803472Y24979305D01*
X23095296Y24962916D01*
X23109114Y24961359D01*
X23393827Y24912984D01*
X23407384Y24909890D01*
X23684899Y24829939D01*
X23698024Y24825346D01*
X23964834Y24714830D01*
X23977362Y24708797D01*
X24230125Y24569100D01*
X24241899Y24561702D01*
X24477430Y24394584D01*
X24488302Y24385914D01*
X24703642Y24193475D01*
X24713475Y24183642D01*
X24905914Y23968302D01*
X24914584Y23957430D01*
X25081702Y23721899D01*
X25089100Y23710125D01*
X25228797Y23457362D01*
X25234830Y23444834D01*
X25345346Y23178024D01*
X25349939Y23164899D01*
X25429890Y22887384D01*
X25432984Y22873827D01*
X25481359Y22589114D01*
X25482916Y22575296D01*
X25499305Y22283472D01*
X25499500Y22276519D01*
X25499500Y-21316519D01*
X25499305Y-21323472D01*
X25482916Y-21615296D01*
X25481359Y-21629114D01*
X25432984Y-21913827D01*
X25429890Y-21927384D01*
X25349939Y-22204899D01*
X25345346Y-22218024D01*
X25234830Y-22484834D01*
X25228797Y-22497362D01*
X25089100Y-22750125D01*
X25081702Y-22761899D01*
X24914584Y-22997430D01*
X24905914Y-23008302D01*
X24713475Y-23223642D01*
X24703642Y-23233475D01*
X24488302Y-23425914D01*
X24477430Y-23434584D01*
X24241899Y-23601702D01*
X24230125Y-23609100D01*
X23977362Y-23748797D01*
X23964834Y-23754830D01*
X23698024Y-23865346D01*
X23684899Y-23869939D01*
X23407384Y-23949890D01*
X23393827Y-23952984D01*
X23109114Y-24001359D01*
X23095296Y-24002916D01*
X22803472Y-24019305D01*
X22796519Y-24019500D01*
X16222267Y-24019500D01*
X16155228Y-23999815D01*
X16109473Y-23947011D01*
X16099529Y-23877853D01*
X16121949Y-23822614D01*
X16140903Y-23796525D01*
X16219508Y-23642257D01*
X16273014Y-23477584D01*
X16300100Y-23306571D01*
X16300100Y-23170000D01*
X15500100Y-23170000D01*
X15500100Y-22670000D01*
X16300100Y-22670000D01*
X16300100Y-22533428D01*
X16273014Y-22362415D01*
X16219508Y-22197742D01*
X16140904Y-22043475D01*
X16039132Y-21903397D01*
X15916702Y-21780967D01*
X15776624Y-21679195D01*
X15622357Y-21600591D01*
X15457689Y-21547087D01*
X15457681Y-21547085D01*
X15450100Y-21545884D01*
X15450100Y-22453012D01*
X15440160Y-22435796D01*
X15384305Y-22379941D01*
X15315896Y-22340445D01*
X15239596Y-22320001D01*
X15160604Y-22320001D01*
X15084304Y-22340445D01*
X15015895Y-22379941D01*
X14960040Y-22435796D01*
X14950100Y-22453012D01*
X14950100Y-21545884D01*
X14950099Y-21545884D01*
X14942518Y-21547085D01*
X14942510Y-21547087D01*
X14777842Y-21600591D01*
X14623575Y-21679195D01*
X14483497Y-21780967D01*
X14361067Y-21903397D01*
X14259295Y-22043475D01*
X14180691Y-22197742D01*
X14127185Y-22362415D01*
X14100100Y-22533428D01*
X14100100Y-22670000D01*
X14900100Y-22670000D01*
X14900100Y-23170000D01*
X14100100Y-23170000D01*
X14100100Y-23306571D01*
X14127185Y-23477584D01*
X14180691Y-23642257D01*
X14259296Y-23796525D01*
X14278251Y-23822614D01*
X14301731Y-23888420D01*
X14285906Y-23956474D01*
X14235800Y-24005169D01*
X14177933Y-24019500D01*
X7582267Y-24019500D01*
X7515228Y-23999815D01*
X7469473Y-23947011D01*
X7459529Y-23877853D01*
X7481949Y-23822614D01*
X7500903Y-23796525D01*
X7579508Y-23642257D01*
X7633014Y-23477584D01*
X7660100Y-23306571D01*
X7660100Y-23170000D01*
X6860100Y-23170000D01*
X6860100Y-22670000D01*
X7660100Y-22670000D01*
X7660100Y-22533428D01*
X7633014Y-22362415D01*
X7579508Y-22197742D01*
X7500904Y-22043475D01*
X7399132Y-21903397D01*
X7276702Y-21780967D01*
X7136624Y-21679195D01*
X6982357Y-21600591D01*
X6817689Y-21547087D01*
X6817681Y-21547085D01*
X6810100Y-21545884D01*
X6810100Y-22453012D01*
X6800160Y-22435796D01*
X6744305Y-22379941D01*
X6675896Y-22340445D01*
X6599596Y-22320001D01*
X6520604Y-22320001D01*
X6444304Y-22340445D01*
X6375895Y-22379941D01*
X6320040Y-22435796D01*
X6310100Y-22453012D01*
X6310100Y-21545884D01*
X6310099Y-21545884D01*
X6302518Y-21547085D01*
X6302510Y-21547087D01*
X6137842Y-21600591D01*
X5983575Y-21679195D01*
X5843497Y-21780967D01*
X5721067Y-21903397D01*
X5619295Y-22043475D01*
X5540691Y-22197742D01*
X5487185Y-22362415D01*
X5460100Y-22533428D01*
X5460100Y-22670000D01*
X6260100Y-22670000D01*
X6260100Y-23170000D01*
X5460100Y-23170000D01*
X5460100Y-23306571D01*
X5487185Y-23477584D01*
X5540691Y-23642257D01*
X5619296Y-23796525D01*
X5638251Y-23822614D01*
X5661731Y-23888420D01*
X5645906Y-23956474D01*
X5595800Y-24005169D01*
X5537933Y-24019500D01*
X4322167Y-24019500D01*
X4255128Y-23999815D01*
X4209373Y-23947011D01*
X4199429Y-23877853D01*
X4221849Y-23822614D01*
X4240803Y-23796525D01*
X4319408Y-23642257D01*
X4372914Y-23477584D01*
X4400000Y-23306571D01*
X4400000Y-23170000D01*
X3600000Y-23170000D01*
X3600000Y-22670000D01*
X4400000Y-22670000D01*
X4400000Y-22533428D01*
X4372914Y-22362415D01*
X4319408Y-22197742D01*
X4240804Y-22043475D01*
X4139032Y-21903397D01*
X4016602Y-21780967D01*
X3876524Y-21679195D01*
X3722257Y-21600591D01*
X3557589Y-21547087D01*
X3557581Y-21547085D01*
X3550000Y-21545884D01*
X3550000Y-22453012D01*
X3540060Y-22435796D01*
X3484205Y-22379941D01*
X3415796Y-22340445D01*
X3339496Y-22320001D01*
X3260504Y-22320001D01*
X3184204Y-22340445D01*
X3115795Y-22379941D01*
X3059940Y-22435796D01*
X3050000Y-22453012D01*
X3050000Y-21545884D01*
X3049999Y-21545884D01*
X3042418Y-21547085D01*
X3042410Y-21547087D01*
X2877742Y-21600591D01*
X2723475Y-21679195D01*
X2583397Y-21780967D01*
X2460967Y-21903397D01*
X2359195Y-22043475D01*
X2280591Y-22197742D01*
X2227085Y-22362415D01*
X2200000Y-22533428D01*
X2200000Y-22670000D01*
X3000000Y-22670000D01*
X3000000Y-23170000D01*
X2200000Y-23170000D01*
X2200000Y-23306571D01*
X2227085Y-23477584D01*
X2280591Y-23642257D01*
X2359196Y-23796525D01*
X2378151Y-23822614D01*
X2401631Y-23888420D01*
X2385806Y-23956474D01*
X2335700Y-24005169D01*
X2277833Y-24019500D01*
X-4317833Y-24019500D01*
X-4384872Y-23999815D01*
X-4430627Y-23947011D01*
X-4440571Y-23877853D01*
X-4418151Y-23822614D01*
X-4399196Y-23796525D01*
X-4320591Y-23642257D01*
X-4267085Y-23477584D01*
X-4240000Y-23306571D01*
X-4240000Y-23170000D01*
X-5040000Y-23170000D01*
X-5040000Y-22670000D01*
X-4240000Y-22670000D01*
X-4240000Y-22533428D01*
X-4267085Y-22362415D01*
X-4320591Y-22197742D01*
X-4399195Y-22043475D01*
X-4500967Y-21903397D01*
X-4623397Y-21780967D01*
X-4763475Y-21679195D01*
X-4917742Y-21600591D01*
X-5082410Y-21547087D01*
X-5082418Y-21547085D01*
X-5089999Y-21545884D01*
X-5090000Y-21545884D01*
X-5090000Y-22453012D01*
X-5099940Y-22435796D01*
X-5155795Y-22379941D01*
X-5224204Y-22340445D01*
X-5300504Y-22320001D01*
X-5379496Y-22320001D01*
X-5455796Y-22340445D01*
X-5524205Y-22379941D01*
X-5580060Y-22435796D01*
X-5590000Y-22453012D01*
X-5590000Y-21545884D01*
X-5597581Y-21547085D01*
X-5597589Y-21547087D01*
X-5762257Y-21600591D01*
X-5916524Y-21679195D01*
X-6056602Y-21780967D01*
X-6179032Y-21903397D01*
X-6280804Y-22043475D01*
X-6359408Y-22197742D01*
X-6412914Y-22362415D01*
X-6440000Y-22533428D01*
X-6440000Y-22670000D01*
X-5640000Y-22670000D01*
X-5640000Y-23170000D01*
X-6440000Y-23170000D01*
X-6440000Y-23306571D01*
X-6412914Y-23477584D01*
X-6359408Y-23642257D01*
X-6280803Y-23796525D01*
X-6261849Y-23822614D01*
X-6238369Y-23888420D01*
X-6254194Y-23956474D01*
X-6304300Y-24005169D01*
X-6362167Y-24019500D01*
X-20796519Y-24019500D01*
X-20803472Y-24019305D01*
X-21095296Y-24002916D01*
X-21109114Y-24001359D01*
X-21393827Y-23952984D01*
X-21407384Y-23949890D01*
X-21684900Y-23869939D01*
X-21698024Y-23865346D01*
X-21964833Y-23754831D01*
X-21977362Y-23748798D01*
X-22230125Y-23609100D01*
X-22241899Y-23601702D01*
X-22477430Y-23434584D01*
X-22488302Y-23425914D01*
X-22703642Y-23233475D01*
X-22713475Y-23223642D01*
X-22905914Y-23008302D01*
X-22914584Y-22997430D01*
X-23081702Y-22761899D01*
X-23089100Y-22750125D01*
X-23178407Y-22588537D01*
X-23228798Y-22497362D01*
X-23234831Y-22484833D01*
X-23345346Y-22218024D01*
X-23349939Y-22204900D01*
X-23429890Y-21927384D01*
X-23432984Y-21913827D01*
X-23481359Y-21629114D01*
X-23482916Y-21615296D01*
X-23499305Y-21323472D01*
X-23499500Y-21316519D01*
X-23499500Y-19520101D01*
X-14800500Y-19520101D01*
X-14800499Y-21339898D01*
X-14794669Y-21369213D01*
X-14772457Y-21402457D01*
X-14739213Y-21424669D01*
X-14709899Y-21430500D01*
X-12890102Y-21430499D01*
X-12860787Y-21424669D01*
X-12860784Y-21424667D01*
X-12827542Y-21402457D01*
X-12805332Y-21369214D01*
X-12805331Y-21369213D01*
X-12805330Y-21369211D01*
X-12805329Y-21369208D01*
X-12799500Y-21339901D01*
X-12799500Y-20910119D01*
X-12799500Y-20319818D01*
X-11700000Y-20319818D01*
X-11700000Y-20540181D01*
X-11665526Y-20757835D01*
X-11597432Y-20967410D01*
X-11497386Y-21163760D01*
X-11451066Y-21227513D01*
X-11451066Y-21227514D01*
X-10864612Y-20641060D01*
X-10859111Y-20661591D01*
X-10780119Y-20798408D01*
X-10668408Y-20910119D01*
X-10531591Y-20989111D01*
X-10511059Y-20994612D01*
X-11097514Y-21581066D01*
X-11033760Y-21627386D01*
X-10837410Y-21727432D01*
X-10627835Y-21795526D01*
X-10410181Y-21830000D01*
X-10189819Y-21830000D01*
X-9972164Y-21795526D01*
X-9762589Y-21727432D01*
X-9566243Y-21627388D01*
X-9502485Y-21581066D01*
X-9502485Y-21581065D01*
X-10088939Y-20994612D01*
X-10068409Y-20989111D01*
X-9931592Y-20910119D01*
X-9819881Y-20798408D01*
X-9740889Y-20661591D01*
X-9735387Y-20641058D01*
X-9148932Y-21227513D01*
X-9102611Y-21163756D01*
X-9002567Y-20967410D01*
X-8934473Y-20757835D01*
X-8900000Y-20540181D01*
X-8900000Y-20319818D01*
X-8934473Y-20102164D01*
X-9002567Y-19892589D01*
X-9102616Y-19696233D01*
X-9148931Y-19632485D01*
X-9148932Y-19632485D01*
X-9735387Y-20218940D01*
X-9740889Y-20198409D01*
X-9819881Y-20061592D01*
X-9931592Y-19949881D01*
X-10068409Y-19870889D01*
X-10088940Y-19865387D01*
X-9502485Y-19278932D01*
X-9502485Y-19278931D01*
X-9566233Y-19232616D01*
X-9762589Y-19132567D01*
X-9972164Y-19064473D01*
X-10182804Y-19031111D01*
X-10182804Y-19031110D01*
X-10189818Y-19030000D01*
X-10410181Y-19030000D01*
X-10627835Y-19064473D01*
X-10837410Y-19132567D01*
X-11033756Y-19232611D01*
X-11097513Y-19278932D01*
X-10511057Y-19865387D01*
X-10531591Y-19870889D01*
X-10668408Y-19949881D01*
X-10780119Y-20061592D01*
X-10859111Y-20198409D01*
X-10864612Y-20218939D01*
X-11451065Y-19632485D01*
X-11451066Y-19632485D01*
X-11497388Y-19696243D01*
X-11597432Y-19892589D01*
X-11665526Y-20102164D01*
X-11700000Y-20319818D01*
X-12799500Y-20319818D01*
X-12799501Y-19520102D01*
X-12799501Y-19520101D01*
X-12799501Y-19520097D01*
X-12805330Y-19490787D01*
X-12827542Y-19457542D01*
X-12860784Y-19435332D01*
X-12860791Y-19435329D01*
X-12890098Y-19429500D01*
X-14709894Y-19429500D01*
X-14709902Y-19429501D01*
X-14739212Y-19435330D01*
X-14772457Y-19457542D01*
X-14781972Y-19471784D01*
X-14794669Y-19490787D01*
X-14800500Y-19520101D01*
X-23499500Y-19520101D01*
X-23499500Y-18156583D01*
X-6390000Y-18156583D01*
X-6390000Y-18460000D01*
X-5640000Y-18460000D01*
X-5640000Y-18960000D01*
X-6390000Y-18960000D01*
X-6390000Y-19263417D01*
X-6389999Y-19263420D01*
X-6349651Y-19466266D01*
X-6349649Y-19466274D01*
X-6270499Y-19657358D01*
X-6270494Y-19657368D01*
X-6155589Y-19829335D01*
X-6155586Y-19829339D01*
X-6009339Y-19975586D01*
X-6009335Y-19975589D01*
X-5837368Y-20090494D01*
X-5837358Y-20090499D01*
X-5646276Y-20169648D01*
X-5646274Y-20169649D01*
X-5590000Y-20180842D01*
X-5590000Y-19326987D01*
X-5580060Y-19344204D01*
X-5524205Y-19400059D01*
X-5455796Y-19439555D01*
X-5379496Y-19459999D01*
X-5300504Y-19459999D01*
X-5224204Y-19439555D01*
X-5155795Y-19400059D01*
X-5099940Y-19344204D01*
X-5090000Y-19326987D01*
X-5090000Y-20180842D01*
X-5033725Y-20169649D01*
X-5033723Y-20169648D01*
X-4842641Y-20090499D01*
X-4842631Y-20090494D01*
X-4670664Y-19975589D01*
X-4670660Y-19975586D01*
X-4524413Y-19829339D01*
X-4524407Y-19829331D01*
X-4466357Y-19742453D01*
X-4412745Y-19697647D01*
X-4343420Y-19688940D01*
X-4285861Y-19716477D01*
X-4285166Y-19715571D01*
X-4280875Y-19718863D01*
X-4280393Y-19719094D01*
X-4279622Y-19719824D01*
X-4278719Y-19720516D01*
X-4278716Y-19720520D01*
X-4141784Y-19799577D01*
X-3989057Y-19840500D01*
X-3989055Y-19840500D01*
X-3830945Y-19840500D01*
X-3830943Y-19840500D01*
X-3678216Y-19799577D01*
X-3579273Y-19742453D01*
X-3541290Y-19720524D01*
X-3541286Y-19720521D01*
X-3541284Y-19720520D01*
X-3429480Y-19608716D01*
X-3429479Y-19608714D01*
X-3429475Y-19608709D01*
X-3350426Y-19471790D01*
X-3350423Y-19471783D01*
X-3348944Y-19466266D01*
X-3309500Y-19319057D01*
X-3309500Y-19160943D01*
X1269500Y-19160943D01*
X1269500Y-19319057D01*
X1308945Y-19466266D01*
X1310423Y-19471783D01*
X1310426Y-19471790D01*
X1389475Y-19608709D01*
X1389479Y-19608714D01*
X1389480Y-19608716D01*
X1501284Y-19720520D01*
X1501286Y-19720521D01*
X1501290Y-19720524D01*
X1539273Y-19742453D01*
X1638216Y-19799577D01*
X1790943Y-19840500D01*
X1790945Y-19840500D01*
X1949055Y-19840500D01*
X1949057Y-19840500D01*
X2101784Y-19799577D01*
X2238716Y-19720520D01*
X2238719Y-19720516D01*
X2245166Y-19715571D01*
X2246711Y-19717585D01*
X2296874Y-19690182D01*
X2366566Y-19695153D01*
X2422508Y-19737014D01*
X2426357Y-19742453D01*
X2484407Y-19829331D01*
X2484413Y-19829339D01*
X2630660Y-19975586D01*
X2630664Y-19975589D01*
X2802631Y-20090494D01*
X2802641Y-20090499D01*
X2993723Y-20169648D01*
X2993725Y-20169649D01*
X3050000Y-20180842D01*
X3050000Y-19326999D01*
X3059940Y-19344216D01*
X3115795Y-19400071D01*
X3184204Y-19439567D01*
X3260504Y-19460011D01*
X3339496Y-19460011D01*
X3415796Y-19439567D01*
X3484205Y-19400071D01*
X3540060Y-19344216D01*
X3550000Y-19326999D01*
X3550000Y-20180842D01*
X3606274Y-20169649D01*
X3606276Y-20169648D01*
X3797358Y-20090499D01*
X3797368Y-20090494D01*
X3969335Y-19975589D01*
X3969339Y-19975586D01*
X4115586Y-19829339D01*
X4115589Y-19829335D01*
X4230494Y-19657368D01*
X4230499Y-19657358D01*
X4309649Y-19466274D01*
X4309651Y-19466266D01*
X4349999Y-19263420D01*
X4350000Y-19263417D01*
X4350000Y-18960000D01*
X3600000Y-18960000D01*
X3600000Y-18460000D01*
X4350000Y-18460000D01*
X4350000Y-18156583D01*
X4349999Y-18156579D01*
X5510100Y-18156579D01*
X5510100Y-18460000D01*
X6260100Y-18460000D01*
X6260100Y-18960000D01*
X5510100Y-18960000D01*
X5510100Y-19263420D01*
X5550448Y-19466266D01*
X5550450Y-19466274D01*
X5629600Y-19657358D01*
X5629605Y-19657368D01*
X5744510Y-19829335D01*
X5744513Y-19829339D01*
X5890760Y-19975586D01*
X5890764Y-19975589D01*
X6062731Y-20090494D01*
X6062741Y-20090499D01*
X6253823Y-20169648D01*
X6253825Y-20169649D01*
X6310100Y-20180842D01*
X6310100Y-19326987D01*
X6320040Y-19344204D01*
X6375895Y-19400059D01*
X6444304Y-19439555D01*
X6520604Y-19459999D01*
X6599596Y-19459999D01*
X6675896Y-19439555D01*
X6744305Y-19400059D01*
X6800160Y-19344204D01*
X6810100Y-19326987D01*
X6810100Y-20180842D01*
X6866374Y-20169649D01*
X6866376Y-20169648D01*
X7057458Y-20090499D01*
X7057468Y-20090494D01*
X7229435Y-19975589D01*
X7229439Y-19975586D01*
X7375686Y-19829339D01*
X7375692Y-19829331D01*
X7433743Y-19742453D01*
X7487355Y-19697647D01*
X7556680Y-19688940D01*
X7614243Y-19716480D01*
X7614939Y-19715574D01*
X7619226Y-19718864D01*
X7619707Y-19719094D01*
X7620475Y-19719822D01*
X7621381Y-19720517D01*
X7621384Y-19720520D01*
X7621387Y-19720521D01*
X7621390Y-19720524D01*
X7659373Y-19742453D01*
X7758316Y-19799577D01*
X7911043Y-19840500D01*
X7911045Y-19840500D01*
X8069155Y-19840500D01*
X8069157Y-19840500D01*
X8221884Y-19799577D01*
X8358816Y-19720520D01*
X8470620Y-19608716D01*
X8549677Y-19471784D01*
X8590600Y-19319057D01*
X8590600Y-19160943D01*
X13169600Y-19160943D01*
X13169600Y-19319057D01*
X13209045Y-19466266D01*
X13210523Y-19471783D01*
X13210526Y-19471790D01*
X13289575Y-19608709D01*
X13289579Y-19608714D01*
X13289580Y-19608716D01*
X13401384Y-19720520D01*
X13401386Y-19720521D01*
X13401390Y-19720524D01*
X13439373Y-19742453D01*
X13538316Y-19799577D01*
X13691043Y-19840500D01*
X13691045Y-19840500D01*
X13849155Y-19840500D01*
X13849157Y-19840500D01*
X14001884Y-19799577D01*
X14138816Y-19720520D01*
X14138819Y-19720516D01*
X14145266Y-19715571D01*
X14146811Y-19717585D01*
X14196974Y-19690182D01*
X14266666Y-19695153D01*
X14322608Y-19737014D01*
X14326457Y-19742453D01*
X14384507Y-19829331D01*
X14384513Y-19829339D01*
X14530760Y-19975586D01*
X14530764Y-19975589D01*
X14702731Y-20090494D01*
X14702741Y-20090499D01*
X14893823Y-20169648D01*
X14893825Y-20169649D01*
X14950100Y-20180842D01*
X14950100Y-19326999D01*
X14960040Y-19344216D01*
X15015895Y-19400071D01*
X15084304Y-19439567D01*
X15160604Y-19460011D01*
X15239596Y-19460011D01*
X15315896Y-19439567D01*
X15384305Y-19400071D01*
X15440160Y-19344216D01*
X15450100Y-19326999D01*
X15450100Y-20180842D01*
X15506374Y-20169649D01*
X15506376Y-20169648D01*
X15697458Y-20090499D01*
X15697468Y-20090494D01*
X15869435Y-19975589D01*
X15869439Y-19975586D01*
X16015686Y-19829339D01*
X16015689Y-19829335D01*
X16130594Y-19657368D01*
X16130599Y-19657358D01*
X16209749Y-19466274D01*
X16209751Y-19466266D01*
X16250099Y-19263420D01*
X16250100Y-19263417D01*
X16250100Y-18960000D01*
X15500100Y-18960000D01*
X15500100Y-18460000D01*
X16250100Y-18460000D01*
X16250100Y-18156583D01*
X16250099Y-18156579D01*
X16209751Y-17953733D01*
X16209749Y-17953725D01*
X16130599Y-17762641D01*
X16130594Y-17762631D01*
X16015689Y-17590664D01*
X16015686Y-17590660D01*
X15869439Y-17444413D01*
X15869435Y-17444410D01*
X15697468Y-17329505D01*
X15697458Y-17329500D01*
X15506372Y-17250349D01*
X15506367Y-17250347D01*
X15450100Y-17239155D01*
X15450100Y-18093000D01*
X15440160Y-18075784D01*
X15384305Y-18019929D01*
X15315896Y-17980433D01*
X15239596Y-17959989D01*
X15160604Y-17959989D01*
X15084304Y-17980433D01*
X15015895Y-18019929D01*
X14960040Y-18075784D01*
X14950100Y-18093000D01*
X14950100Y-17239156D01*
X14950099Y-17239155D01*
X14893832Y-17250347D01*
X14893827Y-17250349D01*
X14702741Y-17329500D01*
X14702731Y-17329505D01*
X14530764Y-17444410D01*
X14530760Y-17444413D01*
X14384513Y-17590660D01*
X14384510Y-17590664D01*
X14269605Y-17762631D01*
X14269600Y-17762641D01*
X14190450Y-17953725D01*
X14190448Y-17953733D01*
X14150100Y-18156579D01*
X14150100Y-18558537D01*
X14130415Y-18625576D01*
X14077611Y-18671331D01*
X14008453Y-18681275D01*
X13994007Y-18678312D01*
X13910172Y-18655849D01*
X13849157Y-18639500D01*
X13691043Y-18639500D01*
X13538316Y-18680423D01*
X13538309Y-18680426D01*
X13401390Y-18759475D01*
X13401382Y-18759481D01*
X13289581Y-18871282D01*
X13289575Y-18871290D01*
X13210526Y-19008209D01*
X13210523Y-19008216D01*
X13169600Y-19160943D01*
X8590600Y-19160943D01*
X8549677Y-19008216D01*
X8521840Y-18960000D01*
X8470624Y-18871290D01*
X8470618Y-18871282D01*
X8358817Y-18759481D01*
X8358809Y-18759475D01*
X8221890Y-18680426D01*
X8221886Y-18680424D01*
X8221884Y-18680423D01*
X8069157Y-18639500D01*
X7911043Y-18639500D01*
X7766193Y-18678312D01*
X7696343Y-18676649D01*
X7638481Y-18637486D01*
X7610977Y-18573258D01*
X7610100Y-18558537D01*
X7610100Y-18156583D01*
X7610099Y-18156579D01*
X7569751Y-17953733D01*
X7569749Y-17953725D01*
X7490599Y-17762641D01*
X7490594Y-17762631D01*
X7375689Y-17590664D01*
X7375686Y-17590660D01*
X7229439Y-17444413D01*
X7229435Y-17444410D01*
X7057468Y-17329505D01*
X7057458Y-17329500D01*
X6866372Y-17250349D01*
X6866367Y-17250347D01*
X6810100Y-17239155D01*
X6810100Y-18093012D01*
X6800160Y-18075796D01*
X6744305Y-18019941D01*
X6675896Y-17980445D01*
X6599596Y-17960001D01*
X6520604Y-17960001D01*
X6444304Y-17980445D01*
X6375895Y-18019941D01*
X6320040Y-18075796D01*
X6310100Y-18093012D01*
X6310100Y-17239156D01*
X6310099Y-17239155D01*
X6253832Y-17250347D01*
X6253827Y-17250349D01*
X6062741Y-17329500D01*
X6062731Y-17329505D01*
X5890764Y-17444410D01*
X5890760Y-17444413D01*
X5744513Y-17590660D01*
X5744510Y-17590664D01*
X5629605Y-17762631D01*
X5629600Y-17762641D01*
X5550450Y-17953725D01*
X5550448Y-17953733D01*
X5510100Y-18156579D01*
X4349999Y-18156579D01*
X4309651Y-17953733D01*
X4309649Y-17953725D01*
X4230499Y-17762641D01*
X4230494Y-17762631D01*
X4115589Y-17590664D01*
X4115586Y-17590660D01*
X3969339Y-17444413D01*
X3969335Y-17444410D01*
X3797368Y-17329505D01*
X3797358Y-17329500D01*
X3606272Y-17250349D01*
X3606267Y-17250347D01*
X3550000Y-17239155D01*
X3550000Y-18093000D01*
X3540060Y-18075784D01*
X3484205Y-18019929D01*
X3415796Y-17980433D01*
X3339496Y-17959989D01*
X3260504Y-17959989D01*
X3184204Y-17980433D01*
X3115795Y-18019929D01*
X3059940Y-18075784D01*
X3050000Y-18093000D01*
X3050000Y-17239156D01*
X3049999Y-17239155D01*
X2993732Y-17250347D01*
X2993727Y-17250349D01*
X2802641Y-17329500D01*
X2802631Y-17329505D01*
X2630664Y-17444410D01*
X2630660Y-17444413D01*
X2484413Y-17590660D01*
X2484410Y-17590664D01*
X2369505Y-17762631D01*
X2369500Y-17762641D01*
X2290350Y-17953725D01*
X2290348Y-17953733D01*
X2250000Y-18156579D01*
X2250000Y-18558537D01*
X2230315Y-18625576D01*
X2177511Y-18671331D01*
X2108353Y-18681275D01*
X2093907Y-18678312D01*
X2010072Y-18655849D01*
X1949057Y-18639500D01*
X1790943Y-18639500D01*
X1638216Y-18680423D01*
X1638209Y-18680426D01*
X1501290Y-18759475D01*
X1501282Y-18759481D01*
X1389481Y-18871282D01*
X1389475Y-18871290D01*
X1310426Y-19008209D01*
X1310423Y-19008216D01*
X1269500Y-19160943D01*
X-3309500Y-19160943D01*
X-3350423Y-19008216D01*
X-3350426Y-19008209D01*
X-3429475Y-18871290D01*
X-3429481Y-18871282D01*
X-3541282Y-18759481D01*
X-3541290Y-18759475D01*
X-3678209Y-18680426D01*
X-3678216Y-18680423D01*
X-3830943Y-18639500D01*
X-3989057Y-18639500D01*
X-4050072Y-18655849D01*
X-4133907Y-18678312D01*
X-4203757Y-18676649D01*
X-4261619Y-18637486D01*
X-4289123Y-18573258D01*
X-4290000Y-18558537D01*
X-4290000Y-18156579D01*
X-4330348Y-17953733D01*
X-4330350Y-17953725D01*
X-4409500Y-17762641D01*
X-4409505Y-17762631D01*
X-4524410Y-17590664D01*
X-4524413Y-17590660D01*
X-4670660Y-17444413D01*
X-4670664Y-17444410D01*
X-4842631Y-17329505D01*
X-4842641Y-17329500D01*
X-5033727Y-17250349D01*
X-5033732Y-17250347D01*
X-5089999Y-17239155D01*
X-5090000Y-17239156D01*
X-5090000Y-18093012D01*
X-5099940Y-18075796D01*
X-5155795Y-18019941D01*
X-5224204Y-17980445D01*
X-5300504Y-17960001D01*
X-5379496Y-17960001D01*
X-5455796Y-17980445D01*
X-5524205Y-18019941D01*
X-5580060Y-18075796D01*
X-5590000Y-18093012D01*
X-5590000Y-17239155D01*
X-5646267Y-17250347D01*
X-5646272Y-17250349D01*
X-5837358Y-17329500D01*
X-5837368Y-17329505D01*
X-6009335Y-17444410D01*
X-6009339Y-17444413D01*
X-6155586Y-17590660D01*
X-6155589Y-17590664D01*
X-6270494Y-17762631D01*
X-6270499Y-17762641D01*
X-6349649Y-17953725D01*
X-6349651Y-17953733D01*
X-6389999Y-18156579D01*
X-6390000Y-18156583D01*
X-23499500Y-18156583D01*
X-23499500Y-15130943D01*
X-10310500Y-15130943D01*
X-10310500Y-15289057D01*
X-10269577Y-15441784D01*
X-10190520Y-15578716D01*
X-10078716Y-15690520D01*
X-9941784Y-15769577D01*
X-9789057Y-15810500D01*
X-9789055Y-15810500D01*
X-9630945Y-15810500D01*
X-9630943Y-15810500D01*
X-9478216Y-15769577D01*
X-9393211Y-15720500D01*
X-9341290Y-15690524D01*
X-9341286Y-15690521D01*
X-9341284Y-15690520D01*
X-9229480Y-15578716D01*
X-9229479Y-15578714D01*
X-9229475Y-15578709D01*
X-9150426Y-15441790D01*
X-9150423Y-15441783D01*
X-9136203Y-15388716D01*
X-9109500Y-15289057D01*
X-9109500Y-15130943D01*
X-9138974Y-15020943D01*
X2209500Y-15020943D01*
X2209500Y-15179057D01*
X2247132Y-15319499D01*
X2250423Y-15331783D01*
X2250426Y-15331790D01*
X2329475Y-15468709D01*
X2329479Y-15468714D01*
X2329480Y-15468716D01*
X2441284Y-15580520D01*
X2441286Y-15580521D01*
X2441290Y-15580524D01*
X2578209Y-15659573D01*
X2578216Y-15659577D01*
X2730943Y-15700500D01*
X2730945Y-15700500D01*
X2889055Y-15700500D01*
X2889057Y-15700500D01*
X3041784Y-15659577D01*
X3178716Y-15580520D01*
X3290520Y-15468716D01*
X3369577Y-15331784D01*
X3410500Y-15179057D01*
X3410500Y-15020943D01*
X3369577Y-14868216D01*
X3368455Y-14866273D01*
X11299500Y-14866273D01*
X11299500Y-14971727D01*
X11322617Y-15057999D01*
X11326793Y-15073586D01*
X11326794Y-15073589D01*
X11327082Y-15074087D01*
X11379520Y-15164913D01*
X11454087Y-15239480D01*
X11545413Y-15292207D01*
X11647273Y-15319500D01*
X11647275Y-15319500D01*
X11752725Y-15319500D01*
X11752727Y-15319500D01*
X11854587Y-15292207D01*
X11945913Y-15239480D01*
X12020480Y-15164913D01*
X12073207Y-15073587D01*
X12073207Y-15073586D01*
X12077271Y-15066548D01*
X12080581Y-15068459D01*
X12112492Y-15027659D01*
X12178458Y-15004632D01*
X12216772Y-15008699D01*
X12282972Y-15026437D01*
X12282975Y-15026437D01*
X12388424Y-15026437D01*
X12388426Y-15026437D01*
X12490286Y-14999144D01*
X12581612Y-14946417D01*
X12587086Y-14940943D01*
X15639500Y-14940943D01*
X15639500Y-15099057D01*
X15680423Y-15251782D01*
X15680423Y-15251783D01*
X15680426Y-15251790D01*
X15759475Y-15388709D01*
X15759479Y-15388714D01*
X15759480Y-15388716D01*
X15871284Y-15500520D01*
X15871286Y-15500521D01*
X15871290Y-15500524D01*
X16006725Y-15578716D01*
X16008216Y-15579577D01*
X16160943Y-15620500D01*
X16160945Y-15620500D01*
X16319055Y-15620500D01*
X16319057Y-15620500D01*
X16471784Y-15579577D01*
X16608716Y-15500520D01*
X16720520Y-15388716D01*
X16790635Y-15267273D01*
X18799500Y-15267273D01*
X18799500Y-15372727D01*
X18826793Y-15474587D01*
X18879520Y-15565913D01*
X18954087Y-15640480D01*
X19045413Y-15693207D01*
X19147273Y-15720500D01*
X19147275Y-15720500D01*
X19252725Y-15720500D01*
X19252727Y-15720500D01*
X19354587Y-15693207D01*
X19445913Y-15640480D01*
X19520480Y-15565913D01*
X19573207Y-15474587D01*
X19600500Y-15372727D01*
X19600500Y-15267273D01*
X19573207Y-15165413D01*
X19520480Y-15074087D01*
X19445913Y-14999520D01*
X19354587Y-14946793D01*
X19252727Y-14919500D01*
X19147273Y-14919500D01*
X19045413Y-14946793D01*
X19045410Y-14946794D01*
X18954085Y-14999521D01*
X18879521Y-15074085D01*
X18826794Y-15165410D01*
X18826793Y-15165413D01*
X18799500Y-15267273D01*
X16790635Y-15267273D01*
X16799577Y-15251784D01*
X16840500Y-15099057D01*
X16840500Y-14940943D01*
X16799577Y-14788216D01*
X16720520Y-14651284D01*
X16674009Y-14604773D01*
X23099500Y-14604773D01*
X23099500Y-14710227D01*
X23126793Y-14812087D01*
X23179520Y-14903413D01*
X23254087Y-14977980D01*
X23345413Y-15030707D01*
X23447273Y-15058000D01*
X23447275Y-15058000D01*
X23552725Y-15058000D01*
X23552727Y-15058000D01*
X23654587Y-15030707D01*
X23745913Y-14977980D01*
X23820480Y-14903413D01*
X23873207Y-14812087D01*
X23900500Y-14710227D01*
X23900500Y-14604773D01*
X23873207Y-14502913D01*
X23820480Y-14411587D01*
X23745913Y-14337020D01*
X23654587Y-14284293D01*
X23552727Y-14257000D01*
X23447273Y-14257000D01*
X23345413Y-14284293D01*
X23345410Y-14284294D01*
X23254085Y-14337021D01*
X23179521Y-14411585D01*
X23126794Y-14502910D01*
X23126793Y-14502913D01*
X23099500Y-14604773D01*
X16674009Y-14604773D01*
X16608716Y-14539480D01*
X16608714Y-14539479D01*
X16608709Y-14539475D01*
X16471790Y-14460426D01*
X16471786Y-14460424D01*
X16471784Y-14460423D01*
X16319057Y-14419500D01*
X16160943Y-14419500D01*
X16008216Y-14460423D01*
X16008209Y-14460426D01*
X15871290Y-14539475D01*
X15871282Y-14539481D01*
X15759481Y-14651282D01*
X15759475Y-14651290D01*
X15680426Y-14788209D01*
X15680423Y-14788216D01*
X15639500Y-14940943D01*
X12587086Y-14940943D01*
X12656179Y-14871850D01*
X12708906Y-14780524D01*
X12736199Y-14678664D01*
X12736199Y-14573210D01*
X12717762Y-14504401D01*
X12719425Y-14434553D01*
X12758588Y-14376691D01*
X12783055Y-14361977D01*
X12782977Y-14361842D01*
X12790016Y-14357778D01*
X12881342Y-14305051D01*
X12955909Y-14230484D01*
X13008636Y-14139158D01*
X13035929Y-14037298D01*
X13035929Y-13931844D01*
X13032025Y-13917273D01*
X13999600Y-13917273D01*
X13999600Y-14022727D01*
X14018485Y-14093205D01*
X14026893Y-14124586D01*
X14026894Y-14124589D01*
X14035307Y-14139160D01*
X14079620Y-14215913D01*
X14154187Y-14290480D01*
X14245513Y-14343207D01*
X14347373Y-14370500D01*
X14347375Y-14370500D01*
X14452825Y-14370500D01*
X14452827Y-14370500D01*
X14554687Y-14343207D01*
X14646013Y-14290480D01*
X14720580Y-14215913D01*
X14773307Y-14124587D01*
X14800600Y-14022727D01*
X14800600Y-13917273D01*
X14773307Y-13815413D01*
X14720580Y-13724087D01*
X14646013Y-13649520D01*
X14554687Y-13596793D01*
X14452827Y-13569500D01*
X14347373Y-13569500D01*
X14245513Y-13596793D01*
X14245510Y-13596794D01*
X14154185Y-13649521D01*
X14079621Y-13724085D01*
X14026894Y-13815410D01*
X14026893Y-13815413D01*
X13999600Y-13917273D01*
X13032025Y-13917273D01*
X13008636Y-13829984D01*
X12955909Y-13738658D01*
X12881342Y-13664091D01*
X12790016Y-13611364D01*
X12688156Y-13584071D01*
X12582702Y-13584071D01*
X12480842Y-13611364D01*
X12480839Y-13611365D01*
X12389514Y-13664092D01*
X12314950Y-13738656D01*
X12262223Y-13829981D01*
X12262222Y-13829984D01*
X12234929Y-13931844D01*
X12234929Y-14037299D01*
X12253365Y-14106105D01*
X12251702Y-14175955D01*
X12212539Y-14233817D01*
X12188073Y-14248530D01*
X12188151Y-14248666D01*
X12089784Y-14305458D01*
X12015220Y-14380022D01*
X11958428Y-14478389D01*
X11955377Y-14476627D01*
X11921518Y-14518465D01*
X11855178Y-14540391D01*
X11818920Y-14536236D01*
X11752727Y-14518500D01*
X11647273Y-14518500D01*
X11545413Y-14545793D01*
X11545410Y-14545794D01*
X11454085Y-14598521D01*
X11379521Y-14673085D01*
X11326794Y-14764410D01*
X11326793Y-14764413D01*
X11299500Y-14866273D01*
X3368455Y-14866273D01*
X3290524Y-14731290D01*
X3290518Y-14731282D01*
X3178717Y-14619481D01*
X3178709Y-14619475D01*
X3041790Y-14540426D01*
X3041786Y-14540424D01*
X3041784Y-14540423D01*
X2889057Y-14499500D01*
X2730943Y-14499500D01*
X2578216Y-14540423D01*
X2578209Y-14540426D01*
X2441290Y-14619475D01*
X2441282Y-14619481D01*
X2329481Y-14731282D01*
X2329475Y-14731290D01*
X2250426Y-14868209D01*
X2250423Y-14868216D01*
X2209500Y-15020943D01*
X-9138974Y-15020943D01*
X-9150423Y-14978216D01*
X-9150424Y-14978214D01*
X-9150426Y-14978209D01*
X-9229475Y-14841290D01*
X-9229481Y-14841282D01*
X-9341282Y-14729481D01*
X-9341290Y-14729475D01*
X-9478209Y-14650426D01*
X-9478216Y-14650423D01*
X-9630943Y-14609500D01*
X-9789057Y-14609500D01*
X-9941784Y-14650423D01*
X-9941786Y-14650424D01*
X-9941790Y-14650426D01*
X-10078709Y-14729475D01*
X-10078717Y-14729481D01*
X-10190518Y-14841282D01*
X-10190524Y-14841290D01*
X-10235678Y-14919500D01*
X-10269577Y-14978216D01*
X-10310500Y-15130943D01*
X-23499500Y-15130943D01*
X-23499500Y-13667273D01*
X-2900500Y-13667273D01*
X-2900500Y-13772727D01*
X-2873207Y-13874587D01*
X-2820480Y-13965913D01*
X-2745913Y-14040480D01*
X-2654587Y-14093207D01*
X-2552727Y-14120500D01*
X-2552725Y-14120500D01*
X-2447275Y-14120500D01*
X-2447273Y-14120500D01*
X-2345413Y-14093207D01*
X-2254087Y-14040480D01*
X-2229563Y-14015956D01*
X-2168240Y-13982471D01*
X-2098548Y-13987455D01*
X-2042615Y-14029327D01*
X-2034500Y-14041628D01*
X-2020480Y-14065913D01*
X-1945913Y-14140480D01*
X-1854587Y-14193207D01*
X-1752727Y-14220500D01*
X-1752725Y-14220500D01*
X-1647275Y-14220500D01*
X-1647273Y-14220500D01*
X-1545413Y-14193207D01*
X-1454087Y-14140480D01*
X-1379520Y-14065913D01*
X-1326793Y-13974587D01*
X-1299500Y-13872727D01*
X-1299500Y-13767273D01*
X-1326793Y-13665413D01*
X-1326794Y-13665410D01*
X-1379521Y-13574085D01*
X-1454084Y-13499522D01*
X-1456086Y-13498366D01*
X-1492425Y-13477385D01*
X-1540639Y-13426820D01*
X-1553861Y-13358212D01*
X-1527893Y-13293348D01*
X-1492426Y-13262615D01*
X-1454087Y-13240480D01*
X-1379520Y-13165913D01*
X-1326793Y-13074587D01*
X-1299500Y-12972727D01*
X-1299500Y-12967273D01*
X-300500Y-12967273D01*
X-300500Y-13072727D01*
X-273207Y-13174587D01*
X-220480Y-13265913D01*
X-145913Y-13340480D01*
X-54587Y-13393207D01*
X47273Y-13420500D01*
X47275Y-13420500D01*
X152725Y-13420500D01*
X152727Y-13420500D01*
X254587Y-13393207D01*
X345913Y-13340480D01*
X381620Y-13304773D01*
X19799500Y-13304773D01*
X19799500Y-13410227D01*
X19826793Y-13512087D01*
X19879520Y-13603413D01*
X19954087Y-13677980D01*
X20045413Y-13730707D01*
X20147273Y-13758000D01*
X20147275Y-13758000D01*
X20252725Y-13758000D01*
X20252727Y-13758000D01*
X20354587Y-13730707D01*
X20445913Y-13677980D01*
X20520480Y-13603413D01*
X20573207Y-13512087D01*
X20600500Y-13410227D01*
X20600500Y-13304773D01*
X20573207Y-13202913D01*
X20520480Y-13111587D01*
X20445913Y-13037020D01*
X20354587Y-12984293D01*
X20252727Y-12957000D01*
X20147273Y-12957000D01*
X20045413Y-12984293D01*
X20045410Y-12984294D01*
X19954085Y-13037021D01*
X19879521Y-13111585D01*
X19826794Y-13202910D01*
X19826793Y-13202913D01*
X19799500Y-13304773D01*
X381620Y-13304773D01*
X420480Y-13265913D01*
X435165Y-13240478D01*
X438533Y-13234645D01*
X456853Y-13202913D01*
X473207Y-13174587D01*
X500500Y-13072727D01*
X500500Y-12967273D01*
X473207Y-12865413D01*
X420480Y-12774087D01*
X345913Y-12699520D01*
X254587Y-12646793D01*
X152727Y-12619500D01*
X47273Y-12619500D01*
X-54587Y-12646793D01*
X-145913Y-12699520D01*
X-220480Y-12774087D01*
X-273207Y-12865413D01*
X-300500Y-12967273D01*
X-1299500Y-12967273D01*
X-1299500Y-12867273D01*
X-1326793Y-12765413D01*
X-1326794Y-12765410D01*
X-1379521Y-12674085D01*
X-1454085Y-12599521D01*
X-1545410Y-12546794D01*
X-1545413Y-12546793D01*
X-1639689Y-12521532D01*
X12899600Y-12521532D01*
X12899600Y-12626986D01*
X12926893Y-12728846D01*
X12979620Y-12820172D01*
X13054187Y-12894739D01*
X13145513Y-12947466D01*
X13247373Y-12974759D01*
X13247375Y-12974759D01*
X13352825Y-12974759D01*
X13352827Y-12974759D01*
X13454687Y-12947466D01*
X13546013Y-12894739D01*
X13620580Y-12820172D01*
X13673307Y-12728846D01*
X13700600Y-12626986D01*
X13700600Y-12521532D01*
X13673307Y-12419672D01*
X13620580Y-12328346D01*
X13546013Y-12253779D01*
X13454687Y-12201052D01*
X13352827Y-12173759D01*
X13247373Y-12173759D01*
X13145513Y-12201052D01*
X13145510Y-12201053D01*
X13054185Y-12253780D01*
X12979621Y-12328344D01*
X12926894Y-12419669D01*
X12926893Y-12419672D01*
X12899600Y-12521532D01*
X-1639689Y-12521532D01*
X-1647273Y-12519500D01*
X-1752727Y-12519500D01*
X-1854587Y-12546793D01*
X-1945913Y-12599520D01*
X-2020480Y-12674087D01*
X-2073207Y-12765413D01*
X-2100500Y-12867273D01*
X-2100500Y-12972727D01*
X-2073207Y-13074587D01*
X-2020480Y-13165913D01*
X-1945913Y-13240480D01*
X-1907574Y-13262614D01*
X-1884467Y-13286848D01*
X-1860779Y-13310509D01*
X-1860444Y-13312042D01*
X-1859361Y-13313179D01*
X-1853020Y-13346074D01*
X-1845887Y-13378774D01*
X-1846434Y-13380243D01*
X-1846137Y-13381786D01*
X-1858582Y-13412872D01*
X-1870265Y-13444252D01*
X-1871629Y-13445464D01*
X-1872105Y-13446651D01*
X-1895207Y-13469224D01*
X-1901137Y-13473668D01*
X-1945913Y-13499520D01*
X-1976685Y-13530292D01*
X-1983748Y-13535586D01*
X-2008539Y-13544849D01*
X-2031759Y-13557528D01*
X-2040751Y-13556884D01*
X-2049198Y-13560041D01*
X-2075057Y-13554431D01*
X-2101451Y-13552544D01*
X-2108669Y-13547140D01*
X-2117480Y-13545229D01*
X-2136201Y-13526529D01*
X-2157384Y-13510672D01*
X-2165502Y-13498366D01*
X-2179521Y-13474085D01*
X-2254085Y-13399521D01*
X-2345410Y-13346794D01*
X-2345413Y-13346793D01*
X-2447273Y-13319500D01*
X-2552727Y-13319500D01*
X-2654587Y-13346793D01*
X-2745913Y-13399520D01*
X-2820480Y-13474087D01*
X-2873207Y-13565413D01*
X-2900500Y-13667273D01*
X-23499500Y-13667273D01*
X-23499500Y-11914773D01*
X17573054Y-11914773D01*
X17573054Y-12020227D01*
X17600347Y-12122087D01*
X17653074Y-12213413D01*
X17727641Y-12287980D01*
X17818967Y-12340707D01*
X17920827Y-12368000D01*
X17920829Y-12368000D01*
X18026279Y-12368000D01*
X18026281Y-12368000D01*
X18128141Y-12340707D01*
X18219467Y-12287980D01*
X18294034Y-12213413D01*
X18346761Y-12122087D01*
X18374054Y-12020227D01*
X18374054Y-11914773D01*
X18346761Y-11812913D01*
X18294034Y-11721587D01*
X18219467Y-11647020D01*
X18128141Y-11594293D01*
X18026281Y-11567000D01*
X17920827Y-11567000D01*
X17818967Y-11594293D01*
X17818964Y-11594294D01*
X17727639Y-11647021D01*
X17653075Y-11721585D01*
X17600348Y-11812910D01*
X17600347Y-11812913D01*
X17573054Y-11914773D01*
X-23499500Y-11914773D01*
X-23499500Y-11417274D01*
X-1499028Y-11417274D01*
X-1499028Y-11522728D01*
X-1471735Y-11624588D01*
X-1419008Y-11715914D01*
X-1344441Y-11790481D01*
X-1253115Y-11843208D01*
X-1151255Y-11870501D01*
X-1151253Y-11870501D01*
X-1045803Y-11870501D01*
X-1045801Y-11870501D01*
X-943941Y-11843208D01*
X-852615Y-11790481D01*
X-778048Y-11715914D01*
X-725321Y-11624588D01*
X-698028Y-11522728D01*
X-698028Y-11417274D01*
X-725321Y-11315414D01*
X-725322Y-11315411D01*
X-778049Y-11224086D01*
X-852613Y-11149522D01*
X-943938Y-11096795D01*
X-943941Y-11096794D01*
X-1045801Y-11069501D01*
X-1151255Y-11069501D01*
X-1253115Y-11096794D01*
X-1344441Y-11149521D01*
X-1419008Y-11224088D01*
X-1471735Y-11315414D01*
X-1499028Y-11417274D01*
X-23499500Y-11417274D01*
X-23499500Y-10665968D01*
X-22605525Y-10665968D01*
X-22605525Y-10824082D01*
X-22564602Y-10976809D01*
X-22485545Y-11113741D01*
X-22373741Y-11225545D01*
X-22236809Y-11304602D01*
X-22084082Y-11345525D01*
X-22084080Y-11345525D01*
X-21925970Y-11345525D01*
X-21925968Y-11345525D01*
X-21773241Y-11304602D01*
X-21772198Y-11304000D01*
X-21768316Y-11301759D01*
X-21636312Y-11225547D01*
X-21636310Y-11225546D01*
X-21636309Y-11225545D01*
X-21524505Y-11113741D01*
X-21524504Y-11113739D01*
X-21524500Y-11113734D01*
X-21445451Y-10976815D01*
X-21445448Y-10976810D01*
X-21416098Y-10867273D01*
X7659500Y-10867273D01*
X7659500Y-10972727D01*
X7686793Y-11074587D01*
X7739520Y-11165913D01*
X7814087Y-11240480D01*
X7905413Y-11293207D01*
X8007273Y-11320500D01*
X8007275Y-11320500D01*
X8112725Y-11320500D01*
X8112727Y-11320500D01*
X8214587Y-11293207D01*
X8305913Y-11240480D01*
X8316620Y-11229773D01*
X11499600Y-11229773D01*
X11499600Y-11335227D01*
X11526893Y-11437087D01*
X11579620Y-11528413D01*
X11654187Y-11602980D01*
X11745513Y-11655707D01*
X11847373Y-11683000D01*
X11847375Y-11683000D01*
X11952825Y-11683000D01*
X11952827Y-11683000D01*
X12054687Y-11655707D01*
X12146013Y-11602980D01*
X12220580Y-11528413D01*
X12273307Y-11437087D01*
X12300600Y-11335227D01*
X12300600Y-11229773D01*
X12273307Y-11127913D01*
X12220580Y-11036587D01*
X12146013Y-10962020D01*
X12054687Y-10909293D01*
X11952827Y-10882000D01*
X11847373Y-10882000D01*
X11745513Y-10909293D01*
X11745510Y-10909294D01*
X11654185Y-10962021D01*
X11579621Y-11036585D01*
X11526894Y-11127910D01*
X11526893Y-11127913D01*
X11499600Y-11229773D01*
X8316620Y-11229773D01*
X8380480Y-11165913D01*
X8433207Y-11074587D01*
X8460500Y-10972727D01*
X8460500Y-10867273D01*
X8433207Y-10765413D01*
X8380480Y-10674087D01*
X8305913Y-10599520D01*
X8214587Y-10546793D01*
X8112727Y-10519500D01*
X8007273Y-10519500D01*
X7905413Y-10546793D01*
X7905410Y-10546794D01*
X7814085Y-10599521D01*
X7739521Y-10674085D01*
X7686794Y-10765410D01*
X7686793Y-10765413D01*
X7659500Y-10867273D01*
X-21416098Y-10867273D01*
X-21405321Y-10827052D01*
X-21405320Y-10827051D01*
X-21404525Y-10824084D01*
X-21404525Y-10665968D01*
X-21445448Y-10513241D01*
X-21445451Y-10513234D01*
X-21524500Y-10376315D01*
X-21524506Y-10376307D01*
X-21636307Y-10264506D01*
X-21636315Y-10264500D01*
X-21773234Y-10185451D01*
X-21773241Y-10185448D01*
X-21925968Y-10144525D01*
X-22084082Y-10144525D01*
X-22236809Y-10185448D01*
X-22236811Y-10185449D01*
X-22236815Y-10185451D01*
X-22373734Y-10264500D01*
X-22373742Y-10264506D01*
X-22485543Y-10376307D01*
X-22485549Y-10376315D01*
X-22541369Y-10473000D01*
X-22564602Y-10513241D01*
X-22605525Y-10665968D01*
X-23499500Y-10665968D01*
X-23499500Y-10019773D01*
X-2700500Y-10019773D01*
X-2700500Y-10125227D01*
X-2673207Y-10227087D01*
X-2620480Y-10318413D01*
X-2545913Y-10392980D01*
X-2454587Y-10445707D01*
X-2352727Y-10473000D01*
X-2352725Y-10473000D01*
X-2247275Y-10473000D01*
X-2247273Y-10473000D01*
X-2145413Y-10445707D01*
X-2054087Y-10392980D01*
X-1979520Y-10318413D01*
X-1926793Y-10227087D01*
X-1899500Y-10125227D01*
X-1899500Y-10019773D01*
X-1926793Y-9917913D01*
X-1926794Y-9917910D01*
X-1979521Y-9826585D01*
X-2054085Y-9752021D01*
X-2145410Y-9699294D01*
X-2145413Y-9699293D01*
X-2247273Y-9672000D01*
X-2352727Y-9672000D01*
X-2454587Y-9699293D01*
X-2545913Y-9752020D01*
X-2620480Y-9826587D01*
X-2673207Y-9917913D01*
X-2700500Y-10019773D01*
X-23499500Y-10019773D01*
X-23499500Y-8964108D01*
X-8340500Y-8964108D01*
X-8340500Y-9095892D01*
X-8306392Y-9223186D01*
X-8240500Y-9337314D01*
X-8147314Y-9430500D01*
X-8033186Y-9496392D01*
X-7905892Y-9530500D01*
X-7905890Y-9530500D01*
X-7774110Y-9530500D01*
X-7774108Y-9530500D01*
X-7646814Y-9496392D01*
X-7532686Y-9430500D01*
X-7439500Y-9337314D01*
X-7406554Y-9280250D01*
X-7373608Y-9223187D01*
X-7344011Y-9112726D01*
X-7339500Y-9095892D01*
X-7339500Y-8964108D01*
X-7343624Y-8948716D01*
X-7373608Y-8836812D01*
X-7439500Y-8722686D01*
X-7439502Y-8722683D01*
X-7532683Y-8629502D01*
X-7532686Y-8629500D01*
X-7583430Y-8600203D01*
X-7583431Y-8600201D01*
X-7646810Y-8563609D01*
X-7774108Y-8529500D01*
X-7905892Y-8529500D01*
X-7940223Y-8538699D01*
X-8033187Y-8563608D01*
X-8052206Y-8574589D01*
X-8147314Y-8629500D01*
X-8240500Y-8722686D01*
X-8306392Y-8836814D01*
X-8340500Y-8964108D01*
X-23499500Y-8964108D01*
X-23499500Y-8367273D01*
X-20300500Y-8367273D01*
X-20300500Y-8472727D01*
X-20273207Y-8574587D01*
X-20220480Y-8665913D01*
X-20145913Y-8740480D01*
X-20054587Y-8793207D01*
X-19952727Y-8820500D01*
X-19952725Y-8820500D01*
X-19847275Y-8820500D01*
X-19847273Y-8820500D01*
X-19745413Y-8793207D01*
X-19654087Y-8740480D01*
X-19579520Y-8665913D01*
X-19526793Y-8574587D01*
X-19507060Y-8500943D01*
X2529500Y-8500943D01*
X2529500Y-8659057D01*
X2565446Y-8793207D01*
X2570423Y-8811783D01*
X2570426Y-8811790D01*
X2649475Y-8948709D01*
X2649479Y-8948714D01*
X2649480Y-8948716D01*
X2761284Y-9060520D01*
X2761286Y-9060521D01*
X2761290Y-9060524D01*
X2851708Y-9112726D01*
X2898216Y-9139577D01*
X3050943Y-9180500D01*
X3050945Y-9180500D01*
X3209055Y-9180500D01*
X3209057Y-9180500D01*
X3361784Y-9139577D01*
X3498716Y-9060520D01*
X3551963Y-9007273D01*
X5809500Y-9007273D01*
X5809500Y-9112727D01*
X5836793Y-9214587D01*
X5889520Y-9305913D01*
X5964087Y-9380480D01*
X6055413Y-9433207D01*
X6157273Y-9460500D01*
X6157275Y-9460500D01*
X6262725Y-9460500D01*
X6262727Y-9460500D01*
X6364587Y-9433207D01*
X6455913Y-9380480D01*
X6530480Y-9305913D01*
X6583207Y-9214587D01*
X6610500Y-9112727D01*
X6610500Y-9007273D01*
X6583207Y-8905413D01*
X6530480Y-8814087D01*
X6455913Y-8739520D01*
X6389059Y-8700922D01*
X6364589Y-8686794D01*
X6364588Y-8686793D01*
X6364587Y-8686793D01*
X6262727Y-8659500D01*
X6157273Y-8659500D01*
X6055413Y-8686793D01*
X6055410Y-8686794D01*
X5964085Y-8739521D01*
X5889521Y-8814085D01*
X5836794Y-8905410D01*
X5836793Y-8905413D01*
X5809500Y-9007273D01*
X3551963Y-9007273D01*
X3610520Y-8948716D01*
X3689577Y-8811784D01*
X3730500Y-8659057D01*
X3730500Y-8500943D01*
X3689577Y-8348216D01*
X3642845Y-8267273D01*
X11579500Y-8267273D01*
X11579500Y-8372727D01*
X11606793Y-8474587D01*
X11659520Y-8565913D01*
X11734087Y-8640480D01*
X11825413Y-8693207D01*
X11927273Y-8720500D01*
X11927275Y-8720500D01*
X12032725Y-8720500D01*
X12032727Y-8720500D01*
X12134587Y-8693207D01*
X12225913Y-8640480D01*
X12300480Y-8565913D01*
X12353207Y-8474587D01*
X12380500Y-8372727D01*
X12380500Y-8267273D01*
X12367103Y-8217273D01*
X12849500Y-8217273D01*
X12849500Y-8322727D01*
X12876793Y-8424587D01*
X12929520Y-8515913D01*
X13004087Y-8590480D01*
X13095413Y-8643207D01*
X13197273Y-8670500D01*
X13197275Y-8670500D01*
X13302725Y-8670500D01*
X13302727Y-8670500D01*
X13404587Y-8643207D01*
X13495913Y-8590480D01*
X13570480Y-8515913D01*
X13623207Y-8424587D01*
X13650500Y-8322727D01*
X13650500Y-8217273D01*
X13623207Y-8115413D01*
X13606960Y-8087273D01*
X14119500Y-8087273D01*
X14119500Y-8192727D01*
X14146793Y-8294587D01*
X14199520Y-8385913D01*
X14274087Y-8460480D01*
X14365413Y-8513207D01*
X14467273Y-8540500D01*
X14467275Y-8540500D01*
X14572725Y-8540500D01*
X14572727Y-8540500D01*
X14674587Y-8513207D01*
X14765913Y-8460480D01*
X14840480Y-8385913D01*
X14893207Y-8294587D01*
X14920500Y-8192727D01*
X14920500Y-8087273D01*
X14920017Y-8085472D01*
X15481301Y-8085472D01*
X15481301Y-8190926D01*
X15508594Y-8292786D01*
X15561321Y-8384112D01*
X15635888Y-8458679D01*
X15727214Y-8511406D01*
X15829074Y-8538699D01*
X15829076Y-8538699D01*
X15934526Y-8538699D01*
X15934528Y-8538699D01*
X16036388Y-8511406D01*
X16127714Y-8458679D01*
X16202281Y-8384112D01*
X16255008Y-8292786D01*
X16282301Y-8190926D01*
X16282301Y-8085472D01*
X16277425Y-8067273D01*
X16599500Y-8067273D01*
X16599500Y-8172727D01*
X16626793Y-8274587D01*
X16679520Y-8365913D01*
X16754087Y-8440480D01*
X16845413Y-8493207D01*
X16947273Y-8520500D01*
X16947275Y-8520500D01*
X17052725Y-8520500D01*
X17052727Y-8520500D01*
X17052728Y-8520499D01*
X17060783Y-8519439D01*
X17061076Y-8521664D01*
X17119256Y-8523040D01*
X17177125Y-8562192D01*
X17204641Y-8626416D01*
X17201295Y-8673249D01*
X17189500Y-8717268D01*
X17189500Y-8717273D01*
X17189500Y-8822727D01*
X17211656Y-8905413D01*
X17216793Y-8924586D01*
X17216794Y-8924589D01*
X17230720Y-8948709D01*
X17269520Y-9015913D01*
X17344087Y-9090480D01*
X17435413Y-9143207D01*
X17537273Y-9170500D01*
X17537275Y-9170500D01*
X17642725Y-9170500D01*
X17642727Y-9170500D01*
X17744587Y-9143207D01*
X17835913Y-9090480D01*
X17910480Y-9015913D01*
X17963207Y-8924587D01*
X17990500Y-8822727D01*
X17990500Y-8717273D01*
X17963207Y-8615413D01*
X17910480Y-8524087D01*
X17835913Y-8449520D01*
X17744587Y-8396793D01*
X17642727Y-8369500D01*
X17537273Y-8369500D01*
X17537271Y-8369500D01*
X17529217Y-8370561D01*
X17528924Y-8368340D01*
X17470712Y-8366950D01*
X17412853Y-8327782D01*
X17385355Y-8263551D01*
X17388703Y-8216752D01*
X17400500Y-8172727D01*
X17400500Y-8067273D01*
X17373207Y-7965413D01*
X17320480Y-7874087D01*
X17245913Y-7799520D01*
X17154587Y-7746793D01*
X17052727Y-7719500D01*
X16947273Y-7719500D01*
X16845413Y-7746793D01*
X16845410Y-7746794D01*
X16754085Y-7799521D01*
X16679521Y-7874085D01*
X16626794Y-7965410D01*
X16626793Y-7965413D01*
X16599500Y-8067273D01*
X16277425Y-8067273D01*
X16255008Y-7983612D01*
X16202281Y-7892286D01*
X16127714Y-7817719D01*
X16039509Y-7766794D01*
X16036390Y-7764993D01*
X16036389Y-7764992D01*
X16036388Y-7764992D01*
X15934528Y-7737699D01*
X15829074Y-7737699D01*
X15727214Y-7764992D01*
X15727211Y-7764993D01*
X15635886Y-7817720D01*
X15561322Y-7892284D01*
X15508595Y-7983609D01*
X15508594Y-7983612D01*
X15481301Y-8085472D01*
X14920017Y-8085472D01*
X14893207Y-7985413D01*
X14840480Y-7894087D01*
X14765913Y-7819520D01*
X14674587Y-7766793D01*
X14572727Y-7739500D01*
X14467273Y-7739500D01*
X14365413Y-7766793D01*
X14365410Y-7766794D01*
X14274085Y-7819521D01*
X14199521Y-7894085D01*
X14146794Y-7985410D01*
X14146793Y-7985413D01*
X14119500Y-8087273D01*
X13606960Y-8087273D01*
X13570480Y-8024087D01*
X13495913Y-7949520D01*
X13404587Y-7896793D01*
X13302727Y-7869500D01*
X13197273Y-7869500D01*
X13095413Y-7896793D01*
X13095410Y-7896794D01*
X13004085Y-7949521D01*
X12929521Y-8024085D01*
X12876794Y-8115410D01*
X12876794Y-8115411D01*
X12876793Y-8115413D01*
X12849500Y-8217273D01*
X12367103Y-8217273D01*
X12353207Y-8165413D01*
X12300480Y-8074087D01*
X12225913Y-7999520D01*
X12139312Y-7949521D01*
X12134589Y-7946794D01*
X12134588Y-7946793D01*
X12134587Y-7946793D01*
X12032727Y-7919500D01*
X11927273Y-7919500D01*
X11825413Y-7946793D01*
X11825410Y-7946794D01*
X11734085Y-7999521D01*
X11659521Y-8074085D01*
X11606794Y-8165410D01*
X11606793Y-8165413D01*
X11579500Y-8267273D01*
X3642845Y-8267273D01*
X3610520Y-8211284D01*
X3498716Y-8099480D01*
X3498714Y-8099479D01*
X3498709Y-8099475D01*
X3361790Y-8020426D01*
X3361786Y-8020424D01*
X3361784Y-8020423D01*
X3209057Y-7979500D01*
X3050943Y-7979500D01*
X2898216Y-8020423D01*
X2898209Y-8020426D01*
X2761290Y-8099475D01*
X2761282Y-8099481D01*
X2649481Y-8211282D01*
X2649475Y-8211290D01*
X2570426Y-8348209D01*
X2570423Y-8348216D01*
X2529500Y-8500943D01*
X-19507060Y-8500943D01*
X-19499500Y-8472727D01*
X-19499500Y-8367273D01*
X-19526793Y-8265413D01*
X-19526794Y-8265410D01*
X-19579521Y-8174085D01*
X-19654085Y-8099521D01*
X-19745410Y-8046794D01*
X-19745413Y-8046793D01*
X-19847273Y-8019500D01*
X-19952727Y-8019500D01*
X-20054587Y-8046793D01*
X-20145913Y-8099520D01*
X-20220480Y-8174087D01*
X-20273207Y-8265413D01*
X-20300500Y-8367273D01*
X-23499500Y-8367273D01*
X-23499500Y-7027273D01*
X-1950500Y-7027273D01*
X-1950500Y-7132727D01*
X-1923207Y-7234587D01*
X-1870480Y-7325913D01*
X-1795913Y-7400480D01*
X-1704587Y-7453207D01*
X-1602727Y-7480500D01*
X-1602725Y-7480500D01*
X-1497275Y-7480500D01*
X-1497273Y-7480500D01*
X-1395413Y-7453207D01*
X-1304087Y-7400480D01*
X-1229520Y-7325913D01*
X-1176793Y-7234587D01*
X-1149500Y-7132727D01*
X-1149500Y-7027273D01*
X-1176793Y-6925413D01*
X-1176794Y-6925410D01*
X-1229521Y-6834085D01*
X-1304085Y-6759521D01*
X-1395410Y-6706794D01*
X-1395413Y-6706793D01*
X-1497273Y-6679500D01*
X-1602727Y-6679500D01*
X-1704587Y-6706793D01*
X-1795913Y-6759520D01*
X-1870480Y-6834087D01*
X-1923207Y-6925413D01*
X-1950500Y-7027273D01*
X-23499500Y-7027273D01*
X-23499500Y-3269074D01*
X857699Y-3269074D01*
X857699Y-3374528D01*
X884992Y-3476388D01*
X937719Y-3567714D01*
X1012286Y-3642281D01*
X1103612Y-3695008D01*
X1205472Y-3722301D01*
X1205474Y-3722301D01*
X1310924Y-3722301D01*
X1310926Y-3722301D01*
X1412786Y-3695008D01*
X1504112Y-3642281D01*
X1578679Y-3567714D01*
X1631406Y-3476388D01*
X1658699Y-3374528D01*
X1658699Y-3269074D01*
X1631406Y-3167214D01*
X1578679Y-3075888D01*
X1504112Y-3001321D01*
X1412786Y-2948594D01*
X1310926Y-2921301D01*
X1205472Y-2921301D01*
X1103612Y-2948594D01*
X1103609Y-2948595D01*
X1012284Y-3001322D01*
X937720Y-3075886D01*
X884993Y-3167211D01*
X884992Y-3167214D01*
X857699Y-3269074D01*
X-23499500Y-3269074D01*
X-23499500Y-1986233D01*
X-19850500Y-1986233D01*
X-19850500Y-2153767D01*
X-19817816Y-2318082D01*
X-19753703Y-2472863D01*
X-19660626Y-2612162D01*
X-19542162Y-2730626D01*
X-19402863Y-2823703D01*
X-19248082Y-2887816D01*
X-19083769Y-2920499D01*
X-19083768Y-2920500D01*
X-19083767Y-2920500D01*
X-18916232Y-2920500D01*
X-18916228Y-2920499D01*
X-18868041Y-2910914D01*
X-18751918Y-2887816D01*
X-18597137Y-2823703D01*
X-18590507Y-2819273D01*
X1954917Y-2819273D01*
X1954917Y-2924727D01*
X1982210Y-3026587D01*
X2034937Y-3117913D01*
X2109504Y-3192480D01*
X2200830Y-3245207D01*
X2302690Y-3272500D01*
X2302692Y-3272500D01*
X2307301Y-3272500D01*
X2374340Y-3292185D01*
X2420095Y-3344989D01*
X2431301Y-3396500D01*
X2431301Y-3437623D01*
X2458594Y-3539483D01*
X2511321Y-3630809D01*
X2585888Y-3705376D01*
X2677214Y-3758103D01*
X2779074Y-3785396D01*
X2779076Y-3785396D01*
X2814768Y-3785396D01*
X2881807Y-3805081D01*
X2927562Y-3857885D01*
X2938768Y-3909396D01*
X2938768Y-3919786D01*
X2966061Y-4021646D01*
X3018788Y-4112972D01*
X3093355Y-4187539D01*
X3184681Y-4240266D01*
X3286541Y-4267559D01*
X3286543Y-4267559D01*
X3396794Y-4267559D01*
X3463833Y-4287244D01*
X3509588Y-4340048D01*
X3520794Y-4391559D01*
X3520794Y-4483187D01*
X3548087Y-4585047D01*
X3600814Y-4676373D01*
X3675381Y-4750940D01*
X3766707Y-4803667D01*
X3868567Y-4830960D01*
X3868569Y-4830960D01*
X3974019Y-4830960D01*
X3974021Y-4830960D01*
X4075881Y-4803667D01*
X4167207Y-4750940D01*
X4241774Y-4676373D01*
X4294501Y-4585047D01*
X4321794Y-4483187D01*
X4321794Y-4377733D01*
X4294501Y-4275873D01*
X4271699Y-4236379D01*
X22759500Y-4236379D01*
X22759500Y-4423620D01*
X22796025Y-4607243D01*
X22796027Y-4607251D01*
X22867676Y-4780228D01*
X22867681Y-4780237D01*
X22971697Y-4935907D01*
X22971700Y-4935911D01*
X23104088Y-5068299D01*
X23104092Y-5068302D01*
X23259762Y-5172318D01*
X23259768Y-5172321D01*
X23259769Y-5172322D01*
X23432749Y-5243973D01*
X23616379Y-5280499D01*
X23616383Y-5280500D01*
X23616384Y-5280500D01*
X23803617Y-5280500D01*
X23803618Y-5280499D01*
X23987251Y-5243973D01*
X24160231Y-5172322D01*
X24315908Y-5068302D01*
X24448302Y-4935908D01*
X24552322Y-4780231D01*
X24623973Y-4607251D01*
X24660500Y-4423616D01*
X24660500Y-4236384D01*
X24623973Y-4052749D01*
X24552322Y-3879769D01*
X24552321Y-3879768D01*
X24552318Y-3879762D01*
X24448302Y-3724092D01*
X24448299Y-3724088D01*
X24315911Y-3591700D01*
X24315907Y-3591697D01*
X24160237Y-3487681D01*
X24160228Y-3487676D01*
X23987251Y-3416027D01*
X23987243Y-3416025D01*
X23803620Y-3379500D01*
X23803616Y-3379500D01*
X23616384Y-3379500D01*
X23616379Y-3379500D01*
X23432756Y-3416025D01*
X23432748Y-3416027D01*
X23259771Y-3487676D01*
X23259762Y-3487681D01*
X23104092Y-3591697D01*
X23104088Y-3591700D01*
X22971700Y-3724088D01*
X22971697Y-3724092D01*
X22867681Y-3879762D01*
X22867676Y-3879771D01*
X22796027Y-4052748D01*
X22796025Y-4052756D01*
X22759500Y-4236379D01*
X4271699Y-4236379D01*
X4241774Y-4184547D01*
X4167207Y-4109980D01*
X4075881Y-4057253D01*
X3974021Y-4029960D01*
X3868567Y-4029960D01*
X3863768Y-4029960D01*
X3796729Y-4010275D01*
X3750974Y-3957471D01*
X3739768Y-3905960D01*
X3739768Y-3814334D01*
X3739768Y-3814332D01*
X3712475Y-3712472D01*
X3659748Y-3621146D01*
X3585181Y-3546579D01*
X3493855Y-3493852D01*
X3391995Y-3466559D01*
X3356301Y-3466559D01*
X3289262Y-3446874D01*
X3243507Y-3394070D01*
X3232301Y-3342559D01*
X3232301Y-3332171D01*
X3232301Y-3332169D01*
X3205008Y-3230309D01*
X3152281Y-3138983D01*
X3077714Y-3064416D01*
X2986388Y-3011689D01*
X2884528Y-2984396D01*
X2879917Y-2984396D01*
X2812878Y-2964711D01*
X2767123Y-2911907D01*
X2757594Y-2880723D01*
X2755917Y-2870631D01*
X2755917Y-2819273D01*
X2728624Y-2717413D01*
X2728543Y-2717273D01*
X16139500Y-2717273D01*
X16139500Y-2822727D01*
X16166793Y-2924587D01*
X16219520Y-3015913D01*
X16294087Y-3090480D01*
X16385413Y-3143207D01*
X16487273Y-3170500D01*
X16487275Y-3170500D01*
X16592725Y-3170500D01*
X16592727Y-3170500D01*
X16694587Y-3143207D01*
X16785913Y-3090480D01*
X16860480Y-3015913D01*
X16913207Y-2924587D01*
X16940500Y-2822727D01*
X16940500Y-2717273D01*
X16913207Y-2615413D01*
X16911394Y-2612273D01*
X18499500Y-2612273D01*
X18499500Y-2717727D01*
X18526793Y-2819587D01*
X18579520Y-2910913D01*
X18654087Y-2985480D01*
X18745413Y-3038207D01*
X18847273Y-3065500D01*
X18847275Y-3065500D01*
X18952725Y-3065500D01*
X18952727Y-3065500D01*
X19054587Y-3038207D01*
X19145913Y-2985480D01*
X19220480Y-2910913D01*
X19273207Y-2819587D01*
X19300500Y-2717727D01*
X19300500Y-2612273D01*
X19273207Y-2510413D01*
X19220480Y-2419087D01*
X19145913Y-2344520D01*
X19054587Y-2291793D01*
X18952727Y-2264500D01*
X18847273Y-2264500D01*
X18745413Y-2291793D01*
X18745410Y-2291794D01*
X18654085Y-2344521D01*
X18579521Y-2419085D01*
X18526794Y-2510410D01*
X18526793Y-2510413D01*
X18499500Y-2612273D01*
X16911394Y-2612273D01*
X16860480Y-2524087D01*
X16785913Y-2449520D01*
X16694587Y-2396793D01*
X16592727Y-2369500D01*
X16487273Y-2369500D01*
X16385413Y-2396793D01*
X16385410Y-2396794D01*
X16294085Y-2449521D01*
X16219521Y-2524085D01*
X16166794Y-2615410D01*
X16166794Y-2615411D01*
X16166793Y-2615413D01*
X16139500Y-2717273D01*
X2728543Y-2717273D01*
X2675897Y-2626087D01*
X2601330Y-2551520D01*
X2534476Y-2512922D01*
X2510006Y-2498794D01*
X2510005Y-2498793D01*
X2510004Y-2498793D01*
X2408144Y-2471500D01*
X2302690Y-2471500D01*
X2200830Y-2498793D01*
X2200827Y-2498794D01*
X2109502Y-2551521D01*
X2034938Y-2626085D01*
X1982211Y-2717410D01*
X1982211Y-2717411D01*
X1982210Y-2717413D01*
X1954917Y-2819273D01*
X-18590507Y-2819273D01*
X-18472615Y-2740500D01*
X-18457837Y-2730626D01*
X-18339373Y-2612162D01*
X-18246295Y-2472860D01*
X-18182184Y-2318082D01*
X-18182182Y-2318074D01*
X-18158153Y-2197273D01*
X-3270500Y-2197273D01*
X-3270500Y-2302727D01*
X-3243207Y-2404587D01*
X-3190480Y-2495913D01*
X-3115913Y-2570480D01*
X-3024587Y-2623207D01*
X-2922727Y-2650500D01*
X-2922725Y-2650500D01*
X-2817275Y-2650500D01*
X-2817273Y-2650500D01*
X-2715413Y-2623207D01*
X-2624087Y-2570480D01*
X-2549520Y-2495913D01*
X-2496793Y-2404587D01*
X-2469500Y-2302727D01*
X-2469500Y-2197273D01*
X-2469500Y-2197271D01*
X-2488275Y-2127200D01*
X-2488276Y-2127197D01*
X-2496793Y-2095413D01*
X-2549520Y-2004087D01*
X-2576073Y-1977533D01*
X-2576075Y-1977531D01*
X-2624087Y-1929520D01*
X-2715410Y-1876794D01*
X-2715413Y-1876793D01*
X-2817273Y-1849500D01*
X-2922727Y-1849500D01*
X-3024587Y-1876793D01*
X-3115913Y-1929520D01*
X-3190480Y-2004087D01*
X-3243207Y-2095413D01*
X-3270500Y-2197273D01*
X-18158153Y-2197273D01*
X-18151725Y-2164955D01*
X-18151725Y-2164954D01*
X-18149500Y-2153768D01*
X-18149500Y-1986228D01*
X-18182182Y-1821925D01*
X-18182184Y-1821917D01*
X-18242097Y-1677273D01*
X-2380500Y-1677273D01*
X-2380500Y-1782727D01*
X-2353207Y-1884587D01*
X-2300480Y-1975913D01*
X-2225913Y-2050480D01*
X-2134587Y-2103207D01*
X-2032727Y-2130500D01*
X-2032725Y-2130500D01*
X-1927275Y-2130500D01*
X-1927273Y-2130500D01*
X-1825413Y-2103207D01*
X-1734087Y-2050480D01*
X-1659520Y-1975913D01*
X-1606793Y-1884587D01*
X-1579500Y-1782727D01*
X-1579500Y-1768088D01*
X9780107Y-1768088D01*
X9898524Y-1817138D01*
X9898532Y-1817140D01*
X10038589Y-1844999D01*
X10038593Y-1845000D01*
X10181407Y-1845000D01*
X10181410Y-1844999D01*
X10321467Y-1817140D01*
X10321475Y-1817138D01*
X10439891Y-1768088D01*
X11180107Y-1768088D01*
X11298524Y-1817138D01*
X11298532Y-1817140D01*
X11438589Y-1844999D01*
X11438593Y-1845000D01*
X11581407Y-1845000D01*
X11581410Y-1844999D01*
X11721467Y-1817140D01*
X11721475Y-1817138D01*
X11839891Y-1768088D01*
X11510001Y-1438198D01*
X11510000Y-1438198D01*
X11180107Y-1768088D01*
X10439891Y-1768088D01*
X10110001Y-1438198D01*
X10110000Y-1438198D01*
X9780107Y-1768088D01*
X-1579500Y-1768088D01*
X-1579500Y-1677273D01*
X-1606793Y-1575413D01*
X-1606794Y-1575410D01*
X-1659521Y-1484085D01*
X-1734085Y-1409521D01*
X-1825410Y-1356794D01*
X-1825413Y-1356793D01*
X-1927273Y-1329500D01*
X-2032727Y-1329500D01*
X-2134587Y-1356793D01*
X-2225913Y-1409520D01*
X-2300480Y-1484087D01*
X-2353207Y-1575413D01*
X-2380500Y-1677273D01*
X-18242097Y-1677273D01*
X-18246295Y-1667139D01*
X-18339373Y-1527837D01*
X-18457837Y-1409373D01*
X-18597139Y-1316295D01*
X-18751917Y-1252184D01*
X-18751925Y-1252182D01*
X-18916228Y-1219500D01*
X-18916233Y-1219500D01*
X-19083767Y-1219500D01*
X-19083771Y-1219500D01*
X-19248074Y-1252182D01*
X-19248082Y-1252184D01*
X-19402860Y-1316295D01*
X-19542162Y-1409373D01*
X-19660626Y-1527837D01*
X-19675160Y-1549589D01*
X-19753703Y-1667137D01*
X-19817816Y-1821918D01*
X-19850500Y-1986233D01*
X-23499500Y-1986233D01*
X-23499500Y-1068088D01*
X9080107Y-1068088D01*
X9198524Y-1117138D01*
X9296037Y-1136534D01*
X9357948Y-1168919D01*
X9392523Y-1229634D01*
X9393464Y-1233961D01*
X9412859Y-1331466D01*
X9412862Y-1331478D01*
X9461909Y-1449890D01*
X9791802Y-1120000D01*
X9791802Y-1119999D01*
X9761966Y-1090163D01*
X9960000Y-1090163D01*
X9960000Y-1149837D01*
X9982836Y-1204968D01*
X10025032Y-1247164D01*
X10080163Y-1270000D01*
X10139837Y-1270000D01*
X10194968Y-1247164D01*
X10237164Y-1204968D01*
X10260000Y-1149837D01*
X10260000Y-1120000D01*
X10428198Y-1120000D01*
X10758088Y-1449890D01*
X10785807Y-1444377D01*
X10834191Y-1444377D01*
X10861910Y-1449890D01*
X11191802Y-1120000D01*
X11161965Y-1090163D01*
X11360000Y-1090163D01*
X11360000Y-1149837D01*
X11382836Y-1204968D01*
X11425032Y-1247164D01*
X11480163Y-1270000D01*
X11539837Y-1270000D01*
X11594968Y-1247164D01*
X11637164Y-1204968D01*
X11660000Y-1149837D01*
X11660000Y-1120000D01*
X11828198Y-1120000D01*
X12158088Y-1449891D01*
X12202665Y-1342273D01*
X18499500Y-1342273D01*
X18499500Y-1447727D01*
X18526793Y-1549587D01*
X18579520Y-1640913D01*
X18654087Y-1715480D01*
X18745413Y-1768207D01*
X18847273Y-1795500D01*
X18847275Y-1795500D01*
X18952725Y-1795500D01*
X18952727Y-1795500D01*
X19054587Y-1768207D01*
X19145913Y-1715480D01*
X19165014Y-1696379D01*
X22759500Y-1696379D01*
X22759500Y-1883620D01*
X22796025Y-2067243D01*
X22796027Y-2067251D01*
X22867676Y-2240228D01*
X22867681Y-2240237D01*
X22971697Y-2395907D01*
X22971700Y-2395911D01*
X23104088Y-2528299D01*
X23104092Y-2528302D01*
X23259762Y-2632318D01*
X23259768Y-2632321D01*
X23259769Y-2632322D01*
X23432749Y-2703973D01*
X23566744Y-2730626D01*
X23616379Y-2740499D01*
X23616383Y-2740500D01*
X23616384Y-2740500D01*
X23803617Y-2740500D01*
X23803618Y-2740499D01*
X23987251Y-2703973D01*
X24160231Y-2632322D01*
X24315908Y-2528302D01*
X24448302Y-2395908D01*
X24552322Y-2240231D01*
X24623973Y-2067251D01*
X24660500Y-1883616D01*
X24660500Y-1696384D01*
X24623973Y-1512749D01*
X24552322Y-1339769D01*
X24552321Y-1339768D01*
X24552318Y-1339762D01*
X24448302Y-1184092D01*
X24448299Y-1184088D01*
X24315911Y-1051700D01*
X24315907Y-1051697D01*
X24160237Y-947681D01*
X24160228Y-947676D01*
X23987251Y-876027D01*
X23987243Y-876025D01*
X23803620Y-839500D01*
X23803616Y-839500D01*
X23616384Y-839500D01*
X23616379Y-839500D01*
X23432756Y-876025D01*
X23432748Y-876027D01*
X23259771Y-947676D01*
X23259762Y-947681D01*
X23104092Y-1051697D01*
X23104088Y-1051700D01*
X22971700Y-1184088D01*
X22971697Y-1184092D01*
X22867681Y-1339762D01*
X22867676Y-1339771D01*
X22796027Y-1512748D01*
X22796025Y-1512756D01*
X22759500Y-1696379D01*
X19165014Y-1696379D01*
X19220480Y-1640913D01*
X19273207Y-1549587D01*
X19300500Y-1447727D01*
X19300500Y-1342273D01*
X19273207Y-1240413D01*
X19220480Y-1149087D01*
X19145913Y-1074520D01*
X19054587Y-1021793D01*
X18952727Y-994500D01*
X18847273Y-994500D01*
X18745413Y-1021793D01*
X18745410Y-1021794D01*
X18654085Y-1074521D01*
X18579521Y-1149085D01*
X18526794Y-1240410D01*
X18526793Y-1240413D01*
X18499500Y-1342273D01*
X12202665Y-1342273D01*
X12207138Y-1331475D01*
X12207140Y-1331467D01*
X12211415Y-1309978D01*
X12211419Y-1309957D01*
X12226534Y-1233963D01*
X12258918Y-1172051D01*
X12319634Y-1137476D01*
X12323962Y-1136534D01*
X12421475Y-1117138D01*
X12539891Y-1068088D01*
X12210000Y-738198D01*
X11828198Y-1120000D01*
X11660000Y-1120000D01*
X11660000Y-1090163D01*
X11637164Y-1035032D01*
X11594968Y-992836D01*
X11539837Y-970000D01*
X11480163Y-970000D01*
X11425032Y-992836D01*
X11382836Y-1035032D01*
X11360000Y-1090163D01*
X11161965Y-1090163D01*
X10810000Y-738198D01*
X10428198Y-1120000D01*
X10260000Y-1120000D01*
X10260000Y-1090163D01*
X10237164Y-1035032D01*
X10194968Y-992836D01*
X10139837Y-970000D01*
X10080163Y-970000D01*
X10025032Y-992836D01*
X9982836Y-1035032D01*
X9960000Y-1090163D01*
X9761966Y-1090163D01*
X9410001Y-738198D01*
X9410000Y-738198D01*
X9080107Y-1068088D01*
X-23499500Y-1068088D01*
X-23499500Y32727D01*
X-184104Y32727D01*
X-184104Y-72727D01*
X-156811Y-174587D01*
X-104084Y-265913D01*
X-29517Y-340480D01*
X61809Y-393207D01*
X163669Y-420500D01*
X163671Y-420500D01*
X269121Y-420500D01*
X269123Y-420500D01*
X370983Y-393207D01*
X448264Y-348589D01*
X8685000Y-348589D01*
X8685000Y-491410D01*
X8712859Y-631466D01*
X8712862Y-631478D01*
X8761909Y-749890D01*
X9091802Y-420000D01*
X9061965Y-390163D01*
X9260000Y-390163D01*
X9260000Y-449837D01*
X9282836Y-504968D01*
X9325032Y-547164D01*
X9380163Y-570000D01*
X9439837Y-570000D01*
X9494968Y-547164D01*
X9537164Y-504968D01*
X9560000Y-449837D01*
X9560000Y-420000D01*
X9728198Y-420000D01*
X10110000Y-801802D01*
X10491802Y-420000D01*
X10461965Y-390163D01*
X10660000Y-390163D01*
X10660000Y-449837D01*
X10682836Y-504968D01*
X10725032Y-547164D01*
X10780163Y-570000D01*
X10839837Y-570000D01*
X10894968Y-547164D01*
X10937164Y-504968D01*
X10960000Y-449837D01*
X10960000Y-420000D01*
X11128198Y-420000D01*
X11510000Y-801802D01*
X11891802Y-420000D01*
X11861965Y-390163D01*
X12060000Y-390163D01*
X12060000Y-449837D01*
X12082836Y-504968D01*
X12125032Y-547164D01*
X12180163Y-570000D01*
X12239837Y-570000D01*
X12294968Y-547164D01*
X12337164Y-504968D01*
X12360000Y-449837D01*
X12360000Y-419999D01*
X12528198Y-419999D01*
X12528198Y-420001D01*
X12858088Y-749891D01*
X12907138Y-631475D01*
X12907140Y-631467D01*
X12934999Y-491410D01*
X12935000Y-491407D01*
X12935000Y-348593D01*
X12934999Y-348589D01*
X12907140Y-208532D01*
X12907137Y-208520D01*
X12866991Y-111598D01*
X12858088Y-90107D01*
X12528198Y-419999D01*
X12360000Y-419999D01*
X12360000Y-390163D01*
X12337164Y-335032D01*
X12294968Y-292836D01*
X12239837Y-270000D01*
X12180163Y-270000D01*
X12125032Y-292836D01*
X12082836Y-335032D01*
X12060000Y-390163D01*
X11861965Y-390163D01*
X11510000Y-38198D01*
X11128198Y-420000D01*
X10960000Y-420000D01*
X10960000Y-390163D01*
X10937164Y-335032D01*
X10894968Y-292836D01*
X10839837Y-270000D01*
X10780163Y-270000D01*
X10725032Y-292836D01*
X10682836Y-335032D01*
X10660000Y-390163D01*
X10461965Y-390163D01*
X10110000Y-38198D01*
X9728198Y-420000D01*
X9560000Y-420000D01*
X9560000Y-390163D01*
X9537164Y-335032D01*
X9494968Y-292836D01*
X9439837Y-270000D01*
X9380163Y-270000D01*
X9325032Y-292836D01*
X9282836Y-335032D01*
X9260000Y-390163D01*
X9061965Y-390163D01*
X8761909Y-90107D01*
X8712864Y-208514D01*
X8712859Y-208530D01*
X8685000Y-348589D01*
X448264Y-348589D01*
X462309Y-340480D01*
X536876Y-265913D01*
X589603Y-174587D01*
X616896Y-72727D01*
X616896Y32727D01*
X589603Y134587D01*
X536876Y225913D01*
X462309Y300480D01*
X407872Y331909D01*
X9080107Y331909D01*
X9085621Y304191D01*
X9085621Y255809D01*
X9080107Y228088D01*
X9410000Y-101802D01*
X9410001Y-101802D01*
X9791802Y279999D01*
X9791802Y280000D01*
X9761965Y309837D01*
X9960000Y309837D01*
X9960000Y250163D01*
X9982836Y195032D01*
X10025032Y152836D01*
X10080163Y130000D01*
X10139837Y130000D01*
X10194968Y152836D01*
X10237164Y195032D01*
X10260000Y250163D01*
X10260000Y280000D01*
X10428198Y280000D01*
X10810000Y-101802D01*
X11191802Y280000D01*
X11161965Y309837D01*
X11360000Y309837D01*
X11360000Y250163D01*
X11382836Y195032D01*
X11425032Y152836D01*
X11480163Y130000D01*
X11539837Y130000D01*
X11594968Y152836D01*
X11637164Y195032D01*
X11660000Y250163D01*
X11660000Y280000D01*
X11828198Y280000D01*
X12210000Y-101802D01*
X12239529Y-72273D01*
X18399500Y-72273D01*
X18399500Y-177727D01*
X18426793Y-279587D01*
X18479520Y-370913D01*
X18554087Y-445480D01*
X18645413Y-498207D01*
X18747273Y-525500D01*
X18747275Y-525500D01*
X18852725Y-525500D01*
X18852727Y-525500D01*
X18954587Y-498207D01*
X19045913Y-445480D01*
X19120480Y-370913D01*
X19173207Y-279587D01*
X19200500Y-177727D01*
X19200500Y-72273D01*
X19173207Y29587D01*
X19120480Y120913D01*
X19045913Y195480D01*
X18954587Y248207D01*
X18852727Y275500D01*
X18747273Y275500D01*
X18645413Y248207D01*
X18554087Y195480D01*
X18479520Y120913D01*
X18426793Y29587D01*
X18399500Y-72273D01*
X12239529Y-72273D01*
X12539891Y228088D01*
X12534378Y255809D01*
X12534378Y304191D01*
X12539891Y331909D01*
X12210001Y661802D01*
X12210000Y661802D01*
X11828198Y280000D01*
X11660000Y280000D01*
X11660000Y309837D01*
X11637164Y364968D01*
X11594968Y407164D01*
X11539837Y430000D01*
X11480163Y430000D01*
X11425032Y407164D01*
X11382836Y364968D01*
X11360000Y309837D01*
X11161965Y309837D01*
X10810000Y661802D01*
X10428198Y280000D01*
X10260000Y280000D01*
X10260000Y309837D01*
X10237164Y364968D01*
X10194968Y407164D01*
X10139837Y430000D01*
X10080163Y430000D01*
X10025032Y407164D01*
X9982836Y364968D01*
X9960000Y309837D01*
X9761965Y309837D01*
X9410000Y661802D01*
X9080107Y331909D01*
X407872Y331909D01*
X370983Y353207D01*
X269123Y380500D01*
X163669Y380500D01*
X61809Y353207D01*
X-29517Y300480D01*
X-104084Y225913D01*
X-156811Y134587D01*
X-184104Y32727D01*
X-23499500Y32727D01*
X-23499500Y1051410D01*
X8685000Y1051410D01*
X8685000Y908589D01*
X8712859Y768530D01*
X8712864Y768514D01*
X8761909Y650107D01*
X9091802Y980000D01*
X9061965Y1009837D01*
X9260000Y1009837D01*
X9260000Y950163D01*
X9282836Y895032D01*
X9325032Y852836D01*
X9380163Y830000D01*
X9439837Y830000D01*
X9494968Y852836D01*
X9537164Y895032D01*
X9560000Y950163D01*
X9560000Y980000D01*
X9728198Y980000D01*
X10110000Y598198D01*
X10491802Y980000D01*
X10461965Y1009837D01*
X10660000Y1009837D01*
X10660000Y950163D01*
X10682836Y895032D01*
X10725032Y852836D01*
X10780163Y830000D01*
X10839837Y830000D01*
X10894968Y852836D01*
X10937164Y895032D01*
X10960000Y950163D01*
X10960000Y980000D01*
X11128198Y980000D01*
X11510000Y598198D01*
X11891802Y980000D01*
X11861965Y1009837D01*
X12060000Y1009837D01*
X12060000Y950163D01*
X12082836Y895032D01*
X12125032Y852836D01*
X12180163Y830000D01*
X12239837Y830000D01*
X12294968Y852836D01*
X12337164Y895032D01*
X12360000Y950163D01*
X12360000Y980001D01*
X12528198Y980001D01*
X12528198Y979999D01*
X12858088Y650107D01*
X12907138Y768524D01*
X12907140Y768532D01*
X12934999Y908589D01*
X12935000Y908593D01*
X12935000Y1051403D01*
X12908096Y1186663D01*
X12907139Y1191473D01*
X12907138Y1191475D01*
X12902478Y1202726D01*
X18149500Y1202726D01*
X18149500Y1097273D01*
X18176793Y995413D01*
X18176794Y995410D01*
X18229521Y904085D01*
X18304085Y829521D01*
X18395410Y776794D01*
X18395413Y776793D01*
X18497273Y749500D01*
X18602726Y749500D01*
X18602727Y749500D01*
X18704587Y776793D01*
X18795913Y829520D01*
X18810013Y843620D01*
X22759500Y843620D01*
X22759500Y656379D01*
X22796025Y472756D01*
X22796027Y472748D01*
X22867676Y299771D01*
X22867681Y299762D01*
X22971697Y144092D01*
X22971700Y144088D01*
X23104088Y11700D01*
X23104092Y11697D01*
X23259762Y-92318D01*
X23259771Y-92323D01*
X23298956Y-108554D01*
X23432749Y-163973D01*
X23616379Y-200499D01*
X23616383Y-200500D01*
X23616384Y-200500D01*
X23803617Y-200500D01*
X23803618Y-200499D01*
X23987251Y-163973D01*
X24160231Y-92322D01*
X24189557Y-72727D01*
X24315907Y11697D01*
X24315911Y11700D01*
X24448299Y144088D01*
X24448302Y144092D01*
X24552318Y299762D01*
X24552323Y299771D01*
X24579328Y364968D01*
X24623973Y472749D01*
X24660500Y656384D01*
X24660500Y843616D01*
X24623973Y1027251D01*
X24552322Y1200231D01*
X24448302Y1355908D01*
X24315908Y1488302D01*
X24160231Y1592322D01*
X23987251Y1663973D01*
X23803618Y1700499D01*
X23803617Y1700500D01*
X23803616Y1700500D01*
X23616384Y1700500D01*
X23616383Y1700500D01*
X23616379Y1700499D01*
X23432749Y1663973D01*
X23298956Y1608554D01*
X23259771Y1592323D01*
X23259762Y1592318D01*
X23104092Y1488302D01*
X23104088Y1488299D01*
X22971700Y1355911D01*
X22971697Y1355907D01*
X22867681Y1200237D01*
X22867676Y1200228D01*
X22796027Y1027251D01*
X22796025Y1027243D01*
X22759500Y843620D01*
X18810013Y843620D01*
X18870480Y904087D01*
X18923207Y995413D01*
X18950500Y1097273D01*
X18950500Y1202727D01*
X18923207Y1304587D01*
X18870480Y1395913D01*
X18795913Y1470480D01*
X18704587Y1523207D01*
X18602727Y1550500D01*
X18497273Y1550500D01*
X18395413Y1523207D01*
X18304087Y1470480D01*
X18304085Y1470478D01*
X18229521Y1395914D01*
X18176794Y1304589D01*
X18176793Y1304586D01*
X18149500Y1202726D01*
X12902478Y1202726D01*
X12858088Y1309891D01*
X12528198Y980001D01*
X12360000Y980001D01*
X12360000Y1009837D01*
X12337164Y1064968D01*
X12294968Y1107164D01*
X12239837Y1130000D01*
X12180163Y1130000D01*
X12125032Y1107164D01*
X12082836Y1064968D01*
X12060000Y1009837D01*
X11861965Y1009837D01*
X11510000Y1361802D01*
X11128198Y980000D01*
X10960000Y980000D01*
X10960000Y1009837D01*
X10937164Y1064968D01*
X10894968Y1107164D01*
X10839837Y1130000D01*
X10780163Y1130000D01*
X10725032Y1107164D01*
X10682836Y1064968D01*
X10660000Y1009837D01*
X10461965Y1009837D01*
X10110000Y1361802D01*
X9728198Y980000D01*
X9560000Y980000D01*
X9560000Y1009837D01*
X9537164Y1064968D01*
X9494968Y1107164D01*
X9439837Y1130000D01*
X9380163Y1130000D01*
X9325032Y1107164D01*
X9282836Y1064968D01*
X9260000Y1009837D01*
X9061965Y1009837D01*
X8761909Y1309890D01*
X8712862Y1191478D01*
X8712859Y1191466D01*
X8685000Y1051410D01*
X-23499500Y1051410D01*
X-23499500Y1628088D01*
X9080107Y1628088D01*
X9410000Y1298198D01*
X9410001Y1298198D01*
X9791802Y1679999D01*
X9791802Y1680000D01*
X9761965Y1709837D01*
X9960000Y1709837D01*
X9960000Y1650163D01*
X9982836Y1595032D01*
X10025032Y1552836D01*
X10080163Y1530000D01*
X10139837Y1530000D01*
X10194968Y1552836D01*
X10237164Y1595032D01*
X10260000Y1650163D01*
X10260000Y1680000D01*
X10428198Y1680000D01*
X10810000Y1298198D01*
X11191802Y1680000D01*
X11161965Y1709837D01*
X11360000Y1709837D01*
X11360000Y1650163D01*
X11382836Y1595032D01*
X11425032Y1552836D01*
X11480163Y1530000D01*
X11539837Y1530000D01*
X11594968Y1552836D01*
X11637164Y1595032D01*
X11660000Y1650163D01*
X11660000Y1680000D01*
X11828198Y1680000D01*
X12210000Y1298198D01*
X12539891Y1628088D01*
X12421475Y1677138D01*
X12421476Y1677138D01*
X12323962Y1696534D01*
X12262051Y1728919D01*
X12227476Y1789634D01*
X12226534Y1793962D01*
X12207138Y1891475D01*
X12158088Y2009891D01*
X11828198Y1680000D01*
X11660000Y1680000D01*
X11660000Y1709837D01*
X11637164Y1764968D01*
X11594968Y1807164D01*
X11539837Y1830000D01*
X11480163Y1830000D01*
X11425032Y1807164D01*
X11382836Y1764968D01*
X11360000Y1709837D01*
X11161965Y1709837D01*
X10861910Y2009890D01*
X10834191Y2004377D01*
X10785807Y2004377D01*
X10758088Y2009890D01*
X10428198Y1680000D01*
X10260000Y1680000D01*
X10260000Y1709837D01*
X10237164Y1764968D01*
X10194968Y1807164D01*
X10139837Y1830000D01*
X10080163Y1830000D01*
X10025032Y1807164D01*
X9982836Y1764968D01*
X9960000Y1709837D01*
X9761965Y1709837D01*
X9461909Y2009890D01*
X9412862Y1891478D01*
X9412859Y1891466D01*
X9393464Y1793961D01*
X9361079Y1732050D01*
X9300364Y1697476D01*
X9296037Y1696534D01*
X9198524Y1677138D01*
X9080107Y1628088D01*
X-23499500Y1628088D01*
X-23499500Y2502727D01*
X-3710500Y2502727D01*
X-3710500Y2397273D01*
X-3683207Y2295413D01*
X-3630480Y2204087D01*
X-3555913Y2129520D01*
X-3464587Y2076793D01*
X-3362727Y2049500D01*
X-3362726Y2049500D01*
X-3257273Y2049500D01*
X-3155413Y2076793D01*
X-3155410Y2076794D01*
X-3064085Y2129521D01*
X-2989521Y2204085D01*
X-2936794Y2295410D01*
X-2936793Y2295413D01*
X-2909500Y2397273D01*
X-2909500Y2502726D01*
X-2922621Y2551697D01*
X-2936793Y2604587D01*
X-2989520Y2695913D01*
X-3064087Y2770480D01*
X-3081929Y2780781D01*
X-994468Y2780781D01*
X-994468Y2675327D01*
X-967175Y2573467D01*
X-914448Y2482141D01*
X-839881Y2407574D01*
X-748555Y2354847D01*
X-646695Y2327554D01*
X-646694Y2327554D01*
X-541241Y2327554D01*
X-539248Y2328088D01*
X9780107Y2328088D01*
X10110000Y1998198D01*
X10110001Y1998198D01*
X10439891Y2328088D01*
X11180107Y2328088D01*
X11510000Y1998198D01*
X11510001Y1998198D01*
X11839891Y2328088D01*
X11721475Y2377138D01*
X11721467Y2377140D01*
X11581410Y2404999D01*
X11581407Y2405000D01*
X11438593Y2405000D01*
X11438589Y2404999D01*
X11298532Y2377140D01*
X11298524Y2377138D01*
X11180107Y2328088D01*
X10439891Y2328088D01*
X10321475Y2377138D01*
X10321467Y2377140D01*
X10181410Y2404999D01*
X10181407Y2405000D01*
X10038593Y2405000D01*
X10038589Y2404999D01*
X9898532Y2377140D01*
X9898524Y2377138D01*
X9780107Y2328088D01*
X-539248Y2328088D01*
X-439381Y2354847D01*
X-439379Y2354848D01*
X-348055Y2407574D01*
X-348053Y2407575D01*
X-273489Y2482139D01*
X-220762Y2573464D01*
X-220761Y2573467D01*
X-193468Y2675327D01*
X-193468Y2780780D01*
X-204835Y2823205D01*
X-220761Y2882641D01*
X-273488Y2973967D01*
X-348055Y3048534D01*
X-439381Y3101261D01*
X-541241Y3128554D01*
X-646695Y3128554D01*
X-748555Y3101261D01*
X-839881Y3048534D01*
X-914448Y2973967D01*
X-967175Y2882641D01*
X-994468Y2780781D01*
X-3081929Y2780781D01*
X-3155413Y2823207D01*
X-3257273Y2850500D01*
X-3362727Y2850500D01*
X-3464587Y2823207D01*
X-3555913Y2770480D01*
X-3630480Y2695913D01*
X-3683207Y2604587D01*
X-3710500Y2502727D01*
X-23499500Y2502727D01*
X-23499500Y3383620D01*
X22759500Y3383620D01*
X22759500Y3196379D01*
X22796025Y3012756D01*
X22796027Y3012748D01*
X22867676Y2839771D01*
X22867681Y2839762D01*
X22971697Y2684092D01*
X22971700Y2684088D01*
X23104088Y2551700D01*
X23104092Y2551697D01*
X23259762Y2447681D01*
X23259771Y2447676D01*
X23432748Y2376027D01*
X23432756Y2376025D01*
X23616379Y2339500D01*
X23616384Y2339500D01*
X23803620Y2339500D01*
X23987243Y2376025D01*
X23987251Y2376027D01*
X24160228Y2447676D01*
X24160237Y2447681D01*
X24315907Y2551697D01*
X24315911Y2551700D01*
X24448299Y2684088D01*
X24448302Y2684092D01*
X24552318Y2839762D01*
X24552323Y2839771D01*
X24570081Y2882643D01*
X24623973Y3012749D01*
X24660500Y3196384D01*
X24660500Y3383616D01*
X24623973Y3567251D01*
X24552322Y3740231D01*
X24448302Y3895908D01*
X24315908Y4028302D01*
X24160231Y4132322D01*
X23987251Y4203973D01*
X23803618Y4240499D01*
X23803617Y4240500D01*
X23803616Y4240500D01*
X23616384Y4240500D01*
X23616383Y4240500D01*
X23616379Y4240499D01*
X23432749Y4203973D01*
X23298956Y4148554D01*
X23259771Y4132323D01*
X23259762Y4132318D01*
X23104092Y4028302D01*
X23104088Y4028299D01*
X22971700Y3895911D01*
X22971697Y3895907D01*
X22867681Y3740237D01*
X22867676Y3740228D01*
X22796027Y3567251D01*
X22796025Y3567243D01*
X22759500Y3383620D01*
X-23499500Y3383620D01*
X-23499500Y4025619D01*
X-6100500Y4025619D01*
X-6100500Y3920165D01*
X-6073207Y3818305D01*
X-6020480Y3726979D01*
X-5945913Y3652412D01*
X-5854587Y3599685D01*
X-5752727Y3572392D01*
X-5752726Y3572392D01*
X-5647273Y3572392D01*
X-5545413Y3599685D01*
X-5545410Y3599686D01*
X-5454085Y3652413D01*
X-5379521Y3726977D01*
X-5326794Y3818302D01*
X-5326793Y3818305D01*
X-5299500Y3920165D01*
X-5299500Y3932726D01*
X999500Y3932726D01*
X999500Y3827273D01*
X1026793Y3725413D01*
X1026794Y3725410D01*
X1079521Y3634085D01*
X1154085Y3559521D01*
X1245410Y3506794D01*
X1245413Y3506793D01*
X1347273Y3479500D01*
X1452726Y3479500D01*
X1452727Y3479500D01*
X1503657Y3493146D01*
X1554588Y3506793D01*
X1607315Y3537235D01*
X1645913Y3559520D01*
X1720480Y3634087D01*
X1773207Y3725413D01*
X1800500Y3827273D01*
X1800500Y3932727D01*
X1773207Y4034587D01*
X1720480Y4125913D01*
X1645913Y4200480D01*
X1554587Y4253207D01*
X1452727Y4280500D01*
X1347273Y4280500D01*
X1245413Y4253207D01*
X1154087Y4200480D01*
X1154085Y4200478D01*
X1079521Y4125914D01*
X1026794Y4034589D01*
X1026793Y4034586D01*
X999500Y3932726D01*
X-5299500Y3932726D01*
X-5299500Y4025618D01*
X-5301903Y4034589D01*
X-5326793Y4127479D01*
X-5379520Y4218805D01*
X-5454087Y4293372D01*
X-5545413Y4346099D01*
X-5647273Y4373392D01*
X-5752727Y4373392D01*
X-5854587Y4346099D01*
X-5945913Y4293372D01*
X-6020480Y4218805D01*
X-6073207Y4127479D01*
X-6100500Y4025619D01*
X-23499500Y4025619D01*
X-23499500Y4932727D01*
X-2080500Y4932727D01*
X-2080500Y4827273D01*
X-2053207Y4725413D01*
X-2000480Y4634087D01*
X-1925913Y4559520D01*
X-1891237Y4539500D01*
X-1839311Y4509520D01*
X-1834587Y4506793D01*
X-1732727Y4479500D01*
X-1732726Y4479500D01*
X-1627273Y4479500D01*
X-1525413Y4506793D01*
X-1525410Y4506794D01*
X-1434085Y4559521D01*
X-1359521Y4634085D01*
X-1306794Y4725410D01*
X-1306793Y4725413D01*
X-1279500Y4827273D01*
X-1279500Y4882726D01*
X14709500Y4882726D01*
X14709500Y4777273D01*
X14736793Y4675413D01*
X14736794Y4675410D01*
X14789521Y4584085D01*
X14864085Y4509521D01*
X14955410Y4456794D01*
X14955413Y4456793D01*
X15057273Y4429500D01*
X15162726Y4429500D01*
X15162727Y4429500D01*
X15264587Y4456793D01*
X15355913Y4509520D01*
X15430480Y4584087D01*
X15483207Y4675413D01*
X15510500Y4777273D01*
X15510500Y4882727D01*
X15483207Y4984587D01*
X15478508Y4992726D01*
X18849500Y4992726D01*
X18849500Y4887273D01*
X18876793Y4785413D01*
X18876794Y4785410D01*
X18929521Y4694085D01*
X19004085Y4619521D01*
X19095410Y4566794D01*
X19095413Y4566793D01*
X19197273Y4539500D01*
X19302726Y4539500D01*
X19302727Y4539500D01*
X19404587Y4566793D01*
X19495913Y4619520D01*
X19570480Y4694087D01*
X19623207Y4785413D01*
X19650500Y4887273D01*
X19650500Y4992727D01*
X19623207Y5094587D01*
X19570480Y5185913D01*
X19495913Y5260480D01*
X19404587Y5313207D01*
X19302727Y5340500D01*
X19197273Y5340500D01*
X19095413Y5313207D01*
X19004087Y5260480D01*
X18929520Y5185913D01*
X18876793Y5094587D01*
X18871790Y5075913D01*
X18849500Y4992726D01*
X15478508Y4992726D01*
X15430480Y5075913D01*
X15355913Y5150480D01*
X15264587Y5203207D01*
X15162727Y5230500D01*
X15057273Y5230500D01*
X14955413Y5203207D01*
X14864087Y5150480D01*
X14789520Y5075913D01*
X14765660Y5034586D01*
X14738578Y4987678D01*
X14736793Y4984587D01*
X14722898Y4932727D01*
X14709500Y4882726D01*
X-1279500Y4882726D01*
X-1279500Y4932726D01*
X-1289155Y4968762D01*
X-1306793Y5034587D01*
X-1359520Y5125913D01*
X-1434087Y5200480D01*
X-1525413Y5253207D01*
X-1627273Y5280500D01*
X-1732727Y5280500D01*
X-1834587Y5253207D01*
X-1925913Y5200480D01*
X-2000480Y5125913D01*
X-2053207Y5034587D01*
X-2080500Y4932727D01*
X-23499500Y4932727D01*
X-23499500Y6013767D01*
X-19850500Y6013767D01*
X-19850500Y5846233D01*
X-19817816Y5681918D01*
X-19768227Y5562201D01*
X-19753704Y5527139D01*
X-19660626Y5387837D01*
X-19542162Y5269373D01*
X-19402860Y5176295D01*
X-19248082Y5112184D01*
X-19248074Y5112182D01*
X-19083771Y5079500D01*
X-19083767Y5079500D01*
X-18916228Y5079500D01*
X-18751925Y5112182D01*
X-18751917Y5112184D01*
X-18597139Y5176295D01*
X-18457837Y5269373D01*
X-18339373Y5387837D01*
X-18246295Y5527139D01*
X-18182184Y5681917D01*
X-18182182Y5681925D01*
X-18149500Y5846228D01*
X-18149500Y6013771D01*
X-18181250Y6173395D01*
X-18181253Y6173402D01*
X-18182183Y6178080D01*
X-18182184Y6178082D01*
X-18186901Y6189470D01*
X-6486482Y6189470D01*
X-6486482Y6084016D01*
X-6459189Y5982156D01*
X-6406462Y5890830D01*
X-6331895Y5816263D01*
X-6240569Y5763536D01*
X-6138709Y5736243D01*
X-6138708Y5736243D01*
X-6033255Y5736243D01*
X-5931395Y5763536D01*
X-5931392Y5763537D01*
X-5840067Y5816264D01*
X-5765503Y5890828D01*
X-5712776Y5982153D01*
X-5712775Y5982156D01*
X-5685482Y6084016D01*
X-5685482Y6189467D01*
X-5685482Y6189468D01*
X-5685482Y6189470D01*
X-5710469Y6282725D01*
X-5710469Y6282726D01*
X18819500Y6282726D01*
X18819500Y6177273D01*
X18846793Y6075413D01*
X18846794Y6075410D01*
X18899521Y5984085D01*
X18974085Y5909521D01*
X19065410Y5856794D01*
X19065413Y5856793D01*
X19167273Y5829500D01*
X19272726Y5829500D01*
X19272727Y5829500D01*
X19374587Y5856793D01*
X19465913Y5909520D01*
X19540480Y5984087D01*
X19593207Y6075413D01*
X19620500Y6177273D01*
X19620500Y6282727D01*
X19593207Y6384587D01*
X19540480Y6475913D01*
X19465913Y6550480D01*
X19374587Y6603207D01*
X19272727Y6630500D01*
X19167273Y6630500D01*
X19065413Y6603207D01*
X18974087Y6550480D01*
X18899520Y6475913D01*
X18876425Y6435911D01*
X18846794Y6384589D01*
X18846793Y6384586D01*
X18819500Y6282726D01*
X-5710469Y6282726D01*
X-5712774Y6291328D01*
X-5712776Y6291332D01*
X-5765503Y6382657D01*
X-5840067Y6457221D01*
X-5840069Y6457223D01*
X-5931395Y6509950D01*
X-6033255Y6537243D01*
X-6138709Y6537243D01*
X-6240569Y6509950D01*
X-6331895Y6457223D01*
X-6406462Y6382656D01*
X-6459189Y6291330D01*
X-6486482Y6189470D01*
X-18186901Y6189470D01*
X-18246295Y6332860D01*
X-18339373Y6472162D01*
X-18457837Y6590626D01*
X-18550494Y6652537D01*
X-18597137Y6683703D01*
X-18751918Y6747816D01*
X-18916228Y6780499D01*
X-18916232Y6780500D01*
X-18916233Y6780500D01*
X-19083767Y6780500D01*
X-19083768Y6780500D01*
X-19083769Y6780499D01*
X-19248082Y6747816D01*
X-19402863Y6683703D01*
X-19542162Y6590626D01*
X-19660626Y6472162D01*
X-19753703Y6332863D01*
X-19817816Y6178082D01*
X-19850500Y6013767D01*
X-23499500Y6013767D01*
X-23499500Y6902726D01*
X1079500Y6902726D01*
X1079500Y6797273D01*
X1106793Y6695413D01*
X1106794Y6695410D01*
X1159521Y6604085D01*
X1234085Y6529521D01*
X1325410Y6476794D01*
X1325413Y6476793D01*
X1427273Y6449500D01*
X1532726Y6449500D01*
X1532727Y6449500D01*
X1634587Y6476793D01*
X1725913Y6529520D01*
X1800480Y6604087D01*
X1853207Y6695413D01*
X1880500Y6797273D01*
X1880500Y6902727D01*
X1853207Y7004587D01*
X1800480Y7095913D01*
X1725913Y7170480D01*
X1634587Y7223207D01*
X1532727Y7250500D01*
X1427273Y7250500D01*
X1325413Y7223207D01*
X1234087Y7170480D01*
X1159520Y7095913D01*
X1106793Y7004587D01*
X1105649Y7000315D01*
X1079500Y6902726D01*
X-23499500Y6902726D01*
X-23499500Y8022727D01*
X-1700500Y8022727D01*
X-1700500Y7917273D01*
X-1673207Y7815413D01*
X-1620480Y7724087D01*
X-1545913Y7649520D01*
X-1454587Y7596793D01*
X-1352727Y7569500D01*
X-1352726Y7569500D01*
X-1247273Y7569500D01*
X-1145413Y7596793D01*
X-1145410Y7596794D01*
X-1054085Y7649521D01*
X-979521Y7724085D01*
X-926794Y7815410D01*
X-926793Y7815413D01*
X-899500Y7917273D01*
X-899500Y7932726D01*
X15699500Y7932726D01*
X15699500Y7827273D01*
X15726793Y7725413D01*
X15726794Y7725410D01*
X15779521Y7634085D01*
X15854085Y7559521D01*
X15945410Y7506794D01*
X15945413Y7506793D01*
X16047273Y7479500D01*
X16152726Y7479500D01*
X16152727Y7479500D01*
X16254587Y7506793D01*
X16345913Y7559520D01*
X16420480Y7634087D01*
X16473207Y7725413D01*
X16500500Y7827273D01*
X16500500Y7932727D01*
X16473207Y8034587D01*
X16420480Y8125913D01*
X16345913Y8200480D01*
X16254587Y8253207D01*
X16152727Y8280500D01*
X16047273Y8280500D01*
X15945413Y8253207D01*
X15854087Y8200480D01*
X15779520Y8125913D01*
X15743193Y8062993D01*
X15726794Y8034589D01*
X15726793Y8034586D01*
X15699500Y7932726D01*
X-899500Y7932726D01*
X-899500Y8022726D01*
X-902678Y8034589D01*
X-926793Y8124587D01*
X-927559Y8125913D01*
X-979521Y8215914D01*
X-1054085Y8290478D01*
X-1054087Y8290480D01*
X-1145413Y8343207D01*
X-1247273Y8370500D01*
X-1352727Y8370500D01*
X-1454587Y8343207D01*
X-1545913Y8290480D01*
X-1620480Y8215913D01*
X-1673207Y8124587D01*
X-1700500Y8022727D01*
X-23499500Y8022727D01*
X-23499500Y8532727D01*
X-21900500Y8532727D01*
X-21900500Y8427273D01*
X-21873207Y8325413D01*
X-21820480Y8234087D01*
X-21745913Y8159520D01*
X-21654587Y8106793D01*
X-21552727Y8079500D01*
X-21552726Y8079500D01*
X-21447273Y8079500D01*
X-21345413Y8106793D01*
X-21345410Y8106794D01*
X-21308974Y8127830D01*
X-21254087Y8159520D01*
X-21254085Y8159521D01*
X-21179521Y8234085D01*
X-21126794Y8325410D01*
X-21126793Y8325413D01*
X-21099500Y8427273D01*
X-21099500Y8532726D01*
X-21106679Y8559521D01*
X-21126793Y8634587D01*
X-21179520Y8725913D01*
X-21254087Y8800480D01*
X-21345413Y8853207D01*
X-21447273Y8880500D01*
X-21552727Y8880500D01*
X-21654587Y8853207D01*
X-21745913Y8800480D01*
X-21820480Y8725913D01*
X-21873207Y8634587D01*
X-21900500Y8532727D01*
X-23499500Y8532727D01*
X-23499500Y9232727D01*
X-14200500Y9232727D01*
X-14200500Y9127273D01*
X-14173207Y9025413D01*
X-14120480Y8934087D01*
X-14045913Y8859520D01*
X-13954587Y8806793D01*
X-13852727Y8779500D01*
X-13852726Y8779500D01*
X-13747273Y8779500D01*
X-13645413Y8806793D01*
X-13645410Y8806794D01*
X-13554085Y8859521D01*
X-13480880Y8932726D01*
X6499500Y8932726D01*
X6499500Y8827273D01*
X6526793Y8725413D01*
X6526794Y8725410D01*
X6579521Y8634085D01*
X6654085Y8559521D01*
X6745410Y8506794D01*
X6745413Y8506793D01*
X6847273Y8479500D01*
X6952726Y8479500D01*
X6952727Y8479500D01*
X7054587Y8506793D01*
X7145913Y8559520D01*
X7220480Y8634087D01*
X7273207Y8725413D01*
X7300500Y8827273D01*
X7300500Y8932726D01*
X7799500Y8932726D01*
X7799500Y8827273D01*
X7826793Y8725413D01*
X7826794Y8725410D01*
X7879521Y8634085D01*
X7954085Y8559521D01*
X8045410Y8506794D01*
X8045413Y8506793D01*
X8147273Y8479500D01*
X8252726Y8479500D01*
X8252727Y8479500D01*
X8354587Y8506793D01*
X8445913Y8559520D01*
X8520480Y8634087D01*
X8573207Y8725413D01*
X8599282Y8822726D01*
X10579500Y8822726D01*
X10579500Y8717273D01*
X10606793Y8615413D01*
X10606794Y8615410D01*
X10659521Y8524085D01*
X10734085Y8449521D01*
X10825410Y8396794D01*
X10825413Y8396793D01*
X10927273Y8369500D01*
X11032726Y8369500D01*
X11032727Y8369500D01*
X11134587Y8396793D01*
X11225913Y8449520D01*
X11300480Y8524087D01*
X11353207Y8615413D01*
X11380500Y8717273D01*
X11380500Y8822727D01*
X11353207Y8924587D01*
X11300480Y9015913D01*
X11225913Y9090480D01*
X11134587Y9143207D01*
X11032727Y9170500D01*
X10927273Y9170500D01*
X10825413Y9143207D01*
X10734087Y9090480D01*
X10659520Y9015913D01*
X10606793Y8924587D01*
X10583037Y8835925D01*
X10579500Y8822726D01*
X8599282Y8822726D01*
X8600500Y8827273D01*
X8600500Y8932727D01*
X8573207Y9034587D01*
X8520480Y9125913D01*
X8445913Y9200480D01*
X8354587Y9253207D01*
X8299960Y9267844D01*
X22360000Y9267844D01*
X22360000Y8620000D01*
X23276988Y8620000D01*
X23244075Y8562993D01*
X23210000Y8435826D01*
X23210000Y8304174D01*
X23244075Y8177007D01*
X23276988Y8120000D01*
X22360000Y8120000D01*
X22360000Y7472155D01*
X22366401Y7412627D01*
X22366403Y7412620D01*
X22416645Y7277913D01*
X22416649Y7277906D01*
X22502809Y7162812D01*
X22502812Y7162809D01*
X22617906Y7076649D01*
X22617913Y7076645D01*
X22752620Y7026403D01*
X22752627Y7026401D01*
X22812155Y7020000D01*
X23561438Y7020000D01*
X23628477Y7000315D01*
X23674232Y6947511D01*
X23684176Y6878353D01*
X23655151Y6814797D01*
X23596373Y6777023D01*
X23585629Y6774383D01*
X23499658Y6757282D01*
X23432749Y6743973D01*
X23315508Y6695410D01*
X23259771Y6672323D01*
X23259762Y6672318D01*
X23104092Y6568302D01*
X23104088Y6568299D01*
X22971700Y6435911D01*
X22971697Y6435907D01*
X22867681Y6280237D01*
X22867676Y6280228D01*
X22796027Y6107251D01*
X22796025Y6107243D01*
X22759500Y5923620D01*
X22759500Y5736379D01*
X22796025Y5552756D01*
X22796027Y5552748D01*
X22867676Y5379771D01*
X22867681Y5379762D01*
X22971697Y5224092D01*
X22971700Y5224088D01*
X23104088Y5091700D01*
X23104092Y5091697D01*
X23259762Y4987681D01*
X23259771Y4987676D01*
X23432748Y4916027D01*
X23432756Y4916025D01*
X23616379Y4879500D01*
X23616384Y4879500D01*
X23803620Y4879500D01*
X23987243Y4916025D01*
X23987251Y4916027D01*
X24160228Y4987676D01*
X24160237Y4987681D01*
X24315907Y5091697D01*
X24315911Y5091700D01*
X24448299Y5224088D01*
X24448302Y5224092D01*
X24552318Y5379762D01*
X24552323Y5379771D01*
X24613364Y5527137D01*
X24623973Y5552749D01*
X24660500Y5736384D01*
X24660500Y5923616D01*
X24623973Y6107251D01*
X24552322Y6280231D01*
X24448302Y6435908D01*
X24315908Y6568302D01*
X24160231Y6672322D01*
X23987251Y6743973D01*
X23904731Y6760387D01*
X23834371Y6774383D01*
X23772460Y6806768D01*
X23737886Y6867483D01*
X23741625Y6937253D01*
X23782491Y6993925D01*
X23847510Y7019506D01*
X23858562Y7020000D01*
X24607844Y7020000D01*
X24667372Y7026401D01*
X24667379Y7026403D01*
X24802086Y7076645D01*
X24802093Y7076649D01*
X24917187Y7162809D01*
X24917190Y7162812D01*
X25003350Y7277906D01*
X25003354Y7277913D01*
X25053596Y7412620D01*
X25053598Y7412627D01*
X25059999Y7472155D01*
X25060000Y7472172D01*
X25060000Y8120000D01*
X24143012Y8120000D01*
X24175925Y8177007D01*
X24210000Y8304174D01*
X24210000Y8435826D01*
X24175925Y8562993D01*
X24143012Y8620000D01*
X25060000Y8620000D01*
X25060000Y9267827D01*
X25059999Y9267844D01*
X25053598Y9327372D01*
X25053596Y9327379D01*
X25003354Y9462086D01*
X25003350Y9462093D01*
X24917190Y9577187D01*
X24917187Y9577190D01*
X24802093Y9663350D01*
X24802086Y9663354D01*
X24667379Y9713596D01*
X24667372Y9713598D01*
X24607844Y9719999D01*
X24607828Y9720000D01*
X23960000Y9720000D01*
X23960000Y8803012D01*
X23902993Y8835925D01*
X23775826Y8870000D01*
X23644174Y8870000D01*
X23517007Y8835925D01*
X23460000Y8803012D01*
X23460000Y9720000D01*
X22812172Y9720000D01*
X22812155Y9719999D01*
X22752627Y9713598D01*
X22752620Y9713596D01*
X22617913Y9663354D01*
X22617906Y9663350D01*
X22502812Y9577190D01*
X22502809Y9577187D01*
X22416649Y9462093D01*
X22416645Y9462086D01*
X22366403Y9327379D01*
X22366401Y9327372D01*
X22360000Y9267844D01*
X8299960Y9267844D01*
X8252727Y9280500D01*
X8147273Y9280500D01*
X8045413Y9253207D01*
X7954087Y9200480D01*
X7879520Y9125913D01*
X7826793Y9034587D01*
X7799865Y8934087D01*
X7799500Y8932726D01*
X7300500Y8932726D01*
X7300500Y8932727D01*
X7273207Y9034587D01*
X7220480Y9125913D01*
X7145913Y9200480D01*
X7054587Y9253207D01*
X6952727Y9280500D01*
X6847273Y9280500D01*
X6745413Y9253207D01*
X6654087Y9200480D01*
X6579520Y9125913D01*
X6526793Y9034587D01*
X6499865Y8934087D01*
X6499500Y8932726D01*
X-13480880Y8932726D01*
X-13479521Y8934085D01*
X-13471134Y8948610D01*
X-13432277Y9015914D01*
X-13426793Y9025412D01*
X-13426793Y9025413D01*
X-13399500Y9127273D01*
X-13399500Y9232726D01*
X-13404987Y9253206D01*
X-13426793Y9334587D01*
X-13479520Y9425913D01*
X-13554087Y9500480D01*
X-13645413Y9553207D01*
X-13747273Y9580500D01*
X-13852727Y9580500D01*
X-13954587Y9553207D01*
X-14045913Y9500480D01*
X-14120480Y9425913D01*
X-14173207Y9334587D01*
X-14200500Y9232727D01*
X-23499500Y9232727D01*
X-23499500Y10132727D01*
X-17800500Y10132727D01*
X-17800500Y10027273D01*
X-17773207Y9925413D01*
X-17720480Y9834087D01*
X-17645913Y9759520D01*
X-17554587Y9706793D01*
X-17452727Y9679500D01*
X-17452726Y9679500D01*
X-17347273Y9679500D01*
X-17245413Y9706793D01*
X-17245410Y9706794D01*
X-17154085Y9759521D01*
X-17079521Y9834085D01*
X-17026794Y9925410D01*
X-17026793Y9925413D01*
X-16999500Y10027273D01*
X-16999500Y10132726D01*
X-17026793Y10234586D01*
X-17026794Y10234589D01*
X-17079521Y10325914D01*
X-17154085Y10400478D01*
X-17154087Y10400480D01*
X-17245413Y10453207D01*
X-17347273Y10480500D01*
X-17452727Y10480500D01*
X-17554587Y10453207D01*
X-17645913Y10400480D01*
X-17720480Y10325913D01*
X-17773207Y10234587D01*
X-17800500Y10132727D01*
X-23499500Y10132727D01*
X-23499500Y11079383D01*
X-10551786Y11079383D01*
X-10551786Y10973929D01*
X-10524493Y10872069D01*
X-10471766Y10780743D01*
X-10397199Y10706176D01*
X-10305873Y10653449D01*
X-10204013Y10626156D01*
X-10204012Y10626156D01*
X-10098559Y10626156D01*
X-9996699Y10653449D01*
X-9996696Y10653450D01*
X-9905371Y10706177D01*
X-9830807Y10780741D01*
X-9778080Y10872066D01*
X-9778079Y10872069D01*
X-9750786Y10973929D01*
X-9750786Y11079382D01*
X-9778210Y11181733D01*
X-9776547Y11251583D01*
X-9737384Y11309446D01*
X-9720437Y11321212D01*
X-9654085Y11359521D01*
X-9579521Y11434085D01*
X-9526794Y11525410D01*
X-9526793Y11525413D01*
X-9499500Y11627273D01*
X-9499500Y11732726D01*
X-9499864Y11734087D01*
X-9526793Y11834587D01*
X-9579520Y11925913D01*
X-9654087Y12000480D01*
X-9709939Y12032726D01*
X18099500Y12032726D01*
X18099500Y11927273D01*
X18126793Y11825413D01*
X18126794Y11825410D01*
X18179521Y11734085D01*
X18254085Y11659521D01*
X18345410Y11606794D01*
X18345413Y11606793D01*
X18447273Y11579500D01*
X18552726Y11579500D01*
X18552727Y11579500D01*
X18654587Y11606793D01*
X18745913Y11659520D01*
X18820480Y11734087D01*
X18873207Y11825413D01*
X18900500Y11927273D01*
X18900500Y12032727D01*
X18873207Y12134587D01*
X18820480Y12225913D01*
X18745913Y12300480D01*
X18654587Y12353207D01*
X18552727Y12380500D01*
X18447273Y12380500D01*
X18345413Y12353207D01*
X18254087Y12300480D01*
X18179520Y12225913D01*
X18126793Y12134587D01*
X18104988Y12053206D01*
X18099500Y12032726D01*
X-9709939Y12032726D01*
X-9745413Y12053207D01*
X-9847273Y12080500D01*
X-9952727Y12080500D01*
X-10054587Y12053207D01*
X-10145913Y12000480D01*
X-10220480Y11925913D01*
X-10273207Y11834587D01*
X-10300500Y11732727D01*
X-10300500Y11627273D01*
X-10295012Y11606793D01*
X-10273075Y11524922D01*
X-10274738Y11455072D01*
X-10313901Y11397210D01*
X-10330845Y11385445D01*
X-10397199Y11347136D01*
X-10471766Y11272569D01*
X-10524493Y11181243D01*
X-10551786Y11079383D01*
X-23499500Y11079383D01*
X-23499500Y11984071D01*
X-22470500Y11984071D01*
X-22470500Y11855928D01*
X-22464429Y11825410D01*
X-22445501Y11730256D01*
X-22416201Y11659520D01*
X-22396466Y11611875D01*
X-22396461Y11611866D01*
X-22325276Y11505331D01*
X-22325273Y11505327D01*
X-22234672Y11414726D01*
X-22234668Y11414723D01*
X-22128133Y11343538D01*
X-22128124Y11343533D01*
X-22009744Y11294499D01*
X-22009738Y11294497D01*
X-21884071Y11269500D01*
X-21884069Y11269500D01*
X-21755929Y11269500D01*
X-21630261Y11294497D01*
X-21630255Y11294499D01*
X-21511875Y11343533D01*
X-21511866Y11343538D01*
X-21405331Y11414723D01*
X-21405327Y11414726D01*
X-21314726Y11505327D01*
X-21314723Y11505331D01*
X-21243538Y11611866D01*
X-21243533Y11611875D01*
X-21194499Y11730255D01*
X-21194497Y11730261D01*
X-21169500Y11855928D01*
X-21169500Y11984071D01*
X-21169499Y11984071D01*
X-21194497Y12109738D01*
X-21194499Y12109744D01*
X-21243533Y12228124D01*
X-21243538Y12228133D01*
X-21314723Y12334668D01*
X-21314726Y12334672D01*
X-21405327Y12425273D01*
X-21405331Y12425276D01*
X-21511866Y12496461D01*
X-21511875Y12496466D01*
X-21538692Y12507574D01*
X-21630256Y12545501D01*
X-21630261Y12545502D01*
X-21755929Y12570500D01*
X-21755931Y12570500D01*
X-21884069Y12570500D01*
X-21884071Y12570500D01*
X-21968615Y12553682D01*
X-22009744Y12545501D01*
X-22128127Y12496465D01*
X-22234669Y12425276D01*
X-22325276Y12334669D01*
X-22396465Y12228127D01*
X-22445501Y12109744D01*
X-22445502Y12109738D01*
X-22470500Y11984071D01*
X-23499500Y11984071D01*
X-23499500Y13082727D01*
X-19150500Y13082727D01*
X-19150500Y12977273D01*
X-19123207Y12875413D01*
X-19070480Y12784087D01*
X-18995913Y12709520D01*
X-18929059Y12670922D01*
X-18909311Y12659520D01*
X-18904587Y12656793D01*
X-18802727Y12629500D01*
X-18802726Y12629500D01*
X-18697273Y12629500D01*
X-18595413Y12656793D01*
X-18595410Y12656794D01*
X-18504085Y12709521D01*
X-18429521Y12784085D01*
X-18376794Y12875410D01*
X-18376793Y12875413D01*
X-18349500Y12977273D01*
X-18349500Y13032726D01*
X10099500Y13032726D01*
X10099500Y12927273D01*
X10126793Y12825413D01*
X10126794Y12825410D01*
X10179521Y12734085D01*
X10254085Y12659521D01*
X10345410Y12606794D01*
X10345413Y12606793D01*
X10447273Y12579500D01*
X10552726Y12579500D01*
X10552727Y12579500D01*
X10654587Y12606793D01*
X10745913Y12659520D01*
X10820480Y12734087D01*
X10873207Y12825413D01*
X10900500Y12927273D01*
X10900500Y13032726D01*
X12109500Y13032726D01*
X12109500Y12927273D01*
X12136793Y12825413D01*
X12136794Y12825410D01*
X12189521Y12734085D01*
X12264085Y12659521D01*
X12355410Y12606794D01*
X12355413Y12606793D01*
X12457273Y12579500D01*
X12562726Y12579500D01*
X12562727Y12579500D01*
X12664587Y12606793D01*
X12755913Y12659520D01*
X12830480Y12734087D01*
X12883207Y12825413D01*
X12910500Y12927273D01*
X12910500Y13032726D01*
X15109500Y13032726D01*
X15109500Y12927273D01*
X15136793Y12825413D01*
X15136794Y12825410D01*
X15189521Y12734085D01*
X15264085Y12659521D01*
X15355410Y12606794D01*
X15355413Y12606793D01*
X15457273Y12579500D01*
X15562726Y12579500D01*
X15562727Y12579500D01*
X15664587Y12606793D01*
X15755913Y12659520D01*
X15830480Y12734087D01*
X15883207Y12825413D01*
X15910500Y12927273D01*
X15910500Y13032727D01*
X15883207Y13134587D01*
X15830480Y13225913D01*
X15755913Y13300480D01*
X15664587Y13353207D01*
X15562727Y13380500D01*
X15457273Y13380500D01*
X15355413Y13353207D01*
X15264087Y13300480D01*
X15189520Y13225913D01*
X15136793Y13134587D01*
X15122898Y13082727D01*
X15109500Y13032726D01*
X12910500Y13032726D01*
X12910500Y13032727D01*
X12883207Y13134587D01*
X12830480Y13225913D01*
X12755913Y13300480D01*
X12664587Y13353207D01*
X12562727Y13380500D01*
X12457273Y13380500D01*
X12355413Y13353207D01*
X12264087Y13300480D01*
X12189520Y13225913D01*
X12136793Y13134587D01*
X12122898Y13082727D01*
X12109500Y13032726D01*
X10900500Y13032726D01*
X10900500Y13032727D01*
X10873207Y13134587D01*
X10820480Y13225913D01*
X10745913Y13300480D01*
X10654587Y13353207D01*
X10552727Y13380500D01*
X10447273Y13380500D01*
X10345413Y13353207D01*
X10254087Y13300480D01*
X10179520Y13225913D01*
X10126793Y13134587D01*
X10112898Y13082727D01*
X10099500Y13032726D01*
X-18349500Y13032726D01*
X-18349500Y13082726D01*
X-18355948Y13106793D01*
X-18376793Y13184587D01*
X-18429520Y13275913D01*
X-18504087Y13350480D01*
X-18595413Y13403207D01*
X-18697273Y13430500D01*
X-18802727Y13430500D01*
X-18904587Y13403207D01*
X-18995913Y13350480D01*
X-19070480Y13275913D01*
X-19123207Y13184587D01*
X-19150500Y13082727D01*
X-23499500Y13082727D01*
X-23499500Y13532727D01*
X-8100500Y13532727D01*
X-8100500Y13427273D01*
X-8073207Y13325413D01*
X-8020480Y13234087D01*
X-7945913Y13159520D01*
X-7854587Y13106793D01*
X-7752727Y13079500D01*
X-7752726Y13079500D01*
X-7647273Y13079500D01*
X-7545413Y13106793D01*
X-7545411Y13106794D01*
X-7454087Y13159520D01*
X-7454085Y13159521D01*
X-7379521Y13234085D01*
X-7326794Y13325410D01*
X-7326793Y13325413D01*
X-7299500Y13427273D01*
X-7299500Y13532726D01*
X-7326793Y13634586D01*
X-7326794Y13634589D01*
X-7338196Y13654338D01*
X-7379520Y13725913D01*
X-7379521Y13725914D01*
X-7383584Y13732951D01*
X-7382338Y13733669D01*
X-7404351Y13790608D01*
X-7390313Y13859053D01*
X-7342782Y13908312D01*
X-7254084Y13959522D01*
X-7179521Y14034085D01*
X-7126794Y14125410D01*
X-7126793Y14125413D01*
X-7099500Y14227273D01*
X-7099500Y14332726D01*
X-7120136Y14409744D01*
X-7126793Y14434587D01*
X-7179520Y14525913D01*
X-7254087Y14600480D01*
X-7345413Y14653207D01*
X-7447273Y14680500D01*
X-7552727Y14680500D01*
X-7654587Y14653207D01*
X-7745913Y14600480D01*
X-7820480Y14525913D01*
X-7873207Y14434587D01*
X-7900500Y14332727D01*
X-7900500Y14227273D01*
X-7873207Y14125413D01*
X-7820480Y14034087D01*
X-7820478Y14034085D01*
X-7816416Y14027049D01*
X-7817660Y14026330D01*
X-7795648Y13969394D01*
X-7809685Y13900949D01*
X-7857215Y13851689D01*
X-7945913Y13800480D01*
X-8020480Y13725913D01*
X-8073207Y13634587D01*
X-8100500Y13532727D01*
X-23499500Y13532727D01*
X-23499500Y14284071D01*
X-22470500Y14284071D01*
X-22470500Y14155928D01*
X-22464429Y14125410D01*
X-22445501Y14030256D01*
X-22420291Y13969394D01*
X-22396466Y13911875D01*
X-22396461Y13911866D01*
X-22325276Y13805331D01*
X-22325273Y13805327D01*
X-22234672Y13714726D01*
X-22234668Y13714723D01*
X-22128133Y13643538D01*
X-22128124Y13643533D01*
X-22009744Y13594499D01*
X-22009738Y13594497D01*
X-21884071Y13569500D01*
X-21884069Y13569500D01*
X-21755929Y13569500D01*
X-21630261Y13594497D01*
X-21630255Y13594499D01*
X-21511875Y13643533D01*
X-21511866Y13643538D01*
X-21405331Y13714723D01*
X-21405327Y13714726D01*
X-21314726Y13805327D01*
X-21314723Y13805331D01*
X-21243538Y13911866D01*
X-21243533Y13911875D01*
X-21194499Y14030255D01*
X-21194497Y14030261D01*
X-21169500Y14155928D01*
X-21169500Y14284071D01*
X-21169499Y14284071D01*
X-21194497Y14409738D01*
X-21194499Y14409744D01*
X-21243533Y14528124D01*
X-21243538Y14528133D01*
X-21314723Y14634668D01*
X-21314726Y14634672D01*
X-21405327Y14725273D01*
X-21405331Y14725276D01*
X-21511866Y14796461D01*
X-21511875Y14796466D01*
X-21538692Y14807574D01*
X-21630256Y14845501D01*
X-21630261Y14845502D01*
X-21755929Y14870500D01*
X-21755931Y14870500D01*
X-21884069Y14870500D01*
X-21884071Y14870500D01*
X-21968615Y14853682D01*
X-22009744Y14845501D01*
X-22128127Y14796465D01*
X-22234669Y14725276D01*
X-22325276Y14634669D01*
X-22396465Y14528127D01*
X-22445501Y14409744D01*
X-22447535Y14399520D01*
X-22470500Y14284071D01*
X-23499500Y14284071D01*
X-23499500Y15572727D01*
X-18400500Y15572727D01*
X-18400500Y15467273D01*
X-18373207Y15365413D01*
X-18320480Y15274087D01*
X-18245913Y15199520D01*
X-18154587Y15146793D01*
X-18052727Y15119500D01*
X-18052726Y15119500D01*
X-17947273Y15119500D01*
X-17845413Y15146793D01*
X-17845410Y15146794D01*
X-17754085Y15199521D01*
X-17679521Y15274085D01*
X-17626794Y15365410D01*
X-17626793Y15365411D01*
X-17616600Y15403456D01*
X-17616599Y15403456D01*
X-17599500Y15467273D01*
X-17599500Y15572726D01*
X-17626793Y15674586D01*
X-17626794Y15674589D01*
X-17679521Y15765914D01*
X-17754085Y15840478D01*
X-17754087Y15840480D01*
X-17845413Y15893207D01*
X-17947273Y15920500D01*
X-18052727Y15920500D01*
X-18154587Y15893207D01*
X-18245913Y15840480D01*
X-18320480Y15765913D01*
X-18373207Y15674587D01*
X-18400500Y15572727D01*
X-23499500Y15572727D01*
X-23499500Y16417844D01*
X13372500Y16417844D01*
X13372500Y15820000D01*
X14239490Y15820000D01*
X14206576Y15762992D01*
X14172501Y15635826D01*
X14172501Y15504174D01*
X14206576Y15377008D01*
X14239490Y15320000D01*
X13372500Y15320000D01*
X13372500Y14722155D01*
X13378901Y14662627D01*
X13378903Y14662620D01*
X13429145Y14527913D01*
X13429149Y14527906D01*
X13515309Y14412812D01*
X13515312Y14412809D01*
X13630406Y14326649D01*
X13630413Y14326645D01*
X13765120Y14276403D01*
X13765127Y14276401D01*
X13824655Y14270000D01*
X14422500Y14270000D01*
X14422500Y15136989D01*
X14479508Y15104076D01*
X14606674Y15070001D01*
X14738326Y15070001D01*
X14865492Y15104076D01*
X14922500Y15136989D01*
X14922500Y14270000D01*
X15520344Y14270000D01*
X15579872Y14276401D01*
X15579879Y14276403D01*
X15714586Y14326645D01*
X15714593Y14326649D01*
X15829687Y14412809D01*
X15829690Y14412812D01*
X15915850Y14527906D01*
X15915854Y14527913D01*
X15966096Y14662620D01*
X15966098Y14662627D01*
X15972499Y14722155D01*
X15972500Y14722172D01*
X15972500Y14772726D01*
X18099500Y14772726D01*
X18099500Y14667273D01*
X18126793Y14565413D01*
X18126794Y14565410D01*
X18179521Y14474085D01*
X18254085Y14399521D01*
X18345410Y14346794D01*
X18345413Y14346793D01*
X18447273Y14319500D01*
X18552726Y14319500D01*
X18552727Y14319500D01*
X18654587Y14346793D01*
X18745913Y14399520D01*
X18820480Y14474087D01*
X18873207Y14565413D01*
X18900500Y14667273D01*
X18900500Y14772727D01*
X18873207Y14874587D01*
X18820480Y14965913D01*
X18745913Y15040480D01*
X18654587Y15093207D01*
X18552727Y15120500D01*
X18447273Y15120500D01*
X18345413Y15093207D01*
X18254087Y15040480D01*
X18179520Y14965913D01*
X18126793Y14874587D01*
X18105860Y14796461D01*
X18099500Y14772726D01*
X15972500Y14772726D01*
X15972500Y15320000D01*
X15105510Y15320000D01*
X15138424Y15377008D01*
X15172499Y15504174D01*
X15172499Y15635826D01*
X15138424Y15762992D01*
X15105510Y15820000D01*
X15972500Y15820000D01*
X15972500Y16417827D01*
X15972499Y16417844D01*
X15966098Y16477372D01*
X15966096Y16477379D01*
X15915854Y16612086D01*
X15915850Y16612093D01*
X15829690Y16727187D01*
X15829687Y16727190D01*
X15714593Y16813350D01*
X15714586Y16813354D01*
X15579879Y16863596D01*
X15579872Y16863598D01*
X15520344Y16869999D01*
X15520328Y16870000D01*
X14922500Y16870000D01*
X14922500Y16003010D01*
X14865492Y16035924D01*
X14738326Y16069999D01*
X14606674Y16069999D01*
X14479508Y16035924D01*
X14422500Y16003010D01*
X14422500Y16870000D01*
X13824672Y16870000D01*
X13824655Y16869999D01*
X13765127Y16863598D01*
X13765120Y16863596D01*
X13630413Y16813354D01*
X13630406Y16813350D01*
X13515312Y16727190D01*
X13515309Y16727187D01*
X13429149Y16612093D01*
X13429145Y16612086D01*
X13378903Y16477379D01*
X13378901Y16477372D01*
X13372500Y16417844D01*
X-23499500Y16417844D01*
X-23499500Y17484509D01*
X-18400500Y17484509D01*
X-18400500Y17379055D01*
X-18373207Y17277195D01*
X-18320480Y17185869D01*
X-18245913Y17111302D01*
X-18154587Y17058575D01*
X-18052727Y17031282D01*
X-18052726Y17031282D01*
X-17947273Y17031282D01*
X-17941880Y17032727D01*
X-14100500Y17032727D01*
X-14100500Y16927273D01*
X-14073207Y16825413D01*
X-14020480Y16734087D01*
X-13945913Y16659520D01*
X-13854587Y16606793D01*
X-13752727Y16579500D01*
X-13752726Y16579500D01*
X-13647273Y16579500D01*
X-13545413Y16606793D01*
X-13545410Y16606794D01*
X-13454085Y16659521D01*
X-13387681Y16725926D01*
X-13326358Y16759411D01*
X-13256666Y16754427D01*
X-13212319Y16725926D01*
X-13145913Y16659520D01*
X-13054587Y16606793D01*
X-12952727Y16579500D01*
X-12952726Y16579500D01*
X-12847273Y16579500D01*
X-12745413Y16606793D01*
X-12745410Y16606794D01*
X-12654085Y16659521D01*
X-12579521Y16734085D01*
X-12526794Y16825410D01*
X-12526793Y16825413D01*
X-12499500Y16927273D01*
X-12499500Y16932727D01*
X-10200500Y16932727D01*
X-10200500Y16827273D01*
X-10173207Y16725413D01*
X-10120480Y16634087D01*
X-10045913Y16559520D01*
X-9954587Y16506793D01*
X-9852727Y16479500D01*
X-9852726Y16479500D01*
X-9747273Y16479500D01*
X-9645413Y16506793D01*
X-9645410Y16506794D01*
X-9607756Y16528534D01*
X-9607755Y16528534D01*
X-9554087Y16559520D01*
X-9554086Y16559521D01*
X-9554084Y16559522D01*
X-9479521Y16634085D01*
X-9426794Y16725410D01*
X-9426793Y16725413D01*
X-9399500Y16827273D01*
X-9399500Y16932726D01*
X-9425907Y17031282D01*
X-9426793Y17034587D01*
X-9479520Y17125913D01*
X-9554087Y17200480D01*
X-9645413Y17253207D01*
X-9747273Y17280500D01*
X-9852727Y17280500D01*
X-9954587Y17253207D01*
X-10045913Y17200480D01*
X-10120480Y17125913D01*
X-10173207Y17034587D01*
X-10200500Y16932727D01*
X-12499500Y16932727D01*
X-12499500Y17032726D01*
X-12499998Y17034587D01*
X-12526793Y17134587D01*
X-12579520Y17225913D01*
X-12654087Y17300480D01*
X-12745413Y17353207D01*
X-12847273Y17380500D01*
X-12952727Y17380500D01*
X-13054587Y17353207D01*
X-13145913Y17300480D01*
X-13193186Y17253207D01*
X-13212319Y17234074D01*
X-13273642Y17200589D01*
X-13343334Y17205573D01*
X-13387681Y17234074D01*
X-13454085Y17300478D01*
X-13454087Y17300480D01*
X-13545413Y17353207D01*
X-13647273Y17380500D01*
X-13752727Y17380500D01*
X-13854587Y17353207D01*
X-13945913Y17300480D01*
X-14020480Y17225913D01*
X-14073207Y17134587D01*
X-14100500Y17032727D01*
X-17941880Y17032727D01*
X-17845413Y17058575D01*
X-17845410Y17058576D01*
X-17754085Y17111303D01*
X-17736854Y17128535D01*
X-17679521Y17185867D01*
X-17626794Y17277192D01*
X-17626793Y17277195D01*
X-17599500Y17379055D01*
X-17599500Y17484508D01*
X-17613286Y17535961D01*
X-17626793Y17586369D01*
X-17679520Y17677695D01*
X-17754087Y17752262D01*
X-17845413Y17804989D01*
X-17947273Y17832282D01*
X-18052727Y17832282D01*
X-18154587Y17804989D01*
X-18245913Y17752262D01*
X-18320480Y17677695D01*
X-18373207Y17586369D01*
X-18400500Y17484509D01*
X-23499500Y17484509D01*
X-23499500Y18198695D01*
X13772000Y18198695D01*
X13772000Y18021304D01*
X13806603Y17847341D01*
X13806606Y17847332D01*
X13874483Y17683459D01*
X13874490Y17683446D01*
X13973035Y17535965D01*
X13973038Y17535961D01*
X14098461Y17410538D01*
X14098465Y17410535D01*
X14245946Y17311990D01*
X14245959Y17311983D01*
X14409832Y17244106D01*
X14409841Y17244103D01*
X14583804Y17209500D01*
X14583809Y17209500D01*
X14761195Y17209500D01*
X14935158Y17244103D01*
X14935167Y17244106D01*
X15099040Y17311983D01*
X15099053Y17311990D01*
X15246534Y17410535D01*
X15246538Y17410538D01*
X15371961Y17535961D01*
X15371964Y17535965D01*
X15470509Y17683446D01*
X15470516Y17683459D01*
X15538393Y17847332D01*
X15538396Y17847341D01*
X15572999Y18021304D01*
X15573000Y18021306D01*
X15573000Y18198693D01*
X15572999Y18198695D01*
X15538396Y18372658D01*
X15538394Y18372661D01*
X15538394Y18372666D01*
X15470513Y18536547D01*
X15371964Y18684035D01*
X15246535Y18809464D01*
X15099047Y18908013D01*
X14935166Y18975894D01*
X14935161Y18975894D01*
X14935158Y18975896D01*
X14761194Y19010500D01*
X14761191Y19010500D01*
X14583809Y19010500D01*
X14583806Y19010500D01*
X14409841Y18975896D01*
X14409836Y18975894D01*
X14409834Y18975894D01*
X14409832Y18975893D01*
X14245959Y18908016D01*
X14245946Y18908009D01*
X14098465Y18809464D01*
X14098461Y18809461D01*
X13973038Y18684038D01*
X13973035Y18684034D01*
X13874490Y18536553D01*
X13874483Y18536540D01*
X13806606Y18372667D01*
X13806603Y18372658D01*
X13772000Y18198695D01*
X-23499500Y18198695D01*
X-23499500Y18932727D01*
X-8700500Y18932727D01*
X-8700500Y18827273D01*
X-8673207Y18725413D01*
X-8620480Y18634087D01*
X-8545913Y18559520D01*
X-8454587Y18506793D01*
X-8352727Y18479500D01*
X-8352726Y18479500D01*
X-8247273Y18479500D01*
X-8145413Y18506793D01*
X-8145410Y18506794D01*
X-8054085Y18559521D01*
X-7979521Y18634085D01*
X-7926794Y18725410D01*
X-7926793Y18725413D01*
X-7899500Y18827273D01*
X-7899500Y18932726D01*
X-7906679Y18959521D01*
X-7926793Y19034587D01*
X-7979520Y19125913D01*
X-8054087Y19200480D01*
X-8145413Y19253207D01*
X-8247273Y19280500D01*
X-8352727Y19280500D01*
X-8454587Y19253207D01*
X-8545913Y19200480D01*
X-8620480Y19125913D01*
X-8673207Y19034587D01*
X-8700500Y18932727D01*
X-23499500Y18932727D01*
X-23499500Y19332726D01*
X4399500Y19332726D01*
X4399500Y19227273D01*
X4426793Y19125413D01*
X4426794Y19125410D01*
X4479521Y19034085D01*
X4554085Y18959521D01*
X4645410Y18906794D01*
X4645413Y18906793D01*
X4747273Y18879500D01*
X4852726Y18879500D01*
X4852727Y18879500D01*
X4954587Y18906793D01*
X4956706Y18908016D01*
X4979059Y18920922D01*
X5045913Y18959520D01*
X5120480Y19034087D01*
X5173207Y19125413D01*
X5200500Y19227273D01*
X5200500Y19332727D01*
X5173207Y19434587D01*
X5120480Y19525913D01*
X5045913Y19600480D01*
X4954587Y19653207D01*
X4852727Y19680500D01*
X4747273Y19680500D01*
X4645413Y19653207D01*
X4554087Y19600480D01*
X4479520Y19525913D01*
X4426793Y19434587D01*
X4404129Y19350000D01*
X4399500Y19332726D01*
X-23499500Y19332726D01*
X-23499500Y20273781D01*
X-7959446Y20273781D01*
X-7959446Y20168327D01*
X-7932153Y20066467D01*
X-7879426Y19975141D01*
X-7804859Y19900574D01*
X-7713533Y19847847D01*
X-7611673Y19820554D01*
X-7611672Y19820554D01*
X-7506219Y19820554D01*
X-7404359Y19847847D01*
X-7404356Y19847848D01*
X-7313031Y19900575D01*
X-7238467Y19975139D01*
X-7185740Y20066464D01*
X-7185739Y20066467D01*
X-7158446Y20168327D01*
X-7158446Y20273780D01*
X-7176991Y20342994D01*
X-7185739Y20375641D01*
X-7238466Y20466967D01*
X-7313033Y20541534D01*
X-7404359Y20594261D01*
X-7506219Y20621554D01*
X-7611673Y20621554D01*
X-7713533Y20594261D01*
X-7804859Y20541534D01*
X-7879426Y20466967D01*
X-7932153Y20375641D01*
X-7959446Y20273781D01*
X-23499500Y20273781D01*
X-23499500Y20752317D01*
X13372500Y20752317D01*
X13372500Y20547682D01*
X13404509Y20345582D01*
X13467744Y20150968D01*
X13560643Y19968644D01*
X13593023Y19924077D01*
X13593024Y19924077D01*
X14189538Y20520591D01*
X14206576Y20457008D01*
X14272402Y20342994D01*
X14365494Y20249902D01*
X14479508Y20184076D01*
X14543092Y20167038D01*
X13946577Y19570524D01*
X13946577Y19570523D01*
X13991144Y19538143D01*
X14173468Y19445244D01*
X14368082Y19382009D01*
X14570183Y19350000D01*
X14774817Y19350000D01*
X14976917Y19382009D01*
X15171531Y19445244D01*
X15353850Y19538141D01*
X15353859Y19538147D01*
X15398421Y19570523D01*
X15398422Y19570524D01*
X14801907Y20167038D01*
X14865492Y20184076D01*
X14979506Y20249902D01*
X15072598Y20342994D01*
X15138424Y20457008D01*
X15155461Y20520590D01*
X15751974Y19924076D01*
X15751974Y19924077D01*
X15784359Y19968650D01*
X15877255Y20150968D01*
X15940490Y20345582D01*
X15972500Y20547682D01*
X15972500Y20752317D01*
X15940490Y20954417D01*
X15877255Y21149031D01*
X15784359Y21331349D01*
X15751974Y21375921D01*
X15751974Y21375922D01*
X15155461Y20779409D01*
X15138424Y20842992D01*
X15072598Y20957006D01*
X14979506Y21050098D01*
X14865492Y21115924D01*
X14801908Y21132961D01*
X15398421Y21729474D01*
X15353849Y21761859D01*
X15171531Y21854755D01*
X14976917Y21917990D01*
X14774817Y21950000D01*
X14570183Y21950000D01*
X14368082Y21917990D01*
X14173468Y21854755D01*
X13991150Y21761859D01*
X13946577Y21729474D01*
X13946576Y21729474D01*
X14543090Y21132961D01*
X14479508Y21115924D01*
X14365494Y21050098D01*
X14272402Y20957006D01*
X14206576Y20842992D01*
X14189538Y20779408D01*
X13593024Y21375922D01*
X13593023Y21375921D01*
X13560647Y21331359D01*
X13560641Y21331350D01*
X13467744Y21149031D01*
X13404509Y20954417D01*
X13372500Y20752317D01*
X-23499500Y20752317D01*
X-23499500Y21332727D01*
X-12400500Y21332727D01*
X-12400500Y21227273D01*
X-12373207Y21125413D01*
X-12320480Y21034087D01*
X-12245913Y20959520D01*
X-12154587Y20906793D01*
X-12052727Y20879500D01*
X-12052726Y20879500D01*
X-11947274Y20879500D01*
X-11947273Y20879500D01*
X-11845413Y20906793D01*
X-11845410Y20906794D01*
X-11754085Y20959521D01*
X-11679521Y21034085D01*
X-11626794Y21125410D01*
X-11626793Y21125413D01*
X-11599500Y21227273D01*
X-11599500Y21332726D01*
X-11626793Y21434586D01*
X-11626794Y21434589D01*
X-11679521Y21525914D01*
X-11754085Y21600478D01*
X-11754087Y21600480D01*
X-11845413Y21653207D01*
X-11947273Y21680500D01*
X-12052727Y21680500D01*
X-12154587Y21653207D01*
X-12245913Y21600480D01*
X-12320480Y21525913D01*
X-12373207Y21434587D01*
X-12400500Y21332727D01*
X-23499500Y21332727D01*
X-23499500Y22276519D01*
X-23499305Y22283472D01*
X-23482916Y22575296D01*
X-23481359Y22589114D01*
X-23432984Y22873827D01*
X-23429890Y22887384D01*
X-23349939Y23164900D01*
X-23345346Y23178024D01*
X-23234831Y23444833D01*
X-23228798Y23457362D01*
X-23089100Y23710125D01*
X-23081702Y23721898D01*
X-23059552Y23753116D01*
X-23059552Y23753117D01*
X-22914584Y23957430D01*
X-22905914Y23968302D01*
X-22713475Y24183642D01*
X-22703642Y24193475D01*
X-22488302Y24385914D01*
X-22477430Y24394584D01*
X-22241899Y24561702D01*
X-22230125Y24569100D01*
X-21977362Y24708798D01*
X-21964833Y24714831D01*
X-21698024Y24825346D01*
X-21684900Y24829939D01*
X-21407384Y24909890D01*
X-21393827Y24912984D01*
X-21109114Y24961359D01*
X-21095296Y24962916D01*
X-20803472Y24979305D01*
X-20796519Y24979500D01*
X-20734108Y24979500D01*
X-3006364Y24979500D01*
X-2939325Y24959815D01*
G37*
%TD.AperFunction*%
%TD*%
M02*
