%TF.GenerationSoftware,KiCad,Pcbnew,9.0.5*%
%TF.CreationDate,2025-10-14T15:47:48-07:00*%
%TF.ProjectId,lightspeed_r1,6c696768-7473-4706-9565-645f72312e6b,rev?*%
%TF.SameCoordinates,Original*%
%TF.FileFunction,Legend,Top*%
%TF.FilePolarity,Positive*%
%FSLAX46Y46*%
G04 Gerber Fmt 4.6, Leading zero omitted, Abs format (unit mm)*
G04 Created by KiCad (PCBNEW 9.0.5) date 2025-10-14 15:47:48*
%MOMM*%
%LPD*%
G01*
G04 APERTURE LIST*
%ADD10C,0.120000*%
%ADD11C,0.100000*%
%ADD12C,0.300000*%
%ADD13C,0.184000*%
%ADD14C,0.400000*%
%ADD15C,0.304800*%
%ADD16C,0.152400*%
%ADD17C,0.150000*%
%ADD18C,0.250000*%
%ADD19C,0.127000*%
%ADD20C,0.200000*%
G04 APERTURE END LIST*
D10*
X-6662500Y20767500D02*
G75*
G02*
X-7062500Y20767500I-200000J0D01*
G01*
X-7062500Y20767500D02*
G75*
G02*
X-6662500Y20767500I200000J0D01*
G01*
D11*
X20500000Y11700000D02*
X7050000Y11700000D01*
D10*
X-15989424Y10233125D02*
G75*
G02*
X-16499326Y10233125I-254951J0D01*
G01*
X-16499326Y10233125D02*
G75*
G02*
X-15989424Y10233125I254951J0D01*
G01*
D12*
X-8799171Y23591653D02*
X-9513457Y23091653D01*
X-8799171Y22734510D02*
X-10299171Y22734510D01*
X-10299171Y22734510D02*
X-10299171Y23305939D01*
X-10299171Y23305939D02*
X-10227742Y23448796D01*
X-10227742Y23448796D02*
X-10156314Y23520225D01*
X-10156314Y23520225D02*
X-10013457Y23591653D01*
X-10013457Y23591653D02*
X-9799171Y23591653D01*
X-9799171Y23591653D02*
X-9656314Y23520225D01*
X-9656314Y23520225D02*
X-9584885Y23448796D01*
X-9584885Y23448796D02*
X-9513457Y23305939D01*
X-9513457Y23305939D02*
X-9513457Y22734510D01*
X-10299171Y24520225D02*
X-10299171Y24663082D01*
X-10299171Y24663082D02*
X-10227742Y24805939D01*
X-10227742Y24805939D02*
X-10156314Y24877368D01*
X-10156314Y24877368D02*
X-10013457Y24948796D01*
X-10013457Y24948796D02*
X-9727742Y25020225D01*
X-9727742Y25020225D02*
X-9370600Y25020225D01*
X-9370600Y25020225D02*
X-9084885Y24948796D01*
X-9084885Y24948796D02*
X-8942028Y24877368D01*
X-8942028Y24877368D02*
X-8870600Y24805939D01*
X-8870600Y24805939D02*
X-8799171Y24663082D01*
X-8799171Y24663082D02*
X-8799171Y24520225D01*
X-8799171Y24520225D02*
X-8870600Y24377368D01*
X-8870600Y24377368D02*
X-8942028Y24305939D01*
X-8942028Y24305939D02*
X-9084885Y24234510D01*
X-9084885Y24234510D02*
X-9370600Y24163082D01*
X-9370600Y24163082D02*
X-9727742Y24163082D01*
X-9727742Y24163082D02*
X-10013457Y24234510D01*
X-10013457Y24234510D02*
X-10156314Y24305939D01*
X-10156314Y24305939D02*
X-10227742Y24377368D01*
X-10227742Y24377368D02*
X-10299171Y24520225D01*
X-9584885Y19534510D02*
X-9513457Y19748796D01*
X-9513457Y19748796D02*
X-9442028Y19820225D01*
X-9442028Y19820225D02*
X-9299171Y19891653D01*
X-9299171Y19891653D02*
X-9084885Y19891653D01*
X-9084885Y19891653D02*
X-8942028Y19820225D01*
X-8942028Y19820225D02*
X-8870600Y19748796D01*
X-8870600Y19748796D02*
X-8799171Y19605939D01*
X-8799171Y19605939D02*
X-8799171Y19034510D01*
X-8799171Y19034510D02*
X-10299171Y19034510D01*
X-10299171Y19034510D02*
X-10299171Y19534510D01*
X-10299171Y19534510D02*
X-10227742Y19677368D01*
X-10227742Y19677368D02*
X-10156314Y19748796D01*
X-10156314Y19748796D02*
X-10013457Y19820225D01*
X-10013457Y19820225D02*
X-9870600Y19820225D01*
X-9870600Y19820225D02*
X-9727742Y19748796D01*
X-9727742Y19748796D02*
X-9656314Y19677368D01*
X-9656314Y19677368D02*
X-9584885Y19534510D01*
X-9584885Y19534510D02*
X-9584885Y19034510D01*
X-10299171Y20820225D02*
X-10299171Y20963082D01*
X-10299171Y20963082D02*
X-10227742Y21105939D01*
X-10227742Y21105939D02*
X-10156314Y21177368D01*
X-10156314Y21177368D02*
X-10013457Y21248796D01*
X-10013457Y21248796D02*
X-9727742Y21320225D01*
X-9727742Y21320225D02*
X-9370600Y21320225D01*
X-9370600Y21320225D02*
X-9084885Y21248796D01*
X-9084885Y21248796D02*
X-8942028Y21177368D01*
X-8942028Y21177368D02*
X-8870600Y21105939D01*
X-8870600Y21105939D02*
X-8799171Y20963082D01*
X-8799171Y20963082D02*
X-8799171Y20820225D01*
X-8799171Y20820225D02*
X-8870600Y20677368D01*
X-8870600Y20677368D02*
X-8942028Y20605939D01*
X-8942028Y20605939D02*
X-9084885Y20534510D01*
X-9084885Y20534510D02*
X-9370600Y20463082D01*
X-9370600Y20463082D02*
X-9727742Y20463082D01*
X-9727742Y20463082D02*
X-10013457Y20534510D01*
X-10013457Y20534510D02*
X-10156314Y20605939D01*
X-10156314Y20605939D02*
X-10227742Y20677368D01*
X-10227742Y20677368D02*
X-10299171Y20820225D01*
D13*
X-14846090Y-22880289D02*
X-15274662Y-22880289D01*
X-15274662Y-22880289D02*
X-15317519Y-23308860D01*
X-15317519Y-23308860D02*
X-15274662Y-23266003D01*
X-15274662Y-23266003D02*
X-15188948Y-23223146D01*
X-15188948Y-23223146D02*
X-14974662Y-23223146D01*
X-14974662Y-23223146D02*
X-14888948Y-23266003D01*
X-14888948Y-23266003D02*
X-14846090Y-23308860D01*
X-14846090Y-23308860D02*
X-14803233Y-23394574D01*
X-14803233Y-23394574D02*
X-14803233Y-23608860D01*
X-14803233Y-23608860D02*
X-14846090Y-23694574D01*
X-14846090Y-23694574D02*
X-14888948Y-23737432D01*
X-14888948Y-23737432D02*
X-14974662Y-23780289D01*
X-14974662Y-23780289D02*
X-15188948Y-23780289D01*
X-15188948Y-23780289D02*
X-15274662Y-23737432D01*
X-15274662Y-23737432D02*
X-15317519Y-23694574D01*
X-14546090Y-22880289D02*
X-14246090Y-23780289D01*
X-14246090Y-23780289D02*
X-13946090Y-22880289D01*
X-12960376Y-23780289D02*
X-12960376Y-22880289D01*
X-12960376Y-22880289D02*
X-12617519Y-22880289D01*
X-12617519Y-22880289D02*
X-12531804Y-22923146D01*
X-12531804Y-22923146D02*
X-12488947Y-22966003D01*
X-12488947Y-22966003D02*
X-12446090Y-23051717D01*
X-12446090Y-23051717D02*
X-12446090Y-23180289D01*
X-12446090Y-23180289D02*
X-12488947Y-23266003D01*
X-12488947Y-23266003D02*
X-12531804Y-23308860D01*
X-12531804Y-23308860D02*
X-12617519Y-23351717D01*
X-12617519Y-23351717D02*
X-12960376Y-23351717D01*
X-11888947Y-22880289D02*
X-11717519Y-22880289D01*
X-11717519Y-22880289D02*
X-11631804Y-22923146D01*
X-11631804Y-22923146D02*
X-11546090Y-23008860D01*
X-11546090Y-23008860D02*
X-11503233Y-23180289D01*
X-11503233Y-23180289D02*
X-11503233Y-23480289D01*
X-11503233Y-23480289D02*
X-11546090Y-23651717D01*
X-11546090Y-23651717D02*
X-11631804Y-23737432D01*
X-11631804Y-23737432D02*
X-11717519Y-23780289D01*
X-11717519Y-23780289D02*
X-11888947Y-23780289D01*
X-11888947Y-23780289D02*
X-11974662Y-23737432D01*
X-11974662Y-23737432D02*
X-12060376Y-23651717D01*
X-12060376Y-23651717D02*
X-12103233Y-23480289D01*
X-12103233Y-23480289D02*
X-12103233Y-23180289D01*
X-12103233Y-23180289D02*
X-12060376Y-23008860D01*
X-12060376Y-23008860D02*
X-11974662Y-22923146D01*
X-11974662Y-22923146D02*
X-11888947Y-22880289D01*
X-11203233Y-22880289D02*
X-10988947Y-23780289D01*
X-10988947Y-23780289D02*
X-10817519Y-23137432D01*
X-10817519Y-23137432D02*
X-10646090Y-23780289D01*
X-10646090Y-23780289D02*
X-10431805Y-22880289D01*
X-10088948Y-23308860D02*
X-9788948Y-23308860D01*
X-9660376Y-23780289D02*
X-10088948Y-23780289D01*
X-10088948Y-23780289D02*
X-10088948Y-22880289D01*
X-10088948Y-22880289D02*
X-9660376Y-22880289D01*
X-8760376Y-23780289D02*
X-9060376Y-23351717D01*
X-9274662Y-23780289D02*
X-9274662Y-22880289D01*
X-9274662Y-22880289D02*
X-8931805Y-22880289D01*
X-8931805Y-22880289D02*
X-8846090Y-22923146D01*
X-8846090Y-22923146D02*
X-8803233Y-22966003D01*
X-8803233Y-22966003D02*
X-8760376Y-23051717D01*
X-8760376Y-23051717D02*
X-8760376Y-23180289D01*
X-8760376Y-23180289D02*
X-8803233Y-23266003D01*
X-8803233Y-23266003D02*
X-8846090Y-23308860D01*
X-8846090Y-23308860D02*
X-8931805Y-23351717D01*
X-8931805Y-23351717D02*
X-9274662Y-23351717D01*
D14*
X-14450652Y-18332533D02*
X-12926843Y-18332533D01*
X-13688747Y-19094438D02*
X-13688747Y-17570628D01*
D12*
X17154510Y17064885D02*
X17368796Y16993457D01*
X17368796Y16993457D02*
X17440225Y16922028D01*
X17440225Y16922028D02*
X17511653Y16779171D01*
X17511653Y16779171D02*
X17511653Y16564885D01*
X17511653Y16564885D02*
X17440225Y16422028D01*
X17440225Y16422028D02*
X17368796Y16350600D01*
X17368796Y16350600D02*
X17225939Y16279171D01*
X17225939Y16279171D02*
X16654510Y16279171D01*
X16654510Y16279171D02*
X16654510Y17779171D01*
X16654510Y17779171D02*
X17154510Y17779171D01*
X17154510Y17779171D02*
X17297368Y17707742D01*
X17297368Y17707742D02*
X17368796Y17636314D01*
X17368796Y17636314D02*
X17440225Y17493457D01*
X17440225Y17493457D02*
X17440225Y17350600D01*
X17440225Y17350600D02*
X17368796Y17207742D01*
X17368796Y17207742D02*
X17297368Y17136314D01*
X17297368Y17136314D02*
X17154510Y17064885D01*
X17154510Y17064885D02*
X16654510Y17064885D01*
X18940225Y16279171D02*
X18083082Y16279171D01*
X18511653Y16279171D02*
X18511653Y17779171D01*
X18511653Y17779171D02*
X18368796Y17564885D01*
X18368796Y17564885D02*
X18225939Y17422028D01*
X18225939Y17422028D02*
X18083082Y17350600D01*
X8021653Y11959171D02*
X7521653Y12673457D01*
X7164510Y11959171D02*
X7164510Y13459171D01*
X7164510Y13459171D02*
X7735939Y13459171D01*
X7735939Y13459171D02*
X7878796Y13387742D01*
X7878796Y13387742D02*
X7950225Y13316314D01*
X7950225Y13316314D02*
X8021653Y13173457D01*
X8021653Y13173457D02*
X8021653Y12959171D01*
X8021653Y12959171D02*
X7950225Y12816314D01*
X7950225Y12816314D02*
X7878796Y12744885D01*
X7878796Y12744885D02*
X7735939Y12673457D01*
X7735939Y12673457D02*
X7164510Y12673457D01*
X9450225Y11959171D02*
X8593082Y11959171D01*
X9021653Y11959171D02*
X9021653Y13459171D01*
X9021653Y13459171D02*
X8878796Y13244885D01*
X8878796Y13244885D02*
X8735939Y13102028D01*
X8735939Y13102028D02*
X8593082Y13030600D01*
D15*
X-11023283Y-18777483D02*
X-9499474Y-18777483D01*
D11*
X-187628Y8630000D02*
X-473342Y8430000D01*
X-187628Y8287143D02*
X-787628Y8287143D01*
X-787628Y8287143D02*
X-787628Y8515714D01*
X-787628Y8515714D02*
X-759057Y8572857D01*
X-759057Y8572857D02*
X-730485Y8601428D01*
X-730485Y8601428D02*
X-673342Y8630000D01*
X-673342Y8630000D02*
X-587628Y8630000D01*
X-587628Y8630000D02*
X-530485Y8601428D01*
X-530485Y8601428D02*
X-501914Y8572857D01*
X-501914Y8572857D02*
X-473342Y8515714D01*
X-473342Y8515714D02*
X-473342Y8287143D01*
X-787628Y9172857D02*
X-787628Y8887143D01*
X-787628Y8887143D02*
X-501914Y8858571D01*
X-501914Y8858571D02*
X-530485Y8887143D01*
X-530485Y8887143D02*
X-559057Y8944286D01*
X-559057Y8944286D02*
X-559057Y9087143D01*
X-559057Y9087143D02*
X-530485Y9144286D01*
X-530485Y9144286D02*
X-501914Y9172857D01*
X-501914Y9172857D02*
X-444771Y9201428D01*
X-444771Y9201428D02*
X-301914Y9201428D01*
X-301914Y9201428D02*
X-244771Y9172857D01*
X-244771Y9172857D02*
X-216200Y9144286D01*
X-216200Y9144286D02*
X-187628Y9087143D01*
X-187628Y9087143D02*
X-187628Y8944286D01*
X-187628Y8944286D02*
X-216200Y8887143D01*
X-216200Y8887143D02*
X-244771Y8858571D01*
X-4228838Y8596335D02*
X-4228838Y8110621D01*
X-4228838Y8110621D02*
X-4200267Y8053478D01*
X-4200267Y8053478D02*
X-4171696Y8024907D01*
X-4171696Y8024907D02*
X-4114553Y7996335D01*
X-4114553Y7996335D02*
X-4000267Y7996335D01*
X-4000267Y7996335D02*
X-3943124Y8024907D01*
X-3943124Y8024907D02*
X-3914553Y8053478D01*
X-3914553Y8053478D02*
X-3885981Y8110621D01*
X-3885981Y8110621D02*
X-3885981Y8596335D01*
X-3285982Y7996335D02*
X-3628839Y7996335D01*
X-3457410Y7996335D02*
X-3457410Y8596335D01*
X-3457410Y8596335D02*
X-3514553Y8510621D01*
X-3514553Y8510621D02*
X-3571696Y8453478D01*
X-3571696Y8453478D02*
X-3628839Y8424907D01*
X-2771696Y8596335D02*
X-2885981Y8596335D01*
X-2885981Y8596335D02*
X-2943124Y8567764D01*
X-2943124Y8567764D02*
X-2971696Y8539192D01*
X-2971696Y8539192D02*
X-3028838Y8453478D01*
X-3028838Y8453478D02*
X-3057410Y8339192D01*
X-3057410Y8339192D02*
X-3057410Y8110621D01*
X-3057410Y8110621D02*
X-3028838Y8053478D01*
X-3028838Y8053478D02*
X-3000267Y8024907D01*
X-3000267Y8024907D02*
X-2943124Y7996335D01*
X-2943124Y7996335D02*
X-2828838Y7996335D01*
X-2828838Y7996335D02*
X-2771696Y8024907D01*
X-2771696Y8024907D02*
X-2743124Y8053478D01*
X-2743124Y8053478D02*
X-2714553Y8110621D01*
X-2714553Y8110621D02*
X-2714553Y8253478D01*
X-2714553Y8253478D02*
X-2743124Y8310621D01*
X-2743124Y8310621D02*
X-2771696Y8339192D01*
X-2771696Y8339192D02*
X-2828838Y8367764D01*
X-2828838Y8367764D02*
X-2943124Y8367764D01*
X-2943124Y8367764D02*
X-3000267Y8339192D01*
X-3000267Y8339192D02*
X-3028838Y8310621D01*
X-3028838Y8310621D02*
X-3057410Y8253478D01*
X3047143Y-13292371D02*
X3047143Y-12692371D01*
X3047143Y-12692371D02*
X3190000Y-12692371D01*
X3190000Y-12692371D02*
X3275714Y-12720942D01*
X3275714Y-12720942D02*
X3332857Y-12778085D01*
X3332857Y-12778085D02*
X3361428Y-12835228D01*
X3361428Y-12835228D02*
X3390000Y-12949514D01*
X3390000Y-12949514D02*
X3390000Y-13035228D01*
X3390000Y-13035228D02*
X3361428Y-13149514D01*
X3361428Y-13149514D02*
X3332857Y-13206657D01*
X3332857Y-13206657D02*
X3275714Y-13263800D01*
X3275714Y-13263800D02*
X3190000Y-13292371D01*
X3190000Y-13292371D02*
X3047143Y-13292371D01*
X3904286Y-12892371D02*
X3904286Y-13292371D01*
X3761428Y-12663800D02*
X3618571Y-13092371D01*
X3618571Y-13092371D02*
X3990000Y-13092371D01*
X25643800Y14279999D02*
X25672371Y14365714D01*
X25672371Y14365714D02*
X25672371Y14508571D01*
X25672371Y14508571D02*
X25643800Y14565714D01*
X25643800Y14565714D02*
X25615228Y14594285D01*
X25615228Y14594285D02*
X25558085Y14622856D01*
X25558085Y14622856D02*
X25500942Y14622856D01*
X25500942Y14622856D02*
X25443800Y14594285D01*
X25443800Y14594285D02*
X25415228Y14565714D01*
X25415228Y14565714D02*
X25386657Y14508571D01*
X25386657Y14508571D02*
X25358085Y14394285D01*
X25358085Y14394285D02*
X25329514Y14337142D01*
X25329514Y14337142D02*
X25300942Y14308571D01*
X25300942Y14308571D02*
X25243800Y14279999D01*
X25243800Y14279999D02*
X25186657Y14279999D01*
X25186657Y14279999D02*
X25129514Y14308571D01*
X25129514Y14308571D02*
X25100942Y14337142D01*
X25100942Y14337142D02*
X25072371Y14394285D01*
X25072371Y14394285D02*
X25072371Y14537142D01*
X25072371Y14537142D02*
X25100942Y14622856D01*
X25072371Y14822857D02*
X25672371Y14965714D01*
X25672371Y14965714D02*
X25243800Y15080000D01*
X25243800Y15080000D02*
X25672371Y15194285D01*
X25672371Y15194285D02*
X25072371Y15337143D01*
X25072371Y15508571D02*
X25072371Y15908571D01*
X25072371Y15908571D02*
X25672371Y15651428D01*
X-17134771Y12694285D02*
X-17106200Y12665713D01*
X-17106200Y12665713D02*
X-17077628Y12579999D01*
X-17077628Y12579999D02*
X-17077628Y12522856D01*
X-17077628Y12522856D02*
X-17106200Y12437142D01*
X-17106200Y12437142D02*
X-17163342Y12379999D01*
X-17163342Y12379999D02*
X-17220485Y12351428D01*
X-17220485Y12351428D02*
X-17334771Y12322856D01*
X-17334771Y12322856D02*
X-17420485Y12322856D01*
X-17420485Y12322856D02*
X-17534771Y12351428D01*
X-17534771Y12351428D02*
X-17591914Y12379999D01*
X-17591914Y12379999D02*
X-17649057Y12437142D01*
X-17649057Y12437142D02*
X-17677628Y12522856D01*
X-17677628Y12522856D02*
X-17677628Y12579999D01*
X-17677628Y12579999D02*
X-17649057Y12665713D01*
X-17649057Y12665713D02*
X-17620485Y12694285D01*
X-17077628Y13265713D02*
X-17077628Y12922856D01*
X-17077628Y13094285D02*
X-17677628Y13094285D01*
X-17677628Y13094285D02*
X-17591914Y13037142D01*
X-17591914Y13037142D02*
X-17534771Y12979999D01*
X-17534771Y12979999D02*
X-17506200Y12922856D01*
X-17677628Y13808571D02*
X-17677628Y13522857D01*
X-17677628Y13522857D02*
X-17391914Y13494285D01*
X-17391914Y13494285D02*
X-17420485Y13522857D01*
X-17420485Y13522857D02*
X-17449057Y13580000D01*
X-17449057Y13580000D02*
X-17449057Y13722857D01*
X-17449057Y13722857D02*
X-17420485Y13780000D01*
X-17420485Y13780000D02*
X-17391914Y13808571D01*
X-17391914Y13808571D02*
X-17334771Y13837142D01*
X-17334771Y13837142D02*
X-17191914Y13837142D01*
X-17191914Y13837142D02*
X-17134771Y13808571D01*
X-17134771Y13808571D02*
X-17106200Y13780000D01*
X-17106200Y13780000D02*
X-17077628Y13722857D01*
X-17077628Y13722857D02*
X-17077628Y13580000D01*
X-17077628Y13580000D02*
X-17106200Y13522857D01*
X-17106200Y13522857D02*
X-17134771Y13494285D01*
X1967143Y-11832371D02*
X1967143Y-11232371D01*
X1967143Y-11232371D02*
X2110000Y-11232371D01*
X2110000Y-11232371D02*
X2195714Y-11260942D01*
X2195714Y-11260942D02*
X2252857Y-11318085D01*
X2252857Y-11318085D02*
X2281428Y-11375228D01*
X2281428Y-11375228D02*
X2310000Y-11489514D01*
X2310000Y-11489514D02*
X2310000Y-11575228D01*
X2310000Y-11575228D02*
X2281428Y-11689514D01*
X2281428Y-11689514D02*
X2252857Y-11746657D01*
X2252857Y-11746657D02*
X2195714Y-11803800D01*
X2195714Y-11803800D02*
X2110000Y-11832371D01*
X2110000Y-11832371D02*
X1967143Y-11832371D01*
X2824286Y-11232371D02*
X2710000Y-11232371D01*
X2710000Y-11232371D02*
X2652857Y-11260942D01*
X2652857Y-11260942D02*
X2624286Y-11289514D01*
X2624286Y-11289514D02*
X2567143Y-11375228D01*
X2567143Y-11375228D02*
X2538571Y-11489514D01*
X2538571Y-11489514D02*
X2538571Y-11718085D01*
X2538571Y-11718085D02*
X2567143Y-11775228D01*
X2567143Y-11775228D02*
X2595714Y-11803800D01*
X2595714Y-11803800D02*
X2652857Y-11832371D01*
X2652857Y-11832371D02*
X2767143Y-11832371D01*
X2767143Y-11832371D02*
X2824286Y-11803800D01*
X2824286Y-11803800D02*
X2852857Y-11775228D01*
X2852857Y-11775228D02*
X2881428Y-11718085D01*
X2881428Y-11718085D02*
X2881428Y-11575228D01*
X2881428Y-11575228D02*
X2852857Y-11518085D01*
X2852857Y-11518085D02*
X2824286Y-11489514D01*
X2824286Y-11489514D02*
X2767143Y-11460942D01*
X2767143Y-11460942D02*
X2652857Y-11460942D01*
X2652857Y-11460942D02*
X2595714Y-11489514D01*
X2595714Y-11489514D02*
X2567143Y-11518085D01*
X2567143Y-11518085D02*
X2538571Y-11575228D01*
X-62371Y1172856D02*
X-548085Y1172856D01*
X-548085Y1172856D02*
X-605228Y1144285D01*
X-605228Y1144285D02*
X-633800Y1115714D01*
X-633800Y1115714D02*
X-662371Y1058571D01*
X-662371Y1058571D02*
X-662371Y944285D01*
X-662371Y944285D02*
X-633800Y887142D01*
X-633800Y887142D02*
X-605228Y858571D01*
X-605228Y858571D02*
X-548085Y829999D01*
X-548085Y829999D02*
X-62371Y829999D01*
X-662371Y230000D02*
X-662371Y572857D01*
X-662371Y401428D02*
X-62371Y401428D01*
X-62371Y401428D02*
X-148085Y458571D01*
X-148085Y458571D02*
X-205228Y515714D01*
X-205228Y515714D02*
X-233800Y572857D01*
X-62371Y-312857D02*
X-62371Y-27143D01*
X-62371Y-27143D02*
X-348085Y1428D01*
X-348085Y1428D02*
X-319514Y-27143D01*
X-319514Y-27143D02*
X-290942Y-84286D01*
X-290942Y-84286D02*
X-290942Y-227143D01*
X-290942Y-227143D02*
X-319514Y-284286D01*
X-319514Y-284286D02*
X-348085Y-312857D01*
X-348085Y-312857D02*
X-405228Y-341428D01*
X-405228Y-341428D02*
X-548085Y-341428D01*
X-548085Y-341428D02*
X-605228Y-312857D01*
X-605228Y-312857D02*
X-633800Y-284286D01*
X-633800Y-284286D02*
X-662371Y-227143D01*
X-662371Y-227143D02*
X-662371Y-84286D01*
X-662371Y-84286D02*
X-633800Y-27143D01*
X-633800Y-27143D02*
X-605228Y1428D01*
X72371Y19094285D02*
X-213342Y18894285D01*
X72371Y18751428D02*
X-527628Y18751428D01*
X-527628Y18751428D02*
X-527628Y18979999D01*
X-527628Y18979999D02*
X-499057Y19037142D01*
X-499057Y19037142D02*
X-470485Y19065713D01*
X-470485Y19065713D02*
X-413342Y19094285D01*
X-413342Y19094285D02*
X-327628Y19094285D01*
X-327628Y19094285D02*
X-270485Y19065713D01*
X-270485Y19065713D02*
X-241914Y19037142D01*
X-241914Y19037142D02*
X-213342Y18979999D01*
X-213342Y18979999D02*
X-213342Y18751428D01*
X72371Y19665713D02*
X72371Y19322856D01*
X72371Y19494285D02*
X-527628Y19494285D01*
X-527628Y19494285D02*
X-441914Y19437142D01*
X-441914Y19437142D02*
X-384771Y19379999D01*
X-384771Y19379999D02*
X-356200Y19322856D01*
X-470485Y19894285D02*
X-499057Y19922857D01*
X-499057Y19922857D02*
X-527628Y19980000D01*
X-527628Y19980000D02*
X-527628Y20122857D01*
X-527628Y20122857D02*
X-499057Y20180000D01*
X-499057Y20180000D02*
X-470485Y20208571D01*
X-470485Y20208571D02*
X-413342Y20237142D01*
X-413342Y20237142D02*
X-356200Y20237142D01*
X-356200Y20237142D02*
X-270485Y20208571D01*
X-270485Y20208571D02*
X72371Y19865714D01*
X72371Y19865714D02*
X72371Y20237142D01*
X13644185Y-15592371D02*
X13444185Y-15306657D01*
X13301328Y-15592371D02*
X13301328Y-14992371D01*
X13301328Y-14992371D02*
X13529899Y-14992371D01*
X13529899Y-14992371D02*
X13587042Y-15020942D01*
X13587042Y-15020942D02*
X13615613Y-15049514D01*
X13615613Y-15049514D02*
X13644185Y-15106657D01*
X13644185Y-15106657D02*
X13644185Y-15192371D01*
X13644185Y-15192371D02*
X13615613Y-15249514D01*
X13615613Y-15249514D02*
X13587042Y-15278085D01*
X13587042Y-15278085D02*
X13529899Y-15306657D01*
X13529899Y-15306657D02*
X13301328Y-15306657D01*
X14215613Y-15592371D02*
X13872756Y-15592371D01*
X14044185Y-15592371D02*
X14044185Y-14992371D01*
X14044185Y-14992371D02*
X13987042Y-15078085D01*
X13987042Y-15078085D02*
X13929899Y-15135228D01*
X13929899Y-15135228D02*
X13872756Y-15163800D01*
X14415614Y-14992371D02*
X14787042Y-14992371D01*
X14787042Y-14992371D02*
X14587042Y-15220942D01*
X14587042Y-15220942D02*
X14672757Y-15220942D01*
X14672757Y-15220942D02*
X14729900Y-15249514D01*
X14729900Y-15249514D02*
X14758471Y-15278085D01*
X14758471Y-15278085D02*
X14787042Y-15335228D01*
X14787042Y-15335228D02*
X14787042Y-15478085D01*
X14787042Y-15478085D02*
X14758471Y-15535228D01*
X14758471Y-15535228D02*
X14729900Y-15563800D01*
X14729900Y-15563800D02*
X14672757Y-15592371D01*
X14672757Y-15592371D02*
X14501328Y-15592371D01*
X14501328Y-15592371D02*
X14444185Y-15563800D01*
X14444185Y-15563800D02*
X14415614Y-15535228D01*
X705228Y-8645714D02*
X733800Y-8674286D01*
X733800Y-8674286D02*
X762371Y-8760000D01*
X762371Y-8760000D02*
X762371Y-8817143D01*
X762371Y-8817143D02*
X733800Y-8902857D01*
X733800Y-8902857D02*
X676657Y-8960000D01*
X676657Y-8960000D02*
X619514Y-8988571D01*
X619514Y-8988571D02*
X505228Y-9017143D01*
X505228Y-9017143D02*
X419514Y-9017143D01*
X419514Y-9017143D02*
X305228Y-8988571D01*
X305228Y-8988571D02*
X248085Y-8960000D01*
X248085Y-8960000D02*
X190942Y-8902857D01*
X190942Y-8902857D02*
X162371Y-8817143D01*
X162371Y-8817143D02*
X162371Y-8760000D01*
X162371Y-8760000D02*
X190942Y-8674286D01*
X190942Y-8674286D02*
X219514Y-8645714D01*
X219514Y-8417143D02*
X190942Y-8388571D01*
X190942Y-8388571D02*
X162371Y-8331429D01*
X162371Y-8331429D02*
X162371Y-8188571D01*
X162371Y-8188571D02*
X190942Y-8131429D01*
X190942Y-8131429D02*
X219514Y-8102857D01*
X219514Y-8102857D02*
X276657Y-8074286D01*
X276657Y-8074286D02*
X333800Y-8074286D01*
X333800Y-8074286D02*
X419514Y-8102857D01*
X419514Y-8102857D02*
X762371Y-8445714D01*
X762371Y-8445714D02*
X762371Y-8074286D01*
X762371Y-7502857D02*
X762371Y-7845714D01*
X762371Y-7674285D02*
X162371Y-7674285D01*
X162371Y-7674285D02*
X248085Y-7731428D01*
X248085Y-7731428D02*
X305228Y-7788571D01*
X305228Y-7788571D02*
X333800Y-7845714D01*
X-5799999Y3864771D02*
X-5828571Y3836200D01*
X-5828571Y3836200D02*
X-5914285Y3807628D01*
X-5914285Y3807628D02*
X-5971428Y3807628D01*
X-5971428Y3807628D02*
X-6057142Y3836200D01*
X-6057142Y3836200D02*
X-6114285Y3893342D01*
X-6114285Y3893342D02*
X-6142856Y3950485D01*
X-6142856Y3950485D02*
X-6171428Y4064771D01*
X-6171428Y4064771D02*
X-6171428Y4150485D01*
X-6171428Y4150485D02*
X-6142856Y4264771D01*
X-6142856Y4264771D02*
X-6114285Y4321914D01*
X-6114285Y4321914D02*
X-6057142Y4379057D01*
X-6057142Y4379057D02*
X-5971428Y4407628D01*
X-5971428Y4407628D02*
X-5914285Y4407628D01*
X-5914285Y4407628D02*
X-5828571Y4379057D01*
X-5828571Y4379057D02*
X-5799999Y4350485D01*
X-5285714Y4207628D02*
X-5285714Y3807628D01*
X-5428571Y4436200D02*
X-5571428Y4007628D01*
X-5571428Y4007628D02*
X-5199999Y4007628D01*
X6572371Y-9452794D02*
X6286657Y-9652794D01*
X6572371Y-9795651D02*
X5972371Y-9795651D01*
X5972371Y-9795651D02*
X5972371Y-9567080D01*
X5972371Y-9567080D02*
X6000942Y-9509937D01*
X6000942Y-9509937D02*
X6029514Y-9481366D01*
X6029514Y-9481366D02*
X6086657Y-9452794D01*
X6086657Y-9452794D02*
X6172371Y-9452794D01*
X6172371Y-9452794D02*
X6229514Y-9481366D01*
X6229514Y-9481366D02*
X6258085Y-9509937D01*
X6258085Y-9509937D02*
X6286657Y-9567080D01*
X6286657Y-9567080D02*
X6286657Y-9795651D01*
X6029514Y-9224223D02*
X6000942Y-9195651D01*
X6000942Y-9195651D02*
X5972371Y-9138509D01*
X5972371Y-9138509D02*
X5972371Y-8995651D01*
X5972371Y-8995651D02*
X6000942Y-8938509D01*
X6000942Y-8938509D02*
X6029514Y-8909937D01*
X6029514Y-8909937D02*
X6086657Y-8881366D01*
X6086657Y-8881366D02*
X6143800Y-8881366D01*
X6143800Y-8881366D02*
X6229514Y-8909937D01*
X6229514Y-8909937D02*
X6572371Y-9252794D01*
X6572371Y-9252794D02*
X6572371Y-8881366D01*
X6172371Y-8367080D02*
X6572371Y-8367080D01*
X5943800Y-8509937D02*
X6372371Y-8652794D01*
X6372371Y-8652794D02*
X6372371Y-8281365D01*
X-8824771Y-11435714D02*
X-8796200Y-11464286D01*
X-8796200Y-11464286D02*
X-8767628Y-11550000D01*
X-8767628Y-11550000D02*
X-8767628Y-11607143D01*
X-8767628Y-11607143D02*
X-8796200Y-11692857D01*
X-8796200Y-11692857D02*
X-8853342Y-11750000D01*
X-8853342Y-11750000D02*
X-8910485Y-11778571D01*
X-8910485Y-11778571D02*
X-9024771Y-11807143D01*
X-9024771Y-11807143D02*
X-9110485Y-11807143D01*
X-9110485Y-11807143D02*
X-9224771Y-11778571D01*
X-9224771Y-11778571D02*
X-9281914Y-11750000D01*
X-9281914Y-11750000D02*
X-9339057Y-11692857D01*
X-9339057Y-11692857D02*
X-9367628Y-11607143D01*
X-9367628Y-11607143D02*
X-9367628Y-11550000D01*
X-9367628Y-11550000D02*
X-9339057Y-11464286D01*
X-9339057Y-11464286D02*
X-9310485Y-11435714D01*
X-9367628Y-10892857D02*
X-9367628Y-11178571D01*
X-9367628Y-11178571D02*
X-9081914Y-11207143D01*
X-9081914Y-11207143D02*
X-9110485Y-11178571D01*
X-9110485Y-11178571D02*
X-9139057Y-11121429D01*
X-9139057Y-11121429D02*
X-9139057Y-10978571D01*
X-9139057Y-10978571D02*
X-9110485Y-10921429D01*
X-9110485Y-10921429D02*
X-9081914Y-10892857D01*
X-9081914Y-10892857D02*
X-9024771Y-10864286D01*
X-9024771Y-10864286D02*
X-8881914Y-10864286D01*
X-8881914Y-10864286D02*
X-8824771Y-10892857D01*
X-8824771Y-10892857D02*
X-8796200Y-10921429D01*
X-8796200Y-10921429D02*
X-8767628Y-10978571D01*
X-8767628Y-10978571D02*
X-8767628Y-11121429D01*
X-8767628Y-11121429D02*
X-8796200Y-11178571D01*
X-8796200Y-11178571D02*
X-8824771Y-11207143D01*
X-8767628Y-10292857D02*
X-8767628Y-10635714D01*
X-8767628Y-10464285D02*
X-9367628Y-10464285D01*
X-9367628Y-10464285D02*
X-9281914Y-10521428D01*
X-9281914Y-10521428D02*
X-9224771Y-10578571D01*
X-9224771Y-10578571D02*
X-9196200Y-10635714D01*
X4383437Y15607628D02*
X4383437Y15121914D01*
X4383437Y15121914D02*
X4412008Y15064771D01*
X4412008Y15064771D02*
X4440580Y15036200D01*
X4440580Y15036200D02*
X4497722Y15007628D01*
X4497722Y15007628D02*
X4612008Y15007628D01*
X4612008Y15007628D02*
X4669151Y15036200D01*
X4669151Y15036200D02*
X4697722Y15064771D01*
X4697722Y15064771D02*
X4726294Y15121914D01*
X4726294Y15121914D02*
X4726294Y15607628D01*
X5269151Y15407628D02*
X5269151Y15007628D01*
X5126293Y15636200D02*
X4983436Y15207628D01*
X4983436Y15207628D02*
X5354865Y15207628D01*
X6514285Y-16892371D02*
X6314285Y-16606657D01*
X6171428Y-16892371D02*
X6171428Y-16292371D01*
X6171428Y-16292371D02*
X6399999Y-16292371D01*
X6399999Y-16292371D02*
X6457142Y-16320942D01*
X6457142Y-16320942D02*
X6485713Y-16349514D01*
X6485713Y-16349514D02*
X6514285Y-16406657D01*
X6514285Y-16406657D02*
X6514285Y-16492371D01*
X6514285Y-16492371D02*
X6485713Y-16549514D01*
X6485713Y-16549514D02*
X6457142Y-16578085D01*
X6457142Y-16578085D02*
X6399999Y-16606657D01*
X6399999Y-16606657D02*
X6171428Y-16606657D01*
X7085713Y-16892371D02*
X6742856Y-16892371D01*
X6914285Y-16892371D02*
X6914285Y-16292371D01*
X6914285Y-16292371D02*
X6857142Y-16378085D01*
X6857142Y-16378085D02*
X6799999Y-16435228D01*
X6799999Y-16435228D02*
X6742856Y-16463800D01*
X7657142Y-16892371D02*
X7314285Y-16892371D01*
X7485714Y-16892371D02*
X7485714Y-16292371D01*
X7485714Y-16292371D02*
X7428571Y-16378085D01*
X7428571Y-16378085D02*
X7371428Y-16435228D01*
X7371428Y-16435228D02*
X7314285Y-16463800D01*
X152471Y-16352073D02*
X-133242Y-16552073D01*
X152471Y-16694930D02*
X-447528Y-16694930D01*
X-447528Y-16694930D02*
X-447528Y-16466359D01*
X-447528Y-16466359D02*
X-418957Y-16409216D01*
X-418957Y-16409216D02*
X-390385Y-16380645D01*
X-390385Y-16380645D02*
X-333242Y-16352073D01*
X-333242Y-16352073D02*
X-247528Y-16352073D01*
X-247528Y-16352073D02*
X-190385Y-16380645D01*
X-190385Y-16380645D02*
X-161814Y-16409216D01*
X-161814Y-16409216D02*
X-133242Y-16466359D01*
X-133242Y-16466359D02*
X-133242Y-16694930D01*
X152471Y-15780645D02*
X152471Y-16123502D01*
X152471Y-15952073D02*
X-447528Y-15952073D01*
X-447528Y-15952073D02*
X-361814Y-16009216D01*
X-361814Y-16009216D02*
X-304671Y-16066359D01*
X-304671Y-16066359D02*
X-276100Y-16123502D01*
X-247528Y-15266359D02*
X152471Y-15266359D01*
X-476100Y-15409216D02*
X-47528Y-15552073D01*
X-47528Y-15552073D02*
X-47528Y-15180644D01*
X-19427628Y10994285D02*
X-19713342Y10794285D01*
X-19427628Y10651428D02*
X-20027628Y10651428D01*
X-20027628Y10651428D02*
X-20027628Y10879999D01*
X-20027628Y10879999D02*
X-19999057Y10937142D01*
X-19999057Y10937142D02*
X-19970485Y10965713D01*
X-19970485Y10965713D02*
X-19913342Y10994285D01*
X-19913342Y10994285D02*
X-19827628Y10994285D01*
X-19827628Y10994285D02*
X-19770485Y10965713D01*
X-19770485Y10965713D02*
X-19741914Y10937142D01*
X-19741914Y10937142D02*
X-19713342Y10879999D01*
X-19713342Y10879999D02*
X-19713342Y10651428D01*
X-20027628Y11194285D02*
X-20027628Y11565713D01*
X-20027628Y11565713D02*
X-19799057Y11365713D01*
X-19799057Y11365713D02*
X-19799057Y11451428D01*
X-19799057Y11451428D02*
X-19770485Y11508571D01*
X-19770485Y11508571D02*
X-19741914Y11537142D01*
X-19741914Y11537142D02*
X-19684771Y11565713D01*
X-19684771Y11565713D02*
X-19541914Y11565713D01*
X-19541914Y11565713D02*
X-19484771Y11537142D01*
X-19484771Y11537142D02*
X-19456200Y11508571D01*
X-19456200Y11508571D02*
X-19427628Y11451428D01*
X-19427628Y11451428D02*
X-19427628Y11279999D01*
X-19427628Y11279999D02*
X-19456200Y11222856D01*
X-19456200Y11222856D02*
X-19484771Y11194285D01*
X-20027628Y12108571D02*
X-20027628Y11822857D01*
X-20027628Y11822857D02*
X-19741914Y11794285D01*
X-19741914Y11794285D02*
X-19770485Y11822857D01*
X-19770485Y11822857D02*
X-19799057Y11880000D01*
X-19799057Y11880000D02*
X-19799057Y12022857D01*
X-19799057Y12022857D02*
X-19770485Y12080000D01*
X-19770485Y12080000D02*
X-19741914Y12108571D01*
X-19741914Y12108571D02*
X-19684771Y12137142D01*
X-19684771Y12137142D02*
X-19541914Y12137142D01*
X-19541914Y12137142D02*
X-19484771Y12108571D01*
X-19484771Y12108571D02*
X-19456200Y12080000D01*
X-19456200Y12080000D02*
X-19427628Y12022857D01*
X-19427628Y12022857D02*
X-19427628Y11880000D01*
X-19427628Y11880000D02*
X-19456200Y11822857D01*
X-19456200Y11822857D02*
X-19484771Y11794285D01*
X14624285Y12707628D02*
X14424285Y12993342D01*
X14281428Y12707628D02*
X14281428Y13307628D01*
X14281428Y13307628D02*
X14509999Y13307628D01*
X14509999Y13307628D02*
X14567142Y13279057D01*
X14567142Y13279057D02*
X14595713Y13250485D01*
X14595713Y13250485D02*
X14624285Y13193342D01*
X14624285Y13193342D02*
X14624285Y13107628D01*
X14624285Y13107628D02*
X14595713Y13050485D01*
X14595713Y13050485D02*
X14567142Y13021914D01*
X14567142Y13021914D02*
X14509999Y12993342D01*
X14509999Y12993342D02*
X14281428Y12993342D01*
X15195713Y12707628D02*
X14852856Y12707628D01*
X15024285Y12707628D02*
X15024285Y13307628D01*
X15024285Y13307628D02*
X14967142Y13221914D01*
X14967142Y13221914D02*
X14909999Y13164771D01*
X14909999Y13164771D02*
X14852856Y13136200D01*
X15710000Y13307628D02*
X15595714Y13307628D01*
X15595714Y13307628D02*
X15538571Y13279057D01*
X15538571Y13279057D02*
X15510000Y13250485D01*
X15510000Y13250485D02*
X15452857Y13164771D01*
X15452857Y13164771D02*
X15424285Y13050485D01*
X15424285Y13050485D02*
X15424285Y12821914D01*
X15424285Y12821914D02*
X15452857Y12764771D01*
X15452857Y12764771D02*
X15481428Y12736200D01*
X15481428Y12736200D02*
X15538571Y12707628D01*
X15538571Y12707628D02*
X15652857Y12707628D01*
X15652857Y12707628D02*
X15710000Y12736200D01*
X15710000Y12736200D02*
X15738571Y12764771D01*
X15738571Y12764771D02*
X15767142Y12821914D01*
X15767142Y12821914D02*
X15767142Y12964771D01*
X15767142Y12964771D02*
X15738571Y13021914D01*
X15738571Y13021914D02*
X15710000Y13050485D01*
X15710000Y13050485D02*
X15652857Y13079057D01*
X15652857Y13079057D02*
X15538571Y13079057D01*
X15538571Y13079057D02*
X15481428Y13050485D01*
X15481428Y13050485D02*
X15452857Y13021914D01*
X15452857Y13021914D02*
X15424285Y12964771D01*
X-20624771Y-9235714D02*
X-20596200Y-9264286D01*
X-20596200Y-9264286D02*
X-20567628Y-9350000D01*
X-20567628Y-9350000D02*
X-20567628Y-9407143D01*
X-20567628Y-9407143D02*
X-20596200Y-9492857D01*
X-20596200Y-9492857D02*
X-20653342Y-9550000D01*
X-20653342Y-9550000D02*
X-20710485Y-9578571D01*
X-20710485Y-9578571D02*
X-20824771Y-9607143D01*
X-20824771Y-9607143D02*
X-20910485Y-9607143D01*
X-20910485Y-9607143D02*
X-21024771Y-9578571D01*
X-21024771Y-9578571D02*
X-21081914Y-9550000D01*
X-21081914Y-9550000D02*
X-21139057Y-9492857D01*
X-21139057Y-9492857D02*
X-21167628Y-9407143D01*
X-21167628Y-9407143D02*
X-21167628Y-9350000D01*
X-21167628Y-9350000D02*
X-21139057Y-9264286D01*
X-21139057Y-9264286D02*
X-21110485Y-9235714D01*
X-20567628Y-8664286D02*
X-20567628Y-9007143D01*
X-20567628Y-8835714D02*
X-21167628Y-8835714D01*
X-21167628Y-8835714D02*
X-21081914Y-8892857D01*
X-21081914Y-8892857D02*
X-21024771Y-8950000D01*
X-21024771Y-8950000D02*
X-20996200Y-9007143D01*
X-21167628Y-8292857D02*
X-21167628Y-8235714D01*
X-21167628Y-8235714D02*
X-21139057Y-8178571D01*
X-21139057Y-8178571D02*
X-21110485Y-8150000D01*
X-21110485Y-8150000D02*
X-21053342Y-8121428D01*
X-21053342Y-8121428D02*
X-20939057Y-8092857D01*
X-20939057Y-8092857D02*
X-20796200Y-8092857D01*
X-20796200Y-8092857D02*
X-20681914Y-8121428D01*
X-20681914Y-8121428D02*
X-20624771Y-8150000D01*
X-20624771Y-8150000D02*
X-20596200Y-8178571D01*
X-20596200Y-8178571D02*
X-20567628Y-8235714D01*
X-20567628Y-8235714D02*
X-20567628Y-8292857D01*
X-20567628Y-8292857D02*
X-20596200Y-8350000D01*
X-20596200Y-8350000D02*
X-20624771Y-8378571D01*
X-20624771Y-8378571D02*
X-20681914Y-8407142D01*
X-20681914Y-8407142D02*
X-20796200Y-8435714D01*
X-20796200Y-8435714D02*
X-20939057Y-8435714D01*
X-20939057Y-8435714D02*
X-21053342Y-8407142D01*
X-21053342Y-8407142D02*
X-21110485Y-8378571D01*
X-21110485Y-8378571D02*
X-21139057Y-8350000D01*
X-21139057Y-8350000D02*
X-21167628Y-8292857D01*
X-11355714Y-16785228D02*
X-11384286Y-16813800D01*
X-11384286Y-16813800D02*
X-11470000Y-16842371D01*
X-11470000Y-16842371D02*
X-11527143Y-16842371D01*
X-11527143Y-16842371D02*
X-11612857Y-16813800D01*
X-11612857Y-16813800D02*
X-11670000Y-16756657D01*
X-11670000Y-16756657D02*
X-11698571Y-16699514D01*
X-11698571Y-16699514D02*
X-11727143Y-16585228D01*
X-11727143Y-16585228D02*
X-11727143Y-16499514D01*
X-11727143Y-16499514D02*
X-11698571Y-16385228D01*
X-11698571Y-16385228D02*
X-11670000Y-16328085D01*
X-11670000Y-16328085D02*
X-11612857Y-16270942D01*
X-11612857Y-16270942D02*
X-11527143Y-16242371D01*
X-11527143Y-16242371D02*
X-11470000Y-16242371D01*
X-11470000Y-16242371D02*
X-11384286Y-16270942D01*
X-11384286Y-16270942D02*
X-11355714Y-16299514D01*
X-10784286Y-16842371D02*
X-11127143Y-16842371D01*
X-10955714Y-16842371D02*
X-10955714Y-16242371D01*
X-10955714Y-16242371D02*
X-11012857Y-16328085D01*
X-11012857Y-16328085D02*
X-11070000Y-16385228D01*
X-11070000Y-16385228D02*
X-11127143Y-16413800D01*
X-10584285Y-16242371D02*
X-10184285Y-16242371D01*
X-10184285Y-16242371D02*
X-10441428Y-16842371D01*
X-18052856Y14477628D02*
X-18052856Y15077628D01*
X-18052856Y15077628D02*
X-17909999Y15077628D01*
X-17909999Y15077628D02*
X-17824285Y15049057D01*
X-17824285Y15049057D02*
X-17767142Y14991914D01*
X-17767142Y14991914D02*
X-17738571Y14934771D01*
X-17738571Y14934771D02*
X-17709999Y14820485D01*
X-17709999Y14820485D02*
X-17709999Y14734771D01*
X-17709999Y14734771D02*
X-17738571Y14620485D01*
X-17738571Y14620485D02*
X-17767142Y14563342D01*
X-17767142Y14563342D02*
X-17824285Y14506200D01*
X-17824285Y14506200D02*
X-17909999Y14477628D01*
X-17909999Y14477628D02*
X-18052856Y14477628D01*
X-17509999Y15077628D02*
X-17109999Y15077628D01*
X-17109999Y15077628D02*
X-17367142Y14477628D01*
X-7599999Y-14135228D02*
X-7628571Y-14163800D01*
X-7628571Y-14163800D02*
X-7714285Y-14192371D01*
X-7714285Y-14192371D02*
X-7771428Y-14192371D01*
X-7771428Y-14192371D02*
X-7857142Y-14163800D01*
X-7857142Y-14163800D02*
X-7914285Y-14106657D01*
X-7914285Y-14106657D02*
X-7942856Y-14049514D01*
X-7942856Y-14049514D02*
X-7971428Y-13935228D01*
X-7971428Y-13935228D02*
X-7971428Y-13849514D01*
X-7971428Y-13849514D02*
X-7942856Y-13735228D01*
X-7942856Y-13735228D02*
X-7914285Y-13678085D01*
X-7914285Y-13678085D02*
X-7857142Y-13620942D01*
X-7857142Y-13620942D02*
X-7771428Y-13592371D01*
X-7771428Y-13592371D02*
X-7714285Y-13592371D01*
X-7714285Y-13592371D02*
X-7628571Y-13620942D01*
X-7628571Y-13620942D02*
X-7599999Y-13649514D01*
X-7028571Y-14192371D02*
X-7371428Y-14192371D01*
X-7199999Y-14192371D02*
X-7199999Y-13592371D01*
X-7199999Y-13592371D02*
X-7257142Y-13678085D01*
X-7257142Y-13678085D02*
X-7314285Y-13735228D01*
X-7314285Y-13735228D02*
X-7371428Y-13763800D01*
X-16042856Y17217628D02*
X-16042856Y16731914D01*
X-16042856Y16731914D02*
X-16014285Y16674771D01*
X-16014285Y16674771D02*
X-15985714Y16646200D01*
X-15985714Y16646200D02*
X-15928571Y16617628D01*
X-15928571Y16617628D02*
X-15814285Y16617628D01*
X-15814285Y16617628D02*
X-15757142Y16646200D01*
X-15757142Y16646200D02*
X-15728571Y16674771D01*
X-15728571Y16674771D02*
X-15699999Y16731914D01*
X-15699999Y16731914D02*
X-15699999Y17217628D01*
X-15100000Y16617628D02*
X-15442857Y16617628D01*
X-15271428Y16617628D02*
X-15271428Y17217628D01*
X-15271428Y17217628D02*
X-15328571Y17131914D01*
X-15328571Y17131914D02*
X-15385714Y17074771D01*
X-15385714Y17074771D02*
X-15442857Y17046200D01*
X-14899999Y17217628D02*
X-14528571Y17217628D01*
X-14528571Y17217628D02*
X-14728571Y16989057D01*
X-14728571Y16989057D02*
X-14642856Y16989057D01*
X-14642856Y16989057D02*
X-14585714Y16960485D01*
X-14585714Y16960485D02*
X-14557142Y16931914D01*
X-14557142Y16931914D02*
X-14528571Y16874771D01*
X-14528571Y16874771D02*
X-14528571Y16731914D01*
X-14528571Y16731914D02*
X-14557142Y16674771D01*
X-14557142Y16674771D02*
X-14585714Y16646200D01*
X-14585714Y16646200D02*
X-14642856Y16617628D01*
X-14642856Y16617628D02*
X-14814285Y16617628D01*
X-14814285Y16617628D02*
X-14871428Y16646200D01*
X-14871428Y16646200D02*
X-14899999Y16674771D01*
X-17157142Y-11892371D02*
X-17157142Y-12378085D01*
X-17157142Y-12378085D02*
X-17128571Y-12435228D01*
X-17128571Y-12435228D02*
X-17100000Y-12463800D01*
X-17100000Y-12463800D02*
X-17042857Y-12492371D01*
X-17042857Y-12492371D02*
X-16928571Y-12492371D01*
X-16928571Y-12492371D02*
X-16871428Y-12463800D01*
X-16871428Y-12463800D02*
X-16842857Y-12435228D01*
X-16842857Y-12435228D02*
X-16814285Y-12378085D01*
X-16814285Y-12378085D02*
X-16814285Y-11892371D01*
X-16500000Y-12492371D02*
X-16385714Y-12492371D01*
X-16385714Y-12492371D02*
X-16328571Y-12463800D01*
X-16328571Y-12463800D02*
X-16300000Y-12435228D01*
X-16300000Y-12435228D02*
X-16242857Y-12349514D01*
X-16242857Y-12349514D02*
X-16214286Y-12235228D01*
X-16214286Y-12235228D02*
X-16214286Y-12006657D01*
X-16214286Y-12006657D02*
X-16242857Y-11949514D01*
X-16242857Y-11949514D02*
X-16271429Y-11920942D01*
X-16271429Y-11920942D02*
X-16328571Y-11892371D01*
X-16328571Y-11892371D02*
X-16442857Y-11892371D01*
X-16442857Y-11892371D02*
X-16500000Y-11920942D01*
X-16500000Y-11920942D02*
X-16528571Y-11949514D01*
X-16528571Y-11949514D02*
X-16557143Y-12006657D01*
X-16557143Y-12006657D02*
X-16557143Y-12149514D01*
X-16557143Y-12149514D02*
X-16528571Y-12206657D01*
X-16528571Y-12206657D02*
X-16500000Y-12235228D01*
X-16500000Y-12235228D02*
X-16442857Y-12263800D01*
X-16442857Y-12263800D02*
X-16328571Y-12263800D01*
X-16328571Y-12263800D02*
X-16271429Y-12235228D01*
X-16271429Y-12235228D02*
X-16242857Y-12206657D01*
X-16242857Y-12206657D02*
X-16214286Y-12149514D01*
X-19385714Y-8235228D02*
X-19414286Y-8263800D01*
X-19414286Y-8263800D02*
X-19500000Y-8292371D01*
X-19500000Y-8292371D02*
X-19557143Y-8292371D01*
X-19557143Y-8292371D02*
X-19642857Y-8263800D01*
X-19642857Y-8263800D02*
X-19700000Y-8206657D01*
X-19700000Y-8206657D02*
X-19728571Y-8149514D01*
X-19728571Y-8149514D02*
X-19757143Y-8035228D01*
X-19757143Y-8035228D02*
X-19757143Y-7949514D01*
X-19757143Y-7949514D02*
X-19728571Y-7835228D01*
X-19728571Y-7835228D02*
X-19700000Y-7778085D01*
X-19700000Y-7778085D02*
X-19642857Y-7720942D01*
X-19642857Y-7720942D02*
X-19557143Y-7692371D01*
X-19557143Y-7692371D02*
X-19500000Y-7692371D01*
X-19500000Y-7692371D02*
X-19414286Y-7720942D01*
X-19414286Y-7720942D02*
X-19385714Y-7749514D01*
X-19157143Y-7749514D02*
X-19128571Y-7720942D01*
X-19128571Y-7720942D02*
X-19071429Y-7692371D01*
X-19071429Y-7692371D02*
X-18928571Y-7692371D01*
X-18928571Y-7692371D02*
X-18871429Y-7720942D01*
X-18871429Y-7720942D02*
X-18842857Y-7749514D01*
X-18842857Y-7749514D02*
X-18814286Y-7806657D01*
X-18814286Y-7806657D02*
X-18814286Y-7863800D01*
X-18814286Y-7863800D02*
X-18842857Y-7949514D01*
X-18842857Y-7949514D02*
X-19185714Y-8292371D01*
X-19185714Y-8292371D02*
X-18814286Y-8292371D01*
X-18300000Y-7892371D02*
X-18300000Y-8292371D01*
X-18442857Y-7663800D02*
X-18585714Y-8092371D01*
X-18585714Y-8092371D02*
X-18214285Y-8092371D01*
X1109871Y14294285D02*
X824157Y14094285D01*
X1109871Y13951428D02*
X509871Y13951428D01*
X509871Y13951428D02*
X509871Y14179999D01*
X509871Y14179999D02*
X538442Y14237142D01*
X538442Y14237142D02*
X567014Y14265713D01*
X567014Y14265713D02*
X624157Y14294285D01*
X624157Y14294285D02*
X709871Y14294285D01*
X709871Y14294285D02*
X767014Y14265713D01*
X767014Y14265713D02*
X795585Y14237142D01*
X795585Y14237142D02*
X824157Y14179999D01*
X824157Y14179999D02*
X824157Y13951428D01*
X567014Y14522856D02*
X538442Y14551428D01*
X538442Y14551428D02*
X509871Y14608571D01*
X509871Y14608571D02*
X509871Y14751428D01*
X509871Y14751428D02*
X538442Y14808571D01*
X538442Y14808571D02*
X567014Y14837142D01*
X567014Y14837142D02*
X624157Y14865713D01*
X624157Y14865713D02*
X681300Y14865713D01*
X681300Y14865713D02*
X767014Y14837142D01*
X767014Y14837142D02*
X1109871Y14494285D01*
X1109871Y14494285D02*
X1109871Y14865713D01*
X567014Y15094285D02*
X538442Y15122857D01*
X538442Y15122857D02*
X509871Y15180000D01*
X509871Y15180000D02*
X509871Y15322857D01*
X509871Y15322857D02*
X538442Y15380000D01*
X538442Y15380000D02*
X567014Y15408571D01*
X567014Y15408571D02*
X624157Y15437142D01*
X624157Y15437142D02*
X681300Y15437142D01*
X681300Y15437142D02*
X767014Y15408571D01*
X767014Y15408571D02*
X1109871Y15065714D01*
X1109871Y15065714D02*
X1109871Y15437142D01*
X-4870753Y5102992D02*
X-4842182Y5074420D01*
X-4842182Y5074420D02*
X-4813610Y4988706D01*
X-4813610Y4988706D02*
X-4813610Y4931563D01*
X-4813610Y4931563D02*
X-4842182Y4845849D01*
X-4842182Y4845849D02*
X-4899324Y4788706D01*
X-4899324Y4788706D02*
X-4956467Y4760135D01*
X-4956467Y4760135D02*
X-5070753Y4731563D01*
X-5070753Y4731563D02*
X-5156467Y4731563D01*
X-5156467Y4731563D02*
X-5270753Y4760135D01*
X-5270753Y4760135D02*
X-5327896Y4788706D01*
X-5327896Y4788706D02*
X-5385039Y4845849D01*
X-5385039Y4845849D02*
X-5413610Y4931563D01*
X-5413610Y4931563D02*
X-5413610Y4988706D01*
X-5413610Y4988706D02*
X-5385039Y5074420D01*
X-5385039Y5074420D02*
X-5356467Y5102992D01*
X-5413610Y5302992D02*
X-5413610Y5674420D01*
X-5413610Y5674420D02*
X-5185039Y5474420D01*
X-5185039Y5474420D02*
X-5185039Y5560135D01*
X-5185039Y5560135D02*
X-5156467Y5617278D01*
X-5156467Y5617278D02*
X-5127896Y5645849D01*
X-5127896Y5645849D02*
X-5070753Y5674420D01*
X-5070753Y5674420D02*
X-4927896Y5674420D01*
X-4927896Y5674420D02*
X-4870753Y5645849D01*
X-4870753Y5645849D02*
X-4842182Y5617278D01*
X-4842182Y5617278D02*
X-4813610Y5560135D01*
X-4813610Y5560135D02*
X-4813610Y5388706D01*
X-4813610Y5388706D02*
X-4842182Y5331563D01*
X-4842182Y5331563D02*
X-4870753Y5302992D01*
X-5213610Y6188707D02*
X-4813610Y6188707D01*
X-5442182Y6045849D02*
X-5013610Y5902992D01*
X-5013610Y5902992D02*
X-5013610Y6274421D01*
X12614285Y12707628D02*
X12414285Y12993342D01*
X12271428Y12707628D02*
X12271428Y13307628D01*
X12271428Y13307628D02*
X12499999Y13307628D01*
X12499999Y13307628D02*
X12557142Y13279057D01*
X12557142Y13279057D02*
X12585713Y13250485D01*
X12585713Y13250485D02*
X12614285Y13193342D01*
X12614285Y13193342D02*
X12614285Y13107628D01*
X12614285Y13107628D02*
X12585713Y13050485D01*
X12585713Y13050485D02*
X12557142Y13021914D01*
X12557142Y13021914D02*
X12499999Y12993342D01*
X12499999Y12993342D02*
X12271428Y12993342D01*
X13185713Y12707628D02*
X12842856Y12707628D01*
X13014285Y12707628D02*
X13014285Y13307628D01*
X13014285Y13307628D02*
X12957142Y13221914D01*
X12957142Y13221914D02*
X12899999Y13164771D01*
X12899999Y13164771D02*
X12842856Y13136200D01*
X13385714Y13307628D02*
X13785714Y13307628D01*
X13785714Y13307628D02*
X13528571Y12707628D01*
X-5071699Y-2730271D02*
X-5100271Y-2758843D01*
X-5100271Y-2758843D02*
X-5185985Y-2787414D01*
X-5185985Y-2787414D02*
X-5243128Y-2787414D01*
X-5243128Y-2787414D02*
X-5328842Y-2758843D01*
X-5328842Y-2758843D02*
X-5385985Y-2701700D01*
X-5385985Y-2701700D02*
X-5414556Y-2644557D01*
X-5414556Y-2644557D02*
X-5443128Y-2530271D01*
X-5443128Y-2530271D02*
X-5443128Y-2444557D01*
X-5443128Y-2444557D02*
X-5414556Y-2330271D01*
X-5414556Y-2330271D02*
X-5385985Y-2273128D01*
X-5385985Y-2273128D02*
X-5328842Y-2215985D01*
X-5328842Y-2215985D02*
X-5243128Y-2187414D01*
X-5243128Y-2187414D02*
X-5185985Y-2187414D01*
X-5185985Y-2187414D02*
X-5100271Y-2215985D01*
X-5100271Y-2215985D02*
X-5071699Y-2244557D01*
X-4843128Y-2244557D02*
X-4814556Y-2215985D01*
X-4814556Y-2215985D02*
X-4757414Y-2187414D01*
X-4757414Y-2187414D02*
X-4614556Y-2187414D01*
X-4614556Y-2187414D02*
X-4557414Y-2215985D01*
X-4557414Y-2215985D02*
X-4528842Y-2244557D01*
X-4528842Y-2244557D02*
X-4500271Y-2301700D01*
X-4500271Y-2301700D02*
X-4500271Y-2358843D01*
X-4500271Y-2358843D02*
X-4528842Y-2444557D01*
X-4528842Y-2444557D02*
X-4871699Y-2787414D01*
X-4871699Y-2787414D02*
X-4500271Y-2787414D01*
X24559999Y-6202371D02*
X24559999Y-6630942D01*
X24559999Y-6630942D02*
X24531428Y-6716657D01*
X24531428Y-6716657D02*
X24474285Y-6773800D01*
X24474285Y-6773800D02*
X24388571Y-6802371D01*
X24388571Y-6802371D02*
X24331428Y-6802371D01*
X25102857Y-6402371D02*
X25102857Y-6802371D01*
X24959999Y-6173800D02*
X24817142Y-6602371D01*
X24817142Y-6602371D02*
X25188571Y-6602371D01*
X812371Y8620000D02*
X526657Y8420000D01*
X812371Y8277143D02*
X212371Y8277143D01*
X212371Y8277143D02*
X212371Y8505714D01*
X212371Y8505714D02*
X240942Y8562857D01*
X240942Y8562857D02*
X269514Y8591428D01*
X269514Y8591428D02*
X326657Y8620000D01*
X326657Y8620000D02*
X412371Y8620000D01*
X412371Y8620000D02*
X469514Y8591428D01*
X469514Y8591428D02*
X498085Y8562857D01*
X498085Y8562857D02*
X526657Y8505714D01*
X526657Y8505714D02*
X526657Y8277143D01*
X412371Y9134286D02*
X812371Y9134286D01*
X183800Y8991428D02*
X612371Y8848571D01*
X612371Y8848571D02*
X612371Y9220000D01*
X25643800Y18179999D02*
X25672371Y18265714D01*
X25672371Y18265714D02*
X25672371Y18408571D01*
X25672371Y18408571D02*
X25643800Y18465714D01*
X25643800Y18465714D02*
X25615228Y18494285D01*
X25615228Y18494285D02*
X25558085Y18522856D01*
X25558085Y18522856D02*
X25500942Y18522856D01*
X25500942Y18522856D02*
X25443800Y18494285D01*
X25443800Y18494285D02*
X25415228Y18465714D01*
X25415228Y18465714D02*
X25386657Y18408571D01*
X25386657Y18408571D02*
X25358085Y18294285D01*
X25358085Y18294285D02*
X25329514Y18237142D01*
X25329514Y18237142D02*
X25300942Y18208571D01*
X25300942Y18208571D02*
X25243800Y18179999D01*
X25243800Y18179999D02*
X25186657Y18179999D01*
X25186657Y18179999D02*
X25129514Y18208571D01*
X25129514Y18208571D02*
X25100942Y18237142D01*
X25100942Y18237142D02*
X25072371Y18294285D01*
X25072371Y18294285D02*
X25072371Y18437142D01*
X25072371Y18437142D02*
X25100942Y18522856D01*
X25072371Y18722857D02*
X25672371Y18865714D01*
X25672371Y18865714D02*
X25243800Y18980000D01*
X25243800Y18980000D02*
X25672371Y19094285D01*
X25672371Y19094285D02*
X25072371Y19237143D01*
X25329514Y19551428D02*
X25300942Y19494285D01*
X25300942Y19494285D02*
X25272371Y19465714D01*
X25272371Y19465714D02*
X25215228Y19437142D01*
X25215228Y19437142D02*
X25186657Y19437142D01*
X25186657Y19437142D02*
X25129514Y19465714D01*
X25129514Y19465714D02*
X25100942Y19494285D01*
X25100942Y19494285D02*
X25072371Y19551428D01*
X25072371Y19551428D02*
X25072371Y19665714D01*
X25072371Y19665714D02*
X25100942Y19722857D01*
X25100942Y19722857D02*
X25129514Y19751428D01*
X25129514Y19751428D02*
X25186657Y19779999D01*
X25186657Y19779999D02*
X25215228Y19779999D01*
X25215228Y19779999D02*
X25272371Y19751428D01*
X25272371Y19751428D02*
X25300942Y19722857D01*
X25300942Y19722857D02*
X25329514Y19665714D01*
X25329514Y19665714D02*
X25329514Y19551428D01*
X25329514Y19551428D02*
X25358085Y19494285D01*
X25358085Y19494285D02*
X25386657Y19465714D01*
X25386657Y19465714D02*
X25443800Y19437142D01*
X25443800Y19437142D02*
X25558085Y19437142D01*
X25558085Y19437142D02*
X25615228Y19465714D01*
X25615228Y19465714D02*
X25643800Y19494285D01*
X25643800Y19494285D02*
X25672371Y19551428D01*
X25672371Y19551428D02*
X25672371Y19665714D01*
X25672371Y19665714D02*
X25643800Y19722857D01*
X25643800Y19722857D02*
X25615228Y19751428D01*
X25615228Y19751428D02*
X25558085Y19779999D01*
X25558085Y19779999D02*
X25443800Y19779999D01*
X25443800Y19779999D02*
X25386657Y19751428D01*
X25386657Y19751428D02*
X25358085Y19722857D01*
X25358085Y19722857D02*
X25329514Y19665714D01*
X-8130000Y-17422371D02*
X-8130000Y-17850942D01*
X-8130000Y-17850942D02*
X-8158571Y-17936657D01*
X-8158571Y-17936657D02*
X-8215714Y-17993800D01*
X-8215714Y-17993800D02*
X-8301428Y-18022371D01*
X-8301428Y-18022371D02*
X-8358571Y-18022371D01*
X-7530000Y-18022371D02*
X-7872857Y-18022371D01*
X-7701428Y-18022371D02*
X-7701428Y-17422371D01*
X-7701428Y-17422371D02*
X-7758571Y-17508085D01*
X-7758571Y-17508085D02*
X-7815714Y-17565228D01*
X-7815714Y-17565228D02*
X-7872857Y-17593800D01*
X17605228Y14734285D02*
X17633800Y14705713D01*
X17633800Y14705713D02*
X17662371Y14619999D01*
X17662371Y14619999D02*
X17662371Y14562856D01*
X17662371Y14562856D02*
X17633800Y14477142D01*
X17633800Y14477142D02*
X17576657Y14419999D01*
X17576657Y14419999D02*
X17519514Y14391428D01*
X17519514Y14391428D02*
X17405228Y14362856D01*
X17405228Y14362856D02*
X17319514Y14362856D01*
X17319514Y14362856D02*
X17205228Y14391428D01*
X17205228Y14391428D02*
X17148085Y14419999D01*
X17148085Y14419999D02*
X17090942Y14477142D01*
X17090942Y14477142D02*
X17062371Y14562856D01*
X17062371Y14562856D02*
X17062371Y14619999D01*
X17062371Y14619999D02*
X17090942Y14705713D01*
X17090942Y14705713D02*
X17119514Y14734285D01*
X17119514Y14962856D02*
X17090942Y14991428D01*
X17090942Y14991428D02*
X17062371Y15048571D01*
X17062371Y15048571D02*
X17062371Y15191428D01*
X17062371Y15191428D02*
X17090942Y15248571D01*
X17090942Y15248571D02*
X17119514Y15277142D01*
X17119514Y15277142D02*
X17176657Y15305713D01*
X17176657Y15305713D02*
X17233800Y15305713D01*
X17233800Y15305713D02*
X17319514Y15277142D01*
X17319514Y15277142D02*
X17662371Y14934285D01*
X17662371Y14934285D02*
X17662371Y15305713D01*
X17062371Y15505714D02*
X17062371Y15877142D01*
X17062371Y15877142D02*
X17290942Y15677142D01*
X17290942Y15677142D02*
X17290942Y15762857D01*
X17290942Y15762857D02*
X17319514Y15820000D01*
X17319514Y15820000D02*
X17348085Y15848571D01*
X17348085Y15848571D02*
X17405228Y15877142D01*
X17405228Y15877142D02*
X17548085Y15877142D01*
X17548085Y15877142D02*
X17605228Y15848571D01*
X17605228Y15848571D02*
X17633800Y15820000D01*
X17633800Y15820000D02*
X17662371Y15762857D01*
X17662371Y15762857D02*
X17662371Y15591428D01*
X17662371Y15591428D02*
X17633800Y15534285D01*
X17633800Y15534285D02*
X17605228Y15505714D01*
X-3657142Y-8692371D02*
X-3657142Y-9178085D01*
X-3657142Y-9178085D02*
X-3628571Y-9235228D01*
X-3628571Y-9235228D02*
X-3600000Y-9263800D01*
X-3600000Y-9263800D02*
X-3542857Y-9292371D01*
X-3542857Y-9292371D02*
X-3428571Y-9292371D01*
X-3428571Y-9292371D02*
X-3371428Y-9263800D01*
X-3371428Y-9263800D02*
X-3342857Y-9235228D01*
X-3342857Y-9235228D02*
X-3314285Y-9178085D01*
X-3314285Y-9178085D02*
X-3314285Y-8692371D01*
X-2714286Y-9292371D02*
X-3057143Y-9292371D01*
X-2885714Y-9292371D02*
X-2885714Y-8692371D01*
X-2885714Y-8692371D02*
X-2942857Y-8778085D01*
X-2942857Y-8778085D02*
X-3000000Y-8835228D01*
X-3000000Y-8835228D02*
X-3057143Y-8863800D01*
X-5147271Y23194285D02*
X-5118700Y23165713D01*
X-5118700Y23165713D02*
X-5090128Y23079999D01*
X-5090128Y23079999D02*
X-5090128Y23022856D01*
X-5090128Y23022856D02*
X-5118700Y22937142D01*
X-5118700Y22937142D02*
X-5175842Y22879999D01*
X-5175842Y22879999D02*
X-5232985Y22851428D01*
X-5232985Y22851428D02*
X-5347271Y22822856D01*
X-5347271Y22822856D02*
X-5432985Y22822856D01*
X-5432985Y22822856D02*
X-5547271Y22851428D01*
X-5547271Y22851428D02*
X-5604414Y22879999D01*
X-5604414Y22879999D02*
X-5661557Y22937142D01*
X-5661557Y22937142D02*
X-5690128Y23022856D01*
X-5690128Y23022856D02*
X-5690128Y23079999D01*
X-5690128Y23079999D02*
X-5661557Y23165713D01*
X-5661557Y23165713D02*
X-5632985Y23194285D01*
X-5490128Y23708571D02*
X-5090128Y23708571D01*
X-5718700Y23565713D02*
X-5290128Y23422856D01*
X-5290128Y23422856D02*
X-5290128Y23794285D01*
X-5690128Y23965714D02*
X-5690128Y24337142D01*
X-5690128Y24337142D02*
X-5461557Y24137142D01*
X-5461557Y24137142D02*
X-5461557Y24222857D01*
X-5461557Y24222857D02*
X-5432985Y24280000D01*
X-5432985Y24280000D02*
X-5404414Y24308571D01*
X-5404414Y24308571D02*
X-5347271Y24337142D01*
X-5347271Y24337142D02*
X-5204414Y24337142D01*
X-5204414Y24337142D02*
X-5147271Y24308571D01*
X-5147271Y24308571D02*
X-5118700Y24280000D01*
X-5118700Y24280000D02*
X-5090128Y24222857D01*
X-5090128Y24222857D02*
X-5090128Y24051428D01*
X-5090128Y24051428D02*
X-5118700Y23994285D01*
X-5118700Y23994285D02*
X-5147271Y23965714D01*
X-11285714Y9564771D02*
X-11314286Y9536200D01*
X-11314286Y9536200D02*
X-11400000Y9507628D01*
X-11400000Y9507628D02*
X-11457143Y9507628D01*
X-11457143Y9507628D02*
X-11542857Y9536200D01*
X-11542857Y9536200D02*
X-11600000Y9593342D01*
X-11600000Y9593342D02*
X-11628571Y9650485D01*
X-11628571Y9650485D02*
X-11657143Y9764771D01*
X-11657143Y9764771D02*
X-11657143Y9850485D01*
X-11657143Y9850485D02*
X-11628571Y9964771D01*
X-11628571Y9964771D02*
X-11600000Y10021914D01*
X-11600000Y10021914D02*
X-11542857Y10079057D01*
X-11542857Y10079057D02*
X-11457143Y10107628D01*
X-11457143Y10107628D02*
X-11400000Y10107628D01*
X-11400000Y10107628D02*
X-11314286Y10079057D01*
X-11314286Y10079057D02*
X-11285714Y10050485D01*
X-10714286Y9507628D02*
X-11057143Y9507628D01*
X-10885714Y9507628D02*
X-10885714Y10107628D01*
X-10885714Y10107628D02*
X-10942857Y10021914D01*
X-10942857Y10021914D02*
X-11000000Y9964771D01*
X-11000000Y9964771D02*
X-11057143Y9936200D01*
X-10200000Y10107628D02*
X-10314285Y10107628D01*
X-10314285Y10107628D02*
X-10371428Y10079057D01*
X-10371428Y10079057D02*
X-10400000Y10050485D01*
X-10400000Y10050485D02*
X-10457142Y9964771D01*
X-10457142Y9964771D02*
X-10485714Y9850485D01*
X-10485714Y9850485D02*
X-10485714Y9621914D01*
X-10485714Y9621914D02*
X-10457142Y9564771D01*
X-10457142Y9564771D02*
X-10428571Y9536200D01*
X-10428571Y9536200D02*
X-10371428Y9507628D01*
X-10371428Y9507628D02*
X-10257142Y9507628D01*
X-10257142Y9507628D02*
X-10200000Y9536200D01*
X-10200000Y9536200D02*
X-10171428Y9564771D01*
X-10171428Y9564771D02*
X-10142857Y9621914D01*
X-10142857Y9621914D02*
X-10142857Y9764771D01*
X-10142857Y9764771D02*
X-10171428Y9821914D01*
X-10171428Y9821914D02*
X-10200000Y9850485D01*
X-10200000Y9850485D02*
X-10257142Y9879057D01*
X-10257142Y9879057D02*
X-10371428Y9879057D01*
X-10371428Y9879057D02*
X-10428571Y9850485D01*
X-10428571Y9850485D02*
X-10457142Y9821914D01*
X-10457142Y9821914D02*
X-10485714Y9764771D01*
X-15924771Y-18345714D02*
X-15896200Y-18374286D01*
X-15896200Y-18374286D02*
X-15867628Y-18460000D01*
X-15867628Y-18460000D02*
X-15867628Y-18517143D01*
X-15867628Y-18517143D02*
X-15896200Y-18602857D01*
X-15896200Y-18602857D02*
X-15953342Y-18660000D01*
X-15953342Y-18660000D02*
X-16010485Y-18688571D01*
X-16010485Y-18688571D02*
X-16124771Y-18717143D01*
X-16124771Y-18717143D02*
X-16210485Y-18717143D01*
X-16210485Y-18717143D02*
X-16324771Y-18688571D01*
X-16324771Y-18688571D02*
X-16381914Y-18660000D01*
X-16381914Y-18660000D02*
X-16439057Y-18602857D01*
X-16439057Y-18602857D02*
X-16467628Y-18517143D01*
X-16467628Y-18517143D02*
X-16467628Y-18460000D01*
X-16467628Y-18460000D02*
X-16439057Y-18374286D01*
X-16439057Y-18374286D02*
X-16410485Y-18345714D01*
X-15867628Y-17774286D02*
X-15867628Y-18117143D01*
X-15867628Y-17945714D02*
X-16467628Y-17945714D01*
X-16467628Y-17945714D02*
X-16381914Y-18002857D01*
X-16381914Y-18002857D02*
X-16324771Y-18060000D01*
X-16324771Y-18060000D02*
X-16296200Y-18117143D01*
X-16410485Y-17545714D02*
X-16439057Y-17517142D01*
X-16439057Y-17517142D02*
X-16467628Y-17460000D01*
X-16467628Y-17460000D02*
X-16467628Y-17317142D01*
X-16467628Y-17317142D02*
X-16439057Y-17260000D01*
X-16439057Y-17260000D02*
X-16410485Y-17231428D01*
X-16410485Y-17231428D02*
X-16353342Y-17202857D01*
X-16353342Y-17202857D02*
X-16296200Y-17202857D01*
X-16296200Y-17202857D02*
X-16210485Y-17231428D01*
X-16210485Y-17231428D02*
X-15867628Y-17574285D01*
X-15867628Y-17574285D02*
X-15867628Y-17202857D01*
X8815228Y16594285D02*
X8843800Y16565713D01*
X8843800Y16565713D02*
X8872371Y16479999D01*
X8872371Y16479999D02*
X8872371Y16422856D01*
X8872371Y16422856D02*
X8843800Y16337142D01*
X8843800Y16337142D02*
X8786657Y16279999D01*
X8786657Y16279999D02*
X8729514Y16251428D01*
X8729514Y16251428D02*
X8615228Y16222856D01*
X8615228Y16222856D02*
X8529514Y16222856D01*
X8529514Y16222856D02*
X8415228Y16251428D01*
X8415228Y16251428D02*
X8358085Y16279999D01*
X8358085Y16279999D02*
X8300942Y16337142D01*
X8300942Y16337142D02*
X8272371Y16422856D01*
X8272371Y16422856D02*
X8272371Y16479999D01*
X8272371Y16479999D02*
X8300942Y16565713D01*
X8300942Y16565713D02*
X8329514Y16594285D01*
X8872371Y17165713D02*
X8872371Y16822856D01*
X8872371Y16994285D02*
X8272371Y16994285D01*
X8272371Y16994285D02*
X8358085Y16937142D01*
X8358085Y16937142D02*
X8415228Y16879999D01*
X8415228Y16879999D02*
X8443800Y16822856D01*
X8272371Y17365714D02*
X8272371Y17737142D01*
X8272371Y17737142D02*
X8500942Y17537142D01*
X8500942Y17537142D02*
X8500942Y17622857D01*
X8500942Y17622857D02*
X8529514Y17680000D01*
X8529514Y17680000D02*
X8558085Y17708571D01*
X8558085Y17708571D02*
X8615228Y17737142D01*
X8615228Y17737142D02*
X8758085Y17737142D01*
X8758085Y17737142D02*
X8815228Y17708571D01*
X8815228Y17708571D02*
X8843800Y17680000D01*
X8843800Y17680000D02*
X8872371Y17622857D01*
X8872371Y17622857D02*
X8872371Y17451428D01*
X8872371Y17451428D02*
X8843800Y17394285D01*
X8843800Y17394285D02*
X8815228Y17365714D01*
X7472371Y-12577142D02*
X7958085Y-12577142D01*
X7958085Y-12577142D02*
X8015228Y-12548571D01*
X8015228Y-12548571D02*
X8043800Y-12520000D01*
X8043800Y-12520000D02*
X8072371Y-12462857D01*
X8072371Y-12462857D02*
X8072371Y-12348571D01*
X8072371Y-12348571D02*
X8043800Y-12291428D01*
X8043800Y-12291428D02*
X8015228Y-12262857D01*
X8015228Y-12262857D02*
X7958085Y-12234285D01*
X7958085Y-12234285D02*
X7472371Y-12234285D01*
X7472371Y-12005714D02*
X7472371Y-11634286D01*
X7472371Y-11634286D02*
X7700942Y-11834286D01*
X7700942Y-11834286D02*
X7700942Y-11748571D01*
X7700942Y-11748571D02*
X7729514Y-11691429D01*
X7729514Y-11691429D02*
X7758085Y-11662857D01*
X7758085Y-11662857D02*
X7815228Y-11634286D01*
X7815228Y-11634286D02*
X7958085Y-11634286D01*
X7958085Y-11634286D02*
X8015228Y-11662857D01*
X8015228Y-11662857D02*
X8043800Y-11691429D01*
X8043800Y-11691429D02*
X8072371Y-11748571D01*
X8072371Y-11748571D02*
X8072371Y-11920000D01*
X8072371Y-11920000D02*
X8043800Y-11977143D01*
X8043800Y-11977143D02*
X8015228Y-12005714D01*
X-6527628Y-21952856D02*
X-6041914Y-21952856D01*
X-6041914Y-21952856D02*
X-5984771Y-21924285D01*
X-5984771Y-21924285D02*
X-5956200Y-21895714D01*
X-5956200Y-21895714D02*
X-5927628Y-21838571D01*
X-5927628Y-21838571D02*
X-5927628Y-21724285D01*
X-5927628Y-21724285D02*
X-5956200Y-21667142D01*
X-5956200Y-21667142D02*
X-5984771Y-21638571D01*
X-5984771Y-21638571D02*
X-6041914Y-21609999D01*
X-6041914Y-21609999D02*
X-6527628Y-21609999D01*
X-5956200Y-21352857D02*
X-5927628Y-21267143D01*
X-5927628Y-21267143D02*
X-5927628Y-21124285D01*
X-5927628Y-21124285D02*
X-5956200Y-21067143D01*
X-5956200Y-21067143D02*
X-5984771Y-21038571D01*
X-5984771Y-21038571D02*
X-6041914Y-21010000D01*
X-6041914Y-21010000D02*
X-6099057Y-21010000D01*
X-6099057Y-21010000D02*
X-6156200Y-21038571D01*
X-6156200Y-21038571D02*
X-6184771Y-21067143D01*
X-6184771Y-21067143D02*
X-6213342Y-21124285D01*
X-6213342Y-21124285D02*
X-6241914Y-21238571D01*
X-6241914Y-21238571D02*
X-6270485Y-21295714D01*
X-6270485Y-21295714D02*
X-6299057Y-21324285D01*
X-6299057Y-21324285D02*
X-6356200Y-21352857D01*
X-6356200Y-21352857D02*
X-6413342Y-21352857D01*
X-6413342Y-21352857D02*
X-6470485Y-21324285D01*
X-6470485Y-21324285D02*
X-6499057Y-21295714D01*
X-6499057Y-21295714D02*
X-6527628Y-21238571D01*
X-6527628Y-21238571D02*
X-6527628Y-21095714D01*
X-6527628Y-21095714D02*
X-6499057Y-21010000D01*
X-6241914Y-20552856D02*
X-6213342Y-20467142D01*
X-6213342Y-20467142D02*
X-6184771Y-20438571D01*
X-6184771Y-20438571D02*
X-6127628Y-20409999D01*
X-6127628Y-20409999D02*
X-6041914Y-20409999D01*
X-6041914Y-20409999D02*
X-5984771Y-20438571D01*
X-5984771Y-20438571D02*
X-5956200Y-20467142D01*
X-5956200Y-20467142D02*
X-5927628Y-20524285D01*
X-5927628Y-20524285D02*
X-5927628Y-20752856D01*
X-5927628Y-20752856D02*
X-6527628Y-20752856D01*
X-6527628Y-20752856D02*
X-6527628Y-20552856D01*
X-6527628Y-20552856D02*
X-6499057Y-20495714D01*
X-6499057Y-20495714D02*
X-6470485Y-20467142D01*
X-6470485Y-20467142D02*
X-6413342Y-20438571D01*
X-6413342Y-20438571D02*
X-6356200Y-20438571D01*
X-6356200Y-20438571D02*
X-6299057Y-20467142D01*
X-6299057Y-20467142D02*
X-6270485Y-20495714D01*
X-6270485Y-20495714D02*
X-6241914Y-20552856D01*
X-6241914Y-20552856D02*
X-6241914Y-20752856D01*
X-5927628Y-19838571D02*
X-5927628Y-20181428D01*
X-5927628Y-20009999D02*
X-6527628Y-20009999D01*
X-6527628Y-20009999D02*
X-6441914Y-20067142D01*
X-6441914Y-20067142D02*
X-6384771Y-20124285D01*
X-6384771Y-20124285D02*
X-6356200Y-20181428D01*
X-10384771Y-11405714D02*
X-10356200Y-11434286D01*
X-10356200Y-11434286D02*
X-10327628Y-11520000D01*
X-10327628Y-11520000D02*
X-10327628Y-11577143D01*
X-10327628Y-11577143D02*
X-10356200Y-11662857D01*
X-10356200Y-11662857D02*
X-10413342Y-11720000D01*
X-10413342Y-11720000D02*
X-10470485Y-11748571D01*
X-10470485Y-11748571D02*
X-10584771Y-11777143D01*
X-10584771Y-11777143D02*
X-10670485Y-11777143D01*
X-10670485Y-11777143D02*
X-10784771Y-11748571D01*
X-10784771Y-11748571D02*
X-10841914Y-11720000D01*
X-10841914Y-11720000D02*
X-10899057Y-11662857D01*
X-10899057Y-11662857D02*
X-10927628Y-11577143D01*
X-10927628Y-11577143D02*
X-10927628Y-11520000D01*
X-10927628Y-11520000D02*
X-10899057Y-11434286D01*
X-10899057Y-11434286D02*
X-10870485Y-11405714D01*
X-10727628Y-10891429D02*
X-10327628Y-10891429D01*
X-10956200Y-11034286D02*
X-10527628Y-11177143D01*
X-10527628Y-11177143D02*
X-10527628Y-10805714D01*
X-10327628Y-10262857D02*
X-10327628Y-10605714D01*
X-10327628Y-10434285D02*
X-10927628Y-10434285D01*
X-10927628Y-10434285D02*
X-10841914Y-10491428D01*
X-10841914Y-10491428D02*
X-10784771Y-10548571D01*
X-10784771Y-10548571D02*
X-10756200Y-10605714D01*
X-5205356Y17007628D02*
X-5205356Y16521914D01*
X-5205356Y16521914D02*
X-5176785Y16464771D01*
X-5176785Y16464771D02*
X-5148214Y16436200D01*
X-5148214Y16436200D02*
X-5091071Y16407628D01*
X-5091071Y16407628D02*
X-4976785Y16407628D01*
X-4976785Y16407628D02*
X-4919642Y16436200D01*
X-4919642Y16436200D02*
X-4891071Y16464771D01*
X-4891071Y16464771D02*
X-4862499Y16521914D01*
X-4862499Y16521914D02*
X-4862499Y17007628D01*
X-4262500Y16407628D02*
X-4605357Y16407628D01*
X-4433928Y16407628D02*
X-4433928Y17007628D01*
X-4433928Y17007628D02*
X-4491071Y16921914D01*
X-4491071Y16921914D02*
X-4548214Y16864771D01*
X-4548214Y16864771D02*
X-4605357Y16836200D01*
X-4033928Y16950485D02*
X-4005356Y16979057D01*
X-4005356Y16979057D02*
X-3948214Y17007628D01*
X-3948214Y17007628D02*
X-3805356Y17007628D01*
X-3805356Y17007628D02*
X-3748214Y16979057D01*
X-3748214Y16979057D02*
X-3719642Y16950485D01*
X-3719642Y16950485D02*
X-3691071Y16893342D01*
X-3691071Y16893342D02*
X-3691071Y16836200D01*
X-3691071Y16836200D02*
X-3719642Y16750485D01*
X-3719642Y16750485D02*
X-4062499Y16407628D01*
X-4062499Y16407628D02*
X-3691071Y16407628D01*
X-4994771Y-495714D02*
X-4966200Y-524286D01*
X-4966200Y-524286D02*
X-4937628Y-610000D01*
X-4937628Y-610000D02*
X-4937628Y-667143D01*
X-4937628Y-667143D02*
X-4966200Y-752857D01*
X-4966200Y-752857D02*
X-5023342Y-810000D01*
X-5023342Y-810000D02*
X-5080485Y-838571D01*
X-5080485Y-838571D02*
X-5194771Y-867143D01*
X-5194771Y-867143D02*
X-5280485Y-867143D01*
X-5280485Y-867143D02*
X-5394771Y-838571D01*
X-5394771Y-838571D02*
X-5451914Y-810000D01*
X-5451914Y-810000D02*
X-5509057Y-752857D01*
X-5509057Y-752857D02*
X-5537628Y-667143D01*
X-5537628Y-667143D02*
X-5537628Y-610000D01*
X-5537628Y-610000D02*
X-5509057Y-524286D01*
X-5509057Y-524286D02*
X-5480485Y-495714D01*
X-5537628Y-295714D02*
X-5537628Y75713D01*
X-5537628Y75713D02*
X-5309057Y-124286D01*
X-5309057Y-124286D02*
X-5309057Y-38571D01*
X-5309057Y-38571D02*
X-5280485Y18571D01*
X-5280485Y18571D02*
X-5251914Y47142D01*
X-5251914Y47142D02*
X-5194771Y75713D01*
X-5194771Y75713D02*
X-5051914Y75713D01*
X-5051914Y75713D02*
X-4994771Y47142D01*
X-4994771Y47142D02*
X-4966200Y18571D01*
X-4966200Y18571D02*
X-4937628Y-38571D01*
X-4937628Y-38571D02*
X-4937628Y-210000D01*
X-4937628Y-210000D02*
X-4966200Y-267143D01*
X-4966200Y-267143D02*
X-4994771Y-295714D01*
X-5537628Y590000D02*
X-5537628Y475714D01*
X-5537628Y475714D02*
X-5509057Y418571D01*
X-5509057Y418571D02*
X-5480485Y390000D01*
X-5480485Y390000D02*
X-5394771Y332857D01*
X-5394771Y332857D02*
X-5280485Y304285D01*
X-5280485Y304285D02*
X-5051914Y304285D01*
X-5051914Y304285D02*
X-4994771Y332857D01*
X-4994771Y332857D02*
X-4966200Y361428D01*
X-4966200Y361428D02*
X-4937628Y418571D01*
X-4937628Y418571D02*
X-4937628Y532857D01*
X-4937628Y532857D02*
X-4966200Y590000D01*
X-4966200Y590000D02*
X-4994771Y618571D01*
X-4994771Y618571D02*
X-5051914Y647142D01*
X-5051914Y647142D02*
X-5194771Y647142D01*
X-5194771Y647142D02*
X-5251914Y618571D01*
X-5251914Y618571D02*
X-5280485Y590000D01*
X-5280485Y590000D02*
X-5309057Y532857D01*
X-5309057Y532857D02*
X-5309057Y418571D01*
X-5309057Y418571D02*
X-5280485Y361428D01*
X-5280485Y361428D02*
X-5251914Y332857D01*
X-5251914Y332857D02*
X-5194771Y304285D01*
X-6028796Y-475714D02*
X-6000225Y-504286D01*
X-6000225Y-504286D02*
X-5971653Y-590000D01*
X-5971653Y-590000D02*
X-5971653Y-647143D01*
X-5971653Y-647143D02*
X-6000225Y-732857D01*
X-6000225Y-732857D02*
X-6057367Y-790000D01*
X-6057367Y-790000D02*
X-6114510Y-818571D01*
X-6114510Y-818571D02*
X-6228796Y-847143D01*
X-6228796Y-847143D02*
X-6314510Y-847143D01*
X-6314510Y-847143D02*
X-6428796Y-818571D01*
X-6428796Y-818571D02*
X-6485939Y-790000D01*
X-6485939Y-790000D02*
X-6543082Y-732857D01*
X-6543082Y-732857D02*
X-6571653Y-647143D01*
X-6571653Y-647143D02*
X-6571653Y-590000D01*
X-6571653Y-590000D02*
X-6543082Y-504286D01*
X-6543082Y-504286D02*
X-6514510Y-475714D01*
X-6571653Y-275714D02*
X-6571653Y95713D01*
X-6571653Y95713D02*
X-6343082Y-104286D01*
X-6343082Y-104286D02*
X-6343082Y-18571D01*
X-6343082Y-18571D02*
X-6314510Y38571D01*
X-6314510Y38571D02*
X-6285939Y67142D01*
X-6285939Y67142D02*
X-6228796Y95713D01*
X-6228796Y95713D02*
X-6085939Y95713D01*
X-6085939Y95713D02*
X-6028796Y67142D01*
X-6028796Y67142D02*
X-6000225Y38571D01*
X-6000225Y38571D02*
X-5971653Y-18571D01*
X-5971653Y-18571D02*
X-5971653Y-190000D01*
X-5971653Y-190000D02*
X-6000225Y-247143D01*
X-6000225Y-247143D02*
X-6028796Y-275714D01*
X-6571653Y638571D02*
X-6571653Y352857D01*
X-6571653Y352857D02*
X-6285939Y324285D01*
X-6285939Y324285D02*
X-6314510Y352857D01*
X-6314510Y352857D02*
X-6343082Y410000D01*
X-6343082Y410000D02*
X-6343082Y552857D01*
X-6343082Y552857D02*
X-6314510Y610000D01*
X-6314510Y610000D02*
X-6285939Y638571D01*
X-6285939Y638571D02*
X-6228796Y667142D01*
X-6228796Y667142D02*
X-6085939Y667142D01*
X-6085939Y667142D02*
X-6028796Y638571D01*
X-6028796Y638571D02*
X-6000225Y610000D01*
X-6000225Y610000D02*
X-5971653Y552857D01*
X-5971653Y552857D02*
X-5971653Y410000D01*
X-5971653Y410000D02*
X-6000225Y352857D01*
X-6000225Y352857D02*
X-6028796Y324285D01*
X-284771Y3824285D02*
X-256200Y3795713D01*
X-256200Y3795713D02*
X-227628Y3709999D01*
X-227628Y3709999D02*
X-227628Y3652856D01*
X-227628Y3652856D02*
X-256200Y3567142D01*
X-256200Y3567142D02*
X-313342Y3509999D01*
X-313342Y3509999D02*
X-370485Y3481428D01*
X-370485Y3481428D02*
X-484771Y3452856D01*
X-484771Y3452856D02*
X-570485Y3452856D01*
X-570485Y3452856D02*
X-684771Y3481428D01*
X-684771Y3481428D02*
X-741914Y3509999D01*
X-741914Y3509999D02*
X-799057Y3567142D01*
X-799057Y3567142D02*
X-827628Y3652856D01*
X-827628Y3652856D02*
X-827628Y3709999D01*
X-827628Y3709999D02*
X-799057Y3795713D01*
X-799057Y3795713D02*
X-770485Y3824285D01*
X-627628Y4338571D02*
X-227628Y4338571D01*
X-856200Y4195713D02*
X-427628Y4052856D01*
X-427628Y4052856D02*
X-427628Y4424285D01*
X-570485Y4738571D02*
X-599057Y4681428D01*
X-599057Y4681428D02*
X-627628Y4652857D01*
X-627628Y4652857D02*
X-684771Y4624285D01*
X-684771Y4624285D02*
X-713342Y4624285D01*
X-713342Y4624285D02*
X-770485Y4652857D01*
X-770485Y4652857D02*
X-799057Y4681428D01*
X-799057Y4681428D02*
X-827628Y4738571D01*
X-827628Y4738571D02*
X-827628Y4852857D01*
X-827628Y4852857D02*
X-799057Y4910000D01*
X-799057Y4910000D02*
X-770485Y4938571D01*
X-770485Y4938571D02*
X-713342Y4967142D01*
X-713342Y4967142D02*
X-684771Y4967142D01*
X-684771Y4967142D02*
X-627628Y4938571D01*
X-627628Y4938571D02*
X-599057Y4910000D01*
X-599057Y4910000D02*
X-570485Y4852857D01*
X-570485Y4852857D02*
X-570485Y4738571D01*
X-570485Y4738571D02*
X-541914Y4681428D01*
X-541914Y4681428D02*
X-513342Y4652857D01*
X-513342Y4652857D02*
X-456200Y4624285D01*
X-456200Y4624285D02*
X-341914Y4624285D01*
X-341914Y4624285D02*
X-284771Y4652857D01*
X-284771Y4652857D02*
X-256200Y4681428D01*
X-256200Y4681428D02*
X-227628Y4738571D01*
X-227628Y4738571D02*
X-227628Y4852857D01*
X-227628Y4852857D02*
X-256200Y4910000D01*
X-256200Y4910000D02*
X-284771Y4938571D01*
X-284771Y4938571D02*
X-341914Y4967142D01*
X-341914Y4967142D02*
X-456200Y4967142D01*
X-456200Y4967142D02*
X-513342Y4938571D01*
X-513342Y4938571D02*
X-541914Y4910000D01*
X-541914Y4910000D02*
X-570485Y4852857D01*
X-7984771Y19094285D02*
X-7956200Y19065713D01*
X-7956200Y19065713D02*
X-7927628Y18979999D01*
X-7927628Y18979999D02*
X-7927628Y18922856D01*
X-7927628Y18922856D02*
X-7956200Y18837142D01*
X-7956200Y18837142D02*
X-8013342Y18779999D01*
X-8013342Y18779999D02*
X-8070485Y18751428D01*
X-8070485Y18751428D02*
X-8184771Y18722856D01*
X-8184771Y18722856D02*
X-8270485Y18722856D01*
X-8270485Y18722856D02*
X-8384771Y18751428D01*
X-8384771Y18751428D02*
X-8441914Y18779999D01*
X-8441914Y18779999D02*
X-8499057Y18837142D01*
X-8499057Y18837142D02*
X-8527628Y18922856D01*
X-8527628Y18922856D02*
X-8527628Y18979999D01*
X-8527628Y18979999D02*
X-8499057Y19065713D01*
X-8499057Y19065713D02*
X-8470485Y19094285D01*
X-8327628Y19608571D02*
X-7927628Y19608571D01*
X-8556200Y19465713D02*
X-8127628Y19322856D01*
X-8127628Y19322856D02*
X-8127628Y19694285D01*
X-8527628Y19865714D02*
X-8527628Y20265714D01*
X-8527628Y20265714D02*
X-7927628Y20008571D01*
X-7547271Y21994285D02*
X-7518700Y21965713D01*
X-7518700Y21965713D02*
X-7490128Y21879999D01*
X-7490128Y21879999D02*
X-7490128Y21822856D01*
X-7490128Y21822856D02*
X-7518700Y21737142D01*
X-7518700Y21737142D02*
X-7575842Y21679999D01*
X-7575842Y21679999D02*
X-7632985Y21651428D01*
X-7632985Y21651428D02*
X-7747271Y21622856D01*
X-7747271Y21622856D02*
X-7832985Y21622856D01*
X-7832985Y21622856D02*
X-7947271Y21651428D01*
X-7947271Y21651428D02*
X-8004414Y21679999D01*
X-8004414Y21679999D02*
X-8061557Y21737142D01*
X-8061557Y21737142D02*
X-8090128Y21822856D01*
X-8090128Y21822856D02*
X-8090128Y21879999D01*
X-8090128Y21879999D02*
X-8061557Y21965713D01*
X-8061557Y21965713D02*
X-8032985Y21994285D01*
X-7890128Y22508571D02*
X-7490128Y22508571D01*
X-8118700Y22365713D02*
X-7690128Y22222856D01*
X-7690128Y22222856D02*
X-7690128Y22594285D01*
X-8090128Y23080000D02*
X-8090128Y22965714D01*
X-8090128Y22965714D02*
X-8061557Y22908571D01*
X-8061557Y22908571D02*
X-8032985Y22880000D01*
X-8032985Y22880000D02*
X-7947271Y22822857D01*
X-7947271Y22822857D02*
X-7832985Y22794285D01*
X-7832985Y22794285D02*
X-7604414Y22794285D01*
X-7604414Y22794285D02*
X-7547271Y22822857D01*
X-7547271Y22822857D02*
X-7518700Y22851428D01*
X-7518700Y22851428D02*
X-7490128Y22908571D01*
X-7490128Y22908571D02*
X-7490128Y23022857D01*
X-7490128Y23022857D02*
X-7518700Y23080000D01*
X-7518700Y23080000D02*
X-7547271Y23108571D01*
X-7547271Y23108571D02*
X-7604414Y23137142D01*
X-7604414Y23137142D02*
X-7747271Y23137142D01*
X-7747271Y23137142D02*
X-7804414Y23108571D01*
X-7804414Y23108571D02*
X-7832985Y23080000D01*
X-7832985Y23080000D02*
X-7861557Y23022857D01*
X-7861557Y23022857D02*
X-7861557Y22908571D01*
X-7861557Y22908571D02*
X-7832985Y22851428D01*
X-7832985Y22851428D02*
X-7804414Y22822857D01*
X-7804414Y22822857D02*
X-7747271Y22794285D01*
X-20299999Y-12510228D02*
X-20328571Y-12538800D01*
X-20328571Y-12538800D02*
X-20414285Y-12567371D01*
X-20414285Y-12567371D02*
X-20471428Y-12567371D01*
X-20471428Y-12567371D02*
X-20557142Y-12538800D01*
X-20557142Y-12538800D02*
X-20614285Y-12481657D01*
X-20614285Y-12481657D02*
X-20642856Y-12424514D01*
X-20642856Y-12424514D02*
X-20671428Y-12310228D01*
X-20671428Y-12310228D02*
X-20671428Y-12224514D01*
X-20671428Y-12224514D02*
X-20642856Y-12110228D01*
X-20642856Y-12110228D02*
X-20614285Y-12053085D01*
X-20614285Y-12053085D02*
X-20557142Y-11995942D01*
X-20557142Y-11995942D02*
X-20471428Y-11967371D01*
X-20471428Y-11967371D02*
X-20414285Y-11967371D01*
X-20414285Y-11967371D02*
X-20328571Y-11995942D01*
X-20328571Y-11995942D02*
X-20299999Y-12024514D01*
X-20014285Y-12567371D02*
X-19899999Y-12567371D01*
X-19899999Y-12567371D02*
X-19842856Y-12538800D01*
X-19842856Y-12538800D02*
X-19814285Y-12510228D01*
X-19814285Y-12510228D02*
X-19757142Y-12424514D01*
X-19757142Y-12424514D02*
X-19728571Y-12310228D01*
X-19728571Y-12310228D02*
X-19728571Y-12081657D01*
X-19728571Y-12081657D02*
X-19757142Y-12024514D01*
X-19757142Y-12024514D02*
X-19785714Y-11995942D01*
X-19785714Y-11995942D02*
X-19842856Y-11967371D01*
X-19842856Y-11967371D02*
X-19957142Y-11967371D01*
X-19957142Y-11967371D02*
X-20014285Y-11995942D01*
X-20014285Y-11995942D02*
X-20042856Y-12024514D01*
X-20042856Y-12024514D02*
X-20071428Y-12081657D01*
X-20071428Y-12081657D02*
X-20071428Y-12224514D01*
X-20071428Y-12224514D02*
X-20042856Y-12281657D01*
X-20042856Y-12281657D02*
X-20014285Y-12310228D01*
X-20014285Y-12310228D02*
X-19957142Y-12338800D01*
X-19957142Y-12338800D02*
X-19842856Y-12338800D01*
X-19842856Y-12338800D02*
X-19785714Y-12310228D01*
X-19785714Y-12310228D02*
X-19757142Y-12281657D01*
X-19757142Y-12281657D02*
X-19728571Y-12224514D01*
X4057143Y-17892371D02*
X4057143Y-17292371D01*
X4057143Y-17292371D02*
X4200000Y-17292371D01*
X4200000Y-17292371D02*
X4285714Y-17320942D01*
X4285714Y-17320942D02*
X4342857Y-17378085D01*
X4342857Y-17378085D02*
X4371428Y-17435228D01*
X4371428Y-17435228D02*
X4400000Y-17549514D01*
X4400000Y-17549514D02*
X4400000Y-17635228D01*
X4400000Y-17635228D02*
X4371428Y-17749514D01*
X4371428Y-17749514D02*
X4342857Y-17806657D01*
X4342857Y-17806657D02*
X4285714Y-17863800D01*
X4285714Y-17863800D02*
X4200000Y-17892371D01*
X4200000Y-17892371D02*
X4057143Y-17892371D01*
X4971428Y-17892371D02*
X4628571Y-17892371D01*
X4800000Y-17892371D02*
X4800000Y-17292371D01*
X4800000Y-17292371D02*
X4742857Y-17378085D01*
X4742857Y-17378085D02*
X4685714Y-17435228D01*
X4685714Y-17435228D02*
X4628571Y-17463800D01*
X-5870753Y5102992D02*
X-5842182Y5074420D01*
X-5842182Y5074420D02*
X-5813610Y4988706D01*
X-5813610Y4988706D02*
X-5813610Y4931563D01*
X-5813610Y4931563D02*
X-5842182Y4845849D01*
X-5842182Y4845849D02*
X-5899324Y4788706D01*
X-5899324Y4788706D02*
X-5956467Y4760135D01*
X-5956467Y4760135D02*
X-6070753Y4731563D01*
X-6070753Y4731563D02*
X-6156467Y4731563D01*
X-6156467Y4731563D02*
X-6270753Y4760135D01*
X-6270753Y4760135D02*
X-6327896Y4788706D01*
X-6327896Y4788706D02*
X-6385039Y4845849D01*
X-6385039Y4845849D02*
X-6413610Y4931563D01*
X-6413610Y4931563D02*
X-6413610Y4988706D01*
X-6413610Y4988706D02*
X-6385039Y5074420D01*
X-6385039Y5074420D02*
X-6356467Y5102992D01*
X-6413610Y5302992D02*
X-6413610Y5674420D01*
X-6413610Y5674420D02*
X-6185039Y5474420D01*
X-6185039Y5474420D02*
X-6185039Y5560135D01*
X-6185039Y5560135D02*
X-6156467Y5617278D01*
X-6156467Y5617278D02*
X-6127896Y5645849D01*
X-6127896Y5645849D02*
X-6070753Y5674420D01*
X-6070753Y5674420D02*
X-5927896Y5674420D01*
X-5927896Y5674420D02*
X-5870753Y5645849D01*
X-5870753Y5645849D02*
X-5842182Y5617278D01*
X-5842182Y5617278D02*
X-5813610Y5560135D01*
X-5813610Y5560135D02*
X-5813610Y5388706D01*
X-5813610Y5388706D02*
X-5842182Y5331563D01*
X-5842182Y5331563D02*
X-5870753Y5302992D01*
X-6413610Y5874421D02*
X-6413610Y6245849D01*
X-6413610Y6245849D02*
X-6185039Y6045849D01*
X-6185039Y6045849D02*
X-6185039Y6131564D01*
X-6185039Y6131564D02*
X-6156467Y6188707D01*
X-6156467Y6188707D02*
X-6127896Y6217278D01*
X-6127896Y6217278D02*
X-6070753Y6245849D01*
X-6070753Y6245849D02*
X-5927896Y6245849D01*
X-5927896Y6245849D02*
X-5870753Y6217278D01*
X-5870753Y6217278D02*
X-5842182Y6188707D01*
X-5842182Y6188707D02*
X-5813610Y6131564D01*
X-5813610Y6131564D02*
X-5813610Y5960135D01*
X-5813610Y5960135D02*
X-5842182Y5902992D01*
X-5842182Y5902992D02*
X-5870753Y5874421D01*
X-17799999Y15607628D02*
X-17999999Y15893342D01*
X-18142856Y15607628D02*
X-18142856Y16207628D01*
X-18142856Y16207628D02*
X-17914285Y16207628D01*
X-17914285Y16207628D02*
X-17857142Y16179057D01*
X-17857142Y16179057D02*
X-17828571Y16150485D01*
X-17828571Y16150485D02*
X-17799999Y16093342D01*
X-17799999Y16093342D02*
X-17799999Y16007628D01*
X-17799999Y16007628D02*
X-17828571Y15950485D01*
X-17828571Y15950485D02*
X-17857142Y15921914D01*
X-17857142Y15921914D02*
X-17914285Y15893342D01*
X-17914285Y15893342D02*
X-18142856Y15893342D01*
X-17599999Y16207628D02*
X-17228571Y16207628D01*
X-17228571Y16207628D02*
X-17428571Y15979057D01*
X-17428571Y15979057D02*
X-17342856Y15979057D01*
X-17342856Y15979057D02*
X-17285714Y15950485D01*
X-17285714Y15950485D02*
X-17257142Y15921914D01*
X-17257142Y15921914D02*
X-17228571Y15864771D01*
X-17228571Y15864771D02*
X-17228571Y15721914D01*
X-17228571Y15721914D02*
X-17257142Y15664771D01*
X-17257142Y15664771D02*
X-17285714Y15636200D01*
X-17285714Y15636200D02*
X-17342856Y15607628D01*
X-17342856Y15607628D02*
X-17514285Y15607628D01*
X-17514285Y15607628D02*
X-17571428Y15636200D01*
X-17571428Y15636200D02*
X-17599999Y15664771D01*
X4600000Y21364771D02*
X4571428Y21336200D01*
X4571428Y21336200D02*
X4485714Y21307628D01*
X4485714Y21307628D02*
X4428571Y21307628D01*
X4428571Y21307628D02*
X4342857Y21336200D01*
X4342857Y21336200D02*
X4285714Y21393342D01*
X4285714Y21393342D02*
X4257143Y21450485D01*
X4257143Y21450485D02*
X4228571Y21564771D01*
X4228571Y21564771D02*
X4228571Y21650485D01*
X4228571Y21650485D02*
X4257143Y21764771D01*
X4257143Y21764771D02*
X4285714Y21821914D01*
X4285714Y21821914D02*
X4342857Y21879057D01*
X4342857Y21879057D02*
X4428571Y21907628D01*
X4428571Y21907628D02*
X4485714Y21907628D01*
X4485714Y21907628D02*
X4571428Y21879057D01*
X4571428Y21879057D02*
X4600000Y21850485D01*
X5142857Y21907628D02*
X4857143Y21907628D01*
X4857143Y21907628D02*
X4828571Y21621914D01*
X4828571Y21621914D02*
X4857143Y21650485D01*
X4857143Y21650485D02*
X4914286Y21679057D01*
X4914286Y21679057D02*
X5057143Y21679057D01*
X5057143Y21679057D02*
X5114286Y21650485D01*
X5114286Y21650485D02*
X5142857Y21621914D01*
X5142857Y21621914D02*
X5171428Y21564771D01*
X5171428Y21564771D02*
X5171428Y21421914D01*
X5171428Y21421914D02*
X5142857Y21364771D01*
X5142857Y21364771D02*
X5114286Y21336200D01*
X5114286Y21336200D02*
X5057143Y21307628D01*
X5057143Y21307628D02*
X4914286Y21307628D01*
X4914286Y21307628D02*
X4857143Y21336200D01*
X4857143Y21336200D02*
X4828571Y21364771D01*
X-490128Y14394285D02*
X-775842Y14194285D01*
X-490128Y14051428D02*
X-1090128Y14051428D01*
X-1090128Y14051428D02*
X-1090128Y14279999D01*
X-1090128Y14279999D02*
X-1061557Y14337142D01*
X-1061557Y14337142D02*
X-1032985Y14365713D01*
X-1032985Y14365713D02*
X-975842Y14394285D01*
X-975842Y14394285D02*
X-890128Y14394285D01*
X-890128Y14394285D02*
X-832985Y14365713D01*
X-832985Y14365713D02*
X-804414Y14337142D01*
X-804414Y14337142D02*
X-775842Y14279999D01*
X-775842Y14279999D02*
X-775842Y14051428D01*
X-1032985Y14622856D02*
X-1061557Y14651428D01*
X-1061557Y14651428D02*
X-1090128Y14708571D01*
X-1090128Y14708571D02*
X-1090128Y14851428D01*
X-1090128Y14851428D02*
X-1061557Y14908571D01*
X-1061557Y14908571D02*
X-1032985Y14937142D01*
X-1032985Y14937142D02*
X-975842Y14965713D01*
X-975842Y14965713D02*
X-918700Y14965713D01*
X-918700Y14965713D02*
X-832985Y14937142D01*
X-832985Y14937142D02*
X-490128Y14594285D01*
X-490128Y14594285D02*
X-490128Y14965713D01*
X-1090128Y15165714D02*
X-1090128Y15565714D01*
X-1090128Y15565714D02*
X-490128Y15308571D01*
X17177143Y-17552371D02*
X17177143Y-16952371D01*
X17177143Y-16952371D02*
X17320000Y-16952371D01*
X17320000Y-16952371D02*
X17405714Y-16980942D01*
X17405714Y-16980942D02*
X17462857Y-17038085D01*
X17462857Y-17038085D02*
X17491428Y-17095228D01*
X17491428Y-17095228D02*
X17520000Y-17209514D01*
X17520000Y-17209514D02*
X17520000Y-17295228D01*
X17520000Y-17295228D02*
X17491428Y-17409514D01*
X17491428Y-17409514D02*
X17462857Y-17466657D01*
X17462857Y-17466657D02*
X17405714Y-17523800D01*
X17405714Y-17523800D02*
X17320000Y-17552371D01*
X17320000Y-17552371D02*
X17177143Y-17552371D01*
X18062857Y-16952371D02*
X17777143Y-16952371D01*
X17777143Y-16952371D02*
X17748571Y-17238085D01*
X17748571Y-17238085D02*
X17777143Y-17209514D01*
X17777143Y-17209514D02*
X17834286Y-17180942D01*
X17834286Y-17180942D02*
X17977143Y-17180942D01*
X17977143Y-17180942D02*
X18034286Y-17209514D01*
X18034286Y-17209514D02*
X18062857Y-17238085D01*
X18062857Y-17238085D02*
X18091428Y-17295228D01*
X18091428Y-17295228D02*
X18091428Y-17438085D01*
X18091428Y-17438085D02*
X18062857Y-17495228D01*
X18062857Y-17495228D02*
X18034286Y-17523800D01*
X18034286Y-17523800D02*
X17977143Y-17552371D01*
X17977143Y-17552371D02*
X17834286Y-17552371D01*
X17834286Y-17552371D02*
X17777143Y-17523800D01*
X17777143Y-17523800D02*
X17748571Y-17495228D01*
X-9527628Y-14244999D02*
X-9813342Y-14444999D01*
X-9527628Y-14587856D02*
X-10127628Y-14587856D01*
X-10127628Y-14587856D02*
X-10127628Y-14359285D01*
X-10127628Y-14359285D02*
X-10099057Y-14302142D01*
X-10099057Y-14302142D02*
X-10070485Y-14273571D01*
X-10070485Y-14273571D02*
X-10013342Y-14244999D01*
X-10013342Y-14244999D02*
X-9927628Y-14244999D01*
X-9927628Y-14244999D02*
X-9870485Y-14273571D01*
X-9870485Y-14273571D02*
X-9841914Y-14302142D01*
X-9841914Y-14302142D02*
X-9813342Y-14359285D01*
X-9813342Y-14359285D02*
X-9813342Y-14587856D01*
X-9527628Y-13673571D02*
X-9527628Y-14016428D01*
X-9527628Y-13844999D02*
X-10127628Y-13844999D01*
X-10127628Y-13844999D02*
X-10041914Y-13902142D01*
X-10041914Y-13902142D02*
X-9984771Y-13959285D01*
X-9984771Y-13959285D02*
X-9956200Y-14016428D01*
X-15600000Y17736200D02*
X-15514286Y17707628D01*
X-15514286Y17707628D02*
X-15371428Y17707628D01*
X-15371428Y17707628D02*
X-15314286Y17736200D01*
X-15314286Y17736200D02*
X-15285714Y17764771D01*
X-15285714Y17764771D02*
X-15257143Y17821914D01*
X-15257143Y17821914D02*
X-15257143Y17879057D01*
X-15257143Y17879057D02*
X-15285714Y17936200D01*
X-15285714Y17936200D02*
X-15314286Y17964771D01*
X-15314286Y17964771D02*
X-15371428Y17993342D01*
X-15371428Y17993342D02*
X-15485714Y18021914D01*
X-15485714Y18021914D02*
X-15542857Y18050485D01*
X-15542857Y18050485D02*
X-15571428Y18079057D01*
X-15571428Y18079057D02*
X-15600000Y18136200D01*
X-15600000Y18136200D02*
X-15600000Y18193342D01*
X-15600000Y18193342D02*
X-15571428Y18250485D01*
X-15571428Y18250485D02*
X-15542857Y18279057D01*
X-15542857Y18279057D02*
X-15485714Y18307628D01*
X-15485714Y18307628D02*
X-15342857Y18307628D01*
X-15342857Y18307628D02*
X-15257143Y18279057D01*
X-15057142Y18307628D02*
X-14914285Y17707628D01*
X-14914285Y17707628D02*
X-14799999Y18136200D01*
X-14799999Y18136200D02*
X-14685714Y17707628D01*
X-14685714Y17707628D02*
X-14542857Y18307628D01*
X-14057143Y18307628D02*
X-14171428Y18307628D01*
X-14171428Y18307628D02*
X-14228571Y18279057D01*
X-14228571Y18279057D02*
X-14257143Y18250485D01*
X-14257143Y18250485D02*
X-14314285Y18164771D01*
X-14314285Y18164771D02*
X-14342857Y18050485D01*
X-14342857Y18050485D02*
X-14342857Y17821914D01*
X-14342857Y17821914D02*
X-14314285Y17764771D01*
X-14314285Y17764771D02*
X-14285714Y17736200D01*
X-14285714Y17736200D02*
X-14228571Y17707628D01*
X-14228571Y17707628D02*
X-14114285Y17707628D01*
X-14114285Y17707628D02*
X-14057143Y17736200D01*
X-14057143Y17736200D02*
X-14028571Y17764771D01*
X-14028571Y17764771D02*
X-14000000Y17821914D01*
X-14000000Y17821914D02*
X-14000000Y17964771D01*
X-14000000Y17964771D02*
X-14028571Y18021914D01*
X-14028571Y18021914D02*
X-14057143Y18050485D01*
X-14057143Y18050485D02*
X-14114285Y18079057D01*
X-14114285Y18079057D02*
X-14228571Y18079057D01*
X-14228571Y18079057D02*
X-14285714Y18050485D01*
X-14285714Y18050485D02*
X-14314285Y18021914D01*
X-14314285Y18021914D02*
X-14342857Y17964771D01*
X2204285Y-9885228D02*
X2175713Y-9913800D01*
X2175713Y-9913800D02*
X2089999Y-9942371D01*
X2089999Y-9942371D02*
X2032856Y-9942371D01*
X2032856Y-9942371D02*
X1947142Y-9913800D01*
X1947142Y-9913800D02*
X1889999Y-9856657D01*
X1889999Y-9856657D02*
X1861428Y-9799514D01*
X1861428Y-9799514D02*
X1832856Y-9685228D01*
X1832856Y-9685228D02*
X1832856Y-9599514D01*
X1832856Y-9599514D02*
X1861428Y-9485228D01*
X1861428Y-9485228D02*
X1889999Y-9428085D01*
X1889999Y-9428085D02*
X1947142Y-9370942D01*
X1947142Y-9370942D02*
X2032856Y-9342371D01*
X2032856Y-9342371D02*
X2089999Y-9342371D01*
X2089999Y-9342371D02*
X2175713Y-9370942D01*
X2175713Y-9370942D02*
X2204285Y-9399514D01*
X2432856Y-9399514D02*
X2461428Y-9370942D01*
X2461428Y-9370942D02*
X2518571Y-9342371D01*
X2518571Y-9342371D02*
X2661428Y-9342371D01*
X2661428Y-9342371D02*
X2718571Y-9370942D01*
X2718571Y-9370942D02*
X2747142Y-9399514D01*
X2747142Y-9399514D02*
X2775713Y-9456657D01*
X2775713Y-9456657D02*
X2775713Y-9513800D01*
X2775713Y-9513800D02*
X2747142Y-9599514D01*
X2747142Y-9599514D02*
X2404285Y-9942371D01*
X2404285Y-9942371D02*
X2775713Y-9942371D01*
X2975714Y-9342371D02*
X3375714Y-9342371D01*
X3375714Y-9342371D02*
X3118571Y-9942371D01*
X-8884771Y15294285D02*
X-8856200Y15265713D01*
X-8856200Y15265713D02*
X-8827628Y15179999D01*
X-8827628Y15179999D02*
X-8827628Y15122856D01*
X-8827628Y15122856D02*
X-8856200Y15037142D01*
X-8856200Y15037142D02*
X-8913342Y14979999D01*
X-8913342Y14979999D02*
X-8970485Y14951428D01*
X-8970485Y14951428D02*
X-9084771Y14922856D01*
X-9084771Y14922856D02*
X-9170485Y14922856D01*
X-9170485Y14922856D02*
X-9284771Y14951428D01*
X-9284771Y14951428D02*
X-9341914Y14979999D01*
X-9341914Y14979999D02*
X-9399057Y15037142D01*
X-9399057Y15037142D02*
X-9427628Y15122856D01*
X-9427628Y15122856D02*
X-9427628Y15179999D01*
X-9427628Y15179999D02*
X-9399057Y15265713D01*
X-9399057Y15265713D02*
X-9370485Y15294285D01*
X-8827628Y15865713D02*
X-8827628Y15522856D01*
X-8827628Y15694285D02*
X-9427628Y15694285D01*
X-9427628Y15694285D02*
X-9341914Y15637142D01*
X-9341914Y15637142D02*
X-9284771Y15579999D01*
X-9284771Y15579999D02*
X-9256200Y15522856D01*
X-9227628Y16380000D02*
X-8827628Y16380000D01*
X-9456200Y16237142D02*
X-9027628Y16094285D01*
X-9027628Y16094285D02*
X-9027628Y16465714D01*
X5400000Y23021914D02*
X5200000Y23021914D01*
X5200000Y22707628D02*
X5200000Y23307628D01*
X5200000Y23307628D02*
X5485714Y23307628D01*
X5914286Y23021914D02*
X6000000Y22993342D01*
X6000000Y22993342D02*
X6028571Y22964771D01*
X6028571Y22964771D02*
X6057143Y22907628D01*
X6057143Y22907628D02*
X6057143Y22821914D01*
X6057143Y22821914D02*
X6028571Y22764771D01*
X6028571Y22764771D02*
X6000000Y22736200D01*
X6000000Y22736200D02*
X5942857Y22707628D01*
X5942857Y22707628D02*
X5714286Y22707628D01*
X5714286Y22707628D02*
X5714286Y23307628D01*
X5714286Y23307628D02*
X5914286Y23307628D01*
X5914286Y23307628D02*
X5971429Y23279057D01*
X5971429Y23279057D02*
X6000000Y23250485D01*
X6000000Y23250485D02*
X6028571Y23193342D01*
X6028571Y23193342D02*
X6028571Y23136200D01*
X6028571Y23136200D02*
X6000000Y23079057D01*
X6000000Y23079057D02*
X5971429Y23050485D01*
X5971429Y23050485D02*
X5914286Y23021914D01*
X5914286Y23021914D02*
X5714286Y23021914D01*
X6628571Y22707628D02*
X6285714Y22707628D01*
X6457143Y22707628D02*
X6457143Y23307628D01*
X6457143Y23307628D02*
X6400000Y23221914D01*
X6400000Y23221914D02*
X6342857Y23164771D01*
X6342857Y23164771D02*
X6285714Y23136200D01*
X25305357Y-12337014D02*
X25248214Y-12308442D01*
X25248214Y-12308442D02*
X25191071Y-12251300D01*
X25191071Y-12251300D02*
X25105357Y-12165585D01*
X25105357Y-12165585D02*
X25048214Y-12137014D01*
X25048214Y-12137014D02*
X24991071Y-12137014D01*
X25019642Y-12279871D02*
X24962500Y-12251300D01*
X24962500Y-12251300D02*
X24905357Y-12194157D01*
X24905357Y-12194157D02*
X24876785Y-12079871D01*
X24876785Y-12079871D02*
X24876785Y-11879871D01*
X24876785Y-11879871D02*
X24905357Y-11765585D01*
X24905357Y-11765585D02*
X24962500Y-11708442D01*
X24962500Y-11708442D02*
X25019642Y-11679871D01*
X25019642Y-11679871D02*
X25133928Y-11679871D01*
X25133928Y-11679871D02*
X25191071Y-11708442D01*
X25191071Y-11708442D02*
X25248214Y-11765585D01*
X25248214Y-11765585D02*
X25276785Y-11879871D01*
X25276785Y-11879871D02*
X25276785Y-12079871D01*
X25276785Y-12079871D02*
X25248214Y-12194157D01*
X25248214Y-12194157D02*
X25191071Y-12251300D01*
X25191071Y-12251300D02*
X25133928Y-12279871D01*
X25133928Y-12279871D02*
X25019642Y-12279871D01*
X25848213Y-12279871D02*
X25505356Y-12279871D01*
X25676785Y-12279871D02*
X25676785Y-11679871D01*
X25676785Y-11679871D02*
X25619642Y-11765585D01*
X25619642Y-11765585D02*
X25562499Y-11822728D01*
X25562499Y-11822728D02*
X25505356Y-11851300D01*
X-16985714Y9307628D02*
X-16985714Y8879057D01*
X-16985714Y8879057D02*
X-17014285Y8793342D01*
X-17014285Y8793342D02*
X-17071428Y8736200D01*
X-17071428Y8736200D02*
X-17157142Y8707628D01*
X-17157142Y8707628D02*
X-17214285Y8707628D01*
X-16385714Y8707628D02*
X-16728571Y8707628D01*
X-16557142Y8707628D02*
X-16557142Y9307628D01*
X-16557142Y9307628D02*
X-16614285Y9221914D01*
X-16614285Y9221914D02*
X-16671428Y9164771D01*
X-16671428Y9164771D02*
X-16728571Y9136200D01*
X-16014285Y9307628D02*
X-15957142Y9307628D01*
X-15957142Y9307628D02*
X-15899999Y9279057D01*
X-15899999Y9279057D02*
X-15871428Y9250485D01*
X-15871428Y9250485D02*
X-15842856Y9193342D01*
X-15842856Y9193342D02*
X-15814285Y9079057D01*
X-15814285Y9079057D02*
X-15814285Y8936200D01*
X-15814285Y8936200D02*
X-15842856Y8821914D01*
X-15842856Y8821914D02*
X-15871428Y8764771D01*
X-15871428Y8764771D02*
X-15899999Y8736200D01*
X-15899999Y8736200D02*
X-15957142Y8707628D01*
X-15957142Y8707628D02*
X-16014285Y8707628D01*
X-16014285Y8707628D02*
X-16071428Y8736200D01*
X-16071428Y8736200D02*
X-16099999Y8764771D01*
X-16099999Y8764771D02*
X-16128570Y8821914D01*
X-16128570Y8821914D02*
X-16157142Y8936200D01*
X-16157142Y8936200D02*
X-16157142Y9079057D01*
X-16157142Y9079057D02*
X-16128570Y9193342D01*
X-16128570Y9193342D02*
X-16099999Y9250485D01*
X-16099999Y9250485D02*
X-16071428Y9279057D01*
X-16071428Y9279057D02*
X-16014285Y9307628D01*
X-13909999Y-8122371D02*
X-14195713Y-8122371D01*
X-14195713Y-8122371D02*
X-14195713Y-7522371D01*
X-13738571Y-7579514D02*
X-13709999Y-7550942D01*
X-13709999Y-7550942D02*
X-13652857Y-7522371D01*
X-13652857Y-7522371D02*
X-13509999Y-7522371D01*
X-13509999Y-7522371D02*
X-13452857Y-7550942D01*
X-13452857Y-7550942D02*
X-13424285Y-7579514D01*
X-13424285Y-7579514D02*
X-13395714Y-7636657D01*
X-13395714Y-7636657D02*
X-13395714Y-7693800D01*
X-13395714Y-7693800D02*
X-13424285Y-7779514D01*
X-13424285Y-7779514D02*
X-13767142Y-8122371D01*
X-13767142Y-8122371D02*
X-13395714Y-8122371D01*
X975228Y-4185714D02*
X1003800Y-4214286D01*
X1003800Y-4214286D02*
X1032371Y-4300000D01*
X1032371Y-4300000D02*
X1032371Y-4357143D01*
X1032371Y-4357143D02*
X1003800Y-4442857D01*
X1003800Y-4442857D02*
X946657Y-4500000D01*
X946657Y-4500000D02*
X889514Y-4528571D01*
X889514Y-4528571D02*
X775228Y-4557143D01*
X775228Y-4557143D02*
X689514Y-4557143D01*
X689514Y-4557143D02*
X575228Y-4528571D01*
X575228Y-4528571D02*
X518085Y-4500000D01*
X518085Y-4500000D02*
X460942Y-4442857D01*
X460942Y-4442857D02*
X432371Y-4357143D01*
X432371Y-4357143D02*
X432371Y-4300000D01*
X432371Y-4300000D02*
X460942Y-4214286D01*
X460942Y-4214286D02*
X489514Y-4185714D01*
X432371Y-3642857D02*
X432371Y-3928571D01*
X432371Y-3928571D02*
X718085Y-3957143D01*
X718085Y-3957143D02*
X689514Y-3928571D01*
X689514Y-3928571D02*
X660942Y-3871429D01*
X660942Y-3871429D02*
X660942Y-3728571D01*
X660942Y-3728571D02*
X689514Y-3671429D01*
X689514Y-3671429D02*
X718085Y-3642857D01*
X718085Y-3642857D02*
X775228Y-3614286D01*
X775228Y-3614286D02*
X918085Y-3614286D01*
X918085Y-3614286D02*
X975228Y-3642857D01*
X975228Y-3642857D02*
X1003800Y-3671429D01*
X1003800Y-3671429D02*
X1032371Y-3728571D01*
X1032371Y-3728571D02*
X1032371Y-3871429D01*
X1032371Y-3871429D02*
X1003800Y-3928571D01*
X1003800Y-3928571D02*
X975228Y-3957143D01*
X432371Y-3414285D02*
X432371Y-3042857D01*
X432371Y-3042857D02*
X660942Y-3242857D01*
X660942Y-3242857D02*
X660942Y-3157142D01*
X660942Y-3157142D02*
X689514Y-3100000D01*
X689514Y-3100000D02*
X718085Y-3071428D01*
X718085Y-3071428D02*
X775228Y-3042857D01*
X775228Y-3042857D02*
X918085Y-3042857D01*
X918085Y-3042857D02*
X975228Y-3071428D01*
X975228Y-3071428D02*
X1003800Y-3100000D01*
X1003800Y-3100000D02*
X1032371Y-3157142D01*
X1032371Y-3157142D02*
X1032371Y-3328571D01*
X1032371Y-3328571D02*
X1003800Y-3385714D01*
X1003800Y-3385714D02*
X975228Y-3414285D01*
X25305357Y-15812014D02*
X25248214Y-15783442D01*
X25248214Y-15783442D02*
X25191071Y-15726300D01*
X25191071Y-15726300D02*
X25105357Y-15640585D01*
X25105357Y-15640585D02*
X25048214Y-15612014D01*
X25048214Y-15612014D02*
X24991071Y-15612014D01*
X25019642Y-15754871D02*
X24962500Y-15726300D01*
X24962500Y-15726300D02*
X24905357Y-15669157D01*
X24905357Y-15669157D02*
X24876785Y-15554871D01*
X24876785Y-15554871D02*
X24876785Y-15354871D01*
X24876785Y-15354871D02*
X24905357Y-15240585D01*
X24905357Y-15240585D02*
X24962500Y-15183442D01*
X24962500Y-15183442D02*
X25019642Y-15154871D01*
X25019642Y-15154871D02*
X25133928Y-15154871D01*
X25133928Y-15154871D02*
X25191071Y-15183442D01*
X25191071Y-15183442D02*
X25248214Y-15240585D01*
X25248214Y-15240585D02*
X25276785Y-15354871D01*
X25276785Y-15354871D02*
X25276785Y-15554871D01*
X25276785Y-15554871D02*
X25248214Y-15669157D01*
X25248214Y-15669157D02*
X25191071Y-15726300D01*
X25191071Y-15726300D02*
X25133928Y-15754871D01*
X25133928Y-15754871D02*
X25019642Y-15754871D01*
X25505356Y-15212014D02*
X25533928Y-15183442D01*
X25533928Y-15183442D02*
X25591071Y-15154871D01*
X25591071Y-15154871D02*
X25733928Y-15154871D01*
X25733928Y-15154871D02*
X25791071Y-15183442D01*
X25791071Y-15183442D02*
X25819642Y-15212014D01*
X25819642Y-15212014D02*
X25848213Y-15269157D01*
X25848213Y-15269157D02*
X25848213Y-15326300D01*
X25848213Y-15326300D02*
X25819642Y-15412014D01*
X25819642Y-15412014D02*
X25476785Y-15754871D01*
X25476785Y-15754871D02*
X25848213Y-15754871D01*
X8672371Y20122857D02*
X9158085Y20122857D01*
X9158085Y20122857D02*
X9215228Y20151428D01*
X9215228Y20151428D02*
X9243800Y20180000D01*
X9243800Y20180000D02*
X9272371Y20237142D01*
X9272371Y20237142D02*
X9272371Y20351428D01*
X9272371Y20351428D02*
X9243800Y20408571D01*
X9243800Y20408571D02*
X9215228Y20437142D01*
X9215228Y20437142D02*
X9158085Y20465714D01*
X9158085Y20465714D02*
X8672371Y20465714D01*
X8672371Y21037142D02*
X8672371Y20751428D01*
X8672371Y20751428D02*
X8958085Y20722856D01*
X8958085Y20722856D02*
X8929514Y20751428D01*
X8929514Y20751428D02*
X8900942Y20808571D01*
X8900942Y20808571D02*
X8900942Y20951428D01*
X8900942Y20951428D02*
X8929514Y21008571D01*
X8929514Y21008571D02*
X8958085Y21037142D01*
X8958085Y21037142D02*
X9015228Y21065713D01*
X9015228Y21065713D02*
X9158085Y21065713D01*
X9158085Y21065713D02*
X9215228Y21037142D01*
X9215228Y21037142D02*
X9243800Y21008571D01*
X9243800Y21008571D02*
X9272371Y20951428D01*
X9272371Y20951428D02*
X9272371Y20808571D01*
X9272371Y20808571D02*
X9243800Y20751428D01*
X9243800Y20751428D02*
X9215228Y20722856D01*
X1534285Y-8865228D02*
X1505713Y-8893800D01*
X1505713Y-8893800D02*
X1419999Y-8922371D01*
X1419999Y-8922371D02*
X1362856Y-8922371D01*
X1362856Y-8922371D02*
X1277142Y-8893800D01*
X1277142Y-8893800D02*
X1219999Y-8836657D01*
X1219999Y-8836657D02*
X1191428Y-8779514D01*
X1191428Y-8779514D02*
X1162856Y-8665228D01*
X1162856Y-8665228D02*
X1162856Y-8579514D01*
X1162856Y-8579514D02*
X1191428Y-8465228D01*
X1191428Y-8465228D02*
X1219999Y-8408085D01*
X1219999Y-8408085D02*
X1277142Y-8350942D01*
X1277142Y-8350942D02*
X1362856Y-8322371D01*
X1362856Y-8322371D02*
X1419999Y-8322371D01*
X1419999Y-8322371D02*
X1505713Y-8350942D01*
X1505713Y-8350942D02*
X1534285Y-8379514D01*
X1762856Y-8379514D02*
X1791428Y-8350942D01*
X1791428Y-8350942D02*
X1848571Y-8322371D01*
X1848571Y-8322371D02*
X1991428Y-8322371D01*
X1991428Y-8322371D02*
X2048571Y-8350942D01*
X2048571Y-8350942D02*
X2077142Y-8379514D01*
X2077142Y-8379514D02*
X2105713Y-8436657D01*
X2105713Y-8436657D02*
X2105713Y-8493800D01*
X2105713Y-8493800D02*
X2077142Y-8579514D01*
X2077142Y-8579514D02*
X1734285Y-8922371D01*
X1734285Y-8922371D02*
X2105713Y-8922371D01*
X2391428Y-8922371D02*
X2505714Y-8922371D01*
X2505714Y-8922371D02*
X2562857Y-8893800D01*
X2562857Y-8893800D02*
X2591428Y-8865228D01*
X2591428Y-8865228D02*
X2648571Y-8779514D01*
X2648571Y-8779514D02*
X2677142Y-8665228D01*
X2677142Y-8665228D02*
X2677142Y-8436657D01*
X2677142Y-8436657D02*
X2648571Y-8379514D01*
X2648571Y-8379514D02*
X2620000Y-8350942D01*
X2620000Y-8350942D02*
X2562857Y-8322371D01*
X2562857Y-8322371D02*
X2448571Y-8322371D01*
X2448571Y-8322371D02*
X2391428Y-8350942D01*
X2391428Y-8350942D02*
X2362857Y-8379514D01*
X2362857Y-8379514D02*
X2334285Y-8436657D01*
X2334285Y-8436657D02*
X2334285Y-8579514D01*
X2334285Y-8579514D02*
X2362857Y-8636657D01*
X2362857Y-8636657D02*
X2391428Y-8665228D01*
X2391428Y-8665228D02*
X2448571Y-8693800D01*
X2448571Y-8693800D02*
X2562857Y-8693800D01*
X2562857Y-8693800D02*
X2620000Y-8665228D01*
X2620000Y-8665228D02*
X2648571Y-8636657D01*
X2648571Y-8636657D02*
X2677142Y-8579514D01*
X-8185714Y13807628D02*
X-8385714Y14093342D01*
X-8528571Y13807628D02*
X-8528571Y14407628D01*
X-8528571Y14407628D02*
X-8300000Y14407628D01*
X-8300000Y14407628D02*
X-8242857Y14379057D01*
X-8242857Y14379057D02*
X-8214286Y14350485D01*
X-8214286Y14350485D02*
X-8185714Y14293342D01*
X-8185714Y14293342D02*
X-8185714Y14207628D01*
X-8185714Y14207628D02*
X-8214286Y14150485D01*
X-8214286Y14150485D02*
X-8242857Y14121914D01*
X-8242857Y14121914D02*
X-8300000Y14093342D01*
X-8300000Y14093342D02*
X-8528571Y14093342D01*
X-7985714Y14407628D02*
X-7614286Y14407628D01*
X-7614286Y14407628D02*
X-7814286Y14179057D01*
X-7814286Y14179057D02*
X-7728571Y14179057D01*
X-7728571Y14179057D02*
X-7671429Y14150485D01*
X-7671429Y14150485D02*
X-7642857Y14121914D01*
X-7642857Y14121914D02*
X-7614286Y14064771D01*
X-7614286Y14064771D02*
X-7614286Y13921914D01*
X-7614286Y13921914D02*
X-7642857Y13864771D01*
X-7642857Y13864771D02*
X-7671429Y13836200D01*
X-7671429Y13836200D02*
X-7728571Y13807628D01*
X-7728571Y13807628D02*
X-7900000Y13807628D01*
X-7900000Y13807628D02*
X-7957143Y13836200D01*
X-7957143Y13836200D02*
X-7985714Y13864771D01*
X-7100000Y14207628D02*
X-7100000Y13807628D01*
X-7242857Y14436200D02*
X-7385714Y14007628D01*
X-7385714Y14007628D02*
X-7014285Y14007628D01*
X6700000Y-13835228D02*
X6671428Y-13863800D01*
X6671428Y-13863800D02*
X6585714Y-13892371D01*
X6585714Y-13892371D02*
X6528571Y-13892371D01*
X6528571Y-13892371D02*
X6442857Y-13863800D01*
X6442857Y-13863800D02*
X6385714Y-13806657D01*
X6385714Y-13806657D02*
X6357143Y-13749514D01*
X6357143Y-13749514D02*
X6328571Y-13635228D01*
X6328571Y-13635228D02*
X6328571Y-13549514D01*
X6328571Y-13549514D02*
X6357143Y-13435228D01*
X6357143Y-13435228D02*
X6385714Y-13378085D01*
X6385714Y-13378085D02*
X6442857Y-13320942D01*
X6442857Y-13320942D02*
X6528571Y-13292371D01*
X6528571Y-13292371D02*
X6585714Y-13292371D01*
X6585714Y-13292371D02*
X6671428Y-13320942D01*
X6671428Y-13320942D02*
X6700000Y-13349514D01*
X6900000Y-13292371D02*
X7271428Y-13292371D01*
X7271428Y-13292371D02*
X7071428Y-13520942D01*
X7071428Y-13520942D02*
X7157143Y-13520942D01*
X7157143Y-13520942D02*
X7214286Y-13549514D01*
X7214286Y-13549514D02*
X7242857Y-13578085D01*
X7242857Y-13578085D02*
X7271428Y-13635228D01*
X7271428Y-13635228D02*
X7271428Y-13778085D01*
X7271428Y-13778085D02*
X7242857Y-13835228D01*
X7242857Y-13835228D02*
X7214286Y-13863800D01*
X7214286Y-13863800D02*
X7157143Y-13892371D01*
X7157143Y-13892371D02*
X6985714Y-13892371D01*
X6985714Y-13892371D02*
X6928571Y-13863800D01*
X6928571Y-13863800D02*
X6900000Y-13835228D01*
X19515228Y18304285D02*
X19543800Y18275713D01*
X19543800Y18275713D02*
X19572371Y18189999D01*
X19572371Y18189999D02*
X19572371Y18132856D01*
X19572371Y18132856D02*
X19543800Y18047142D01*
X19543800Y18047142D02*
X19486657Y17989999D01*
X19486657Y17989999D02*
X19429514Y17961428D01*
X19429514Y17961428D02*
X19315228Y17932856D01*
X19315228Y17932856D02*
X19229514Y17932856D01*
X19229514Y17932856D02*
X19115228Y17961428D01*
X19115228Y17961428D02*
X19058085Y17989999D01*
X19058085Y17989999D02*
X19000942Y18047142D01*
X19000942Y18047142D02*
X18972371Y18132856D01*
X18972371Y18132856D02*
X18972371Y18189999D01*
X18972371Y18189999D02*
X19000942Y18275713D01*
X19000942Y18275713D02*
X19029514Y18304285D01*
X19572371Y18875713D02*
X19572371Y18532856D01*
X19572371Y18704285D02*
X18972371Y18704285D01*
X18972371Y18704285D02*
X19058085Y18647142D01*
X19058085Y18647142D02*
X19115228Y18589999D01*
X19115228Y18589999D02*
X19143800Y18532856D01*
X19229514Y19218571D02*
X19200942Y19161428D01*
X19200942Y19161428D02*
X19172371Y19132857D01*
X19172371Y19132857D02*
X19115228Y19104285D01*
X19115228Y19104285D02*
X19086657Y19104285D01*
X19086657Y19104285D02*
X19029514Y19132857D01*
X19029514Y19132857D02*
X19000942Y19161428D01*
X19000942Y19161428D02*
X18972371Y19218571D01*
X18972371Y19218571D02*
X18972371Y19332857D01*
X18972371Y19332857D02*
X19000942Y19390000D01*
X19000942Y19390000D02*
X19029514Y19418571D01*
X19029514Y19418571D02*
X19086657Y19447142D01*
X19086657Y19447142D02*
X19115228Y19447142D01*
X19115228Y19447142D02*
X19172371Y19418571D01*
X19172371Y19418571D02*
X19200942Y19390000D01*
X19200942Y19390000D02*
X19229514Y19332857D01*
X19229514Y19332857D02*
X19229514Y19218571D01*
X19229514Y19218571D02*
X19258085Y19161428D01*
X19258085Y19161428D02*
X19286657Y19132857D01*
X19286657Y19132857D02*
X19343800Y19104285D01*
X19343800Y19104285D02*
X19458085Y19104285D01*
X19458085Y19104285D02*
X19515228Y19132857D01*
X19515228Y19132857D02*
X19543800Y19161428D01*
X19543800Y19161428D02*
X19572371Y19218571D01*
X19572371Y19218571D02*
X19572371Y19332857D01*
X19572371Y19332857D02*
X19543800Y19390000D01*
X19543800Y19390000D02*
X19515228Y19418571D01*
X19515228Y19418571D02*
X19458085Y19447142D01*
X19458085Y19447142D02*
X19343800Y19447142D01*
X19343800Y19447142D02*
X19286657Y19418571D01*
X19286657Y19418571D02*
X19258085Y19390000D01*
X19258085Y19390000D02*
X19229514Y19332857D01*
X2552728Y14294285D02*
X2581300Y14265713D01*
X2581300Y14265713D02*
X2609871Y14179999D01*
X2609871Y14179999D02*
X2609871Y14122856D01*
X2609871Y14122856D02*
X2581300Y14037142D01*
X2581300Y14037142D02*
X2524157Y13979999D01*
X2524157Y13979999D02*
X2467014Y13951428D01*
X2467014Y13951428D02*
X2352728Y13922856D01*
X2352728Y13922856D02*
X2267014Y13922856D01*
X2267014Y13922856D02*
X2152728Y13951428D01*
X2152728Y13951428D02*
X2095585Y13979999D01*
X2095585Y13979999D02*
X2038442Y14037142D01*
X2038442Y14037142D02*
X2009871Y14122856D01*
X2009871Y14122856D02*
X2009871Y14179999D01*
X2009871Y14179999D02*
X2038442Y14265713D01*
X2038442Y14265713D02*
X2067014Y14294285D01*
X2209871Y14808571D02*
X2609871Y14808571D01*
X1981300Y14665713D02*
X2409871Y14522856D01*
X2409871Y14522856D02*
X2409871Y14894285D01*
X2067014Y15094285D02*
X2038442Y15122857D01*
X2038442Y15122857D02*
X2009871Y15180000D01*
X2009871Y15180000D02*
X2009871Y15322857D01*
X2009871Y15322857D02*
X2038442Y15380000D01*
X2038442Y15380000D02*
X2067014Y15408571D01*
X2067014Y15408571D02*
X2124157Y15437142D01*
X2124157Y15437142D02*
X2181300Y15437142D01*
X2181300Y15437142D02*
X2267014Y15408571D01*
X2267014Y15408571D02*
X2609871Y15065714D01*
X2609871Y15065714D02*
X2609871Y15437142D01*
X-17785714Y17764771D02*
X-17814286Y17736200D01*
X-17814286Y17736200D02*
X-17900000Y17707628D01*
X-17900000Y17707628D02*
X-17957143Y17707628D01*
X-17957143Y17707628D02*
X-18042857Y17736200D01*
X-18042857Y17736200D02*
X-18100000Y17793342D01*
X-18100000Y17793342D02*
X-18128571Y17850485D01*
X-18128571Y17850485D02*
X-18157143Y17964771D01*
X-18157143Y17964771D02*
X-18157143Y18050485D01*
X-18157143Y18050485D02*
X-18128571Y18164771D01*
X-18128571Y18164771D02*
X-18100000Y18221914D01*
X-18100000Y18221914D02*
X-18042857Y18279057D01*
X-18042857Y18279057D02*
X-17957143Y18307628D01*
X-17957143Y18307628D02*
X-17900000Y18307628D01*
X-17900000Y18307628D02*
X-17814286Y18279057D01*
X-17814286Y18279057D02*
X-17785714Y18250485D01*
X-17214286Y17707628D02*
X-17557143Y17707628D01*
X-17385714Y17707628D02*
X-17385714Y18307628D01*
X-17385714Y18307628D02*
X-17442857Y18221914D01*
X-17442857Y18221914D02*
X-17500000Y18164771D01*
X-17500000Y18164771D02*
X-17557143Y18136200D01*
X-16928571Y17707628D02*
X-16814285Y17707628D01*
X-16814285Y17707628D02*
X-16757142Y17736200D01*
X-16757142Y17736200D02*
X-16728571Y17764771D01*
X-16728571Y17764771D02*
X-16671428Y17850485D01*
X-16671428Y17850485D02*
X-16642857Y17964771D01*
X-16642857Y17964771D02*
X-16642857Y18193342D01*
X-16642857Y18193342D02*
X-16671428Y18250485D01*
X-16671428Y18250485D02*
X-16700000Y18279057D01*
X-16700000Y18279057D02*
X-16757142Y18307628D01*
X-16757142Y18307628D02*
X-16871428Y18307628D01*
X-16871428Y18307628D02*
X-16928571Y18279057D01*
X-16928571Y18279057D02*
X-16957142Y18250485D01*
X-16957142Y18250485D02*
X-16985714Y18193342D01*
X-16985714Y18193342D02*
X-16985714Y18050485D01*
X-16985714Y18050485D02*
X-16957142Y17993342D01*
X-16957142Y17993342D02*
X-16928571Y17964771D01*
X-16928571Y17964771D02*
X-16871428Y17936200D01*
X-16871428Y17936200D02*
X-16757142Y17936200D01*
X-16757142Y17936200D02*
X-16700000Y17964771D01*
X-16700000Y17964771D02*
X-16671428Y17993342D01*
X-16671428Y17993342D02*
X-16642857Y18050485D01*
X-267628Y-8239999D02*
X-553342Y-8439999D01*
X-267628Y-8582856D02*
X-867628Y-8582856D01*
X-867628Y-8582856D02*
X-867628Y-8354285D01*
X-867628Y-8354285D02*
X-839057Y-8297142D01*
X-839057Y-8297142D02*
X-810485Y-8268571D01*
X-810485Y-8268571D02*
X-753342Y-8239999D01*
X-753342Y-8239999D02*
X-667628Y-8239999D01*
X-667628Y-8239999D02*
X-610485Y-8268571D01*
X-610485Y-8268571D02*
X-581914Y-8297142D01*
X-581914Y-8297142D02*
X-553342Y-8354285D01*
X-553342Y-8354285D02*
X-553342Y-8582856D01*
X-810485Y-8011428D02*
X-839057Y-7982856D01*
X-839057Y-7982856D02*
X-867628Y-7925714D01*
X-867628Y-7925714D02*
X-867628Y-7782856D01*
X-867628Y-7782856D02*
X-839057Y-7725714D01*
X-839057Y-7725714D02*
X-810485Y-7697142D01*
X-810485Y-7697142D02*
X-753342Y-7668571D01*
X-753342Y-7668571D02*
X-696200Y-7668571D01*
X-696200Y-7668571D02*
X-610485Y-7697142D01*
X-610485Y-7697142D02*
X-267628Y-8039999D01*
X-267628Y-8039999D02*
X-267628Y-7668571D01*
X-1034771Y-4145714D02*
X-1006200Y-4174286D01*
X-1006200Y-4174286D02*
X-977628Y-4260000D01*
X-977628Y-4260000D02*
X-977628Y-4317143D01*
X-977628Y-4317143D02*
X-1006200Y-4402857D01*
X-1006200Y-4402857D02*
X-1063342Y-4460000D01*
X-1063342Y-4460000D02*
X-1120485Y-4488571D01*
X-1120485Y-4488571D02*
X-1234771Y-4517143D01*
X-1234771Y-4517143D02*
X-1320485Y-4517143D01*
X-1320485Y-4517143D02*
X-1434771Y-4488571D01*
X-1434771Y-4488571D02*
X-1491914Y-4460000D01*
X-1491914Y-4460000D02*
X-1549057Y-4402857D01*
X-1549057Y-4402857D02*
X-1577628Y-4317143D01*
X-1577628Y-4317143D02*
X-1577628Y-4260000D01*
X-1577628Y-4260000D02*
X-1549057Y-4174286D01*
X-1549057Y-4174286D02*
X-1520485Y-4145714D01*
X-1577628Y-3602857D02*
X-1577628Y-3888571D01*
X-1577628Y-3888571D02*
X-1291914Y-3917143D01*
X-1291914Y-3917143D02*
X-1320485Y-3888571D01*
X-1320485Y-3888571D02*
X-1349057Y-3831429D01*
X-1349057Y-3831429D02*
X-1349057Y-3688571D01*
X-1349057Y-3688571D02*
X-1320485Y-3631429D01*
X-1320485Y-3631429D02*
X-1291914Y-3602857D01*
X-1291914Y-3602857D02*
X-1234771Y-3574286D01*
X-1234771Y-3574286D02*
X-1091914Y-3574286D01*
X-1091914Y-3574286D02*
X-1034771Y-3602857D01*
X-1034771Y-3602857D02*
X-1006200Y-3631429D01*
X-1006200Y-3631429D02*
X-977628Y-3688571D01*
X-977628Y-3688571D02*
X-977628Y-3831429D01*
X-977628Y-3831429D02*
X-1006200Y-3888571D01*
X-1006200Y-3888571D02*
X-1034771Y-3917143D01*
X-1577628Y-3060000D02*
X-1577628Y-3174285D01*
X-1577628Y-3174285D02*
X-1549057Y-3231428D01*
X-1549057Y-3231428D02*
X-1520485Y-3260000D01*
X-1520485Y-3260000D02*
X-1434771Y-3317142D01*
X-1434771Y-3317142D02*
X-1320485Y-3345714D01*
X-1320485Y-3345714D02*
X-1091914Y-3345714D01*
X-1091914Y-3345714D02*
X-1034771Y-3317142D01*
X-1034771Y-3317142D02*
X-1006200Y-3288571D01*
X-1006200Y-3288571D02*
X-977628Y-3231428D01*
X-977628Y-3231428D02*
X-977628Y-3117142D01*
X-977628Y-3117142D02*
X-1006200Y-3060000D01*
X-1006200Y-3060000D02*
X-1034771Y-3031428D01*
X-1034771Y-3031428D02*
X-1091914Y-3002857D01*
X-1091914Y-3002857D02*
X-1234771Y-3002857D01*
X-1234771Y-3002857D02*
X-1291914Y-3031428D01*
X-1291914Y-3031428D02*
X-1320485Y-3060000D01*
X-1320485Y-3060000D02*
X-1349057Y-3117142D01*
X-1349057Y-3117142D02*
X-1349057Y-3231428D01*
X-1349057Y-3231428D02*
X-1320485Y-3288571D01*
X-1320485Y-3288571D02*
X-1291914Y-3317142D01*
X-1291914Y-3317142D02*
X-1234771Y-3345714D01*
X-17310000Y24606200D02*
X-17224286Y24577628D01*
X-17224286Y24577628D02*
X-17081428Y24577628D01*
X-17081428Y24577628D02*
X-17024286Y24606200D01*
X-17024286Y24606200D02*
X-16995714Y24634771D01*
X-16995714Y24634771D02*
X-16967143Y24691914D01*
X-16967143Y24691914D02*
X-16967143Y24749057D01*
X-16967143Y24749057D02*
X-16995714Y24806200D01*
X-16995714Y24806200D02*
X-17024286Y24834771D01*
X-17024286Y24834771D02*
X-17081428Y24863342D01*
X-17081428Y24863342D02*
X-17195714Y24891914D01*
X-17195714Y24891914D02*
X-17252857Y24920485D01*
X-17252857Y24920485D02*
X-17281428Y24949057D01*
X-17281428Y24949057D02*
X-17310000Y25006200D01*
X-17310000Y25006200D02*
X-17310000Y25063342D01*
X-17310000Y25063342D02*
X-17281428Y25120485D01*
X-17281428Y25120485D02*
X-17252857Y25149057D01*
X-17252857Y25149057D02*
X-17195714Y25177628D01*
X-17195714Y25177628D02*
X-17052857Y25177628D01*
X-17052857Y25177628D02*
X-16967143Y25149057D01*
X-16767142Y25177628D02*
X-16624285Y24577628D01*
X-16624285Y24577628D02*
X-16509999Y25006200D01*
X-16509999Y25006200D02*
X-16395714Y24577628D01*
X-16395714Y24577628D02*
X-16252857Y25177628D01*
X-16081428Y25177628D02*
X-15710000Y25177628D01*
X-15710000Y25177628D02*
X-15910000Y24949057D01*
X-15910000Y24949057D02*
X-15824285Y24949057D01*
X-15824285Y24949057D02*
X-15767143Y24920485D01*
X-15767143Y24920485D02*
X-15738571Y24891914D01*
X-15738571Y24891914D02*
X-15710000Y24834771D01*
X-15710000Y24834771D02*
X-15710000Y24691914D01*
X-15710000Y24691914D02*
X-15738571Y24634771D01*
X-15738571Y24634771D02*
X-15767143Y24606200D01*
X-15767143Y24606200D02*
X-15824285Y24577628D01*
X-15824285Y24577628D02*
X-15995714Y24577628D01*
X-15995714Y24577628D02*
X-16052857Y24606200D01*
X-16052857Y24606200D02*
X-16081428Y24634771D01*
X18872371Y14724285D02*
X18586657Y14524285D01*
X18872371Y14381428D02*
X18272371Y14381428D01*
X18272371Y14381428D02*
X18272371Y14609999D01*
X18272371Y14609999D02*
X18300942Y14667142D01*
X18300942Y14667142D02*
X18329514Y14695713D01*
X18329514Y14695713D02*
X18386657Y14724285D01*
X18386657Y14724285D02*
X18472371Y14724285D01*
X18472371Y14724285D02*
X18529514Y14695713D01*
X18529514Y14695713D02*
X18558085Y14667142D01*
X18558085Y14667142D02*
X18586657Y14609999D01*
X18586657Y14609999D02*
X18586657Y14381428D01*
X18329514Y14952856D02*
X18300942Y14981428D01*
X18300942Y14981428D02*
X18272371Y15038571D01*
X18272371Y15038571D02*
X18272371Y15181428D01*
X18272371Y15181428D02*
X18300942Y15238571D01*
X18300942Y15238571D02*
X18329514Y15267142D01*
X18329514Y15267142D02*
X18386657Y15295713D01*
X18386657Y15295713D02*
X18443800Y15295713D01*
X18443800Y15295713D02*
X18529514Y15267142D01*
X18529514Y15267142D02*
X18872371Y14924285D01*
X18872371Y14924285D02*
X18872371Y15295713D01*
X18272371Y15810000D02*
X18272371Y15695714D01*
X18272371Y15695714D02*
X18300942Y15638571D01*
X18300942Y15638571D02*
X18329514Y15610000D01*
X18329514Y15610000D02*
X18415228Y15552857D01*
X18415228Y15552857D02*
X18529514Y15524285D01*
X18529514Y15524285D02*
X18758085Y15524285D01*
X18758085Y15524285D02*
X18815228Y15552857D01*
X18815228Y15552857D02*
X18843800Y15581428D01*
X18843800Y15581428D02*
X18872371Y15638571D01*
X18872371Y15638571D02*
X18872371Y15752857D01*
X18872371Y15752857D02*
X18843800Y15810000D01*
X18843800Y15810000D02*
X18815228Y15838571D01*
X18815228Y15838571D02*
X18758085Y15867142D01*
X18758085Y15867142D02*
X18615228Y15867142D01*
X18615228Y15867142D02*
X18558085Y15838571D01*
X18558085Y15838571D02*
X18529514Y15810000D01*
X18529514Y15810000D02*
X18500942Y15752857D01*
X18500942Y15752857D02*
X18500942Y15638571D01*
X18500942Y15638571D02*
X18529514Y15581428D01*
X18529514Y15581428D02*
X18558085Y15552857D01*
X18558085Y15552857D02*
X18615228Y15524285D01*
X932371Y9517143D02*
X1418085Y9517143D01*
X1418085Y9517143D02*
X1475228Y9545714D01*
X1475228Y9545714D02*
X1503800Y9574286D01*
X1503800Y9574286D02*
X1532371Y9631428D01*
X1532371Y9631428D02*
X1532371Y9745714D01*
X1532371Y9745714D02*
X1503800Y9802857D01*
X1503800Y9802857D02*
X1475228Y9831428D01*
X1475228Y9831428D02*
X1418085Y9860000D01*
X1418085Y9860000D02*
X932371Y9860000D01*
X1532371Y10459999D02*
X1532371Y10117142D01*
X1532371Y10288571D02*
X932371Y10288571D01*
X932371Y10288571D02*
X1018085Y10231428D01*
X1018085Y10231428D02*
X1075228Y10174285D01*
X1075228Y10174285D02*
X1103800Y10117142D01*
X1132371Y10974286D02*
X1532371Y10974286D01*
X903800Y10831428D02*
X1332371Y10688571D01*
X1332371Y10688571D02*
X1332371Y11060000D01*
X17297143Y-13912371D02*
X17297143Y-13312371D01*
X17297143Y-13312371D02*
X17440000Y-13312371D01*
X17440000Y-13312371D02*
X17525714Y-13340942D01*
X17525714Y-13340942D02*
X17582857Y-13398085D01*
X17582857Y-13398085D02*
X17611428Y-13455228D01*
X17611428Y-13455228D02*
X17640000Y-13569514D01*
X17640000Y-13569514D02*
X17640000Y-13655228D01*
X17640000Y-13655228D02*
X17611428Y-13769514D01*
X17611428Y-13769514D02*
X17582857Y-13826657D01*
X17582857Y-13826657D02*
X17525714Y-13883800D01*
X17525714Y-13883800D02*
X17440000Y-13912371D01*
X17440000Y-13912371D02*
X17297143Y-13912371D01*
X17840000Y-13312371D02*
X18211428Y-13312371D01*
X18211428Y-13312371D02*
X18011428Y-13540942D01*
X18011428Y-13540942D02*
X18097143Y-13540942D01*
X18097143Y-13540942D02*
X18154286Y-13569514D01*
X18154286Y-13569514D02*
X18182857Y-13598085D01*
X18182857Y-13598085D02*
X18211428Y-13655228D01*
X18211428Y-13655228D02*
X18211428Y-13798085D01*
X18211428Y-13798085D02*
X18182857Y-13855228D01*
X18182857Y-13855228D02*
X18154286Y-13883800D01*
X18154286Y-13883800D02*
X18097143Y-13912371D01*
X18097143Y-13912371D02*
X17925714Y-13912371D01*
X17925714Y-13912371D02*
X17868571Y-13883800D01*
X17868571Y-13883800D02*
X17840000Y-13855228D01*
X14534074Y-11332959D02*
X14534074Y-10732959D01*
X14534074Y-10732959D02*
X14676931Y-10732959D01*
X14676931Y-10732959D02*
X14762645Y-10761530D01*
X14762645Y-10761530D02*
X14819788Y-10818673D01*
X14819788Y-10818673D02*
X14848359Y-10875816D01*
X14848359Y-10875816D02*
X14876931Y-10990102D01*
X14876931Y-10990102D02*
X14876931Y-11075816D01*
X14876931Y-11075816D02*
X14848359Y-11190102D01*
X14848359Y-11190102D02*
X14819788Y-11247245D01*
X14819788Y-11247245D02*
X14762645Y-11304388D01*
X14762645Y-11304388D02*
X14676931Y-11332959D01*
X14676931Y-11332959D02*
X14534074Y-11332959D01*
X15105502Y-10790102D02*
X15134074Y-10761530D01*
X15134074Y-10761530D02*
X15191217Y-10732959D01*
X15191217Y-10732959D02*
X15334074Y-10732959D01*
X15334074Y-10732959D02*
X15391217Y-10761530D01*
X15391217Y-10761530D02*
X15419788Y-10790102D01*
X15419788Y-10790102D02*
X15448359Y-10847245D01*
X15448359Y-10847245D02*
X15448359Y-10904388D01*
X15448359Y-10904388D02*
X15419788Y-10990102D01*
X15419788Y-10990102D02*
X15076931Y-11332959D01*
X15076931Y-11332959D02*
X15448359Y-11332959D01*
X294285Y1404771D02*
X265713Y1376200D01*
X265713Y1376200D02*
X179999Y1347628D01*
X179999Y1347628D02*
X122856Y1347628D01*
X122856Y1347628D02*
X37142Y1376200D01*
X37142Y1376200D02*
X-20000Y1433342D01*
X-20000Y1433342D02*
X-48571Y1490485D01*
X-48571Y1490485D02*
X-77143Y1604771D01*
X-77143Y1604771D02*
X-77143Y1690485D01*
X-77143Y1690485D02*
X-48571Y1804771D01*
X-48571Y1804771D02*
X-20000Y1861914D01*
X-20000Y1861914D02*
X37142Y1919057D01*
X37142Y1919057D02*
X122856Y1947628D01*
X122856Y1947628D02*
X179999Y1947628D01*
X179999Y1947628D02*
X265713Y1919057D01*
X265713Y1919057D02*
X294285Y1890485D01*
X837142Y1947628D02*
X551428Y1947628D01*
X551428Y1947628D02*
X522856Y1661914D01*
X522856Y1661914D02*
X551428Y1690485D01*
X551428Y1690485D02*
X608571Y1719057D01*
X608571Y1719057D02*
X751428Y1719057D01*
X751428Y1719057D02*
X808571Y1690485D01*
X808571Y1690485D02*
X837142Y1661914D01*
X837142Y1661914D02*
X865713Y1604771D01*
X865713Y1604771D02*
X865713Y1461914D01*
X865713Y1461914D02*
X837142Y1404771D01*
X837142Y1404771D02*
X808571Y1376200D01*
X808571Y1376200D02*
X751428Y1347628D01*
X751428Y1347628D02*
X608571Y1347628D01*
X608571Y1347628D02*
X551428Y1376200D01*
X551428Y1376200D02*
X522856Y1404771D01*
X1380000Y1747628D02*
X1380000Y1347628D01*
X1237142Y1976200D02*
X1094285Y1547628D01*
X1094285Y1547628D02*
X1465714Y1547628D01*
X7014285Y21864771D02*
X6985713Y21836200D01*
X6985713Y21836200D02*
X6899999Y21807628D01*
X6899999Y21807628D02*
X6842856Y21807628D01*
X6842856Y21807628D02*
X6757142Y21836200D01*
X6757142Y21836200D02*
X6699999Y21893342D01*
X6699999Y21893342D02*
X6671428Y21950485D01*
X6671428Y21950485D02*
X6642856Y22064771D01*
X6642856Y22064771D02*
X6642856Y22150485D01*
X6642856Y22150485D02*
X6671428Y22264771D01*
X6671428Y22264771D02*
X6699999Y22321914D01*
X6699999Y22321914D02*
X6757142Y22379057D01*
X6757142Y22379057D02*
X6842856Y22407628D01*
X6842856Y22407628D02*
X6899999Y22407628D01*
X6899999Y22407628D02*
X6985713Y22379057D01*
X6985713Y22379057D02*
X7014285Y22350485D01*
X7242856Y22350485D02*
X7271428Y22379057D01*
X7271428Y22379057D02*
X7328571Y22407628D01*
X7328571Y22407628D02*
X7471428Y22407628D01*
X7471428Y22407628D02*
X7528571Y22379057D01*
X7528571Y22379057D02*
X7557142Y22350485D01*
X7557142Y22350485D02*
X7585713Y22293342D01*
X7585713Y22293342D02*
X7585713Y22236200D01*
X7585713Y22236200D02*
X7557142Y22150485D01*
X7557142Y22150485D02*
X7214285Y21807628D01*
X7214285Y21807628D02*
X7585713Y21807628D01*
X7814285Y22350485D02*
X7842857Y22379057D01*
X7842857Y22379057D02*
X7900000Y22407628D01*
X7900000Y22407628D02*
X8042857Y22407628D01*
X8042857Y22407628D02*
X8100000Y22379057D01*
X8100000Y22379057D02*
X8128571Y22350485D01*
X8128571Y22350485D02*
X8157142Y22293342D01*
X8157142Y22293342D02*
X8157142Y22236200D01*
X8157142Y22236200D02*
X8128571Y22150485D01*
X8128571Y22150485D02*
X7785714Y21807628D01*
X7785714Y21807628D02*
X8157142Y21807628D01*
X-18499999Y-12510228D02*
X-18528571Y-12538800D01*
X-18528571Y-12538800D02*
X-18614285Y-12567371D01*
X-18614285Y-12567371D02*
X-18671428Y-12567371D01*
X-18671428Y-12567371D02*
X-18757142Y-12538800D01*
X-18757142Y-12538800D02*
X-18814285Y-12481657D01*
X-18814285Y-12481657D02*
X-18842856Y-12424514D01*
X-18842856Y-12424514D02*
X-18871428Y-12310228D01*
X-18871428Y-12310228D02*
X-18871428Y-12224514D01*
X-18871428Y-12224514D02*
X-18842856Y-12110228D01*
X-18842856Y-12110228D02*
X-18814285Y-12053085D01*
X-18814285Y-12053085D02*
X-18757142Y-11995942D01*
X-18757142Y-11995942D02*
X-18671428Y-11967371D01*
X-18671428Y-11967371D02*
X-18614285Y-11967371D01*
X-18614285Y-11967371D02*
X-18528571Y-11995942D01*
X-18528571Y-11995942D02*
X-18499999Y-12024514D01*
X-18299999Y-11967371D02*
X-17899999Y-11967371D01*
X-17899999Y-11967371D02*
X-18157142Y-12567371D01*
X-22120000Y17336200D02*
X-22034286Y17307628D01*
X-22034286Y17307628D02*
X-21891428Y17307628D01*
X-21891428Y17307628D02*
X-21834286Y17336200D01*
X-21834286Y17336200D02*
X-21805714Y17364771D01*
X-21805714Y17364771D02*
X-21777143Y17421914D01*
X-21777143Y17421914D02*
X-21777143Y17479057D01*
X-21777143Y17479057D02*
X-21805714Y17536200D01*
X-21805714Y17536200D02*
X-21834286Y17564771D01*
X-21834286Y17564771D02*
X-21891428Y17593342D01*
X-21891428Y17593342D02*
X-22005714Y17621914D01*
X-22005714Y17621914D02*
X-22062857Y17650485D01*
X-22062857Y17650485D02*
X-22091428Y17679057D01*
X-22091428Y17679057D02*
X-22120000Y17736200D01*
X-22120000Y17736200D02*
X-22120000Y17793342D01*
X-22120000Y17793342D02*
X-22091428Y17850485D01*
X-22091428Y17850485D02*
X-22062857Y17879057D01*
X-22062857Y17879057D02*
X-22005714Y17907628D01*
X-22005714Y17907628D02*
X-21862857Y17907628D01*
X-21862857Y17907628D02*
X-21777143Y17879057D01*
X-21577142Y17907628D02*
X-21434285Y17307628D01*
X-21434285Y17307628D02*
X-21319999Y17736200D01*
X-21319999Y17736200D02*
X-21205714Y17307628D01*
X-21205714Y17307628D02*
X-21062857Y17907628D01*
X-20520000Y17307628D02*
X-20862857Y17307628D01*
X-20691428Y17307628D02*
X-20691428Y17907628D01*
X-20691428Y17907628D02*
X-20748571Y17821914D01*
X-20748571Y17821914D02*
X-20805714Y17764771D01*
X-20805714Y17764771D02*
X-20862857Y17736200D01*
X17130000Y21264771D02*
X17101428Y21236200D01*
X17101428Y21236200D02*
X17015714Y21207628D01*
X17015714Y21207628D02*
X16958571Y21207628D01*
X16958571Y21207628D02*
X16872857Y21236200D01*
X16872857Y21236200D02*
X16815714Y21293342D01*
X16815714Y21293342D02*
X16787143Y21350485D01*
X16787143Y21350485D02*
X16758571Y21464771D01*
X16758571Y21464771D02*
X16758571Y21550485D01*
X16758571Y21550485D02*
X16787143Y21664771D01*
X16787143Y21664771D02*
X16815714Y21721914D01*
X16815714Y21721914D02*
X16872857Y21779057D01*
X16872857Y21779057D02*
X16958571Y21807628D01*
X16958571Y21807628D02*
X17015714Y21807628D01*
X17015714Y21807628D02*
X17101428Y21779057D01*
X17101428Y21779057D02*
X17130000Y21750485D01*
X17472857Y21550485D02*
X17415714Y21579057D01*
X17415714Y21579057D02*
X17387143Y21607628D01*
X17387143Y21607628D02*
X17358571Y21664771D01*
X17358571Y21664771D02*
X17358571Y21693342D01*
X17358571Y21693342D02*
X17387143Y21750485D01*
X17387143Y21750485D02*
X17415714Y21779057D01*
X17415714Y21779057D02*
X17472857Y21807628D01*
X17472857Y21807628D02*
X17587143Y21807628D01*
X17587143Y21807628D02*
X17644286Y21779057D01*
X17644286Y21779057D02*
X17672857Y21750485D01*
X17672857Y21750485D02*
X17701428Y21693342D01*
X17701428Y21693342D02*
X17701428Y21664771D01*
X17701428Y21664771D02*
X17672857Y21607628D01*
X17672857Y21607628D02*
X17644286Y21579057D01*
X17644286Y21579057D02*
X17587143Y21550485D01*
X17587143Y21550485D02*
X17472857Y21550485D01*
X17472857Y21550485D02*
X17415714Y21521914D01*
X17415714Y21521914D02*
X17387143Y21493342D01*
X17387143Y21493342D02*
X17358571Y21436200D01*
X17358571Y21436200D02*
X17358571Y21321914D01*
X17358571Y21321914D02*
X17387143Y21264771D01*
X17387143Y21264771D02*
X17415714Y21236200D01*
X17415714Y21236200D02*
X17472857Y21207628D01*
X17472857Y21207628D02*
X17587143Y21207628D01*
X17587143Y21207628D02*
X17644286Y21236200D01*
X17644286Y21236200D02*
X17672857Y21264771D01*
X17672857Y21264771D02*
X17701428Y21321914D01*
X17701428Y21321914D02*
X17701428Y21436200D01*
X17701428Y21436200D02*
X17672857Y21493342D01*
X17672857Y21493342D02*
X17644286Y21521914D01*
X17644286Y21521914D02*
X17587143Y21550485D01*
X-3827628Y24094285D02*
X-4113342Y23894285D01*
X-3827628Y23751428D02*
X-4427628Y23751428D01*
X-4427628Y23751428D02*
X-4427628Y23979999D01*
X-4427628Y23979999D02*
X-4399057Y24037142D01*
X-4399057Y24037142D02*
X-4370485Y24065713D01*
X-4370485Y24065713D02*
X-4313342Y24094285D01*
X-4313342Y24094285D02*
X-4227628Y24094285D01*
X-4227628Y24094285D02*
X-4170485Y24065713D01*
X-4170485Y24065713D02*
X-4141914Y24037142D01*
X-4141914Y24037142D02*
X-4113342Y23979999D01*
X-4113342Y23979999D02*
X-4113342Y23751428D01*
X-4427628Y24294285D02*
X-4427628Y24665713D01*
X-4427628Y24665713D02*
X-4199057Y24465713D01*
X-4199057Y24465713D02*
X-4199057Y24551428D01*
X-4199057Y24551428D02*
X-4170485Y24608571D01*
X-4170485Y24608571D02*
X-4141914Y24637142D01*
X-4141914Y24637142D02*
X-4084771Y24665713D01*
X-4084771Y24665713D02*
X-3941914Y24665713D01*
X-3941914Y24665713D02*
X-3884771Y24637142D01*
X-3884771Y24637142D02*
X-3856200Y24608571D01*
X-3856200Y24608571D02*
X-3827628Y24551428D01*
X-3827628Y24551428D02*
X-3827628Y24379999D01*
X-3827628Y24379999D02*
X-3856200Y24322856D01*
X-3856200Y24322856D02*
X-3884771Y24294285D01*
X-4427628Y24865714D02*
X-4427628Y25237142D01*
X-4427628Y25237142D02*
X-4199057Y25037142D01*
X-4199057Y25037142D02*
X-4199057Y25122857D01*
X-4199057Y25122857D02*
X-4170485Y25180000D01*
X-4170485Y25180000D02*
X-4141914Y25208571D01*
X-4141914Y25208571D02*
X-4084771Y25237142D01*
X-4084771Y25237142D02*
X-3941914Y25237142D01*
X-3941914Y25237142D02*
X-3884771Y25208571D01*
X-3884771Y25208571D02*
X-3856200Y25180000D01*
X-3856200Y25180000D02*
X-3827628Y25122857D01*
X-3827628Y25122857D02*
X-3827628Y24951428D01*
X-3827628Y24951428D02*
X-3856200Y24894285D01*
X-3856200Y24894285D02*
X-3884771Y24865714D01*
X-1447271Y17794285D02*
X-1418700Y17765713D01*
X-1418700Y17765713D02*
X-1390128Y17679999D01*
X-1390128Y17679999D02*
X-1390128Y17622856D01*
X-1390128Y17622856D02*
X-1418700Y17537142D01*
X-1418700Y17537142D02*
X-1475842Y17479999D01*
X-1475842Y17479999D02*
X-1532985Y17451428D01*
X-1532985Y17451428D02*
X-1647271Y17422856D01*
X-1647271Y17422856D02*
X-1732985Y17422856D01*
X-1732985Y17422856D02*
X-1847271Y17451428D01*
X-1847271Y17451428D02*
X-1904414Y17479999D01*
X-1904414Y17479999D02*
X-1961557Y17537142D01*
X-1961557Y17537142D02*
X-1990128Y17622856D01*
X-1990128Y17622856D02*
X-1990128Y17679999D01*
X-1990128Y17679999D02*
X-1961557Y17765713D01*
X-1961557Y17765713D02*
X-1932985Y17794285D01*
X-1790128Y18308571D02*
X-1390128Y18308571D01*
X-2018700Y18165713D02*
X-1590128Y18022856D01*
X-1590128Y18022856D02*
X-1590128Y18394285D01*
X-1990128Y18908571D02*
X-1990128Y18622857D01*
X-1990128Y18622857D02*
X-1704414Y18594285D01*
X-1704414Y18594285D02*
X-1732985Y18622857D01*
X-1732985Y18622857D02*
X-1761557Y18680000D01*
X-1761557Y18680000D02*
X-1761557Y18822857D01*
X-1761557Y18822857D02*
X-1732985Y18880000D01*
X-1732985Y18880000D02*
X-1704414Y18908571D01*
X-1704414Y18908571D02*
X-1647271Y18937142D01*
X-1647271Y18937142D02*
X-1504414Y18937142D01*
X-1504414Y18937142D02*
X-1447271Y18908571D01*
X-1447271Y18908571D02*
X-1418700Y18880000D01*
X-1418700Y18880000D02*
X-1390128Y18822857D01*
X-1390128Y18822857D02*
X-1390128Y18680000D01*
X-1390128Y18680000D02*
X-1418700Y18622857D01*
X-1418700Y18622857D02*
X-1447271Y18594285D01*
X15228Y20794285D02*
X43800Y20765713D01*
X43800Y20765713D02*
X72371Y20679999D01*
X72371Y20679999D02*
X72371Y20622856D01*
X72371Y20622856D02*
X43800Y20537142D01*
X43800Y20537142D02*
X-13342Y20479999D01*
X-13342Y20479999D02*
X-70485Y20451428D01*
X-70485Y20451428D02*
X-184771Y20422856D01*
X-184771Y20422856D02*
X-270485Y20422856D01*
X-270485Y20422856D02*
X-384771Y20451428D01*
X-384771Y20451428D02*
X-441914Y20479999D01*
X-441914Y20479999D02*
X-499057Y20537142D01*
X-499057Y20537142D02*
X-527628Y20622856D01*
X-527628Y20622856D02*
X-527628Y20679999D01*
X-527628Y20679999D02*
X-499057Y20765713D01*
X-499057Y20765713D02*
X-470485Y20794285D01*
X72371Y21365713D02*
X72371Y21022856D01*
X72371Y21194285D02*
X-527628Y21194285D01*
X-527628Y21194285D02*
X-441914Y21137142D01*
X-441914Y21137142D02*
X-384771Y21079999D01*
X-384771Y21079999D02*
X-356200Y21022856D01*
X72371Y21937142D02*
X72371Y21594285D01*
X72371Y21765714D02*
X-527628Y21765714D01*
X-527628Y21765714D02*
X-441914Y21708571D01*
X-441914Y21708571D02*
X-384771Y21651428D01*
X-384771Y21651428D02*
X-356200Y21594285D01*
X19202371Y-12343214D02*
X18916657Y-12543214D01*
X19202371Y-12686071D02*
X18602371Y-12686071D01*
X18602371Y-12686071D02*
X18602371Y-12457500D01*
X18602371Y-12457500D02*
X18630942Y-12400357D01*
X18630942Y-12400357D02*
X18659514Y-12371786D01*
X18659514Y-12371786D02*
X18716657Y-12343214D01*
X18716657Y-12343214D02*
X18802371Y-12343214D01*
X18802371Y-12343214D02*
X18859514Y-12371786D01*
X18859514Y-12371786D02*
X18888085Y-12400357D01*
X18888085Y-12400357D02*
X18916657Y-12457500D01*
X18916657Y-12457500D02*
X18916657Y-12686071D01*
X18659514Y-12114643D02*
X18630942Y-12086071D01*
X18630942Y-12086071D02*
X18602371Y-12028929D01*
X18602371Y-12028929D02*
X18602371Y-11886071D01*
X18602371Y-11886071D02*
X18630942Y-11828929D01*
X18630942Y-11828929D02*
X18659514Y-11800357D01*
X18659514Y-11800357D02*
X18716657Y-11771786D01*
X18716657Y-11771786D02*
X18773800Y-11771786D01*
X18773800Y-11771786D02*
X18859514Y-11800357D01*
X18859514Y-11800357D02*
X19202371Y-12143214D01*
X19202371Y-12143214D02*
X19202371Y-11771786D01*
X18602371Y-11400357D02*
X18602371Y-11343214D01*
X18602371Y-11343214D02*
X18630942Y-11286071D01*
X18630942Y-11286071D02*
X18659514Y-11257500D01*
X18659514Y-11257500D02*
X18716657Y-11228928D01*
X18716657Y-11228928D02*
X18830942Y-11200357D01*
X18830942Y-11200357D02*
X18973800Y-11200357D01*
X18973800Y-11200357D02*
X19088085Y-11228928D01*
X19088085Y-11228928D02*
X19145228Y-11257500D01*
X19145228Y-11257500D02*
X19173800Y-11286071D01*
X19173800Y-11286071D02*
X19202371Y-11343214D01*
X19202371Y-11343214D02*
X19202371Y-11400357D01*
X19202371Y-11400357D02*
X19173800Y-11457500D01*
X19173800Y-11457500D02*
X19145228Y-11486071D01*
X19145228Y-11486071D02*
X19088085Y-11514642D01*
X19088085Y-11514642D02*
X18973800Y-11543214D01*
X18973800Y-11543214D02*
X18830942Y-11543214D01*
X18830942Y-11543214D02*
X18716657Y-11514642D01*
X18716657Y-11514642D02*
X18659514Y-11486071D01*
X18659514Y-11486071D02*
X18630942Y-11457500D01*
X18630942Y-11457500D02*
X18602371Y-11400357D01*
X-3425714Y2884771D02*
X-3454286Y2856200D01*
X-3454286Y2856200D02*
X-3540000Y2827628D01*
X-3540000Y2827628D02*
X-3597143Y2827628D01*
X-3597143Y2827628D02*
X-3682857Y2856200D01*
X-3682857Y2856200D02*
X-3740000Y2913342D01*
X-3740000Y2913342D02*
X-3768571Y2970485D01*
X-3768571Y2970485D02*
X-3797143Y3084771D01*
X-3797143Y3084771D02*
X-3797143Y3170485D01*
X-3797143Y3170485D02*
X-3768571Y3284771D01*
X-3768571Y3284771D02*
X-3740000Y3341914D01*
X-3740000Y3341914D02*
X-3682857Y3399057D01*
X-3682857Y3399057D02*
X-3597143Y3427628D01*
X-3597143Y3427628D02*
X-3540000Y3427628D01*
X-3540000Y3427628D02*
X-3454286Y3399057D01*
X-3454286Y3399057D02*
X-3425714Y3370485D01*
X-3197143Y3370485D02*
X-3168571Y3399057D01*
X-3168571Y3399057D02*
X-3111429Y3427628D01*
X-3111429Y3427628D02*
X-2968571Y3427628D01*
X-2968571Y3427628D02*
X-2911429Y3399057D01*
X-2911429Y3399057D02*
X-2882857Y3370485D01*
X-2882857Y3370485D02*
X-2854286Y3313342D01*
X-2854286Y3313342D02*
X-2854286Y3256200D01*
X-2854286Y3256200D02*
X-2882857Y3170485D01*
X-2882857Y3170485D02*
X-3225714Y2827628D01*
X-3225714Y2827628D02*
X-2854286Y2827628D01*
X-2340000Y3427628D02*
X-2454285Y3427628D01*
X-2454285Y3427628D02*
X-2511428Y3399057D01*
X-2511428Y3399057D02*
X-2540000Y3370485D01*
X-2540000Y3370485D02*
X-2597142Y3284771D01*
X-2597142Y3284771D02*
X-2625714Y3170485D01*
X-2625714Y3170485D02*
X-2625714Y2941914D01*
X-2625714Y2941914D02*
X-2597142Y2884771D01*
X-2597142Y2884771D02*
X-2568571Y2856200D01*
X-2568571Y2856200D02*
X-2511428Y2827628D01*
X-2511428Y2827628D02*
X-2397142Y2827628D01*
X-2397142Y2827628D02*
X-2340000Y2856200D01*
X-2340000Y2856200D02*
X-2311428Y2884771D01*
X-2311428Y2884771D02*
X-2282857Y2941914D01*
X-2282857Y2941914D02*
X-2282857Y3084771D01*
X-2282857Y3084771D02*
X-2311428Y3141914D01*
X-2311428Y3141914D02*
X-2340000Y3170485D01*
X-2340000Y3170485D02*
X-2397142Y3199057D01*
X-2397142Y3199057D02*
X-2511428Y3199057D01*
X-2511428Y3199057D02*
X-2568571Y3170485D01*
X-2568571Y3170485D02*
X-2597142Y3141914D01*
X-2597142Y3141914D02*
X-2625714Y3084771D01*
X-927628Y20194285D02*
X-1213342Y19994285D01*
X-927628Y19851428D02*
X-1527628Y19851428D01*
X-1527628Y19851428D02*
X-1527628Y20079999D01*
X-1527628Y20079999D02*
X-1499057Y20137142D01*
X-1499057Y20137142D02*
X-1470485Y20165713D01*
X-1470485Y20165713D02*
X-1413342Y20194285D01*
X-1413342Y20194285D02*
X-1327628Y20194285D01*
X-1327628Y20194285D02*
X-1270485Y20165713D01*
X-1270485Y20165713D02*
X-1241914Y20137142D01*
X-1241914Y20137142D02*
X-1213342Y20079999D01*
X-1213342Y20079999D02*
X-1213342Y19851428D01*
X-1527628Y20394285D02*
X-1527628Y20765713D01*
X-1527628Y20765713D02*
X-1299057Y20565713D01*
X-1299057Y20565713D02*
X-1299057Y20651428D01*
X-1299057Y20651428D02*
X-1270485Y20708571D01*
X-1270485Y20708571D02*
X-1241914Y20737142D01*
X-1241914Y20737142D02*
X-1184771Y20765713D01*
X-1184771Y20765713D02*
X-1041914Y20765713D01*
X-1041914Y20765713D02*
X-984771Y20737142D01*
X-984771Y20737142D02*
X-956200Y20708571D01*
X-956200Y20708571D02*
X-927628Y20651428D01*
X-927628Y20651428D02*
X-927628Y20479999D01*
X-927628Y20479999D02*
X-956200Y20422856D01*
X-956200Y20422856D02*
X-984771Y20394285D01*
X-1470485Y20994285D02*
X-1499057Y21022857D01*
X-1499057Y21022857D02*
X-1527628Y21080000D01*
X-1527628Y21080000D02*
X-1527628Y21222857D01*
X-1527628Y21222857D02*
X-1499057Y21280000D01*
X-1499057Y21280000D02*
X-1470485Y21308571D01*
X-1470485Y21308571D02*
X-1413342Y21337142D01*
X-1413342Y21337142D02*
X-1356200Y21337142D01*
X-1356200Y21337142D02*
X-1270485Y21308571D01*
X-1270485Y21308571D02*
X-927628Y20965714D01*
X-927628Y20965714D02*
X-927628Y21337142D01*
X-7745064Y-11779561D02*
X-8030778Y-11979561D01*
X-7745064Y-12122418D02*
X-8345064Y-12122418D01*
X-8345064Y-12122418D02*
X-8345064Y-11893847D01*
X-8345064Y-11893847D02*
X-8316493Y-11836704D01*
X-8316493Y-11836704D02*
X-8287921Y-11808133D01*
X-8287921Y-11808133D02*
X-8230778Y-11779561D01*
X-8230778Y-11779561D02*
X-8145064Y-11779561D01*
X-8145064Y-11779561D02*
X-8087921Y-11808133D01*
X-8087921Y-11808133D02*
X-8059350Y-11836704D01*
X-8059350Y-11836704D02*
X-8030778Y-11893847D01*
X-8030778Y-11893847D02*
X-8030778Y-12122418D01*
X-8287921Y-11550990D02*
X-8316493Y-11522418D01*
X-8316493Y-11522418D02*
X-8345064Y-11465276D01*
X-8345064Y-11465276D02*
X-8345064Y-11322418D01*
X-8345064Y-11322418D02*
X-8316493Y-11265276D01*
X-8316493Y-11265276D02*
X-8287921Y-11236704D01*
X-8287921Y-11236704D02*
X-8230778Y-11208133D01*
X-8230778Y-11208133D02*
X-8173636Y-11208133D01*
X-8173636Y-11208133D02*
X-8087921Y-11236704D01*
X-8087921Y-11236704D02*
X-7745064Y-11579561D01*
X-7745064Y-11579561D02*
X-7745064Y-11208133D01*
X-7745064Y-10922418D02*
X-7745064Y-10808132D01*
X-7745064Y-10808132D02*
X-7773636Y-10750989D01*
X-7773636Y-10750989D02*
X-7802207Y-10722418D01*
X-7802207Y-10722418D02*
X-7887921Y-10665275D01*
X-7887921Y-10665275D02*
X-8002207Y-10636704D01*
X-8002207Y-10636704D02*
X-8230778Y-10636704D01*
X-8230778Y-10636704D02*
X-8287921Y-10665275D01*
X-8287921Y-10665275D02*
X-8316493Y-10693847D01*
X-8316493Y-10693847D02*
X-8345064Y-10750989D01*
X-8345064Y-10750989D02*
X-8345064Y-10865275D01*
X-8345064Y-10865275D02*
X-8316493Y-10922418D01*
X-8316493Y-10922418D02*
X-8287921Y-10950989D01*
X-8287921Y-10950989D02*
X-8230778Y-10979561D01*
X-8230778Y-10979561D02*
X-8087921Y-10979561D01*
X-8087921Y-10979561D02*
X-8030778Y-10950989D01*
X-8030778Y-10950989D02*
X-8002207Y-10922418D01*
X-8002207Y-10922418D02*
X-7973636Y-10865275D01*
X-7973636Y-10865275D02*
X-7973636Y-10750989D01*
X-7973636Y-10750989D02*
X-8002207Y-10693847D01*
X-8002207Y-10693847D02*
X-8030778Y-10665275D01*
X-8030778Y-10665275D02*
X-8087921Y-10636704D01*
X-2948214Y15464771D02*
X-2976786Y15436200D01*
X-2976786Y15436200D02*
X-3062500Y15407628D01*
X-3062500Y15407628D02*
X-3119643Y15407628D01*
X-3119643Y15407628D02*
X-3205357Y15436200D01*
X-3205357Y15436200D02*
X-3262500Y15493342D01*
X-3262500Y15493342D02*
X-3291071Y15550485D01*
X-3291071Y15550485D02*
X-3319643Y15664771D01*
X-3319643Y15664771D02*
X-3319643Y15750485D01*
X-3319643Y15750485D02*
X-3291071Y15864771D01*
X-3291071Y15864771D02*
X-3262500Y15921914D01*
X-3262500Y15921914D02*
X-3205357Y15979057D01*
X-3205357Y15979057D02*
X-3119643Y16007628D01*
X-3119643Y16007628D02*
X-3062500Y16007628D01*
X-3062500Y16007628D02*
X-2976786Y15979057D01*
X-2976786Y15979057D02*
X-2948214Y15950485D01*
X-2433929Y15807628D02*
X-2433929Y15407628D01*
X-2576786Y16036200D02*
X-2719643Y15607628D01*
X-2719643Y15607628D02*
X-2348214Y15607628D01*
X-1862500Y15807628D02*
X-1862500Y15407628D01*
X-2005357Y16036200D02*
X-2148214Y15607628D01*
X-2148214Y15607628D02*
X-1776785Y15607628D01*
X10704285Y12707628D02*
X10504285Y12993342D01*
X10361428Y12707628D02*
X10361428Y13307628D01*
X10361428Y13307628D02*
X10589999Y13307628D01*
X10589999Y13307628D02*
X10647142Y13279057D01*
X10647142Y13279057D02*
X10675713Y13250485D01*
X10675713Y13250485D02*
X10704285Y13193342D01*
X10704285Y13193342D02*
X10704285Y13107628D01*
X10704285Y13107628D02*
X10675713Y13050485D01*
X10675713Y13050485D02*
X10647142Y13021914D01*
X10647142Y13021914D02*
X10589999Y12993342D01*
X10589999Y12993342D02*
X10361428Y12993342D01*
X11275713Y12707628D02*
X10932856Y12707628D01*
X11104285Y12707628D02*
X11104285Y13307628D01*
X11104285Y13307628D02*
X11047142Y13221914D01*
X11047142Y13221914D02*
X10989999Y13164771D01*
X10989999Y13164771D02*
X10932856Y13136200D01*
X11618571Y13050485D02*
X11561428Y13079057D01*
X11561428Y13079057D02*
X11532857Y13107628D01*
X11532857Y13107628D02*
X11504285Y13164771D01*
X11504285Y13164771D02*
X11504285Y13193342D01*
X11504285Y13193342D02*
X11532857Y13250485D01*
X11532857Y13250485D02*
X11561428Y13279057D01*
X11561428Y13279057D02*
X11618571Y13307628D01*
X11618571Y13307628D02*
X11732857Y13307628D01*
X11732857Y13307628D02*
X11790000Y13279057D01*
X11790000Y13279057D02*
X11818571Y13250485D01*
X11818571Y13250485D02*
X11847142Y13193342D01*
X11847142Y13193342D02*
X11847142Y13164771D01*
X11847142Y13164771D02*
X11818571Y13107628D01*
X11818571Y13107628D02*
X11790000Y13079057D01*
X11790000Y13079057D02*
X11732857Y13050485D01*
X11732857Y13050485D02*
X11618571Y13050485D01*
X11618571Y13050485D02*
X11561428Y13021914D01*
X11561428Y13021914D02*
X11532857Y12993342D01*
X11532857Y12993342D02*
X11504285Y12936200D01*
X11504285Y12936200D02*
X11504285Y12821914D01*
X11504285Y12821914D02*
X11532857Y12764771D01*
X11532857Y12764771D02*
X11561428Y12736200D01*
X11561428Y12736200D02*
X11618571Y12707628D01*
X11618571Y12707628D02*
X11732857Y12707628D01*
X11732857Y12707628D02*
X11790000Y12736200D01*
X11790000Y12736200D02*
X11818571Y12764771D01*
X11818571Y12764771D02*
X11847142Y12821914D01*
X11847142Y12821914D02*
X11847142Y12936200D01*
X11847142Y12936200D02*
X11818571Y12993342D01*
X11818571Y12993342D02*
X11790000Y13021914D01*
X11790000Y13021914D02*
X11732857Y13050485D01*
X19432371Y-16243214D02*
X19146657Y-16443214D01*
X19432371Y-16586071D02*
X18832371Y-16586071D01*
X18832371Y-16586071D02*
X18832371Y-16357500D01*
X18832371Y-16357500D02*
X18860942Y-16300357D01*
X18860942Y-16300357D02*
X18889514Y-16271786D01*
X18889514Y-16271786D02*
X18946657Y-16243214D01*
X18946657Y-16243214D02*
X19032371Y-16243214D01*
X19032371Y-16243214D02*
X19089514Y-16271786D01*
X19089514Y-16271786D02*
X19118085Y-16300357D01*
X19118085Y-16300357D02*
X19146657Y-16357500D01*
X19146657Y-16357500D02*
X19146657Y-16586071D01*
X18889514Y-16014643D02*
X18860942Y-15986071D01*
X18860942Y-15986071D02*
X18832371Y-15928929D01*
X18832371Y-15928929D02*
X18832371Y-15786071D01*
X18832371Y-15786071D02*
X18860942Y-15728929D01*
X18860942Y-15728929D02*
X18889514Y-15700357D01*
X18889514Y-15700357D02*
X18946657Y-15671786D01*
X18946657Y-15671786D02*
X19003800Y-15671786D01*
X19003800Y-15671786D02*
X19089514Y-15700357D01*
X19089514Y-15700357D02*
X19432371Y-16043214D01*
X19432371Y-16043214D02*
X19432371Y-15671786D01*
X19432371Y-15100357D02*
X19432371Y-15443214D01*
X19432371Y-15271785D02*
X18832371Y-15271785D01*
X18832371Y-15271785D02*
X18918085Y-15328928D01*
X18918085Y-15328928D02*
X18975228Y-15386071D01*
X18975228Y-15386071D02*
X19003800Y-15443214D01*
X5372471Y-21962856D02*
X5858185Y-21962856D01*
X5858185Y-21962856D02*
X5915328Y-21934285D01*
X5915328Y-21934285D02*
X5943900Y-21905714D01*
X5943900Y-21905714D02*
X5972471Y-21848571D01*
X5972471Y-21848571D02*
X5972471Y-21734285D01*
X5972471Y-21734285D02*
X5943900Y-21677142D01*
X5943900Y-21677142D02*
X5915328Y-21648571D01*
X5915328Y-21648571D02*
X5858185Y-21619999D01*
X5858185Y-21619999D02*
X5372471Y-21619999D01*
X5943900Y-21362857D02*
X5972471Y-21277143D01*
X5972471Y-21277143D02*
X5972471Y-21134285D01*
X5972471Y-21134285D02*
X5943900Y-21077143D01*
X5943900Y-21077143D02*
X5915328Y-21048571D01*
X5915328Y-21048571D02*
X5858185Y-21020000D01*
X5858185Y-21020000D02*
X5801042Y-21020000D01*
X5801042Y-21020000D02*
X5743900Y-21048571D01*
X5743900Y-21048571D02*
X5715328Y-21077143D01*
X5715328Y-21077143D02*
X5686757Y-21134285D01*
X5686757Y-21134285D02*
X5658185Y-21248571D01*
X5658185Y-21248571D02*
X5629614Y-21305714D01*
X5629614Y-21305714D02*
X5601042Y-21334285D01*
X5601042Y-21334285D02*
X5543900Y-21362857D01*
X5543900Y-21362857D02*
X5486757Y-21362857D01*
X5486757Y-21362857D02*
X5429614Y-21334285D01*
X5429614Y-21334285D02*
X5401042Y-21305714D01*
X5401042Y-21305714D02*
X5372471Y-21248571D01*
X5372471Y-21248571D02*
X5372471Y-21105714D01*
X5372471Y-21105714D02*
X5401042Y-21020000D01*
X5658185Y-20562856D02*
X5686757Y-20477142D01*
X5686757Y-20477142D02*
X5715328Y-20448571D01*
X5715328Y-20448571D02*
X5772471Y-20419999D01*
X5772471Y-20419999D02*
X5858185Y-20419999D01*
X5858185Y-20419999D02*
X5915328Y-20448571D01*
X5915328Y-20448571D02*
X5943900Y-20477142D01*
X5943900Y-20477142D02*
X5972471Y-20534285D01*
X5972471Y-20534285D02*
X5972471Y-20762856D01*
X5972471Y-20762856D02*
X5372471Y-20762856D01*
X5372471Y-20762856D02*
X5372471Y-20562856D01*
X5372471Y-20562856D02*
X5401042Y-20505714D01*
X5401042Y-20505714D02*
X5429614Y-20477142D01*
X5429614Y-20477142D02*
X5486757Y-20448571D01*
X5486757Y-20448571D02*
X5543900Y-20448571D01*
X5543900Y-20448571D02*
X5601042Y-20477142D01*
X5601042Y-20477142D02*
X5629614Y-20505714D01*
X5629614Y-20505714D02*
X5658185Y-20562856D01*
X5658185Y-20562856D02*
X5658185Y-20762856D01*
X5429614Y-20191428D02*
X5401042Y-20162856D01*
X5401042Y-20162856D02*
X5372471Y-20105714D01*
X5372471Y-20105714D02*
X5372471Y-19962856D01*
X5372471Y-19962856D02*
X5401042Y-19905714D01*
X5401042Y-19905714D02*
X5429614Y-19877142D01*
X5429614Y-19877142D02*
X5486757Y-19848571D01*
X5486757Y-19848571D02*
X5543900Y-19848571D01*
X5543900Y-19848571D02*
X5629614Y-19877142D01*
X5629614Y-19877142D02*
X5972471Y-20219999D01*
X5972471Y-20219999D02*
X5972471Y-19848571D01*
X9372371Y-9652794D02*
X9086657Y-9852794D01*
X9372371Y-9995651D02*
X8772371Y-9995651D01*
X8772371Y-9995651D02*
X8772371Y-9767080D01*
X8772371Y-9767080D02*
X8800942Y-9709937D01*
X8800942Y-9709937D02*
X8829514Y-9681366D01*
X8829514Y-9681366D02*
X8886657Y-9652794D01*
X8886657Y-9652794D02*
X8972371Y-9652794D01*
X8972371Y-9652794D02*
X9029514Y-9681366D01*
X9029514Y-9681366D02*
X9058085Y-9709937D01*
X9058085Y-9709937D02*
X9086657Y-9767080D01*
X9086657Y-9767080D02*
X9086657Y-9995651D01*
X8829514Y-9424223D02*
X8800942Y-9395651D01*
X8800942Y-9395651D02*
X8772371Y-9338509D01*
X8772371Y-9338509D02*
X8772371Y-9195651D01*
X8772371Y-9195651D02*
X8800942Y-9138509D01*
X8800942Y-9138509D02*
X8829514Y-9109937D01*
X8829514Y-9109937D02*
X8886657Y-9081366D01*
X8886657Y-9081366D02*
X8943800Y-9081366D01*
X8943800Y-9081366D02*
X9029514Y-9109937D01*
X9029514Y-9109937D02*
X9372371Y-9452794D01*
X9372371Y-9452794D02*
X9372371Y-9081366D01*
X8772371Y-8538508D02*
X8772371Y-8824222D01*
X8772371Y-8824222D02*
X9058085Y-8852794D01*
X9058085Y-8852794D02*
X9029514Y-8824222D01*
X9029514Y-8824222D02*
X9000942Y-8767080D01*
X9000942Y-8767080D02*
X9000942Y-8624222D01*
X9000942Y-8624222D02*
X9029514Y-8567080D01*
X9029514Y-8567080D02*
X9058085Y-8538508D01*
X9058085Y-8538508D02*
X9115228Y-8509937D01*
X9115228Y-8509937D02*
X9258085Y-8509937D01*
X9258085Y-8509937D02*
X9315228Y-8538508D01*
X9315228Y-8538508D02*
X9343800Y-8567080D01*
X9343800Y-8567080D02*
X9372371Y-8624222D01*
X9372371Y-8624222D02*
X9372371Y-8767080D01*
X9372371Y-8767080D02*
X9343800Y-8824222D01*
X9343800Y-8824222D02*
X9315228Y-8852794D01*
X-3773714Y-16074871D02*
X-3973714Y-15789157D01*
X-4116571Y-16074871D02*
X-4116571Y-15474871D01*
X-4116571Y-15474871D02*
X-3888000Y-15474871D01*
X-3888000Y-15474871D02*
X-3830857Y-15503442D01*
X-3830857Y-15503442D02*
X-3802286Y-15532014D01*
X-3802286Y-15532014D02*
X-3773714Y-15589157D01*
X-3773714Y-15589157D02*
X-3773714Y-15674871D01*
X-3773714Y-15674871D02*
X-3802286Y-15732014D01*
X-3802286Y-15732014D02*
X-3830857Y-15760585D01*
X-3830857Y-15760585D02*
X-3888000Y-15789157D01*
X-3888000Y-15789157D02*
X-4116571Y-15789157D01*
X-3202286Y-16074871D02*
X-3545143Y-16074871D01*
X-3373714Y-16074871D02*
X-3373714Y-15474871D01*
X-3373714Y-15474871D02*
X-3430857Y-15560585D01*
X-3430857Y-15560585D02*
X-3488000Y-15617728D01*
X-3488000Y-15617728D02*
X-3545143Y-15646300D01*
X-2659428Y-15474871D02*
X-2945142Y-15474871D01*
X-2945142Y-15474871D02*
X-2973714Y-15760585D01*
X-2973714Y-15760585D02*
X-2945142Y-15732014D01*
X-2945142Y-15732014D02*
X-2888000Y-15703442D01*
X-2888000Y-15703442D02*
X-2745142Y-15703442D01*
X-2745142Y-15703442D02*
X-2688000Y-15732014D01*
X-2688000Y-15732014D02*
X-2659428Y-15760585D01*
X-2659428Y-15760585D02*
X-2630857Y-15817728D01*
X-2630857Y-15817728D02*
X-2630857Y-15960585D01*
X-2630857Y-15960585D02*
X-2659428Y-16017728D01*
X-2659428Y-16017728D02*
X-2688000Y-16046300D01*
X-2688000Y-16046300D02*
X-2745142Y-16074871D01*
X-2745142Y-16074871D02*
X-2888000Y-16074871D01*
X-2888000Y-16074871D02*
X-2945142Y-16046300D01*
X-2945142Y-16046300D02*
X-2973714Y-16017728D01*
X69962Y-4075738D02*
X98534Y-4104310D01*
X98534Y-4104310D02*
X127105Y-4190024D01*
X127105Y-4190024D02*
X127105Y-4247167D01*
X127105Y-4247167D02*
X98534Y-4332881D01*
X98534Y-4332881D02*
X41391Y-4390024D01*
X41391Y-4390024D02*
X-15751Y-4418595D01*
X-15751Y-4418595D02*
X-130037Y-4447167D01*
X-130037Y-4447167D02*
X-215751Y-4447167D01*
X-215751Y-4447167D02*
X-330037Y-4418595D01*
X-330037Y-4418595D02*
X-387180Y-4390024D01*
X-387180Y-4390024D02*
X-444323Y-4332881D01*
X-444323Y-4332881D02*
X-472894Y-4247167D01*
X-472894Y-4247167D02*
X-472894Y-4190024D01*
X-472894Y-4190024D02*
X-444323Y-4104310D01*
X-444323Y-4104310D02*
X-415751Y-4075738D01*
X-472894Y-3532881D02*
X-472894Y-3818595D01*
X-472894Y-3818595D02*
X-187180Y-3847167D01*
X-187180Y-3847167D02*
X-215751Y-3818595D01*
X-215751Y-3818595D02*
X-244323Y-3761453D01*
X-244323Y-3761453D02*
X-244323Y-3618595D01*
X-244323Y-3618595D02*
X-215751Y-3561453D01*
X-215751Y-3561453D02*
X-187180Y-3532881D01*
X-187180Y-3532881D02*
X-130037Y-3504310D01*
X-130037Y-3504310D02*
X12819Y-3504310D01*
X12819Y-3504310D02*
X69962Y-3532881D01*
X69962Y-3532881D02*
X98534Y-3561453D01*
X98534Y-3561453D02*
X127105Y-3618595D01*
X127105Y-3618595D02*
X127105Y-3761453D01*
X127105Y-3761453D02*
X98534Y-3818595D01*
X98534Y-3818595D02*
X69962Y-3847167D01*
X-472894Y-3304309D02*
X-472894Y-2904309D01*
X-472894Y-2904309D02*
X127105Y-3161452D01*
X-17785714Y16707628D02*
X-17985714Y16993342D01*
X-18128571Y16707628D02*
X-18128571Y17307628D01*
X-18128571Y17307628D02*
X-17900000Y17307628D01*
X-17900000Y17307628D02*
X-17842857Y17279057D01*
X-17842857Y17279057D02*
X-17814286Y17250485D01*
X-17814286Y17250485D02*
X-17785714Y17193342D01*
X-17785714Y17193342D02*
X-17785714Y17107628D01*
X-17785714Y17107628D02*
X-17814286Y17050485D01*
X-17814286Y17050485D02*
X-17842857Y17021914D01*
X-17842857Y17021914D02*
X-17900000Y16993342D01*
X-17900000Y16993342D02*
X-18128571Y16993342D01*
X-17214286Y16707628D02*
X-17557143Y16707628D01*
X-17385714Y16707628D02*
X-17385714Y17307628D01*
X-17385714Y17307628D02*
X-17442857Y17221914D01*
X-17442857Y17221914D02*
X-17500000Y17164771D01*
X-17500000Y17164771D02*
X-17557143Y17136200D01*
X-16842857Y17307628D02*
X-16785714Y17307628D01*
X-16785714Y17307628D02*
X-16728571Y17279057D01*
X-16728571Y17279057D02*
X-16700000Y17250485D01*
X-16700000Y17250485D02*
X-16671428Y17193342D01*
X-16671428Y17193342D02*
X-16642857Y17079057D01*
X-16642857Y17079057D02*
X-16642857Y16936200D01*
X-16642857Y16936200D02*
X-16671428Y16821914D01*
X-16671428Y16821914D02*
X-16700000Y16764771D01*
X-16700000Y16764771D02*
X-16728571Y16736200D01*
X-16728571Y16736200D02*
X-16785714Y16707628D01*
X-16785714Y16707628D02*
X-16842857Y16707628D01*
X-16842857Y16707628D02*
X-16900000Y16736200D01*
X-16900000Y16736200D02*
X-16928571Y16764771D01*
X-16928571Y16764771D02*
X-16957142Y16821914D01*
X-16957142Y16821914D02*
X-16985714Y16936200D01*
X-16985714Y16936200D02*
X-16985714Y17079057D01*
X-16985714Y17079057D02*
X-16957142Y17193342D01*
X-16957142Y17193342D02*
X-16928571Y17250485D01*
X-16928571Y17250485D02*
X-16900000Y17279057D01*
X-16900000Y17279057D02*
X-16842857Y17307628D01*
X-22699999Y-12510228D02*
X-22728571Y-12538800D01*
X-22728571Y-12538800D02*
X-22814285Y-12567371D01*
X-22814285Y-12567371D02*
X-22871428Y-12567371D01*
X-22871428Y-12567371D02*
X-22957142Y-12538800D01*
X-22957142Y-12538800D02*
X-23014285Y-12481657D01*
X-23014285Y-12481657D02*
X-23042856Y-12424514D01*
X-23042856Y-12424514D02*
X-23071428Y-12310228D01*
X-23071428Y-12310228D02*
X-23071428Y-12224514D01*
X-23071428Y-12224514D02*
X-23042856Y-12110228D01*
X-23042856Y-12110228D02*
X-23014285Y-12053085D01*
X-23014285Y-12053085D02*
X-22957142Y-11995942D01*
X-22957142Y-11995942D02*
X-22871428Y-11967371D01*
X-22871428Y-11967371D02*
X-22814285Y-11967371D01*
X-22814285Y-11967371D02*
X-22728571Y-11995942D01*
X-22728571Y-11995942D02*
X-22699999Y-12024514D01*
X-22185714Y-11967371D02*
X-22299999Y-11967371D01*
X-22299999Y-11967371D02*
X-22357142Y-11995942D01*
X-22357142Y-11995942D02*
X-22385714Y-12024514D01*
X-22385714Y-12024514D02*
X-22442856Y-12110228D01*
X-22442856Y-12110228D02*
X-22471428Y-12224514D01*
X-22471428Y-12224514D02*
X-22471428Y-12453085D01*
X-22471428Y-12453085D02*
X-22442856Y-12510228D01*
X-22442856Y-12510228D02*
X-22414285Y-12538800D01*
X-22414285Y-12538800D02*
X-22357142Y-12567371D01*
X-22357142Y-12567371D02*
X-22242856Y-12567371D01*
X-22242856Y-12567371D02*
X-22185714Y-12538800D01*
X-22185714Y-12538800D02*
X-22157142Y-12510228D01*
X-22157142Y-12510228D02*
X-22128571Y-12453085D01*
X-22128571Y-12453085D02*
X-22128571Y-12310228D01*
X-22128571Y-12310228D02*
X-22157142Y-12253085D01*
X-22157142Y-12253085D02*
X-22185714Y-12224514D01*
X-22185714Y-12224514D02*
X-22242856Y-12195942D01*
X-22242856Y-12195942D02*
X-22357142Y-12195942D01*
X-22357142Y-12195942D02*
X-22414285Y-12224514D01*
X-22414285Y-12224514D02*
X-22442856Y-12253085D01*
X-22442856Y-12253085D02*
X-22471428Y-12310228D01*
D10*
%TO.C,R5*%
X-120000Y7223641D02*
X-120000Y6916359D01*
X-880000Y7223641D02*
X-880000Y6916359D01*
D16*
%TO.C,U16*%
X-4360782Y6721207D02*
X-4360782Y4816207D01*
X-4360782Y4816207D02*
X-3360022Y4816207D01*
X-2410021Y6721207D02*
X-3161943Y6721207D01*
X-2211942Y4816207D02*
X-1211182Y4816207D01*
X-1211182Y4816207D02*
X-1211182Y6721207D01*
D10*
%TO.C,D4*%
X790000Y-12420000D02*
X2750000Y-12420000D01*
X790000Y-13620000D02*
X2750000Y-13620000D01*
X2750000Y-13620000D02*
X2750000Y-12420000D01*
D17*
%TO.C,SW7*%
X20070000Y15020000D02*
X20070000Y14360000D01*
X20070000Y11940000D02*
X20070000Y12600000D01*
X24130000Y15020000D02*
X20070000Y15020000D01*
X24130000Y11940000D02*
X20070000Y11940000D01*
D18*
X23000000Y13480000D02*
G75*
G02*
X21200000Y13480000I-900000J0D01*
G01*
X21200000Y13480000D02*
G75*
G02*
X23000000Y13480000I900000J0D01*
G01*
D10*
%TO.C,C15*%
X-17756875Y11137789D02*
X-17756875Y11353461D01*
X-17036875Y11137789D02*
X-17036875Y11353461D01*
%TO.C,D6*%
X-190000Y-10960000D02*
X1770000Y-10960000D01*
X-190000Y-12160000D02*
X1770000Y-12160000D01*
X1770000Y-12160000D02*
X1770000Y-10960000D01*
D16*
%TO.C,U15*%
X-4174800Y1232500D02*
X-4174800Y-672500D01*
X-4174800Y-672500D02*
X-3174040Y-672500D01*
X-2224039Y1232500D02*
X-2975961Y1232500D01*
X-2025960Y-672500D02*
X-1025200Y-672500D01*
X-1025200Y-672500D02*
X-1025200Y1232500D01*
D10*
%TO.C,R12*%
X1874758Y20402500D02*
X1400242Y20402500D01*
X1874758Y19357500D02*
X1400242Y19357500D01*
%TO.C,R13*%
X14183641Y-15840000D02*
X13876359Y-15840000D01*
X14183641Y-16600000D02*
X13876359Y-16600000D01*
%TO.C,C21*%
X130000Y-6452164D02*
X130000Y-6667836D01*
X850000Y-6452164D02*
X850000Y-6667836D01*
%TO.C,C4*%
X-5887836Y3540000D02*
X-5672164Y3540000D01*
X-5887836Y2820000D02*
X-5672164Y2820000D01*
%TO.C,R24*%
X6820000Y-9430721D02*
X6820000Y-9123439D01*
X7580000Y-9430721D02*
X7580000Y-9123439D01*
%TO.C,C51*%
X-9540000Y-8579420D02*
X-9540000Y-8860580D01*
X-8520000Y-8579420D02*
X-8520000Y-8860580D01*
D17*
%TO.C,U4*%
X3357500Y16817500D02*
X3357500Y18517500D01*
X5367500Y18517500D02*
X4407500Y18517500D01*
X6417500Y16817500D02*
X6417500Y18517500D01*
D12*
X3387500Y16527500D02*
G75*
G02*
X3087500Y16527500I-150000J0D01*
G01*
X3087500Y16527500D02*
G75*
G02*
X3387500Y16527500I150000J0D01*
G01*
D10*
%TO.C,R11*%
X6646459Y-15240000D02*
X6953741Y-15240000D01*
X6646459Y-16000000D02*
X6953741Y-16000000D01*
%TO.C,R14*%
X340000Y-15966359D02*
X340000Y-16273641D01*
X1100000Y-15966359D02*
X1100000Y-16273641D01*
%TO.C,R35*%
X-19156875Y11067742D02*
X-19156875Y11542258D01*
X-18111875Y11067742D02*
X-18111875Y11542258D01*
%TO.C,R16*%
X15163641Y12460000D02*
X14856359Y12460000D01*
X15163641Y11700000D02*
X14856359Y11700000D01*
%TO.C,C10*%
X-21200000Y-10857836D02*
X-21200000Y-10642164D01*
X-20480000Y-10857836D02*
X-20480000Y-10642164D01*
%TO.C,C17*%
X-13910000Y-14058748D02*
X-13910000Y-15481252D01*
X-12090000Y-14058748D02*
X-12090000Y-15481252D01*
D17*
%TO.C,D7*%
X-19490000Y15170000D02*
X-18530000Y15170000D01*
X-19490000Y14410000D02*
X-18530000Y14410000D01*
X-19140000Y15170000D02*
X-19140000Y14420000D01*
D10*
%TO.C,C1*%
X-5872164Y-13560000D02*
X-6087836Y-13560000D01*
X-5872164Y-14280000D02*
X-6087836Y-14280000D01*
%TO.C,U13*%
X-16344375Y15955625D02*
X-15869375Y15955625D01*
X-16344375Y15480625D02*
X-16344375Y15955625D01*
X-16344375Y11210625D02*
X-16344375Y10735625D01*
X-11124375Y15955625D02*
X-11599375Y15955625D01*
X-11124375Y15480625D02*
X-11124375Y15955625D01*
X-11124375Y11210625D02*
X-11124375Y10735625D01*
X-11124375Y10735625D02*
X-11599375Y10735625D01*
%TO.C,U9*%
X-18262500Y-8710000D02*
X-19062500Y-8710000D01*
X-18262500Y-8710000D02*
X-17462500Y-8710000D01*
X-18262500Y-11830000D02*
X-19062500Y-11830000D01*
X-18262500Y-11830000D02*
X-17462500Y-11830000D01*
X-19562500Y-8760000D02*
X-19802500Y-8430000D01*
X-19322500Y-8430000D01*
X-19562500Y-8760000D01*
G36*
X-19562500Y-8760000D02*
G01*
X-19802500Y-8430000D01*
X-19322500Y-8430000D01*
X-19562500Y-8760000D01*
G37*
%TO.C,C24*%
X-17207836Y-7660000D02*
X-16992164Y-7660000D01*
X-17207836Y-8380000D02*
X-16992164Y-8380000D01*
%TO.C,R22*%
X265000Y16867742D02*
X265000Y17342258D01*
X1310000Y16867742D02*
X1310000Y17342258D01*
%TO.C,C34*%
X-5445982Y7380871D02*
X-5445982Y7596543D01*
X-4725982Y7380871D02*
X-4725982Y7596543D01*
%TO.C,R17*%
X12856359Y12460000D02*
X13163641Y12460000D01*
X12856359Y11700000D02*
X13163641Y11700000D01*
%TO.C,C2*%
X-4160000Y-1812164D02*
X-4160000Y-2027836D01*
X-3440000Y-1812164D02*
X-3440000Y-2027836D01*
%TO.C,J4*%
X22330000Y9750000D02*
X23710000Y9750000D01*
X22330000Y8370000D02*
X22330000Y9750000D01*
X22330000Y7100000D02*
X22330000Y-5710000D01*
X22330000Y7100000D02*
X25090000Y7100000D01*
X22330000Y-5710000D02*
X25090000Y-5710000D01*
X25090000Y7100000D02*
X25090000Y-5710000D01*
%TO.C,R4*%
X130000Y6916359D02*
X130000Y7223641D01*
X890000Y6916359D02*
X890000Y7223641D01*
D17*
%TO.C,SW8*%
X20070000Y18420000D02*
X20070000Y17760000D01*
X20070000Y15340000D02*
X20070000Y16000000D01*
X24130000Y18420000D02*
X20070000Y18420000D01*
X24130000Y15340000D02*
X20070000Y15340000D01*
D18*
X23000000Y16880000D02*
G75*
G02*
X21200000Y16880000I-900000J0D01*
G01*
X21200000Y16880000D02*
G75*
G02*
X23000000Y16880000I900000J0D01*
G01*
D19*
%TO.C,J1*%
X-15550000Y-17380000D02*
X-15550000Y-24430000D01*
X-15550000Y-17380000D02*
X-8550000Y-17380000D01*
X-15550000Y-24430000D02*
X-8550000Y-24430000D01*
X-8550000Y-17380000D02*
X-8550000Y-24430000D01*
D20*
X-16200000Y-20430000D02*
G75*
G02*
X-16400000Y-20430000I-100000J0D01*
G01*
X-16400000Y-20430000D02*
G75*
G02*
X-16200000Y-20430000I100000J0D01*
G01*
D10*
%TO.C,C23*%
X17030000Y13212164D02*
X17030000Y13427836D01*
X17750000Y13212164D02*
X17750000Y13427836D01*
%TO.C,U1*%
X-5410000Y-9950000D02*
X-4960000Y-9950000D01*
X-5410000Y-10400000D02*
X-5410000Y-9950000D01*
X-5410000Y-12720000D02*
X-5410000Y-12870000D01*
X-4960000Y-13170000D02*
X-5170000Y-13170000D01*
X-2190000Y-9950000D02*
X-2640000Y-9950000D01*
X-2190000Y-10400000D02*
X-2190000Y-9950000D01*
X-2190000Y-12720000D02*
X-2190000Y-13170000D01*
X-2190000Y-13170000D02*
X-2640000Y-13170000D01*
X-5410000Y-13170000D02*
X-5740000Y-13410000D01*
X-5740000Y-12930000D01*
X-5410000Y-13170000D01*
G36*
X-5410000Y-13170000D02*
G01*
X-5740000Y-13410000D01*
X-5740000Y-12930000D01*
X-5410000Y-13170000D01*
G37*
%TO.C,C43*%
X-5772500Y21639664D02*
X-5772500Y21855336D01*
X-5052500Y21639664D02*
X-5052500Y21855336D01*
%TO.C,C16*%
X-12742211Y9943125D02*
X-12526539Y9943125D01*
X-12742211Y9223125D02*
X-12526539Y9223125D01*
%TO.C,C12*%
X-16310000Y-14058748D02*
X-16310000Y-15481252D01*
X-14490000Y-14058748D02*
X-14490000Y-15481252D01*
%TO.C,C13*%
X6890000Y16914420D02*
X6890000Y17195580D01*
X7910000Y16914420D02*
X7910000Y17195580D01*
%TO.C,U3*%
X8702600Y-11160000D02*
X9152600Y-11160000D01*
X8702600Y-11610000D02*
X8702600Y-11160000D01*
X8702600Y-13930000D02*
X8702600Y-14080000D01*
X9152600Y-14380000D02*
X8942600Y-14380000D01*
X11922600Y-11160000D02*
X11472600Y-11160000D01*
X11922600Y-11610000D02*
X11922600Y-11160000D01*
X11922600Y-13930000D02*
X11922600Y-14380000D01*
X11922600Y-14380000D02*
X11472600Y-14380000D01*
X8702600Y-14380000D02*
X8372600Y-14620000D01*
X8372600Y-14140000D01*
X8702600Y-14380000D01*
G36*
X8702600Y-14380000D02*
G01*
X8372600Y-14620000D01*
X8372600Y-14140000D01*
X8702600Y-14380000D01*
G37*
D18*
%TO.C,USB1*%
X-5520000Y-21930000D02*
X-5520000Y-19940000D01*
X-5520000Y-25510000D02*
X-5520000Y-23890000D01*
X3480000Y-25510000D02*
X-5520000Y-25510000D01*
X3550000Y-21930000D02*
X3550000Y-19940000D01*
X3550000Y-25360000D02*
X3550000Y-23890000D01*
D10*
%TO.C,C41*%
X-11059843Y-8579420D02*
X-11059843Y-8860580D01*
X-10039843Y-8579420D02*
X-10039843Y-8860580D01*
D17*
%TO.C,U12*%
X-6712500Y17322500D02*
X-3712500Y17322500D01*
X-5212500Y20572500D02*
X-3712500Y20572500D01*
D10*
%TO.C,C36*%
X-5604025Y1660618D02*
X-5604025Y1876290D01*
X-4884025Y1660618D02*
X-4884025Y1876290D01*
%TO.C,C35*%
X-6604025Y1660618D02*
X-6604025Y1876290D01*
X-5884025Y1660618D02*
X-5884025Y1876290D01*
%TO.C,C48*%
X40000Y4172164D02*
X40000Y4387836D01*
X760000Y4172164D02*
X760000Y4387836D01*
%TO.C,C47*%
X-8560000Y17687836D02*
X-8560000Y17472164D01*
X-7840000Y17687836D02*
X-7840000Y17472164D01*
%TO.C,C46*%
X-7172500Y22176920D02*
X-7172500Y22458080D01*
X-6152500Y22176920D02*
X-6152500Y22458080D01*
%TO.C,C9*%
X-21110000Y-14183748D02*
X-21110000Y-15606252D01*
X-19290000Y-14183748D02*
X-19290000Y-15606252D01*
%TO.C,D1*%
X2800000Y-15720000D02*
X4760000Y-15720000D01*
X2800000Y-16920000D02*
X4760000Y-16920000D01*
X4760000Y-16920000D02*
X4760000Y-15720000D01*
%TO.C,C33*%
X-6445982Y7380871D02*
X-6445982Y7596543D01*
X-5725982Y7380871D02*
X-5725982Y7596543D01*
%TO.C,R3*%
X-19046359Y16260000D02*
X-19353641Y16260000D01*
X-19046359Y15500000D02*
X-19353641Y15500000D01*
%TO.C,C5*%
X4559420Y21090000D02*
X4840580Y21090000D01*
X4559420Y20070000D02*
X4840580Y20070000D01*
%TO.C,R27*%
X-1285000Y17354758D02*
X-1285000Y16880242D01*
X-240000Y17354758D02*
X-240000Y16880242D01*
%TO.C,D5*%
X16220000Y-15480000D02*
X18180000Y-15480000D01*
X16220000Y-16680000D02*
X18180000Y-16680000D01*
X18180000Y-16680000D02*
X18180000Y-15480000D01*
%TO.C,R1*%
X-11522500Y-14382258D02*
X-11522500Y-13907742D01*
X-10477500Y-14382258D02*
X-10477500Y-13907742D01*
D17*
%TO.C,SW6*%
X-15530000Y21620000D02*
X-15530000Y20960000D01*
X-15530000Y18540000D02*
X-15530000Y19200000D01*
X-11470000Y21620000D02*
X-15530000Y21620000D01*
X-11470000Y18540000D02*
X-15530000Y18540000D01*
D18*
X-12600000Y20080000D02*
G75*
G02*
X-14400000Y20080000I-900000J0D01*
G01*
X-14400000Y20080000D02*
G75*
G02*
X-12600000Y20080000I900000J0D01*
G01*
D10*
%TO.C,C27*%
X4402164Y-9310000D02*
X4617836Y-9310000D01*
X4402164Y-10030000D02*
X4617836Y-10030000D01*
%TO.C,C14*%
X-10394375Y15790961D02*
X-10394375Y15575289D01*
X-9674375Y15790961D02*
X-9674375Y15575289D01*
%TO.C,FB1*%
X7337122Y24940000D02*
X6537878Y24940000D01*
X7337122Y23820000D02*
X6537878Y23820000D01*
%TO.C,Q1*%
X22600000Y-10447500D02*
X21950000Y-10447500D01*
X22600000Y-10447500D02*
X23250000Y-10447500D01*
X22600000Y-13567500D02*
X21950000Y-13567500D01*
X22600000Y-13567500D02*
X23250000Y-13567500D01*
X21437500Y-10497500D02*
X21197500Y-10167500D01*
X21677500Y-10167500D01*
X21437500Y-10497500D01*
G36*
X21437500Y-10497500D02*
G01*
X21197500Y-10167500D01*
X21677500Y-10167500D01*
X21437500Y-10497500D01*
G37*
D18*
%TO.C,J10*%
X-23000000Y8220000D02*
X-23000000Y-7020000D01*
X-23000000Y8220000D02*
X-20060000Y8220000D01*
X-23000000Y-7020000D02*
X-20010000Y-7020000D01*
X-17270000Y-7000000D02*
X-10100000Y-7000000D01*
X-10100000Y-4510000D02*
X-10100000Y-4520000D01*
X-10100000Y-7000000D02*
X-10100000Y-4510000D01*
X-10050000Y8240000D02*
X-17210000Y8240000D01*
X-8000000Y-3720000D02*
X-8000000Y-1870000D01*
X-8000000Y-3720000D02*
X-8000000Y-4510000D01*
X-8000000Y-4510000D02*
X-10100000Y-4510000D01*
X-8700000Y-2110000D02*
G75*
G02*
X-8800000Y-2110000I-50000J0D01*
G01*
X-8800000Y-2110000D02*
G75*
G02*
X-8700000Y-2110000I50000J0D01*
G01*
D17*
%TO.C,L2*%
X-15340000Y-8270000D02*
X-15340000Y-8340000D01*
X-15340000Y-11430000D02*
X-15340000Y-11360000D01*
X-12180000Y-8270000D02*
X-15340000Y-8270000D01*
X-12180000Y-8340000D02*
X-12180000Y-8270000D01*
X-12180000Y-11360000D02*
X-12180000Y-11430000D01*
X-12180000Y-11430000D02*
X-15340000Y-11430000D01*
D10*
%TO.C,C53*%
X394734Y-1802188D02*
X394734Y-2017860D01*
X1114734Y-1802188D02*
X1114734Y-2017860D01*
%TO.C,Q2*%
X22600000Y-13922500D02*
X21950000Y-13922500D01*
X22600000Y-13922500D02*
X23250000Y-13922500D01*
X22600000Y-17042500D02*
X21950000Y-17042500D01*
X22600000Y-17042500D02*
X23250000Y-17042500D01*
X21437500Y-13972500D02*
X21197500Y-13642500D01*
X21677500Y-13642500D01*
X21437500Y-13972500D01*
G36*
X21437500Y-13972500D02*
G01*
X21197500Y-13642500D01*
X21677500Y-13642500D01*
X21437500Y-13972500D01*
G37*
D18*
%TO.C,U5*%
X9572500Y25180000D02*
X15572500Y25180000D01*
X9572500Y13580000D02*
X9572500Y25180000D01*
X9572500Y13580000D02*
X15572500Y13580000D01*
X15572500Y24090000D02*
X15572500Y25180000D01*
X15572500Y23870000D02*
X15572500Y24490000D01*
X15572500Y21550000D02*
X15572500Y22290000D01*
X15572500Y21330000D02*
X15572500Y22510000D01*
X15572500Y19010000D02*
X15572500Y19750000D01*
X15572500Y18790000D02*
X15572500Y19970000D01*
X15572500Y16700000D02*
X15572500Y17430000D01*
X15572500Y13580000D02*
X15572500Y14440000D01*
D14*
X16352500Y14320000D02*
G75*
G02*
X15952500Y14320000I-200000J0D01*
G01*
X15952500Y14320000D02*
G75*
G02*
X16352500Y14320000I200000J0D01*
G01*
D10*
%TO.C,C29*%
X4422164Y-8210000D02*
X4637836Y-8210000D01*
X4422164Y-8930000D02*
X4637836Y-8930000D01*
%TO.C,R34*%
X-9743641Y14560000D02*
X-9436359Y14560000D01*
X-9743641Y13800000D02*
X-9436359Y13800000D01*
%TO.C,C3*%
X6927936Y-14160000D02*
X6712264Y-14160000D01*
X6927936Y-14880000D02*
X6712264Y-14880000D01*
%TO.C,C18*%
X17214420Y19190000D02*
X17495580Y19190000D01*
X17214420Y18170000D02*
X17495580Y18170000D01*
%TO.C,C42*%
X1827500Y16964420D02*
X1827500Y17245580D01*
X2847500Y16964420D02*
X2847500Y17245580D01*
%TO.C,C19*%
X-19287836Y18340000D02*
X-19072164Y18340000D01*
X-19287836Y17620000D02*
X-19072164Y17620000D01*
%TO.C,R2*%
X-910000Y-6743641D02*
X-910000Y-6436359D01*
X-150000Y-6743641D02*
X-150000Y-6436359D01*
%TO.C,C56*%
X-1605266Y-2017860D02*
X-1605266Y-1802188D01*
X-885266Y-2017860D02*
X-885266Y-1802188D01*
D17*
%TO.C,SW3*%
X-15530000Y25220000D02*
X-11470000Y25220000D01*
X-15530000Y22140000D02*
X-11470000Y22140000D01*
X-11470000Y25220000D02*
X-11470000Y24560000D01*
X-11470000Y22140000D02*
X-11470000Y22800000D01*
D18*
X-12600000Y23680000D02*
G75*
G02*
X-14400000Y23680000I-900000J0D01*
G01*
X-14400000Y23680000D02*
G75*
G02*
X-12600000Y23680000I900000J0D01*
G01*
D10*
%TO.C,R26*%
X18120000Y13473641D02*
X18120000Y13166359D01*
X18880000Y13473641D02*
X18880000Y13166359D01*
D19*
%TO.C,U14*%
X1900000Y10780000D02*
X2320000Y10780000D01*
X1900000Y-7220000D02*
X1900000Y10780000D01*
X2320000Y-7220000D02*
X1900000Y-7220000D01*
X21100000Y10780000D02*
X20370000Y10780000D01*
X21100000Y10780000D02*
X21100000Y9535000D01*
X21100000Y-5975000D02*
X21100000Y-7220000D01*
X21100000Y-7220000D02*
X20370000Y-7220000D01*
D20*
X3190000Y-8720000D02*
G75*
G02*
X2990000Y-8720000I-100000J0D01*
G01*
X2990000Y-8720000D02*
G75*
G02*
X3190000Y-8720000I100000J0D01*
G01*
D10*
%TO.C,D3*%
X15140000Y-13040000D02*
X17100000Y-13040000D01*
X15140000Y-14240000D02*
X17100000Y-14240000D01*
X17100000Y-14240000D02*
X17100000Y-13040000D01*
%TO.C,D2*%
X14176931Y-11560588D02*
X16136931Y-11560588D01*
X14176931Y-12760588D02*
X16136931Y-12760588D01*
X16136931Y-12760588D02*
X16136931Y-11560588D01*
%TO.C,C54*%
X787836Y3140000D02*
X572164Y3140000D01*
X787836Y2420000D02*
X572164Y2420000D01*
%TO.C,C22*%
X7687836Y23340000D02*
X7472164Y23340000D01*
X7687836Y22620000D02*
X7472164Y22620000D01*
%TO.C,C7*%
X-18710000Y-14183748D02*
X-18710000Y-15606252D01*
X-16890000Y-14183748D02*
X-16890000Y-15606252D01*
D18*
%TO.C,SW1*%
X-24020000Y14570000D02*
X-24020000Y11570000D01*
X-24020000Y14570000D02*
X-22920000Y14570000D01*
X-24020000Y11570000D02*
X-22920000Y11570000D01*
X-22920000Y15450000D02*
X-22920000Y10690000D01*
X-20320000Y16870000D02*
X-22190000Y16870000D01*
X-20320000Y16870000D02*
X-20320000Y15850000D01*
X-20320000Y14490000D02*
X-20330000Y11650000D01*
X-20320000Y10290000D02*
X-20320000Y9270000D01*
X-20320000Y9270000D02*
X-22190000Y9270000D01*
D10*
%TO.C,C8*%
X17214420Y20790000D02*
X17495580Y20790000D01*
X17214420Y19770000D02*
X17495580Y19770000D01*
%TO.C,R33*%
X-4635000Y22080242D02*
X-4635000Y22554758D01*
X-3590000Y22080242D02*
X-3590000Y22554758D01*
%TO.C,C45*%
X-2972500Y18205336D02*
X-2972500Y17989664D01*
X-2252500Y18205336D02*
X-2252500Y17989664D01*
%TO.C,C11*%
X1207836Y21540000D02*
X992164Y21540000D01*
X1207836Y20820000D02*
X992164Y20820000D01*
%TO.C,R20*%
X19720000Y-12111141D02*
X19720000Y-11803859D01*
X20480000Y-12111141D02*
X20480000Y-11803859D01*
%TO.C,C26*%
X-2045982Y3567836D02*
X-2045982Y3352164D01*
X-1325982Y3567836D02*
X-1325982Y3352164D01*
%TO.C,R32*%
X-2885000Y20829758D02*
X-2885000Y20355242D01*
X-1840000Y20829758D02*
X-1840000Y20355242D01*
%TO.C,R29*%
X-7322500Y-11657258D02*
X-7322500Y-11182742D01*
X-6277500Y-11657258D02*
X-6277500Y-11182742D01*
%TO.C,C44*%
X-2620336Y16957500D02*
X-2404664Y16957500D01*
X-2620336Y16237500D02*
X-2404664Y16237500D01*
%TO.C,R18*%
X10936359Y12460000D02*
X11243641Y12460000D01*
X10936359Y11700000D02*
X11243641Y11700000D01*
%TO.C,R21*%
X19720000Y-15703859D02*
X19720000Y-16011141D01*
X20480000Y-15703859D02*
X20480000Y-16011141D01*
D18*
%TO.C,USB2*%
X6380100Y-21930000D02*
X6380100Y-19940000D01*
X6380100Y-25510000D02*
X6380100Y-23890000D01*
X15380100Y-25510000D02*
X6380100Y-25510000D01*
X15450100Y-21930000D02*
X15450100Y-19940000D01*
X15450100Y-25360000D02*
X15450100Y-23890000D01*
D10*
%TO.C,R25*%
X7820000Y-9430721D02*
X7820000Y-9123439D01*
X8580000Y-9430721D02*
X8580000Y-9123439D01*
%TO.C,R15*%
X-3503641Y-16350000D02*
X-3196359Y-16350000D01*
X-3503641Y-17110000D02*
X-3196359Y-17110000D01*
%TO.C,C57*%
X-605266Y-1997860D02*
X-605266Y-1782188D01*
X114734Y-1997860D02*
X114734Y-1782188D01*
%TO.C,R10*%
X-19363641Y17360000D02*
X-19056359Y17360000D01*
X-19363641Y16600000D02*
X-19056359Y16600000D01*
%TO.C,C6*%
X-23510000Y-14183748D02*
X-23510000Y-15606252D01*
X-21690000Y-14183748D02*
X-21690000Y-15606252D01*
%TD*%
M02*
