M48
; DRILL file {KiCad 9.0.5} date 2025-10-14T15:47:51-0700
; FORMAT={-:-/ absolute / metric / decimal}
; #@! TF.CreationDate,2025-10-14T15:47:51-07:00
; #@! TF.GenerationSoftware,Kicad,Pcbnew,9.0.5
; #@! TF.FileFunction,Plated,1,4,PTH
FMAT,2
METRIC
; #@! TA.AperFunction,Plated,PTH,ViaDrill
T1C0.300
; #@! TA.AperFunction,Plated,PTH,ComponentDrill
T2C0.300
; #@! TA.AperFunction,Plated,PTH,ViaDrill
T3C0.500
; #@! TA.AperFunction,Plated,PTH,ComponentDrill
T4C0.600
; #@! TA.AperFunction,Plated,PTH,ComponentDrill
T5C1.000
; #@! TA.AperFunction,Plated,PTH,ComponentDrill
T6C1.000
; #@! TA.AperFunction,Plated,PTH,ComponentDrill
T7C1.200
; #@! TA.AperFunction,Plated,PTH,ViaDrill
T8C3.200
%
G90
G05
T1
X-21.5Y8.48
X-20.65Y3.39
X-19.9Y-8.42
X-19.5Y13.89
X-19.2Y11.28
X-18.75Y13.03
X-18.0Y17.432
X-18.0Y15.52
X-17.4Y10.08
X-16.3Y17.98
X-15.51Y1.81
X-15.1Y-3.12
X-15.016Y12.064
X-14.984Y14.633
X-13.8Y9.18
X-13.734Y13.346
X-13.7Y16.98
X-13.0Y6.88
X-12.9Y16.98
X-12.466Y14.614
X-12.434Y12.083
X-12.0Y21.28
X-11.7Y-17.52
X-10.151Y11.027
X-9.95Y17.98
X-9.9Y11.68
X-9.8Y16.88
X-9.4Y-11.01
X-8.58Y-13.17
X-8.3Y18.88
X-7.7Y13.48
X-7.559Y20.221
X-7.5Y14.28
X-6.86Y-16.53
X-6.72Y12.6
X-6.23Y9.54
X-6.086Y6.137
X-5.712Y19.747
X-5.712Y18.148
X-5.7Y3.973
X-5.52Y15.16
X-5.412Y23.067
X-5.212Y18.947
X-4.75Y-16.79
X-4.712Y19.747
X-4.712Y18.148
X-4.3Y3.79
X-4.0Y-13.92
X-3.8Y-11.56
X-3.74Y-3.28
X-3.31Y2.45
X-2.87Y-2.25
X-2.5Y-13.72
X-2.3Y-10.072
X-2.0Y12.28
X-1.98Y-1.73
X-1.787Y17.648
X-1.7Y-12.92
X-1.7Y-13.82
X-1.68Y4.88
X-1.55Y-7.08
X-1.3Y7.97
X-1.099Y-11.47
X-0.75Y4.48
X-0.594Y2.728
X0.05Y-9.73
X0.1Y-13.02
X0.216Y-0.02
X0.71Y-14.72
X1.258Y-3.322
X1.33Y7.58
X1.4Y3.88
X1.48Y6.85
X1.68Y-6.37
X2.1Y2.48
X2.25Y-0.19
X2.355Y-2.872
X2.832Y-3.385
X3.1Y12.58
X3.339Y-3.867
X3.921Y-4.43
X4.56Y-20.94
X4.78Y4.35
X4.8Y19.28
X5.0Y-10.44
X5.09Y7.47
X5.287Y17.668
X6.21Y-9.06
X6.9Y8.88
X7.6Y15.08
X7.9Y20.28
X7.9Y-5.04
X8.06Y-10.92
X8.2Y8.88
X8.5Y3.21
X9.33Y8.61
X9.95Y-16.19
X10.19Y-8.78
X10.313Y-12.77
X10.5Y12.98
X10.98Y8.77
X11.62Y3.13
X11.7Y-14.919
X11.9Y-11.282
X11.98Y-8.32
X12.336Y-14.626
X12.51Y12.98
X12.635Y-13.985
X12.7Y-4.66
X13.25Y-8.27
X13.3Y-12.574
X14.1Y8.51
X14.13Y-0.3
X14.4Y-13.97
X14.52Y-8.14
X15.11Y4.83
X15.26Y-16.21
X15.36Y3.79
X15.51Y12.98
X15.882Y-8.138
X16.1Y7.88
X16.54Y-2.77
X17.0Y-8.12
X17.48Y-4.7
X17.59Y-8.77
X17.93Y5.69
X17.974Y-11.967
X17.99Y23.97
X18.5Y14.72
X18.5Y11.98
X18.55Y1.15
X18.68Y-10.59
X18.8Y-0.125
X18.9Y-1.395
X18.9Y-2.665
X19.2Y-15.32
X19.22Y6.23
X19.25Y4.94
X19.46Y15.32
X20.2Y-13.357
X21.03Y-9.12
X23.5Y-14.657
T2
X9.41Y0.98
X9.41Y-0.42
X10.11Y1.68
X10.11Y0.28
X10.11Y-1.12
X10.81Y0.98
X10.81Y-0.42
X11.51Y1.68
X11.51Y0.28
X11.51Y-1.12
X12.21Y0.98
X12.21Y-0.42
T3
X-22.005Y-10.745
X-9.71Y-15.21
X-7.84Y-9.03
X2.81Y-15.1
X3.13Y-8.58
X16.24Y-15.02
T5
X14.672Y23.19
X14.672Y20.65
X14.672Y18.11
X14.672Y15.57
T6
X-1.54Y23.88
X1.0Y23.88
X3.54Y23.88
X23.71Y8.37
X23.71Y5.83
X23.71Y3.29
X23.71Y0.75
X23.71Y-1.79
X23.71Y-4.33
T7
X-13.8Y-20.43
X-10.3Y-20.43
T8
X-20.3Y21.78
X-20.3Y-20.82
X22.3Y21.78
X22.3Y-20.82
T4
G00X-5.34Y-18.26
M15
G01X-5.34Y-19.16
M16
G05
G00X-5.34Y-22.62
M15
G01X-5.34Y-23.22
M16
G05
G00X3.3Y-18.26
M15
G01X3.3Y-19.16
M16
G05
G00X3.3Y-22.62
M15
G01X3.3Y-23.22
M16
G05
G00X6.56Y-18.26
M15
G01X6.56Y-19.16
M16
G05
G00X6.56Y-22.62
M15
G01X6.56Y-23.22
M16
G05
G00X15.2Y-18.26
M15
G01X15.2Y-19.16
M16
G05
G00X15.2Y-22.62
M15
G01X15.2Y-23.22
M16
G05
M30
