%TF.GenerationSoftware,KiCad,Pcbnew,9.0.5*%
%TF.CreationDate,2025-10-14T15:47:48-07:00*%
%TF.ProjectId,lightspeed_r1,6c696768-7473-4706-9565-645f72312e6b,rev?*%
%TF.SameCoordinates,Original*%
%TF.FileFunction,Copper,L3,Inr*%
%TF.FilePolarity,Positive*%
%FSLAX46Y46*%
G04 Gerber Fmt 4.6, Leading zero omitted, Abs format (unit mm)*
G04 Created by KiCad (PCBNEW 9.0.5) date 2025-10-14 15:47:48*
%MOMM*%
%LPD*%
G01*
G04 APERTURE LIST*
%TA.AperFunction,ComponentPad*%
%ADD10R,1.700000X1.700000*%
%TD*%
%TA.AperFunction,ComponentPad*%
%ADD11C,1.700000*%
%TD*%
%TA.AperFunction,ComponentPad*%
%ADD12R,1.800000X1.800000*%
%TD*%
%TA.AperFunction,ComponentPad*%
%ADD13C,1.800000*%
%TD*%
%TA.AperFunction,ComponentPad*%
%ADD14O,1.100000X2.000000*%
%TD*%
%TA.AperFunction,ComponentPad*%
%ADD15O,1.200000X1.800000*%
%TD*%
%TA.AperFunction,ComponentPad*%
%ADD16R,1.600000X1.600000*%
%TD*%
%TA.AperFunction,ComponentPad*%
%ADD17C,1.600000*%
%TD*%
%TA.AperFunction,ComponentPad*%
%ADD18C,0.450000*%
%TD*%
%TA.AperFunction,ViaPad*%
%ADD19C,0.600000*%
%TD*%
%TA.AperFunction,ViaPad*%
%ADD20C,0.700000*%
%TD*%
%TA.AperFunction,ViaPad*%
%ADD21C,6.400000*%
%TD*%
%TA.AperFunction,ViaPad*%
%ADD22C,1.000000*%
%TD*%
%TA.AperFunction,ViaPad*%
%ADD23C,0.800000*%
%TD*%
%TA.AperFunction,Conductor*%
%ADD24C,1.000000*%
%TD*%
%TA.AperFunction,Conductor*%
%ADD25C,0.200000*%
%TD*%
G04 APERTURE END LIST*
D10*
%TO.N,GND*%
%TO.C,J4*%
X23710000Y8370000D03*
D11*
%TO.N,GPIO48*%
X23710000Y5830000D03*
%TO.N,GPIO14*%
X23710000Y3290000D03*
%TO.N,GPIO46*%
X23710000Y750000D03*
%TO.N,GPIO3*%
X23710000Y-1790000D03*
%TO.N,GPIO20*%
X23710000Y-4330000D03*
%TD*%
D12*
%TO.N,5V*%
%TO.C,J1*%
X-13800000Y-20430000D03*
D13*
%TO.N,GND*%
X-10300000Y-20430000D03*
%TD*%
D14*
%TO.N,GND*%
%TO.C,USB1*%
X-5340000Y-18710000D03*
D15*
X-5340000Y-22920000D03*
D14*
X3300000Y-18710000D03*
D15*
X3300000Y-22920000D03*
%TD*%
D16*
%TO.N,GND*%
%TO.C,U5*%
X14672500Y15570000D03*
D17*
%TO.N,5V*%
X14672500Y18110000D03*
%TO.N,GND*%
X14672500Y20650000D03*
%TO.N,Net-(U5-+Vo)*%
X14672500Y23190000D03*
%TD*%
D18*
%TO.N,GND*%
%TO.C,U14*%
X9410000Y-420000D03*
X9410000Y980000D03*
X10110000Y-1120000D03*
X10110000Y280000D03*
X10110000Y1680000D03*
X10810000Y-420000D03*
X10810000Y980000D03*
X11510000Y-1120000D03*
X11510000Y280000D03*
X11510000Y1680000D03*
X12210000Y-420000D03*
X12210000Y980000D03*
%TD*%
D14*
%TO.N,GND*%
%TO.C,USB2*%
X6560100Y-18710000D03*
D15*
X6560100Y-22920000D03*
D14*
X15200100Y-18710000D03*
D15*
X15200100Y-22920000D03*
%TD*%
D10*
%TO.N,GND*%
%TO.C,J3*%
X-1540000Y23880000D03*
D11*
%TO.N,Net-(J3-Pin_2)*%
X1000000Y23880000D03*
%TO.N,Net-(J3-Pin_3)*%
X3540000Y23880000D03*
%TD*%
D19*
%TO.N,3V3*%
X-1300000Y7970000D03*
D20*
%TO.N,GND*%
X-5212500Y18947500D03*
D19*
X11620000Y3130000D03*
X-16300000Y17980000D03*
X19460000Y15320000D03*
D20*
X-4712500Y19747500D03*
D19*
X5090000Y7470000D03*
X-3800000Y-11560000D03*
X-4000000Y-13920000D03*
D20*
X5287500Y17667500D03*
D19*
X-6860000Y-16530000D03*
X17930000Y5690000D03*
X-9950000Y17980000D03*
X21030000Y-9120000D03*
X-4750000Y-16790000D03*
X-20650000Y3390000D03*
D21*
X22300000Y-20820000D03*
D19*
X15360000Y3790000D03*
X9950000Y-16190000D03*
X7600000Y15080000D03*
D20*
X-5712500Y18147500D03*
D21*
X-20300000Y-20820000D03*
D20*
X-5712500Y19747500D03*
X-5412500Y23067500D03*
X-13734375Y13345625D03*
D19*
X7900000Y-5040000D03*
D21*
X-20300000Y21780000D03*
D19*
X-15510000Y1810000D03*
X2250000Y-190000D03*
X50000Y-9730000D03*
D20*
X-15015625Y12064375D03*
D21*
X22300000Y21780000D03*
D19*
X1330000Y7580000D03*
D20*
X-12434375Y12083125D03*
D19*
X-15100000Y-3120000D03*
X-3740000Y-3280000D03*
X-19500000Y13890000D03*
D20*
X-4712500Y18147500D03*
D19*
X-8580000Y-13170000D03*
D20*
X-1787500Y17647500D03*
D19*
X18680000Y-10590000D03*
D20*
X-14984375Y14633125D03*
D19*
X14130000Y-300000D03*
X9330000Y8610000D03*
X-2000000Y12280000D03*
X17480000Y-4700000D03*
X4780000Y4350000D03*
X-19200000Y11280000D03*
X10190000Y-8780000D03*
X-750000Y4480000D03*
X14100000Y8510000D03*
X17990000Y23970000D03*
X8500000Y3210000D03*
X1680000Y-6370000D03*
X12700000Y-4660000D03*
X5000000Y-10440000D03*
X15260000Y-16210000D03*
X710000Y-14720000D03*
X-13000000Y6880000D03*
X-6230000Y9540000D03*
D20*
X-12465625Y14614375D03*
D19*
X3100000Y12580000D03*
X7900000Y20280000D03*
X-11700000Y-17520000D03*
X2100000Y2480000D03*
X-6720000Y12600000D03*
X-4300000Y3790000D03*
X10312600Y-12770000D03*
X-9400000Y-11010000D03*
X-5520000Y15160000D03*
X4560000Y-20940000D03*
%TO.N,/BOOT0*%
X-18750000Y13030000D03*
X-21500000Y8480000D03*
D22*
%TO.N,5V*%
X2810000Y-15100000D03*
X16240000Y-15020000D03*
D19*
X11900100Y-11282500D03*
X11700000Y-14919000D03*
X-2300000Y-10072500D03*
D22*
X-9710000Y-15210000D03*
D19*
X-2500000Y-13720000D03*
D22*
X-22005025Y-10745025D03*
D19*
%TO.N,/RTS*%
X17973554Y-11967500D03*
X19200000Y-15320000D03*
%TO.N,/DTR*%
X23500000Y-14657500D03*
X20200000Y-13357500D03*
%TO.N,CAM.RST*%
X8060000Y-10920000D03*
X1258199Y-3321801D03*
X17590000Y-8770000D03*
%TO.N,3V3*%
X10500000Y12980000D03*
X-13800000Y9180000D03*
D23*
X-7840000Y-9030000D03*
D19*
X-19900000Y-8420000D03*
X216396Y-20000D03*
X4800000Y19280000D03*
X-17400000Y10080000D03*
X12510000Y12980000D03*
X-9800000Y16880000D03*
X-12000000Y21280000D03*
X18500000Y14720000D03*
X-1680000Y4880000D03*
X-18000000Y15520000D03*
X-8300000Y18880000D03*
X-7558946Y20221054D03*
X-2870000Y-2250000D03*
X-1550000Y-7080000D03*
X15510000Y12980000D03*
X-5700000Y3972892D03*
D22*
X3130000Y-8580000D03*
D19*
X6210000Y-9060000D03*
%TO.N,UART0_TXD_ESP32*%
X12635429Y-13984571D03*
X6900000Y8880000D03*
%TO.N,UART0_RXD_ESP32*%
X8200000Y8880000D03*
X12335699Y-14625937D03*
%TO.N,I2C_SCL*%
X3339268Y-3867059D03*
%TO.N,I2C_SDA*%
X3921294Y-4430460D03*
%TO.N,2V8*%
X-3310000Y2450000D03*
X-1980000Y-1730000D03*
%TO.N,1V2*%
X-6085982Y6136743D03*
X-593968Y2728054D03*
%TO.N,USART2_RX_STM32*%
X-9900000Y11680000D03*
X-1700000Y-13820000D03*
%TO.N,USART2_TX_STM32*%
X-10151286Y11026656D03*
X-1700000Y-12920000D03*
%TO.N,USART1_TX_STM32_ESP32*%
X-13700000Y16980000D03*
X-7500000Y14280000D03*
%TO.N,USART1_RX_STM32_ESP32*%
X-12900000Y16980000D03*
X-7700000Y13480000D03*
%TO.N,CAM.PCLK*%
X1400000Y3880000D03*
X17000000Y-8120000D03*
%TO.N,CAM.PWDN*%
X1480000Y6850000D03*
X15110000Y4830000D03*
%TO.N,CAM.Y7*%
X15881801Y-8138199D03*
%TO.N,CAM.VSYNC*%
X2831801Y-3384896D03*
%TO.N,CAM.HREF*%
X2355417Y-2872000D03*
%TO.N,CAM.Y6*%
X16540000Y-2770000D03*
%TO.N,CAM.Y5*%
X18900000Y-1395000D03*
%TO.N,CAM.Y4*%
X18550000Y1150000D03*
%TO.N,CAM.Y8*%
X14520000Y-8140000D03*
%TO.N,CAM.XCLK*%
X13250000Y-8270000D03*
%TO.N,CAM.Y3*%
X18800000Y-125000D03*
%TO.N,CAM.Y2*%
X18900000Y-2665000D03*
%TO.N,CAM.Y9*%
X11980000Y-8320000D03*
%TO.N,Net-(D3-A2)*%
X14400100Y-13970000D03*
X13300100Y-12574259D03*
%TO.N,Net-(D4-A2)*%
X-1098528Y-11470001D03*
X100000Y-13020000D03*
%TO.N,CHIP_PU*%
X16100000Y7880000D03*
X18500000Y11980000D03*
%TO.N,BUTTON_WIFI*%
X-18000000Y17431782D03*
X19250000Y4940000D03*
%TO.N,STM32_RESET*%
X19220000Y6230000D03*
X10980000Y8770000D03*
%TD*%
D24*
%TO.N,5V*%
X-22201000Y17979000D02*
X-18725574Y17979000D01*
X-16499000Y23381000D02*
X-15400000Y24480000D01*
X-16499000Y20205574D02*
X-16499000Y23381000D01*
X-15400000Y24480000D02*
X-11400000Y24480000D01*
X-13800000Y-20420000D02*
X-14600000Y-20420000D01*
X-18725574Y17979000D02*
X-16499000Y20205574D01*
X-2600000Y22380000D02*
X8100000Y22380000D01*
X-4699000Y24479000D02*
X-2600000Y22380000D01*
X12370000Y18110000D02*
X14672500Y18110000D01*
X-11400000Y24480000D02*
X-11399000Y24479000D01*
X-11399000Y24479000D02*
X-4699000Y24479000D01*
X8100000Y22380000D02*
X12370000Y18110000D01*
X-14600000Y-20420000D02*
X-22999000Y-12021000D01*
X-22999000Y17181000D02*
X-22201000Y17979000D01*
X-22999000Y-12021000D02*
X-22999000Y17181000D01*
D25*
%TO.N,1V2*%
X-5310000Y4290000D02*
X-2155914Y4290000D01*
X-2155914Y4290000D02*
X-593968Y2728054D01*
X-6085982Y5065982D02*
X-5310000Y4290000D01*
X-6085982Y6136743D02*
X-6085982Y5065982D01*
%TD*%
%TA.AperFunction,Conductor*%
%TO.N,3V3*%
G36*
X20856314Y24959815D02*
G01*
X20902069Y24907011D01*
X20912013Y24837853D01*
X20882988Y24774297D01*
X20847728Y24746142D01*
X20601169Y24614353D01*
X20601158Y24614347D01*
X20331524Y24434183D01*
X20331518Y24434178D01*
X20080841Y24228453D01*
X19851546Y23999158D01*
X19645821Y23748481D01*
X19645811Y23748467D01*
X19465657Y23478848D01*
X19465646Y23478830D01*
X19312788Y23192854D01*
X19312786Y23192849D01*
X19188686Y22893247D01*
X19094548Y22582913D01*
X19094545Y22582902D01*
X19031287Y22264874D01*
X19031284Y22264857D01*
X18999500Y21942139D01*
X18999500Y21617860D01*
X19031284Y21295142D01*
X19031287Y21295125D01*
X19094545Y20977097D01*
X19094548Y20977086D01*
X19188686Y20666752D01*
X19312786Y20367150D01*
X19312788Y20367145D01*
X19465646Y20081169D01*
X19465657Y20081151D01*
X19645811Y19811532D01*
X19645821Y19811518D01*
X19851546Y19560841D01*
X20080841Y19331546D01*
X20331518Y19125821D01*
X20331532Y19125811D01*
X20601151Y18945657D01*
X20601169Y18945646D01*
X20887145Y18792788D01*
X20887150Y18792786D01*
X21186752Y18668686D01*
X21497086Y18574548D01*
X21497097Y18574545D01*
X21815125Y18511287D01*
X21815142Y18511284D01*
X22065099Y18486666D01*
X22137857Y18479500D01*
X22137860Y18479500D01*
X22462140Y18479500D01*
X22462143Y18479500D01*
X22540812Y18487248D01*
X22784857Y18511284D01*
X22784874Y18511287D01*
X23102902Y18574545D01*
X23102913Y18574548D01*
X23413247Y18668686D01*
X23712849Y18792786D01*
X23712854Y18792788D01*
X23998830Y18945646D01*
X23998837Y18945650D01*
X23998842Y18945653D01*
X24268476Y19125817D01*
X24477064Y19297000D01*
X24519158Y19331546D01*
X24748453Y19560841D01*
X24950314Y19806809D01*
X24954183Y19811524D01*
X25134347Y20081158D01*
X25266142Y20327728D01*
X25315105Y20377572D01*
X25383242Y20393032D01*
X25448922Y20369200D01*
X25491291Y20313642D01*
X25499500Y20269274D01*
X25499500Y-9455300D01*
X25479815Y-9522339D01*
X25427011Y-9568094D01*
X25375330Y-9579300D01*
X21441685Y-9573899D01*
X21374672Y-9554122D01*
X21328990Y-9501256D01*
X21319141Y-9432083D01*
X21346258Y-9372921D01*
X21345531Y-9372363D01*
X21347973Y-9369179D01*
X21348254Y-9368568D01*
X21349320Y-9367423D01*
X21350477Y-9365916D01*
X21350480Y-9365913D01*
X21403207Y-9274587D01*
X21430500Y-9172727D01*
X21430500Y-9067273D01*
X21403207Y-8965413D01*
X21350480Y-8874087D01*
X21275913Y-8799520D01*
X21184587Y-8746793D01*
X21082727Y-8719500D01*
X20977273Y-8719500D01*
X20875413Y-8746793D01*
X20875410Y-8746794D01*
X20784085Y-8799521D01*
X20709521Y-8874085D01*
X20656794Y-8965410D01*
X20656793Y-8965413D01*
X20629500Y-9067273D01*
X20629500Y-9172727D01*
X20631583Y-9180499D01*
X20656793Y-9274586D01*
X20656794Y-9274589D01*
X20709522Y-9365916D01*
X20714469Y-9372363D01*
X20711919Y-9374319D01*
X20738178Y-9422409D01*
X20733194Y-9492101D01*
X20691322Y-9548034D01*
X20625858Y-9572451D01*
X20616842Y-9572767D01*
X477135Y-9545115D01*
X410122Y-9525338D01*
X376328Y-9489844D01*
X375428Y-9490536D01*
X370482Y-9484090D01*
X370480Y-9484087D01*
X295913Y-9409520D01*
X204587Y-9356793D01*
X102727Y-9329500D01*
X-2727Y-9329500D01*
X-104587Y-9356793D01*
X-195913Y-9409520D01*
X-195914Y-9409521D01*
X-270480Y-9484087D01*
X-275426Y-9490533D01*
X-276992Y-9489331D01*
X-319799Y-9530154D01*
X-376798Y-9543943D01*
X-22274670Y-9513877D01*
X-22341683Y-9494100D01*
X-22387365Y-9441234D01*
X-22398500Y-9389877D01*
X-22398500Y-8727273D01*
X9789500Y-8727273D01*
X9789500Y-8832727D01*
X9816793Y-8934587D01*
X9869520Y-9025913D01*
X9944087Y-9100480D01*
X10035413Y-9153207D01*
X10137273Y-9180500D01*
X10137275Y-9180500D01*
X10242725Y-9180500D01*
X10242727Y-9180500D01*
X10344587Y-9153207D01*
X10435913Y-9100480D01*
X10510480Y-9025913D01*
X10563207Y-8934587D01*
X10590500Y-8832727D01*
X10590500Y-8727273D01*
X10563207Y-8625413D01*
X10510480Y-8534087D01*
X10435913Y-8459520D01*
X10344587Y-8406793D01*
X10242727Y-8379500D01*
X10137273Y-8379500D01*
X10035413Y-8406793D01*
X10035410Y-8406794D01*
X9944085Y-8459521D01*
X9869521Y-8534085D01*
X9816794Y-8625410D01*
X9816793Y-8625413D01*
X9789500Y-8727273D01*
X-22398500Y-8727273D01*
X-22398500Y-8267273D01*
X11579500Y-8267273D01*
X11579500Y-8372727D01*
X11606793Y-8474587D01*
X11659520Y-8565913D01*
X11734087Y-8640480D01*
X11825413Y-8693207D01*
X11927273Y-8720500D01*
X11927275Y-8720500D01*
X12032725Y-8720500D01*
X12032727Y-8720500D01*
X12134587Y-8693207D01*
X12225913Y-8640480D01*
X12300480Y-8565913D01*
X12353207Y-8474587D01*
X12380500Y-8372727D01*
X12380500Y-8267273D01*
X12367103Y-8217273D01*
X12849500Y-8217273D01*
X12849500Y-8322727D01*
X12876793Y-8424587D01*
X12929520Y-8515913D01*
X13004087Y-8590480D01*
X13095413Y-8643207D01*
X13197273Y-8670500D01*
X13197275Y-8670500D01*
X13302725Y-8670500D01*
X13302727Y-8670500D01*
X13404587Y-8643207D01*
X13495913Y-8590480D01*
X13570480Y-8515913D01*
X13623207Y-8424587D01*
X13650500Y-8322727D01*
X13650500Y-8217273D01*
X13623207Y-8115413D01*
X13606960Y-8087273D01*
X14119500Y-8087273D01*
X14119500Y-8192727D01*
X14146793Y-8294587D01*
X14199520Y-8385913D01*
X14274087Y-8460480D01*
X14365413Y-8513207D01*
X14467273Y-8540500D01*
X14467275Y-8540500D01*
X14572725Y-8540500D01*
X14572727Y-8540500D01*
X14674587Y-8513207D01*
X14765913Y-8460480D01*
X14840480Y-8385913D01*
X14893207Y-8294587D01*
X14920500Y-8192727D01*
X14920500Y-8087273D01*
X14920017Y-8085472D01*
X15481301Y-8085472D01*
X15481301Y-8190926D01*
X15508594Y-8292786D01*
X15561321Y-8384112D01*
X15635888Y-8458679D01*
X15727214Y-8511406D01*
X15829074Y-8538699D01*
X15829076Y-8538699D01*
X15934526Y-8538699D01*
X15934528Y-8538699D01*
X16036388Y-8511406D01*
X16127714Y-8458679D01*
X16202281Y-8384112D01*
X16255008Y-8292786D01*
X16282301Y-8190926D01*
X16282301Y-8085472D01*
X16277425Y-8067273D01*
X16599500Y-8067273D01*
X16599500Y-8172727D01*
X16626793Y-8274587D01*
X16679520Y-8365913D01*
X16754087Y-8440480D01*
X16845413Y-8493207D01*
X16947273Y-8520500D01*
X16947275Y-8520500D01*
X17052725Y-8520500D01*
X17052727Y-8520500D01*
X17052728Y-8520499D01*
X17060783Y-8519439D01*
X17061076Y-8521664D01*
X17119256Y-8523040D01*
X17177125Y-8562192D01*
X17204641Y-8626416D01*
X17201295Y-8673249D01*
X17189500Y-8717268D01*
X17189500Y-8717273D01*
X17189500Y-8822727D01*
X17216793Y-8924587D01*
X17269520Y-9015913D01*
X17344087Y-9090480D01*
X17435413Y-9143207D01*
X17537273Y-9170500D01*
X17537275Y-9170500D01*
X17642725Y-9170500D01*
X17642727Y-9170500D01*
X17744587Y-9143207D01*
X17835913Y-9090480D01*
X17910480Y-9015913D01*
X17963207Y-8924587D01*
X17990500Y-8822727D01*
X17990500Y-8717273D01*
X17963207Y-8615413D01*
X17910480Y-8524087D01*
X17835913Y-8449520D01*
X17744587Y-8396793D01*
X17642727Y-8369500D01*
X17537273Y-8369500D01*
X17537271Y-8369500D01*
X17529217Y-8370561D01*
X17528924Y-8368340D01*
X17470712Y-8366950D01*
X17412853Y-8327782D01*
X17385355Y-8263551D01*
X17388703Y-8216752D01*
X17400500Y-8172727D01*
X17400500Y-8067273D01*
X17373207Y-7965413D01*
X17320480Y-7874087D01*
X17245913Y-7799520D01*
X17154587Y-7746793D01*
X17052727Y-7719500D01*
X16947273Y-7719500D01*
X16845413Y-7746793D01*
X16845410Y-7746794D01*
X16754085Y-7799521D01*
X16679521Y-7874085D01*
X16626794Y-7965410D01*
X16626793Y-7965413D01*
X16599500Y-8067273D01*
X16277425Y-8067273D01*
X16255008Y-7983612D01*
X16202281Y-7892286D01*
X16127714Y-7817719D01*
X16039509Y-7766794D01*
X16036390Y-7764993D01*
X16036389Y-7764992D01*
X16036388Y-7764992D01*
X15934528Y-7737699D01*
X15829074Y-7737699D01*
X15727214Y-7764992D01*
X15727211Y-7764993D01*
X15635886Y-7817720D01*
X15561322Y-7892284D01*
X15508595Y-7983609D01*
X15508594Y-7983612D01*
X15481301Y-8085472D01*
X14920017Y-8085472D01*
X14893207Y-7985413D01*
X14840480Y-7894087D01*
X14765913Y-7819520D01*
X14674587Y-7766793D01*
X14572727Y-7739500D01*
X14467273Y-7739500D01*
X14365413Y-7766793D01*
X14365410Y-7766794D01*
X14274085Y-7819521D01*
X14199521Y-7894085D01*
X14146794Y-7985410D01*
X14146793Y-7985413D01*
X14119500Y-8087273D01*
X13606960Y-8087273D01*
X13570480Y-8024087D01*
X13495913Y-7949520D01*
X13404587Y-7896793D01*
X13302727Y-7869500D01*
X13197273Y-7869500D01*
X13095413Y-7896793D01*
X13095410Y-7896794D01*
X13004085Y-7949521D01*
X12929521Y-8024085D01*
X12876794Y-8115410D01*
X12876794Y-8115411D01*
X12876793Y-8115413D01*
X12849500Y-8217273D01*
X12367103Y-8217273D01*
X12353207Y-8165413D01*
X12300480Y-8074087D01*
X12225913Y-7999520D01*
X12139312Y-7949521D01*
X12134589Y-7946794D01*
X12134588Y-7946793D01*
X12134587Y-7946793D01*
X12032727Y-7919500D01*
X11927273Y-7919500D01*
X11825413Y-7946793D01*
X11825410Y-7946794D01*
X11734085Y-7999521D01*
X11659521Y-8074085D01*
X11606794Y-8165410D01*
X11606793Y-8165413D01*
X11579500Y-8267273D01*
X-22398500Y-8267273D01*
X-22398500Y-6317273D01*
X1279500Y-6317273D01*
X1279500Y-6422727D01*
X1306793Y-6524587D01*
X1359520Y-6615913D01*
X1434087Y-6690480D01*
X1525413Y-6743207D01*
X1627273Y-6770500D01*
X1627275Y-6770500D01*
X1732725Y-6770500D01*
X1732727Y-6770500D01*
X1834587Y-6743207D01*
X1925913Y-6690480D01*
X2000480Y-6615913D01*
X2053207Y-6524587D01*
X2080500Y-6422727D01*
X2080500Y-6317273D01*
X2053207Y-6215413D01*
X2000480Y-6124087D01*
X1925913Y-6049520D01*
X1834587Y-5996793D01*
X1732727Y-5969500D01*
X1627273Y-5969500D01*
X1525413Y-5996793D01*
X1525410Y-5996794D01*
X1434085Y-6049521D01*
X1359521Y-6124085D01*
X1306794Y-6215410D01*
X1306793Y-6215413D01*
X1279500Y-6317273D01*
X-22398500Y-6317273D01*
X-22398500Y-4987273D01*
X7499500Y-4987273D01*
X7499500Y-5092727D01*
X7526793Y-5194587D01*
X7579520Y-5285913D01*
X7654087Y-5360480D01*
X7745413Y-5413207D01*
X7847273Y-5440500D01*
X7847275Y-5440500D01*
X7952725Y-5440500D01*
X7952727Y-5440500D01*
X8054587Y-5413207D01*
X8145913Y-5360480D01*
X8220480Y-5285913D01*
X8273207Y-5194587D01*
X8300500Y-5092727D01*
X8300500Y-4987273D01*
X8273207Y-4885413D01*
X8220480Y-4794087D01*
X8145913Y-4719520D01*
X8054587Y-4666793D01*
X7952727Y-4639500D01*
X7847273Y-4639500D01*
X7745413Y-4666793D01*
X7745410Y-4666794D01*
X7654085Y-4719521D01*
X7579521Y-4794085D01*
X7526794Y-4885410D01*
X7526793Y-4885413D01*
X7499500Y-4987273D01*
X-22398500Y-4987273D01*
X-22398500Y-3067273D01*
X-15500500Y-3067273D01*
X-15500500Y-3172727D01*
X-15473207Y-3274587D01*
X-15420480Y-3365913D01*
X-15345913Y-3440480D01*
X-15254587Y-3493207D01*
X-15152727Y-3520500D01*
X-15152725Y-3520500D01*
X-15047275Y-3520500D01*
X-15047273Y-3520500D01*
X-14945413Y-3493207D01*
X-14854087Y-3440480D01*
X-14779520Y-3365913D01*
X-14726793Y-3274587D01*
X-14714115Y-3227273D01*
X-4140500Y-3227273D01*
X-4140500Y-3332727D01*
X-4113207Y-3434587D01*
X-4060480Y-3525913D01*
X-3985913Y-3600480D01*
X-3894587Y-3653207D01*
X-3792727Y-3680500D01*
X-3792725Y-3680500D01*
X-3687275Y-3680500D01*
X-3687273Y-3680500D01*
X-3585413Y-3653207D01*
X-3494087Y-3600480D01*
X-3419520Y-3525913D01*
X-3366793Y-3434587D01*
X-3339500Y-3332727D01*
X-3339500Y-3269074D01*
X857699Y-3269074D01*
X857699Y-3374528D01*
X884992Y-3476388D01*
X937719Y-3567714D01*
X1012286Y-3642281D01*
X1103612Y-3695008D01*
X1205472Y-3722301D01*
X1205474Y-3722301D01*
X1310924Y-3722301D01*
X1310926Y-3722301D01*
X1412786Y-3695008D01*
X1504112Y-3642281D01*
X1578679Y-3567714D01*
X1631406Y-3476388D01*
X1658699Y-3374528D01*
X1658699Y-3269074D01*
X1631406Y-3167214D01*
X1578679Y-3075888D01*
X1504112Y-3001321D01*
X1412786Y-2948594D01*
X1310926Y-2921301D01*
X1205472Y-2921301D01*
X1103612Y-2948594D01*
X1103609Y-2948595D01*
X1012284Y-3001322D01*
X937720Y-3075886D01*
X884993Y-3167211D01*
X884992Y-3167214D01*
X857699Y-3269074D01*
X-3339500Y-3269074D01*
X-3339500Y-3227273D01*
X-3366793Y-3125413D01*
X-3366794Y-3125410D01*
X-3419521Y-3034085D01*
X-3494085Y-2959521D01*
X-3585410Y-2906794D01*
X-3585413Y-2906793D01*
X-3687273Y-2879500D01*
X-3792727Y-2879500D01*
X-3894587Y-2906793D01*
X-3985913Y-2959520D01*
X-4060480Y-3034087D01*
X-4113207Y-3125413D01*
X-4140500Y-3227273D01*
X-14714115Y-3227273D01*
X-14699500Y-3172727D01*
X-14699500Y-3067273D01*
X-14726793Y-2965413D01*
X-14726794Y-2965410D01*
X-14779521Y-2874085D01*
X-14834333Y-2819273D01*
X1954917Y-2819273D01*
X1954917Y-2924727D01*
X1982210Y-3026587D01*
X2034937Y-3117913D01*
X2109504Y-3192480D01*
X2200830Y-3245207D01*
X2302690Y-3272500D01*
X2302692Y-3272500D01*
X2307301Y-3272500D01*
X2374340Y-3292185D01*
X2420095Y-3344989D01*
X2431301Y-3396500D01*
X2431301Y-3437623D01*
X2458594Y-3539483D01*
X2511321Y-3630809D01*
X2585888Y-3705376D01*
X2677214Y-3758103D01*
X2779074Y-3785396D01*
X2779076Y-3785396D01*
X2814768Y-3785396D01*
X2881807Y-3805081D01*
X2927562Y-3857885D01*
X2938768Y-3909396D01*
X2938768Y-3919786D01*
X2966061Y-4021646D01*
X3018788Y-4112972D01*
X3093355Y-4187539D01*
X3184681Y-4240266D01*
X3286541Y-4267559D01*
X3286543Y-4267559D01*
X3396794Y-4267559D01*
X3463833Y-4287244D01*
X3509588Y-4340048D01*
X3520794Y-4391559D01*
X3520794Y-4483187D01*
X3548087Y-4585047D01*
X3600814Y-4676373D01*
X3675381Y-4750940D01*
X3766707Y-4803667D01*
X3868567Y-4830960D01*
X3868569Y-4830960D01*
X3974019Y-4830960D01*
X3974021Y-4830960D01*
X4075881Y-4803667D01*
X4167207Y-4750940D01*
X4241774Y-4676373D01*
X4281669Y-4607273D01*
X12299500Y-4607273D01*
X12299500Y-4712727D01*
X12326793Y-4814587D01*
X12379520Y-4905913D01*
X12454087Y-4980480D01*
X12545413Y-5033207D01*
X12647273Y-5060500D01*
X12647275Y-5060500D01*
X12752725Y-5060500D01*
X12752727Y-5060500D01*
X12854587Y-5033207D01*
X12945913Y-4980480D01*
X13020480Y-4905913D01*
X13073207Y-4814587D01*
X13100500Y-4712727D01*
X13100500Y-4647273D01*
X17079500Y-4647273D01*
X17079500Y-4752727D01*
X17106793Y-4854587D01*
X17159520Y-4945913D01*
X17234087Y-5020480D01*
X17325413Y-5073207D01*
X17427273Y-5100500D01*
X17427275Y-5100500D01*
X17532725Y-5100500D01*
X17532727Y-5100500D01*
X17634587Y-5073207D01*
X17725913Y-5020480D01*
X17800480Y-4945913D01*
X17853207Y-4854587D01*
X17880500Y-4752727D01*
X17880500Y-4647273D01*
X17853207Y-4545413D01*
X17800480Y-4454087D01*
X17725913Y-4379520D01*
X17634587Y-4326793D01*
X17532727Y-4299500D01*
X17427273Y-4299500D01*
X17325413Y-4326793D01*
X17325410Y-4326794D01*
X17234085Y-4379521D01*
X17159521Y-4454085D01*
X17106794Y-4545410D01*
X17106793Y-4545413D01*
X17079500Y-4647273D01*
X13100500Y-4647273D01*
X13100500Y-4607273D01*
X13073207Y-4505413D01*
X13020480Y-4414087D01*
X12945913Y-4339520D01*
X12854587Y-4286793D01*
X12752727Y-4259500D01*
X12647273Y-4259500D01*
X12545413Y-4286793D01*
X12545410Y-4286794D01*
X12454085Y-4339521D01*
X12379521Y-4414085D01*
X12326794Y-4505410D01*
X12326793Y-4505413D01*
X12299500Y-4607273D01*
X4281669Y-4607273D01*
X4294501Y-4585047D01*
X4321794Y-4483187D01*
X4321794Y-4377733D01*
X4294501Y-4275873D01*
X4271699Y-4236379D01*
X22759500Y-4236379D01*
X22759500Y-4423620D01*
X22796025Y-4607243D01*
X22796027Y-4607251D01*
X22867676Y-4780228D01*
X22867681Y-4780237D01*
X22971697Y-4935907D01*
X22971700Y-4935911D01*
X23104088Y-5068299D01*
X23104092Y-5068302D01*
X23259762Y-5172318D01*
X23259768Y-5172321D01*
X23259769Y-5172322D01*
X23432749Y-5243973D01*
X23616379Y-5280499D01*
X23616383Y-5280500D01*
X23616384Y-5280500D01*
X23803617Y-5280500D01*
X23803618Y-5280499D01*
X23987251Y-5243973D01*
X24160231Y-5172322D01*
X24315908Y-5068302D01*
X24448302Y-4935908D01*
X24552322Y-4780231D01*
X24623973Y-4607251D01*
X24660500Y-4423616D01*
X24660500Y-4236384D01*
X24623973Y-4052749D01*
X24552322Y-3879769D01*
X24552321Y-3879768D01*
X24552318Y-3879762D01*
X24448302Y-3724092D01*
X24448299Y-3724088D01*
X24315911Y-3591700D01*
X24315907Y-3591697D01*
X24160237Y-3487681D01*
X24160228Y-3487676D01*
X23987251Y-3416027D01*
X23987243Y-3416025D01*
X23803620Y-3379500D01*
X23803616Y-3379500D01*
X23616384Y-3379500D01*
X23616379Y-3379500D01*
X23432756Y-3416025D01*
X23432748Y-3416027D01*
X23259771Y-3487676D01*
X23259762Y-3487681D01*
X23104092Y-3591697D01*
X23104088Y-3591700D01*
X22971700Y-3724088D01*
X22971697Y-3724092D01*
X22867681Y-3879762D01*
X22867676Y-3879771D01*
X22796027Y-4052748D01*
X22796025Y-4052756D01*
X22759500Y-4236379D01*
X4271699Y-4236379D01*
X4241774Y-4184547D01*
X4167207Y-4109980D01*
X4075881Y-4057253D01*
X3974021Y-4029960D01*
X3868567Y-4029960D01*
X3863768Y-4029960D01*
X3796729Y-4010275D01*
X3750974Y-3957471D01*
X3739768Y-3905960D01*
X3739768Y-3814334D01*
X3739768Y-3814332D01*
X3712475Y-3712472D01*
X3659748Y-3621146D01*
X3585181Y-3546579D01*
X3493855Y-3493852D01*
X3391995Y-3466559D01*
X3356301Y-3466559D01*
X3289262Y-3446874D01*
X3243507Y-3394070D01*
X3232301Y-3342559D01*
X3232301Y-3332171D01*
X3232301Y-3332169D01*
X3205008Y-3230309D01*
X3152281Y-3138983D01*
X3077714Y-3064416D01*
X2986388Y-3011689D01*
X2884528Y-2984396D01*
X2879917Y-2984396D01*
X2812878Y-2964711D01*
X2767123Y-2911907D01*
X2757594Y-2880723D01*
X2755917Y-2870631D01*
X2755917Y-2819273D01*
X2728624Y-2717413D01*
X2728543Y-2717273D01*
X16139500Y-2717273D01*
X16139500Y-2822727D01*
X16166793Y-2924587D01*
X16219520Y-3015913D01*
X16294087Y-3090480D01*
X16385413Y-3143207D01*
X16487273Y-3170500D01*
X16487275Y-3170500D01*
X16592725Y-3170500D01*
X16592727Y-3170500D01*
X16694587Y-3143207D01*
X16785913Y-3090480D01*
X16860480Y-3015913D01*
X16913207Y-2924587D01*
X16940500Y-2822727D01*
X16940500Y-2717273D01*
X16913207Y-2615413D01*
X16911394Y-2612273D01*
X18499500Y-2612273D01*
X18499500Y-2717727D01*
X18526793Y-2819587D01*
X18579520Y-2910913D01*
X18654087Y-2985480D01*
X18745413Y-3038207D01*
X18847273Y-3065500D01*
X18847275Y-3065500D01*
X18952725Y-3065500D01*
X18952727Y-3065500D01*
X19054587Y-3038207D01*
X19145913Y-2985480D01*
X19220480Y-2910913D01*
X19273207Y-2819587D01*
X19300500Y-2717727D01*
X19300500Y-2612273D01*
X19273207Y-2510413D01*
X19220480Y-2419087D01*
X19145913Y-2344520D01*
X19054587Y-2291793D01*
X18952727Y-2264500D01*
X18847273Y-2264500D01*
X18745413Y-2291793D01*
X18745410Y-2291794D01*
X18654085Y-2344521D01*
X18579521Y-2419085D01*
X18526794Y-2510410D01*
X18526793Y-2510413D01*
X18499500Y-2612273D01*
X16911394Y-2612273D01*
X16860480Y-2524087D01*
X16785913Y-2449520D01*
X16694587Y-2396793D01*
X16592727Y-2369500D01*
X16487273Y-2369500D01*
X16385413Y-2396793D01*
X16385410Y-2396794D01*
X16294085Y-2449521D01*
X16219521Y-2524085D01*
X16166794Y-2615410D01*
X16166794Y-2615411D01*
X16166793Y-2615413D01*
X16139500Y-2717273D01*
X2728543Y-2717273D01*
X2675897Y-2626087D01*
X2601330Y-2551520D01*
X2534476Y-2512922D01*
X2510006Y-2498794D01*
X2510005Y-2498793D01*
X2510004Y-2498793D01*
X2408144Y-2471500D01*
X2302690Y-2471500D01*
X2200830Y-2498793D01*
X2200827Y-2498794D01*
X2109502Y-2551521D01*
X2034938Y-2626085D01*
X1982211Y-2717410D01*
X1982211Y-2717411D01*
X1982210Y-2717413D01*
X1954917Y-2819273D01*
X-14834333Y-2819273D01*
X-14854085Y-2799521D01*
X-14945410Y-2746794D01*
X-14945413Y-2746793D01*
X-15047273Y-2719500D01*
X-15152727Y-2719500D01*
X-15254587Y-2746793D01*
X-15345913Y-2799520D01*
X-15420480Y-2874087D01*
X-15473207Y-2965413D01*
X-15500500Y-3067273D01*
X-22398500Y-3067273D01*
X-22398500Y-1986233D01*
X-19850500Y-1986233D01*
X-19850500Y-2153767D01*
X-19817816Y-2318082D01*
X-19753703Y-2472863D01*
X-19660626Y-2612162D01*
X-19542162Y-2730626D01*
X-19402863Y-2823703D01*
X-19248082Y-2887816D01*
X-19083769Y-2920499D01*
X-19083768Y-2920500D01*
X-19083767Y-2920500D01*
X-18916232Y-2920500D01*
X-18916228Y-2920499D01*
X-18868041Y-2910914D01*
X-18751918Y-2887816D01*
X-18597137Y-2823703D01*
X-18550494Y-2792537D01*
X-18457837Y-2730626D01*
X-18339373Y-2612162D01*
X-18246295Y-2472860D01*
X-18182184Y-2318082D01*
X-18182182Y-2318074D01*
X-18149500Y-2153771D01*
X-18149500Y-1986228D01*
X-18182182Y-1821925D01*
X-18182184Y-1821917D01*
X-18225809Y-1716599D01*
X-18242097Y-1677273D01*
X-2380500Y-1677273D01*
X-2380500Y-1782727D01*
X-2353207Y-1884587D01*
X-2300480Y-1975913D01*
X-2225913Y-2050480D01*
X-2134587Y-2103207D01*
X-2032727Y-2130500D01*
X-2032725Y-2130500D01*
X-1927275Y-2130500D01*
X-1927273Y-2130500D01*
X-1825413Y-2103207D01*
X-1734087Y-2050480D01*
X-1659520Y-1975913D01*
X-1606793Y-1884587D01*
X-1579500Y-1782727D01*
X-1579500Y-1677273D01*
X-1606793Y-1575413D01*
X-1606794Y-1575410D01*
X-1659521Y-1484085D01*
X-1734085Y-1409521D01*
X-1825410Y-1356794D01*
X-1825413Y-1356793D01*
X-1927273Y-1329500D01*
X-2032727Y-1329500D01*
X-2134587Y-1356793D01*
X-2225913Y-1409520D01*
X-2300480Y-1484087D01*
X-2353207Y-1575413D01*
X-2380500Y-1677273D01*
X-18242097Y-1677273D01*
X-18246295Y-1667138D01*
X-18339373Y-1527837D01*
X-18457837Y-1409373D01*
X-18597139Y-1316295D01*
X-18751917Y-1252184D01*
X-18751925Y-1252182D01*
X-18916228Y-1219500D01*
X-18916233Y-1219500D01*
X-19083767Y-1219500D01*
X-19083771Y-1219500D01*
X-19248074Y-1252182D01*
X-19248082Y-1252184D01*
X-19402860Y-1316295D01*
X-19542162Y-1409373D01*
X-19660626Y-1527837D01*
X-19675160Y-1549589D01*
X-19753703Y-1667137D01*
X-19817816Y-1821918D01*
X-19850500Y-1986233D01*
X-22398500Y-1986233D01*
X-22398500Y-137273D01*
X1849500Y-137273D01*
X1849500Y-242727D01*
X1876793Y-344587D01*
X1929520Y-435913D01*
X2004087Y-510480D01*
X2095413Y-563207D01*
X2197273Y-590500D01*
X2197275Y-590500D01*
X2302725Y-590500D01*
X2302727Y-590500D01*
X2404587Y-563207D01*
X2495913Y-510480D01*
X2570480Y-435913D01*
X2623207Y-344587D01*
X2650500Y-242727D01*
X2650500Y-137273D01*
X2623207Y-35413D01*
X2570480Y55913D01*
X2495913Y130480D01*
X2404587Y183207D01*
X2302727Y210500D01*
X2197273Y210500D01*
X2095413Y183207D01*
X2004087Y130480D01*
X1929520Y55913D01*
X1916919Y34087D01*
X1876794Y-35410D01*
X1876793Y-35413D01*
X1849500Y-137273D01*
X-22398500Y-137273D01*
X-22398500Y1032726D01*
X9009500Y1032726D01*
X9009500Y927273D01*
X9036793Y825413D01*
X9036794Y825410D01*
X9089521Y734085D01*
X9164085Y659521D01*
X9255410Y606794D01*
X9255413Y606793D01*
X9357273Y579500D01*
X9462726Y579500D01*
X9462727Y579500D01*
X9564587Y606793D01*
X9564589Y606794D01*
X9564591Y606795D01*
X9571258Y610644D01*
X9639158Y627115D01*
X9705185Y604262D01*
X9748374Y549340D01*
X9755015Y479787D01*
X9740644Y441258D01*
X9736795Y434591D01*
X9736793Y434586D01*
X9709500Y332726D01*
X9709500Y227273D01*
X9736793Y125413D01*
X9736795Y125408D01*
X9740646Y118738D01*
X9757115Y50837D01*
X9734260Y-15189D01*
X9679337Y-58377D01*
X9609783Y-65015D01*
X9571256Y-50643D01*
X9564587Y-46793D01*
X9462727Y-19500D01*
X9357273Y-19500D01*
X9255413Y-46793D01*
X9255410Y-46794D01*
X9164085Y-99521D01*
X9089521Y-174085D01*
X9036794Y-265410D01*
X9036793Y-265413D01*
X9009500Y-367273D01*
X9009500Y-472727D01*
X9036793Y-574587D01*
X9089520Y-665913D01*
X9164087Y-740480D01*
X9255413Y-793207D01*
X9357273Y-820500D01*
X9357275Y-820500D01*
X9462725Y-820500D01*
X9462727Y-820500D01*
X9564587Y-793207D01*
X9571254Y-789357D01*
X9639152Y-772883D01*
X9705179Y-795733D01*
X9748372Y-850653D01*
X9755016Y-920206D01*
X9740646Y-958738D01*
X9736795Y-965408D01*
X9736793Y-965413D01*
X9709500Y-1067273D01*
X9709500Y-1172727D01*
X9736793Y-1274587D01*
X9789520Y-1365913D01*
X9864087Y-1440480D01*
X9955413Y-1493207D01*
X10057273Y-1520500D01*
X10057275Y-1520500D01*
X10162725Y-1520500D01*
X10162727Y-1520500D01*
X10264587Y-1493207D01*
X10355913Y-1440480D01*
X10430480Y-1365913D01*
X10483207Y-1274587D01*
X10510500Y-1172727D01*
X10510500Y-1067273D01*
X10483207Y-965413D01*
X10479355Y-958742D01*
X10462883Y-890844D01*
X10485735Y-824817D01*
X10540656Y-781626D01*
X10610209Y-774984D01*
X10648740Y-789354D01*
X10655413Y-793207D01*
X10757273Y-820500D01*
X10757275Y-820500D01*
X10862725Y-820500D01*
X10862727Y-820500D01*
X10964587Y-793207D01*
X10971254Y-789357D01*
X11039152Y-772883D01*
X11105179Y-795733D01*
X11148372Y-850653D01*
X11155016Y-920206D01*
X11140646Y-958738D01*
X11136795Y-965408D01*
X11136793Y-965413D01*
X11109500Y-1067273D01*
X11109500Y-1172727D01*
X11136793Y-1274587D01*
X11189520Y-1365913D01*
X11264087Y-1440480D01*
X11355413Y-1493207D01*
X11457273Y-1520500D01*
X11457275Y-1520500D01*
X11562725Y-1520500D01*
X11562727Y-1520500D01*
X11664587Y-1493207D01*
X11755913Y-1440480D01*
X11830480Y-1365913D01*
X11844129Y-1342273D01*
X18499500Y-1342273D01*
X18499500Y-1447727D01*
X18526793Y-1549587D01*
X18579520Y-1640913D01*
X18654087Y-1715480D01*
X18745413Y-1768207D01*
X18847273Y-1795500D01*
X18847275Y-1795500D01*
X18952725Y-1795500D01*
X18952727Y-1795500D01*
X19054587Y-1768207D01*
X19145913Y-1715480D01*
X19165014Y-1696379D01*
X22759500Y-1696379D01*
X22759500Y-1883620D01*
X22796025Y-2067243D01*
X22796027Y-2067251D01*
X22867676Y-2240228D01*
X22867681Y-2240237D01*
X22971697Y-2395907D01*
X22971700Y-2395911D01*
X23104088Y-2528299D01*
X23104092Y-2528302D01*
X23259762Y-2632318D01*
X23259768Y-2632321D01*
X23259769Y-2632322D01*
X23432749Y-2703973D01*
X23566744Y-2730626D01*
X23616379Y-2740499D01*
X23616383Y-2740500D01*
X23616384Y-2740500D01*
X23803617Y-2740500D01*
X23803618Y-2740499D01*
X23987251Y-2703973D01*
X24160231Y-2632322D01*
X24315908Y-2528302D01*
X24448302Y-2395908D01*
X24552322Y-2240231D01*
X24623973Y-2067251D01*
X24660500Y-1883616D01*
X24660500Y-1696384D01*
X24623973Y-1512749D01*
X24552322Y-1339769D01*
X24552321Y-1339768D01*
X24552318Y-1339762D01*
X24448302Y-1184092D01*
X24448299Y-1184088D01*
X24315911Y-1051700D01*
X24315907Y-1051697D01*
X24160237Y-947681D01*
X24160228Y-947676D01*
X23987251Y-876027D01*
X23987243Y-876025D01*
X23803620Y-839500D01*
X23803616Y-839500D01*
X23616384Y-839500D01*
X23616379Y-839500D01*
X23432756Y-876025D01*
X23432748Y-876027D01*
X23259771Y-947676D01*
X23259762Y-947681D01*
X23104092Y-1051697D01*
X23104088Y-1051700D01*
X22971700Y-1184088D01*
X22971697Y-1184092D01*
X22867681Y-1339762D01*
X22867676Y-1339771D01*
X22796027Y-1512748D01*
X22796025Y-1512756D01*
X22759500Y-1696379D01*
X19165014Y-1696379D01*
X19220480Y-1640913D01*
X19273207Y-1549587D01*
X19300500Y-1447727D01*
X19300500Y-1342273D01*
X19273207Y-1240413D01*
X19220480Y-1149087D01*
X19145913Y-1074520D01*
X19054587Y-1021793D01*
X18952727Y-994500D01*
X18847273Y-994500D01*
X18745413Y-1021793D01*
X18745410Y-1021794D01*
X18654085Y-1074521D01*
X18579521Y-1149085D01*
X18526794Y-1240410D01*
X18526793Y-1240413D01*
X18499500Y-1342273D01*
X11844129Y-1342273D01*
X11883207Y-1274587D01*
X11910500Y-1172727D01*
X11910500Y-1067273D01*
X11883207Y-965413D01*
X11879355Y-958742D01*
X11862883Y-890844D01*
X11885735Y-824817D01*
X11940656Y-781626D01*
X12010209Y-774984D01*
X12048740Y-789354D01*
X12055413Y-793207D01*
X12157273Y-820500D01*
X12157275Y-820500D01*
X12262725Y-820500D01*
X12262727Y-820500D01*
X12364587Y-793207D01*
X12455913Y-740480D01*
X12530480Y-665913D01*
X12583207Y-574587D01*
X12610500Y-472727D01*
X12610500Y-367273D01*
X12583207Y-265413D01*
X12572734Y-247273D01*
X13729500Y-247273D01*
X13729500Y-352727D01*
X13754353Y-445478D01*
X13756793Y-454586D01*
X13756794Y-454589D01*
X13767266Y-472727D01*
X13809520Y-545913D01*
X13884087Y-620480D01*
X13975413Y-673207D01*
X14077273Y-700500D01*
X14077275Y-700500D01*
X14182725Y-700500D01*
X14182727Y-700500D01*
X14284587Y-673207D01*
X14375913Y-620480D01*
X14450480Y-545913D01*
X14503207Y-454587D01*
X14530500Y-352727D01*
X14530500Y-247273D01*
X14503207Y-145413D01*
X14460980Y-72273D01*
X18399500Y-72273D01*
X18399500Y-177727D01*
X18426793Y-279587D01*
X18479520Y-370913D01*
X18554087Y-445480D01*
X18645413Y-498207D01*
X18747273Y-525500D01*
X18747275Y-525500D01*
X18852725Y-525500D01*
X18852727Y-525500D01*
X18954587Y-498207D01*
X19045913Y-445480D01*
X19120480Y-370913D01*
X19173207Y-279587D01*
X19200500Y-177727D01*
X19200500Y-72273D01*
X19173207Y29587D01*
X19120480Y120913D01*
X19045913Y195480D01*
X18954587Y248207D01*
X18852727Y275500D01*
X18747273Y275500D01*
X18645413Y248207D01*
X18554087Y195480D01*
X18479520Y120913D01*
X18426793Y29587D01*
X18399500Y-72273D01*
X14460980Y-72273D01*
X14450480Y-54087D01*
X14375913Y20480D01*
X14284587Y73207D01*
X14182727Y100500D01*
X14077273Y100500D01*
X13975413Y73207D01*
X13884087Y20480D01*
X13884085Y20478D01*
X13809521Y-54085D01*
X13756794Y-145410D01*
X13756793Y-145413D01*
X13729500Y-247273D01*
X12572734Y-247273D01*
X12530480Y-174087D01*
X12455913Y-99520D01*
X12364587Y-46793D01*
X12262727Y-19500D01*
X12157273Y-19500D01*
X12055413Y-46793D01*
X12048742Y-50644D01*
X11980844Y-67117D01*
X11914817Y-44265D01*
X11871626Y10656D01*
X11864984Y80209D01*
X11879354Y118740D01*
X11883207Y125413D01*
X11910500Y227273D01*
X11910500Y332727D01*
X11883207Y434587D01*
X11879357Y441254D01*
X11862883Y509152D01*
X11885733Y575179D01*
X11940653Y618372D01*
X12010206Y625016D01*
X12048738Y610646D01*
X12055408Y606795D01*
X12055411Y606794D01*
X12055413Y606793D01*
X12157273Y579500D01*
X12262726Y579500D01*
X12262727Y579500D01*
X12364587Y606793D01*
X12364591Y606795D01*
X12438308Y649356D01*
X12455913Y659520D01*
X12530480Y734087D01*
X12583207Y825413D01*
X12610500Y927273D01*
X12610500Y1032727D01*
X12583207Y1134587D01*
X12543867Y1202726D01*
X18149500Y1202726D01*
X18149500Y1097273D01*
X18176793Y995413D01*
X18176794Y995410D01*
X18229521Y904085D01*
X18304085Y829521D01*
X18395410Y776794D01*
X18395413Y776793D01*
X18497273Y749500D01*
X18602726Y749500D01*
X18602727Y749500D01*
X18704587Y776793D01*
X18795913Y829520D01*
X18810013Y843620D01*
X22759500Y843620D01*
X22759500Y656379D01*
X22796025Y472756D01*
X22796027Y472748D01*
X22867676Y299771D01*
X22867681Y299762D01*
X22971697Y144092D01*
X22971700Y144088D01*
X23104088Y11700D01*
X23104092Y11697D01*
X23259762Y-92318D01*
X23259771Y-92323D01*
X23268004Y-95733D01*
X23432749Y-163973D01*
X23567840Y-190844D01*
X23616379Y-200499D01*
X23616383Y-200500D01*
X23616384Y-200500D01*
X23803617Y-200500D01*
X23803618Y-200499D01*
X23987251Y-163973D01*
X24160231Y-92322D01*
X24189324Y-72883D01*
X24315907Y11697D01*
X24315911Y11700D01*
X24448299Y144088D01*
X24448302Y144092D01*
X24552318Y299762D01*
X24552323Y299771D01*
X24608165Y434586D01*
X24623973Y472749D01*
X24660500Y656384D01*
X24660500Y843616D01*
X24623973Y1027251D01*
X24552322Y1200231D01*
X24448302Y1355908D01*
X24315908Y1488302D01*
X24160231Y1592322D01*
X23987251Y1663973D01*
X23803618Y1700499D01*
X23803617Y1700500D01*
X23803616Y1700500D01*
X23616384Y1700500D01*
X23616383Y1700500D01*
X23616379Y1700499D01*
X23432749Y1663973D01*
X23344153Y1627275D01*
X23259771Y1592323D01*
X23259762Y1592318D01*
X23104092Y1488302D01*
X23104088Y1488299D01*
X22971700Y1355911D01*
X22971697Y1355907D01*
X22867681Y1200237D01*
X22867676Y1200228D01*
X22796027Y1027251D01*
X22796025Y1027243D01*
X22759500Y843620D01*
X18810013Y843620D01*
X18870480Y904087D01*
X18923207Y995413D01*
X18950500Y1097273D01*
X18950500Y1202727D01*
X18923207Y1304587D01*
X18870480Y1395913D01*
X18795913Y1470480D01*
X18704587Y1523207D01*
X18602727Y1550500D01*
X18497273Y1550500D01*
X18395413Y1523207D01*
X18304087Y1470480D01*
X18229520Y1395913D01*
X18220621Y1380499D01*
X18178067Y1306793D01*
X18176793Y1304587D01*
X18168914Y1275179D01*
X18149500Y1202726D01*
X12543867Y1202726D01*
X12530480Y1225913D01*
X12455913Y1300480D01*
X12364587Y1353207D01*
X12262727Y1380500D01*
X12157273Y1380500D01*
X12055413Y1353207D01*
X12048742Y1349355D01*
X11980844Y1332883D01*
X11914817Y1355735D01*
X11871626Y1410656D01*
X11864984Y1480209D01*
X11879354Y1518740D01*
X11883207Y1525413D01*
X11910500Y1627273D01*
X11910500Y1732727D01*
X11883207Y1834587D01*
X11830480Y1925913D01*
X11755913Y2000480D01*
X11664587Y2053207D01*
X11562727Y2080500D01*
X11457273Y2080500D01*
X11355413Y2053207D01*
X11264087Y2000480D01*
X11264085Y2000478D01*
X11189521Y1925914D01*
X11136794Y1834589D01*
X11136793Y1834586D01*
X11109500Y1732726D01*
X11109500Y1627273D01*
X11136793Y1525413D01*
X11136795Y1525408D01*
X11140646Y1518738D01*
X11157115Y1450837D01*
X11134260Y1384811D01*
X11079337Y1341623D01*
X11009783Y1334985D01*
X10971256Y1349356D01*
X10964587Y1353207D01*
X10862727Y1380500D01*
X10757273Y1380500D01*
X10655413Y1353207D01*
X10648742Y1349355D01*
X10580844Y1332883D01*
X10514817Y1355735D01*
X10471626Y1410656D01*
X10464984Y1480209D01*
X10479354Y1518740D01*
X10483207Y1525413D01*
X10510500Y1627273D01*
X10510500Y1732727D01*
X10483207Y1834587D01*
X10430480Y1925913D01*
X10355913Y2000480D01*
X10264587Y2053207D01*
X10162727Y2080500D01*
X10057273Y2080500D01*
X9955413Y2053207D01*
X9864087Y2000480D01*
X9864085Y2000478D01*
X9789521Y1925914D01*
X9736794Y1834589D01*
X9736793Y1834586D01*
X9709500Y1732726D01*
X9709500Y1627273D01*
X9736793Y1525413D01*
X9736795Y1525408D01*
X9740646Y1518738D01*
X9757115Y1450837D01*
X9734260Y1384811D01*
X9679337Y1341623D01*
X9609783Y1334985D01*
X9571256Y1349356D01*
X9564587Y1353207D01*
X9462727Y1380500D01*
X9357273Y1380500D01*
X9255413Y1353207D01*
X9164087Y1300480D01*
X9089520Y1225913D01*
X9036793Y1134587D01*
X9026796Y1097275D01*
X9009500Y1032726D01*
X-22398500Y1032726D01*
X-22398500Y1862727D01*
X-15910500Y1862727D01*
X-15910500Y1757273D01*
X-15883207Y1655413D01*
X-15830480Y1564087D01*
X-15755913Y1489520D01*
X-15664587Y1436793D01*
X-15562727Y1409500D01*
X-15562726Y1409500D01*
X-15457273Y1409500D01*
X-15355413Y1436793D01*
X-15355410Y1436794D01*
X-15264085Y1489521D01*
X-15189521Y1564085D01*
X-15136794Y1655410D01*
X-15136793Y1655413D01*
X-15109500Y1757273D01*
X-15109500Y1862726D01*
X-15126430Y1925913D01*
X-15136793Y1964587D01*
X-15189520Y2055913D01*
X-15264087Y2130480D01*
X-15355413Y2183207D01*
X-15457273Y2210500D01*
X-15562727Y2210500D01*
X-15664587Y2183207D01*
X-15755913Y2130480D01*
X-15830480Y2055913D01*
X-15883207Y1964587D01*
X-15910500Y1862727D01*
X-22398500Y1862727D01*
X-22398500Y2502727D01*
X-3710500Y2502727D01*
X-3710500Y2397273D01*
X-3683207Y2295413D01*
X-3630480Y2204087D01*
X-3555913Y2129520D01*
X-3464587Y2076793D01*
X-3362727Y2049500D01*
X-3362726Y2049500D01*
X-3257273Y2049500D01*
X-3155413Y2076793D01*
X-3155410Y2076794D01*
X-3064085Y2129521D01*
X-2989521Y2204085D01*
X-2936794Y2295410D01*
X-2936793Y2295413D01*
X-2909500Y2397273D01*
X-2909500Y2502726D01*
X-2917538Y2532727D01*
X-2936793Y2604587D01*
X-2989520Y2695913D01*
X-3064087Y2770480D01*
X-3155413Y2823207D01*
X-3257273Y2850500D01*
X-3362727Y2850500D01*
X-3464587Y2823207D01*
X-3555913Y2770480D01*
X-3630480Y2695913D01*
X-3683207Y2604587D01*
X-3710500Y2502727D01*
X-22398500Y2502727D01*
X-22398500Y3442727D01*
X-21050500Y3442727D01*
X-21050500Y3337273D01*
X-21023207Y3235413D01*
X-20970480Y3144087D01*
X-20895913Y3069520D01*
X-20804587Y3016793D01*
X-20702727Y2989500D01*
X-20702726Y2989500D01*
X-20597273Y2989500D01*
X-20495413Y3016793D01*
X-20495410Y3016794D01*
X-20404085Y3069521D01*
X-20329521Y3144085D01*
X-20276794Y3235410D01*
X-20276793Y3235413D01*
X-20249500Y3337273D01*
X-20249500Y3442726D01*
X-20251577Y3450480D01*
X-20276793Y3544587D01*
X-20285415Y3559520D01*
X-20299090Y3583207D01*
X-20329520Y3635913D01*
X-20404087Y3710480D01*
X-20495413Y3763207D01*
X-20597273Y3790500D01*
X-20702727Y3790500D01*
X-20804587Y3763207D01*
X-20895913Y3710480D01*
X-20970480Y3635913D01*
X-21023207Y3544587D01*
X-21050500Y3442727D01*
X-22398500Y3442727D01*
X-22398500Y6013767D01*
X-19850500Y6013767D01*
X-19850500Y5846233D01*
X-19817816Y5681918D01*
X-19799324Y5637275D01*
X-19753704Y5527139D01*
X-19660626Y5387837D01*
X-19542162Y5269373D01*
X-19402860Y5176295D01*
X-19248082Y5112184D01*
X-19248074Y5112182D01*
X-19083771Y5079500D01*
X-19083767Y5079500D01*
X-18916228Y5079500D01*
X-18751925Y5112182D01*
X-18751917Y5112184D01*
X-18597139Y5176295D01*
X-18457837Y5269373D01*
X-18339373Y5387837D01*
X-18246295Y5527139D01*
X-18182184Y5681917D01*
X-18182182Y5681925D01*
X-18149500Y5846228D01*
X-18149500Y6013771D01*
X-18181250Y6173395D01*
X-18181253Y6173402D01*
X-18182183Y6178080D01*
X-18182184Y6178082D01*
X-18186901Y6189470D01*
X-6486482Y6189470D01*
X-6486482Y6084016D01*
X-6459189Y5982156D01*
X-6406462Y5890830D01*
X-6361865Y5846233D01*
X-6326148Y5810516D01*
X-6327829Y5808834D01*
X-6293785Y5762191D01*
X-6286482Y5720265D01*
X-6286482Y5105864D01*
X-6286482Y5026100D01*
X-6255958Y4952408D01*
X-6255957Y4952407D01*
X-5423574Y4120024D01*
X-5349883Y4089500D01*
X-5349882Y4089500D01*
X-5270118Y4089500D01*
X-4795977Y4089500D01*
X-4728938Y4069815D01*
X-4683183Y4017011D01*
X-4673239Y3947853D01*
X-4676199Y3933420D01*
X-4700500Y3842727D01*
X-4700500Y3737273D01*
X-4673207Y3635413D01*
X-4620480Y3544087D01*
X-4545913Y3469520D01*
X-4454587Y3416793D01*
X-4352727Y3389500D01*
X-4352726Y3389500D01*
X-4247273Y3389500D01*
X-4145413Y3416793D01*
X-4145410Y3416794D01*
X-4054085Y3469521D01*
X-3979521Y3544085D01*
X-3926794Y3635410D01*
X-3926793Y3635413D01*
X-3899500Y3737273D01*
X-3899500Y3842724D01*
X-3899500Y3842725D01*
X-3899500Y3842727D01*
X-3923797Y3933409D01*
X-3922135Y4003256D01*
X-3882973Y4061119D01*
X-3818744Y4088623D01*
X-3804023Y4089500D01*
X-2290326Y4089500D01*
X-2223287Y4069815D01*
X-2202645Y4053181D01*
X-1030236Y2880772D01*
X-996751Y2819449D01*
X-995479Y2788908D01*
X-994468Y2788908D01*
X-994468Y2780781D01*
X-994468Y2675327D01*
X-967175Y2573467D01*
X-914448Y2482141D01*
X-839881Y2407574D01*
X-748555Y2354847D01*
X-646695Y2327554D01*
X-646694Y2327554D01*
X-541241Y2327554D01*
X-439381Y2354847D01*
X-439378Y2354848D01*
X-348053Y2407575D01*
X-273489Y2482139D01*
X-244282Y2532726D01*
X1699500Y2532726D01*
X1699500Y2427273D01*
X1726793Y2325413D01*
X1726794Y2325410D01*
X1779521Y2234085D01*
X1854085Y2159521D01*
X1945410Y2106794D01*
X1945413Y2106793D01*
X2047273Y2079500D01*
X2152726Y2079500D01*
X2152727Y2079500D01*
X2254587Y2106793D01*
X2345913Y2159520D01*
X2420480Y2234087D01*
X2473207Y2325413D01*
X2500500Y2427273D01*
X2500500Y2532727D01*
X2473207Y2634587D01*
X2420480Y2725913D01*
X2345913Y2800480D01*
X2254587Y2853207D01*
X2152727Y2880500D01*
X2047273Y2880500D01*
X1945413Y2853207D01*
X1854087Y2800480D01*
X1779520Y2725913D01*
X1726793Y2634587D01*
X1710416Y2573464D01*
X1699500Y2532726D01*
X-244282Y2532726D01*
X-220762Y2573463D01*
X-212422Y2604589D01*
X-193468Y2675327D01*
X-193468Y2780781D01*
X-220761Y2882641D01*
X-224733Y2889520D01*
X-273489Y2973968D01*
X-348053Y3048532D01*
X-348055Y3048534D01*
X-439381Y3101261D01*
X-541241Y3128554D01*
X-646695Y3128554D01*
X-654822Y3128554D01*
X-654822Y3130937D01*
X-711847Y3139826D01*
X-746686Y3164322D01*
X-845090Y3262726D01*
X8099500Y3262726D01*
X8099500Y3157273D01*
X8126793Y3055413D01*
X8126794Y3055410D01*
X8179521Y2964085D01*
X8254085Y2889521D01*
X8345410Y2836794D01*
X8345413Y2836793D01*
X8447273Y2809500D01*
X8552726Y2809500D01*
X8552727Y2809500D01*
X8654587Y2836793D01*
X8659730Y2839762D01*
X8730288Y2880499D01*
X8745913Y2889520D01*
X8820480Y2964087D01*
X8873207Y3055413D01*
X8900500Y3157273D01*
X8900500Y3182726D01*
X11219500Y3182726D01*
X11219500Y3077273D01*
X11246793Y2975413D01*
X11246794Y2975410D01*
X11299521Y2884085D01*
X11374085Y2809521D01*
X11465410Y2756794D01*
X11465413Y2756793D01*
X11567273Y2729500D01*
X11672726Y2729500D01*
X11672727Y2729500D01*
X11774587Y2756793D01*
X11865913Y2809520D01*
X11940480Y2884087D01*
X11993207Y2975413D01*
X12020500Y3077273D01*
X12020500Y3182727D01*
X11993207Y3284587D01*
X11940480Y3375913D01*
X11932773Y3383620D01*
X22759500Y3383620D01*
X22759500Y3196379D01*
X22796025Y3012756D01*
X22796027Y3012748D01*
X22867676Y2839771D01*
X22867681Y2839762D01*
X22971697Y2684092D01*
X22971700Y2684088D01*
X23104088Y2551700D01*
X23104092Y2551697D01*
X23259762Y2447681D01*
X23259771Y2447676D01*
X23432748Y2376027D01*
X23432756Y2376025D01*
X23616379Y2339500D01*
X23616384Y2339500D01*
X23803620Y2339500D01*
X23987243Y2376025D01*
X23987251Y2376027D01*
X24160228Y2447676D01*
X24160237Y2447681D01*
X24315907Y2551697D01*
X24315911Y2551700D01*
X24448299Y2684088D01*
X24448302Y2684092D01*
X24552318Y2839762D01*
X24552323Y2839771D01*
X24572930Y2889521D01*
X24623973Y3012749D01*
X24660500Y3196384D01*
X24660500Y3383616D01*
X24623973Y3567251D01*
X24552322Y3740231D01*
X24448302Y3895908D01*
X24315908Y4028302D01*
X24160231Y4132322D01*
X23987251Y4203973D01*
X23803618Y4240499D01*
X23803617Y4240500D01*
X23803616Y4240500D01*
X23616384Y4240500D01*
X23616383Y4240500D01*
X23616379Y4240499D01*
X23432749Y4203973D01*
X23298956Y4148554D01*
X23259771Y4132323D01*
X23259762Y4132318D01*
X23104092Y4028302D01*
X23104088Y4028299D01*
X22971700Y3895911D01*
X22971697Y3895907D01*
X22867681Y3740237D01*
X22867676Y3740228D01*
X22796027Y3567251D01*
X22796025Y3567243D01*
X22759500Y3383620D01*
X11932773Y3383620D01*
X11865913Y3450480D01*
X11774587Y3503207D01*
X11672727Y3530500D01*
X11567273Y3530500D01*
X11465413Y3503207D01*
X11374087Y3450480D01*
X11299520Y3375913D01*
X11246793Y3284587D01*
X11223160Y3196384D01*
X11219500Y3182726D01*
X8900500Y3182726D01*
X8900500Y3262727D01*
X8873207Y3364587D01*
X8820480Y3455913D01*
X8745913Y3530480D01*
X8654587Y3583207D01*
X8552727Y3610500D01*
X8447273Y3610500D01*
X8345413Y3583207D01*
X8254087Y3530480D01*
X8179520Y3455913D01*
X8126793Y3364587D01*
X8105358Y3284587D01*
X8099500Y3262726D01*
X-845090Y3262726D01*
X-1515090Y3932726D01*
X999500Y3932726D01*
X999500Y3827273D01*
X1026793Y3725413D01*
X1026794Y3725410D01*
X1079521Y3634085D01*
X1154085Y3559521D01*
X1245410Y3506794D01*
X1245413Y3506793D01*
X1347273Y3479500D01*
X1452726Y3479500D01*
X1452727Y3479500D01*
X1554587Y3506793D01*
X1645913Y3559520D01*
X1720480Y3634087D01*
X1773207Y3725413D01*
X1800500Y3827273D01*
X1800500Y3842726D01*
X14959500Y3842726D01*
X14959500Y3737273D01*
X14986793Y3635413D01*
X14986794Y3635410D01*
X15039521Y3544085D01*
X15114085Y3469521D01*
X15205410Y3416794D01*
X15205413Y3416793D01*
X15307273Y3389500D01*
X15412726Y3389500D01*
X15412727Y3389500D01*
X15514587Y3416793D01*
X15605913Y3469520D01*
X15680480Y3544087D01*
X15733207Y3635413D01*
X15760500Y3737273D01*
X15760500Y3842727D01*
X15733207Y3944587D01*
X15680480Y4035913D01*
X15605913Y4110480D01*
X15514587Y4163207D01*
X15412727Y4190500D01*
X15307273Y4190500D01*
X15205413Y4163207D01*
X15114087Y4110480D01*
X15039520Y4035913D01*
X15038754Y4034586D01*
X14988679Y3947853D01*
X14986793Y3944587D01*
X14973750Y3895907D01*
X14959500Y3842726D01*
X1800500Y3842726D01*
X1800500Y3932727D01*
X1773207Y4034587D01*
X1720480Y4125913D01*
X1645913Y4200480D01*
X1554587Y4253207D01*
X1452727Y4280500D01*
X1347273Y4280500D01*
X1245413Y4253207D01*
X1154087Y4200480D01*
X1079520Y4125913D01*
X1047132Y4069815D01*
X1027559Y4035913D01*
X1026793Y4034587D01*
X1002679Y3944589D01*
X999500Y3932726D01*
X-1515090Y3932726D01*
X-2042339Y4459975D01*
X-2042340Y4459976D01*
X-2116032Y4490500D01*
X-2116034Y4490500D01*
X-5175588Y4490500D01*
X-5242627Y4510185D01*
X-5263269Y4526819D01*
X-5269177Y4532727D01*
X-1150500Y4532727D01*
X-1150500Y4427273D01*
X-1123207Y4325413D01*
X-1070480Y4234087D01*
X-995913Y4159520D01*
X-904587Y4106793D01*
X-802727Y4079500D01*
X-802726Y4079500D01*
X-697273Y4079500D01*
X-595413Y4106793D01*
X-595410Y4106794D01*
X-504085Y4159521D01*
X-429521Y4234085D01*
X-376794Y4325410D01*
X-376793Y4325413D01*
X-356077Y4402726D01*
X4379500Y4402726D01*
X4379500Y4297273D01*
X4406793Y4195413D01*
X4406794Y4195410D01*
X4459521Y4104085D01*
X4534085Y4029521D01*
X4625410Y3976794D01*
X4625413Y3976793D01*
X4727273Y3949500D01*
X4832726Y3949500D01*
X4832727Y3949500D01*
X4934587Y3976793D01*
X5025913Y4029520D01*
X5100480Y4104087D01*
X5153207Y4195413D01*
X5180500Y4297273D01*
X5180500Y4402727D01*
X5153207Y4504587D01*
X5100480Y4595913D01*
X5025913Y4670480D01*
X4934587Y4723207D01*
X4832727Y4750500D01*
X4727273Y4750500D01*
X4625413Y4723207D01*
X4534087Y4670480D01*
X4459520Y4595913D01*
X4406793Y4504587D01*
X4394840Y4459975D01*
X4379500Y4402726D01*
X-356077Y4402726D01*
X-349501Y4427269D01*
X-349500Y4427269D01*
X-349500Y4427273D01*
X-349500Y4532727D01*
X-376793Y4634587D01*
X-429520Y4725913D01*
X-504087Y4800480D01*
X-595413Y4853207D01*
X-697273Y4880500D01*
X-802727Y4880500D01*
X-904587Y4853207D01*
X-995913Y4800480D01*
X-1070480Y4725913D01*
X-1123207Y4634587D01*
X-1150500Y4532727D01*
X-5269177Y4532727D01*
X-5619176Y4882726D01*
X14709500Y4882726D01*
X14709500Y4777273D01*
X14736793Y4675413D01*
X14736794Y4675410D01*
X14789521Y4584085D01*
X14864085Y4509521D01*
X14955410Y4456794D01*
X14955413Y4456793D01*
X15057273Y4429500D01*
X15162726Y4429500D01*
X15162727Y4429500D01*
X15264587Y4456793D01*
X15270099Y4459975D01*
X15289059Y4470922D01*
X15355913Y4509520D01*
X15430480Y4584087D01*
X15483207Y4675413D01*
X15510500Y4777273D01*
X15510500Y4882727D01*
X15483207Y4984587D01*
X15478508Y4992726D01*
X18849500Y4992726D01*
X18849500Y4887273D01*
X18876793Y4785413D01*
X18876794Y4785410D01*
X18929521Y4694085D01*
X19004085Y4619521D01*
X19095410Y4566794D01*
X19095413Y4566793D01*
X19197273Y4539500D01*
X19302726Y4539500D01*
X19302727Y4539500D01*
X19404587Y4566793D01*
X19495913Y4619520D01*
X19570480Y4694087D01*
X19623207Y4785413D01*
X19650500Y4887273D01*
X19650500Y4992727D01*
X19623207Y5094587D01*
X19570480Y5185913D01*
X19495913Y5260480D01*
X19404587Y5313207D01*
X19302727Y5340500D01*
X19197273Y5340500D01*
X19095413Y5313207D01*
X19004087Y5260480D01*
X18929520Y5185913D01*
X18876793Y5094587D01*
X18858443Y5026101D01*
X18849500Y4992726D01*
X15478508Y4992726D01*
X15430480Y5075913D01*
X15355913Y5150480D01*
X15264587Y5203207D01*
X15162727Y5230500D01*
X15057273Y5230500D01*
X14955413Y5203207D01*
X14864087Y5150480D01*
X14864085Y5150478D01*
X14789521Y5075914D01*
X14738578Y4987678D01*
X14736793Y4984587D01*
X14728171Y4952407D01*
X14709500Y4882726D01*
X-5619176Y4882726D01*
X-5849163Y5112713D01*
X-5882648Y5174036D01*
X-5885482Y5200394D01*
X-5885482Y5720265D01*
X-5878886Y5742726D01*
X17529500Y5742726D01*
X17529500Y5637273D01*
X17556793Y5535413D01*
X17556794Y5535410D01*
X17609521Y5444085D01*
X17684085Y5369521D01*
X17775410Y5316794D01*
X17775413Y5316793D01*
X17877273Y5289500D01*
X17982726Y5289500D01*
X17982727Y5289500D01*
X18084587Y5316793D01*
X18175913Y5369520D01*
X18250480Y5444087D01*
X18303207Y5535413D01*
X18330500Y5637273D01*
X18330500Y5742727D01*
X18303207Y5844587D01*
X18250480Y5935913D01*
X18175913Y6010480D01*
X18084587Y6063207D01*
X17982727Y6090500D01*
X17877273Y6090500D01*
X17775413Y6063207D01*
X17684087Y6010480D01*
X17609520Y5935913D01*
X17556793Y5844587D01*
X17534716Y5762191D01*
X17529500Y5742726D01*
X-5878886Y5742726D01*
X-5876625Y5750426D01*
X-5869559Y5781054D01*
X-5866645Y5784415D01*
X-5865797Y5787304D01*
X-5848055Y5809040D01*
X-5841488Y5815443D01*
X-5840069Y5816263D01*
X-5817332Y5838999D01*
X-5817252Y5839078D01*
X-5765503Y5890828D01*
X-5712776Y5982153D01*
X-5712775Y5982156D01*
X-5685482Y6084016D01*
X-5685482Y6189467D01*
X-5685482Y6189468D01*
X-5685482Y6189470D01*
X-5710469Y6282725D01*
X-5710469Y6282726D01*
X18819500Y6282726D01*
X18819500Y6177273D01*
X18846793Y6075413D01*
X18846794Y6075410D01*
X18899521Y5984085D01*
X18974085Y5909521D01*
X19065410Y5856794D01*
X19065413Y5856793D01*
X19167273Y5829500D01*
X19272726Y5829500D01*
X19272727Y5829500D01*
X19374587Y5856793D01*
X19465913Y5909520D01*
X19480013Y5923620D01*
X22759500Y5923620D01*
X22759500Y5736379D01*
X22796025Y5552756D01*
X22796027Y5552748D01*
X22867676Y5379771D01*
X22867681Y5379762D01*
X22971697Y5224092D01*
X22971700Y5224088D01*
X23104088Y5091700D01*
X23104092Y5091697D01*
X23259762Y4987681D01*
X23259771Y4987676D01*
X23432748Y4916027D01*
X23432756Y4916025D01*
X23616379Y4879500D01*
X23616384Y4879500D01*
X23803620Y4879500D01*
X23987243Y4916025D01*
X23987251Y4916027D01*
X24160228Y4987676D01*
X24160237Y4987681D01*
X24315907Y5091697D01*
X24315911Y5091700D01*
X24448299Y5224088D01*
X24448302Y5224092D01*
X24552318Y5379762D01*
X24552323Y5379771D01*
X24578963Y5444085D01*
X24623973Y5552749D01*
X24660500Y5736384D01*
X24660500Y5923616D01*
X24623973Y6107251D01*
X24552322Y6280231D01*
X24448302Y6435908D01*
X24315908Y6568302D01*
X24160231Y6672322D01*
X23987251Y6743973D01*
X23803618Y6780499D01*
X23803617Y6780500D01*
X23803616Y6780500D01*
X23616384Y6780500D01*
X23616383Y6780500D01*
X23616379Y6780499D01*
X23432749Y6743973D01*
X23315508Y6695410D01*
X23259771Y6672323D01*
X23259762Y6672318D01*
X23104092Y6568302D01*
X23104088Y6568299D01*
X22971700Y6435911D01*
X22971697Y6435907D01*
X22867681Y6280237D01*
X22867676Y6280228D01*
X22796027Y6107251D01*
X22796025Y6107243D01*
X22759500Y5923620D01*
X19480013Y5923620D01*
X19540480Y5984087D01*
X19593207Y6075413D01*
X19620500Y6177273D01*
X19620500Y6282727D01*
X19593207Y6384587D01*
X19540480Y6475913D01*
X19465913Y6550480D01*
X19374587Y6603207D01*
X19272727Y6630500D01*
X19167273Y6630500D01*
X19065413Y6603207D01*
X18974087Y6550480D01*
X18899520Y6475913D01*
X18876425Y6435911D01*
X18846794Y6384589D01*
X18846793Y6384586D01*
X18819500Y6282726D01*
X-5710469Y6282726D01*
X-5712774Y6291328D01*
X-5712776Y6291332D01*
X-5765503Y6382657D01*
X-5840067Y6457221D01*
X-5840069Y6457223D01*
X-5931395Y6509950D01*
X-6033255Y6537243D01*
X-6138709Y6537243D01*
X-6240569Y6509950D01*
X-6331895Y6457223D01*
X-6406462Y6382656D01*
X-6459189Y6291330D01*
X-6486482Y6189470D01*
X-18186901Y6189470D01*
X-18246295Y6332860D01*
X-18339373Y6472162D01*
X-18457837Y6590626D01*
X-18550494Y6652537D01*
X-18597137Y6683703D01*
X-18751918Y6747816D01*
X-18916228Y6780499D01*
X-18916232Y6780500D01*
X-18916233Y6780500D01*
X-19083767Y6780500D01*
X-19083768Y6780500D01*
X-19083769Y6780499D01*
X-19248082Y6747816D01*
X-19402863Y6683703D01*
X-19542162Y6590626D01*
X-19660626Y6472162D01*
X-19753703Y6332863D01*
X-19817816Y6178082D01*
X-19850500Y6013767D01*
X-22398500Y6013767D01*
X-22398500Y6932727D01*
X-13400500Y6932727D01*
X-13400500Y6827273D01*
X-13373207Y6725413D01*
X-13320480Y6634087D01*
X-13245913Y6559520D01*
X-13207328Y6537243D01*
X-13160054Y6509949D01*
X-13154587Y6506793D01*
X-13052727Y6479500D01*
X-13052726Y6479500D01*
X-12947273Y6479500D01*
X-12845413Y6506793D01*
X-12845410Y6506794D01*
X-12754085Y6559521D01*
X-12679521Y6634085D01*
X-12626794Y6725410D01*
X-12626793Y6725413D01*
X-12599500Y6827273D01*
X-12599500Y6932726D01*
X-12618754Y7004586D01*
X-12626793Y7034587D01*
X-12679520Y7125913D01*
X-12754087Y7200480D01*
X-12845413Y7253207D01*
X-12947273Y7280500D01*
X-13052727Y7280500D01*
X-13154587Y7253207D01*
X-13245913Y7200480D01*
X-13320480Y7125913D01*
X-13373207Y7034587D01*
X-13400500Y6932727D01*
X-22398500Y6932727D01*
X-22398500Y7632726D01*
X929500Y7632726D01*
X929500Y7527273D01*
X956793Y7425413D01*
X956794Y7425410D01*
X1009521Y7334085D01*
X1084086Y7259520D01*
X1104122Y7247952D01*
X1152336Y7197384D01*
X1165557Y7128776D01*
X1149507Y7078570D01*
X1106793Y7004587D01*
X1087539Y6932727D01*
X1079500Y6902726D01*
X1079500Y6797273D01*
X1106793Y6695413D01*
X1106794Y6695410D01*
X1159521Y6604085D01*
X1234085Y6529521D01*
X1325410Y6476794D01*
X1325413Y6476793D01*
X1427273Y6449500D01*
X1532726Y6449500D01*
X1532727Y6449500D01*
X1634587Y6476793D01*
X1725913Y6529520D01*
X1800480Y6604087D01*
X1853207Y6695413D01*
X1880500Y6797273D01*
X1880500Y6902727D01*
X1853207Y7004587D01*
X1800480Y7095913D01*
X1725913Y7170480D01*
X1705877Y7182047D01*
X1657665Y7232611D01*
X1644441Y7301217D01*
X1660490Y7351426D01*
X1703207Y7425413D01*
X1729282Y7522726D01*
X4689500Y7522726D01*
X4689500Y7417273D01*
X4716793Y7315413D01*
X4716794Y7315410D01*
X4769521Y7224085D01*
X4844085Y7149521D01*
X4935410Y7096794D01*
X4935413Y7096793D01*
X5037273Y7069500D01*
X5142726Y7069500D01*
X5142727Y7069500D01*
X5244587Y7096793D01*
X5335913Y7149520D01*
X5410480Y7224087D01*
X5463207Y7315413D01*
X5490500Y7417273D01*
X5490500Y7522727D01*
X5463207Y7624587D01*
X5410480Y7715913D01*
X5335913Y7790480D01*
X5244587Y7843207D01*
X5142727Y7870500D01*
X5037273Y7870500D01*
X4935413Y7843207D01*
X4844087Y7790480D01*
X4844085Y7790478D01*
X4769521Y7715914D01*
X4716794Y7624589D01*
X4716793Y7624586D01*
X4689500Y7522726D01*
X1729282Y7522726D01*
X1730500Y7527273D01*
X1730500Y7632727D01*
X1703207Y7734587D01*
X1650480Y7825913D01*
X1575913Y7900480D01*
X1520061Y7932726D01*
X15699500Y7932726D01*
X15699500Y7827273D01*
X15726793Y7725413D01*
X15726794Y7725410D01*
X15779521Y7634085D01*
X15854085Y7559521D01*
X15945410Y7506794D01*
X15945413Y7506793D01*
X16047273Y7479500D01*
X16152726Y7479500D01*
X16152727Y7479500D01*
X16254587Y7506793D01*
X16260312Y7510098D01*
X16290063Y7527275D01*
X16345913Y7559520D01*
X16420480Y7634087D01*
X16473207Y7725413D01*
X16500500Y7827273D01*
X16500500Y7932727D01*
X16473207Y8034587D01*
X16420480Y8125913D01*
X16345913Y8200480D01*
X16254587Y8253207D01*
X16152727Y8280500D01*
X16047273Y8280500D01*
X15945413Y8253207D01*
X15854087Y8200480D01*
X15779520Y8125913D01*
X15726793Y8034587D01*
X15704988Y7953206D01*
X15699500Y7932726D01*
X1520061Y7932726D01*
X1484587Y7953207D01*
X1382727Y7980500D01*
X1277273Y7980500D01*
X1175413Y7953207D01*
X1084087Y7900480D01*
X1009520Y7825913D01*
X956793Y7734587D01*
X929865Y7634087D01*
X929500Y7632726D01*
X-22398500Y7632726D01*
X-22398500Y8532727D01*
X-21900500Y8532727D01*
X-21900500Y8427273D01*
X-21873207Y8325413D01*
X-21820480Y8234087D01*
X-21745913Y8159520D01*
X-21654587Y8106793D01*
X-21552727Y8079500D01*
X-21552726Y8079500D01*
X-21447273Y8079500D01*
X-21345413Y8106793D01*
X-21345410Y8106794D01*
X-21254085Y8159521D01*
X-21179521Y8234085D01*
X-21126794Y8325410D01*
X-21126793Y8325413D01*
X-21099500Y8427273D01*
X-21099500Y8532726D01*
X-21106679Y8559521D01*
X-21126793Y8634587D01*
X-21179520Y8725913D01*
X-21254087Y8800480D01*
X-21345413Y8853207D01*
X-21447273Y8880500D01*
X-21552727Y8880500D01*
X-21654587Y8853207D01*
X-21745913Y8800480D01*
X-21820480Y8725913D01*
X-21873207Y8634587D01*
X-21900500Y8532727D01*
X-22398500Y8532727D01*
X-22398500Y8932726D01*
X6499500Y8932726D01*
X6499500Y8827273D01*
X6526793Y8725413D01*
X6526794Y8725410D01*
X6579521Y8634085D01*
X6654085Y8559521D01*
X6745410Y8506794D01*
X6745413Y8506793D01*
X6847273Y8479500D01*
X6952726Y8479500D01*
X6952727Y8479500D01*
X7054587Y8506793D01*
X7145913Y8559520D01*
X7220480Y8634087D01*
X7273207Y8725413D01*
X7300500Y8827273D01*
X7300500Y8932726D01*
X7799500Y8932726D01*
X7799500Y8827273D01*
X7826793Y8725413D01*
X7826794Y8725410D01*
X7879521Y8634085D01*
X7954085Y8559521D01*
X8045410Y8506794D01*
X8045413Y8506793D01*
X8147273Y8479500D01*
X8252726Y8479500D01*
X8252727Y8479500D01*
X8354587Y8506793D01*
X8445913Y8559520D01*
X8520480Y8634087D01*
X8537015Y8662726D01*
X8929500Y8662726D01*
X8929500Y8557273D01*
X8956793Y8455413D01*
X8956794Y8455410D01*
X9009521Y8364085D01*
X9084085Y8289521D01*
X9175410Y8236794D01*
X9175413Y8236793D01*
X9277273Y8209500D01*
X9382726Y8209500D01*
X9382727Y8209500D01*
X9484587Y8236793D01*
X9575913Y8289520D01*
X9650480Y8364087D01*
X9703207Y8455413D01*
X9730500Y8557273D01*
X9730500Y8662727D01*
X9703207Y8764587D01*
X9669640Y8822726D01*
X10579500Y8822726D01*
X10579500Y8717273D01*
X10606793Y8615413D01*
X10606794Y8615410D01*
X10659521Y8524085D01*
X10734085Y8449521D01*
X10825410Y8396794D01*
X10825413Y8396793D01*
X10927273Y8369500D01*
X11032726Y8369500D01*
X11032727Y8369500D01*
X11134587Y8396793D01*
X11225913Y8449520D01*
X11300480Y8524087D01*
X11322788Y8562726D01*
X13699500Y8562726D01*
X13699500Y8457273D01*
X13726793Y8355413D01*
X13726794Y8355410D01*
X13779521Y8264085D01*
X13854085Y8189521D01*
X13945410Y8136794D01*
X13945413Y8136793D01*
X14047273Y8109500D01*
X14152726Y8109500D01*
X14152727Y8109500D01*
X14254587Y8136793D01*
X14345913Y8189520D01*
X14420480Y8264087D01*
X14473207Y8355413D01*
X14500500Y8457273D01*
X14500500Y8562727D01*
X14473207Y8664587D01*
X14420480Y8755913D01*
X14345913Y8830480D01*
X14254587Y8883207D01*
X14152727Y8910500D01*
X14047273Y8910500D01*
X13945413Y8883207D01*
X13854087Y8830480D01*
X13779520Y8755913D01*
X13726793Y8664587D01*
X13718755Y8634586D01*
X13699500Y8562726D01*
X11322788Y8562726D01*
X11353207Y8615413D01*
X11380500Y8717273D01*
X11380500Y8822727D01*
X11353207Y8924587D01*
X11300480Y9015913D01*
X11225913Y9090480D01*
X11134587Y9143207D01*
X11032727Y9170500D01*
X10927273Y9170500D01*
X10825413Y9143207D01*
X10734087Y9090480D01*
X10659520Y9015913D01*
X10606793Y8924587D01*
X10581578Y8830480D01*
X10579500Y8822726D01*
X9669640Y8822726D01*
X9650480Y8855913D01*
X9575913Y8930480D01*
X9484587Y8983207D01*
X9382727Y9010500D01*
X9277273Y9010500D01*
X9175413Y8983207D01*
X9084087Y8930480D01*
X9009520Y8855913D01*
X8994835Y8830478D01*
X8959257Y8768854D01*
X8956793Y8764587D01*
X8929999Y8664587D01*
X8929500Y8662726D01*
X8537015Y8662726D01*
X8573207Y8725413D01*
X8600500Y8827273D01*
X8600500Y8932727D01*
X8573207Y9034587D01*
X8520480Y9125913D01*
X8445913Y9200480D01*
X8394954Y9229901D01*
X22759500Y9229901D01*
X22759500Y7510105D01*
X22759501Y7510097D01*
X22765330Y7480787D01*
X22787542Y7447542D01*
X22820785Y7425332D01*
X22820791Y7425329D01*
X22850099Y7419500D01*
X22850101Y7419500D01*
X24569894Y7419500D01*
X24569902Y7419501D01*
X24599212Y7425330D01*
X24632457Y7447542D01*
X24643599Y7464219D01*
X24654669Y7480787D01*
X24660500Y7510101D01*
X24660499Y9229898D01*
X24654669Y9259213D01*
X24632457Y9292457D01*
X24599213Y9314669D01*
X24569899Y9320500D01*
X22850102Y9320499D01*
X22850097Y9320498D01*
X22820787Y9314669D01*
X22787542Y9292457D01*
X22765332Y9259214D01*
X22765329Y9259208D01*
X22759500Y9229901D01*
X8394954Y9229901D01*
X8354587Y9253207D01*
X8252727Y9280500D01*
X8147273Y9280500D01*
X8045413Y9253207D01*
X7954087Y9200480D01*
X7879520Y9125913D01*
X7826793Y9034587D01*
X7813026Y8983205D01*
X7799500Y8932726D01*
X7300500Y8932726D01*
X7300500Y8932727D01*
X7273207Y9034587D01*
X7220480Y9125913D01*
X7145913Y9200480D01*
X7054587Y9253207D01*
X6952727Y9280500D01*
X6847273Y9280500D01*
X6745413Y9253207D01*
X6654087Y9200480D01*
X6579520Y9125913D01*
X6526793Y9034587D01*
X6513026Y8983205D01*
X6499500Y8932726D01*
X-22398500Y8932726D01*
X-22398500Y9592727D01*
X-6630500Y9592727D01*
X-6630500Y9487273D01*
X-6603207Y9385413D01*
X-6550480Y9294087D01*
X-6475913Y9219520D01*
X-6384587Y9166793D01*
X-6282727Y9139500D01*
X-6282726Y9139500D01*
X-6177273Y9139500D01*
X-6075413Y9166793D01*
X-6075410Y9166794D01*
X-5984085Y9219521D01*
X-5909521Y9294085D01*
X-5856794Y9385410D01*
X-5856793Y9385413D01*
X-5829500Y9487273D01*
X-5829500Y9592726D01*
X-5856793Y9694586D01*
X-5856794Y9694589D01*
X-5909521Y9785914D01*
X-5984085Y9860478D01*
X-5984087Y9860480D01*
X-6075413Y9913207D01*
X-6177273Y9940500D01*
X-6282727Y9940500D01*
X-6384587Y9913207D01*
X-6475913Y9860480D01*
X-6550480Y9785913D01*
X-6603207Y9694587D01*
X-6630500Y9592727D01*
X-22398500Y9592727D01*
X-22398500Y11292204D01*
X-22378815Y11359243D01*
X-22326011Y11404998D01*
X-22256853Y11414942D01*
X-22205609Y11395306D01*
X-22128133Y11343538D01*
X-22128124Y11343533D01*
X-22009744Y11294499D01*
X-22009738Y11294497D01*
X-21884071Y11269500D01*
X-21884069Y11269500D01*
X-21755929Y11269500D01*
X-21630261Y11294497D01*
X-21630255Y11294499D01*
X-21537963Y11332727D01*
X-19600500Y11332727D01*
X-19600500Y11227273D01*
X-19573207Y11125413D01*
X-19520480Y11034087D01*
X-19445913Y10959520D01*
X-19354587Y10906793D01*
X-19252727Y10879500D01*
X-19252726Y10879500D01*
X-19147273Y10879500D01*
X-19045413Y10906793D01*
X-19045410Y10906794D01*
X-18954085Y10959521D01*
X-18879521Y11034085D01*
X-18853368Y11079383D01*
X-10551786Y11079383D01*
X-10551786Y10973929D01*
X-10524493Y10872069D01*
X-10471766Y10780743D01*
X-10397199Y10706176D01*
X-10305873Y10653449D01*
X-10204013Y10626156D01*
X-10204012Y10626156D01*
X-10098559Y10626156D01*
X-9996699Y10653449D01*
X-9996696Y10653450D01*
X-9905371Y10706177D01*
X-9830807Y10780741D01*
X-9778080Y10872066D01*
X-9778079Y10872069D01*
X-9750786Y10973929D01*
X-9750786Y11079382D01*
X-9778210Y11181733D01*
X-9776547Y11251583D01*
X-9737384Y11309446D01*
X-9720437Y11321212D01*
X-9654085Y11359521D01*
X-9579521Y11434085D01*
X-9526794Y11525410D01*
X-9526793Y11525413D01*
X-9499500Y11627273D01*
X-9499500Y11732726D01*
X-9499864Y11734087D01*
X-9526793Y11834587D01*
X-9579520Y11925913D01*
X-9654087Y12000480D01*
X-9745413Y12053207D01*
X-9847273Y12080500D01*
X-9952727Y12080500D01*
X-10054587Y12053207D01*
X-10145913Y12000480D01*
X-10220480Y11925913D01*
X-10273207Y11834587D01*
X-10300500Y11732727D01*
X-10300500Y11627273D01*
X-10293320Y11600478D01*
X-10273075Y11524922D01*
X-10274738Y11455072D01*
X-10313901Y11397210D01*
X-10330845Y11385445D01*
X-10397199Y11347136D01*
X-10471766Y11272569D01*
X-10524493Y11181243D01*
X-10551786Y11079383D01*
X-18853368Y11079383D01*
X-18826794Y11125410D01*
X-18826792Y11125413D01*
X-18799500Y11227273D01*
X-18799500Y11332726D01*
X-18802395Y11343533D01*
X-18826793Y11434587D01*
X-18879520Y11525913D01*
X-18954087Y11600480D01*
X-19045413Y11653207D01*
X-19147273Y11680500D01*
X-19252727Y11680500D01*
X-19354587Y11653207D01*
X-19445913Y11600480D01*
X-19520480Y11525913D01*
X-19573207Y11434587D01*
X-19600500Y11332727D01*
X-21537963Y11332727D01*
X-21511875Y11343533D01*
X-21511866Y11343538D01*
X-21405331Y11414723D01*
X-21405327Y11414726D01*
X-21391519Y11428535D01*
X-21314726Y11505327D01*
X-21314723Y11505331D01*
X-21243538Y11611866D01*
X-21243533Y11611875D01*
X-21194499Y11730255D01*
X-21194497Y11730261D01*
X-21169500Y11855928D01*
X-21169500Y11984071D01*
X-21169499Y11984071D01*
X-21194076Y12107619D01*
X-21194076Y12107620D01*
X-21194497Y12109736D01*
X-21194499Y12109744D01*
X-21200273Y12123684D01*
X-15466125Y12123684D01*
X-15466125Y12005066D01*
X-15435424Y11890489D01*
X-15376114Y11787762D01*
X-15292238Y11703886D01*
X-15189511Y11644576D01*
X-15074934Y11613875D01*
X-15074931Y11613875D01*
X-14956319Y11613875D01*
X-14956316Y11613875D01*
X-14841739Y11644576D01*
X-14826791Y11653206D01*
X-14739012Y11703886D01*
X-14739009Y11703888D01*
X-14655138Y11787759D01*
X-14655136Y11787762D01*
X-14595827Y11890487D01*
X-14595826Y11890489D01*
X-14565125Y12005066D01*
X-14565125Y12123684D01*
X-14570149Y12142434D01*
X-12884875Y12142434D01*
X-12884875Y12023816D01*
X-12854174Y11909239D01*
X-12794864Y11806512D01*
X-12710988Y11722636D01*
X-12608261Y11663326D01*
X-12493684Y11632625D01*
X-12493681Y11632625D01*
X-12375069Y11632625D01*
X-12375066Y11632625D01*
X-12260489Y11663326D01*
X-12157762Y11722636D01*
X-12157759Y11722638D01*
X-12073888Y11806509D01*
X-12073886Y11806512D01*
X-12014577Y11909237D01*
X-12014576Y11909239D01*
X-11983875Y12023816D01*
X-11983875Y12142434D01*
X-12014576Y12257011D01*
X-12073886Y12359738D01*
X-12157762Y12443614D01*
X-12260489Y12502924D01*
X-12375066Y12533625D01*
X-12493684Y12533625D01*
X-12608261Y12502924D01*
X-12710988Y12443614D01*
X-12794864Y12359738D01*
X-12854174Y12257011D01*
X-12884875Y12142434D01*
X-14570149Y12142434D01*
X-14595826Y12238261D01*
X-14655136Y12340988D01*
X-14739012Y12424864D01*
X-14841739Y12484174D01*
X-14956316Y12514875D01*
X-15074934Y12514875D01*
X-15189511Y12484174D01*
X-15292238Y12424864D01*
X-15376114Y12340988D01*
X-15435424Y12238261D01*
X-15466125Y12123684D01*
X-21200273Y12123684D01*
X-21243533Y12228124D01*
X-21243538Y12228133D01*
X-21314723Y12334668D01*
X-21314726Y12334672D01*
X-21405327Y12425273D01*
X-21405331Y12425276D01*
X-21511866Y12496461D01*
X-21511875Y12496466D01*
X-21582967Y12525913D01*
X-21630256Y12545501D01*
X-21641788Y12547795D01*
X-21755929Y12570500D01*
X-21755931Y12570500D01*
X-21884069Y12570500D01*
X-21884071Y12570500D01*
X-21968615Y12553682D01*
X-22009744Y12545501D01*
X-22128127Y12496465D01*
X-22204536Y12445410D01*
X-22205609Y12444693D01*
X-22272286Y12423815D01*
X-22339666Y12442299D01*
X-22386357Y12494278D01*
X-22398500Y12547795D01*
X-22398500Y13082727D01*
X-19150500Y13082727D01*
X-19150500Y12977273D01*
X-19123207Y12875413D01*
X-19070480Y12784087D01*
X-18995913Y12709520D01*
X-18904587Y12656793D01*
X-18802727Y12629500D01*
X-18802726Y12629500D01*
X-18697273Y12629500D01*
X-18610588Y12652727D01*
X-7120500Y12652727D01*
X-7120500Y12547273D01*
X-7093207Y12445413D01*
X-7040480Y12354087D01*
X-6965913Y12279520D01*
X-6931272Y12259520D01*
X-6875419Y12227273D01*
X-6874587Y12226793D01*
X-6772727Y12199500D01*
X-6772726Y12199500D01*
X-6667273Y12199500D01*
X-6565413Y12226793D01*
X-6565410Y12226794D01*
X-6474085Y12279521D01*
X-6420879Y12332727D01*
X-2400500Y12332727D01*
X-2400500Y12227273D01*
X-2373207Y12125413D01*
X-2320480Y12034087D01*
X-2245913Y11959520D01*
X-2154587Y11906793D01*
X-2052727Y11879500D01*
X-2052726Y11879500D01*
X-1947273Y11879500D01*
X-1845413Y11906793D01*
X-1845410Y11906794D01*
X-1754085Y11959521D01*
X-1680880Y12032726D01*
X18099500Y12032726D01*
X18099500Y11927273D01*
X18126793Y11825413D01*
X18126794Y11825410D01*
X18179521Y11734085D01*
X18254085Y11659521D01*
X18345410Y11606794D01*
X18345413Y11606793D01*
X18447273Y11579500D01*
X18552726Y11579500D01*
X18552727Y11579500D01*
X18654587Y11606793D01*
X18666854Y11613875D01*
X18720029Y11644576D01*
X18745913Y11659520D01*
X18820480Y11734087D01*
X18873207Y11825413D01*
X18900500Y11927273D01*
X18900500Y12032727D01*
X18873207Y12134587D01*
X18820480Y12225913D01*
X18745913Y12300480D01*
X18654587Y12353207D01*
X18552727Y12380500D01*
X18447273Y12380500D01*
X18345413Y12353207D01*
X18254087Y12300480D01*
X18179520Y12225913D01*
X18126793Y12134587D01*
X18099865Y12034087D01*
X18099500Y12032726D01*
X-1680880Y12032726D01*
X-1679521Y12034085D01*
X-1652724Y12080499D01*
X-1632534Y12115468D01*
X-1626793Y12125412D01*
X-1626793Y12125413D01*
X-1599500Y12227273D01*
X-1599500Y12332726D01*
X-1599864Y12334087D01*
X-1626793Y12434587D01*
X-1631246Y12442299D01*
X-1666246Y12502922D01*
X-1679520Y12525913D01*
X-1754087Y12600480D01*
X-1809939Y12632726D01*
X2699500Y12632726D01*
X2699500Y12527273D01*
X2726793Y12425413D01*
X2726794Y12425410D01*
X2779521Y12334085D01*
X2854085Y12259521D01*
X2945410Y12206794D01*
X2945413Y12206793D01*
X3047273Y12179500D01*
X3152726Y12179500D01*
X3152727Y12179500D01*
X3254587Y12206793D01*
X3345913Y12259520D01*
X3420480Y12334087D01*
X3473207Y12425413D01*
X3500500Y12527273D01*
X3500500Y12632727D01*
X3473207Y12734587D01*
X3420480Y12825913D01*
X3345913Y12900480D01*
X3254587Y12953207D01*
X3152727Y12980500D01*
X3047273Y12980500D01*
X2945413Y12953207D01*
X2854087Y12900480D01*
X2779520Y12825913D01*
X2726793Y12734587D01*
X2704859Y12652725D01*
X2699500Y12632726D01*
X-1809939Y12632726D01*
X-1845413Y12653207D01*
X-1947273Y12680500D01*
X-2052727Y12680500D01*
X-2154587Y12653207D01*
X-2245913Y12600480D01*
X-2320480Y12525913D01*
X-2373207Y12434587D01*
X-2400500Y12332727D01*
X-6420879Y12332727D01*
X-6399521Y12354085D01*
X-6384271Y12380499D01*
X-6346793Y12445413D01*
X-6319500Y12547273D01*
X-6319500Y12652727D01*
X-6346793Y12754587D01*
X-6399520Y12845913D01*
X-6474087Y12920480D01*
X-6565413Y12973207D01*
X-6667273Y13000500D01*
X-6772727Y13000500D01*
X-6874587Y12973207D01*
X-6965913Y12920480D01*
X-7040480Y12845913D01*
X-7093207Y12754587D01*
X-7120500Y12652727D01*
X-18610588Y12652727D01*
X-18595413Y12656793D01*
X-18595410Y12656794D01*
X-18504085Y12709521D01*
X-18465072Y12748535D01*
X-18429521Y12784085D01*
X-18376794Y12875410D01*
X-18376793Y12875413D01*
X-18349500Y12977273D01*
X-18349500Y13082726D01*
X-18355948Y13106793D01*
X-18376793Y13184587D01*
X-18429520Y13275913D01*
X-18504087Y13350480D01*
X-18595413Y13403207D01*
X-18601858Y13404934D01*
X-14184875Y13404934D01*
X-14184875Y13286316D01*
X-14154174Y13171739D01*
X-14094864Y13069012D01*
X-14010988Y12985136D01*
X-13908261Y12925826D01*
X-13793684Y12895125D01*
X-13793681Y12895125D01*
X-13675069Y12895125D01*
X-13675066Y12895125D01*
X-13560489Y12925826D01*
X-13513067Y12953205D01*
X-13457762Y12985136D01*
X-13457759Y12985138D01*
X-13373888Y13069009D01*
X-13373886Y13069012D01*
X-13314577Y13171737D01*
X-13311134Y13184586D01*
X-13283875Y13286316D01*
X-13283875Y13404934D01*
X-13314576Y13519511D01*
X-13314576Y13519512D01*
X-13322206Y13532727D01*
X-8100500Y13532727D01*
X-8100500Y13427273D01*
X-8073207Y13325413D01*
X-8020480Y13234087D01*
X-7945913Y13159520D01*
X-7854587Y13106793D01*
X-7752727Y13079500D01*
X-7752726Y13079500D01*
X-7647273Y13079500D01*
X-7545413Y13106793D01*
X-7545410Y13106794D01*
X-7454085Y13159521D01*
X-7379521Y13234085D01*
X-7326794Y13325410D01*
X-7326793Y13325413D01*
X-7299500Y13427273D01*
X-7299500Y13532726D01*
X-7326793Y13634586D01*
X-7326794Y13634589D01*
X-7367445Y13704998D01*
X-7379520Y13725913D01*
X-7379521Y13725914D01*
X-7383584Y13732951D01*
X-7382338Y13733669D01*
X-7404351Y13790608D01*
X-7390313Y13859053D01*
X-7342782Y13908312D01*
X-7283175Y13942726D01*
X-7254087Y13959520D01*
X-7254086Y13959520D01*
X-7254084Y13959522D01*
X-7179521Y14034085D01*
X-7126794Y14125410D01*
X-7126793Y14125413D01*
X-7099500Y14227273D01*
X-7099500Y14332726D01*
X-7100848Y14337759D01*
X-7126793Y14434587D01*
X-7130201Y14440489D01*
X-7179521Y14525914D01*
X-7254085Y14600478D01*
X-7254087Y14600480D01*
X-7345413Y14653207D01*
X-7447273Y14680500D01*
X-7552727Y14680500D01*
X-7654587Y14653207D01*
X-7745913Y14600480D01*
X-7820480Y14525913D01*
X-7873207Y14434587D01*
X-7900500Y14332727D01*
X-7900500Y14227273D01*
X-7873207Y14125413D01*
X-7820480Y14034087D01*
X-7820478Y14034085D01*
X-7816416Y14027049D01*
X-7817660Y14026330D01*
X-7795648Y13969394D01*
X-7809685Y13900949D01*
X-7857215Y13851689D01*
X-7945913Y13800480D01*
X-8020480Y13725913D01*
X-8073207Y13634587D01*
X-8100500Y13532727D01*
X-13322206Y13532727D01*
X-13357871Y13594499D01*
X-13373886Y13622238D01*
X-13457762Y13706114D01*
X-13560489Y13765424D01*
X-13675066Y13796125D01*
X-13793684Y13796125D01*
X-13908261Y13765424D01*
X-14010988Y13706114D01*
X-14094864Y13622238D01*
X-14154174Y13519511D01*
X-14184875Y13404934D01*
X-18601858Y13404934D01*
X-18697273Y13430500D01*
X-18802727Y13430500D01*
X-18904587Y13403207D01*
X-18995913Y13350480D01*
X-19070480Y13275913D01*
X-19123207Y13184587D01*
X-19150500Y13082727D01*
X-22398500Y13082727D01*
X-22398500Y13592204D01*
X-22378815Y13659243D01*
X-22326011Y13704998D01*
X-22256853Y13714942D01*
X-22205609Y13695306D01*
X-22128133Y13643538D01*
X-22128124Y13643533D01*
X-22009744Y13594499D01*
X-22009738Y13594497D01*
X-21884071Y13569500D01*
X-21884069Y13569500D01*
X-21755929Y13569500D01*
X-21630261Y13594497D01*
X-21630255Y13594499D01*
X-21511875Y13643533D01*
X-21511866Y13643538D01*
X-21405331Y13714723D01*
X-21405327Y13714726D01*
X-21314726Y13805327D01*
X-21314723Y13805331D01*
X-21243538Y13911866D01*
X-21243531Y13911879D01*
X-21230754Y13942727D01*
X-19900500Y13942727D01*
X-19900500Y13837273D01*
X-19873207Y13735413D01*
X-19820480Y13644087D01*
X-19745913Y13569520D01*
X-19745878Y13569500D01*
X-19659297Y13519512D01*
X-19654587Y13516793D01*
X-19552727Y13489500D01*
X-19552726Y13489500D01*
X-19447273Y13489500D01*
X-19345413Y13516793D01*
X-19345410Y13516794D01*
X-19254085Y13569521D01*
X-19179521Y13644085D01*
X-19126794Y13735410D01*
X-19126793Y13735413D01*
X-19099500Y13837273D01*
X-19099500Y13942726D01*
X-19106645Y13969394D01*
X-19126793Y14044587D01*
X-19179520Y14135913D01*
X-19254087Y14210480D01*
X-19345413Y14263207D01*
X-19447273Y14290500D01*
X-19552727Y14290500D01*
X-19654587Y14263207D01*
X-19745913Y14210480D01*
X-19820480Y14135913D01*
X-19873207Y14044587D01*
X-19900500Y13942727D01*
X-21230754Y13942727D01*
X-21207733Y13998306D01*
X-21207733Y13998307D01*
X-21194499Y14030255D01*
X-21194497Y14030261D01*
X-21169500Y14155928D01*
X-21169500Y14284071D01*
X-21169499Y14284071D01*
X-21194497Y14409738D01*
X-21194499Y14409744D01*
X-21243533Y14528124D01*
X-21243538Y14528133D01*
X-21312720Y14631670D01*
X-21312721Y14631672D01*
X-21314722Y14634667D01*
X-21314726Y14634672D01*
X-21372488Y14692434D01*
X-15434875Y14692434D01*
X-15434875Y14573816D01*
X-15404174Y14459239D01*
X-15344864Y14356512D01*
X-15260988Y14272636D01*
X-15158261Y14213326D01*
X-15043684Y14182625D01*
X-15043681Y14182625D01*
X-14925069Y14182625D01*
X-14925066Y14182625D01*
X-14810489Y14213326D01*
X-14707762Y14272636D01*
X-14707759Y14272638D01*
X-14623888Y14356509D01*
X-14623886Y14356512D01*
X-14564577Y14459237D01*
X-14546711Y14525913D01*
X-14533875Y14573816D01*
X-14533875Y14673684D01*
X-12916125Y14673684D01*
X-12916125Y14555066D01*
X-12885424Y14440489D01*
X-12826114Y14337762D01*
X-12742238Y14253886D01*
X-12639511Y14194576D01*
X-12524934Y14163875D01*
X-12524931Y14163875D01*
X-12406319Y14163875D01*
X-12406316Y14163875D01*
X-12291739Y14194576D01*
X-12259261Y14213327D01*
X-12189012Y14253886D01*
X-12189009Y14253888D01*
X-12105138Y14337759D01*
X-12105136Y14337762D01*
X-12045827Y14440487D01*
X-12045826Y14440489D01*
X-12015125Y14555066D01*
X-12015125Y14673684D01*
X-12045826Y14788261D01*
X-12105136Y14890988D01*
X-12189012Y14974864D01*
X-12291739Y15034174D01*
X-12406316Y15064875D01*
X-12524934Y15064875D01*
X-12639511Y15034174D01*
X-12742238Y14974864D01*
X-12826114Y14890988D01*
X-12885424Y14788261D01*
X-12916125Y14673684D01*
X-14533875Y14673684D01*
X-14533875Y14692434D01*
X-14564576Y14807011D01*
X-14623886Y14909738D01*
X-14707762Y14993614D01*
X-14810489Y15052924D01*
X-14925066Y15083625D01*
X-15043684Y15083625D01*
X-15158261Y15052924D01*
X-15260988Y14993614D01*
X-15344864Y14909738D01*
X-15404174Y14807011D01*
X-15434875Y14692434D01*
X-21372488Y14692434D01*
X-21405327Y14725273D01*
X-21405331Y14725276D01*
X-21511866Y14796461D01*
X-21511875Y14796466D01*
X-21538692Y14807574D01*
X-21630256Y14845501D01*
X-21641788Y14847795D01*
X-21755929Y14870500D01*
X-21755931Y14870500D01*
X-21884069Y14870500D01*
X-21884071Y14870500D01*
X-21968615Y14853682D01*
X-22009744Y14845501D01*
X-22128127Y14796465D01*
X-22183419Y14759520D01*
X-22205609Y14744693D01*
X-22272286Y14723815D01*
X-22339666Y14742299D01*
X-22386357Y14794278D01*
X-22398500Y14847795D01*
X-22398500Y15212727D01*
X-5920500Y15212727D01*
X-5920500Y15107273D01*
X-5893207Y15005413D01*
X-5840480Y14914087D01*
X-5765913Y14839520D01*
X-5756499Y14834085D01*
X-5677132Y14788262D01*
X-5674587Y14786793D01*
X-5572727Y14759500D01*
X-5572726Y14759500D01*
X-5467273Y14759500D01*
X-5365413Y14786793D01*
X-5365410Y14786794D01*
X-5274085Y14839521D01*
X-5199521Y14914085D01*
X-5146794Y15005410D01*
X-5146793Y15005413D01*
X-5119500Y15107273D01*
X-5119500Y15132726D01*
X7199500Y15132726D01*
X7199500Y15027273D01*
X7226793Y14925413D01*
X7226794Y14925410D01*
X7279521Y14834085D01*
X7354085Y14759521D01*
X7445410Y14706794D01*
X7445413Y14706793D01*
X7547273Y14679500D01*
X7652726Y14679500D01*
X7652727Y14679500D01*
X7754587Y14706793D01*
X7845913Y14759520D01*
X7920480Y14834087D01*
X7973207Y14925413D01*
X8000500Y15027273D01*
X8000500Y15132727D01*
X7973207Y15234587D01*
X7920480Y15325913D01*
X7845913Y15400480D01*
X7754587Y15453207D01*
X7652727Y15480500D01*
X7547273Y15480500D01*
X7445413Y15453207D01*
X7354087Y15400480D01*
X7279520Y15325913D01*
X7226793Y15234587D01*
X7208258Y15165410D01*
X7199500Y15132726D01*
X-5119500Y15132726D01*
X-5119500Y15212726D01*
X-5125357Y15234587D01*
X-5146793Y15314587D01*
X-5199520Y15405913D01*
X-5274087Y15480480D01*
X-5365413Y15533207D01*
X-5467273Y15560500D01*
X-5572727Y15560500D01*
X-5674587Y15533207D01*
X-5765913Y15480480D01*
X-5840480Y15405913D01*
X-5893207Y15314587D01*
X-5920500Y15212727D01*
X-22398500Y15212727D01*
X-22398500Y16379901D01*
X13772000Y16379901D01*
X13772000Y14760105D01*
X13772001Y14760097D01*
X13777830Y14730787D01*
X13800042Y14697542D01*
X13833285Y14675332D01*
X13833291Y14675329D01*
X13862599Y14669500D01*
X13862601Y14669500D01*
X15482394Y14669500D01*
X15482402Y14669501D01*
X15511712Y14675330D01*
X15544957Y14697542D01*
X15556099Y14714219D01*
X15567169Y14730787D01*
X15569459Y14742299D01*
X15573000Y14760098D01*
X15573000Y15372726D01*
X19059500Y15372726D01*
X19059500Y15267273D01*
X19086793Y15165413D01*
X19086794Y15165410D01*
X19139521Y15074085D01*
X19214085Y14999521D01*
X19305410Y14946794D01*
X19305413Y14946793D01*
X19407273Y14919500D01*
X19512726Y14919500D01*
X19512727Y14919500D01*
X19614587Y14946793D01*
X19705913Y14999520D01*
X19780480Y15074087D01*
X19833207Y15165413D01*
X19860500Y15267273D01*
X19860500Y15372727D01*
X19833207Y15474587D01*
X19780480Y15565913D01*
X19705913Y15640480D01*
X19614587Y15693207D01*
X19512727Y15720500D01*
X19407273Y15720500D01*
X19305413Y15693207D01*
X19214087Y15640480D01*
X19139520Y15565913D01*
X19086793Y15474587D01*
X19066937Y15400480D01*
X19059500Y15372726D01*
X15573000Y15372726D01*
X15573000Y15380854D01*
X15572999Y16379894D01*
X15572998Y16379899D01*
X15567169Y16409213D01*
X15544957Y16442457D01*
X15511713Y16464669D01*
X15482399Y16470500D01*
X13862602Y16470499D01*
X13862597Y16470498D01*
X13833287Y16464669D01*
X13800042Y16442457D01*
X13777832Y16409214D01*
X13777829Y16409208D01*
X13772000Y16379901D01*
X-22398500Y16379901D01*
X-22398500Y16880903D01*
X-22378815Y16947942D01*
X-22362181Y16968584D01*
X-21988584Y17342181D01*
X-21927261Y17375666D01*
X-21900903Y17378500D01*
X-18812243Y17378500D01*
X-18812227Y17378499D01*
X-18804631Y17378499D01*
X-18646517Y17378499D01*
X-18536615Y17407947D01*
X-18466765Y17406284D01*
X-18408903Y17367121D01*
X-18384747Y17320266D01*
X-18373207Y17277195D01*
X-18320480Y17185869D01*
X-18245913Y17111302D01*
X-18154587Y17058575D01*
X-18052727Y17031282D01*
X-18052726Y17031282D01*
X-17947273Y17031282D01*
X-17941880Y17032727D01*
X-14100500Y17032727D01*
X-14100500Y16927273D01*
X-14073207Y16825413D01*
X-14020480Y16734087D01*
X-13945913Y16659520D01*
X-13854587Y16606793D01*
X-13752727Y16579500D01*
X-13752726Y16579500D01*
X-13647273Y16579500D01*
X-13545413Y16606793D01*
X-13545410Y16606794D01*
X-13454085Y16659521D01*
X-13387681Y16725926D01*
X-13326358Y16759411D01*
X-13256666Y16754427D01*
X-13212319Y16725926D01*
X-13145913Y16659520D01*
X-13054587Y16606793D01*
X-12952727Y16579500D01*
X-12952726Y16579500D01*
X-12847273Y16579500D01*
X-12745413Y16606793D01*
X-12745410Y16606794D01*
X-12654085Y16659521D01*
X-12579521Y16734085D01*
X-12526794Y16825410D01*
X-12526793Y16825413D01*
X-12499500Y16927273D01*
X-12499500Y17032726D01*
X-12525171Y17128535D01*
X-12526793Y17134587D01*
X-12579520Y17225913D01*
X-12654087Y17300480D01*
X-12745413Y17353207D01*
X-12847273Y17380500D01*
X-12952727Y17380500D01*
X-13054587Y17353207D01*
X-13145913Y17300480D01*
X-13198691Y17247702D01*
X-13212319Y17234074D01*
X-13273642Y17200589D01*
X-13343334Y17205573D01*
X-13387681Y17234074D01*
X-13454085Y17300478D01*
X-13454087Y17300480D01*
X-13545413Y17353207D01*
X-13647273Y17380500D01*
X-13752727Y17380500D01*
X-13854587Y17353207D01*
X-13945913Y17300480D01*
X-14020480Y17225913D01*
X-14073207Y17134587D01*
X-14100500Y17032727D01*
X-17941880Y17032727D01*
X-17845413Y17058575D01*
X-17845410Y17058576D01*
X-17754085Y17111303D01*
X-17736854Y17128535D01*
X-17679521Y17185867D01*
X-17626794Y17277192D01*
X-17626793Y17277195D01*
X-17599500Y17379055D01*
X-17599500Y17484508D01*
X-17606196Y17509499D01*
X-17626793Y17586369D01*
X-17679520Y17677695D01*
X-17754087Y17752262D01*
X-17835388Y17799201D01*
X-17852641Y17817295D01*
X-17872655Y17832278D01*
X-17876335Y17842144D01*
X-17883604Y17849768D01*
X-17888335Y17874318D01*
X-17897072Y17897742D01*
X-17894833Y17908034D01*
X-17896826Y17918375D01*
X-17887534Y17941583D01*
X-17882220Y17966015D01*
X-17872619Y17978839D01*
X-17870858Y17983240D01*
X-17861069Y17994269D01*
X-17822611Y18032727D01*
X-16700500Y18032727D01*
X-16700500Y17927273D01*
X-16673207Y17825413D01*
X-16620480Y17734087D01*
X-16545913Y17659520D01*
X-16493884Y17629481D01*
X-16457009Y17608191D01*
X-16454587Y17606793D01*
X-16352727Y17579500D01*
X-16352726Y17579500D01*
X-16247273Y17579500D01*
X-16145413Y17606793D01*
X-16145410Y17606794D01*
X-16054085Y17659521D01*
X-15979521Y17734085D01*
X-15926794Y17825410D01*
X-15926793Y17825413D01*
X-15899500Y17927273D01*
X-15899500Y18032726D01*
X-15899500Y18032727D01*
X-10350500Y18032727D01*
X-10350500Y17927273D01*
X-10323207Y17825413D01*
X-10270480Y17734087D01*
X-10195913Y17659520D01*
X-10143884Y17629481D01*
X-10107009Y17608191D01*
X-10104587Y17606793D01*
X-10002727Y17579500D01*
X-10002726Y17579500D01*
X-9897273Y17579500D01*
X-9795413Y17606793D01*
X-9795410Y17606794D01*
X-9704085Y17659521D01*
X-9629521Y17734085D01*
X-9576794Y17825410D01*
X-9576793Y17825413D01*
X-9549500Y17927273D01*
X-9549500Y18032726D01*
X-9558763Y18067299D01*
X-9576793Y18134587D01*
X-9629520Y18225913D01*
X-9704087Y18300480D01*
X-9795413Y18353207D01*
X-9897273Y18380500D01*
X-10002727Y18380500D01*
X-10104587Y18353207D01*
X-10195913Y18300480D01*
X-10270480Y18225913D01*
X-10323207Y18134587D01*
X-10350500Y18032727D01*
X-15899500Y18032727D01*
X-15908763Y18067299D01*
X-15926793Y18134587D01*
X-15979520Y18225913D01*
X-16054087Y18300480D01*
X-16145413Y18353207D01*
X-16247273Y18380500D01*
X-16352727Y18380500D01*
X-16454587Y18353207D01*
X-16545913Y18300480D01*
X-16620480Y18225913D01*
X-16673207Y18134587D01*
X-16700500Y18032727D01*
X-17822611Y18032727D01*
X-17726803Y18128535D01*
X-16048528Y19806809D01*
X-6163000Y19806809D01*
X-6163000Y19688191D01*
X-6132299Y19573614D01*
X-6072989Y19470887D01*
X-5989113Y19387011D01*
X-5886386Y19327701D01*
X-5771809Y19297000D01*
X-5771806Y19297000D01*
X-5745137Y19297000D01*
X-5678098Y19277315D01*
X-5632343Y19224511D01*
X-5622399Y19155353D01*
X-5630573Y19125555D01*
X-5632296Y19121393D01*
X-5632296Y19121389D01*
X-5632299Y19121386D01*
X-5663000Y19006809D01*
X-5663000Y18888191D01*
X-5632299Y18773614D01*
X-5632297Y18773611D01*
X-5632296Y18773606D01*
X-5630573Y18769445D01*
X-5623109Y18699976D01*
X-5654387Y18637498D01*
X-5714479Y18601850D01*
X-5745137Y18598000D01*
X-5771809Y18598000D01*
X-5886386Y18567299D01*
X-5989113Y18507989D01*
X-6072989Y18424113D01*
X-6132299Y18321386D01*
X-6163000Y18206809D01*
X-6163000Y18088191D01*
X-6132299Y17973614D01*
X-6072989Y17870887D01*
X-5989113Y17787011D01*
X-5886386Y17727701D01*
X-5771809Y17697000D01*
X-5771806Y17697000D01*
X-5653194Y17697000D01*
X-5653191Y17697000D01*
X-5538614Y17727701D01*
X-5527556Y17734085D01*
X-5435887Y17787011D01*
X-5435884Y17787013D01*
X-5352013Y17870884D01*
X-5352011Y17870887D01*
X-5319887Y17926527D01*
X-5269319Y17974742D01*
X-5200712Y17987964D01*
X-5135847Y17961996D01*
X-5105113Y17926527D01*
X-5072989Y17870887D01*
X-4989113Y17787011D01*
X-4886386Y17727701D01*
X-4771809Y17697000D01*
X-4771806Y17697000D01*
X-4653194Y17697000D01*
X-4653191Y17697000D01*
X-4616584Y17706809D01*
X-2238000Y17706809D01*
X-2238000Y17588191D01*
X-2207299Y17473614D01*
X-2147989Y17370887D01*
X-2064113Y17287011D01*
X-1961386Y17227701D01*
X-1846809Y17197000D01*
X-1846806Y17197000D01*
X-1728194Y17197000D01*
X-1728191Y17197000D01*
X-1613614Y17227701D01*
X-1578971Y17247702D01*
X-1510887Y17287011D01*
X-1510884Y17287013D01*
X-1427013Y17370884D01*
X-1427011Y17370887D01*
X-1367702Y17473612D01*
X-1358086Y17509499D01*
X-1337000Y17588191D01*
X-1337000Y17706809D01*
X-1342359Y17726809D01*
X4837000Y17726809D01*
X4837000Y17608191D01*
X4863445Y17509499D01*
X4867702Y17493612D01*
X4927011Y17390887D01*
X4927013Y17390884D01*
X5010884Y17307013D01*
X5010887Y17307011D01*
X5062534Y17277192D01*
X5113614Y17247701D01*
X5228191Y17217000D01*
X5228194Y17217000D01*
X5346806Y17217000D01*
X5346809Y17217000D01*
X5461386Y17247701D01*
X5564113Y17307011D01*
X5647989Y17390887D01*
X5707299Y17493614D01*
X5738000Y17608191D01*
X5738000Y17726809D01*
X5707299Y17841386D01*
X5647989Y17944113D01*
X5564113Y18027989D01*
X5461386Y18087299D01*
X5346809Y18118000D01*
X5228191Y18118000D01*
X5113614Y18087299D01*
X5010887Y18027989D01*
X4927011Y17944113D01*
X4867701Y17841386D01*
X4837000Y17726809D01*
X-1342359Y17726809D01*
X-1367701Y17821386D01*
X-1427011Y17924113D01*
X-1510887Y18007989D01*
X-1613614Y18067299D01*
X-1728191Y18098000D01*
X-1846809Y18098000D01*
X-1961386Y18067299D01*
X-2064113Y18007989D01*
X-2147989Y17924113D01*
X-2207299Y17821386D01*
X-2238000Y17706809D01*
X-4616584Y17706809D01*
X-4538614Y17727701D01*
X-4527556Y17734085D01*
X-4435887Y17787011D01*
X-4435884Y17787013D01*
X-4420281Y17802617D01*
X-4352013Y17870884D01*
X-4352011Y17870887D01*
X-4292702Y17973612D01*
X-4288856Y17987964D01*
X-4262000Y18088191D01*
X-4262000Y18206809D01*
X-4292701Y18321386D01*
X-4352011Y18424113D01*
X-4435887Y18507989D01*
X-4538614Y18567299D01*
X-4653191Y18598000D01*
X-4679863Y18598000D01*
X-4746902Y18617685D01*
X-4792657Y18670489D01*
X-4802601Y18739647D01*
X-4794427Y18769445D01*
X-4792703Y18773606D01*
X-4782186Y18812858D01*
X-4762000Y18888191D01*
X-4762000Y19006809D01*
X-4792701Y19121386D01*
X-4792703Y19121393D01*
X-4794427Y19125555D01*
X-4801891Y19195024D01*
X-4770613Y19257502D01*
X-4710521Y19293150D01*
X-4679863Y19297000D01*
X-4653194Y19297000D01*
X-4653191Y19297000D01*
X-4538614Y19327701D01*
X-4435887Y19387011D01*
X-4435884Y19387013D01*
X-4352013Y19470884D01*
X-4352011Y19470887D01*
X-4292702Y19573612D01*
X-4292701Y19573614D01*
X-4262000Y19688191D01*
X-4262000Y19806809D01*
X-4292701Y19921386D01*
X-4352011Y20024113D01*
X-4435887Y20107989D01*
X-4538614Y20167299D01*
X-4653191Y20198000D01*
X-4771809Y20198000D01*
X-4886386Y20167299D01*
X-4989113Y20107989D01*
X-5072989Y20024113D01*
X-5102044Y19973789D01*
X-5105113Y19968473D01*
X-5155680Y19920257D01*
X-5224287Y19907035D01*
X-5289152Y19933003D01*
X-5319887Y19968473D01*
X-5352009Y20024109D01*
X-5352011Y20024113D01*
X-5435887Y20107989D01*
X-5538614Y20167299D01*
X-5653191Y20198000D01*
X-5771809Y20198000D01*
X-5886386Y20167299D01*
X-5989113Y20107989D01*
X-6072989Y20024113D01*
X-6132299Y19921386D01*
X-6163000Y19806809D01*
X-16048528Y19806809D01*
X-16018481Y19836856D01*
X-16018479Y19836859D01*
X-15995342Y19876935D01*
X-15964994Y19929500D01*
X-15964993Y19929501D01*
X-15939423Y19973789D01*
X-15898500Y20126517D01*
X-15898500Y20332726D01*
X7499500Y20332726D01*
X7499500Y20227273D01*
X7526793Y20125413D01*
X7526794Y20125410D01*
X7579521Y20034085D01*
X7654085Y19959521D01*
X7745410Y19906794D01*
X7745413Y19906793D01*
X7847273Y19879500D01*
X7952726Y19879500D01*
X7952727Y19879500D01*
X8054587Y19906793D01*
X8145913Y19959520D01*
X8220480Y20034087D01*
X8273207Y20125413D01*
X8300500Y20227273D01*
X8300500Y20332727D01*
X8273207Y20434587D01*
X8220480Y20525913D01*
X8145913Y20600480D01*
X8054587Y20653207D01*
X7952727Y20680500D01*
X7847273Y20680500D01*
X7745413Y20653207D01*
X7654087Y20600480D01*
X7579520Y20525913D01*
X7526793Y20434587D01*
X7508725Y20367153D01*
X7499500Y20332726D01*
X-15898500Y20332726D01*
X-15898500Y23080902D01*
X-15889855Y23110342D01*
X-15886273Y23126809D01*
X-5863000Y23126809D01*
X-5863000Y23008191D01*
X-5832299Y22893614D01*
X-5772989Y22790887D01*
X-5689113Y22707011D01*
X-5586386Y22647701D01*
X-5471809Y22617000D01*
X-5471806Y22617000D01*
X-5353194Y22617000D01*
X-5353191Y22617000D01*
X-5238614Y22647701D01*
X-5135887Y22707011D01*
X-5135884Y22707013D01*
X-5052013Y22790884D01*
X-5052011Y22790887D01*
X-4992702Y22893612D01*
X-4992701Y22893614D01*
X-4962000Y23008191D01*
X-4962000Y23126809D01*
X-4992701Y23241386D01*
X-5052011Y23344113D01*
X-5135887Y23427989D01*
X-5238614Y23487299D01*
X-5353191Y23518000D01*
X-5471809Y23518000D01*
X-5586386Y23487299D01*
X-5689113Y23427989D01*
X-5772989Y23344113D01*
X-5832299Y23241386D01*
X-5863000Y23126809D01*
X-15886273Y23126809D01*
X-15883332Y23140329D01*
X-15879577Y23145344D01*
X-15878815Y23147941D01*
X-15862181Y23168583D01*
X-15187583Y23843181D01*
X-15126260Y23876666D01*
X-15099902Y23879500D01*
X-11493780Y23879500D01*
X-11478524Y23878500D01*
X-11478058Y23878500D01*
X-11478057Y23878500D01*
X-4999097Y23878500D01*
X-4932058Y23858815D01*
X-4911416Y23842181D01*
X-3087590Y22018355D01*
X-3087588Y22018352D01*
X-2968717Y21899481D01*
X-2968714Y21899479D01*
X-2881904Y21849360D01*
X-2881904Y21849359D01*
X-2881902Y21849359D01*
X-2831785Y21820423D01*
X-2831782Y21820422D01*
X-2767232Y21803126D01*
X-2679058Y21779500D01*
X-2679057Y21779500D01*
X7799903Y21779500D01*
X7866942Y21759815D01*
X7887583Y21743181D01*
X9905710Y19725054D01*
X11889478Y17741286D01*
X12001282Y17629481D01*
X12001285Y17629479D01*
X12038154Y17608193D01*
X12075955Y17586369D01*
X12138215Y17550423D01*
X12290943Y17509499D01*
X12290946Y17509499D01*
X12456653Y17509499D01*
X12456669Y17509500D01*
X13948139Y17509500D01*
X14015178Y17489815D01*
X14035815Y17473185D01*
X14067143Y17441857D01*
X14098466Y17410534D01*
X14245946Y17311990D01*
X14245959Y17311983D01*
X14409832Y17244106D01*
X14409841Y17244103D01*
X14583804Y17209500D01*
X14583809Y17209500D01*
X14761195Y17209500D01*
X14935158Y17244103D01*
X14935167Y17244106D01*
X15099040Y17311983D01*
X15099053Y17311990D01*
X15246534Y17410535D01*
X15246538Y17410538D01*
X15371961Y17535961D01*
X15371964Y17535965D01*
X15470509Y17683446D01*
X15470516Y17683459D01*
X15527646Y17821386D01*
X15538394Y17847334D01*
X15538394Y17847336D01*
X15538396Y17847341D01*
X15572999Y18021304D01*
X15573000Y18021306D01*
X15573000Y18198693D01*
X15572999Y18198695D01*
X15538396Y18372658D01*
X15538394Y18372661D01*
X15538394Y18372666D01*
X15470513Y18536547D01*
X15371964Y18684035D01*
X15246535Y18809464D01*
X15099047Y18908013D01*
X14935166Y18975894D01*
X14935161Y18975894D01*
X14935158Y18975896D01*
X14761194Y19010500D01*
X14761191Y19010500D01*
X14583809Y19010500D01*
X14583806Y19010500D01*
X14409841Y18975896D01*
X14409836Y18975894D01*
X14409834Y18975894D01*
X14409832Y18975893D01*
X14245959Y18908016D01*
X14245946Y18908009D01*
X14216290Y18888193D01*
X14098465Y18809464D01*
X14035818Y18746817D01*
X13974498Y18713334D01*
X13948139Y18710500D01*
X12670097Y18710500D01*
X12603058Y18730185D01*
X12582416Y18746819D01*
X11641042Y19688193D01*
X10590539Y20738695D01*
X13772000Y20738695D01*
X13772000Y20561304D01*
X13806603Y20387341D01*
X13806606Y20387332D01*
X13874483Y20223459D01*
X13874490Y20223446D01*
X13973035Y20075965D01*
X13973038Y20075961D01*
X14098461Y19950538D01*
X14098465Y19950535D01*
X14245946Y19851990D01*
X14245959Y19851983D01*
X14409832Y19784106D01*
X14409841Y19784103D01*
X14583804Y19749500D01*
X14583809Y19749500D01*
X14761195Y19749500D01*
X14935158Y19784103D01*
X14935167Y19784106D01*
X15099040Y19851983D01*
X15099053Y19851990D01*
X15246534Y19950535D01*
X15246538Y19950538D01*
X15371961Y20075961D01*
X15371964Y20075965D01*
X15470509Y20223446D01*
X15470516Y20223459D01*
X15528309Y20362987D01*
X15538394Y20387334D01*
X15538394Y20387336D01*
X15538396Y20387341D01*
X15572999Y20561304D01*
X15573000Y20561306D01*
X15573000Y20738693D01*
X15572999Y20738695D01*
X15538396Y20912658D01*
X15538394Y20912661D01*
X15538394Y20912666D01*
X15470513Y21076547D01*
X15371964Y21224035D01*
X15246535Y21349464D01*
X15099047Y21448013D01*
X14935166Y21515894D01*
X14935161Y21515894D01*
X14935158Y21515896D01*
X14761194Y21550500D01*
X14761191Y21550500D01*
X14583809Y21550500D01*
X14583806Y21550500D01*
X14409841Y21515896D01*
X14409836Y21515894D01*
X14409834Y21515894D01*
X14409832Y21515893D01*
X14245959Y21448016D01*
X14245946Y21448009D01*
X14098465Y21349464D01*
X14098461Y21349461D01*
X13973038Y21224038D01*
X13973035Y21224034D01*
X13874490Y21076553D01*
X13874483Y21076540D01*
X13806606Y20912667D01*
X13806603Y20912658D01*
X13772000Y20738695D01*
X10590539Y20738695D01*
X8590727Y22738506D01*
X8590724Y22738511D01*
X8580520Y22748714D01*
X8580520Y22748716D01*
X8468716Y22860520D01*
X8352990Y22927334D01*
X8331785Y22939577D01*
X8179057Y22980501D01*
X8020943Y22980501D01*
X8013347Y22980501D01*
X8013331Y22980500D01*
X4284073Y22980500D01*
X4268039Y22985208D01*
X4251330Y22984901D01*
X4235207Y22994848D01*
X4217034Y23000185D01*
X4206091Y23012812D01*
X4191868Y23021589D01*
X4183682Y23038674D01*
X4171279Y23052989D01*
X4168900Y23069528D01*
X4161680Y23084601D01*
X4164030Y23103397D01*
X4161335Y23122147D01*
X4168342Y23137872D01*
X4170351Y23153930D01*
X4185253Y23175819D01*
X4188884Y23183967D01*
X4192457Y23188247D01*
X4278302Y23274092D01*
X4281378Y23278695D01*
X13772000Y23278695D01*
X13772000Y23101304D01*
X13806603Y22927341D01*
X13806605Y22927335D01*
X13806606Y22927334D01*
X13806607Y22927332D01*
X13874483Y22763459D01*
X13874490Y22763446D01*
X13973035Y22615965D01*
X13973038Y22615961D01*
X14098461Y22490538D01*
X14098465Y22490535D01*
X14245946Y22391990D01*
X14245959Y22391983D01*
X14409832Y22324106D01*
X14409841Y22324103D01*
X14583804Y22289500D01*
X14583809Y22289500D01*
X14761195Y22289500D01*
X14935158Y22324103D01*
X14935167Y22324106D01*
X15099040Y22391983D01*
X15099053Y22391990D01*
X15246534Y22490535D01*
X15246538Y22490538D01*
X15371961Y22615961D01*
X15371964Y22615965D01*
X15470509Y22763446D01*
X15470516Y22763459D01*
X15510719Y22860520D01*
X15538394Y22927334D01*
X15538394Y22927337D01*
X15538396Y22927341D01*
X15572999Y23101304D01*
X15573000Y23101306D01*
X15573000Y23278693D01*
X15572999Y23278695D01*
X15569885Y23294348D01*
X15558407Y23352057D01*
X15538396Y23452658D01*
X15538394Y23452661D01*
X15538394Y23452666D01*
X15470513Y23616547D01*
X15371964Y23764035D01*
X15246535Y23889464D01*
X15204913Y23917275D01*
X15189234Y23927752D01*
X15099053Y23988009D01*
X15099052Y23988009D01*
X15099047Y23988013D01*
X15015241Y24022726D01*
X17589500Y24022726D01*
X17589500Y23917273D01*
X17616793Y23815413D01*
X17616794Y23815410D01*
X17669521Y23724085D01*
X17744085Y23649521D01*
X17835410Y23596794D01*
X17835413Y23596793D01*
X17937273Y23569500D01*
X18042726Y23569500D01*
X18042727Y23569500D01*
X18144587Y23596793D01*
X18154902Y23602748D01*
X18178812Y23616553D01*
X18235913Y23649520D01*
X18310480Y23724087D01*
X18363207Y23815413D01*
X18390500Y23917273D01*
X18390500Y24022727D01*
X18363207Y24124587D01*
X18310480Y24215913D01*
X18235913Y24290480D01*
X18144587Y24343207D01*
X18042727Y24370500D01*
X17937273Y24370500D01*
X17835413Y24343207D01*
X17744087Y24290480D01*
X17744085Y24290478D01*
X17669521Y24215914D01*
X17616794Y24124589D01*
X17616793Y24124586D01*
X17589500Y24022726D01*
X15015241Y24022726D01*
X14935166Y24055894D01*
X14935161Y24055894D01*
X14935158Y24055896D01*
X14761194Y24090500D01*
X14761191Y24090500D01*
X14583809Y24090500D01*
X14583806Y24090500D01*
X14409841Y24055896D01*
X14409836Y24055894D01*
X14409834Y24055894D01*
X14409832Y24055893D01*
X14245959Y23988016D01*
X14245946Y23988009D01*
X14098465Y23889464D01*
X14098461Y23889461D01*
X13973038Y23764038D01*
X13973035Y23764034D01*
X13874490Y23616553D01*
X13874483Y23616540D01*
X13806606Y23452667D01*
X13806603Y23452658D01*
X13772000Y23278695D01*
X4281378Y23278695D01*
X4382322Y23429769D01*
X4453973Y23602749D01*
X4490500Y23786384D01*
X4490500Y23973616D01*
X4453973Y24157251D01*
X4382322Y24330231D01*
X4278302Y24485908D01*
X4145908Y24618302D01*
X3990231Y24722322D01*
X3945286Y24740939D01*
X3890883Y24784780D01*
X3868818Y24851074D01*
X3886097Y24918773D01*
X3937234Y24966384D01*
X3992739Y24979500D01*
X20789275Y24979500D01*
X20856314Y24959815D01*
G37*
%TD.AperFunction*%
%TD*%
%TA.AperFunction,Conductor*%
%TO.N,5V*%
G36*
X-22520875Y-9513539D02*
G01*
X-22453865Y-9533316D01*
X-22427224Y-9556464D01*
X-22421509Y-9563079D01*
X-22371545Y-9595286D01*
X-22304532Y-9615063D01*
X-22282853Y-9618210D01*
X-22274823Y-9619376D01*
X-22274820Y-9619376D01*
X-22274815Y-9619377D01*
X-474329Y-9649309D01*
X-407317Y-9669086D01*
X-361635Y-9721952D01*
X-350500Y-9773309D01*
X-350500Y-9782727D01*
X-323207Y-9884587D01*
X-270480Y-9975913D01*
X-195913Y-10050480D01*
X-104587Y-10103207D01*
X-2727Y-10130500D01*
X-2725Y-10130500D01*
X102725Y-10130500D01*
X102727Y-10130500D01*
X204587Y-10103207D01*
X295913Y-10050480D01*
X370480Y-9975913D01*
X423207Y-9884587D01*
X450500Y-9782727D01*
X450500Y-9774749D01*
X470185Y-9707710D01*
X522989Y-9661955D01*
X574669Y-9650749D01*
X20616697Y-9678267D01*
X20620537Y-9678202D01*
X20629553Y-9677886D01*
X20662727Y-9671299D01*
X20728191Y-9646882D01*
X20728191Y-9646881D01*
X20728193Y-9646881D01*
X20728194Y-9646880D01*
X20775771Y-9611265D01*
X20775774Y-9611261D01*
X20775778Y-9611259D01*
X20775780Y-9611255D01*
X20777604Y-9609432D01*
X20779881Y-9608188D01*
X20782878Y-9605945D01*
X20783200Y-9606375D01*
X20838925Y-9575943D01*
X20865450Y-9573109D01*
X21195479Y-9573562D01*
X21262490Y-9593339D01*
X21289129Y-9616485D01*
X21294846Y-9623101D01*
X21344809Y-9655308D01*
X21398652Y-9671198D01*
X21411823Y-9675085D01*
X21426275Y-9677183D01*
X21441531Y-9679398D01*
X21441536Y-9679398D01*
X21441540Y-9679399D01*
X25375185Y-9684800D01*
X25375191Y-9684799D01*
X25375670Y-9684800D01*
X25442683Y-9704577D01*
X25488365Y-9757443D01*
X25499500Y-9808800D01*
X25499500Y-19309274D01*
X25479815Y-19376313D01*
X25427011Y-19422068D01*
X25357853Y-19432012D01*
X25294297Y-19402987D01*
X25266142Y-19367728D01*
X25189354Y-19224069D01*
X25134347Y-19121158D01*
X24954183Y-18851524D01*
X24748458Y-18600847D01*
X24748457Y-18600846D01*
X24748453Y-18600841D01*
X24519158Y-18371546D01*
X24268481Y-18165821D01*
X24268480Y-18165820D01*
X24268476Y-18165817D01*
X23998842Y-17985653D01*
X23998837Y-17985650D01*
X23998830Y-17985646D01*
X23712854Y-17832788D01*
X23712849Y-17832786D01*
X23413247Y-17708686D01*
X23102913Y-17614548D01*
X23102902Y-17614545D01*
X22784874Y-17551287D01*
X22784857Y-17551284D01*
X22540812Y-17527248D01*
X22462143Y-17519500D01*
X22137857Y-17519500D01*
X22065099Y-17526666D01*
X21815142Y-17551284D01*
X21815125Y-17551287D01*
X21497097Y-17614545D01*
X21497086Y-17614548D01*
X21186752Y-17708686D01*
X20887150Y-17832786D01*
X20887145Y-17832788D01*
X20601169Y-17985646D01*
X20601151Y-17985657D01*
X20331532Y-18165811D01*
X20331518Y-18165821D01*
X20080841Y-18371546D01*
X19851546Y-18600841D01*
X19645821Y-18851518D01*
X19645811Y-18851532D01*
X19465657Y-19121151D01*
X19465646Y-19121169D01*
X19312788Y-19407145D01*
X19312786Y-19407150D01*
X19188686Y-19706752D01*
X19094548Y-20017086D01*
X19094545Y-20017097D01*
X19031287Y-20335125D01*
X19031284Y-20335142D01*
X19012236Y-20528543D01*
X18999500Y-20657857D01*
X18999500Y-20982143D01*
X19004214Y-21030000D01*
X19031284Y-21304857D01*
X19031287Y-21304874D01*
X19094545Y-21622902D01*
X19094548Y-21622913D01*
X19188686Y-21933247D01*
X19312786Y-22232849D01*
X19312788Y-22232854D01*
X19465646Y-22518830D01*
X19465657Y-22518848D01*
X19645811Y-22788467D01*
X19645821Y-22788481D01*
X19851546Y-23039158D01*
X20080841Y-23268453D01*
X20080846Y-23268457D01*
X20080847Y-23268458D01*
X20331524Y-23474183D01*
X20601158Y-23654347D01*
X20601167Y-23654352D01*
X20601169Y-23654353D01*
X20847728Y-23786142D01*
X20897573Y-23835104D01*
X20913033Y-23903242D01*
X20889201Y-23968922D01*
X20833644Y-24011290D01*
X20789275Y-24019500D01*
X15673204Y-24019500D01*
X15606165Y-23999815D01*
X15560410Y-23947011D01*
X15550466Y-23877853D01*
X15579491Y-23814297D01*
X15604313Y-23792398D01*
X15624230Y-23779088D01*
X15646642Y-23764114D01*
X15744214Y-23666542D01*
X15820875Y-23551811D01*
X15873680Y-23424328D01*
X15900600Y-23288993D01*
X15900600Y-22551007D01*
X15900600Y-22551004D01*
X15873681Y-22415677D01*
X15873680Y-22415676D01*
X15873680Y-22415672D01*
X15873678Y-22415667D01*
X15820878Y-22288195D01*
X15820871Y-22288182D01*
X15744214Y-22173458D01*
X15744211Y-22173454D01*
X15646645Y-22075888D01*
X15646641Y-22075885D01*
X15531917Y-21999228D01*
X15531904Y-21999221D01*
X15404432Y-21946421D01*
X15404422Y-21946418D01*
X15269095Y-21919500D01*
X15269093Y-21919500D01*
X15131107Y-21919500D01*
X15131105Y-21919500D01*
X14995777Y-21946418D01*
X14995767Y-21946421D01*
X14868295Y-21999221D01*
X14868282Y-21999228D01*
X14753558Y-22075885D01*
X14753554Y-22075888D01*
X14655988Y-22173454D01*
X14655985Y-22173458D01*
X14579328Y-22288182D01*
X14579321Y-22288195D01*
X14526521Y-22415667D01*
X14526518Y-22415677D01*
X14499600Y-22551004D01*
X14499600Y-22551007D01*
X14499600Y-23288993D01*
X14499600Y-23288995D01*
X14499599Y-23288995D01*
X14526518Y-23424322D01*
X14526521Y-23424332D01*
X14579321Y-23551804D01*
X14579328Y-23551817D01*
X14655985Y-23666541D01*
X14655988Y-23666545D01*
X14753554Y-23764111D01*
X14753558Y-23764114D01*
X14795887Y-23792398D01*
X14840692Y-23846011D01*
X14849399Y-23915336D01*
X14819244Y-23978363D01*
X14759801Y-24015082D01*
X14726996Y-24019500D01*
X7033204Y-24019500D01*
X6966165Y-23999815D01*
X6920410Y-23947011D01*
X6910466Y-23877853D01*
X6939491Y-23814297D01*
X6964313Y-23792398D01*
X6984230Y-23779088D01*
X7006642Y-23764114D01*
X7104214Y-23666542D01*
X7180875Y-23551811D01*
X7233680Y-23424328D01*
X7260600Y-23288993D01*
X7260600Y-22551007D01*
X7260600Y-22551004D01*
X7233681Y-22415677D01*
X7233680Y-22415676D01*
X7233680Y-22415672D01*
X7233678Y-22415667D01*
X7180878Y-22288195D01*
X7180871Y-22288182D01*
X7104214Y-22173458D01*
X7104211Y-22173454D01*
X7006645Y-22075888D01*
X7006641Y-22075885D01*
X6891917Y-21999228D01*
X6891904Y-21999221D01*
X6764432Y-21946421D01*
X6764422Y-21946418D01*
X6629095Y-21919500D01*
X6629093Y-21919500D01*
X6491107Y-21919500D01*
X6491105Y-21919500D01*
X6355777Y-21946418D01*
X6355767Y-21946421D01*
X6228295Y-21999221D01*
X6228282Y-21999228D01*
X6113558Y-22075885D01*
X6113554Y-22075888D01*
X6015988Y-22173454D01*
X6015985Y-22173458D01*
X5939328Y-22288182D01*
X5939321Y-22288195D01*
X5886521Y-22415667D01*
X5886518Y-22415677D01*
X5859600Y-22551004D01*
X5859600Y-22551007D01*
X5859600Y-23288993D01*
X5859600Y-23288995D01*
X5859599Y-23288995D01*
X5886518Y-23424322D01*
X5886521Y-23424332D01*
X5939321Y-23551804D01*
X5939328Y-23551817D01*
X6015985Y-23666541D01*
X6015988Y-23666545D01*
X6113554Y-23764111D01*
X6113558Y-23764114D01*
X6155887Y-23792398D01*
X6200692Y-23846011D01*
X6209399Y-23915336D01*
X6179244Y-23978363D01*
X6119801Y-24015082D01*
X6086996Y-24019500D01*
X3773104Y-24019500D01*
X3706065Y-23999815D01*
X3660310Y-23947011D01*
X3650366Y-23877853D01*
X3679391Y-23814297D01*
X3704213Y-23792398D01*
X3724130Y-23779088D01*
X3746542Y-23764114D01*
X3844114Y-23666542D01*
X3920775Y-23551811D01*
X3973580Y-23424328D01*
X4000500Y-23288993D01*
X4000500Y-22551007D01*
X4000500Y-22551004D01*
X3973581Y-22415677D01*
X3973580Y-22415676D01*
X3973580Y-22415672D01*
X3973578Y-22415667D01*
X3920778Y-22288195D01*
X3920771Y-22288182D01*
X3844114Y-22173458D01*
X3844111Y-22173454D01*
X3746545Y-22075888D01*
X3746541Y-22075885D01*
X3631817Y-21999228D01*
X3631804Y-21999221D01*
X3504332Y-21946421D01*
X3504322Y-21946418D01*
X3368995Y-21919500D01*
X3368993Y-21919500D01*
X3231007Y-21919500D01*
X3231005Y-21919500D01*
X3095677Y-21946418D01*
X3095667Y-21946421D01*
X2968195Y-21999221D01*
X2968182Y-21999228D01*
X2853458Y-22075885D01*
X2853454Y-22075888D01*
X2755888Y-22173454D01*
X2755885Y-22173458D01*
X2679228Y-22288182D01*
X2679221Y-22288195D01*
X2626421Y-22415667D01*
X2626418Y-22415677D01*
X2599500Y-22551004D01*
X2599500Y-22551007D01*
X2599500Y-23288993D01*
X2599500Y-23288995D01*
X2599499Y-23288995D01*
X2626418Y-23424322D01*
X2626421Y-23424332D01*
X2679221Y-23551804D01*
X2679228Y-23551817D01*
X2755885Y-23666541D01*
X2755888Y-23666545D01*
X2853454Y-23764111D01*
X2853458Y-23764114D01*
X2895787Y-23792398D01*
X2940592Y-23846011D01*
X2949299Y-23915336D01*
X2919144Y-23978363D01*
X2859701Y-24015082D01*
X2826896Y-24019500D01*
X-4866896Y-24019500D01*
X-4933935Y-23999815D01*
X-4979690Y-23947011D01*
X-4989634Y-23877853D01*
X-4960609Y-23814297D01*
X-4935787Y-23792398D01*
X-4893458Y-23764114D01*
X-4893454Y-23764111D01*
X-4795888Y-23666545D01*
X-4795885Y-23666541D01*
X-4719228Y-23551817D01*
X-4719221Y-23551804D01*
X-4666421Y-23424332D01*
X-4666418Y-23424322D01*
X-4639500Y-23288995D01*
X-4639500Y-22551004D01*
X-4639499Y-22551004D01*
X-4666418Y-22415677D01*
X-4666421Y-22415667D01*
X-4719221Y-22288195D01*
X-4719228Y-22288182D01*
X-4795885Y-22173458D01*
X-4795888Y-22173454D01*
X-4893454Y-22075888D01*
X-4893458Y-22075885D01*
X-5008182Y-21999228D01*
X-5008195Y-21999221D01*
X-5135667Y-21946421D01*
X-5135677Y-21946418D01*
X-5271005Y-21919500D01*
X-5271007Y-21919500D01*
X-5408993Y-21919500D01*
X-5408995Y-21919500D01*
X-5544322Y-21946418D01*
X-5544332Y-21946421D01*
X-5671804Y-21999221D01*
X-5671817Y-21999228D01*
X-5786541Y-22075885D01*
X-5786545Y-22075888D01*
X-5884111Y-22173454D01*
X-5884114Y-22173458D01*
X-5960771Y-22288182D01*
X-5960778Y-22288195D01*
X-6013578Y-22415667D01*
X-6013580Y-22415672D01*
X-6013580Y-22415676D01*
X-6013581Y-22415677D01*
X-6040500Y-22551004D01*
X-6040500Y-22551007D01*
X-6040500Y-23288993D01*
X-6013580Y-23424328D01*
X-5960775Y-23551811D01*
X-5884114Y-23666542D01*
X-5786542Y-23764114D01*
X-5764130Y-23779088D01*
X-5744213Y-23792398D01*
X-5699408Y-23846011D01*
X-5690701Y-23915336D01*
X-5720856Y-23978363D01*
X-5780299Y-24015082D01*
X-5813104Y-24019500D01*
X-18789275Y-24019500D01*
X-18856314Y-23999815D01*
X-18902069Y-23947011D01*
X-18912013Y-23877853D01*
X-18882988Y-23814297D01*
X-18847728Y-23786142D01*
X-18601169Y-23654353D01*
X-18601167Y-23654352D01*
X-18601158Y-23654347D01*
X-18331524Y-23474183D01*
X-18080847Y-23268458D01*
X-18080846Y-23268457D01*
X-18080841Y-23268453D01*
X-17851546Y-23039158D01*
X-17645821Y-22788481D01*
X-17645811Y-22788467D01*
X-17465657Y-22518848D01*
X-17465646Y-22518830D01*
X-17312788Y-22232854D01*
X-17312786Y-22232849D01*
X-17188686Y-21933247D01*
X-17094548Y-21622913D01*
X-17094545Y-21622902D01*
X-17031287Y-21304874D01*
X-17031284Y-21304857D01*
X-17004214Y-21030000D01*
X-16999500Y-20982143D01*
X-16999500Y-20657857D01*
X-17029722Y-20351009D01*
X-17031050Y-20337521D01*
X-17031049Y-20337519D01*
X-17031282Y-20335153D01*
X-17031287Y-20335125D01*
X-17094545Y-20017097D01*
X-17094548Y-20017086D01*
X-17188686Y-19706752D01*
X-17263431Y-19526304D01*
X-17281711Y-19482172D01*
X-15200000Y-19482172D01*
X-15200000Y-20180000D01*
X-14348482Y-20180000D01*
X-14359111Y-20198409D01*
X-14400000Y-20351009D01*
X-14400000Y-20508991D01*
X-14359111Y-20661591D01*
X-14348482Y-20680000D01*
X-15200000Y-20680000D01*
X-15200000Y-21377827D01*
X-15199999Y-21377844D01*
X-15193598Y-21437372D01*
X-15193596Y-21437379D01*
X-15143354Y-21572086D01*
X-15143350Y-21572093D01*
X-15057190Y-21687187D01*
X-15057187Y-21687190D01*
X-14942093Y-21773350D01*
X-14942086Y-21773354D01*
X-14807379Y-21823596D01*
X-14807372Y-21823598D01*
X-14747844Y-21829999D01*
X-14747828Y-21830000D01*
X-14050000Y-21830000D01*
X-14050000Y-20978482D01*
X-14031591Y-20989111D01*
X-13878991Y-21030000D01*
X-13721009Y-21030000D01*
X-13568409Y-20989111D01*
X-13550000Y-20978482D01*
X-13550000Y-21830000D01*
X-12852172Y-21830000D01*
X-12852155Y-21829999D01*
X-12792627Y-21823598D01*
X-12792620Y-21823596D01*
X-12657913Y-21773354D01*
X-12657906Y-21773350D01*
X-12542812Y-21687190D01*
X-12542809Y-21687187D01*
X-12456649Y-21572093D01*
X-12456645Y-21572086D01*
X-12406403Y-21437379D01*
X-12406401Y-21437372D01*
X-12400000Y-21377844D01*
X-12400000Y-20680000D01*
X-13251518Y-20680000D01*
X-13240889Y-20661591D01*
X-13200000Y-20508991D01*
X-13200000Y-20351009D01*
X-13205239Y-20331456D01*
X-11300500Y-20331456D01*
X-11300500Y-20331459D01*
X-11300500Y-20528541D01*
X-11262051Y-20721835D01*
X-11186632Y-20903914D01*
X-11077139Y-21067782D01*
X-10937782Y-21207139D01*
X-10773914Y-21316632D01*
X-10591835Y-21392051D01*
X-10528582Y-21404632D01*
X-10398543Y-21430500D01*
X-10398541Y-21430500D01*
X-10201456Y-21430500D01*
X-10008170Y-21392052D01*
X-10008169Y-21392051D01*
X-10008165Y-21392051D01*
X-9973825Y-21377827D01*
X-9826092Y-21316635D01*
X-9826079Y-21316628D01*
X-9662218Y-21207139D01*
X-9662214Y-21207136D01*
X-9522863Y-21067785D01*
X-9522860Y-21067781D01*
X-9413371Y-20903920D01*
X-9413366Y-20903911D01*
X-9406474Y-20887273D01*
X4159500Y-20887273D01*
X4159500Y-20992727D01*
X4186793Y-21094587D01*
X4239520Y-21185913D01*
X4314087Y-21260480D01*
X4405413Y-21313207D01*
X4507273Y-21340500D01*
X4507275Y-21340500D01*
X4612725Y-21340500D01*
X4612727Y-21340500D01*
X4714587Y-21313207D01*
X4805913Y-21260480D01*
X4880480Y-21185913D01*
X4933207Y-21094587D01*
X4960500Y-20992727D01*
X4960500Y-20887273D01*
X4933207Y-20785413D01*
X4880480Y-20694087D01*
X4805913Y-20619520D01*
X4714587Y-20566793D01*
X4612727Y-20539500D01*
X4507273Y-20539500D01*
X4405413Y-20566793D01*
X4405410Y-20566794D01*
X4314085Y-20619521D01*
X4239521Y-20694085D01*
X4186794Y-20785410D01*
X4186793Y-20785413D01*
X4159500Y-20887273D01*
X-9406474Y-20887273D01*
X-9383453Y-20831693D01*
X-9383452Y-20831691D01*
X-9337950Y-20721839D01*
X-9337947Y-20721829D01*
X-9299500Y-20528543D01*
X-9299500Y-20331456D01*
X-9299499Y-20331456D01*
X-9337947Y-20138170D01*
X-9337950Y-20138160D01*
X-9413364Y-19956092D01*
X-9413371Y-19956079D01*
X-9522860Y-19792218D01*
X-9522863Y-19792214D01*
X-9662214Y-19652863D01*
X-9662218Y-19652860D01*
X-9826079Y-19543371D01*
X-9826092Y-19543364D01*
X-10008160Y-19467950D01*
X-10008170Y-19467947D01*
X-10201457Y-19429500D01*
X-10201459Y-19429500D01*
X-10398541Y-19429500D01*
X-10398543Y-19429500D01*
X-10591829Y-19467947D01*
X-10591839Y-19467950D01*
X-10773907Y-19543364D01*
X-10773920Y-19543371D01*
X-10937781Y-19652860D01*
X-10937785Y-19652863D01*
X-11077136Y-19792214D01*
X-11077139Y-19792218D01*
X-11186628Y-19956079D01*
X-11186635Y-19956092D01*
X-11230334Y-20061592D01*
X-11262051Y-20138165D01*
X-11262051Y-20138169D01*
X-11262052Y-20138170D01*
X-11300500Y-20331456D01*
X-13205239Y-20331456D01*
X-13240889Y-20198409D01*
X-13251518Y-20180000D01*
X-12400000Y-20180000D01*
X-12400000Y-19482155D01*
X-12406401Y-19422627D01*
X-12406403Y-19422620D01*
X-12456645Y-19287913D01*
X-12456649Y-19287906D01*
X-12542809Y-19172812D01*
X-12542812Y-19172809D01*
X-12657906Y-19086649D01*
X-12657913Y-19086645D01*
X-12792620Y-19036403D01*
X-12792627Y-19036401D01*
X-12852155Y-19030000D01*
X-13550000Y-19030000D01*
X-13550000Y-19881517D01*
X-13568409Y-19870889D01*
X-13721009Y-19830000D01*
X-13878991Y-19830000D01*
X-14031591Y-19870889D01*
X-14050000Y-19881517D01*
X-14050000Y-19030000D01*
X-14747844Y-19030000D01*
X-14807372Y-19036401D01*
X-14807379Y-19036403D01*
X-14942086Y-19086645D01*
X-14942093Y-19086649D01*
X-15057187Y-19172809D01*
X-15057190Y-19172812D01*
X-15143350Y-19287906D01*
X-15143354Y-19287913D01*
X-15193596Y-19422620D01*
X-15193598Y-19422627D01*
X-15199999Y-19482155D01*
X-15200000Y-19482172D01*
X-17281711Y-19482172D01*
X-17312786Y-19407150D01*
X-17312788Y-19407145D01*
X-17465646Y-19121169D01*
X-17465657Y-19121151D01*
X-17645811Y-18851532D01*
X-17645821Y-18851518D01*
X-17851546Y-18600841D01*
X-18080841Y-18371546D01*
X-18185456Y-18285692D01*
X-18294833Y-18195928D01*
X-5990500Y-18195928D01*
X-5990500Y-18195931D01*
X-5990500Y-19224069D01*
X-5965501Y-19349744D01*
X-5916465Y-19468127D01*
X-5845276Y-19574669D01*
X-5754669Y-19665276D01*
X-5648127Y-19736465D01*
X-5529744Y-19785501D01*
X-5495996Y-19792214D01*
X-5404071Y-19810500D01*
X-5404069Y-19810500D01*
X-5275928Y-19810500D01*
X-5150261Y-19785502D01*
X-5150260Y-19785501D01*
X-5150256Y-19785501D01*
X-5031873Y-19736465D01*
X-5031872Y-19736464D01*
X-5031866Y-19736461D01*
X-4925331Y-19665276D01*
X-4925327Y-19665273D01*
X-4834726Y-19574672D01*
X-4834723Y-19574668D01*
X-4763538Y-19468133D01*
X-4763533Y-19468123D01*
X-4725427Y-19376128D01*
X-4681585Y-19321724D01*
X-4615291Y-19299660D01*
X-4547592Y-19316940D01*
X-4499982Y-19368077D01*
X-4491094Y-19391480D01*
X-4469577Y-19471784D01*
X-4390520Y-19608716D01*
X-4278716Y-19720520D01*
X-4141784Y-19799577D01*
X-3989057Y-19840500D01*
X-3989055Y-19840500D01*
X-3830945Y-19840500D01*
X-3830943Y-19840500D01*
X-3678216Y-19799577D01*
X-3653835Y-19785501D01*
X-3541290Y-19720524D01*
X-3541286Y-19720521D01*
X-3541284Y-19720520D01*
X-3429480Y-19608716D01*
X-3429479Y-19608714D01*
X-3429475Y-19608709D01*
X-3350426Y-19471790D01*
X-3350423Y-19471783D01*
X-3350422Y-19471782D01*
X-3309500Y-19319057D01*
X-3309500Y-19160943D01*
X1269500Y-19160943D01*
X1269500Y-19319057D01*
X1310423Y-19471782D01*
X1310423Y-19471783D01*
X1310426Y-19471790D01*
X1389475Y-19608709D01*
X1389479Y-19608714D01*
X1389480Y-19608716D01*
X1501284Y-19720520D01*
X1501286Y-19720521D01*
X1501290Y-19720524D01*
X1613835Y-19785501D01*
X1638216Y-19799577D01*
X1790943Y-19840500D01*
X1790945Y-19840500D01*
X1949055Y-19840500D01*
X1949057Y-19840500D01*
X2101784Y-19799577D01*
X2238716Y-19720520D01*
X2350520Y-19608716D01*
X2429577Y-19471784D01*
X2451092Y-19391486D01*
X2487455Y-19331828D01*
X2550302Y-19301298D01*
X2619678Y-19309592D01*
X2673556Y-19354077D01*
X2685427Y-19376128D01*
X2723533Y-19468123D01*
X2723538Y-19468133D01*
X2794723Y-19574668D01*
X2794726Y-19574672D01*
X2885327Y-19665273D01*
X2885331Y-19665276D01*
X2991866Y-19736461D01*
X2991872Y-19736464D01*
X2991873Y-19736465D01*
X3110256Y-19785501D01*
X3110260Y-19785501D01*
X3110261Y-19785502D01*
X3235928Y-19810500D01*
X3235931Y-19810500D01*
X3364071Y-19810500D01*
X3455996Y-19792214D01*
X3489744Y-19785501D01*
X3608127Y-19736465D01*
X3714669Y-19665276D01*
X3805276Y-19574669D01*
X3876465Y-19468127D01*
X3925501Y-19349744D01*
X3950500Y-19224071D01*
X5909599Y-19224071D01*
X5934597Y-19349738D01*
X5934599Y-19349744D01*
X5983633Y-19468124D01*
X5983638Y-19468133D01*
X6054823Y-19574668D01*
X6054826Y-19574672D01*
X6145427Y-19665273D01*
X6145431Y-19665276D01*
X6251966Y-19736461D01*
X6251972Y-19736464D01*
X6251973Y-19736465D01*
X6370356Y-19785501D01*
X6370360Y-19785501D01*
X6370361Y-19785502D01*
X6496028Y-19810500D01*
X6496031Y-19810500D01*
X6624171Y-19810500D01*
X6716096Y-19792214D01*
X6749844Y-19785501D01*
X6868227Y-19736465D01*
X6974769Y-19665276D01*
X7065376Y-19574669D01*
X7136565Y-19468127D01*
X7160974Y-19409200D01*
X7174672Y-19376129D01*
X7218513Y-19321725D01*
X7284807Y-19299660D01*
X7352506Y-19316939D01*
X7400117Y-19368076D01*
X7409006Y-19391482D01*
X7422775Y-19442871D01*
X7430523Y-19471785D01*
X7430526Y-19471790D01*
X7509575Y-19608709D01*
X7509579Y-19608714D01*
X7509580Y-19608716D01*
X7621384Y-19720520D01*
X7621386Y-19720521D01*
X7621390Y-19720524D01*
X7733935Y-19785501D01*
X7758316Y-19799577D01*
X7911043Y-19840500D01*
X7911045Y-19840500D01*
X8069155Y-19840500D01*
X8069157Y-19840500D01*
X8221884Y-19799577D01*
X8358816Y-19720520D01*
X8470620Y-19608716D01*
X8549677Y-19471784D01*
X8590600Y-19319057D01*
X8590600Y-19160943D01*
X13169600Y-19160943D01*
X13169600Y-19319057D01*
X13210523Y-19471782D01*
X13210523Y-19471783D01*
X13210526Y-19471790D01*
X13289575Y-19608709D01*
X13289579Y-19608714D01*
X13289580Y-19608716D01*
X13401384Y-19720520D01*
X13401386Y-19720521D01*
X13401390Y-19720524D01*
X13513935Y-19785501D01*
X13538316Y-19799577D01*
X13691043Y-19840500D01*
X13691045Y-19840500D01*
X13849155Y-19840500D01*
X13849157Y-19840500D01*
X14001884Y-19799577D01*
X14138816Y-19720520D01*
X14250620Y-19608716D01*
X14329677Y-19471784D01*
X14351192Y-19391486D01*
X14387555Y-19331828D01*
X14450402Y-19301298D01*
X14519778Y-19309592D01*
X14573656Y-19354077D01*
X14585527Y-19376128D01*
X14623633Y-19468123D01*
X14623638Y-19468133D01*
X14694823Y-19574668D01*
X14694826Y-19574672D01*
X14785427Y-19665273D01*
X14785431Y-19665276D01*
X14891966Y-19736461D01*
X14891972Y-19736464D01*
X14891973Y-19736465D01*
X15010356Y-19785501D01*
X15010360Y-19785501D01*
X15010361Y-19785502D01*
X15136028Y-19810500D01*
X15136031Y-19810500D01*
X15264171Y-19810500D01*
X15356096Y-19792214D01*
X15389844Y-19785501D01*
X15508227Y-19736465D01*
X15614769Y-19665276D01*
X15705376Y-19574669D01*
X15776565Y-19468127D01*
X15825601Y-19349744D01*
X15850600Y-19224069D01*
X15850600Y-18195931D01*
X15850600Y-18195928D01*
X15825602Y-18070261D01*
X15825601Y-18070260D01*
X15825601Y-18070256D01*
X15776565Y-17951873D01*
X15776564Y-17951872D01*
X15776561Y-17951866D01*
X15705376Y-17845331D01*
X15705373Y-17845327D01*
X15614772Y-17754726D01*
X15614768Y-17754723D01*
X15508233Y-17683538D01*
X15508224Y-17683533D01*
X15389844Y-17634499D01*
X15389838Y-17634497D01*
X15264171Y-17609500D01*
X15264169Y-17609500D01*
X15136031Y-17609500D01*
X15136029Y-17609500D01*
X15010361Y-17634497D01*
X15010355Y-17634499D01*
X14891975Y-17683533D01*
X14891966Y-17683538D01*
X14785431Y-17754723D01*
X14785427Y-17754726D01*
X14694826Y-17845327D01*
X14694823Y-17845331D01*
X14623638Y-17951866D01*
X14623633Y-17951875D01*
X14574599Y-18070255D01*
X14574597Y-18070261D01*
X14549600Y-18195928D01*
X14549600Y-18926359D01*
X14529915Y-18993398D01*
X14477111Y-19039153D01*
X14407953Y-19049097D01*
X14344397Y-19020072D01*
X14318213Y-18988359D01*
X14250622Y-18871287D01*
X14250618Y-18871282D01*
X14138817Y-18759481D01*
X14138809Y-18759475D01*
X14001890Y-18680426D01*
X14001886Y-18680424D01*
X14001884Y-18680423D01*
X13849157Y-18639500D01*
X13691043Y-18639500D01*
X13538316Y-18680423D01*
X13538309Y-18680426D01*
X13401390Y-18759475D01*
X13401382Y-18759481D01*
X13289581Y-18871282D01*
X13289575Y-18871290D01*
X13210526Y-19008209D01*
X13210523Y-19008216D01*
X13169600Y-19160943D01*
X8590600Y-19160943D01*
X8549677Y-19008216D01*
X8525833Y-18966916D01*
X8470624Y-18871290D01*
X8470618Y-18871282D01*
X8358817Y-18759481D01*
X8358809Y-18759475D01*
X8221890Y-18680426D01*
X8221886Y-18680424D01*
X8221884Y-18680423D01*
X8069157Y-18639500D01*
X7911043Y-18639500D01*
X7758316Y-18680423D01*
X7758309Y-18680426D01*
X7621390Y-18759475D01*
X7621382Y-18759481D01*
X7509581Y-18871282D01*
X7509577Y-18871287D01*
X7441987Y-18988359D01*
X7391421Y-19036574D01*
X7322814Y-19049798D01*
X7257949Y-19023830D01*
X7217420Y-18966916D01*
X7210600Y-18926359D01*
X7210600Y-18195928D01*
X7185602Y-18070261D01*
X7185601Y-18070260D01*
X7185601Y-18070256D01*
X7136565Y-17951873D01*
X7136564Y-17951872D01*
X7136561Y-17951866D01*
X7065376Y-17845331D01*
X7065373Y-17845327D01*
X6974772Y-17754726D01*
X6974768Y-17754723D01*
X6868233Y-17683538D01*
X6868224Y-17683533D01*
X6749844Y-17634499D01*
X6749838Y-17634497D01*
X6624171Y-17609500D01*
X6624169Y-17609500D01*
X6496031Y-17609500D01*
X6496029Y-17609500D01*
X6370361Y-17634497D01*
X6370355Y-17634499D01*
X6251975Y-17683533D01*
X6251966Y-17683538D01*
X6145431Y-17754723D01*
X6145427Y-17754726D01*
X6054826Y-17845327D01*
X6054823Y-17845331D01*
X5983638Y-17951866D01*
X5983633Y-17951875D01*
X5934599Y-18070255D01*
X5934597Y-18070261D01*
X5909600Y-18195928D01*
X5909600Y-18195931D01*
X5909600Y-19224069D01*
X5909600Y-19224071D01*
X5909599Y-19224071D01*
X3950500Y-19224071D01*
X3950500Y-19224069D01*
X3950500Y-18195931D01*
X3950500Y-18195928D01*
X3925502Y-18070261D01*
X3925501Y-18070260D01*
X3925501Y-18070256D01*
X3876465Y-17951873D01*
X3876464Y-17951872D01*
X3876461Y-17951866D01*
X3805276Y-17845331D01*
X3805273Y-17845327D01*
X3714672Y-17754726D01*
X3714668Y-17754723D01*
X3608133Y-17683538D01*
X3608124Y-17683533D01*
X3489744Y-17634499D01*
X3489738Y-17634497D01*
X3364071Y-17609500D01*
X3364069Y-17609500D01*
X3235931Y-17609500D01*
X3235929Y-17609500D01*
X3110261Y-17634497D01*
X3110255Y-17634499D01*
X2991875Y-17683533D01*
X2991866Y-17683538D01*
X2885331Y-17754723D01*
X2885327Y-17754726D01*
X2794726Y-17845327D01*
X2794723Y-17845331D01*
X2723538Y-17951866D01*
X2723533Y-17951875D01*
X2674499Y-18070255D01*
X2674497Y-18070261D01*
X2649500Y-18195928D01*
X2649500Y-18926359D01*
X2629815Y-18993398D01*
X2577011Y-19039153D01*
X2507853Y-19049097D01*
X2444297Y-19020072D01*
X2418113Y-18988359D01*
X2350522Y-18871287D01*
X2350518Y-18871282D01*
X2238717Y-18759481D01*
X2238709Y-18759475D01*
X2101790Y-18680426D01*
X2101786Y-18680424D01*
X2101784Y-18680423D01*
X1949057Y-18639500D01*
X1790943Y-18639500D01*
X1638216Y-18680423D01*
X1638209Y-18680426D01*
X1501290Y-18759475D01*
X1501282Y-18759481D01*
X1389481Y-18871282D01*
X1389475Y-18871290D01*
X1310426Y-19008209D01*
X1310423Y-19008216D01*
X1269500Y-19160943D01*
X-3309500Y-19160943D01*
X-3350423Y-19008216D01*
X-3350426Y-19008209D01*
X-3429475Y-18871290D01*
X-3429481Y-18871282D01*
X-3541282Y-18759481D01*
X-3541290Y-18759475D01*
X-3678209Y-18680426D01*
X-3678216Y-18680423D01*
X-3830943Y-18639500D01*
X-3989057Y-18639500D01*
X-4141784Y-18680423D01*
X-4141786Y-18680424D01*
X-4141790Y-18680426D01*
X-4278709Y-18759475D01*
X-4278717Y-18759481D01*
X-4390518Y-18871282D01*
X-4390522Y-18871287D01*
X-4458113Y-18988359D01*
X-4508679Y-19036574D01*
X-4577286Y-19049798D01*
X-4642151Y-19023830D01*
X-4682680Y-18966916D01*
X-4689500Y-18926359D01*
X-4689500Y-18195928D01*
X-4689499Y-18195928D01*
X-4714497Y-18070261D01*
X-4714499Y-18070255D01*
X-4763533Y-17951875D01*
X-4763538Y-17951866D01*
X-4834723Y-17845331D01*
X-4834726Y-17845327D01*
X-4925327Y-17754726D01*
X-4925331Y-17754723D01*
X-5031866Y-17683538D01*
X-5031875Y-17683533D01*
X-5150255Y-17634499D01*
X-5150261Y-17634497D01*
X-5275929Y-17609500D01*
X-5275931Y-17609500D01*
X-5404069Y-17609500D01*
X-5404071Y-17609500D01*
X-5529738Y-17634497D01*
X-5529744Y-17634499D01*
X-5648124Y-17683533D01*
X-5648133Y-17683538D01*
X-5754668Y-17754723D01*
X-5754672Y-17754726D01*
X-5845273Y-17845327D01*
X-5845276Y-17845331D01*
X-5916461Y-17951866D01*
X-5916464Y-17951872D01*
X-5916465Y-17951873D01*
X-5965501Y-18070256D01*
X-5965501Y-18070260D01*
X-5965502Y-18070261D01*
X-5990500Y-18195928D01*
X-18294833Y-18195928D01*
X-18331518Y-18165821D01*
X-18331532Y-18165811D01*
X-18601151Y-17985657D01*
X-18601169Y-17985646D01*
X-18887145Y-17832788D01*
X-18887150Y-17832786D01*
X-19186752Y-17708686D01*
X-19497086Y-17614548D01*
X-19497097Y-17614545D01*
X-19666938Y-17580763D01*
X-19815125Y-17551287D01*
X-19815142Y-17551284D01*
X-20065099Y-17526666D01*
X-20137857Y-17519500D01*
X-20462143Y-17519500D01*
X-20540812Y-17527248D01*
X-20784857Y-17551284D01*
X-20784874Y-17551287D01*
X-21102902Y-17614545D01*
X-21102913Y-17614548D01*
X-21413247Y-17708686D01*
X-21712849Y-17832786D01*
X-21712854Y-17832788D01*
X-21998830Y-17985646D01*
X-21998837Y-17985650D01*
X-21998842Y-17985653D01*
X-22268476Y-18165817D01*
X-22268480Y-18165820D01*
X-22268481Y-18165821D01*
X-22519158Y-18371546D01*
X-22748453Y-18600841D01*
X-22748457Y-18600846D01*
X-22748458Y-18600847D01*
X-22954183Y-18851524D01*
X-23134347Y-19121158D01*
X-23189354Y-19224069D01*
X-23266142Y-19367728D01*
X-23315105Y-19417572D01*
X-23383242Y-19433032D01*
X-23448922Y-19409200D01*
X-23491291Y-19353642D01*
X-23499500Y-19309274D01*
X-23499500Y-17467273D01*
X-12100500Y-17467273D01*
X-12100500Y-17572727D01*
X-12073207Y-17674587D01*
X-12020480Y-17765913D01*
X-11945913Y-17840480D01*
X-11854587Y-17893207D01*
X-11752727Y-17920500D01*
X-11752725Y-17920500D01*
X-11647275Y-17920500D01*
X-11647273Y-17920500D01*
X-11545413Y-17893207D01*
X-11454087Y-17840480D01*
X-11379520Y-17765913D01*
X-11326793Y-17674587D01*
X-11299500Y-17572727D01*
X-11299500Y-17467273D01*
X-11326793Y-17365413D01*
X-11326794Y-17365410D01*
X-11379521Y-17274085D01*
X-11454085Y-17199521D01*
X-11545410Y-17146794D01*
X-11545413Y-17146793D01*
X-11647273Y-17119500D01*
X-11752727Y-17119500D01*
X-11854587Y-17146793D01*
X-11945913Y-17199520D01*
X-12020480Y-17274087D01*
X-12073207Y-17365413D01*
X-12100500Y-17467273D01*
X-23499500Y-17467273D01*
X-23499500Y-16477273D01*
X-7260500Y-16477273D01*
X-7260500Y-16582727D01*
X-7233207Y-16684587D01*
X-7180480Y-16775913D01*
X-7105913Y-16850480D01*
X-7014587Y-16903207D01*
X-6912727Y-16930500D01*
X-6912725Y-16930500D01*
X-6807275Y-16930500D01*
X-6807273Y-16930500D01*
X-6705413Y-16903207D01*
X-6614087Y-16850480D01*
X-6539520Y-16775913D01*
X-6517211Y-16737273D01*
X-5150500Y-16737273D01*
X-5150500Y-16842727D01*
X-5123207Y-16944587D01*
X-5070480Y-17035913D01*
X-4995913Y-17110480D01*
X-4904587Y-17163207D01*
X-4802727Y-17190500D01*
X-4802725Y-17190500D01*
X-4697275Y-17190500D01*
X-4697273Y-17190500D01*
X-4595413Y-17163207D01*
X-4504087Y-17110480D01*
X-4429520Y-17035913D01*
X-4376793Y-16944587D01*
X-4349500Y-16842727D01*
X-4349500Y-16737273D01*
X-4376793Y-16635413D01*
X-4376794Y-16635410D01*
X-4429521Y-16544085D01*
X-4504085Y-16469521D01*
X-4595410Y-16416794D01*
X-4595413Y-16416793D01*
X-4697273Y-16389500D01*
X-4802727Y-16389500D01*
X-4904587Y-16416793D01*
X-4995913Y-16469520D01*
X-5070480Y-16544087D01*
X-5123207Y-16635413D01*
X-5150500Y-16737273D01*
X-6517211Y-16737273D01*
X-6486793Y-16684587D01*
X-6459500Y-16582727D01*
X-6459500Y-16477273D01*
X-6486793Y-16375413D01*
X-6486794Y-16375410D01*
X-6539521Y-16284085D01*
X-6606780Y-16216827D01*
X-6614085Y-16209521D01*
X-6705410Y-16156794D01*
X-6705413Y-16156793D01*
X-6778263Y-16137273D01*
X9549500Y-16137273D01*
X9549500Y-16242727D01*
X9576793Y-16344587D01*
X9629520Y-16435913D01*
X9704087Y-16510480D01*
X9795413Y-16563207D01*
X9897273Y-16590500D01*
X9897275Y-16590500D01*
X10002725Y-16590500D01*
X10002727Y-16590500D01*
X10104587Y-16563207D01*
X10195913Y-16510480D01*
X10270480Y-16435913D01*
X10323207Y-16344587D01*
X10350500Y-16242727D01*
X10350500Y-16157273D01*
X14859500Y-16157273D01*
X14859500Y-16262727D01*
X14886793Y-16364587D01*
X14939520Y-16455913D01*
X15014087Y-16530480D01*
X15105413Y-16583207D01*
X15207273Y-16610500D01*
X15207275Y-16610500D01*
X15312725Y-16610500D01*
X15312727Y-16610500D01*
X15414587Y-16583207D01*
X15505913Y-16530480D01*
X15580480Y-16455913D01*
X15633207Y-16364587D01*
X15660500Y-16262727D01*
X15660500Y-16157273D01*
X15633207Y-16055413D01*
X15580480Y-15964087D01*
X15505913Y-15889520D01*
X15414587Y-15836793D01*
X15312727Y-15809500D01*
X15207273Y-15809500D01*
X15105413Y-15836793D01*
X15105410Y-15836794D01*
X15014085Y-15889521D01*
X14939521Y-15964085D01*
X14886794Y-16055410D01*
X14886793Y-16055413D01*
X14859500Y-16157273D01*
X10350500Y-16157273D01*
X10350500Y-16137273D01*
X10323207Y-16035413D01*
X10270480Y-15944087D01*
X10195913Y-15869520D01*
X10104587Y-15816793D01*
X10002727Y-15789500D01*
X9897273Y-15789500D01*
X9795413Y-15816793D01*
X9795410Y-15816794D01*
X9704085Y-15869521D01*
X9629521Y-15944085D01*
X9576794Y-16035410D01*
X9576793Y-16035413D01*
X9549500Y-16137273D01*
X-6778263Y-16137273D01*
X-6807273Y-16129500D01*
X-6912727Y-16129500D01*
X-7014587Y-16156793D01*
X-7014588Y-16156793D01*
X-7014589Y-16156794D01*
X-7015422Y-16157275D01*
X-7105913Y-16209520D01*
X-7180480Y-16284087D01*
X-7233207Y-16375413D01*
X-7260500Y-16477273D01*
X-23499500Y-16477273D01*
X-23499500Y-15267273D01*
X18799500Y-15267273D01*
X18799500Y-15372727D01*
X18826793Y-15474587D01*
X18879520Y-15565913D01*
X18954087Y-15640480D01*
X19045413Y-15693207D01*
X19147273Y-15720500D01*
X19147275Y-15720500D01*
X19252725Y-15720500D01*
X19252727Y-15720500D01*
X19354587Y-15693207D01*
X19445913Y-15640480D01*
X19520480Y-15565913D01*
X19573207Y-15474587D01*
X19600500Y-15372727D01*
X19600500Y-15267273D01*
X19573207Y-15165413D01*
X19520480Y-15074087D01*
X19445913Y-14999520D01*
X19354587Y-14946793D01*
X19252727Y-14919500D01*
X19147273Y-14919500D01*
X19045413Y-14946793D01*
X19045410Y-14946794D01*
X18954085Y-14999521D01*
X18879521Y-15074085D01*
X18826794Y-15165410D01*
X18826793Y-15165413D01*
X18799500Y-15267273D01*
X-23499500Y-15267273D01*
X-23499500Y-14667273D01*
X309500Y-14667273D01*
X309500Y-14772727D01*
X336793Y-14874587D01*
X389520Y-14965913D01*
X464087Y-15040480D01*
X555413Y-15093207D01*
X657273Y-15120500D01*
X657275Y-15120500D01*
X762725Y-15120500D01*
X762727Y-15120500D01*
X864587Y-15093207D01*
X955913Y-15040480D01*
X1030480Y-14965913D01*
X1083207Y-14874587D01*
X1110500Y-14772727D01*
X1110500Y-14667273D01*
X1085296Y-14573210D01*
X11935199Y-14573210D01*
X11935199Y-14678664D01*
X11962492Y-14780524D01*
X12015219Y-14871850D01*
X12089786Y-14946417D01*
X12181112Y-14999144D01*
X12282972Y-15026437D01*
X12282974Y-15026437D01*
X12388424Y-15026437D01*
X12388426Y-15026437D01*
X12490286Y-14999144D01*
X12581612Y-14946417D01*
X12656179Y-14871850D01*
X12708906Y-14780524D01*
X12736199Y-14678664D01*
X12736199Y-14604773D01*
X23099500Y-14604773D01*
X23099500Y-14710227D01*
X23126793Y-14812087D01*
X23179520Y-14903413D01*
X23254087Y-14977980D01*
X23345413Y-15030707D01*
X23447273Y-15058000D01*
X23447275Y-15058000D01*
X23552725Y-15058000D01*
X23552727Y-15058000D01*
X23654587Y-15030707D01*
X23745913Y-14977980D01*
X23820480Y-14903413D01*
X23873207Y-14812087D01*
X23900500Y-14710227D01*
X23900500Y-14604773D01*
X23873207Y-14502913D01*
X23820480Y-14411587D01*
X23745913Y-14337020D01*
X23654587Y-14284293D01*
X23552727Y-14257000D01*
X23447273Y-14257000D01*
X23345413Y-14284293D01*
X23345410Y-14284294D01*
X23254085Y-14337021D01*
X23179521Y-14411585D01*
X23126794Y-14502910D01*
X23126793Y-14502913D01*
X23099500Y-14604773D01*
X12736199Y-14604773D01*
X12736199Y-14573210D01*
X12716453Y-14499518D01*
X12715547Y-14494544D01*
X12718708Y-14464628D01*
X12719425Y-14434553D01*
X12722343Y-14430240D01*
X12722891Y-14425062D01*
X12741728Y-14401600D01*
X12758588Y-14376691D01*
X12764660Y-14373039D01*
X12766635Y-14370580D01*
X12771407Y-14368982D01*
X12783055Y-14361977D01*
X12782977Y-14361842D01*
X12790016Y-14357778D01*
X12881342Y-14305051D01*
X12955909Y-14230484D01*
X13008636Y-14139158D01*
X13035929Y-14037298D01*
X13035929Y-13931844D01*
X13032025Y-13917273D01*
X13999600Y-13917273D01*
X13999600Y-14022727D01*
X14013496Y-14074586D01*
X14026893Y-14124586D01*
X14026894Y-14124589D01*
X14035307Y-14139160D01*
X14079620Y-14215913D01*
X14154187Y-14290480D01*
X14245513Y-14343207D01*
X14347373Y-14370500D01*
X14347375Y-14370500D01*
X14452825Y-14370500D01*
X14452827Y-14370500D01*
X14554687Y-14343207D01*
X14646013Y-14290480D01*
X14720580Y-14215913D01*
X14773307Y-14124587D01*
X14800600Y-14022727D01*
X14800600Y-13917273D01*
X14773307Y-13815413D01*
X14720580Y-13724087D01*
X14646013Y-13649520D01*
X14559412Y-13599521D01*
X14554689Y-13596794D01*
X14554688Y-13596793D01*
X14554687Y-13596793D01*
X14452827Y-13569500D01*
X14347373Y-13569500D01*
X14245513Y-13596793D01*
X14245510Y-13596794D01*
X14154185Y-13649521D01*
X14079621Y-13724085D01*
X14026894Y-13815410D01*
X14026893Y-13815413D01*
X13999600Y-13917273D01*
X13032025Y-13917273D01*
X13008636Y-13829984D01*
X12955909Y-13738658D01*
X12881342Y-13664091D01*
X12790016Y-13611364D01*
X12688156Y-13584071D01*
X12582702Y-13584071D01*
X12480842Y-13611364D01*
X12480839Y-13611365D01*
X12389514Y-13664092D01*
X12314950Y-13738656D01*
X12262223Y-13829981D01*
X12262222Y-13829984D01*
X12234929Y-13931844D01*
X12234929Y-14037299D01*
X12253365Y-14106105D01*
X12251702Y-14175955D01*
X12212539Y-14233817D01*
X12188073Y-14248530D01*
X12188151Y-14248666D01*
X12089784Y-14305458D01*
X12015220Y-14380022D01*
X11962493Y-14471347D01*
X11962492Y-14471350D01*
X11935199Y-14573210D01*
X1085296Y-14573210D01*
X1083207Y-14565413D01*
X1030480Y-14474087D01*
X955913Y-14399520D01*
X864587Y-14346793D01*
X762727Y-14319500D01*
X657273Y-14319500D01*
X555413Y-14346793D01*
X555410Y-14346794D01*
X464085Y-14399521D01*
X389521Y-14474085D01*
X336794Y-14565410D01*
X336793Y-14565413D01*
X309500Y-14667273D01*
X-23499500Y-14667273D01*
X-23499500Y-13867273D01*
X-4400500Y-13867273D01*
X-4400500Y-13972727D01*
X-4373207Y-14074587D01*
X-4320480Y-14165913D01*
X-4245913Y-14240480D01*
X-4154587Y-14293207D01*
X-4052727Y-14320500D01*
X-4052725Y-14320500D01*
X-3947275Y-14320500D01*
X-3947273Y-14320500D01*
X-3845413Y-14293207D01*
X-3754087Y-14240480D01*
X-3679520Y-14165913D01*
X-3626793Y-14074587D01*
X-3599500Y-13972727D01*
X-3599500Y-13867273D01*
X-3626793Y-13765413D01*
X-3626794Y-13765410D01*
X-3679521Y-13674085D01*
X-3754085Y-13599521D01*
X-3845410Y-13546794D01*
X-3845413Y-13546793D01*
X-3947273Y-13519500D01*
X-4052727Y-13519500D01*
X-4154587Y-13546793D01*
X-4245913Y-13599520D01*
X-4320480Y-13674087D01*
X-4373207Y-13765413D01*
X-4400500Y-13867273D01*
X-23499500Y-13867273D01*
X-23499500Y-13117273D01*
X-8980500Y-13117273D01*
X-8980500Y-13222727D01*
X-8953207Y-13324587D01*
X-8900480Y-13415913D01*
X-8825913Y-13490480D01*
X-8734587Y-13543207D01*
X-8632727Y-13570500D01*
X-8632725Y-13570500D01*
X-8527275Y-13570500D01*
X-8527273Y-13570500D01*
X-8425413Y-13543207D01*
X-8334087Y-13490480D01*
X-8259520Y-13415913D01*
X-8206793Y-13324587D01*
X-8179500Y-13222727D01*
X-8179500Y-13117273D01*
X-8206793Y-13015413D01*
X-8259520Y-12924087D01*
X-8259521Y-12924085D01*
X-8259523Y-12924083D01*
X-8316333Y-12867273D01*
X-2100500Y-12867273D01*
X-2100500Y-12972727D01*
X-2073207Y-13074587D01*
X-2020480Y-13165913D01*
X-1945913Y-13240480D01*
X-1907574Y-13262614D01*
X-1859361Y-13313179D01*
X-1846137Y-13381786D01*
X-1872105Y-13446651D01*
X-1907573Y-13477384D01*
X-1945913Y-13499520D01*
X-2020480Y-13574087D01*
X-2073207Y-13665413D01*
X-2100500Y-13767273D01*
X-2100500Y-13872727D01*
X-2073207Y-13974587D01*
X-2020480Y-14065913D01*
X-1945913Y-14140480D01*
X-1854587Y-14193207D01*
X-1752727Y-14220500D01*
X-1752725Y-14220500D01*
X-1647275Y-14220500D01*
X-1647273Y-14220500D01*
X-1545413Y-14193207D01*
X-1454087Y-14140480D01*
X-1379520Y-14065913D01*
X-1326793Y-13974587D01*
X-1299500Y-13872727D01*
X-1299500Y-13767273D01*
X-1326793Y-13665413D01*
X-1326794Y-13665410D01*
X-1379521Y-13574085D01*
X-1454084Y-13499522D01*
X-1454087Y-13499520D01*
X-1492425Y-13477385D01*
X-1540639Y-13426820D01*
X-1553861Y-13358212D01*
X-1527893Y-13293348D01*
X-1492426Y-13262615D01*
X-1454087Y-13240480D01*
X-1379520Y-13165913D01*
X-1326793Y-13074587D01*
X-1299500Y-12972727D01*
X-1299500Y-12967273D01*
X-300500Y-12967273D01*
X-300500Y-13072727D01*
X-273207Y-13174587D01*
X-220480Y-13265913D01*
X-145913Y-13340480D01*
X-54587Y-13393207D01*
X47273Y-13420500D01*
X47275Y-13420500D01*
X152725Y-13420500D01*
X152727Y-13420500D01*
X254587Y-13393207D01*
X345913Y-13340480D01*
X381620Y-13304773D01*
X19799500Y-13304773D01*
X19799500Y-13410227D01*
X19826793Y-13512087D01*
X19879520Y-13603413D01*
X19954087Y-13677980D01*
X20045413Y-13730707D01*
X20147273Y-13758000D01*
X20147275Y-13758000D01*
X20252725Y-13758000D01*
X20252727Y-13758000D01*
X20354587Y-13730707D01*
X20445913Y-13677980D01*
X20520480Y-13603413D01*
X20573207Y-13512087D01*
X20600500Y-13410227D01*
X20600500Y-13304773D01*
X20573207Y-13202913D01*
X20520480Y-13111587D01*
X20445913Y-13037020D01*
X20354587Y-12984293D01*
X20252727Y-12957000D01*
X20147273Y-12957000D01*
X20045413Y-12984293D01*
X20045410Y-12984294D01*
X19954085Y-13037021D01*
X19879521Y-13111585D01*
X19826794Y-13202910D01*
X19826793Y-13202913D01*
X19799500Y-13304773D01*
X381620Y-13304773D01*
X420480Y-13265913D01*
X435165Y-13240478D01*
X438533Y-13234645D01*
X456853Y-13202913D01*
X473207Y-13174587D01*
X500500Y-13072727D01*
X500500Y-12967273D01*
X473207Y-12865413D01*
X420480Y-12774087D01*
X363666Y-12717273D01*
X9912100Y-12717273D01*
X9912100Y-12822727D01*
X9939393Y-12924587D01*
X9992120Y-13015913D01*
X10066687Y-13090480D01*
X10158013Y-13143207D01*
X10259873Y-13170500D01*
X10259875Y-13170500D01*
X10365325Y-13170500D01*
X10365327Y-13170500D01*
X10467187Y-13143207D01*
X10558513Y-13090480D01*
X10633080Y-13015913D01*
X10685807Y-12924587D01*
X10713100Y-12822727D01*
X10713100Y-12717273D01*
X10685807Y-12615413D01*
X10633080Y-12524087D01*
X10630525Y-12521532D01*
X12899600Y-12521532D01*
X12899600Y-12626986D01*
X12926893Y-12728846D01*
X12979620Y-12820172D01*
X13054187Y-12894739D01*
X13145513Y-12947466D01*
X13247373Y-12974759D01*
X13247375Y-12974759D01*
X13352825Y-12974759D01*
X13352827Y-12974759D01*
X13454687Y-12947466D01*
X13546013Y-12894739D01*
X13620580Y-12820172D01*
X13673307Y-12728846D01*
X13700600Y-12626986D01*
X13700600Y-12521532D01*
X13673307Y-12419672D01*
X13620580Y-12328346D01*
X13546013Y-12253779D01*
X13454687Y-12201052D01*
X13352827Y-12173759D01*
X13247373Y-12173759D01*
X13145513Y-12201052D01*
X13145510Y-12201053D01*
X13054185Y-12253780D01*
X12979621Y-12328344D01*
X12926894Y-12419669D01*
X12926893Y-12419672D01*
X12899600Y-12521532D01*
X10630525Y-12521532D01*
X10558513Y-12449520D01*
X10467187Y-12396793D01*
X10365327Y-12369500D01*
X10259873Y-12369500D01*
X10158013Y-12396793D01*
X10158010Y-12396794D01*
X10066685Y-12449521D01*
X9992121Y-12524085D01*
X9939394Y-12615410D01*
X9939393Y-12615413D01*
X9912100Y-12717273D01*
X363666Y-12717273D01*
X345913Y-12699520D01*
X254587Y-12646793D01*
X152727Y-12619500D01*
X47273Y-12619500D01*
X-54587Y-12646793D01*
X-145913Y-12699520D01*
X-220480Y-12774087D01*
X-273207Y-12865413D01*
X-300500Y-12967273D01*
X-1299500Y-12967273D01*
X-1299500Y-12867273D01*
X-1326793Y-12765413D01*
X-1326794Y-12765410D01*
X-1379521Y-12674085D01*
X-1454085Y-12599521D01*
X-1545410Y-12546794D01*
X-1545413Y-12546793D01*
X-1647273Y-12519500D01*
X-1752727Y-12519500D01*
X-1854587Y-12546793D01*
X-1945913Y-12599520D01*
X-2020480Y-12674087D01*
X-2073207Y-12765413D01*
X-2100500Y-12867273D01*
X-8316333Y-12867273D01*
X-8334085Y-12849521D01*
X-8425410Y-12796794D01*
X-8425413Y-12796793D01*
X-8527273Y-12769500D01*
X-8632727Y-12769500D01*
X-8734587Y-12796793D01*
X-8825913Y-12849520D01*
X-8900480Y-12924087D01*
X-8953207Y-13015413D01*
X-8980500Y-13117273D01*
X-23499500Y-13117273D01*
X-23499500Y-11507273D01*
X-4200500Y-11507273D01*
X-4200500Y-11612727D01*
X-4173207Y-11714587D01*
X-4120480Y-11805913D01*
X-4045913Y-11880480D01*
X-3954587Y-11933207D01*
X-3852727Y-11960500D01*
X-3852725Y-11960500D01*
X-3747275Y-11960500D01*
X-3747273Y-11960500D01*
X-3645413Y-11933207D01*
X-3613484Y-11914773D01*
X17573054Y-11914773D01*
X17573054Y-12020227D01*
X17600347Y-12122087D01*
X17653074Y-12213413D01*
X17727641Y-12287980D01*
X17818967Y-12340707D01*
X17920827Y-12368000D01*
X17920829Y-12368000D01*
X18026279Y-12368000D01*
X18026281Y-12368000D01*
X18128141Y-12340707D01*
X18219467Y-12287980D01*
X18294034Y-12213413D01*
X18346761Y-12122087D01*
X18374054Y-12020227D01*
X18374054Y-11914773D01*
X18346761Y-11812913D01*
X18294034Y-11721587D01*
X18219467Y-11647020D01*
X18128141Y-11594293D01*
X18026281Y-11567000D01*
X17920827Y-11567000D01*
X17818967Y-11594293D01*
X17818964Y-11594294D01*
X17727639Y-11647021D01*
X17653075Y-11721585D01*
X17600348Y-11812910D01*
X17600347Y-11812913D01*
X17573054Y-11914773D01*
X-3613484Y-11914773D01*
X-3554087Y-11880480D01*
X-3479520Y-11805913D01*
X-3426793Y-11714587D01*
X-3399500Y-11612727D01*
X-3399500Y-11507273D01*
X-3417193Y-11441239D01*
X-3423614Y-11417274D01*
X-1499028Y-11417274D01*
X-1499028Y-11522728D01*
X-1471735Y-11624588D01*
X-1419008Y-11715914D01*
X-1344441Y-11790481D01*
X-1253115Y-11843208D01*
X-1151255Y-11870501D01*
X-1151253Y-11870501D01*
X-1045803Y-11870501D01*
X-1045801Y-11870501D01*
X-943941Y-11843208D01*
X-852615Y-11790481D01*
X-778048Y-11715914D01*
X-725321Y-11624588D01*
X-698028Y-11522728D01*
X-698028Y-11417274D01*
X-725321Y-11315414D01*
X-725322Y-11315411D01*
X-778049Y-11224086D01*
X-852613Y-11149522D01*
X-943938Y-11096795D01*
X-943941Y-11096794D01*
X-1045801Y-11069501D01*
X-1151255Y-11069501D01*
X-1253115Y-11096794D01*
X-1344441Y-11149521D01*
X-1419008Y-11224088D01*
X-1471735Y-11315414D01*
X-1499028Y-11417274D01*
X-3423614Y-11417274D01*
X-3426792Y-11405414D01*
X-3426794Y-11405410D01*
X-3479521Y-11314085D01*
X-3554085Y-11239521D01*
X-3645410Y-11186794D01*
X-3645413Y-11186793D01*
X-3747273Y-11159500D01*
X-3852727Y-11159500D01*
X-3954587Y-11186793D01*
X-4045913Y-11239520D01*
X-4120480Y-11314087D01*
X-4173207Y-11405413D01*
X-4200500Y-11507273D01*
X-23499500Y-11507273D01*
X-23499500Y-10957273D01*
X-9800500Y-10957273D01*
X-9800500Y-11062727D01*
X-9773207Y-11164587D01*
X-9720480Y-11255913D01*
X-9645913Y-11330480D01*
X-9554587Y-11383207D01*
X-9452727Y-11410500D01*
X-9452725Y-11410500D01*
X-9347275Y-11410500D01*
X-9347273Y-11410500D01*
X-9245413Y-11383207D01*
X-9245409Y-11383205D01*
X-9231283Y-11375049D01*
X-9154087Y-11330480D01*
X-9079520Y-11255913D01*
X-9027559Y-11165914D01*
X-9026794Y-11164589D01*
X-9026793Y-11164586D01*
X-9022756Y-11149522D01*
X-8999500Y-11062727D01*
X-8999500Y-10957273D01*
X-9023615Y-10867273D01*
X7659500Y-10867273D01*
X7659500Y-10972727D01*
X7686793Y-11074587D01*
X7739520Y-11165913D01*
X7814087Y-11240480D01*
X7905413Y-11293207D01*
X8007273Y-11320500D01*
X8007275Y-11320500D01*
X8112725Y-11320500D01*
X8112727Y-11320500D01*
X8214587Y-11293207D01*
X8305913Y-11240480D01*
X8380480Y-11165913D01*
X8433207Y-11074587D01*
X8460500Y-10972727D01*
X8460500Y-10867273D01*
X8433207Y-10765413D01*
X8380480Y-10674087D01*
X8305913Y-10599520D01*
X8214587Y-10546793D01*
X8179057Y-10537273D01*
X18279500Y-10537273D01*
X18279500Y-10642727D01*
X18306793Y-10744587D01*
X18359520Y-10835913D01*
X18434087Y-10910480D01*
X18525413Y-10963207D01*
X18627273Y-10990500D01*
X18627275Y-10990500D01*
X18732725Y-10990500D01*
X18732727Y-10990500D01*
X18834587Y-10963207D01*
X18925913Y-10910480D01*
X19000480Y-10835913D01*
X19053207Y-10744587D01*
X19080500Y-10642727D01*
X19080500Y-10537273D01*
X19053207Y-10435413D01*
X19000480Y-10344087D01*
X18925913Y-10269520D01*
X18834587Y-10216793D01*
X18732727Y-10189500D01*
X18627273Y-10189500D01*
X18525413Y-10216793D01*
X18525410Y-10216794D01*
X18434085Y-10269521D01*
X18359521Y-10344085D01*
X18306794Y-10435410D01*
X18306793Y-10435413D01*
X18279500Y-10537273D01*
X8179057Y-10537273D01*
X8112727Y-10519500D01*
X8007273Y-10519500D01*
X7905413Y-10546793D01*
X7905410Y-10546794D01*
X7814085Y-10599521D01*
X7739521Y-10674085D01*
X7686794Y-10765410D01*
X7686793Y-10765413D01*
X7659500Y-10867273D01*
X-9023615Y-10867273D01*
X-9026793Y-10855413D01*
X-9026794Y-10855410D01*
X-9079521Y-10764085D01*
X-9154085Y-10689521D01*
X-9245410Y-10636794D01*
X-9245413Y-10636793D01*
X-9347273Y-10609500D01*
X-9452727Y-10609500D01*
X-9554587Y-10636793D01*
X-9645913Y-10689520D01*
X-9720480Y-10764087D01*
X-9773207Y-10855413D01*
X-9800500Y-10957273D01*
X-23499500Y-10957273D01*
X-23499500Y-10387273D01*
X4599500Y-10387273D01*
X4599500Y-10492727D01*
X4626793Y-10594587D01*
X4679520Y-10685913D01*
X4754087Y-10760480D01*
X4845413Y-10813207D01*
X4947273Y-10840500D01*
X4947275Y-10840500D01*
X5052725Y-10840500D01*
X5052727Y-10840500D01*
X5154587Y-10813207D01*
X5245913Y-10760480D01*
X5320480Y-10685913D01*
X5373207Y-10594587D01*
X5400500Y-10492727D01*
X5400500Y-10387273D01*
X5373207Y-10285413D01*
X5320480Y-10194087D01*
X5245913Y-10119520D01*
X5154587Y-10066793D01*
X5052727Y-10039500D01*
X4947273Y-10039500D01*
X4845413Y-10066793D01*
X4845410Y-10066794D01*
X4754085Y-10119521D01*
X4679521Y-10194085D01*
X4626794Y-10285410D01*
X4626793Y-10285413D01*
X4599500Y-10387273D01*
X-23499500Y-10387273D01*
X-23499500Y-9636366D01*
X-23479815Y-9569327D01*
X-23427011Y-9523572D01*
X-23375333Y-9512366D01*
X-22520875Y-9513539D01*
G37*
%TD.AperFunction*%
%TD*%
M02*
